<svg width="37" height="41" viewBox="0 0 37 41" fill="none" xmlns="http://www.w3.org/2000/svg">
<g clip-path="url(#clip0_21_370)">
<path d="M20.5474 23.957C20.9861 23.8355 21.4277 23.7256 21.8623 23.5856C21.9855 23.5475 22.1447 23.4572 22.1918 23.3392C22.7259 22.0041 23.2466 20.6624 23.754 19.3142C23.7779 19.2377 23.7884 19.1564 23.7848 19.0751C23.7811 18.9939 23.7635 18.9143 23.733 18.841C22.6608 16.5448 21.5782 14.2541 20.4853 11.9687C20.4395 11.8926 20.38 11.8288 20.3109 11.7817C20.2417 11.7345 20.1646 11.7052 20.0848 11.6957C19.1134 11.6378 18.4745 11.0894 18.133 10.0435C18.1085 9.97688 18.0724 9.91678 18.0269 9.86701C17.9814 9.81724 17.9275 9.77886 17.8686 9.7543C15.0646 8.9375 12.2559 8.13188 9.44253 7.33744C9.37073 7.32948 9.29829 7.33997 9.23042 7.36818C9.16255 7.39638 9.10092 7.44159 9.04997 7.50057C8.40003 8.34051 7.40661 8.57074 6.56741 8.05012C6.15427 7.80004 5.82792 7.39372 5.64292 6.89908C5.45791 6.40443 5.42545 5.85142 5.55095 5.33244C5.80732 4.31664 6.6976 3.56809 7.58187 3.62247C8.05516 3.64895 8.50592 3.86395 8.85753 4.23094C9.20915 4.59792 9.43992 5.09425 9.51063 5.63556C9.54167 5.87968 9.60175 6.00347 9.83108 6.06826C12.594 6.85036 15.353 7.6475 18.1139 8.43885C18.1382 8.44161 18.1626 8.43926 18.1861 8.43191C19.0693 6.92787 20.236 6.56112 21.2715 7.4566C22.307 8.35208 22.3731 9.7705 21.4257 11.1184L24.422 17.5105C24.5011 17.3335 24.5592 17.2166 24.6073 17.094C25.9191 13.7142 27.2307 10.3336 28.5419 6.95217C28.618 6.75665 28.6891 6.60509 28.5189 6.3737C28.2306 5.99708 28.0611 5.51892 28.0379 5.01694C28.0146 4.51495 28.1389 4.01861 28.3907 3.60858C28.6298 3.18959 28.9791 2.87043 29.3871 2.69817C29.7952 2.52591 30.2403 2.50965 30.6569 2.65179C31.0716 2.80052 31.4352 3.09641 31.696 3.49746C31.9569 3.8985 32.1017 4.3843 32.11 4.88586C32.1082 5.38754 31.9691 5.87572 31.7126 6.28053C31.4561 6.68535 31.0954 6.98604 30.682 7.1396C30.5408 7.1905 30.3815 7.26339 30.2443 7.23099C29.7656 7.1153 29.6184 7.44387 29.4552 7.87426C28.0986 11.4523 26.73 15.0242 25.3493 18.5899C25.2903 18.7202 25.2621 18.8661 25.2676 19.013C25.273 19.1599 25.3119 19.3025 25.3804 19.4264C27.201 23.2721 29.0122 27.1244 30.8141 30.9832C30.9573 31.2921 31.1146 31.4205 31.421 31.3974C31.8453 31.3696 32.2706 31.3696 32.6948 31.3974C32.9432 31.4113 33.0544 31.3141 33.1675 31.0503C33.5451 30.1768 34.177 29.6793 35.0282 29.7117C35.9074 29.7452 36.5303 30.2902 36.8638 31.2354C37.2644 32.3924 36.7577 33.7124 35.7462 34.2157C35.2773 34.4539 34.7462 34.4703 34.2669 34.2614C33.7876 34.0525 33.3983 33.6348 33.1825 33.0981C33.0634 32.8088 32.9402 32.6978 32.6568 32.7117C32.0459 32.7429 31.432 32.6955 30.8212 32.7302C30.3595 32.7568 30.0891 32.5532 29.8708 32.0846C28.1677 28.4263 26.4542 24.775 24.7304 21.1306C24.6663 20.9941 24.5972 20.861 24.4921 20.6481L23.8912 22.1834C23.6699 22.748 23.4546 23.3161 23.2233 23.8749C23.1381 24.0797 23.1351 24.2116 23.2864 24.399C23.9323 25.2007 23.9703 26.404 23.4045 27.3064C23.1377 27.7422 22.7495 28.0591 22.3047 28.204C21.86 28.3488 21.3856 28.313 20.961 28.1024C20.5388 27.896 20.1905 27.5285 19.9746 27.0613C19.7586 26.594 19.6879 26.0553 19.7743 25.5351C19.7993 25.4271 19.7997 25.3135 19.7755 25.2052C19.7513 25.097 19.7033 24.9978 19.6361 24.9173C17.5324 22.0959 15.4328 19.2694 13.3371 16.438C13.3051 16.3952 13.269 16.3559 13.253 16.3362C12.942 16.3807 12.6338 16.4492 12.3307 16.541C12.2195 16.5815 12.1124 16.7816 12.0783 16.9309C11.6247 18.9544 11.183 20.9802 10.7394 23.0072C10.0003 26.3754 9.2596 29.7425 8.5172 33.1085C8.45712 33.3758 8.49717 33.5065 8.69045 33.6708C9.05282 33.9735 9.31302 34.4121 9.42662 34.9117C9.54022 35.4114 9.50018 35.9411 9.31334 36.4104C8.9318 37.4008 8.00347 37.9885 7.11019 37.7988C6.16083 37.5998 5.47284 36.6754 5.41476 35.5207C5.36369 34.4911 5.93951 33.4845 6.82378 33.2462C7.24038 33.1305 7.33151 32.8852 7.41863 32.4826C8.57429 27.1568 9.73762 21.8329 10.9086 16.5109C10.9707 16.224 10.9657 16.0319 10.7544 15.8005C10.0734 15.0531 10.0013 13.7701 10.5461 12.8619C10.8097 12.4078 11.2031 12.0752 11.6574 11.9221C12.1117 11.769 12.5981 11.8052 13.0317 12.0242C13.927 12.487 14.4607 13.6312 14.1803 14.6933C14.0411 15.222 14.1643 15.5275 14.4477 15.9058C16.4165 18.5379 18.3673 21.1884 20.3241 23.8332C20.3882 23.92 20.4593 23.9998 20.5244 24.082L20.5474 23.957Z" fill="black"/>
<path d="M1.19571 21.8432V25.1359H3.00631C3.1435 25.1359 3.2817 25.1359 3.4189 25.1359C3.78142 25.1648 4.01976 25.4402 4.01976 25.8127C4.01976 26.1852 3.78942 26.4606 3.40788 26.4664C2.68384 26.4779 1.9598 26.4664 1.20472 26.4664V29.9014H2.90716C3.09443 29.9014 3.2827 29.8944 3.46897 29.9106C3.80245 29.9395 4.01074 30.1883 4.01675 30.5435C4.01937 30.6341 4.00592 30.7245 3.9772 30.8089C3.94849 30.8934 3.90513 30.9701 3.84979 31.0345C3.79445 31.0989 3.7283 31.1495 3.6554 31.1832C3.58251 31.217 3.50441 31.2331 3.42591 31.2307C2.81403 31.2457 2.20115 31.2307 1.58927 31.2365H1.19671V34.6055H2.93721C3.09944 34.6055 3.26267 34.5997 3.4249 34.6055C3.78242 34.6229 4.00473 34.8635 4.01675 35.2361C4.02091 35.3268 4.00879 35.4176 3.98115 35.5027C3.95351 35.5878 3.91094 35.6653 3.85612 35.7305C3.8013 35.7957 3.73541 35.8471 3.66258 35.8815C3.58975 35.9158 3.51156 35.9324 3.43291 35.9302C2.77096 35.9464 2.10902 35.936 1.44607 35.9383C1.37296 35.9383 1.29986 35.9476 1.19971 35.9557V39.7135H36.2499C36.324 39.7135 36.3991 39.7135 36.4742 39.7135C36.6016 39.7086 36.7257 39.761 36.8204 39.8596C36.9151 39.9581 36.973 40.0953 36.982 40.2422C37.0067 40.3867 36.9838 40.5366 36.9179 40.6626C36.852 40.7887 36.7477 40.8817 36.6255 40.9236C36.4702 40.9762 36.3084 40.9981 36.1468 40.9884C24.3879 40.9884 12.6291 40.9884 0.870244 40.9884C0.16924 40.9884 -0.00200776 40.7929 -0.00200776 39.9981V0.978763C-0.00651255 0.877789 -0.00651255 0.776616 -0.00200776 0.675642C0.0330424 0.274181 0.259367 0.00807905 0.567809 -1.95996e-05C0.891272 -0.0092752 1.14564 0.268393 1.16266 0.687209C1.17969 1.10602 1.16266 1.49013 1.16266 1.94713C1.90172 1.94713 2.61074 1.92746 3.31775 1.95985C3.51804 1.97027 3.77941 2.07555 3.89958 2.23984C4.20001 2.65056 3.89959 3.25564 3.41289 3.27416C2.81203 3.29614 2.21117 3.28109 1.61031 3.28225H1.18369V6.57493H2.83506C3.03534 6.57493 3.23563 6.56452 3.43592 6.58303C3.81446 6.61774 4.03678 6.88152 4.02276 7.27026C4.00874 7.65899 3.79142 7.91699 3.40788 7.92509C2.75895 7.93666 2.10601 7.92509 1.45909 7.92509H1.20672V11.2178C1.90773 11.2178 2.62075 11.1981 3.32776 11.2305C3.52805 11.2398 3.78842 11.3462 3.9096 11.5093C4.21003 11.92 3.91961 12.5251 3.42791 12.5506C2.82704 12.5772 2.22618 12.5598 1.62532 12.5621H1.19671V15.8537H2.34536C2.66982 15.8537 2.99529 15.8479 3.31976 15.8537C3.7714 15.8652 4.00974 16.092 4.02076 16.5004C4.03177 16.9088 3.75938 17.1946 3.31976 17.1946C2.74493 17.1946 2.1701 17.1946 1.59528 17.1946H1.20072V20.4861H3.14951C3.26158 20.4786 3.37392 20.4786 3.48599 20.4861C3.63129 20.4987 3.76699 20.5747 3.86556 20.6987C3.96412 20.8227 4.01818 20.9853 4.01675 21.1537C3.99572 21.532 3.81646 21.79 3.47898 21.8073C2.96825 21.8363 2.45552 21.8235 1.94278 21.8282L1.19571 21.8432Z" fill="black"/>
</g>
<defs>
<clipPath id="clip0_21_370">
<rect width="37" height="41" fill="white"/>
</clipPath>
</defs>
</svg>
