<svg width="38" height="41" viewBox="0 0 38 41" fill="none" xmlns="http://www.w3.org/2000/svg">
<g clip-path="url(#clip0_21_362)">
<path d="M10.885 40.1099C10.7683 40.0628 10.6527 40.0126 10.534 39.9676C9.7166 39.66 9.34068 38.9893 9.54999 38.1386C9.94048 36.5439 10.3508 34.9535 10.7517 33.362C10.7787 33.2573 10.7996 33.1401 10.8371 32.9643C9.53541 33.4603 8.30456 33.4258 7.12786 32.7551C5.95117 32.0844 5.2691 31.0464 5.01918 29.6976C4.30171 29.6976 3.6009 29.6976 2.90009 29.6976C1.27042 29.6871 0.10205 28.5707 0.00624769 26.9342C-2.5409e-07 26.8295 0 26.7249 0 26.6203C0 20.6909 0 14.7636 0 8.83845C0 7.38401 0.720597 6.30417 1.95665 5.90865C2.23948 5.83642 2.52589 5.77914 2.8147 5.73704C2.82199 5.67008 2.83449 5.59579 2.83865 5.52149C2.8626 5.03389 2.98756 4.8874 3.47177 4.78904L4.73907 4.52536C4.49331 4.14553 4.26631 3.79919 4.04346 3.45075C3.75293 2.99873 3.77168 2.79364 4.14031 2.42113C4.52455 2.03189 4.91505 1.64892 5.29722 1.25654C5.56588 0.981344 5.84599 0.942631 6.16776 1.16132C6.53327 1.40617 6.90606 1.6395 7.32363 1.90946C7.42256 1.45639 7.51316 1.04308 7.60375 0.629768C7.70788 0.147397 7.86929 0.00927764 8.34413 0.00195312C8.88978 0.00195312 9.43544 0.00195312 9.98109 0.00195312C10.4486 0.00195312 10.6246 0.155768 10.7256 0.629768C10.8121 1.0368 10.8964 1.44488 10.9953 1.91679C11.3765 1.66671 11.7295 1.43337 12.0846 1.20317C12.5136 0.924839 12.7156 0.943674 13.078 1.30781C13.4664 1.69391 13.8465 2.08735 14.237 2.47032C14.5254 2.75179 14.5494 3.04685 14.3276 3.3796C14.0839 3.74477 13.8496 4.11728 13.5903 4.51908L14.5046 4.7158C15.3835 4.89996 15.3835 4.89996 15.5376 5.7789H15.9114C20.8404 5.7789 25.7655 5.7789 30.6868 5.7789C30.919 5.7789 31.0908 5.74541 31.2449 5.53196C31.5709 5.08098 32.0488 4.87798 32.5987 4.8738C33.8201 4.86438 35.0416 4.8581 36.2631 4.8738C37.2378 4.88635 37.949 5.55812 37.9771 6.5396C38.0125 7.80465 38.0083 9.07283 37.9771 10.3379C37.9761 10.7411 37.8315 11.1307 37.5695 11.436C37.3074 11.7414 36.9452 11.9424 36.5484 12.0026C35.7528 12.1418 35.0301 11.7306 34.674 10.9333L34.5907 10.7481C34.473 10.8527 34.3699 10.9458 34.2783 11.041L26.2008 19.1555C25.4812 19.8765 24.9241 19.8734 24.1993 19.144C23.3465 18.285 22.4947 17.4249 21.6189 16.5407C21.4981 16.6568 21.3961 16.75 21.2972 16.8483C19.8174 18.3352 18.3471 19.8305 16.857 21.3048C15.8802 22.2716 14.3172 21.8572 13.9777 20.5535C13.8923 20.2696 13.8859 19.9676 13.9593 19.6804C14.0328 19.3932 14.1832 19.1316 14.3942 18.9243C15.2492 18.0475 16.1155 17.1821 16.983 16.3189C17.2849 16.0175 17.6286 16.005 17.8754 16.2707C18.1222 16.5365 18.0982 16.8483 17.8108 17.1403C17.0257 17.9386 16.2322 18.7297 15.4418 19.5239C15.3553 19.6027 15.2749 19.6881 15.2013 19.7792C15.1585 19.8291 15.1261 19.8872 15.1059 19.9499C15.0857 20.0126 15.0782 20.0787 15.0837 20.1443C15.0892 20.21 15.1077 20.2739 15.1381 20.3323C15.1685 20.3907 15.2101 20.4424 15.2606 20.4844C15.4689 20.6937 15.7157 20.7324 15.9604 20.5388C16.0794 20.4378 16.192 20.3295 16.2978 20.2145C17.7508 18.7572 19.2027 17.299 20.6536 15.8396C21.3149 15.1762 21.9032 15.1794 22.5707 15.847C23.4433 16.7228 24.3128 17.6027 25.2542 18.5528C25.3431 18.4126 25.4419 18.279 25.5499 18.1531C28.5351 15.1501 31.5202 12.1505 34.5053 9.15445C34.5841 9.06725 34.6683 8.98513 34.7573 8.90856C35.1489 8.59465 35.6591 8.7945 35.7164 9.29466C35.7528 9.61694 35.7226 9.94654 35.7372 10.273C35.7539 10.6319 35.9809 10.8799 36.2829 10.8569C36.6182 10.8328 36.8139 10.6267 36.816 10.295C36.8264 9.06795 36.8264 7.84092 36.816 6.61389C36.816 6.25604 36.5984 6.05514 36.2454 6.052C35.0374 6.04467 33.8285 6.04258 32.6205 6.052C32.2561 6.052 32.0457 6.28429 32.052 6.6118C32.0582 6.93931 32.2717 7.13498 32.6445 7.14126C32.9173 7.14858 33.1901 7.14126 33.463 7.14126C33.7358 7.14126 34.0221 7.23857 34.068 7.52527C34.0954 7.75942 34.0345 7.99539 33.8972 8.18657C33.6369 8.52454 33.3036 8.80601 33.0006 9.1105C30.7319 11.3916 28.4625 13.6719 26.1924 15.9516C25.4875 16.66 24.9199 16.661 24.2139 15.9516C23.3538 15.0831 22.4968 14.2105 21.6106 13.3095C21.0691 13.8578 20.5578 14.3758 20.0486 14.8916C19.963 14.9901 19.8689 15.0808 19.7675 15.1626C19.5009 15.351 19.2218 15.3531 18.9917 15.1135C18.7615 14.8738 18.7428 14.5725 18.9677 14.336C19.5925 13.6758 20.2319 13.0207 20.8994 12.4013C21.3534 11.9828 21.9917 12.0623 22.4739 12.5436C23.3756 13.4456 24.2712 14.3549 25.1449 15.2359L30.5212 9.83249H14.6348C14.01 10.453 13.456 11.0515 12.8437 11.583C12.7135 11.6961 12.3418 11.6301 12.1387 11.5307C11.7482 11.3392 11.3983 11.0641 10.9933 10.7983C10.8943 11.2723 10.8089 11.6908 10.7184 12.1073C10.6215 12.5562 10.4518 12.6995 9.98942 12.7037C9.43023 12.7089 8.87104 12.71 8.31289 12.7037C7.85367 12.7037 7.70059 12.5645 7.59958 12.0979C7.51107 11.6908 7.42464 11.2838 7.32051 10.8014C6.9498 11.0442 6.60929 11.267 6.26669 11.4889C5.80226 11.7902 5.58983 11.7777 5.21183 11.3842C4.74844 10.8966 4.30588 10.3892 3.84561 9.89737C3.78222 9.83965 3.69998 9.80726 3.61444 9.80633C2.95216 9.80006 2.28987 9.80633 1.62655 9.80633H1.19128C1.1819 9.9591 1.1642 10.0962 1.1642 10.2322C1.1642 15.7026 1.1642 21.1729 1.1642 26.6433C1.1642 27.8843 1.80566 28.5267 3.03859 28.5267H5.0171C5.23995 27.3245 5.81892 26.3555 6.82276 25.6649C7.53137 25.1684 8.37912 24.9118 9.24279 24.9325C11.2151 24.9691 12.4803 26.0835 13.3237 28.5278H34.1596C35.4331 28.5278 36.0631 27.8885 36.0631 26.5962V14.5265C36.0579 14.396 36.06 14.2653 36.0694 14.1351C36.1048 13.8212 36.2777 13.6318 36.5973 13.6119C36.9316 13.5868 37.1399 13.7658 37.2148 14.0859C37.2351 14.2146 37.2407 14.3452 37.2315 14.4752C37.2315 18.5211 37.2315 22.567 37.2315 26.6129C37.2315 28.5257 36.0725 29.6955 34.1804 29.6966H25.5583C25.6187 29.9582 25.6676 30.1925 25.727 30.429C26.3629 32.9284 26.9998 35.4282 27.6378 37.9283C27.9262 39.0688 27.5482 39.7175 26.4163 40.0524C26.3818 40.0682 26.3496 40.0886 26.3205 40.1131H25.6957C24.9928 39.9038 24.5503 39.4716 24.3753 38.7319C23.9494 36.9531 23.4881 35.1931 23.0393 33.4247C22.7269 32.19 22.4072 30.9553 22.0938 29.7301H20.1809V30.2218C20.1809 32.8723 20.16 35.5227 20.1913 38.1742C20.2027 39.1525 19.8404 39.8023 18.9115 40.1152H18.2867C17.3568 39.7751 17.0121 39.1065 17.0257 38.1208C17.0621 35.4746 17.0381 32.8283 17.0381 30.1821V29.6987C16.506 29.6987 16.026 29.7206 15.5501 29.6903C15.2325 29.6704 15.1023 29.7719 15.0242 30.0858C14.3265 32.889 13.5945 35.6828 12.9114 38.4891C12.7125 39.3053 12.3522 39.9027 11.5025 40.111L10.885 40.1099ZM12.4678 2.35835C12.1554 2.56763 11.8596 2.75806 11.566 2.9485C11.4146 3.04952 11.2408 3.11164 11.06 3.12942C10.8791 3.14719 10.6966 3.12007 10.5286 3.05044C10.3606 2.9808 10.2122 2.87079 10.0964 2.73005C9.9806 2.58931 9.90095 2.42215 9.86446 2.24325C9.79053 1.89063 9.71139 1.53905 9.63433 1.19166H8.6784C8.59613 1.57986 8.52532 1.96283 8.43473 2.34266C8.27853 2.98617 7.3934 3.34821 6.83942 3.00081C6.51036 2.79154 6.18755 2.58227 5.87099 2.373L5.18788 3.05732C5.37844 3.35449 5.56796 3.64851 5.75644 3.94358C5.85557 4.09432 5.91681 4.26698 5.93491 4.44674C5.953 4.62649 5.92741 4.80798 5.86033 4.97561C5.79326 5.14324 5.68669 5.29201 5.5498 5.40914C5.4129 5.52628 5.24976 5.60828 5.07437 5.64811C4.80779 5.70775 4.54226 5.76843 4.2736 5.81238C4.07054 5.84586 3.98202 5.94318 4.00702 6.15349C4.02003 6.27032 4.02003 6.38825 4.00702 6.50507C3.9789 6.7562 4.057 6.88699 4.33087 6.91525C4.61236 6.95389 4.89075 7.01263 5.16393 7.09103C5.80226 7.25113 6.15631 8.13216 5.80851 8.6951C5.60545 9.02471 5.39198 9.34594 5.21079 9.62322L5.86266 10.3557C6.15943 10.1621 6.45517 9.99572 6.72175 9.79064C7.0633 9.52695 7.40278 9.54579 7.78286 9.686C8.28374 9.87016 8.42535 10.2678 8.51699 10.7418C8.6784 11.5789 8.69402 11.5789 9.54582 11.5297C9.57998 11.5197 9.61284 11.5056 9.6437 11.4878C9.71451 11.1624 9.79157 10.8203 9.86342 10.477C9.90127 10.3 9.98135 10.1348 10.0968 9.99564C10.2122 9.85651 10.3595 9.74764 10.5261 9.67837C10.6926 9.6091 10.8734 9.58151 11.0529 9.59796C11.2324 9.61442 11.4053 9.67444 11.5566 9.77285C11.8586 9.96852 12.1595 10.1663 12.399 10.3222L13.128 9.66298C12.928 9.35536 12.7479 9.05295 12.5417 8.76939C12.3355 8.48583 12.3189 8.17506 12.4303 7.84441C12.5854 7.38297 12.8708 7.12242 13.3675 7.03767C14.3422 6.87234 14.338 6.84932 14.3047 5.96933C14.2971 5.93631 14.2856 5.90434 14.2703 5.87412L13.1821 5.63973C12.5209 5.49848 12.1408 4.60593 12.5053 4.02625C12.7135 3.6956 12.9218 3.37018 13.1373 3.0343L12.4678 2.35835ZM32.1353 8.41468C32.1228 8.36341 32.1113 8.31004 32.0999 8.25981C31.6052 8.09135 31.2127 7.78896 31.0273 7.30135C30.9232 7.02093 30.7836 6.94663 30.4941 6.94663C25.6346 6.9571 20.7768 6.95954 15.9208 6.95396H15.5147C15.4553 7.75861 15.3991 7.82139 14.6577 7.97834L13.6341 8.19389C13.7288 8.51617 13.885 8.63651 14.2037 8.63546C19.9705 8.62639 25.7374 8.62116 31.5042 8.61976C31.7104 8.61872 31.9207 8.48583 32.1311 8.41468H32.1353ZM12.1554 29.1148C12.1562 28.3166 11.8419 27.5508 11.2814 26.9852C10.7209 26.4197 9.96004 26.1006 9.16574 26.0981C8.37087 26.0984 7.60852 26.4153 7.04578 26.9794C6.48304 27.5435 6.1658 28.3088 6.1636 29.1075C6.16851 29.9055 6.48613 30.6696 7.04766 31.234C7.60919 31.7984 8.36941 32.1179 9.16365 32.1231C9.55702 32.1242 9.94671 32.0471 10.3103 31.8963C10.6739 31.7455 11.0043 31.5239 11.2823 31.2443C11.5604 30.9647 11.7807 30.6326 11.9305 30.2672C12.0803 29.9017 12.1568 29.5101 12.1554 29.1148ZM23.3371 29.7112C23.3447 29.7997 23.3568 29.8877 23.3736 29.9749C24.0962 32.8154 24.8203 35.6556 25.5458 38.4954C25.6405 38.8668 25.904 39.0248 26.2414 38.9139C26.5788 38.803 26.6038 38.5655 26.5246 38.2579C26.0487 36.4163 25.5874 34.5726 25.1147 32.7289C24.8585 31.7237 24.6016 30.7164 24.3441 29.707L23.3371 29.7112ZM13.3404 29.7112L13.4164 29.8033C13.079 30.4541 12.742 31.1046 12.4053 31.7548C12.3647 31.8361 12.3333 31.9217 12.3116 32.0101C11.7763 34.1153 11.2432 36.2213 10.7121 38.328C10.608 38.7319 10.8391 38.9788 11.2525 38.9401C11.6045 38.9066 11.6691 38.6398 11.7378 38.3688C12.2828 36.2258 12.8277 34.0829 13.3727 31.94C13.5601 31.2075 13.7413 30.4677 13.9308 29.7112H13.3404ZM18.2346 29.7112C18.2273 29.8158 18.219 29.8807 18.219 29.9445C18.219 32.7607 18.219 35.5767 18.219 38.3928C18.219 38.4577 18.1971 38.5509 18.2305 38.5833C18.3585 38.7068 18.5002 38.8846 18.647 38.8972C18.7595 38.9056 18.9104 38.7088 19.0031 38.576C19.0531 38.5048 19.0208 38.373 19.0208 38.2694C19.0208 35.5572 19.0208 32.8454 19.0208 30.1339C19.0208 29.9958 19.0073 29.8588 19 29.7154L18.2346 29.7112ZM1.21106 8.62813C2.17845 8.62813 3.14792 8.61558 4.11635 8.63546C4.4475 8.64278 4.61307 8.52036 4.68492 8.19389L3.45407 7.92394C2.98235 7.8193 2.86677 7.68536 2.83865 7.22078C2.83865 7.1444 2.82303 7.06906 2.81574 6.99791C1.93478 6.91001 1.17461 7.67281 1.21106 8.62813Z" fill="black"/>
<path d="M8.10044 14.6365C9.03763 14.6365 9.96858 14.6365 10.9026 14.6365C11.4379 14.6365 11.6316 14.8269 11.6378 15.369C11.6451 16.0334 11.6461 16.6978 11.6378 17.3623C11.6305 17.8635 11.4181 18.0822 10.9203 18.0832C9.02722 18.0895 7.13339 18.0895 5.23888 18.0832C4.71822 18.0832 4.50995 17.8624 4.50475 17.3403C4.4985 16.6762 4.4985 16.0114 4.50475 15.3459C4.50995 14.8426 4.71301 14.6417 5.22222 14.6396C6.18128 14.6313 7.14138 14.6365 8.10044 14.6365ZM10.4434 15.8461H5.69915V16.8872H10.4424L10.4434 15.8461Z" fill="black"/>
<path d="M27.5774 24.5999C29.3546 24.5999 31.1325 24.5999 32.9111 24.5999C33.2026 24.5999 33.4578 24.6481 33.6036 24.9316C33.6447 25.0136 33.666 25.1043 33.6656 25.1961C33.6652 25.2879 33.6432 25.3784 33.6014 25.4601C33.5595 25.5417 33.499 25.6122 33.4248 25.6659C33.3507 25.7195 33.2649 25.7548 33.1745 25.7687C33.0584 25.7816 32.9414 25.7851 32.8246 25.7792H22.2719C22.1555 25.7862 22.0388 25.7827 21.923 25.7687C21.6169 25.7122 21.4326 25.5176 21.4242 25.2068C21.4159 24.896 21.594 24.6931 21.8939 24.6209C22.0219 24.6006 22.1519 24.595 22.2812 24.6041L27.5774 24.5999Z" fill="black"/>
<path d="M29.76 23.1957C28.7478 23.1957 27.7353 23.1957 26.7224 23.1957C26.2018 23.1957 25.9279 22.9864 25.9352 22.6003C25.9425 22.2142 26.2101 22.0227 26.7037 22.0227C28.7808 22.0227 30.8582 22.0227 32.936 22.0227C33.44 22.0227 33.7347 22.3094 33.6504 22.7185C33.5785 23.067 33.338 23.1988 32.9933 23.1978C31.9155 23.1936 30.8378 23.1957 29.76 23.1957Z" fill="black"/>
<path d="M7.14244 20.3005C6.49474 20.3005 5.84703 20.3005 5.19829 20.3005C4.77551 20.3005 4.51206 20.0713 4.50685 19.726C4.50164 19.3807 4.7703 19.1317 5.18371 19.1296C6.48051 19.1233 7.77661 19.1233 9.07202 19.1296C9.49584 19.1296 9.74055 19.3682 9.7343 19.7302C9.72805 20.0922 9.48959 20.2963 9.04807 20.3005C8.41286 20.3046 7.78181 20.3005 7.14244 20.3005Z" fill="black"/>
<path d="M9.15323 3.87781C9.81045 3.87725 10.441 4.13892 10.9063 4.6053C11.3716 5.07168 11.6336 5.70461 11.6347 6.36501C11.6305 7.01809 11.3722 7.64361 10.9152 8.10795C10.4581 8.5723 9.83849 8.83865 9.18864 8.85011C8.53332 8.85021 7.90418 8.59167 7.43673 8.13018C6.96929 7.66869 6.70093 7.04117 6.68946 6.38279C6.68805 5.72306 6.94625 5.08952 7.40777 4.62028C7.86929 4.15104 8.4967 3.88416 9.15323 3.87781ZM10.4653 6.37651C10.4676 6.03319 10.3363 5.70256 10.0993 5.45524C9.86231 5.20792 9.53848 5.06352 9.19697 5.05287C8.84886 5.0453 8.51202 5.17695 8.2605 5.41889C8.00898 5.66084 7.86339 5.99324 7.85574 6.34303C7.85625 6.68608 7.98856 7.01568 8.22507 7.26308C8.46157 7.51048 8.78401 7.65657 9.12511 7.67086C9.47327 7.67648 9.80953 7.54357 10.0606 7.30111C10.3116 7.05866 10.4571 6.7263 10.4653 6.37651Z" fill="black"/>
<path d="M9.73534 29.1055C9.73534 29.3786 9.74784 29.6517 9.73534 29.9248C9.71764 30.2554 9.53541 30.448 9.20115 30.4815C9.12618 30.492 9.04984 30.4864 8.97718 30.465C8.90453 30.4437 8.83722 30.4071 8.77972 30.3576C8.72222 30.3081 8.67584 30.247 8.64365 30.1781C8.61146 30.1093 8.5942 30.0343 8.59301 29.9583C8.56386 29.4006 8.5649 28.8397 8.59301 28.2841C8.59468 28.2085 8.61155 28.134 8.6426 28.0652C8.67364 27.9963 8.71823 27.9344 8.77367 27.8833C8.82912 27.8322 8.89427 27.7929 8.96523 27.7677C9.03619 27.7425 9.11147 27.732 9.18657 27.7369C9.49376 27.7484 9.71243 27.9796 9.74263 28.3239C9.74263 28.3504 9.74263 28.3765 9.74263 28.4023V29.1044L9.73534 29.1055Z" fill="black"/>
</g>
<defs>
<clipPath id="clip0_21_362">
<rect width="38" height="40.1111" fill="white"/>
</clipPath>
</defs>
</svg>
