<svg width="358" height="314" viewBox="0 0 358 314" fill="none" xmlns="http://www.w3.org/2000/svg">
<g clip-path="url(#clip0_98_1945)">
<path d="M237.5 307.82H148.46L161.81 258.67H224.14L237.5 307.82Z" fill="#263238" stroke="#263238" stroke-linecap="round" stroke-linejoin="round"/>
<path d="M260.65 307.82H125.31V312.81H260.65V307.82Z" fill="#263238" stroke="#263238" stroke-linecap="round" stroke-linejoin="round"/>
<path d="M385.45 19.46H0.5V263.83H385.45V19.46Z" fill="#263238" stroke="#263238" stroke-linecap="round" stroke-linejoin="round"/>
<path d="M373.12 28.78H12.84V254.52H373.12V28.78Z" fill="#B2B2B2" stroke="#263238" stroke-linecap="round" stroke-linejoin="round"/>
<path d="M121.69 85.74L98.35 89.64L105.71 197.29L139.54 200.02C139.54 200.02 146.89 158.63 147.31 151.91C147.73 145.19 135.31 94.77 135.31 94.77L121.69 85.74Z" fill="#B7B7B7" stroke="#263238" stroke-linecap="round" stroke-linejoin="round"/>
<path d="M156.18 254.52C156.95 251.87 157.33 249.12 157.31 246.36C157.04 242.36 155.98 236.25 155.98 236.25L146.4 237.05L150.11 254.52H156.18Z" fill="white" stroke="#263238" stroke-linecap="round" stroke-linejoin="round"/>
<path d="M53.46 254.52H150.34C150.08 252.39 149.34 247.02 148.57 241.63C147.52 234.7 140.38 186.16 140.38 186.16L69.18 179.43C69.18 179.43 52.58 211.58 50.27 221.03C47.96 230.48 53.18 252.75 53.18 252.75L53.46 254.52Z" fill="#263238" stroke="#263238" stroke-linecap="round" stroke-linejoin="round"/>
<path d="M147.31 12.62C147.31 12.62 152.77 11.36 155.08 19.97C157.39 28.58 154.66 32.97 155.71 37.2C156.76 41.43 159.02 51.27 156.28 61.14C153.54 71.01 143.74 78.14 143.28 81.74L142.86 85.31C142.86 85.31 141.39 86.78 136.77 86.36C132.15 85.94 126.47 82.58 126.47 82.58L127.1 75.44C127.1 75.44 135.1 75.44 136.98 73.97C138.86 72.5 147.06 57.97 147.69 53.8C148.32 49.63 148.74 37.62 148.11 34.05C147.48 30.48 143.11 23.12 141.39 22.49C139.67 21.86 131.93 16.4 131.93 16.4C131.93 16.4 142.69 9.88996 147.31 12.62Z" fill="#0F0F0F" stroke="#263238" stroke-linecap="round" stroke-linejoin="round"/>
<path d="M152.56 102.96C152.56 102.96 159.29 106.11 159.5 111.36C159.71 116.61 155.92 139.93 155.92 141.62C155.92 143.31 154.03 178.17 154.03 178.17L158.1 238.9L148.53 239.44C148.53 239.44 140.18 194.52 141.01 189.1C141.84 183.68 146.89 156.74 147.31 151.91C147.73 147.08 146.68 126.49 148.15 120.4C149.62 114.31 152.56 102.96 152.56 102.96Z" fill="white" stroke="#263238" stroke-linecap="round" stroke-linejoin="round"/>
<path d="M138.18 17.2C138.18 17.2 148.56 21.44 150.24 28.8C151.92 36.16 149.4 45.39 150.24 51.28C151.08 57.17 142.68 71.87 139.74 75.44C136.8 79.01 129.65 77.75 129.65 77.75L130.73 89.52C130.73 89.52 135.13 104.22 134.49 108C133.85 111.78 126.92 117.33 118.11 116.82C107.18 116.19 103.81 106.02 103.81 106.02L105.28 82.7C105.65 77.9 105.51 73.07 104.87 68.29C103.82 59.68 106.13 46.65 106.97 44.55C107.81 42.45 115.59 33.84 120.42 30.48C125.25 27.12 134.7 17.48 134.7 17.48C134.7 17.48 137.48 16.31 138.18 17.2Z" fill="white" stroke="#263238" stroke-linecap="round" stroke-linejoin="round"/>
<path d="M104.86 87.1099C104.86 87.1099 72.52 90.1099 67.86 93.2899C63.2 96.4699 69.96 163.88 69.96 163.88C69.96 163.88 43.96 221.03 44.75 221.45C45.54 221.87 57.98 232.16 71.22 234.45C84.46 236.74 103.78 238.45 103.78 238.45C103.78 238.45 110.71 181.72 111.55 177.31C112.39 172.9 109.66 129.2 110.08 123.11C110.5 117.02 104.86 87.1099 104.86 87.1099Z" fill="white" stroke="#263238" stroke-linecap="round" stroke-linejoin="round"/>
<path d="M105.79 155.46C106.74 157.7 107.84 159.89 109.07 161.99" stroke="#263238" stroke-linecap="round" stroke-linejoin="round"/>
<path d="M97.5 101.11C98.89 113.7 101.03 133.26 101.72 140.56C102.2 145.01 103.3 149.37 104.97 153.52" stroke="#263238" stroke-linecap="round" stroke-linejoin="round"/>
<path d="M96.25 89.8499C96.25 89.8499 96.58 92.8499 97.08 97.3599" stroke="#263238" stroke-linecap="round" stroke-linejoin="round"/>
<path d="M138.18 17.1999C136.09 20.7699 133.75 24.1899 131.18 27.4299C127.52 31.8199 113.64 40.8299 113.64 40.8299C113.64 40.8299 113.88 45.7099 112.9 47.1699C111.92 48.6299 108.76 47.6599 108.76 47.6599C108.76 47.6599 106.57 59.5899 107.3 68.3699C108.03 77.1499 112.42 79.5699 111.2 81.7699C109.98 83.9699 102.29 89.7699 91.82 85.6599C81.35 81.5499 75.98 77.3699 73.3 70.7899C70.62 64.2099 80.01 29.1399 86.83 17.9299C93.65 6.71993 109.98 -0.590073 119.97 0.629927C129.96 1.84993 147.75 7.20993 149.21 11.3499C150.67 15.4899 138.18 17.1999 138.18 17.1999Z" fill="#0F0F0F" stroke="#263238" stroke-linecap="round" stroke-linejoin="round"/>
<path d="M106.97 44.52C106.97 44.52 97.57 54.98 95.64 66.27C93.71 77.56 99.51 82.4 101.77 83.37" stroke="#5C5C5C" stroke-linecap="round" stroke-linejoin="round"/>
<path d="M79.23 64.73C78.98 66.89 79.18 69.07 79.83 71.14" stroke="#5C5C5C" stroke-linecap="round" stroke-linejoin="round"/>
<path d="M123.18 23.7998C120.82 25.8998 118.29 27.8198 115.63 29.5298C102.86 37.8698 85.8 47.8998 80.63 59.6098" stroke="#5C5C5C" stroke-linecap="round" stroke-linejoin="round"/>
<path d="M130.18 11.46C130.18 11.46 131.26 14.84 126.42 20.53" stroke="#5C5C5C" stroke-linecap="round" stroke-linejoin="round"/>
<path d="M130.73 89.52C130.73 89.52 148.57 100.23 152.56 102.96C156.55 105.69 149.83 131.32 150.46 136.36C151.09 141.4 152.98 153.36 151.09 158.42C149.2 163.48 148.15 166.62 148.15 166.62L144.58 189.73C144.58 189.73 150.46 234.06 150.25 234.73C150.04 235.4 129.45 238.09 129.45 238.09C129.45 238.09 133.23 193.09 135.34 183.67C137.45 174.25 144.34 160.35 142.69 144.81C141.04 129.27 130.73 89.52 130.73 89.52Z" fill="white" stroke="#263238" stroke-linecap="round" stroke-linejoin="round"/>
<path d="M146.92 144.79C146.66 149.85 145.44 154.82 143.32 159.42" stroke="#263238" stroke-linecap="round" stroke-linejoin="round"/>
<path d="M141.18 98.1199C141.18 98.1199 146.74 128.18 147.02 140.04" stroke="#263238" stroke-linecap="round" stroke-linejoin="round"/>
<path d="M149.18 131.32C149.18 131.32 147.9 120.83 146.18 115.32" stroke="#263238" stroke-linecap="round" stroke-linejoin="round"/>
<path d="M133.18 46.21C133.18 47.87 132.38 49.21 131.38 49.21C130.38 49.21 129.58 47.86 129.58 46.21C129.58 44.56 130.38 43.21 131.38 43.21C132.38 43.21 133.18 44.52 133.18 46.21Z" fill="#263238"/>
<path d="M148.47 46.21C148.47 47.87 147.67 49.21 146.67 49.21C145.67 49.21 144.86 47.86 144.86 46.21C144.86 44.56 145.67 43.21 146.67 43.21C147.67 43.21 148.47 44.52 148.47 46.21Z" fill="#263238"/>
<path d="M125.92 40.52C128.94 38.53 132.68 37.98 136.14 39.02" stroke="#263238" stroke-linecap="round" stroke-linejoin="round"/>
<path d="M148.77 40.5198C147.71 39.2998 145.92 39.0498 144.56 39.9198C144.56 39.9198 141.86 43.5298 142.46 45.9198" stroke="#263238" stroke-linecap="round" stroke-linejoin="round"/>
<path d="M142.76 60.3499L137.04 61.2499" stroke="#263238" stroke-linecap="round" stroke-linejoin="round"/>
<path d="M139.18 65.16C139.18 65.16 130.76 67.56 125.65 61.25" stroke="#263238" stroke-linecap="round" stroke-linejoin="round"/>
<path d="M129.66 77.7498L121.4 75.0798L128.62 83.8098L129.66 77.7498Z" fill="#263238" stroke="#263238" stroke-linecap="round" stroke-linejoin="round"/>
<path d="M279.04 89.28C277.07 92.32 275.63 95.68 274.78 99.21C273.6 104.64 272.42 110.79 272.42 110.79C272.42 110.79 278.33 106.06 279.04 105.79C279.75 105.52 278.57 99.65 278.57 99.65L282.57 96.34L279.04 89.28Z" fill="#263238" stroke="#263238" stroke-linecap="round" stroke-linejoin="round"/>
<path d="M281.4 9.63005C281.4 9.63005 275.49 11.76 273.13 16.01C270.77 20.26 264.62 30.19 265.57 33.5C266.52 36.81 266.98 38.23 266.98 38.23C266.98 38.23 258.48 53.1201 259.42 54.5401C260.57 55.9701 261.83 57.3101 263.2 58.5401C263.2 58.5401 266.98 76.26 268.64 77.44C270.3 78.62 275.02 79.33 275.02 79.33L281.87 87.84L319.45 72.52L319.93 64.25C319.93 64.25 332.69 47.7001 334.34 38.25C335.99 28.8 323.94 12.49 310.94 6.11005C297.94 -0.269952 284.24 3.25005 281.4 9.63005Z" fill="white" stroke="#263238" stroke-linecap="round" stroke-linejoin="round"/>
<path d="M269.18 43.3198C270.8 44.6598 272.8 45.4598 274.9 45.6098" stroke="#263238" stroke-linecap="round" stroke-linejoin="round"/>
<path d="M310.94 6.08992C297.94 -0.290081 284.24 3.24992 281.4 9.62992C281.4 9.62992 282.58 10.5799 286.4 10.3399C290.22 10.0999 299.17 6.33992 301.53 9.62992C303.89 12.9199 294.44 15.7799 290.9 20.7399C287.36 25.6999 288.3 25.9399 291.13 29.7399C293.96 33.5399 294.44 35.1799 293.97 36.8299C293.5 38.4799 292.79 39.8999 295.86 40.3799C298.93 40.8599 299.86 33.2899 304.6 35.6499C309.34 38.0099 310.04 45.0999 308.38 49.8299C307.56 52.4999 305.69 54.7199 303.19 55.9799C303.19 55.9799 303.89 59.0499 309.09 61.6499C312.5 63.2599 316.2 64.1399 319.97 64.2499C319.97 64.2499 332.73 47.6999 334.38 38.2499C336.03 28.7999 323.94 12.5199 310.94 6.08992Z" fill="#0F0F0F" stroke="#263238" stroke-linecap="round" stroke-linejoin="round"/>
<path d="M319.93 48.4299C320.7 50.3999 321.01 52.5199 320.81 54.6299" stroke="#5C5C5C" stroke-linecap="round" stroke-linejoin="round"/>
<path d="M293.05 23.8699C293.05 23.8699 294.72 27.2099 304.05 31.2199C309.31 33.4799 314.26 38.2799 317.41 43.3499" stroke="#5C5C5C" stroke-linecap="round" stroke-linejoin="round"/>
<path d="M318.8 33.8999C318.8 33.8999 327.16 38.8999 325.8 48.6099" stroke="#5C5C5C" stroke-linecap="round" stroke-linejoin="round"/>
<path d="M273.18 38.8198C273.18 40.4498 272.49 41.8198 271.64 41.8198C270.79 41.8198 270.11 40.4898 270.11 38.8198C270.11 37.1498 270.79 35.8198 271.64 35.8198C272.49 35.8198 273.18 37.1898 273.18 38.8198Z" fill="#263238"/>
<path d="M268.18 32.32C268.18 32.32 272.43 27.32 276.18 32.56" stroke="#263238" stroke-linecap="round" stroke-linejoin="round"/>
<path d="M266.51 59.26C266.51 59.26 272.18 58.79 275.73 55.26" stroke="#263238" stroke-linecap="round" stroke-linejoin="round"/>
<path d="M303.18 55.96L300.58 56.66C299.42 60.13 297.48 63.29 294.9 65.88" fill="white"/>
<path d="M303.18 55.96L300.58 56.66C299.42 60.13 297.48 63.29 294.9 65.88" stroke="#263238" stroke-linecap="round" stroke-linejoin="round"/>
<path d="M320.18 68.95C320.18 68.95 283.31 84.32 281.66 86.21C280.01 88.1 279.06 89.28 279.06 89.28L281.89 104.41L324.89 76.04L320.18 68.95Z" fill="white" stroke="#263238" stroke-linecap="round" stroke-linejoin="round"/>
<path d="M212.95 173.1L215 188.15L205.42 190.43C202.78 192.21 200.03 193.81 197.18 195.22C193.31 197.04 190.57 197.72 189.18 197.72C187.79 197.72 182.8 195.67 182.8 195.67C182.8 195.67 186.22 177.2 190.1 175.15C193.98 173.1 204.28 170.13 212.95 173.1Z" fill="white" stroke="#263238" stroke-linecap="round" stroke-linejoin="round"/>
<path d="M164.72 179.41C164.72 179.41 182.72 176.74 184.72 176.46C186.72 176.18 191.96 180.55 191.96 180.55C191.96 180.55 202.13 193.15 201.55 194.07C200.09 196.38 198.5 195.07 198.5 195.07L198.38 196.57C198.38 196.57 197.27 198.43 190.31 198.45C183.35 198.47 180.86 196.76 179.15 196.62C177.44 196.48 163.96 193.04 163.96 193.04L164.72 179.41Z" fill="white" stroke="#263238" stroke-linecap="round" stroke-linejoin="round"/>
<path d="M158.68 178.07L165.29 179.26L164.56 194.16L158.55 193.77L158.68 178.07Z" fill="white" stroke="#263238" stroke-linecap="round" stroke-linejoin="round"/>
<path d="M85.39 92.35C85.39 92.35 66.59 91.04 62.65 94.1C58.71 97.16 60.65 137.61 63.97 152.26C67.29 166.91 71.84 190.31 73.97 191.4C76.1 192.49 159.55 195.87 159.55 195.87L160.43 177.72L96.06 163.85L91.47 106.57" fill="white"/>
<path d="M85.39 92.35C85.39 92.35 66.59 91.04 62.65 94.1C58.71 97.16 60.65 137.61 63.97 152.26C67.29 166.91 71.84 190.31 73.97 191.4C76.1 192.49 159.55 195.87 159.55 195.87L160.43 177.72L96.06 163.85L91.47 106.57" stroke="#263238" stroke-linecap="round" stroke-linejoin="round"/>
<path d="M198.55 195.07L195.65 190.99" stroke="#263238" stroke-linecap="round" stroke-linejoin="round"/>
<path d="M196.55 197.43L193.04 192.96" stroke="#263238" stroke-linecap="round" stroke-linejoin="round"/>
<path d="M208.18 174.52C208.18 174.52 191.08 169.27 187.66 172.92C184.24 176.57 176.94 186.15 178.54 187.29C180.14 188.43 185.83 184.09 187.2 183.18C188.21 182.45 189.13 181.61 189.94 180.67C193.17 183.87 197.87 185.09 202.25 183.87" fill="white"/>
<path d="M208.18 174.52C208.18 174.52 191.08 169.27 187.66 172.92C184.24 176.57 176.94 186.15 178.54 187.29C180.14 188.43 185.83 184.09 187.2 183.18C188.21 182.45 189.13 181.61 189.94 180.67C193.17 183.87 197.87 185.09 202.25 183.87" stroke="#263238" stroke-linecap="round" stroke-linejoin="round"/>
<path d="M189.35 192.52C189.35 192.52 187.73 198.39 188.35 199.38C188.86 200.24 189.89 200.65 190.85 200.38C191.41 200.14 191.91 199.8 192.34 199.38C192.34 199.38 192.59 194.38 191.84 193.15C191.09 191.92 190.47 191.06 189.35 192.52Z" fill="white" stroke="#263238" stroke-linecap="round" stroke-linejoin="round"/>
<path d="M184.98 193.3C184.98 193.3 183.36 199.16 183.98 200.16C184.49 201.02 185.51 201.43 186.47 201.16C187.03 200.93 187.54 200.59 187.97 200.16C187.97 200.16 188.22 195.16 187.47 193.93C186.72 192.7 186.11 191.81 184.98 193.3Z" fill="white" stroke="#263238" stroke-linecap="round" stroke-linejoin="round"/>
<path d="M180.59 193.52C180.59 193.52 179.35 198.02 179.83 198.78C180.22 199.44 181 199.76 181.74 199.55C182.17 199.37 182.56 199.11 182.89 198.78C182.89 198.78 183.08 194.96 182.51 194C181.94 193.04 181.45 192.37 180.59 193.52Z" fill="white" stroke="#263238" stroke-linecap="round" stroke-linejoin="round"/>
<path d="M175.42 193.7C175.42 193.7 174.42 196.7 174.82 197.19C175.18 197.64 175.77 197.83 176.32 197.69C176.65 197.58 176.96 197.41 177.23 197.19C177.23 197.19 177.38 194.65 176.93 194.02C176.48 193.39 176.1 192.94 175.42 193.7Z" fill="white" stroke="#263238" stroke-linecap="round" stroke-linejoin="round"/>
<path d="M211.58 171.5L213.86 192.71L221.38 191.34L218.65 170.13L211.58 171.5Z" fill="white" stroke="#263238" stroke-linecap="round" stroke-linejoin="round"/>
<path d="M216.37 168.77L220.93 195.67L252.16 191.57L255.58 161.01L216.37 168.77Z" fill="#B7B7B7" stroke="#263238" stroke-linecap="round" stroke-linejoin="round"/>
<path d="M240.89 193.05L252.16 191.57L255.58 161.01L247.35 162.64L240.89 193.05Z" fill="#263238" stroke="#263238" stroke-linecap="round" stroke-linejoin="round"/>
<path d="M335.18 254.52L332.63 205.52C332.63 205.52 343.35 158.52 341.07 132.52C338.79 106.52 321.23 79.3999 321.23 79.3999C321.23 79.3999 279.96 105.16 275.63 109.72C271.3 114.28 263.56 122.02 261.28 129.32C259 136.62 250.11 181.52 250.11 181.52C250.11 181.52 240.76 212.99 237.8 231.92C236 243.43 236.22 250.62 236.67 254.5L335.18 254.52Z" fill="#B7B7B7" stroke="#263238" stroke-linecap="round" stroke-linejoin="round"/>
<path d="M319.68 87.9698C322.51 86.8198 325.27 85.5198 327.96 84.0798" stroke="#263238" stroke-linecap="round" stroke-linejoin="round"/>
<path d="M263.56 139.73C267.12 133.29 271.56 125.64 273.56 123.31C277.34 119.06 305.7 94.01 316.1 89.52" stroke="#263238" stroke-linecap="round" stroke-linejoin="round"/>
<path d="M258.24 149.52C258.24 149.52 259.93 146.32 262.24 142.12" stroke="#263238" stroke-linecap="round" stroke-linejoin="round"/>
<path d="M284.46 151.98C284.46 166.64 282.46 181.15 283.46 195.66C278.28 214.32 268.95 230.9 262.24 248.41" stroke="#263238" stroke-linecap="round" stroke-linejoin="round"/>
<path d="M288.26 121.9C288.26 121.9 284 128.28 284.47 140.09C284.53 141.54 284.55 143.52 284.54 145.87" stroke="#263238" stroke-linecap="round" stroke-linejoin="round"/>
<path d="M329.38 128.52C329.38 128.52 319.93 201.32 318.98 207.23C318.3 211.46 303.81 234.6 295.63 247.39" stroke="#263238" stroke-linecap="round" stroke-linejoin="round"/>
<path d="M266.92 233.86L247.59 230.5L248.85 224.61L267.76 227.98" stroke="#263238" stroke-linecap="round" stroke-linejoin="round"/>
</g>
<defs>
<clipPath id="clip0_98_1945">
<rect width="385.95" height="313.31" fill="white"/>
</clipPath>
</defs>
</svg>
