<svg width="49" height="45" viewBox="0 0 49 45" fill="none" xmlns="http://www.w3.org/2000/svg">
<path d="M48.0555 11.7554C47.9188 12.3913 47.8192 13.0368 47.6384 13.6614C46.983 15.933 45.5772 17.9322 43.6374 19.351C41.6976 20.7699 39.3316 21.5296 36.9037 21.5132H36.4085V22.0467C36.4085 27.5034 36.4085 32.9607 36.4085 38.4187C36.4085 41.3973 34.3971 43.7978 31.4197 44.3569C30.7818 44.4765 30.1136 44.4737 29.4591 44.4746C21.7315 44.4822 14.0036 44.4822 6.27533 44.4746C2.70883 44.4746 0.00586115 41.8453 0 38.3902C0 37.3866 0 36.3832 0 35.3802C0 34.6997 0.25203 34.4529 0.965136 34.45C2.54472 34.4443 4.12526 34.45 5.70484 34.45H6.2724C6.28412 34.2687 6.30073 34.1093 6.30171 33.9507C6.36293 25.4079 6.42317 16.865 6.48243 8.32208C6.49024 7.30548 6.69538 7.10709 7.75234 7.10709C13.8694 7.10709 19.9862 7.10994 26.1026 7.11564C26.4689 7.11564 26.634 7.02072 26.7806 6.6771C28.5389 2.55564 32.7804 -0.12019 37.314 0.00415631C42.7571 0.154131 47.3444 4.2196 47.9725 9.4469C47.9935 9.5486 48.0226 9.64856 48.0595 9.74589L48.0555 11.7554ZM8.03661 8.65715C7.97702 17.2579 7.91743 25.8331 7.85784 34.4519H18.8055C20.8071 34.4519 22.8106 34.4519 24.8112 34.4519C25.4393 34.4519 25.6845 34.6997 25.6904 35.3129C25.6972 35.6925 25.6904 36.0722 25.6904 36.4519C25.7031 37.3632 25.621 38.2886 25.7568 39.1828C26.1134 41.5321 28.2546 43.1267 30.6714 42.9407C33.01 42.7604 34.8123 40.8524 34.8191 38.4861C34.8338 32.8933 34.8191 27.3006 34.8318 21.7069C34.8318 21.3785 34.7195 21.2835 34.403 21.2057C31.7215 20.5498 29.5636 19.1326 27.9801 16.9219C27.7848 16.6457 27.5796 16.5679 27.2534 16.5688C24.7975 16.5812 22.3417 16.5755 19.8869 16.5745C19.7307 16.5814 19.5741 16.5753 19.419 16.5565C19.2307 16.533 19.0583 16.4421 18.9353 16.3017C18.8123 16.1613 18.7476 15.9814 18.7537 15.7971C18.7559 15.6128 18.828 15.4357 18.9561 15.2998C19.0843 15.1639 19.2595 15.0787 19.4483 15.0605C19.5881 15.0467 19.7288 15.0429 19.8693 15.0491H26.8694C25.9483 12.9609 25.7412 10.8479 26.1349 8.6562L8.03661 8.65715ZM46.4906 10.7948C46.517 5.72979 42.2843 1.56561 37.0845 1.54283C31.8094 1.51815 27.522 5.62443 27.5015 10.7217C27.4947 11.9362 27.7348 13.14 28.2081 14.2641C28.6815 15.3882 29.3786 16.4103 30.2596 17.2718C31.1406 18.1334 32.1881 18.8173 33.3418 19.2844C34.4956 19.7514 35.733 19.9925 36.9829 19.9936C38.2289 19.9967 39.4633 19.7612 40.6156 19.3005C41.768 18.8398 42.8155 18.163 43.6985 17.3087C44.5815 16.4544 45.2826 15.4394 45.7616 14.3217C46.2407 13.204 46.4884 12.0055 46.4906 10.7948V10.7948ZM1.55515 35.9783C1.55515 36.7765 1.55515 37.5473 1.55515 38.319C1.57176 41.0717 3.50887 42.953 6.34175 42.954C12.7682 42.954 19.1953 42.954 25.623 42.954H26.0655C26.0743 42.8961 26.0841 42.8752 26.0782 42.8686C26.004 42.7907 25.9268 42.7157 25.8525 42.6389C24.9343 41.6944 24.3335 40.5895 24.2056 39.291C24.1245 38.4623 24.1489 37.6232 24.1294 36.7889C24.1225 36.5212 24.1294 36.2535 24.1294 35.9773L1.55515 35.9783Z" fill="#BDBDBD"/>
<path d="M24.7272 28.2963C26.339 28.2963 27.9505 28.2963 29.5616 28.2963C29.733 28.2894 29.9045 28.3002 30.0735 28.3286C30.4564 28.4112 30.6733 28.6627 30.6811 29.0386C30.6899 29.4401 30.4525 29.6907 30.0618 29.7904C29.9232 29.8145 29.7821 29.8216 29.6417 29.8112H19.7862C19.6613 29.8199 19.5359 29.8151 19.4121 29.797C19.0213 29.7106 18.7722 29.479 18.7644 29.0718C18.7566 28.6646 18.9803 28.415 19.3808 28.3248C19.5346 28.2986 19.6908 28.289 19.8468 28.2963C21.4736 28.295 23.1004 28.295 24.7272 28.2963Z" fill="#BDBDBD"/>
<path d="M24.7135 21.6883C26.3878 21.6883 28.0615 21.6883 29.7346 21.6883C30.3451 21.6883 30.6968 21.9731 30.686 22.4477C30.6753 22.9052 30.3382 23.1815 29.7482 23.1824C26.4015 23.1868 23.0541 23.1868 19.7061 23.1824C19.0848 23.1824 18.7517 22.8976 18.7615 22.4145C18.7713 21.9313 19.1024 21.6845 19.7384 21.6836C21.3971 21.6849 23.0554 21.6864 24.7135 21.6883Z" fill="#BDBDBD"/>
<path d="M17.0139 15.853C17.0139 17.1411 15.915 18.1975 14.5503 18.2108C13.1856 18.2241 12.0232 17.1354 12.0349 15.8473C12.0466 14.5592 13.1768 13.5113 14.5337 13.5132C15.8905 13.5151 17.0081 14.5602 17.0139 15.853ZM14.521 16.6854C15.0329 16.6902 15.4588 16.3238 15.4666 15.872C15.4744 15.4202 15.0544 15.0433 14.5425 15.0376C14.0306 15.0319 13.6106 15.3936 13.6037 15.8511C13.5969 16.3086 14.0052 16.6798 14.521 16.6854Z" fill="#BDBDBD"/>
<path d="M17.0139 22.4156C17.0256 23.7056 15.9325 24.7649 14.5659 24.7886C13.1993 24.8123 12.0368 23.7331 12.0349 22.4403C12.0349 21.1645 13.1553 20.1043 14.518 20.0938C15.8807 20.0834 17.0012 21.1247 17.0139 22.4156ZM14.5327 23.2575C15.0494 23.2575 15.4675 22.8892 15.4666 22.4355C15.4656 21.9818 15.0338 21.6088 14.5298 21.6097C14.0257 21.6107 13.6027 21.9818 13.6037 22.4393C13.6047 22.8968 14.012 23.2585 14.5327 23.2575Z" fill="#BDBDBD"/>
<path d="M17.0139 29.0175C17.0139 30.3075 15.9042 31.3573 14.5395 31.3611C13.1748 31.3649 12.0163 30.279 12.0348 28.9881C12.0534 27.6971 13.1768 26.6682 14.5444 26.6748C15.912 26.6815 17.0158 27.719 17.0139 29.0175ZM14.5366 29.8329C15.0533 29.8329 15.4704 29.4608 15.4665 29.008C15.4626 28.5552 15.024 28.1803 14.5258 28.1831C14.0276 28.186 13.6017 28.5628 13.6037 29.0184C13.6056 29.4741 14.0169 29.8357 14.5366 29.8329Z" fill="#BDBDBD"/>
<path d="M36.9435 3.77787C37.0337 3.81753 37.1051 3.87265 37.15 3.93709C37.1948 4.00153 37.2113 4.07277 37.1976 4.14292C37.1976 4.41333 37.1976 4.67428 37.1976 4.93929C37.2016 5.0077 37.186 5.07599 37.1518 5.14074C37.1218 5.18885 37.0669 5.22867 36.9966 5.25335C36.9263 5.27803 36.8449 5.28602 36.7665 5.27595C36.6772 5.27384 36.5927 5.24922 36.5308 5.20732C36.469 5.16542 36.4348 5.10952 36.4354 5.0515C36.4354 4.70267 36.4167 4.35384 36.4354 4.00636C36.4354 3.92524 36.5853 3.84953 36.6665 3.77246L36.9435 3.77787Z" fill="#BDBDBD"/>
<path d="M38.7017 15.0842C38.8194 15.2134 38.8842 15.3789 38.8842 15.5503C38.8842 15.7216 38.8194 15.8871 38.7017 16.0163C38.9515 16.3896 38.9346 16.7269 38.6561 16.9783C38.647 16.9882 38.6379 17.0019 38.6249 17.0056C38.4141 17.079 38.3529 17.2545 38.2696 17.435C38.1865 17.6055 38.0608 17.7539 37.9036 17.867C37.7464 17.9801 37.5625 18.0545 37.3681 18.0837C37.1737 18.1128 36.9748 18.0958 36.7889 18.0341C36.6031 17.9724 36.4359 17.8679 36.3022 17.7299C36.2784 17.7092 36.2592 17.6842 36.2457 17.6562C36.2322 17.6283 36.2246 17.5981 36.2236 17.5674C36.2225 17.5366 36.2278 17.506 36.2393 17.4773C36.2508 17.4485 36.2682 17.4223 36.2905 17.4001C36.336 17.3606 36.3948 17.3378 36.4562 17.3358C36.5177 17.3337 36.5779 17.3525 36.6262 17.3889C36.7602 17.4855 36.9084 17.5627 37.066 17.6179C37.2319 17.652 37.4052 17.6256 37.5518 17.5439C37.6984 17.4621 37.8077 17.331 37.8585 17.1761H37.1077C37.0509 17.1799 36.9939 17.1799 36.9372 17.1761C36.8753 17.1724 36.8171 17.1465 36.7741 17.1036C36.7312 17.0607 36.7068 17.004 36.7056 16.9447C36.7057 16.9139 36.7124 16.8835 36.7251 16.8552C36.7379 16.827 36.7565 16.8015 36.7799 16.7803C36.8032 16.7592 36.8308 16.7428 36.861 16.7321C36.8912 16.7214 36.9233 16.7167 36.9554 16.7182C37.3002 16.7182 37.6451 16.7182 37.9964 16.7182C38.0531 16.7219 38.1101 16.7219 38.1669 16.7182C38.1989 16.7172 38.2305 16.7101 38.2596 16.6974C38.2888 16.6846 38.315 16.6663 38.3367 16.6437C38.3584 16.6211 38.3752 16.5946 38.386 16.5657C38.3968 16.5368 38.4015 16.5061 38.3998 16.4755C38.3964 16.4161 38.3687 16.3603 38.3227 16.3203C38.2767 16.2802 38.216 16.2591 38.1538 16.2615C38.0732 16.2615 37.9925 16.2615 37.9118 16.254C37.8496 16.2512 37.791 16.2258 37.7477 16.183C37.7044 16.1402 37.6798 16.0833 37.6789 16.0238C37.6797 15.9931 37.6869 15.9629 37.7 15.9349C37.7131 15.9069 37.7319 15.8816 37.7552 15.8606C37.7785 15.8395 37.806 15.8231 37.836 15.8122C37.866 15.8014 37.898 15.7963 37.93 15.7973C38.0185 15.7973 38.1096 15.7973 38.1981 15.7836C38.2556 15.7785 38.3088 15.7521 38.3463 15.71C38.3837 15.6679 38.4025 15.6135 38.3985 15.5584C38.3992 15.5299 38.394 15.5016 38.3832 15.4751C38.3725 15.4486 38.3564 15.4244 38.3358 15.4038C38.3153 15.3832 38.2907 15.3667 38.2635 15.3552C38.2363 15.3437 38.207 15.3375 38.1773 15.3369C38.0875 15.3294 37.9977 15.3369 37.9079 15.3257C37.8459 15.3222 37.7876 15.2961 37.745 15.2528C37.7024 15.2096 37.6788 15.1524 37.6789 15.0929C37.6816 15.0335 37.7081 14.9774 37.7529 14.9361C37.7977 14.8949 37.8574 14.8717 37.9196 14.8714C37.986 14.8652 38.0497 14.8714 38.1187 14.8714C38.3139 14.8627 38.3972 14.7806 38.405 14.5914C38.405 14.5379 38.405 14.4844 38.405 14.4073H38.228C38.1148 14.4073 38.0003 14.4073 37.8884 14.3986C37.8311 14.3942 37.7775 14.3697 37.738 14.3297C37.6986 14.2896 37.6761 14.237 37.675 14.182C37.6723 14.127 37.6917 14.0731 37.7292 14.0312C37.7667 13.9894 37.8194 13.9627 37.8767 13.9568C38.0836 13.9419 38.2918 13.9443 38.5 13.9431C38.8279 13.9431 38.8903 13.8859 38.8903 13.5698C38.8903 13.4565 38.8903 13.3433 38.8903 13.23C38.8823 13.0505 38.9183 12.8716 38.9956 12.7078C39.0729 12.544 39.1892 12.3998 39.3353 12.2868C39.6927 12.0093 39.986 11.6639 40.1967 11.2726C40.781 10.1389 40.7172 9.02638 39.9912 7.97734C39.7116 7.55637 39.3298 7.20628 38.8783 6.95688C38.4267 6.70749 37.9188 6.56618 37.3978 6.545C36.9121 6.50742 36.4237 6.57506 35.9691 6.74289C35.5145 6.91073 35.1053 7.17445 34.772 7.51441C34.4261 7.84262 34.1612 8.24047 33.9964 8.67898C33.8316 9.11749 33.7712 9.58563 33.8195 10.0493C33.8795 10.8298 34.2414 11.5609 34.8344 12.1001C34.8471 12.1134 34.861 12.1255 34.8761 12.1362C35.3562 12.4685 35.5384 12.9189 35.5007 13.4814C35.4707 13.9182 35.5189 13.9431 35.973 13.9431H37.066C37.1093 13.9405 37.1528 13.9405 37.1961 13.9431C37.2281 13.9436 37.2597 13.9502 37.289 13.9625C37.3183 13.9749 37.3447 13.9927 37.3667 14.015C37.3886 14.0373 37.4057 14.0635 37.4169 14.0922C37.428 14.1209 37.4331 14.1514 37.4317 14.182C37.4312 14.2115 37.4245 14.2407 37.4121 14.2677C37.3996 14.2947 37.3817 14.3191 37.3592 14.3394C37.3368 14.3597 37.3104 14.3755 37.2815 14.3859C37.2526 14.3962 37.2218 14.401 37.1909 14.3998C36.9827 14.4073 36.7745 14.3998 36.5663 14.3998H35.9821C35.9821 14.472 35.9821 14.5242 35.9821 14.5852C35.9899 14.7744 36.0745 14.8578 36.271 14.864C36.4271 14.864 36.5833 14.864 36.7394 14.864C36.8695 14.864 37.014 14.864 37.1506 14.864C37.3289 14.864 37.4278 14.9498 37.4317 15.0867C37.4356 15.2236 37.3341 15.3219 37.1506 15.3257C36.8812 15.3257 36.6106 15.3257 36.3412 15.3257C36.289 15.3242 36.2368 15.3271 36.1851 15.3344C36.13 15.3397 36.0791 15.365 36.0428 15.405C36.0066 15.445 35.9876 15.4967 35.9899 15.5496C35.9846 15.6 35.9989 15.6505 36.0301 15.6914C36.0614 15.7323 36.1073 15.7607 36.1591 15.7712C36.214 15.7838 36.2704 15.7897 36.3269 15.7886C36.6015 15.7886 36.876 15.7886 37.1506 15.7886C37.3276 15.7886 37.4278 15.872 37.4317 16.0113C37.4356 16.1507 37.3328 16.2478 37.1506 16.2503C36.8773 16.2503 36.6028 16.2503 36.3282 16.2503C36.276 16.2475 36.2236 16.2505 36.1721 16.259C36.1226 16.2672 36.0776 16.2915 36.0447 16.3278C36.0117 16.3641 35.9929 16.4101 35.9912 16.4581C35.9838 16.5055 35.9935 16.554 36.0188 16.5954C36.0442 16.6368 36.0836 16.6687 36.1304 16.6858C36.1725 16.7006 36.2161 16.7106 36.2606 16.7157C36.2923 16.7195 36.323 16.7293 36.3507 16.7447C36.3784 16.7601 36.4025 16.7806 36.4217 16.8052C36.4409 16.8297 36.4548 16.8576 36.4624 16.8874C36.47 16.9171 36.4713 16.948 36.4662 16.9783C36.4617 17.0086 36.451 17.0378 36.4346 17.0641C36.4181 17.0904 36.3963 17.1133 36.3705 17.1314C36.3447 17.1495 36.3153 17.1624 36.2841 17.1695C36.2529 17.1765 36.2206 17.1775 36.189 17.1724C36.0646 17.165 35.9443 17.127 35.8398 17.0621C35.7352 16.9973 35.6499 16.9077 35.5921 16.8022C35.5343 16.6966 35.5059 16.5785 35.5097 16.4594C35.5135 16.3403 35.5494 16.2241 35.6139 16.1221C35.636 16.0872 35.662 16.0549 35.688 16.0188C35.5702 15.8894 35.5053 15.7237 35.5053 15.5521C35.5053 15.3806 35.5702 15.2148 35.688 15.0855C35.5189 14.9026 35.4942 14.6773 35.4968 14.4409C35.4951 14.416 35.4874 14.3918 35.4743 14.3702C35.4612 14.3486 35.4431 14.3302 35.4213 14.3164C35.2943 14.2533 35.1888 14.157 35.1169 14.0386C35.045 13.9203 35.0098 13.7849 35.0153 13.6482C35.0153 13.5076 35.0153 13.3669 35.0153 13.2276C35.022 13.1093 34.9992 12.9911 34.9487 12.883C34.8983 12.7748 34.8216 12.6796 34.7251 12.6053C34.4175 12.3568 34.1504 12.0657 33.9327 11.7417C33.4629 11.0482 33.2562 10.2215 33.3471 9.39971C33.3931 8.83735 33.5777 8.29342 33.886 7.81255C34.1943 7.33167 34.6175 6.92755 35.1207 6.63336C35.6179 6.31245 36.1901 6.11358 36.7867 6.05433C37.3834 5.99508 37.9861 6.07727 38.5416 6.29363C39.8428 6.77274 40.6639 7.68863 40.9762 8.98905C41.0978 9.46787 41.1111 9.966 41.0153 10.4501C40.9195 10.9343 40.7167 11.3933 40.4206 11.7965C40.2115 12.0755 39.9725 12.3328 39.7075 12.5643C39.5984 12.6509 39.5119 12.7607 39.455 12.8849C39.398 13.0092 39.3722 13.1444 39.3796 13.2798C39.3887 13.4043 39.3796 13.5287 39.3796 13.6531C39.3876 13.7898 39.353 13.9256 39.2803 14.0434C39.2075 14.1613 39.0999 14.2558 38.971 14.3152C38.8916 14.355 38.8929 14.406 38.8942 14.4695C38.9068 14.5791 38.8963 14.69 38.8632 14.7956C38.8301 14.9012 38.7752 14.9993 38.7017 15.0842Z" fill="#BDBDBD"/>
<path d="M37.4605 10.4196H36.9402V10.6095C36.9402 11.4599 36.9402 12.3103 36.9402 13.1606C36.9421 13.2275 36.9383 13.2943 36.9291 13.3605C36.9227 13.4204 36.8941 13.4755 36.8491 13.5145C36.804 13.5535 36.746 13.5735 36.687 13.5702C36.6278 13.5759 36.5688 13.5579 36.5223 13.5201C36.4759 13.4823 36.4457 13.4276 36.438 13.3676C36.4266 13.3021 36.4214 13.2356 36.4227 13.1691C36.4227 12.3188 36.4227 11.4684 36.4227 10.618V10.4111C36.2544 10.4111 36.0944 10.4111 35.9344 10.4111C35.6759 10.4176 35.4245 10.3249 35.2299 10.1514C35.0354 9.97784 34.9119 9.73616 34.8841 9.47426C34.8561 9.24001 34.9069 9.003 35.0282 8.80195C35.1495 8.60091 35.334 8.4477 35.5518 8.36735C35.774 8.2836 36.0177 8.28013 36.242 8.35754C36.4664 8.43494 36.6579 8.58851 36.7844 8.79254C36.8948 8.98424 36.9493 9.20397 36.9416 9.42607V9.86684H37.4619V9.41615C37.4619 8.97253 37.6302 8.62246 38.0183 8.42404C38.1897 8.32571 38.3863 8.28256 38.5822 8.30027C38.7781 8.31798 38.9642 8.39572 39.1159 8.52325C39.2811 8.64205 39.4058 8.81026 39.4728 9.00454C39.5399 9.19882 39.5459 9.40955 39.4901 9.60749C39.4509 9.80675 39.3518 9.98862 39.2064 10.1278C39.0611 10.267 38.8768 10.3566 38.6791 10.3842C38.445 10.4122 38.2095 10.4259 37.9738 10.4253V10.5968C37.9738 11.4585 37.9738 12.3192 37.9738 13.1791C37.9764 13.2511 37.9689 13.3232 37.9515 13.3931C37.9386 13.4492 37.9057 13.4986 37.8592 13.5315C37.8128 13.5645 37.756 13.5788 37.6998 13.5717C37.6459 13.5727 37.5933 13.5544 37.5514 13.5199C37.5094 13.4855 37.4807 13.437 37.4702 13.3832C37.4574 13.3121 37.4523 13.2399 37.4549 13.1677V10.4196H37.4605ZM36.4185 9.87394C36.4185 9.68686 36.4185 9.50827 36.4185 9.32969C36.4156 9.19659 36.3618 9.06992 36.2685 8.97671C36.1751 8.8835 36.0498 8.83114 35.9191 8.8308C35.7888 8.82663 35.6618 8.8733 35.564 8.96127C35.4663 9.04924 35.4052 9.17189 35.3933 9.30418C35.3774 9.43683 35.4132 9.57053 35.4931 9.67654C35.573 9.78255 35.6905 9.85241 35.8203 9.8711C36.0196 9.88174 36.2194 9.88032 36.4185 9.86684V9.87394ZM37.9919 9.89377C38.2087 9.89485 38.4253 9.88064 38.6402 9.85126C38.7575 9.82282 38.8603 9.7509 38.9284 9.64951C38.9966 9.54812 39.0252 9.42451 39.0088 9.30276C38.9976 9.17868 38.943 9.06285 38.8548 8.97645C38.7667 8.89005 38.651 8.83885 38.5289 8.83222C38.4066 8.81978 38.2841 8.85451 38.1858 8.92956C38.0874 9.0046 38.0202 9.11451 37.9975 9.23757C37.9832 9.45365 37.9814 9.67039 37.9919 9.88669V9.89377Z" fill="#BDBDBD"/>
<path d="M39.2135 6.0341C38.8591 6.0341 38.662 5.82793 38.7941 5.64253C39.0457 5.30584 39.3204 4.97657 39.6014 4.65175C39.6519 4.59307 39.733 4.55082 39.8272 4.53416C39.9214 4.51751 40.0211 4.52777 40.1047 4.56275C40.1487 4.57952 40.1876 4.6023 40.2191 4.62979C40.2506 4.65727 40.274 4.68891 40.2881 4.72286C40.3021 4.75681 40.3065 4.79238 40.3009 4.82754C40.2954 4.86269 40.28 4.89671 40.2557 4.92762C39.9999 5.2569 39.7335 5.5832 39.4546 5.90358C39.4064 5.9718 39.2659 6.0074 39.2135 6.0341Z" fill="#BDBDBD"/>
<path d="M32.0252 6.7876C32.1334 6.81737 32.2035 6.83026 32.2644 6.85308C32.5528 6.95958 32.8402 7.06741 33.1266 7.17656C33.3216 7.25197 33.3764 7.35318 33.279 7.4534C33.1815 7.55361 33.0322 7.5675 32.8433 7.49804C32.5386 7.38691 32.2339 7.27281 31.9384 7.1587C31.906 7.15004 31.8765 7.13724 31.8518 7.12104C31.8271 7.10484 31.8076 7.08557 31.7946 7.06438C31.7815 7.0432 31.7751 7.02052 31.7757 6.99769C31.7764 6.97486 31.784 6.95234 31.7983 6.93147C31.847 6.86996 31.9536 6.83026 32.0252 6.7876Z" fill="#BDBDBD"/>
<path d="M34.8756 5.73298C34.88 5.79349 34.8698 5.85432 34.8465 5.9055C34.8233 5.95668 34.7884 5.99518 34.7477 6.01469C34.7065 6.03894 34.6605 6.04052 34.6186 6.01911C34.5766 5.99771 34.5419 5.95486 34.5212 5.89904C34.4352 5.70926 34.3587 5.51058 34.278 5.31636C34.2266 5.19033 34.1731 5.06579 34.127 4.9368C34.1019 4.87528 34.0949 4.80233 34.1075 4.73359C34.12 4.66484 34.1511 4.60579 34.1941 4.5691C34.2159 4.54902 34.2405 4.53561 34.2662 4.52974C34.2919 4.52387 34.3181 4.52568 34.3433 4.53503C34.3685 4.54439 34.392 4.56109 34.4124 4.58406C34.4327 4.60704 34.4494 4.63578 34.4614 4.66844C34.5957 4.9798 34.7215 5.30005 34.8494 5.61734C34.8618 5.65401 34.8707 5.69292 34.8756 5.73298Z" fill="#BDBDBD"/>
<path d="M41.3886 7.54042C41.3254 7.54439 41.262 7.53393 41.2088 7.51075C41.1557 7.48757 41.1159 7.45305 41.0961 7.41285C41.0747 7.3766 41.0727 7.33658 41.0903 7.29944C41.1078 7.2623 41.1439 7.23029 41.1926 7.20873C41.3059 7.15566 41.4284 7.11177 41.5479 7.06483C41.7547 6.9842 41.9599 6.90358 42.1697 6.82704C42.2019 6.81067 42.2388 6.799 42.2781 6.79278C42.3175 6.78656 42.3584 6.78593 42.3981 6.79094C42.4378 6.79595 42.4755 6.80647 42.5088 6.82184C42.542 6.8372 42.57 6.85705 42.5909 6.8801C42.6109 6.90356 42.6233 6.92953 42.6274 6.95637C42.6315 6.9832 42.6271 7.01031 42.6146 7.03595C42.602 7.0616 42.5816 7.08522 42.5546 7.1053C42.5276 7.12539 42.4946 7.1415 42.4577 7.1526C42.1513 7.27405 41.845 7.39141 41.5387 7.50776C41.4905 7.5221 41.4402 7.53305 41.3886 7.54042Z" fill="#BDBDBD"/>
<path d="M32.0106 12.8186C31.9297 12.7818 31.859 12.7363 31.8015 12.6839C31.7726 12.6458 31.7678 12.6017 31.788 12.5612C31.8083 12.5207 31.852 12.4871 31.9099 12.4675C32.0778 12.3976 32.2533 12.3348 32.4243 12.268C32.5952 12.2011 32.7204 12.1532 32.8715 12.1004C32.9043 12.085 32.9416 12.0743 32.981 12.0689C33.0205 12.0635 33.0612 12.0636 33.1006 12.0692C33.14 12.0747 33.1772 12.0856 33.2098 12.1011C33.2424 12.1166 33.2696 12.1364 33.2898 12.1592C33.3089 12.1815 33.3209 12.2061 33.3248 12.2315C33.3286 12.2569 33.3244 12.2825 33.3124 12.3068C33.3003 12.3311 33.2807 12.3535 33.2547 12.3725C33.2288 12.3916 33.197 12.4069 33.1615 12.4176C32.8563 12.5383 32.5403 12.654 32.2259 12.7697C32.1564 12.7899 32.0844 12.8063 32.0106 12.8186Z" fill="#BDBDBD"/>
<path d="M41.3182 12.0649C41.3999 12.083 41.4801 12.1039 41.5583 12.1277C41.8518 12.2362 42.1454 12.3467 42.4359 12.4582C42.6194 12.5288 42.6759 12.6314 42.5888 12.7279C42.5016 12.8245 42.3365 12.8474 42.153 12.7797C41.8472 12.6662 41.5415 12.5504 41.2357 12.4323C41.2045 12.424 41.1761 12.4118 41.1523 12.3963C41.1285 12.3807 41.1097 12.3623 41.097 12.342C41.0843 12.3216 41.078 12.2999 41.0785 12.2779C41.0789 12.256 41.0861 12.2344 41.0996 12.2143C41.1424 12.1555 41.2464 12.1127 41.3182 12.0649Z" fill="#BDBDBD"/>
<path d="M31.7651 9.80126C31.6033 9.80126 31.4415 9.80126 31.2797 9.80126C31.2454 9.80481 31.211 9.79856 31.1784 9.78289C31.1458 9.76721 31.1157 9.7424 31.0898 9.70989C31.0639 9.67739 31.0426 9.63782 31.0274 9.59346C31.0121 9.5491 31.003 9.50083 31.0007 9.45141C30.9992 9.40002 31.005 9.3487 31.0178 9.30067C31.0305 9.25263 31.05 9.20888 31.075 9.17213C31.1 9.13538 31.1299 9.10642 31.1629 9.08701C31.196 9.06761 31.2315 9.05819 31.2671 9.05934C31.6056 9.04728 31.9446 9.04728 32.284 9.05934C32.3197 9.05607 32.3554 9.06382 32.3889 9.08209C32.4223 9.10036 32.4527 9.12873 32.4779 9.16528C32.5031 9.20183 32.5226 9.24573 32.5351 9.29404C32.5476 9.34235 32.5528 9.39394 32.5504 9.44537C32.5504 9.66252 32.4444 9.79523 32.2714 9.80126C32.0984 9.80729 31.938 9.80126 31.7707 9.80126H31.7651Z" fill="#BDBDBD"/>
<path d="M42.6206 9.80244C42.4547 9.80244 42.2874 9.80244 42.1201 9.80244C42.0872 9.80597 42.0542 9.79992 42.0229 9.78467C41.9917 9.76941 41.9629 9.74527 41.9383 9.71365C41.9137 9.68204 41.8938 9.64362 41.8798 9.60069C41.8657 9.55776 41.8579 9.51121 41.8567 9.46381C41.8512 9.41414 41.8533 9.36335 41.8629 9.31498C41.8724 9.26661 41.8892 9.22181 41.912 9.18369C41.9348 9.14556 41.9631 9.11502 41.995 9.09419C42.0268 9.07336 42.0614 9.06275 42.0964 9.06308C42.4505 9.04504 42.8046 9.04705 43.1573 9.06308C43.1905 9.06412 43.2232 9.07453 43.2535 9.09372C43.2838 9.11292 43.3112 9.14052 43.3342 9.17494C43.3571 9.20936 43.375 9.24994 43.387 9.29435C43.399 9.33876 43.4048 9.38613 43.4041 9.43375C43.4036 9.48304 43.3962 9.53167 43.3823 9.57678C43.3685 9.62188 43.3485 9.66255 43.3236 9.69636C43.2986 9.73017 43.2692 9.75645 43.2371 9.77364C43.2049 9.79082 43.1707 9.79857 43.1364 9.79642C42.965 9.80844 42.7921 9.80244 42.6206 9.80244Z" fill="#BDBDBD"/>
</svg>
