<svg width="30" height="30" viewBox="0 0 30 30" fill="none" xmlns="http://www.w3.org/2000/svg">
<path fill-rule="evenodd" clip-rule="evenodd" d="M12.8088 15.0823V21.426C12.8088 21.4696 12.8258 21.5114 12.856 21.5423C12.8862 21.5731 12.9271 21.5905 12.9698 21.5905H15.2955C15.3382 21.5905 15.3791 21.5731 15.4093 21.5423C15.4395 21.5114 15.4565 21.4696 15.4565 21.426V14.9726H17.1202C17.1404 14.9752 17.161 14.9733 17.1805 14.9672C17.2 14.961 17.2179 14.9506 17.2332 14.9368C17.2484 14.9229 17.2606 14.9059 17.2689 14.8869C17.2772 14.8678 17.2814 14.8471 17.2812 14.8263L17.4422 12.8702C17.4422 12.7788 17.4422 12.7057 17.2812 12.7057H15.4923V11.3163C15.4923 11.1611 15.5526 11.0123 15.6599 10.9026C15.7673 10.7929 15.9129 10.7312 16.0647 10.7312H17.3528C17.3955 10.7312 17.4364 10.7139 17.4666 10.683C17.4968 10.6522 17.5138 10.6104 17.5138 10.5667V8.62888C17.5138 8.58525 17.4968 8.54341 17.4666 8.51256C17.4364 8.4817 17.3955 8.46436 17.3528 8.46436H15.1703C14.5566 8.46434 13.9677 8.71223 13.5321 9.15399C13.0965 9.59574 12.8494 10.1955 12.8446 10.8227V12.6508H11.6997C11.657 12.6508 11.6161 12.6681 11.5859 12.699C11.5557 12.7298 11.5387 12.7717 11.5387 12.8154V14.7532C11.5387 14.7968 11.5557 14.8387 11.5859 14.8695C11.6161 14.9004 11.657 14.9177 11.6997 14.9177H12.8446L12.8088 15.0823Z" fill="black"/>
<path d="M14.7231 0.456829C11.9103 0.438807 9.15544 1.27354 6.80689 2.8555C4.45833 4.43745 2.62154 6.69558 1.52881 9.34431C0.43608 11.993 0.136443 14.9134 0.667855 17.7361C1.19927 20.5589 2.53787 23.1572 4.5143 25.2025C6.49074 27.2478 9.0163 28.6483 11.7716 29.2268C14.5269 29.8053 17.3882 29.5359 19.9936 28.4526C22.5991 27.3693 24.8317 25.5209 26.4092 23.1409C27.9866 20.761 28.838 17.9565 28.8558 15.0821C28.8699 13.1728 28.5153 11.2794 27.8123 9.5104C27.1093 7.74138 26.0717 6.13149 24.7588 4.77292C23.446 3.41435 21.8838 2.3338 20.1617 1.59318C18.4396 0.852552 16.5914 0.466393 14.7231 0.456829V0.456829Z" stroke="black" stroke-width="1.5" stroke-miterlimit="10"/>
</svg>
