<svg width="50" height="35" viewBox="0 0 50 35" fill="none" xmlns="http://www.w3.org/2000/svg">
<path d="M2.28265 26.863C0.679555 26.2568 -0.0774655 25.001 0.00625148 23.2256C0.0365321 22.6003 0.00625148 21.9715 0.00625148 21.3462C0.0472194 19.472 1.40807 18.1314 3.32821 18.0742C3.88039 18.0586 4.43435 18.0742 4.93131 18.0742V12.7046C4.87302 12.6835 4.81355 12.6656 4.75318 12.651C3.16256 12.2456 2.1829 11.0539 2.14727 9.45865C2.13124 8.72423 2.14727 7.98808 2.14727 7.25366C2.14727 5.07985 3.53306 3.72705 5.75957 3.72532C10.7577 3.72532 15.7575 3.72533 20.7556 3.70974C21.1429 3.70157 21.5188 3.58092 21.835 3.36331C32.2551 -4.21645 47.4613 1.70914 49.622 14.2029C51.2749 23.785 44.7201 32.5807 34.8379 34.0167C33.9362 34.1385 33.0265 34.1964 32.1162 34.1899C23.3621 34.2026 14.608 34.2026 5.85398 34.1899C3.52415 34.1899 2.14727 32.8735 2.1633 30.62C2.15974 29.3988 2.23455 28.1829 2.28265 26.863ZM32.321 32.3261C40.6553 32.4993 47.8176 25.6678 47.9797 17.3814C48.1489 8.90437 41.3055 2.03131 32.4831 1.81133C23.9903 1.60001 16.8084 8.37261 16.6303 16.7613C16.4486 25.3283 23.3152 32.139 32.321 32.3261V32.3261ZM24.1827 32.3261C24.0776 32.191 24.0598 32.1529 24.0259 32.1287C21.7438 30.9495 19.7589 29.2931 18.2138 27.2787C18.1391 27.1935 18.0478 27.1235 17.945 27.073C17.8423 27.0224 17.7302 26.9923 17.6153 26.9843C13.6183 26.9692 9.62124 26.9692 5.6242 26.9843C4.5715 26.9843 4.03536 27.5437 4.02111 28.5622C4.00864 29.1667 4.02111 29.7747 4.02111 30.3758C4.02111 31.9 4.47175 32.3365 6.04635 32.3383H24.1827V32.3261ZM14.8527 19.8219C14.9293 19.8548 14.8901 19.8219 14.8527 19.8219C11.0106 19.8219 7.16851 19.7977 3.32821 19.8219C2.45186 19.8219 1.91749 20.4161 1.88721 21.2942C1.86406 21.9628 1.88721 22.6332 1.88721 23.3018C1.88721 24.7065 2.34855 25.1517 3.8127 25.1517H16.7033L14.8527 19.8219ZM19.1775 5.54405C14.6211 5.54405 10.047 5.53366 5.4728 5.54405C4.59288 5.54405 4.04782 6.13124 4.01932 7.00596C3.99439 7.69881 4.01932 8.39166 4.01932 9.08451C4.01932 10.4113 4.49847 10.8755 5.87001 10.879C8.69145 10.879 11.5165 10.8097 14.3361 10.9119C15.542 10.9552 16.1405 10.6296 16.6517 9.52621C17.3054 8.14397 18.2993 6.9003 19.1775 5.54405ZM15.1911 12.7324C12.8132 12.7324 10.3818 12.7029 7.94868 12.7479C7.19879 12.7618 6.72143 13.3403 6.69114 14.099C6.6573 14.9391 6.6573 15.7826 6.69114 16.621C6.72499 17.4593 7.28073 17.9807 8.13927 17.9859C10.2233 17.998 12.3073 17.9859 14.3931 17.9859C14.4778 17.9836 14.5618 17.9696 14.6425 17.9443C14.8277 16.1706 15.0076 14.4679 15.1911 12.7324Z" fill="#BDBDBD"/>
<path d="M44.8269 17.0333C44.8316 20.2685 43.5154 23.3732 41.1674 25.6653C38.8195 27.9573 35.6318 29.2491 32.305 29.2569C30.6465 29.2597 29.0038 28.943 27.4719 28.3252C25.9399 27.7074 24.549 26.8006 23.3793 25.6572C22.2097 24.5138 21.2845 23.1565 20.6571 21.6635C20.0298 20.1706 19.7127 18.5716 19.7242 16.9589C19.7431 13.7335 21.0752 10.6468 23.4291 8.37433C25.7829 6.10191 28.9667 4.82891 32.2836 4.834C33.9313 4.83263 35.5632 5.14726 37.0858 5.75987C38.6083 6.37248 39.9917 7.27105 41.1568 8.40415C42.3219 9.53726 43.2457 10.8827 43.8755 12.3634C44.5052 13.8441 44.8285 15.431 44.8269 17.0333ZM43.0225 17.0437C43.0253 15.6798 42.7515 14.3287 42.2166 13.0678C41.6817 11.8069 40.8964 10.661 39.9055 9.6956C38.9146 8.73025 37.7376 7.96444 36.442 7.442C35.1463 6.91957 33.7574 6.65076 32.3548 6.65099C30.9408 6.64454 29.5396 6.91102 28.2323 7.43497C26.925 7.95893 25.7376 8.72995 24.7389 9.70337C23.7402 10.6768 22.9501 11.8333 22.4143 13.1057C21.8785 14.3782 21.6078 15.7415 21.6177 17.1165C21.6202 18.4753 21.898 19.8203 22.4352 21.0747C22.9724 22.329 23.7583 23.4682 24.7483 24.4272C25.7382 25.3862 26.9128 26.1461 28.2047 26.6636C29.4967 27.1812 30.8809 27.4461 32.2782 27.4434C33.6862 27.4486 35.0813 27.1835 36.3837 26.6633C37.686 26.143 38.8699 25.3778 39.8674 24.4116C40.865 23.4454 41.6566 22.2972 42.1968 21.0329C42.737 19.7685 43.0152 18.4129 43.0154 17.0437H43.0225Z" fill="#BDBDBD"/>
<path d="M34.3178 19.1328C34.1111 19.7529 33.6249 20.7593 32.0806 20.7593C29.9663 20.7593 29.3125 18.8643 29.3125 17.0646C29.3125 15.1281 30.066 13.4272 32.0164 13.4272C33.5037 13.4272 34.0915 14.2448 34.3195 15.064H36.6868C36.5627 14.1768 36.1288 13.3579 35.4577 12.7447L36.213 11.198L34.5226 10.415L33.8101 11.8527C33.2494 11.6944 32.6679 11.6168 32.0841 11.6223C28.552 11.6223 26.8598 14.2361 26.8598 17.153C26.8598 19.1103 27.5474 20.7904 28.9688 21.75L28.3596 22.9954L30.0517 23.7766L30.7019 22.4481C31.1194 22.53 31.5443 22.5706 31.9701 22.5693C34.7096 22.5693 36.245 21.123 36.6886 19.138L34.3178 19.1328Z" fill="#BDBDBD"/>
</svg>
