<svg width="88" height="245" viewBox="0 0 88 245" fill="none" xmlns="http://www.w3.org/2000/svg">
<g clip-path="url(#clip0_143_2114)">
<path d="M40.1292 224.857L44.5612 174.848L29.2478 175.297L28.7656 225.961L32.8854 228.406L40.1292 224.857Z" fill="#F1F2F2" stroke="#263238" stroke-miterlimit="10"/>
<path d="M28.5069 224.493V225.234C28.5069 225.234 16.019 230.523 15.9399 232.883L40.9157 232.334L40.394 224.031C36.6872 225.905 32.3481 226.075 28.5088 224.493H28.5069Z" fill="black"/>
<g opacity="0.6">
<path d="M37.912 226.747C38.4119 226.885 38.7261 227.379 38.6392 227.89C38.5186 228.396 38.0207 228.72 37.5089 228.625C36.9774 228.477 36.6474 227.951 36.7423 227.408C36.9122 226.881 37.4754 226.587 38.0049 226.747" fill="white"/>
</g>
<g opacity="0.6">
<path d="M40.9017 232.314L40.7752 230.331L16.8843 231.587C16.8843 231.587 15.7857 232.097 15.926 232.877L40.9017 232.314Z" fill="white"/>
</g>
<path d="M28.4279 225.305C28.4279 225.424 29.0503 225.471 29.6589 225.846C30.2675 226.221 30.5975 226.733 30.7101 226.68C30.8227 226.626 30.6232 225.925 29.8763 225.483C29.1294 225.041 28.4022 225.193 28.4279 225.305Z" fill="#263238"/>
<path d="M25.8354 226.443C25.8354 226.561 26.3452 226.761 26.7681 227.268C27.1909 227.776 27.3233 228.313 27.43 228.307C27.5367 228.301 27.6079 227.606 27.0724 226.986C26.5369 226.366 25.8354 226.364 25.8354 226.445V226.443Z" fill="#263238"/>
<path d="M24.4124 229.608C24.5251 229.608 24.6832 229.02 24.3532 228.358C24.0232 227.697 23.4541 227.446 23.4008 227.552C23.3474 227.659 23.711 228.003 23.9758 228.55C24.2405 229.097 24.2939 229.6 24.4124 229.608Z" fill="#263238"/>
<path d="M75.1504 167.828L67.3534 231.157L57.3394 230.106L56.7842 168.363L75.1504 167.828Z" fill="#F1F2F2" stroke="#263238" stroke-miterlimit="10"/>
<path d="M57.1875 226.133C57.1875 226.133 64.0341 230.939 67.658 227.158L68.4523 229.095L71.76 242.772C71.9773 243.699 71.43 244.631 70.5171 244.895C69.8097 245.124 69.0332 244.959 68.4799 244.459C65.6959 241.848 55.5099 232.209 55.6818 230.961L55.8933 227.655C55.9604 226.936 56.4663 226.336 57.1638 226.148L57.1895 226.135L57.1875 226.133Z" fill="black"/>
<g opacity="0.6">
<path d="M70.1908 244.972L55.7586 229.802V230.529C55.64 231.315 56.0036 231.638 56.4205 232.154C57.5705 233.694 60.7992 237.172 68.5053 244.457C68.9775 244.887 69.6217 245.077 70.252 244.972H70.1927H70.1908Z" fill="white"/>
</g>
<g opacity="0.6">
<path d="M58.0925 227.732C58.547 228.032 58.6715 228.643 58.3711 229.097C58.3652 229.107 58.3573 229.117 58.3514 229.126C57.966 229.567 57.3219 229.671 56.8161 229.377C56.3359 229.055 56.2075 228.408 56.5295 227.928C56.5374 227.918 56.5434 227.906 56.5513 227.896C56.9978 227.472 57.6835 227.43 58.1775 227.797" fill="white"/>
</g>
<path d="M66.1956 237.338C66.6896 236.814 67.2745 236.384 67.9226 236.068C68.6359 235.839 69.3828 235.738 70.1317 235.77C70.1317 235.724 69.9143 235.584 69.4697 235.511C68.8908 235.432 68.3 235.505 67.7566 235.722C67.231 235.928 66.7726 236.275 66.4347 236.727C66.1897 237.071 66.1502 237.322 66.1956 237.336V237.338Z" fill="#263238"/>
<path d="M67.4463 239.678C68.0055 239.427 68.5766 239.208 69.1595 239.016C69.7779 238.933 70.4004 238.884 71.0248 238.864C70.426 238.507 69.7009 238.43 69.0409 238.653C67.9304 238.923 67.3475 239.63 67.4463 239.678Z" fill="#263238"/>
<path d="M63.8146 234.297C64.6445 233.838 65.504 233.435 66.3873 233.094C67.3239 232.867 68.2743 232.703 69.2306 232.604C68.2486 232.328 67.2014 232.373 66.247 232.736C64.6267 233.252 63.7277 234.257 63.8127 234.297H63.8146Z" fill="#263238"/>
<path d="M63.688 230.185C63.7334 230.284 64.7984 229.926 66.1677 229.934C67.5371 229.94 68.608 230.272 68.6475 230.165C67.9066 229.703 67.0372 229.49 66.1677 229.557C64.6996 229.557 63.6346 230.098 63.688 230.185Z" fill="#263238"/>
<path d="M66.9425 229.926C66.978 229.703 66.9524 229.476 66.8694 229.265C66.7133 228.674 66.4307 228.123 66.0434 227.651C65.7787 227.268 65.3953 226.98 64.9527 226.832C64.6425 226.749 64.3125 226.851 64.107 227.096C63.9371 227.329 63.8739 227.622 63.9292 227.902C64.2611 229.128 65.4052 229.954 66.6737 229.885C67.9166 229.873 69.0389 229.136 69.5448 228.001C69.6554 227.728 69.6278 227.418 69.4717 227.167C69.2642 226.919 68.9283 226.816 68.6181 226.909C68.1774 227.065 67.7822 227.331 67.474 227.683C67.0255 228.105 66.6599 228.607 66.3951 229.164C66.2094 229.547 66.1699 229.778 66.1975 229.786C66.5927 229.075 67.0946 228.429 67.6854 227.868C67.9719 227.586 68.3217 227.373 68.705 227.246C68.873 227.191 69.0587 227.246 69.1674 227.385C69.2563 227.556 69.2563 227.762 69.1674 227.934C68.7011 228.901 67.7289 229.521 66.654 229.539C65.585 229.594 64.6148 228.921 64.2928 227.9C64.2513 227.707 64.2868 227.505 64.3916 227.337C64.5022 227.197 64.6879 227.136 64.8618 227.185C65.2313 227.31 65.5554 227.539 65.7945 227.847C66.3043 228.461 66.6955 229.164 66.9445 229.922L66.9425 229.926Z" fill="#263238"/>
<path d="M69.0982 89.2421C69.0982 89.2421 72.8683 93.328 74.7079 97.2342C76.5474 101.14 77.6717 110.456 77.6717 110.456C77.6717 110.456 81.3154 121.827 80.4756 127.794C79.6358 133.762 75.5417 174.874 75.5417 174.874C75.5417 174.874 72.8366 217.003 69.0073 224.057L55.567 222.623L52.9548 142.463L43.7944 89.4139L69.1002 89.2421H69.0982Z" fill="#161616"/>
<path d="M62.1215 105.133C62.1827 104.932 62.2183 104.723 62.2282 104.511C62.2736 104.114 62.3072 103.526 62.3211 102.805C62.325 100.929 62.2262 99.053 62.0227 97.1868C61.7915 95.0579 61.5801 93.1404 61.4141 91.6C61.3667 90.8259 61.2718 90.0557 61.1296 89.2934C61.0525 90.0695 61.0525 90.8516 61.1296 91.6277C61.2165 93.0614 61.4141 95.0461 61.6315 97.2203C61.8488 99.3946 62.001 101.379 62.0346 102.807C62.0681 104.235 62.0602 105.128 62.1215 105.133Z" fill="#455A64"/>
<path d="M59.3569 95.7274C59.7857 94.7242 60.0505 93.6597 60.1434 92.5736C60.3548 91.5032 60.3903 90.4033 60.2501 89.3211C60.0228 90.3756 59.8648 91.446 59.7739 92.5203C59.5644 93.5788 59.4261 94.6491 59.3569 95.7254V95.7274Z" fill="#455A64"/>
<path d="M49.574 92.5143C49.6392 92.5143 49.6195 92.0187 50.1688 91.6415C50.479 91.4361 50.8702 91.4005 51.214 91.5427C51.7673 91.7619 52.038 92.388 51.8187 92.9409C51.7021 93.2351 51.461 93.4642 51.1607 93.5649C50.811 93.6913 50.4237 93.638 50.1214 93.4188C49.5918 93.0159 49.6392 92.4926 49.572 92.5124C49.5049 92.5321 49.5128 92.6249 49.5325 92.8362C49.5701 93.1404 49.7222 93.4188 49.9554 93.6163C50.319 93.9323 50.8208 94.035 51.2773 93.8868C52.0143 93.6281 52.4036 92.8204 52.1427 92.0838C52.0084 91.7027 51.7179 91.3966 51.3425 91.2426C50.8959 91.0767 50.394 91.1537 50.0206 91.4479C49.7795 91.6375 49.6155 91.9081 49.5582 92.2082C49.5128 92.3998 49.5523 92.5124 49.572 92.5124L49.574 92.5143Z" fill="#455A64"/>
<path d="M33.7052 99.7066C33.7052 99.7066 25.8272 150.754 24.9617 159.467C24.0943 168.18 27.3289 221.17 27.3289 221.17L40.4451 221.223L46.1062 169.086L55.9344 123.513L46.9519 89.7002L36.6533 90.4862L33.7033 99.7086L33.7052 99.7066Z" fill="#161616"/>
<path d="M79.3848 52.4472C79.3689 52.5835 79.3689 52.7217 79.3848 52.858V54.8743C79.3848 55.1784 79.3314 55.5359 79.3116 55.8795C79.2464 56.6003 79.2188 57.4198 79.0726 58.3184C79.0133 58.7746 78.954 59.2446 78.8868 59.7324C78.8216 60.2221 78.7149 60.7296 78.622 61.2589C78.4561 62.3174 78.1913 63.4272 77.9601 64.6042C77.4187 66.9444 76.737 69.5018 75.9763 72.1856C75.2155 74.8693 74.5872 77.4405 74.0774 79.8005C73.8462 80.9834 73.6012 82.1011 73.4629 83.1715C73.3839 83.7007 73.291 84.2102 73.2317 84.7059C73.1724 85.2016 73.1388 85.6775 73.0934 86.1337C72.9808 87.0401 72.9808 87.8656 72.9551 88.5924V89.6035C72.9551 89.9135 72.9551 90.192 72.9946 90.4487C72.9946 90.9384 73.04 91.3275 73.0539 91.6257C73.0539 91.7619 73.0697 91.8962 73.0993 92.0285C73.1092 91.8923 73.1092 91.756 73.0993 91.6178V89.6015C73.0993 89.2974 73.1329 88.9399 73.1527 88.5963C73.1922 87.8755 73.206 87.05 73.3305 86.1495C73.3839 85.6992 73.4372 85.2233 73.4886 84.7276C73.5419 84.232 73.6467 83.7303 73.7336 83.2011C73.8857 82.1426 74.1367 81.0268 74.3955 79.8498C74.9251 77.5037 75.587 74.9385 76.3201 72.2606C77.0551 69.5827 77.723 67.0115 78.2585 64.6575C78.5035 63.4746 78.7544 62.3569 78.9204 61.2925C79.0074 60.7632 79.1061 60.2537 79.1714 59.758C79.2366 59.2623 79.284 58.7923 79.3373 58.3362C79.4697 57.4297 79.4835 56.6042 79.529 55.8775C79.529 55.5201 79.5744 55.1843 79.5823 54.8723C79.5903 54.5603 79.5823 54.2779 79.5823 54.0192V52.8501C79.529 52.7079 79.4618 52.5697 79.3848 52.4393V52.4472Z" fill="#263238"/>
<path d="M17.6135 51.4618C18.0581 50.1841 18.1134 48.8037 17.7716 47.4964C17.1492 45.6519 15.0191 44.1905 15.1258 43.1064C15.2325 42.0222 14.1339 39.3384 13.142 39.5438C12.15 39.7492 11.3696 40.7603 12.235 42.4665C12.7725 43.5862 13.2151 44.7494 13.5569 45.9442C13.5569 45.9442 2.97383 40.4305 2.10047 40.312C1.22711 40.1935 0.36758 40.073 0.116637 40.7622C-0.134306 41.4495 2.0076 42.3362 2.0076 42.3362L4.85096 46.039C5.32914 47.445 5.997 48.78 6.8348 50.0044C7.83659 51.1695 9.07353 52.1096 10.4666 52.7612L10.9072 53.2905C11.4091 53.9817 12.2133 55.2791 12.2133 56.5035C12.2133 58.2809 13.3633 75.0194 13.3633 75.0194C13.3633 75.0194 20.4213 77.0811 23.2844 72.3159L23.3634 71.9585L17.6095 51.4658L17.6135 51.4618Z" fill="#F1F2F2" stroke="#263238" stroke-miterlimit="10"/>
<path d="M2.24854 42.4586C2.24854 42.4586 2.3414 42.3994 2.50738 42.3204C2.74252 42.2117 3.00729 42.1782 3.26219 42.2275C4.10789 42.4724 4.85281 42.98 5.39224 43.6751C5.95933 44.3643 6.43948 45.1187 6.82676 45.9224C6.96705 46.272 7.15082 46.6037 7.37607 46.9079C7.30692 46.5346 7.18441 46.1752 7.0125 45.8375C6.67067 44.9864 6.20039 44.1925 5.6175 43.4835C5.03657 42.739 4.21261 42.2216 3.28985 42.0222C2.99741 41.9866 2.70102 42.0557 2.45601 42.2196C2.2841 42.3381 2.23866 42.4507 2.25051 42.4586H2.24854Z" fill="#424242"/>
<path d="M6.13135 43.8469C6.58186 44.2695 7.0956 44.6191 7.65281 44.8857C8.16458 45.2372 8.7297 45.5018 9.32643 45.6716C8.87394 45.249 8.35822 44.8975 7.79903 44.6329C7.28924 44.2853 6.7261 44.0187 6.13135 43.8469Z" fill="#424242"/>
<path d="M11.7468 46.2266C11.1797 45.9718 10.5297 45.9718 9.9606 46.2266C9.35991 46.3786 8.85012 46.7736 8.55176 47.3167C9.02796 47.0007 9.52984 46.7301 10.0535 46.503C10.6087 46.3589 11.1758 46.2641 11.7468 46.2246V46.2266Z" fill="#424242"/>
<path d="M33.8716 73.1374C33.9249 73.4416 25.8493 84.3366 23.2292 86.3588C16.8075 91.369 12.0771 84.5934 12.5474 78.8565C13.0176 73.1177 29.7439 46.1673 29.7439 46.1673L35.148 58.8931L33.8716 73.1394V73.1374Z" fill="#A3A3A3"/>
<path d="M76.1426 43.2979L61.4595 39.8479L60.0704 37.5077L45.3418 37.7447L41.9215 41.408L32.0991 46.2206L40.3407 80.7997L67.9879 82.2216L76.1426 43.2979Z" fill="white"/>
<path d="M59.3373 37.0575L64.8344 40.468L76.3837 42.974L72.7262 89.3072C72.7262 89.3072 83.3745 107.863 82.2048 129.983L51.813 128.661C51.813 128.661 53.2949 105.406 53.5795 96.071C53.864 86.736 53.6921 70.4359 53.6921 70.4359L61.2125 42.3618L59.3413 37.0595L59.3373 37.0575Z" fill="#A3A3A3"/>
<path d="M44.3084 40.4818L45.3399 37.3221L41.5046 41.177L38.7402 42.1486C34.9247 43.5764 29.7181 46.1871 29.7181 46.1871L36.2269 87.37C36.2269 87.37 28.7658 113.151 28.2046 128.659C28.2046 128.659 48.1536 128.997 56.0514 128.659L53.9213 69.5275C53.9213 69.5275 46.9957 61.3576 45.8457 53.1661C44.6957 44.9765 44.3104 40.4798 44.3104 40.4798L44.3084 40.4818Z" fill="#A3A3A3"/>
<path d="M54.271 76.0266C54.3658 75.9555 54.4528 75.8725 54.5298 75.7817L55.2313 75.0214L57.798 72.1796L66.4822 62.422L66.5356 62.3628V62.2838C66.0989 60.698 65.6365 59.0254 65.1603 57.3132C64.9489 56.5726 64.7434 55.84 64.5458 55.1192L64.4075 55.3107L70.1693 55.0856H70.3669L70.2938 54.9L66.4368 44.5144L65.2987 41.5403L64.9884 40.7543C64.9153 40.5766 64.8758 40.4838 64.862 40.4897C64.8798 40.5845 64.9054 40.6773 64.941 40.7682L65.2117 41.5739L66.2708 44.5756L70.0271 55.0007L70.1535 54.8091L64.3917 55.0145H64.2L64.2534 55.2001C64.451 55.9209 64.6565 56.6536 64.8679 57.3942C65.3441 59.1063 65.8065 60.779 66.2511 62.3648V62.2265C62.8189 66.1604 59.8155 69.5906 57.6518 72.069L55.1523 74.9839L54.4903 75.7699C54.3777 75.9278 54.2651 76.0286 54.273 76.0286L54.271 76.0266Z" fill="#263238"/>
<path d="M41.5379 41.0249C41.5082 41.1335 41.4865 41.2441 41.4727 41.3547C41.4391 41.5996 41.3936 41.9175 41.3344 42.3125C41.2217 43.1853 41.0636 44.388 40.8641 45.8889C40.4867 48.9696 39.9571 53.2332 39.3564 58.111V58.3085L39.554 58.2749L42.7491 57.7259L42.5831 57.5146C42.3915 57.9451 42.18 58.4073 41.9746 58.8773L40.7771 61.5551L40.7376 61.642L40.7969 61.7151L49.653 71.9683L52.2988 74.9957C52.6031 75.3255 52.8402 75.598 53.0259 75.8015C53.2117 76.0049 54.2885 76.8066 54.2965 76.7987C54.3044 76.7908 53.2255 75.9535 53.0654 75.76L52.4035 74.9207L49.8249 71.84L41.0478 61.5136V61.6716C41.4312 60.8185 41.8343 59.914 42.2512 58.9938C42.4567 58.5317 42.6622 58.0676 42.8598 57.6726L42.9724 57.408L42.6938 57.4613L39.4987 58.0162L39.6706 58.1742C40.2338 53.2885 40.7218 49.0249 41.0795 45.9442C41.2375 44.4374 41.3699 43.2268 41.4628 42.3539C41.4964 41.957 41.528 41.6331 41.5497 41.3883C41.5655 41.2658 41.5596 41.1394 41.5359 41.019L41.5379 41.0249Z" fill="#263238"/>
<path d="M56.9366 94.1534C57.5195 93.3793 58.709 92.8975 59.3117 93.6578C59.9341 94.1278 60.1969 94.9335 59.9736 95.68C59.6022 96.6003 58.5529 97.0466 57.6322 96.6733C57.6144 96.6654 57.5966 96.6595 57.5788 96.6516C56.7292 96.2112 56.3992 95.1646 56.8398 94.3154C56.8695 94.2601 56.9011 94.2048 56.9366 94.1515V94.1534Z" fill="#263238"/>
<g opacity="0.3">
<path d="M70.1319 54.9335C70.0331 55.2436 67.9682 55.5951 67.6047 56.4344C67.3182 57.3428 67.3438 58.3204 67.6778 59.211C68.0078 60.0977 68.1876 61.0338 68.2073 61.9817C68.0888 63.6741 66.759 64.9953 65.5082 66.1406C62.0227 69.3458 57.7626 72.8234 54.2632 76.0562C57.3595 72.0908 61.3864 68.0384 64.7988 64.3811C66.182 63.3009 66.5969 61.3873 65.7848 59.8331L64.7336 56.2962C64.6467 55.992 64.4491 55.4825 64.4037 55.3107C64.8384 55.2179 65.281 55.1646 65.7256 55.1528C67.1937 54.9888 68.6736 54.9237 70.1497 54.9612" fill="black"/>
</g>
<path d="M30.2593 53.1681C30.2632 53.2865 30.2771 53.4031 30.2988 53.5176C30.3383 53.7822 30.3917 54.112 30.4509 54.5228C30.6031 55.4213 30.8145 56.6714 31.0655 58.192C31.595 61.326 32.3083 65.5897 33.0967 70.2957C33.8831 75.0017 34.6439 79.3068 35.2208 82.3934C35.5054 83.9397 35.7504 85.1898 35.9223 86.0488C36.0092 86.4596 36.0804 86.7834 36.1337 87.0402C36.1515 87.1586 36.1831 87.2732 36.2266 87.3838C36.2266 87.2633 36.2167 87.1448 36.193 87.0263L36.0349 86.029C35.8828 85.1305 35.6773 83.8804 35.4204 82.3598C34.8988 79.2258 34.1835 74.9622 33.3891 70.2502C32.5948 65.5364 31.8479 61.247 31.2729 58.1604C30.9825 56.6141 30.7434 55.3641 30.5655 54.505C30.4786 54.0942 30.4134 53.7704 30.3541 53.5137C30.3403 53.3952 30.3087 53.2786 30.2613 53.17L30.2593 53.1681Z" fill="#263238"/>
<path d="M76.2039 42.9286C78.3715 43.6593 80.2348 45.093 81.4955 47.0007C83.9298 50.6107 88.1623 85.5985 87.9963 88.0256C87.8303 90.4507 85.7339 96.62 80.059 95.7925C74.3841 94.9651 59.3374 84.4689 59.3374 84.4689L64.5163 74.4349L75.4966 79.6109L74.0008 62.2779L76.2039 42.9286Z" fill="#A3A3A3"/>
<g opacity="0.3">
<path d="M42.7866 92.4354C43.1442 90.8614 45.0945 90.3539 46.695 90.1485L72.801 86.8427L75.0693 94.1811C74.9212 95.8735 74.522 97.5363 73.8858 99.1122C73.2218 100.7 71.8881 101.913 70.2421 102.418C68.78 102.776 67.2585 102.345 65.824 101.922L46.6436 96.2369C45.6675 96.0177 44.7428 95.6128 43.9188 95.0461C43.0751 94.4615 42.6364 93.4484 42.7886 92.4354H42.7866Z" fill="black"/>
</g>
<g opacity="0.3">
<path d="M74.9333 62.1574C75.2435 60.9153 75.7197 59.5132 76.9171 59.0432C78.1145 58.5731 79.6696 59.4658 80.2248 60.7099C80.7801 61.9521 80.6674 63.3877 80.4698 64.7366C79.7763 69.4228 78.1284 74.6521 76.5931 79.1152L71.2363 77.1325C71.9437 72.1816 73.6964 67.051 74.9333 62.1594V62.1574Z" fill="black"/>
</g>
<path d="M19.6054 57.882L24.8969 73.7476L18.0503 78.7183L12.5217 80.932C12.5217 80.932 11.4902 72.9992 11.7471 75.762L10.5161 59.4598L19.6034 57.88L19.6054 57.882Z" fill="#A3A3A3"/>
<path d="M19.605 57.882C19.6307 58.1209 19.6722 58.3559 19.7314 58.5889C19.8243 59.0392 19.9765 59.6869 20.182 60.4867C20.5989 62.0804 21.2924 64.2409 22.1658 66.6008C23.0391 68.9607 23.7268 71.1152 24.1496 72.6951C24.3749 73.481 24.5527 74.1229 24.6653 74.5652C24.7147 74.7923 24.7859 75.0135 24.8768 75.2268C24.8511 74.9878 24.8096 74.7528 24.7503 74.5198C24.6574 74.0695 24.4994 73.4218 24.2939 72.6299C23.8829 71.0362 23.1834 68.8679 22.31 66.508C21.4367 64.1481 20.749 61.9935 20.3262 60.4196C20.1009 59.6257 19.9231 58.9859 19.8105 58.5415C19.7571 58.3164 19.688 58.0952 19.605 57.88V57.882Z" fill="#263238"/>
<path d="M21.3047 81.799C21.5556 81.5423 21.7769 81.2579 21.9666 80.9538C22.4507 80.2468 22.8933 79.5121 23.2885 78.7518C23.6916 77.9955 24.0512 77.2154 24.3674 76.4176C24.5195 76.0957 24.6302 75.756 24.6974 75.4065C24.5175 75.7106 24.3615 76.0286 24.235 76.3584C23.9564 76.9528 23.5731 77.7723 23.1048 78.6531C22.6365 79.5339 22.178 80.3119 21.8342 80.8748C21.6327 81.169 21.4549 81.4771 21.3047 81.801V81.799Z" fill="#263238"/>
<path d="M76.2036 78.578C76.7747 78.4457 77.3319 78.2641 77.8713 78.0369C78.4344 77.8651 78.9818 77.644 79.5054 77.3754C78.9185 77.4307 78.3416 77.5748 77.7982 77.8059C77.2311 77.9816 76.6936 78.2423 76.2036 78.58V78.578Z" fill="#263238"/>
<path d="M74.5103 56.0631C74.5815 55.9545 74.6388 55.838 74.6763 55.7136C74.7692 55.4825 74.8877 55.1448 75.0261 54.7163C75.3738 53.6084 75.6346 52.4729 75.8065 51.3255C75.9844 50.1782 76.0753 49.017 76.0772 47.8558C76.0772 47.4055 76.0773 47.0501 76.0437 46.7973C76.0437 46.6669 76.0259 46.5386 75.9903 46.4142C75.9429 46.8901 75.9212 47.37 75.9251 47.8479C75.8816 49.0012 75.773 50.1505 75.601 51.292C75.4232 52.4334 75.1822 53.563 74.8798 54.6768C74.6487 55.5299 74.4827 56.0592 74.5103 56.0651V56.0631Z" fill="#263238"/>
<g opacity="0.3">
<path d="M40.8699 59.2959L38.9395 59.4282C39.7871 58.3184 41.194 57.7891 42.5633 58.0656C42.5238 59.2228 41.3125 60.1352 41.3857 61.2925C41.4924 61.9106 41.7848 62.4793 42.2254 62.9256L45.8038 67.3413L45.5529 69.563C44.0848 67.4618 42.6028 65.5107 41.1347 63.4154C40.6427 62.8032 40.2811 62.0982 40.0756 61.3398C39.8839 60.5598 40.2021 59.7442 40.8699 59.2979V59.2959Z" fill="black"/>
</g>
<g opacity="0.3">
<path d="M21.747 65.1789L21.1641 63.4608C22.1421 66.4092 25.4775 68.6625 26.5742 71.5714C27.4851 74.0715 27.0306 76.8679 25.3708 78.9493C24.9934 79.4114 24.3394 79.8617 23.8434 79.524C23.4581 79.2989 23.2645 78.8486 23.3672 78.4141C23.5253 78.0172 24.6891 75.6375 24.8749 75.2604C25.0606 74.8832 24.6832 74.1564 24.2129 72.6161C23.4265 69.9185 22.5531 67.8765 21.745 65.1789H21.747Z" fill="black"/>
</g>
<path d="M79.7091 61.0535L72.8428 97.1394C72.578 98.5751 71.1988 99.525 69.7623 99.2623C69.7505 99.2603 69.7386 99.2584 69.7287 99.2564L43.352 94.187C41.9155 93.9204 40.9651 92.542 41.2319 91.1063C41.2358 91.0885 41.2378 91.0708 41.2417 91.055L48.5171 54.3529C48.7918 52.9192 50.1769 51.9792 51.6134 52.2537C51.643 52.2596 51.6707 52.2656 51.6984 52.2715L77.672 57.9629C79.0808 58.267 79.9858 59.6435 79.7091 61.0575V61.0535Z" fill="#E0E0E0"/>
<path d="M61.0897 77.4801C63.4894 77.4801 65.4348 75.5358 65.4348 73.1374C65.4348 70.7391 63.4894 68.7948 61.0897 68.7948C58.69 68.7948 56.7446 70.7391 56.7446 73.1374C56.7446 75.5358 58.69 77.4801 61.0897 77.4801Z" fill="white"/>
<path d="M62.121 74.3934L59.9317 73.3033C59.9317 73.3033 59.2164 69.5413 58.0605 68.2142C56.9026 66.8851 55.1974 65.3645 55.2092 65.0091C55.2231 64.6516 54.6738 62.1673 54.6738 62.1673C54.6738 62.1673 53.6483 61.2806 53.4507 63.0599C53.3242 64.0967 53.3242 65.1434 53.4507 66.1801L46.5784 64.468C45.871 64.2902 44.9779 64.3613 45.0707 65.0703C45.1715 65.7042 45.543 66.2611 46.0903 66.5968C46.2879 66.7607 46.5112 66.8891 46.7523 66.9799C46.7523 66.9799 45.6141 68.0305 45.6141 69.0693C45.6141 70.108 44.4365 72.5075 45.5074 73.6627C46.5784 74.82 51.4609 78.2897 54.0592 78.74C56.6576 79.1902 57.28 79.9505 58.4774 81.483L62.121 74.3974V74.3934Z" fill="#F1F2F2" stroke="#263238" stroke-miterlimit="10"/>
<path d="M52.874 66.0459C52.8405 66.0992 53.6605 66.5751 54.5813 67.2821C55.5001 67.9891 56.1818 68.6447 56.2272 68.6032C55.8103 68.0226 55.2965 67.5191 54.7057 67.1162C54.1643 66.6521 53.5439 66.2888 52.874 66.0459Z" fill="#424242"/>
<path d="M46.3335 66.7726C46.8453 67.0747 47.4005 67.2979 47.9794 67.4341C48.5367 67.6376 49.1097 67.7955 49.6926 67.9042C49.1808 67.6 48.6256 67.3769 48.0466 67.2426C47.4894 67.0392 46.9164 66.8812 46.3335 66.7726Z" fill="#424242"/>
<path d="M77.427 79.5437L62.2993 73.1374L56.6323 84.4433L77.427 95.0382V79.5437Z" fill="#A3A3A3"/>
<path d="M62.5913 73.483C62.5913 73.5423 66.6597 75.2209 71.7181 77.245C76.7785 79.2673 80.9062 80.8609 80.926 80.8076C80.9457 80.7543 76.8654 79.0698 71.7991 77.0456C66.7329 75.0234 62.6111 73.4297 62.5913 73.483Z" fill="#263238"/>
<g opacity="0.3">
<path d="M76.435 78.8427C78.2726 79.2139 80.0707 79.755 81.8055 80.462C82.5208 80.7266 83.1907 81.1019 83.7894 81.5719C84.3999 82.0616 84.7852 82.7765 84.8603 83.5546C84.3624 83.3354 83.8941 83.0569 83.4653 82.7212C81.7522 80.9952 78.7883 79.9979 76.2749 79.0382L76.433 78.8407L76.435 78.8427Z" fill="black"/>
</g>
<path d="M54.6739 129.366C54.581 129.366 54.502 122.095 54.502 113.084C54.502 104.073 54.581 96.8096 54.6739 96.8096C54.7667 96.8096 54.8458 104.081 54.8458 113.084C54.8458 122.087 54.7667 129.366 54.6739 129.366Z" fill="#263238"/>
<path d="M35.6576 15.1567C36.0607 11.4737 36.6693 7.67413 38.7006 4.57959C40.7318 1.48505 44.5612 -0.708975 48.1455 0.209316L52.6427 2.40334C52.4609 12.5144 51.1173 22.5702 48.6415 32.3752C48.4715 33.3567 48.0744 34.2848 47.4836 35.0846C46.1617 36.5993 43.8913 36.6309 41.8937 36.5381C39.4791 36.4314 36.6555 36.0819 35.4778 33.9807C34.9917 32.9202 34.7803 31.7531 34.8633 30.5899C34.8238 25.4337 35.0886 20.2794 35.6576 15.1547V15.1567Z" fill="#070707"/>
<path d="M59.4892 6.98099L45.877 3.50333C41.5181 3.03332 38.6016 8.39496 38.3171 12.7573C37.999 17.6154 37.8073 23.5655 38.3764 27.1952C39.5145 34.4665 45.1103 35.4322 45.1103 35.4322C44.8001 37.2688 44.7883 39.1429 45.0708 40.9854C45.7644 45.9639 49.0859 47.0204 51.7376 47.0204C55.9384 47.1666 60.1906 45.5393 60.3764 41.3428L61.7852 9.57195C61.8089 8.2429 60.813 7.11725 59.4892 6.98099Z" fill="#F1F2F2" stroke="#263238" stroke-miterlimit="10"/>
<path d="M41.4907 18.7924C41.4868 19.2979 41.884 19.7166 42.3898 19.7383C42.8858 19.7758 43.3165 19.4046 43.354 18.9089C43.354 18.903 43.354 18.897 43.354 18.8911C43.358 18.3856 42.9608 17.9669 42.455 17.9452C41.963 17.9037 41.5322 18.269 41.4907 18.7608C41.4907 18.7707 41.4907 18.7805 41.4888 18.7904L41.4907 18.7924Z" fill="#263238"/>
<path d="M40.0223 16.4522C40.135 16.5786 40.8423 16.0494 41.854 16.0553C42.8657 16.0612 43.5928 16.5648 43.7055 16.4443C43.8181 16.3239 43.6403 16.1659 43.3221 15.9348C42.8775 15.6287 42.348 15.4727 41.8066 15.4846C41.283 15.4806 40.7732 15.6445 40.3523 15.9546C40.0678 16.1461 39.963 16.3969 40.0223 16.4502V16.4522Z" fill="#263238"/>
<path d="M51.5127 18.7924C51.5186 19.2841 51.9019 19.687 52.392 19.7186C52.8919 19.7561 53.3266 19.3828 53.3641 18.8832C53.3641 18.8793 53.3641 18.8753 53.3641 18.8714C53.3641 18.3678 52.969 17.9511 52.4651 17.9254C51.9652 17.8998 51.5384 18.2829 51.5127 18.7825C51.5127 18.7845 51.5127 18.7884 51.5127 18.7904V18.7924Z" fill="#263238"/>
<path d="M50.1035 16.7563C50.222 16.8748 50.9294 16.3535 51.943 16.3594C52.9567 16.3653 53.6819 16.8689 53.7945 16.7484C53.9071 16.628 53.7293 16.47 53.4112 16.233C52.9725 15.9348 52.4528 15.7768 51.9233 15.7768C51.4016 15.7729 50.8918 15.9348 50.469 16.2389C50.1588 16.4779 50.0521 16.701 50.1054 16.7544L50.1035 16.7563Z" fill="#263238"/>
<path d="M46.2467 23.5339C45.7152 23.37 45.1679 23.2693 44.6127 23.2357C44.3538 23.2357 44.1108 23.1567 44.0712 22.9849C44.0495 22.7183 44.1088 22.4497 44.2432 22.2187C44.4882 21.5966 44.7391 20.9489 45.0098 20.236C46.0689 17.4535 46.8415 15.1587 46.7289 15.1192C46.6162 15.0797 45.6638 17.3014 44.5988 20.0839C44.34 20.7455 44.0969 21.4051 43.8638 22.0666C43.7018 22.3747 43.6543 22.7321 43.7314 23.0718C43.8065 23.2535 43.9606 23.3917 44.1483 23.449C44.2906 23.4885 44.4368 23.5082 44.585 23.5082C45.1343 23.5892 45.6935 23.5991 46.2448 23.5339H46.2467Z" fill="#263238"/>
<path d="M45.1162 35.446C48.6847 35.5231 52.2078 34.6304 55.3081 32.861C55.3081 32.861 52.3916 37.9639 45.1162 37.3024V35.4441V35.446Z" fill="black"/>
<path d="M49.402 13.7092C49.5008 13.9797 50.5066 13.8553 51.6902 13.9995C52.8737 14.1456 53.8261 14.4695 53.9783 14.2246C54.0514 14.1061 53.8854 13.8474 53.5021 13.5631C52.4608 12.9015 51.1725 12.7534 50.0106 13.1661C49.5799 13.3636 49.3625 13.5769 49.402 13.7072V13.7092Z" fill="#424242"/>
<path d="M39.7516 13.5058C39.969 13.7368 40.8305 13.5058 41.8679 13.5058C42.9052 13.5058 43.7786 13.6578 43.9782 13.4189C44.071 13.3063 43.9327 13.0753 43.5474 12.8561C43.0159 12.5875 42.4231 12.4591 41.8283 12.4789C41.2356 12.4828 40.6546 12.6408 40.1409 12.9351C39.7773 13.1207 39.6509 13.3577 39.7497 13.5038L39.7516 13.5058Z" fill="#424242"/>
<path d="M44.66 5.38732C45.2903 6.26019 46.0431 7.03629 46.8947 7.69391L50.811 11.0452C51.7318 11.8588 52.7 12.6132 53.7156 13.3063C54.6325 13.8869 55.5829 14.4182 56.559 14.8921C57.5648 15.4076 58.1654 16.8748 59.1712 17.3903C59.4024 17.5088 60.0979 17.3903 60.3409 17.5226C60.414 19.1558 60.7519 24.3239 60.8823 26.3875C61.0799 29.6401 60.5326 38.3727 60.5326 38.3727L63.2969 38.1752C65.4408 37.6934 67.557 35.0353 67.8613 32.8867C68.1399 30.8506 67.8613 28.0681 67.8613 26.4152C67.9068 22.1713 66.7765 17.961 66.2015 13.7566C66.0534 12.0484 65.6542 10.3718 65.018 8.77808C64.0063 6.57616 62.1272 4.89164 60.1295 3.48952C57.8789 1.82869 55.2806 0.697124 52.5301 0.183671C49.748 -0.315959 46.8829 0.337707 44.5928 1.99458C44.2253 2.23156 43.9585 2.5969 43.8459 3.01951C43.5554 4.05827 44.0632 4.4868 44.66 5.38534V5.38732Z" fill="#070707"/>
<path d="M60.0366 19.5724C60.078 18.3974 61.064 17.4791 62.2397 17.5206C62.5578 17.5324 62.87 17.6134 63.1506 17.7615C63.8916 18.192 64.4725 19.0432 64.3875 20.6961C64.2097 25.0861 59.8311 24.0019 59.8311 23.8756C59.8311 23.7492 59.9496 21.3893 60.0366 19.5724Z" fill="#F1F2F2" stroke="#263238" stroke-miterlimit="10"/>
<path d="M61.2419 22.2641C61.2419 22.2641 61.3151 22.3234 61.4474 22.3905C61.6273 22.4715 61.8288 22.4833 62.0165 22.4241C62.6093 22.0864 62.9748 21.4584 62.9748 20.7771C63.0005 20.4019 62.9432 20.0247 62.8089 19.6732C62.7338 19.3927 62.5263 19.1656 62.2536 19.0649C62.0758 19.0037 61.8782 19.0847 61.7972 19.2565C61.732 19.375 61.7577 19.4618 61.732 19.4678C61.7063 19.4737 61.6391 19.3947 61.6865 19.2091C61.7122 19.1005 61.7794 19.0057 61.8723 18.9444C61.9948 18.8595 62.1469 18.826 62.2951 18.8516C62.6626 18.9346 62.9571 19.2071 63.0697 19.5665C63.2396 19.9536 63.3127 20.3742 63.2811 20.7968C63.2969 21.6006 62.8266 22.3332 62.0896 22.6551C61.8486 22.7124 61.5937 22.6591 61.3961 22.509C61.2498 22.3708 61.2301 22.27 61.2439 22.2641H61.2419Z" fill="#424242"/>
<path d="M62.73 24.1678C62.7339 24.6457 62.3486 25.0368 61.8705 25.0407C61.3923 25.0447 61.0011 24.6596 60.9971 24.1817C60.9931 23.7038 61.3785 23.3127 61.8566 23.3088C61.8606 23.3088 61.8645 23.3088 61.8705 23.3088C62.3447 23.3127 62.726 23.6959 62.73 24.1678Z" fill="#263238"/>
<path d="M48.9911 25.4041C49.6689 26.2651 49.5187 27.5112 48.6552 28.1886C48.4576 28.3446 48.2324 28.4591 47.9913 28.5302C47.7463 28.6131 47.4815 28.6131 47.2365 28.5302C46.8354 28.3071 46.5449 27.9299 46.4303 27.4855L46.0134 26.4408C45.9522 26.3303 45.9383 26.1979 45.9739 26.0775C46.0529 25.9629 46.1794 25.8879 46.3177 25.8721L48.9101 25.25" fill="#424242"/>
<path d="M47.2917 28.392C47.6908 28.4453 48.0959 28.392 48.4693 28.2399C48.908 28.0997 49.2794 27.7995 49.5087 27.4006C49.6391 27.1557 49.6944 26.8773 49.6667 26.6008C49.6489 26.3145 49.5758 26.034 49.4553 25.7753C49.3387 25.5265 49.1747 25.3014 48.9732 25.1138L48.9001 25.0545H48.8131C47.1 25.6628 45.7504 25.9669 45.7643 26.0459C46.8431 25.9748 47.9042 25.7378 48.9119 25.3448H48.7598C48.9337 25.5127 49.0739 25.7082 49.1767 25.9274C49.3921 26.352 49.4197 26.8496 49.2498 27.296C49.068 27.6336 48.7776 27.9002 48.4239 28.0503C47.7619 28.3011 47.2798 28.3347 47.2936 28.394L47.2917 28.392Z" fill="#263238"/>
<path d="M55.255 7.30484C58.1359 9.07033 60.6394 11.3868 62.6232 14.1199L60.5465 18.2848C56.5176 18.192 56.0157 17.8148 52.9866 15.1508C49.9575 12.4868 43.9507 7.17845 43.356 3.19327C47.2248 3.98715 51.888 5.24313 55.255 7.30484Z" fill="black"/>
<path d="M63.7949 37.9639C63.8325 37.8158 63.8858 37.6717 63.953 37.5334C64.0795 37.255 64.2435 36.8719 64.4549 36.3169C65.0417 34.8121 65.51 33.2658 65.8578 31.6899C66.3676 29.3577 66.5889 26.9701 66.5197 24.5845C66.5 23.1785 66.3241 21.7803 65.9981 20.4137C65.6681 18.9524 64.8995 17.6253 63.7949 16.6122C62.5955 15.69 61.2558 14.9652 59.8273 14.4636C58.4994 13.9482 57.2131 13.33 55.9781 12.6191C53.8955 11.3987 51.9848 9.90373 50.2973 8.17774C49.1533 7.02247 48.106 5.77833 47.1615 4.4552C46.8316 3.9931 46.5865 3.61591 46.4265 3.3572C46.3317 3.23674 46.2546 3.10245 46.1953 2.96027C46.3 3.07283 46.3969 3.19132 46.4858 3.31771C46.6577 3.56259 46.9225 3.92595 47.2722 4.37621C48.2483 5.65984 49.3173 6.87238 50.4673 8.00593C52.1626 9.69045 54.0674 11.1518 56.1362 12.3486C57.3613 13.0437 58.6377 13.646 59.9517 14.1535C61.41 14.6611 62.7753 15.4056 63.9925 16.3555C65.1484 17.412 65.9546 18.7944 66.3004 20.3209C66.6245 21.7132 66.7944 23.135 66.8102 24.5648C66.8675 26.976 66.6205 29.3873 66.0751 31.7373C65.7056 33.3211 65.1998 34.8694 64.5596 36.3643C64.3284 36.8936 64.1368 37.2964 63.9965 37.5611C63.9392 37.7013 63.87 37.8356 63.791 37.9639H63.7949Z" fill="white"/>
<path d="M65.2827 14.9988C64.9843 13.9067 64.433 12.8995 63.6763 12.0563C62.8484 11.1577 61.8643 10.4132 60.7716 9.86225C59.4201 9.19278 58.0291 8.60824 56.6044 8.11058C53.9922 7.16465 51.5381 5.82769 49.329 4.14515C48.6632 3.63564 48.0269 3.08862 47.4242 2.50605C47.1891 2.31054 46.9777 2.08936 46.7959 1.84448C47.0488 2.01432 47.2879 2.2039 47.5112 2.41323C47.9676 2.79635 48.6217 3.33942 49.495 3.95359C51.714 5.56702 54.1444 6.86645 56.717 7.81436C58.1555 8.31202 59.5604 8.90841 60.9179 9.5996C62.0343 10.1822 63.0301 10.9681 63.8541 11.92C64.4133 12.5579 64.8381 13.3024 65.1049 14.1081C65.174 14.3234 65.2274 14.5445 65.2629 14.7697C65.2886 14.9158 65.2965 14.9948 65.2827 15.0007V14.9988Z" fill="white"/>
<path d="M36.5174 35.4579C36.4877 35.3374 36.4739 35.213 36.4779 35.0886C36.4779 34.8101 36.4779 34.427 36.4324 34.0301C36.3929 33.1039 36.3534 31.7689 36.3257 30.1239C36.2664 26.818 36.219 22.2582 36.5569 17.2263C36.6399 14.8546 36.9738 12.4986 37.5547 10.1999C38.0507 8.3041 38.9735 6.54849 40.2539 5.06342C41.1213 4.06417 42.1982 3.26634 43.4094 2.72919C43.7354 2.587 44.0753 2.47444 44.4211 2.39149C44.5396 2.35397 44.6622 2.33225 44.7847 2.32632C44.7847 2.32632 44.2887 2.46456 43.4628 2.85558C42.2989 3.42235 41.2695 4.23005 40.4396 5.22141C39.2125 6.6966 38.3313 8.42654 37.861 10.2848C37.2959 12.5717 36.9679 14.9118 36.8829 17.2658C36.545 22.2838 36.5529 26.8437 36.545 30.1357V35.0609C36.5529 35.1932 36.545 35.3275 36.5193 35.4579H36.5174Z" fill="white"/>
</g>
<defs>
<clipPath id="clip0_143_2114">
<rect width="88" height="245" fill="white"/>
</clipPath>
</defs>
</svg>
