<svg width="31" height="30" viewBox="0 0 31 30" fill="none" xmlns="http://www.w3.org/2000/svg">
<path d="M18.8664 10.6399C18.7057 10.6363 18.5476 10.682 18.4125 10.7709C18.2774 10.8599 18.1715 10.9882 18.1084 11.1393C18.0452 11.2903 18.0278 11.4572 18.0583 11.6185C18.0888 11.7797 18.1658 11.928 18.2795 12.0441C18.3931 12.1603 18.5382 12.239 18.696 12.2702C18.8538 12.3013 19.0171 12.2835 19.1649 12.2189C19.3128 12.1544 19.4382 12.0462 19.5253 11.9081C19.6124 11.7701 19.657 11.6085 19.6535 11.4443C19.6535 11.231 19.5706 11.0264 19.423 10.8756C19.2753 10.7247 19.0751 10.6399 18.8664 10.6399ZM15.2885 11.682C14.6339 11.682 13.994 11.8803 13.4498 12.252C12.9055 12.6236 12.4813 13.1518 12.2309 13.7698C11.9804 14.3878 11.9148 15.0678 12.0425 15.7239C12.1702 16.3799 12.4854 16.9826 12.9483 17.4556C13.4111 17.9286 14.0008 18.2506 14.6428 18.3811C15.2848 18.5116 15.9503 18.4447 16.555 18.1887C17.1597 17.9327 17.6766 17.4992 18.0403 16.943C18.404 16.3868 18.598 15.733 18.598 15.064C18.5982 14.1796 18.2594 13.3303 17.6542 12.6981C17.0489 12.0659 16.2253 11.7011 15.36 11.682H15.2885ZM15.2885 17.1665C14.8674 17.1665 14.4559 17.0389 14.1058 16.7998C13.7557 16.5608 13.4828 16.221 13.3217 15.8235C13.1606 15.426 13.1184 14.9885 13.2006 14.5665C13.2827 14.1445 13.4855 13.7569 13.7832 13.4526C14.0809 13.1484 14.4602 12.9412 14.8732 12.8572C15.2861 12.7733 15.7142 12.8164 16.1032 12.981C16.4922 13.1457 16.8247 13.4246 17.0586 13.7823C17.2925 14.1401 17.4173 14.5607 17.4173 14.991C17.4269 15.2767 17.3813 15.5615 17.283 15.8292C17.1848 16.0969 17.0359 16.3422 16.8448 16.551C16.6537 16.7599 16.4242 16.9282 16.1695 17.0463C15.9147 17.1644 15.6397 17.2301 15.36 17.2396L15.2885 17.1665ZM21.9792 12.1756C21.9792 11.0798 21.5532 10.0289 20.795 9.2541C20.0368 8.47927 19.0084 8.04395 17.9361 8.04395H12.5693C11.497 8.04395 10.4687 8.47927 9.71045 9.2541C8.95224 10.0289 8.52625 11.0798 8.52625 12.1756V17.6601C8.52625 18.7558 8.95224 19.8067 9.71045 20.5815C10.4687 21.3564 11.497 21.7917 12.5693 21.7917H17.9361C19.0084 21.7917 20.0368 21.3564 20.795 20.5815C21.5532 19.8067 21.9792 18.7558 21.9792 17.6601V12.1756ZM20.709 17.6601C20.7114 18.0328 20.6413 18.4024 20.5028 18.7473C20.3643 19.0922 20.1601 19.4055 19.9021 19.6691C19.6442 19.9327 19.3376 20.1414 19.0001 20.2829C18.6626 20.4245 18.3009 20.4961 17.9361 20.4937H12.5693C12.2045 20.4961 11.8428 20.4245 11.5054 20.2829C11.1679 20.1414 10.8612 19.9327 10.6033 19.6691C10.3453 19.4055 10.1411 19.0922 10.0026 18.7473C9.86413 18.4024 9.79406 18.0328 9.79644 17.6601V12.1756C9.79406 11.8028 9.86413 11.4332 10.0026 11.0883C10.1411 10.7434 10.3453 10.4301 10.6033 10.1665C10.8612 9.90289 11.1679 9.69424 11.5054 9.5527C11.8428 9.41115 12.2045 9.33949 12.5693 9.34192H17.9361C18.3009 9.33949 18.6626 9.41115 19.0001 9.5527C19.3376 9.69424 19.6442 9.90289 19.9021 10.1665C20.1601 10.4301 20.3643 10.7434 20.5028 11.0883C20.6413 11.4332 20.7114 11.8028 20.709 12.1756V17.6601Z" fill="black"/>
<path d="M15.3421 0.457031C12.5328 0.457031 9.78654 1.30836 7.45066 2.90335C5.11478 4.49833 3.29418 6.76534 2.21909 9.41771C1.14401 12.0701 0.86275 14.9887 1.41082 17.8044C1.9589 20.6201 3.31172 23.2065 5.29822 25.2366C7.28472 27.2666 9.81565 28.6491 12.571 29.2092C15.3264 29.7693 18.1824 29.4818 20.7779 28.3832C23.3733 27.2845 25.5918 25.424 27.1526 23.037C28.7134 20.6499 29.5464 17.8435 29.5464 14.9726C29.5464 11.1228 28.0499 7.43071 25.3861 4.70851C22.7222 1.98632 19.1093 0.457031 15.3421 0.457031V0.457031Z" stroke="black" stroke-width="1.5" stroke-miterlimit="10"/>
</svg>
