<svg width="37" height="36" viewBox="0 0 37 36" fill="none" xmlns="http://www.w3.org/2000/svg">
<g clip-path="url(#clip0_19_267)">
<path d="M24.6557 14.0095V1.22918H1.25788V34.7999H1.71351C8.94127 34.7999 16.1683 34.8029 23.3947 34.8089C23.6408 34.8252 23.878 34.9051 24.0818 35.0403C24.521 35.3138 24.9313 35.6304 25.4117 35.97C25.243 35.983 25.137 35.998 25.0301 35.998C16.9562 35.998 8.8823 35.998 0.808416 35.998C0.204674 35.998 0 35.7977 0 35.2106C0 23.7359 0 12.2611 0 0.7864C0 0.197369 0.205703 -0.000976562 0.808416 -0.000976562H25.0681C25.6729 -0.000976562 25.8776 0.199373 25.8776 0.7864C25.8776 4.93566 25.8776 9.08559 25.8776 13.2362C25.8776 13.4636 25.8344 13.6028 25.5814 13.6719C25.281 13.7551 24.99 13.8863 24.6557 14.0095Z" fill="#BDBDBD"/>
<path d="M19.7167 20.7162C19.7167 19.466 19.7167 18.2161 19.7167 16.9666C19.7167 16.4337 19.8834 16.2544 20.4295 16.1893C23.0335 15.8919 25.5596 15.1331 27.8832 13.9503C28.026 13.8688 28.1887 13.8264 28.3542 13.8277C28.5197 13.8289 28.6818 13.8737 28.8233 13.9574C31.1473 15.1391 33.6739 15.8963 36.278 16.1913C36.7922 16.2524 36.9671 16.4437 36.9681 16.9516C36.9681 19.3017 37.0483 21.6548 36.9517 24.0009C36.7223 29.5106 33.9885 33.4535 28.8788 35.8366C28.7154 35.92 28.5336 35.9636 28.3491 35.9636C28.1646 35.9636 27.9829 35.92 27.8194 35.8366C23.3464 33.8071 20.628 30.4452 19.8895 25.6879C19.6365 24.056 19.7198 22.3751 19.6499 20.7162H19.7167ZM20.951 17.3984C20.951 17.9053 20.9458 18.4532 20.951 19.0012C20.9705 20.9997 20.8419 23.0082 21.0466 24.9917C21.5043 29.4094 23.9018 32.589 27.9696 34.5855C28.0903 34.6513 28.2268 34.6847 28.3651 34.682C28.5034 34.6794 28.6385 34.6409 28.7564 34.5704C33.2469 32.3055 35.595 28.7172 35.7277 23.7936C35.7833 21.772 35.737 19.7465 35.737 17.7229V17.3493C35.6619 17.3313 35.6146 17.3152 35.5662 17.3082C33.1146 16.9649 30.735 16.2418 28.5178 15.1665C28.4149 15.1144 28.2267 15.1545 28.0982 15.2025C26.8567 15.6673 25.64 16.2043 24.3749 16.598C23.2713 16.9426 22.1173 17.1319 20.9489 17.3984H20.951Z" fill="#BDBDBD"/>
<path d="M12.9378 7.19979H6.39123C5.73709 7.19979 5.54578 7.01247 5.54475 6.37435C5.54475 5.29913 5.54475 4.22392 5.54475 3.1487C5.54475 2.61076 5.76074 2.40039 6.31409 2.40039H19.5604C20.1138 2.40039 20.3287 2.61176 20.3308 3.14971C20.3308 4.24963 20.3308 5.34956 20.3308 6.44948C20.3308 6.98742 20.1127 7.19879 19.5604 7.19879C17.3532 7.20079 15.1457 7.20113 12.9378 7.19979ZM6.79338 5.97265H19.077V3.62053H6.79338V5.97265Z" fill="#BDBDBD"/>
<path d="M4.33006 10.1999V16.1774H10.4744C10.4744 15.7286 10.458 15.2758 10.4827 14.816C10.4949 14.6499 10.5608 14.4917 10.6709 14.3642C10.9733 14.0296 11.3075 13.7231 11.7066 13.3284V13.7482C11.7066 14.7219 11.7066 15.6966 11.7066 16.6713C11.7066 17.1671 11.4834 17.3945 10.9866 17.3945C8.58677 17.3985 6.18689 17.3985 3.78701 17.3945C3.30874 17.3945 3.07939 17.1691 3.07836 16.7023C3.07424 14.3649 3.07424 12.0275 3.07836 9.69005C3.07836 9.23626 3.30257 8.99684 3.74484 8.99584C6.10529 8.98982 8.46472 8.99584 10.9445 8.99584C10.4991 9.42559 10.1217 9.79724 9.72774 10.1559C9.66089 10.216 9.50764 10.1939 9.39347 10.1939C7.85481 10.1939 6.31545 10.1939 4.77542 10.1939L4.33006 10.1999Z" fill="#BDBDBD"/>
<path d="M10.9517 19.2197C10.5403 19.6134 10.2081 19.948 9.85117 20.2505C9.72325 20.3445 9.56709 20.3949 9.40685 20.3938C7.86407 20.4038 6.32849 20.3998 4.78879 20.3998H4.34241V26.3762H10.4765C10.4765 25.9094 10.4673 25.4506 10.4817 24.9928C10.4828 24.8608 10.5275 24.7326 10.6092 24.6272C10.9388 24.2583 11.3073 23.9242 11.7087 23.6304V24.2776C11.7087 25.1391 11.7087 26.0016 11.7087 26.8631C11.7087 27.379 11.4875 27.5974 10.963 27.5984C8.59055 27.5984 6.21741 27.5984 3.84358 27.5984C3.29744 27.5984 3.08453 27.384 3.08453 26.8411C3.08453 24.5424 3.08453 22.2437 3.08453 19.945C3.08453 19.4231 3.30052 19.2017 3.8189 19.2007C6.10221 19.2007 8.38553 19.2007 10.6688 19.2007C10.7254 19.2007 10.7851 19.2087 10.9517 19.2197Z" fill="#BDBDBD"/>
<path d="M8.64265 30.5735V29.4194H18.4527V30.5735H8.64265Z" fill="#BDBDBD"/>
<path d="M12.443 9.1792L13.3595 10.0237C13.2566 10.1239 13.1753 10.219 13.0869 10.3052L8.62826 14.6478C8.13971 15.1226 7.88361 15.1246 7.40329 14.6578C6.85097 14.1229 6.29865 13.5859 5.73091 13.0349L6.6319 12.2466L7.9268 13.5859L12.443 9.1792Z" fill="#BDBDBD"/>
<path d="M5.74429 23.2467C6.05285 22.9462 6.32335 22.6868 6.60002 22.4183L7.94533 23.7646L12.4708 19.3569L13.3543 20.2224C13.2761 20.3076 13.2062 20.3928 13.127 20.4689C11.6233 21.9348 10.1189 23.4 8.61387 24.8646C8.14589 25.3194 7.88156 25.3204 7.41667 24.8646C6.86127 24.3326 6.30895 23.7957 5.74429 23.2467Z" fill="#BDBDBD"/>
<path d="M22.7797 10.2197V11.3687H14.8138V10.2197H22.7797Z" fill="#BDBDBD"/>
<path d="M22.7797 13.2251V14.3811H14.8189V13.2251H22.7797Z" fill="#BDBDBD"/>
<path d="M18.4599 32.9927H14.2018V31.8257H18.4599V32.9927Z" fill="#BDBDBD"/>
<path d="M14.8138 20.4165H18.4599V21.5705H14.8097L14.8138 20.4165Z" fill="#BDBDBD"/>
<path d="M18.4517 24.5918H14.8169V23.4248H18.4517V24.5918Z" fill="#BDBDBD"/>
<path d="M26.471 26.774L33.4382 19.9761L34.2785 20.8526C34.2127 20.9207 34.1243 21.0199 34.0286 21.1121L27.1375 27.8238C26.6109 28.3357 26.3744 28.3377 25.857 27.8338C24.7853 26.7913 23.7143 25.7482 22.6439 24.7043C22.5555 24.6172 22.4711 24.526 22.3714 24.4229L23.261 23.6144L26.471 26.774Z" fill="#BDBDBD"/>
</g>
<defs>
<clipPath id="clip0_19_267">
<rect width="37" height="36" fill="white"/>
</clipPath>
</defs>
</svg>
