<svg width="40" height="33" viewBox="0 0 40 33" fill="none" xmlns="http://www.w3.org/2000/svg">
<path d="M0.00206613 2.42483C0.039277 2.32432 0.0806221 2.22381 0.111631 2.11324C0.280209 1.51629 0.643369 0.988626 1.14659 0.609471C1.64981 0.230315 2.26593 0.0201258 2.90245 0.0104684C4.10146 -0.00862937 5.30048 0.00444294 6.50053 0.00343779H31.5279C31.6706 0.00343779 31.8122 0.00343656 31.9538 0.0084623C32.2639 0.0315807 32.4572 0.204464 32.4892 0.502993C32.5244 0.823635 32.3528 1.03472 32.0334 1.10608C31.8684 1.13246 31.701 1.14123 31.5341 1.13222C22.0936 1.13222 12.6531 1.13222 3.21254 1.13222C2.70709 1.13222 2.23679 1.19956 1.8347 1.5192C1.45742 1.82074 1.18868 2.20571 1.17731 2.6711C1.14527 3.90843 1.16594 5.14677 1.16594 6.40521H38.4336C38.4409 6.3047 38.4543 6.19313 38.4543 6.08558C38.4543 5.05731 38.4595 4.02905 38.4543 3.00078C38.4543 1.87401 37.7018 1.14528 36.5431 1.13623C35.9508 1.13623 35.3575 1.13623 34.7642 1.13623C34.2991 1.13623 34.0469 0.935207 34.0407 0.579385C34.0335 0.209491 34.2857 0.0104736 34.7797 0.00946843C35.4371 0.00946843 36.0945 -0.00159359 36.7519 0.0164991C37.5009 0.0396986 38.2128 0.33851 38.7439 0.852543C39.275 1.36658 39.5856 2.0575 39.613 2.78568C39.6213 3.0239 39.613 3.26212 39.613 3.50034C39.613 11.1127 39.613 18.7243 39.613 26.3353C39.613 27.8601 38.7065 29.007 37.2532 29.3186C37.0387 29.362 36.8201 29.3829 36.601 29.3809C34.9637 29.3809 33.3254 29.3809 31.6881 29.3809C31.6236 29.3819 31.559 29.3788 31.4949 29.3718C31.3571 29.3656 31.2272 29.3076 31.1326 29.2101C31.0379 29.1126 30.9858 28.9832 30.9873 28.8491C30.972 28.7154 31.0108 28.5812 31.0955 28.4748C31.1802 28.3684 31.3041 28.2982 31.4411 28.2792C31.5934 28.2547 31.748 28.2463 31.9021 28.2541C33.4246 28.2541 34.9462 28.2541 36.4677 28.2541C37.7287 28.2541 38.4533 27.5384 38.4533 26.3091C38.4533 20.1898 38.4533 14.0705 38.4533 7.95113V7.58426H1.16284V8.5894C1.16284 9.58048 1.16284 10.5705 1.16284 11.5616C1.16284 11.8792 1.13596 12.1647 0.778327 12.3044C0.420689 12.4441 0.202592 12.223 0 11.9858L0.00206613 2.42483Z" fill="#BDBDBD"/>
<path d="M0.0020752 14.0876C0.0640933 14.0283 0.116807 13.9358 0.191229 13.9157C0.39072 13.8615 0.624323 13.765 0.795906 13.8223C0.949917 13.8735 1.06362 14.0957 1.14838 14.2645C1.19902 14.365 1.16285 14.5108 1.16285 14.6364C1.16285 18.523 1.16285 22.4096 1.16285 26.2961C1.16285 27.5305 1.88639 28.2471 3.14019 28.2481C6.37891 28.2522 9.61522 28.2522 12.8491 28.2481H13.215C13.1468 28.0551 13.0962 27.9064 13.0403 27.7606C12.2823 25.7785 11.5243 23.796 10.7663 21.8132C10.5358 21.2101 10.7147 20.6744 11.2491 20.4954C11.4908 20.4185 11.7515 20.4185 11.9933 20.4954C15.3643 21.7016 18.7308 22.9165 22.0929 24.1401C22.8392 24.4125 22.9839 25.1101 22.4237 25.6629C21.8097 26.266 21.1833 26.8691 20.4939 27.5335C20.7236 27.7471 20.9652 27.9484 21.2174 28.1366C21.3578 28.2156 21.5185 28.2536 21.6805 28.2461C23.9545 28.2532 26.2192 28.2461 28.489 28.2521C28.6432 28.2466 28.7975 28.2604 28.948 28.2934C29.076 28.3207 29.1886 28.3944 29.2629 28.4995C29.3372 28.6046 29.3676 28.7332 29.348 28.8593C29.3484 28.9864 29.2992 29.1089 29.2104 29.2021C29.1216 29.2954 28.9998 29.3524 28.8694 29.3618C28.7284 29.3771 28.5864 29.3818 28.4446 29.3759H22.556C22.6128 29.4905 22.6593 29.5769 22.6976 29.6584C22.894 30.0353 22.8588 30.4022 22.5705 30.7057C22.1518 31.148 21.7136 31.5752 21.2588 31.9823C20.8391 32.3582 20.3161 32.321 19.8768 31.9039C19.3042 31.3611 18.7398 30.8052 18.1785 30.2564C18.1062 30.1861 18.0287 30.1217 17.9253 30.0282C17.3279 30.6112 16.7397 31.1862 16.1495 31.7581C15.457 32.4315 14.781 32.2938 14.4378 31.4093C14.2197 30.8474 13.9861 30.2896 13.797 29.7187C13.7039 29.4372 13.5572 29.3689 13.2698 29.3699C10.0717 29.3789 6.87264 29.3277 3.67665 29.394C1.82644 29.4322 0.510624 28.7849 0.0020752 26.9495V14.0876ZM21.5368 30.0614C20.8536 29.397 20.1611 28.7266 19.4696 28.0511C19.0272 27.6199 19.0251 27.3716 19.4613 26.9455C20.0877 26.3343 20.7161 25.7262 21.3797 25.0819L11.9447 21.6644L15.4591 30.8444C16.1278 30.1911 16.7428 29.588 17.3609 28.9879C17.823 28.5396 18.0566 28.5416 18.5269 28.998C19.2184 29.6704 19.9088 30.3449 20.5559 30.9751L21.5368 30.0614Z" fill="#BDBDBD"/>
<path d="M9.0898 15.7031C8.83139 16.4016 8.59675 17.0319 8.36625 17.6631C8.14506 18.2662 7.92386 18.8643 7.70886 19.4724C7.6055 19.7518 7.45975 19.9689 7.11659 19.9749C6.77342 19.981 6.61527 19.7739 6.51604 19.4874C5.9124 17.7707 5.30841 16.0542 4.70408 14.3381C4.55627 13.9179 4.67721 13.6033 5.01417 13.4968C5.36768 13.3842 5.64882 13.546 5.7987 13.9662C6.22766 15.1724 6.65145 16.3785 7.11038 17.6762C7.18997 17.4912 7.24062 17.3877 7.2799 17.2811C7.68302 16.1855 8.08924 15.0909 8.48409 13.9933C8.59262 13.6918 8.71872 13.4254 9.10427 13.4214C9.50945 13.4214 9.63556 13.7048 9.74409 14.0164C10.1265 15.1181 10.5124 16.219 10.9018 17.3193C10.9348 17.4128 10.9741 17.5043 11.0382 17.6661L12.078 14.7884C12.1897 14.4808 12.2848 14.1702 12.4109 13.8677C12.5494 13.5219 12.8646 13.3782 13.183 13.4968C13.4765 13.6053 13.6182 13.9089 13.4982 14.2436C12.8664 16.0167 12.2296 17.7881 11.5881 19.5578C11.4951 19.8161 11.3152 19.98 11.0144 19.9749C10.7136 19.9699 10.5452 19.8031 10.4532 19.5417C10.0666 18.4414 9.67966 17.3405 9.29239 16.2388C9.2314 16.079 9.17352 15.9282 9.0898 15.7031Z" fill="#BDBDBD"/>
<path d="M17.8582 17.69L19.0985 14.3097C19.1543 14.1559 19.2122 14.0032 19.2639 13.8494C19.3538 13.584 19.5295 13.4192 19.8252 13.4151C20.1353 13.4101 20.3192 13.585 20.4164 13.8624C20.8044 14.9761 21.194 16.0892 21.5854 17.2015C21.6289 17.3272 21.6764 17.4528 21.7581 17.675C22.187 16.4859 22.585 15.3963 22.9746 14.3067C23.0222 14.177 23.0677 14.0464 23.1183 13.9177C23.2713 13.5297 23.5473 13.3729 23.8853 13.4835C24.2233 13.5941 24.3473 13.9006 24.2098 14.2876C23.6868 15.7524 23.1597 17.2163 22.6284 18.6791C22.5312 18.9505 22.4344 19.2222 22.3379 19.4943C22.2346 19.7777 22.0692 19.9798 21.7281 19.9697C21.4066 19.9597 21.2557 19.7637 21.1606 19.4923C20.7678 18.3417 20.3671 17.1925 19.9585 16.0446C19.9296 15.9622 19.8955 15.8818 19.8345 15.726C19.7611 15.8989 19.7073 16.0134 19.6639 16.128C19.2622 17.2236 18.8615 18.3199 18.4618 19.4169C18.3533 19.7184 18.2117 19.9747 17.8261 19.9627C17.4633 19.9516 17.3351 19.7054 17.2328 19.4139C16.6395 17.7212 16.0369 16.0315 15.4405 14.3399C15.2999 13.9378 15.3795 13.6634 15.6627 13.5187C16.0121 13.3398 16.3708 13.5076 16.5258 13.9418C16.9248 15.0475 17.3145 16.1652 17.7083 17.2769C17.7455 17.3865 17.7858 17.492 17.8582 17.69Z" fill="#BDBDBD"/>
<path d="M28.4177 17.7001C28.8942 16.4045 29.3407 15.2054 29.7738 14.0022C29.8865 13.6886 30.0126 13.4072 30.4167 13.4152C30.8209 13.4232 30.9336 13.7167 31.0369 14.0283C31.4504 15.2134 31.8638 16.3955 32.3104 17.6559C32.3879 17.47 32.4427 17.3544 32.4871 17.2277C32.8792 16.1422 33.2696 15.0556 33.6582 13.968C33.7616 13.6866 33.9073 13.4655 34.2422 13.4524C34.6908 13.4323 34.9348 13.8253 34.759 14.3068C34.2805 15.6547 33.7926 17.0006 33.3119 18.3465C33.1724 18.7365 33.0277 19.1244 32.8902 19.5144C32.7931 19.7898 32.6225 19.9708 32.3042 19.9678C31.9858 19.9647 31.8225 19.7667 31.7274 19.5004C31.3139 18.3284 30.9005 17.1557 30.487 15.9824C30.4633 15.915 30.4271 15.8517 30.3682 15.726C29.9247 16.9322 29.5061 18.0861 29.0823 19.234C28.9583 19.5697 28.8921 19.9718 28.3887 19.9637C27.9102 19.9567 27.8451 19.5747 27.7283 19.2471C27.1577 17.6388 26.5888 16.0306 26.0217 14.4224C26 14.3631 25.9804 14.3038 25.9618 14.2434C25.8584 13.9027 25.9866 13.6042 26.2801 13.4966C26.6016 13.378 26.921 13.5177 27.0523 13.8685C27.3014 14.539 27.5308 15.2164 27.7696 15.8909L28.4177 17.7001Z" fill="#BDBDBD"/>
<path d="M11.5343 4.82217C11.2488 4.81745 10.9765 4.70429 10.7756 4.50688C10.5747 4.30947 10.4612 4.04348 10.4594 3.76577C10.4664 3.49473 10.5799 3.2366 10.7765 3.04442C10.9732 2.85224 11.2381 2.74061 11.5168 2.73247C11.8028 2.72977 12.0784 2.83703 12.2836 3.03091C12.4888 3.22479 12.607 3.48961 12.6124 3.76777C12.6119 4.04621 12.4983 4.31319 12.2964 4.51064C12.0945 4.7081 11.8207 4.82005 11.5343 4.82217Z" fill="#BDBDBD"/>
<path d="M9.29339 3.77483C9.29367 3.91287 9.26583 4.0496 9.21147 4.17712C9.15712 4.30464 9.07733 4.42043 8.97672 4.5178C8.8761 4.61518 8.75665 4.69222 8.62526 4.74446C8.49386 4.7967 8.35313 4.82312 8.21118 4.82219C7.93089 4.81439 7.66464 4.70122 7.4684 4.50645C7.27216 4.31168 7.16123 4.05051 7.15894 3.77785C7.1592 3.63958 7.1876 3.50272 7.24248 3.37517C7.29736 3.24761 7.37764 3.13188 7.47871 3.03462C7.57978 2.93737 7.69964 2.86052 7.83138 2.80849C7.96312 2.75646 8.10414 2.73029 8.24632 2.73148C8.52646 2.73779 8.79292 2.85052 8.98863 3.04554C9.18434 3.24055 9.29374 3.50234 9.29339 3.77483Z" fill="#BDBDBD"/>
<path d="M3.85858 3.75569C3.8629 3.48344 3.97682 3.2237 4.17587 3.0322C4.37491 2.84071 4.64323 2.73273 4.92322 2.73145C5.06525 2.73194 5.20574 2.76001 5.33646 2.814C5.46719 2.868 5.5855 2.94683 5.68447 3.04589C5.78345 3.14494 5.86108 3.26221 5.91282 3.39083C5.96457 3.51945 5.98938 3.65683 5.9858 3.79489C5.98148 4.0675 5.86749 4.32761 5.66828 4.51945C5.46907 4.7113 5.20048 4.8196 4.92012 4.82115C4.77837 4.81932 4.63839 4.79027 4.50822 4.73567C4.37805 4.68106 4.26027 4.60199 4.16162 4.50298C4.06298 4.40397 3.98543 4.28699 3.93342 4.15874C3.88141 4.0305 3.85598 3.89352 3.85858 3.75569Z" fill="#BDBDBD"/>
</svg>
