<svg width="41" height="40" viewBox="0 0 41 40" fill="none" xmlns="http://www.w3.org/2000/svg">
<path d="M0 26.3827C0.171752 26.0314 0.477553 25.9631 0.844097 25.9652C2.90826 25.9723 4.97242 25.9652 7.03658 25.9652H7.52461V23.8999C7.52461 22.9222 7.52461 21.9435 7.52461 20.9648C7.52461 20.4037 7.72149 20.2143 8.30482 20.2143C10.3952 20.2143 12.4855 20.2143 14.5759 20.2143H15.0513V19.7814C15.0513 18.0019 15.0513 16.2231 15.0513 14.445C15.0513 13.8187 15.222 13.6486 15.8556 13.6486H22.5717V13.2199C22.5717 11.4404 22.5717 9.66156 22.5717 7.88343C22.5717 7.23776 22.733 7.08398 23.4096 7.08398H30.3854C31.1038 7.08398 31.2599 7.2347 31.2599 7.93333C31.2599 13.4857 31.2599 19.0383 31.2599 24.5914V25.1006C31.44 25.1097 31.5803 25.1209 31.7196 25.1209C32.725 25.1209 33.7307 25.1209 34.7368 25.1209C35.5809 25.1209 35.6982 25.234 35.6982 26.0375C35.6982 27.004 35.7128 27.9725 35.6909 28.9349C35.6835 29.2607 35.7715 29.385 36.1202 29.4441C39.0358 29.9451 40.878 33.0584 39.8579 35.7582C39.8163 35.8583 39.7535 35.9489 39.6735 36.024C39.5936 36.0991 39.4984 36.157 39.394 36.194C39.2877 36.2059 39.1801 36.192 39.0807 36.1537C38.9813 36.1153 38.8932 36.0536 38.8243 35.9741C38.7196 35.8152 38.7196 35.5361 38.7813 35.3376C39.0004 34.6281 39.0084 33.8729 38.8044 33.1592C38.5484 32.3097 37.9897 31.5767 37.2284 31.0915C36.4671 30.6063 35.553 30.4006 34.6499 30.5113C33.7477 30.6266 32.9177 31.0518 32.3098 31.7102C31.7019 32.3685 31.3563 33.2166 31.3353 34.1012C31.312 34.9855 31.6156 35.8487 32.1909 36.5339C32.7662 37.2191 33.5751 37.681 34.4708 37.8357C35.2999 37.9783 36.1542 37.8534 36.9036 37.4803C37.0628 37.4049 37.2848 37.2919 37.4073 37.3458C37.6074 37.4344 37.8535 37.6279 37.887 37.8113C37.9205 37.9946 37.7634 38.2909 37.5958 38.3917C36.8261 38.8582 35.9642 39.0435 35.0573 39.0425C32.2485 39.0425 29.4397 39.0425 26.6309 39.0425H18.6361C17.9763 39.0425 17.7983 38.8704 17.7983 38.2339C17.7983 36.5943 17.7983 34.955 17.7983 33.316V32.8414H6.19458C6.02508 32.8468 5.85544 32.8373 5.68771 32.8129C5.36515 32.7549 5.23109 32.5359 5.24471 32.2324C5.25832 31.929 5.4217 31.7232 5.74949 31.71C6.1684 31.6927 6.58731 31.7019 7.00621 31.6998H7.49424V27.1506H1.19912V31.6968C1.63792 31.6968 2.07673 31.6968 2.51553 31.6968C3.01194 31.6968 3.22872 31.8719 3.23291 32.2518C3.2371 32.6317 3.01089 32.8292 2.53333 32.8363C1.98456 32.8455 1.4358 32.8272 0.88808 32.8435C0.526773 32.8537 0.223062 32.7763 0.0010419 32.484L0 26.3827ZM30.0566 25.1199V8.24598H23.773V30.1997H26.1712V29.7618C26.1712 28.4531 26.1712 27.1445 26.1712 25.8358C26.1712 25.3144 26.3639 25.1291 26.9043 25.123C27.5442 25.1158 28.184 25.123 28.8239 25.123L30.0566 25.1199ZM16.2546 14.8096V31.6632H17.8035V31.0613C17.8035 30.3983 17.9763 30.2303 18.6623 30.2292C19.8143 30.2292 20.961 30.2292 22.1099 30.2292C22.2492 30.2292 22.3885 30.216 22.5456 30.2089V14.8106L16.2546 14.8096ZM8.72373 31.657H15.0178V21.3803H8.72373V31.657ZM26.145 32.7671V31.3912H19.0058V32.763L26.145 32.7671ZM19.0016 36.5026V37.8662H26.1492V36.5026H19.0016ZM34.5012 26.288H27.3797V27.6537H34.5012V26.288ZM26.1523 33.9607H19.0047V35.3101H26.1523V33.9607ZM27.3693 30.2272C28.9873 30.2272 30.5634 30.2272 32.1406 30.2211C32.259 30.2211 32.3763 30.1305 32.4946 30.0826C33.0182 29.8718 33.5345 29.5999 34.0823 29.4716C34.4917 29.3697 34.6059 29.2312 34.4834 28.8432H27.3693V30.2272ZM27.3693 37.8652H31.8725C31.6955 37.684 31.4997 37.5597 31.4191 37.3866C30.9834 36.4537 30.1843 36.3682 29.29 36.4771C29.1333 36.4858 28.9764 36.4858 28.8197 36.4771H27.3651L27.3693 37.8652ZM27.3693 32.7864C28.338 32.7864 29.2638 32.7865 30.1885 32.7803C30.2354 32.7747 30.2803 32.7589 30.32 32.734C30.3598 32.7092 30.3932 32.6759 30.4179 32.6367C30.6273 32.2294 30.8085 31.822 31.0106 31.3953H27.3693V32.7864ZM27.385 33.9393V35.309H30.2608C30.2168 34.8355 30.1759 34.3925 30.1351 33.9393H27.385Z" fill="#BDBDBD"/>
<path d="M26.7336 0C27.3012 0.374773 27.8657 0.753619 28.4364 1.12024C29.0072 1.48687 29.0648 1.71601 28.6867 2.27308C28.3505 2.7721 28.0175 3.27315 27.674 3.76809C27.4206 4.13268 27.1252 4.20601 26.8173 3.99723C26.5094 3.78846 26.4759 3.4809 26.7042 3.12751C26.8205 2.94624 26.943 2.77006 27.1231 2.49407C26.2906 2.66923 25.5522 2.80469 24.8317 2.98087C18.7167 4.47385 13.5118 7.41907 9.46936 12.1801C6.79883 15.3249 4.88233 18.8588 3.82773 22.8194C3.71777 23.2318 3.40882 23.464 3.08417 23.3866C2.71448 23.299 2.56787 22.9793 2.69354 22.4894C3.2238 20.4449 4.01172 18.4719 5.03942 16.6153C9.45994 8.55357 16.3426 3.66625 25.4611 1.67324C25.8559 1.58769 26.2518 1.51131 26.655 1.42882C26.4162 1.20986 26.1136 1.03572 25.9743 0.778062C25.791 0.443007 26.0445 0.183313 26.3429 0H26.7336Z" fill="#BDBDBD"/>
<path d="M36.7434 34.5239C36.7275 34.6601 36.6832 34.7916 36.6131 34.9105C36.5431 35.0294 36.4488 35.1332 36.3361 35.2154C36.0951 35.3804 35.8054 35.4645 35.5108 35.4547C35.4553 35.4547 35.4061 35.4547 35.3506 35.4476L36.0407 32.5655H36.046C36.2102 32.6307 36.3545 32.7359 36.4649 32.871C36.5826 33.0228 36.6551 33.2032 36.6743 33.3924H37.198C37.174 33.1313 37.0844 32.8799 36.9372 32.6602C36.7918 32.4516 36.5914 32.2849 36.357 32.1775C36.2892 32.1463 36.2192 32.1198 36.1475 32.098L36.3319 31.3281L35.8082 31.209L35.6176 32.0084C35.5715 32.0084 35.5255 32.0084 35.4783 32.0084C35.1814 32.0008 34.8865 32.0583 34.6154 32.1765C34.3881 32.2784 34.1878 32.4296 34.03 32.6185C33.8812 32.8003 33.7686 33.0075 33.698 33.2295C33.6284 33.4468 33.5931 33.6731 33.5933 33.9006V34.0116C33.5949 34.2301 33.6302 34.447 33.698 34.6553C33.7681 34.8787 33.8795 35.0879 34.0268 35.2724C34.1854 35.4691 34.3886 35.6273 34.6206 35.7348C34.652 35.7497 34.6845 35.764 34.718 35.7775L34.5243 36.5923L35.0479 36.7114L35.2417 35.9028C35.3275 35.911 35.4166 35.9161 35.5098 35.9161C35.8229 35.9248 36.1336 35.8602 36.4156 35.7276C36.6529 35.6129 36.8548 35.4394 37.0011 35.2246C37.1424 35.0149 37.2326 34.7767 37.265 34.528L36.7434 34.5239ZM34.4625 35.0076C34.3445 34.8658 34.2557 34.7034 34.2007 34.529C34.143 34.3448 34.1141 34.1532 34.1148 33.9607C34.1133 33.7628 34.1422 33.5657 34.2007 33.3761C34.2546 33.2033 34.3417 33.0419 34.4573 32.9006C34.5711 32.7625 34.7173 32.6528 34.8835 32.5808C35.0712 32.5008 35.2745 32.4615 35.4794 32.4657H35.5098L34.8311 35.3009C34.6898 35.2274 34.5646 35.1278 34.4625 35.0076Z" fill="#BDBDBD"/>
</svg>
