<svg width="298" height="601" viewBox="0 0 298 601" fill="none" xmlns="http://www.w3.org/2000/svg">
<g clip-path="url(#clip0_24_384)">
<path d="M58.9059 126.89C57.7321 128.58 56.3818 130.14 54.8777 131.544C52.2438 134.336 48.5253 138.06 44.4971 142.093C40.4688 146.127 36.5954 149.85 33.8066 152.333C32.4209 153.872 30.7997 155.181 29.0037 156.211C30.1308 154.485 31.4858 152.92 33.0319 151.557C35.6658 148.765 39.3842 145.041 43.4125 141.007C47.4408 136.974 51.3142 133.25 54.103 130.768C55.542 129.286 57.1547 127.984 58.9059 126.89Z" fill="#E0E0E0"/>
<path d="M156.669 7.89661C156.246 9.42701 155.729 10.9296 155.12 12.3957C154.035 15.3434 152.331 19.377 150.007 24.3415C144.073 37.439 137.293 50.1357 129.711 62.351C122.123 74.5399 113.792 86.2494 104.766 97.4129C101.358 101.757 98.414 105.015 96.2449 107.342C95.1876 108.556 94.0488 109.696 92.8364 110.755C93.6922 109.419 94.6782 108.172 95.7802 107.032C97.7943 104.704 100.583 101.136 103.837 96.7923C112.626 85.5048 120.798 73.7486 128.316 61.5753C135.818 49.446 142.695 36.9409 148.922 24.1088C151.247 19.1443 153.106 15.1107 154.5 12.3181C155.061 10.7699 155.788 9.2874 156.669 7.89661Z" fill="#E0E0E0"/>
<path d="M122.739 37.5286C123.39 40.3855 123.804 43.2913 123.978 46.2164C124.598 51.6464 125.373 59.0931 126.302 67.6259L125.218 67.0053L128.781 64.9885C136.993 60.1791 144.429 55.9903 149.852 52.8875C152.749 51.1519 155.75 49.5975 158.838 48.2333C156.172 50.2721 153.377 52.1376 150.472 53.8183C145.204 57.0763 137.767 61.4202 129.711 66.2296L126.147 68.2464L125.218 68.867L125.063 67.781C124.288 59.2483 123.668 51.8015 123.203 46.3716C122.74 43.4483 122.584 40.4844 122.739 37.5286Z" fill="#E0E0E0"/>
<path d="M165.655 24.9621C163.939 26.2356 162.064 27.2787 160.078 28.0649C156.514 29.7715 151.711 32.0986 146.289 34.5808L144.584 35.3565L143.655 35.822L143.5 34.8911C142.57 29.4612 141.951 24.4967 141.486 21.0836C141.171 19.1866 141.015 17.2664 141.021 15.3434C141.792 17.1146 142.264 19.0021 142.415 20.9285C143.035 24.3416 143.965 29.3061 144.894 34.736L143.81 34.1154L145.514 33.3397C150.937 30.8575 155.895 28.6855 159.458 27.2892C161.394 26.2028 163.484 25.4181 165.655 24.9621Z" fill="#E0E0E0"/>
<path d="M241.573 205.236C240.951 207.441 239.581 209.361 237.7 210.666C236.635 211.424 235.419 211.942 234.135 212.183C232.851 212.424 231.529 212.383 230.263 212.062C228.634 211.533 227.187 210.552 226.09 209.235C224.994 207.917 224.292 206.316 224.066 204.615C223.767 202.664 224.209 200.671 225.305 199.03C226.51 197.176 228.031 195.548 229.798 194.221C233.362 191.428 238.319 189.101 241.108 184.292C242.548 181.833 243.458 179.099 243.778 176.267C244.098 173.434 243.822 170.566 242.967 167.847C242.076 164.972 240.658 162.289 238.784 159.935C236.835 157.592 234.596 155.507 232.122 153.729C229.695 152.07 227.46 150.145 225.46 147.989C223.55 145.956 222.401 143.326 222.206 140.542C222.231 137.859 222.98 135.232 224.375 132.94C225.728 130.695 227.398 128.657 229.333 126.89C233.052 123.321 237.08 120.064 239.559 115.875C241.843 112.065 242.974 107.672 242.813 103.231C242.527 99.6052 241.526 96.0723 239.869 92.8363C238.728 90.3673 237.745 87.8282 236.925 85.2344C236.304 83.0151 236.146 80.6914 236.46 78.4082C236.441 78.5724 236.389 78.7309 236.305 78.8736C236.129 79.3197 236.024 79.791 235.995 80.2699C235.789 81.9812 235.894 83.7157 236.305 85.3895C236.95 88.049 237.831 90.6451 238.939 93.1466C240.429 96.372 241.321 99.8413 241.573 103.386C241.728 107.655 240.594 111.872 238.319 115.487C235.841 119.365 231.967 122.468 228.094 126.192C226.092 128.095 224.324 130.23 222.826 132.552C221.24 135.061 220.382 137.961 220.347 140.93C220.505 144.057 221.768 147.027 223.911 149.308C226.051 151.481 228.384 153.454 230.883 155.203C233.265 156.918 235.448 158.896 237.39 161.098C239.131 163.319 240.444 165.844 241.263 168.545C242.029 171.088 242.273 173.759 241.98 176.399C241.687 179.039 240.864 181.592 239.559 183.904C237.08 188.403 232.432 190.73 228.714 193.523C226.854 194.919 225.277 196.656 224.066 198.642C222.962 200.567 222.527 202.804 222.826 205.003C223.127 206.886 223.958 208.645 225.22 210.073C226.481 211.502 228.123 212.541 229.953 213.07C232.188 213.57 234.527 213.249 236.546 212.168C238.565 211.086 240.129 209.314 240.953 207.175C241.2 206.922 241.384 206.615 241.491 206.279C241.599 205.942 241.627 205.585 241.573 205.236Z" fill="#263238"/>
<path d="M82.6108 60.7997C77.6529 60.4894 73.1598 57.5417 68.2019 57.0763C61.2299 56.3006 54.5677 60.6446 49.3 65.2988C43.9834 69.812 39.7027 75.4215 36.7504 81.7437C32.2573 92.4484 33.4968 104.549 36.5955 115.72C39.3843 125.649 43.4125 136.819 38.4546 145.972C36.721 148.734 34.806 151.377 32.7221 153.884C30.6279 157.046 29.2273 160.617 28.613 164.361C27.9987 168.105 28.1847 171.937 29.1586 175.604C31.1727 182.74 35.9757 188.636 38.1448 195.617C40.38 202.61 39.9381 210.186 36.9053 216.871C35.201 220.595 32.7221 224.008 31.1728 227.731C28.6724 233.718 28.5614 240.437 30.8629 246.503C32.7221 251.468 36.2855 255.967 37.2151 261.242C38.7645 269.619 33.4967 277.997 34.5812 286.53C55.0325 291.649 77.1881 296.614 96.5549 288.391C97.6016 288.245 98.5478 287.689 99.1866 286.846C99.8254 286.003 100.105 284.941 99.9634 283.892C99.9313 283.563 99.8254 283.244 99.6536 282.961C97.0392 270.778 92.1505 259.198 85.2447 248.83C80.5967 242.004 74.8641 234.713 75.9486 226.49C77.343 215.63 90.5125 207.408 88.0335 196.703C86.4842 190.187 79.5121 186.464 76.2585 180.568C73.1598 175.138 73.6246 168.312 75.174 162.262C76.7233 156.211 79.3572 150.471 80.4418 144.265C81.9911 135.733 80.7516 126.579 84.47 118.667" fill="#263238"/>
<path d="M91.2871 54.1286C92.8364 55.6801 93.1463 58.1623 93.1463 60.7997C93.1434 63.6179 92.8316 66.4272 92.2166 69.1773C91.7512 71.9462 90.9715 74.6529 89.8926 77.2446C88.8081 79.5717 87.7236 81.7437 85.5545 82.6746C83.3854 83.6054 80.9065 82.5194 78.7374 79.5717C77.4929 77.8265 76.6949 75.8023 76.4134 73.6764C75.4968 68.5676 76.5487 63.3008 79.3571 58.938C80.4719 57.1501 81.9499 55.6172 83.6953 54.4389C86.9489 52.4221 89.7377 52.5772 91.2871 54.1286Z" fill="black"/>
<path d="M67.1174 135.81C64.3286 127.743 66.8075 118.59 70.6809 110.988C74.5542 103.386 79.6671 96.2494 82.3009 88.0269C85.2447 79.1839 85.0898 69.41 88.4983 60.8772C90.3416 56.4143 93.1219 52.4004 96.6505 49.108C100.179 45.8155 104.374 43.3214 108.95 41.7949C114.527 39.9332 120.57 39.4678 125.373 36.2099C130.176 32.9519 132.809 26.9014 136.528 22.2472C142.57 14.4901 148.458 7.97423 157.444 4.25085C167.67 -0.093096 182.698 -1.6445 193.079 2.5443C199.466 5.42762 204.626 10.4847 207.643 16.8173C210.556 23.1476 212.439 29.9041 213.22 36.8304C223.756 38.8473 229.798 49.7071 234.601 59.3258C237.235 64.7558 239.869 70.3408 240.179 76.3913C240.334 83.0624 234.601 106.178 231.347 112.074C214.46 142.481 189.515 148.997 158.993 165.752C147.218 172.268 139.936 187.162 126.612 186.696C110.964 186.076 95.7802 185.455 86.6391 172.734C77.498 160.012 67.4273 147.911 66.0329 132.397" fill="#263238"/>
<path d="M190.755 218.035C191.22 204.848 191.374 199.418 191.374 199.573C191.374 199.728 219.263 195.539 225.925 159.392C229.333 141.55 229.023 111.919 228.094 87.5615C227.164 65.6866 213.53 38.6921 191.684 40.3987L123.513 55.9128C120.308 56.1483 117.31 57.5918 115.125 59.9525C112.94 62.3133 111.73 65.4156 111.738 68.6343L114.527 206.089" fill="#F5F5F5"/>
<path d="M190.755 218.035C191.22 204.848 191.374 199.418 191.374 199.573C191.374 199.728 219.263 195.539 225.925 159.392C229.333 141.55 229.023 111.919 228.094 87.5615C227.164 65.6866 213.53 38.6921 191.684 40.3987L123.513 55.9128C120.308 56.1483 117.31 57.5918 115.125 59.9525C112.94 62.3133 111.73 65.4156 111.738 68.6343L114.527 206.089" stroke="#263238" stroke-miterlimit="10"/>
<path d="M169.374 116.34C169.374 117.575 168.884 118.758 168.012 119.631C167.141 120.504 165.959 120.994 164.726 120.994C164.136 121.015 163.547 120.919 162.994 120.712C162.441 120.505 161.934 120.191 161.503 119.787C161.071 119.384 160.723 118.899 160.478 118.361C160.234 117.823 160.098 117.241 160.078 116.65C160.078 115.416 160.567 114.232 161.439 113.359C162.311 112.487 163.493 111.996 164.726 111.996C165.322 111.949 165.922 112.026 166.486 112.224C167.051 112.421 167.568 112.734 168.006 113.143C168.443 113.551 168.79 114.047 169.026 114.597C169.262 115.148 169.38 115.741 169.374 116.34Z" fill="#263238"/>
<path d="M216.474 114.789C216.474 116.023 215.984 117.207 215.112 118.08C214.241 118.953 213.058 119.443 211.826 119.443C210.658 119.49 209.519 119.078 208.65 118.296C207.782 117.513 207.254 116.422 207.178 115.254C207.178 114.02 207.667 112.836 208.539 111.963C209.411 111.09 210.593 110.6 211.826 110.6C212.41 110.549 212.999 110.618 213.555 110.805C214.111 110.991 214.623 111.29 215.059 111.683C215.495 112.076 215.845 112.554 216.089 113.088C216.332 113.623 216.463 114.202 216.474 114.789Z" fill="#263238"/>
<path d="M223.136 103.463C222.516 104.239 218.488 101.136 213.065 101.291C207.643 101.447 203.769 104.86 203.149 104.084C202.84 103.774 203.459 102.377 205.009 100.826C207.169 98.8556 209.955 97.7127 212.875 97.5992C215.795 97.4857 218.661 98.4088 220.967 100.206C222.826 101.757 223.446 103.231 223.136 103.463Z" fill="#263238"/>
<path d="M172.627 104.239C171.853 105.015 167.979 101.447 162.247 101.136C156.514 100.826 152.021 103.619 151.401 102.843C151.092 102.533 151.866 101.136 153.88 99.8952C156.451 98.2126 159.491 97.3972 162.557 97.5681C165.601 97.7419 168.496 98.9452 170.768 100.981C172.472 102.533 172.937 103.929 172.627 104.239Z" fill="#263238"/>
<path d="M189.36 140.232C189.36 139.921 192.459 139.456 197.572 138.991C198.811 138.836 200.051 138.68 200.361 137.75C200.496 136.408 200.226 135.057 199.586 133.871C198.501 130.768 197.262 127.51 196.022 124.097C191.065 110.134 187.656 98.654 188.121 98.3438C188.586 98.0335 193.079 109.359 198.037 123.321C199.276 126.735 200.361 130.148 201.445 133.25C202.18 134.795 202.398 136.536 202.065 138.215C201.847 138.655 201.542 139.047 201.169 139.367C200.797 139.687 200.364 139.928 199.896 140.077C199.186 140.256 198.459 140.36 197.727 140.387C194.939 140.597 192.138 140.545 189.36 140.232Z" fill="#263238"/>
<path opacity="0.25" d="M191.374 199.651C174.267 199.516 157.533 194.628 143.035 185.533C143.035 185.533 154.655 211.597 191.065 208.959L191.374 199.651Z" fill="black"/>
<path d="M186.881 152.178C185.953 150.945 184.726 149.97 183.316 149.345C181.906 148.721 180.36 148.468 178.825 148.609C177.722 148.694 176.646 148.999 175.662 149.505C174.678 150.011 173.804 150.709 173.092 151.557C172.399 152.358 171.968 153.353 171.857 154.407C171.747 155.461 171.961 156.524 172.473 157.452C173.25 158.374 174.284 159.043 175.443 159.375C176.602 159.706 177.833 159.685 178.98 159.314C181.383 158.537 183.599 157.27 185.487 155.591C186.026 155.207 186.498 154.735 186.881 154.194C187.033 153.908 187.113 153.588 187.113 153.264C187.113 152.939 187.033 152.619 186.881 152.333" fill="#784D48"/>
<path d="M174.487 143.335C175.261 143.335 175.106 148.765 179.754 152.798C184.402 156.832 190.135 156.366 190.135 157.142C190.135 157.452 188.741 158.228 186.417 158.228C183.234 158.187 180.165 157.035 177.74 154.97C175.429 152.951 173.986 150.117 173.712 147.058C173.402 144.576 174.177 143.335 174.487 143.335Z" fill="#263238"/>
<path d="M173.867 87.1737C173.402 88.5699 168.289 87.7942 162.402 88.2597C156.514 88.7251 151.711 90.2765 150.937 89.0354C150.627 88.4148 151.401 87.1737 153.416 85.9325C156.008 84.3898 158.912 83.4495 161.916 83.181C164.919 82.9125 167.944 83.3226 170.768 84.3811C173.092 85.4671 174.177 86.5531 173.867 87.1737Z" fill="#263238"/>
<path d="M219.727 88.2596C218.643 89.3456 214.769 88.1044 210.121 87.9493C205.473 87.7942 201.29 88.5699 200.516 87.3287C200.206 86.7082 200.825 85.6222 202.53 84.5362C204.966 83.2772 207.693 82.6883 210.431 82.8296C213.146 82.9175 215.78 83.7786 218.023 85.3119C219.727 86.553 220.192 87.7166 219.727 88.2596Z" fill="#263238"/>
<path d="M108.485 59.7912C112.358 54.9819 118.555 52.965 124.443 51.4136C149.965 44.3947 176.23 40.4367 202.685 39.6229C205.473 45.3631 201.6 52.3445 196.332 55.7576C191.065 59.1707 184.557 60.1015 178.515 61.6529C172.472 63.2043 166.12 65.9969 163.022 71.5819C159.768 77.4773 161.317 84.924 158.373 90.9745C153.416 101.369 137.922 103.386 133.119 113.78C129.401 121.692 131.88 119.831 132.19 128.519C132.5 138.448 126.457 139.844 118.71 145.894C112.513 150.704 100.738 156.134 92.9913 155.513C94.3857 124.33 102.442 109.281 103.682 78.253C103.992 71.6595 104.302 64.6782 108.485 59.7912Z" fill="#263238"/>
<path d="M152.021 10.1462C152.176 9.99101 152.486 9.83587 152.641 9.68073C153.291 9.23261 153.963 8.81835 154.655 8.4396C157.129 7.07111 159.792 6.07773 162.557 5.49193C166.676 4.58611 170.918 4.37636 175.106 4.87137C180.244 5.51027 185.152 7.38109 189.414 10.325C193.676 13.2689 197.165 17.1991 199.586 21.7817C201.566 25.5057 202.877 29.5491 203.459 33.7276C203.924 36.5007 203.924 39.332 203.459 42.1052C203.304 42.8809 203.149 43.6566 202.994 44.2771C202.994 44.5874 202.84 44.7425 202.84 45.0528C203.304 41.2921 203.304 37.4883 202.84 33.7276C202.202 29.6392 200.838 25.6984 198.811 22.092C196.413 17.6453 193.004 13.8258 188.859 10.9422C184.714 8.05849 179.95 6.19147 174.951 5.49193C170.884 4.89705 166.744 5.00198 162.712 5.80221C159.006 6.87146 155.423 8.32742 152.021 10.1462Z" fill="#455A64"/>
<path d="M117.161 39.623H118.246C119.233 39.5965 120.218 39.4927 121.189 39.3127C122.709 39.0298 124.173 38.5061 125.527 37.7613C127.374 36.7703 129.136 35.6287 130.795 34.3482C132.654 32.9519 134.669 31.2454 136.838 29.694C139.16 27.8596 141.65 26.2493 144.275 24.8846C150.413 21.9849 157.173 20.6524 163.951 21.0061C170.749 21.3207 177.357 23.3484 183.163 26.9015C187.807 29.8475 191.811 33.699 194.938 38.2267C197.107 41.2516 198.78 44.6033 199.896 48.1557C200.245 49.112 200.504 50.0989 200.67 51.1034C200.809 51.4476 200.862 51.8202 200.825 52.1894C200.67 52.1894 200.516 50.7931 199.586 48.3109C198.349 44.8767 196.627 41.6376 194.473 38.6922C191.341 34.211 187.336 30.4112 182.698 27.522C177.029 24.0416 170.59 22.0166 163.951 21.6267C157.291 21.2961 150.649 22.5731 144.584 25.35C141.96 26.5685 139.511 28.1338 137.302 30.0043C135.133 31.7108 133.119 33.2622 131.26 34.6585C129.544 35.8907 127.731 36.9803 125.837 37.9165C124.374 38.6634 122.807 39.1863 121.189 39.4679C120.162 39.5969 119.126 39.6487 118.091 39.623C117.626 39.7264 117.316 39.7264 117.161 39.623Z" fill="#455A64"/>
<path d="M86.4842 78.4082C86.9394 81.3882 87.5601 84.3404 88.3434 87.2512C90.4868 94.2703 94.5073 100.568 99.9693 105.463C105.431 110.358 112.127 113.664 119.33 115.021C122.308 115.485 125.307 115.796 128.316 115.952C128.161 115.952 127.852 116.107 127.697 116.107C127.077 116.107 126.457 116.263 125.837 116.263C123.609 116.262 121.383 116.106 119.175 115.797C111.82 114.567 104.963 111.278 99.3968 106.308C93.8309 101.339 89.7837 94.8931 87.7236 87.7167C87.0731 85.5438 86.6576 83.3073 86.4842 81.0456C86.3675 80.4322 86.3155 79.8082 86.3292 79.1839C86.3253 78.9173 86.3781 78.6528 86.4842 78.4082Z" fill="#455A64"/>
<path d="M121.034 132.32C120.2 132.293 119.37 132.189 118.555 132.009C116.386 131.544 114.217 130.923 112.048 130.303C104.826 128.156 98.1625 124.449 92.5266 119.443C86.9614 114.265 83.3958 107.289 82.4558 99.7401C82.1706 97.4636 82.2754 95.1551 82.7657 92.9139L83.2305 91.0522C83.309 90.853 83.3611 90.6444 83.3855 90.4316C82.8157 93.449 82.7112 96.5359 83.0756 99.5849C84.1904 106.944 87.7361 113.718 93.1463 118.822C98.6565 123.756 105.153 127.458 112.203 129.682C114.328 130.448 116.502 131.07 118.71 131.544C119.33 131.699 120.105 132.009 121.034 132.32Z" fill="#455A64"/>
<path d="M234.756 33.8052C230.791 33.3147 226.777 33.3668 222.826 33.9603C218.95 34.8921 215.203 36.299 211.671 38.1491C212.522 37.3044 213.52 36.6211 214.615 36.1323C217.143 34.7627 219.857 33.7697 222.671 33.1846C225.484 32.6943 228.351 32.5899 231.192 32.8743C232.43 32.9435 233.642 33.26 234.756 33.8052Z" fill="#263238"/>
<path d="M220.192 14.8781C220.455 16.1531 220.559 17.4559 220.502 18.7566C220.377 21.8613 219.856 24.9373 218.953 27.9099C218.021 30.8343 216.664 33.605 214.924 36.1323C214.271 37.2486 213.433 38.2454 212.445 39.08C214.754 35.4656 216.675 31.6175 218.178 27.5996C219.388 23.4623 220.064 19.1871 220.192 14.8781Z" fill="#263238"/>
<path d="M69.9062 189.877C71.6095 190.951 73.3678 191.935 75.1739 192.824C79.657 194.781 84.64 195.279 89.4209 194.249C94.2017 193.219 98.5394 190.713 101.823 187.084C103.097 185.547 104.286 183.941 105.386 182.275C105.275 182.825 105.065 183.351 104.766 183.826C104.069 185.186 103.182 186.44 102.132 187.55C98.8752 191.409 94.4336 194.081 89.5008 195.147C84.5681 196.214 79.4215 195.615 74.8641 193.445C73.4884 192.82 72.1888 192.039 70.9907 191.118C70.5862 190.744 70.2226 190.328 69.9062 189.877Z" fill="#263238"/>
<path d="M59.5256 178.707C60.4116 178.724 61.2937 178.828 62.1595 179.017C64.5353 179.484 66.9914 179.324 69.2865 178.552C70.8399 177.951 72.1116 176.788 72.8499 175.294C73.2475 174.516 73.5095 173.677 73.6246 172.811C73.6431 172.342 73.5551 171.875 73.3672 171.445C73.1794 171.016 72.8966 170.634 72.5401 170.329C71.7998 169.647 70.8691 169.207 69.8724 169.068C68.8757 168.929 67.8605 169.099 66.9624 169.553C66.0121 170.103 65.2245 170.895 64.68 171.849C64.1356 172.803 63.8539 173.885 63.8638 174.983C63.9163 177.237 64.7993 179.392 66.3427 181.034C67.8061 182.571 69.6109 183.74 71.6105 184.447C75.0129 185.689 78.7436 185.689 82.146 184.447C84.4712 183.702 86.5925 182.427 88.3433 180.724L89.118 179.948L89.5828 179.327C89.8927 179.017 90.0476 178.707 90.0476 178.862C90.0476 179.017 89.8927 179.327 89.7378 179.482L89.2729 180.258L88.4983 181.189C86.771 183.031 84.6533 184.463 82.3009 185.378C78.7708 186.746 74.8678 186.801 71.3006 185.533C69.199 184.775 67.2933 183.556 65.723 181.965C63.9715 180.246 62.9691 177.904 62.9342 175.449C62.8978 174.225 63.196 173.014 63.7967 171.948C64.3975 170.882 65.2779 170 66.3427 169.398C67.4044 168.875 68.6035 168.698 69.7709 168.893C70.9383 169.088 72.0152 169.644 72.8499 170.484C73.2155 170.88 73.4995 171.344 73.6856 171.85C73.8717 172.356 73.9563 172.893 73.9345 173.432C73.9162 174.463 73.6505 175.474 73.1598 176.38C72.3495 177.969 70.9643 179.19 69.2865 179.793C66.8719 180.514 64.3157 180.621 61.8496 180.103C61.1672 180.001 60.4938 179.845 59.8355 179.638C59.9905 179.017 59.8355 178.862 59.5256 178.707Z" fill="#263238"/>
<path d="M114.372 142.094C114.217 141.938 114.062 142.404 113.288 142.714C112.831 142.943 112.327 143.063 111.816 143.063C111.305 143.063 110.801 142.943 110.344 142.714C107.865 141.783 106.006 137.905 105.851 133.871C105.799 131.886 106.225 129.917 107.09 128.131C107.314 127.424 107.695 126.777 108.205 126.24C108.715 125.702 109.34 125.288 110.034 125.028C110.486 124.872 110.982 124.897 111.416 125.1C111.849 125.303 112.187 125.666 112.358 126.114C112.668 126.735 112.513 127.2 112.668 127.2C112.823 127.2 113.133 126.89 112.978 125.804C112.858 125.236 112.525 124.737 112.048 124.407C111.75 124.158 111.403 123.973 111.03 123.866C110.656 123.759 110.264 123.732 109.879 123.787C108.929 123.958 108.041 124.378 107.306 125.005C106.571 125.632 106.015 126.443 105.696 127.355C104.705 129.324 104.225 131.512 104.302 133.716C104.456 138.37 106.78 142.714 110.034 143.645C110.636 143.822 111.27 143.858 111.888 143.75C112.506 143.643 113.091 143.394 113.598 143.024C113.938 142.793 114.207 142.471 114.372 142.094Z" fill="#263238"/>
<path d="M101.978 145.817C101.674 146.113 101.301 146.326 100.893 146.437C100.273 146.903 99.0338 147.368 97.7943 148.144C94.2236 150.623 91.4297 154.066 89.7378 158.073C88.6544 160.68 88.0956 163.476 88.0935 166.3C88.0915 169.124 88.6461 171.92 89.7257 174.529C90.8052 177.138 92.3884 179.507 94.3845 181.502C96.3806 183.497 98.7504 185.078 101.358 186.154C104.012 187.254 106.852 187.833 109.724 187.86C111.774 187.855 113.81 187.541 115.767 186.929C117.669 186.327 119.49 185.493 121.189 184.447C124.354 182.417 126.922 179.579 128.626 176.225C131.082 171.423 131.649 165.873 130.215 160.673C128.78 155.473 125.449 151.002 120.879 148.144C119.485 147.368 118.091 146.593 116.696 145.972C118.216 146.403 119.675 147.028 121.034 147.834C124.846 150.14 127.871 153.547 129.711 157.608C131.865 162.433 132.221 167.872 130.715 172.939C129.208 178.005 125.939 182.363 121.499 185.223C119.766 186.348 117.89 187.235 115.922 187.86C113.915 188.483 111.825 188.797 109.724 188.791C105.672 188.863 101.681 187.796 98.2027 185.712C94.7249 183.628 91.8998 180.61 90.0476 177C87.4249 172.097 86.7498 166.383 88.1577 161.003C89.5656 155.622 92.9525 150.974 97.6394 147.989C99.0338 147.213 100.118 146.748 100.738 146.282C101.16 146.153 101.574 145.998 101.978 145.817Z" fill="black"/>
<path d="M84.6249 76.0035V77.0895C84.5985 78.1815 84.495 79.2702 84.3151 80.3475C83.7245 84.2661 82.5767 88.0799 80.9065 91.6728C79.0473 96.327 76.1035 101.447 73.0049 107.342C71.4028 110.369 69.9549 113.476 68.6667 116.65C67.2875 120.032 66.3501 123.578 65.8779 127.2C64.9507 134.233 66.0247 141.385 68.9766 147.834C70.223 150.638 71.7823 153.292 73.6246 155.746C75.3289 158.073 77.0332 160.245 78.5825 162.107C81.6812 165.985 84.315 169.088 86.1743 171.105L88.3433 173.587C88.6022 173.859 88.8119 174.174 88.9631 174.518C88.6543 174.316 88.3906 174.051 88.1884 173.742C87.7236 173.122 86.9489 172.501 86.0193 171.415C84.1601 169.398 81.3713 166.451 78.2726 162.572C76.7233 160.71 75.019 158.538 73.1598 156.211C71.234 153.73 69.6209 151.02 68.3568 148.144C65.3664 141.541 64.2411 134.244 65.1032 127.045C65.5561 123.369 66.4939 119.769 67.8921 116.34C69.1315 113.082 70.6809 109.979 72.2302 106.877C75.3289 100.981 78.2726 95.8616 80.2868 91.3625C81.9366 87.803 83.1338 84.0503 83.8502 80.1923C84.0052 79.1064 84.1601 78.1755 84.3151 77.0895C84.4699 76.7443 84.5742 76.3786 84.6249 76.0035Z" fill="#455A64"/>
<path d="M13.2003 206.011C13.2003 206.011 13.2003 205.856 12.8904 205.546C12.5905 205.108 12.1549 204.781 11.651 204.615C10.7816 204.359 9.85045 204.414 9.01707 204.77C8.47711 205.073 8.01439 205.496 7.66499 206.008C7.31559 206.519 7.08899 207.104 7.00295 207.718C6.69329 209.254 6.69329 210.836 7.00295 212.372C7.16584 214.22 7.92761 215.963 9.17206 217.337C9.89847 218.093 10.8085 218.649 11.8133 218.948C12.8181 219.247 13.8833 219.28 14.9046 219.043C17.2892 218.64 19.4411 217.37 20.947 215.475C22.4695 213.35 23.2828 210.798 23.271 208.183C23.4052 205.368 23.1444 202.548 22.4963 199.806C21.2569 193.91 19.0879 188.015 17.2286 181.654C15.3694 175.294 13.975 168.157 15.3694 160.865C15.9863 157.129 17.5313 153.608 19.8624 150.626C22.1865 147.678 25.1302 145.196 26.8345 141.628C28.5177 138.245 29.4682 134.544 29.6234 130.768C29.8035 127.085 29.5957 123.393 29.0036 119.753C27.9191 112.617 26.0598 105.79 26.0598 98.9643C25.9213 92.9716 27.1631 87.0275 29.6887 81.5928C32.2143 76.1582 35.956 71.379 40.6236 67.6258C44.1495 64.7128 48.1988 62.5012 52.5536 61.1099C55.8218 60.052 59.2011 59.3753 62.6243 59.0931C64.7927 58.912 66.9741 58.964 69.1315 59.2482C69.7137 59.247 70.2912 59.3522 70.8358 59.5585C71.0527 59.552 71.2671 59.6057 71.4555 59.7136H70.8358L69.1315 59.5585C66.9652 59.4034 64.7906 59.4034 62.6243 59.5585C59.2321 59.8022 55.8925 60.5337 52.7085 61.7305C44.9956 64.4611 38.3411 69.5613 33.6947 76.3035C29.0483 83.0456 26.6473 91.085 26.8345 99.2745C26.9894 105.946 28.6937 112.772 29.9332 119.908C30.5307 123.626 30.7385 127.395 30.5529 131.156C30.3641 135.045 29.3611 138.85 27.6091 142.326C25.9049 145.894 22.8062 148.532 20.6371 151.324C18.4195 154.239 16.9319 157.644 16.299 161.253C15.3384 168.132 15.9746 175.14 18.1582 181.732C20.0174 188.093 22.1865 194.143 23.271 200.038C23.9192 202.886 24.1798 205.809 24.0457 208.726C23.9513 211.468 23.0333 214.117 21.4118 216.328C19.8833 218.301 17.6723 219.63 15.2144 220.052C14.1191 220.271 12.9854 220.201 11.9256 219.847C10.8658 219.494 9.91662 218.869 9.17206 218.035C7.92454 216.602 7.1648 214.809 7.00295 212.915C6.69295 211.327 6.69295 209.694 7.00295 208.106C7.1165 207.461 7.36952 206.85 7.74423 206.314C8.11895 205.778 8.60631 205.33 9.17206 205.003C9.6014 204.787 10.0705 204.662 10.5503 204.635C11.0301 204.608 11.5102 204.681 11.9609 204.848C12.24 204.914 12.4988 205.048 12.7147 205.237C12.9307 205.427 13.0974 205.666 13.2003 205.934V206.011Z" fill="#263238"/>
<path d="M174.332 325.16C174.332 325.16 164.416 273.963 123.513 233.782L114.682 208.804L112.823 203.529L111.274 199.03C111.274 199.03 96.09 202.288 93.766 209.114C92.1553 214.592 91.015 220.197 90.3575 225.869C90.3575 225.869 36.7503 236.264 28.6937 246.658C20.6372 257.053 64.4835 446.945 64.4835 446.945C64.4835 446.945 31.7924 522.033 28.229 548.097C25.7521 565.368 24.355 582.778 24.0457 600.224H177.121C177.121 584.09 183.318 443.532 183.318 443.532L174.332 325.16Z" stroke="#455A64" stroke-miterlimit="10"/>
<g opacity="0.3">
<path d="M99.1887 250.072C100.567 254.948 103.183 259.384 106.781 262.948C106.478 260.559 106.891 258.133 107.966 255.979C109.042 253.825 110.732 252.039 112.823 250.847C117.073 248.508 122.008 247.739 126.767 248.675C131.472 249.634 136.049 251.144 140.401 253.174C136.531 247.723 132.175 242.634 127.387 237.971C125.528 236.109 125.218 235.023 122.739 234.092C119.02 235.643 115.302 237.505 111.583 239.367C106.809 242.112 102.602 245.746 99.1887 250.072Z" fill="black"/>
</g>
<path d="M123.358 233.782C120.432 234.69 117.582 235.832 114.837 237.195C111.892 238.73 109.136 240.604 106.626 242.78C103.549 245.418 100.885 248.503 98.7239 251.933C98.2591 252.709 97.7943 253.485 97.3295 254.105L97.0196 254.726L96.7098 254.105C93.1517 248.15 90.9805 241.469 90.3575 234.557C90.2025 232.492 90.2025 230.417 90.3575 228.352C90.3575 227.576 90.5124 227.111 90.5124 226.645C90.4864 226.426 90.5415 226.206 90.6673 226.025V228.197C90.6673 230.213 90.8223 232.23 90.9772 234.247C91.7286 241.056 93.949 247.62 97.4845 253.485H96.8647C97.3295 252.864 97.7943 252.088 98.2591 251.313C100.569 247.856 103.33 244.726 106.471 242.004C109.09 239.825 111.949 237.951 114.992 236.419C117.047 235.483 119.171 234.705 121.344 234.092C121.973 233.974 122.594 233.819 123.203 233.627C123.049 233.782 123.203 233.782 123.358 233.782Z" fill="#263238"/>
<path d="M161.627 361.928C161.472 361.463 161.472 360.997 161.317 360.532C161.162 359.601 161.007 358.36 160.698 356.653C160.543 355.878 160.388 354.947 160.233 353.861C160.078 352.775 159.768 351.689 159.613 350.603C159.148 348.276 158.683 345.638 157.909 342.691C154.174 327.385 149.252 312.394 143.19 297.855C139.627 289.322 135.908 281.41 132.345 274.274C128.781 267.137 125.218 260.931 122.119 255.657C119.02 250.382 116.232 246.348 114.372 243.711L112.048 240.608C111.738 240.298 111.583 239.832 111.274 239.522C111.621 239.85 111.933 240.214 112.203 240.608L114.682 243.711C116.696 246.503 119.485 250.537 122.739 255.657C126.509 261.684 129.973 267.897 133.119 274.274C136.683 281.41 140.556 289.477 144.12 298.01C150.27 312.555 155.143 327.609 158.683 343.001C159.458 345.949 159.768 348.586 160.233 351.068C160.388 352.309 160.698 353.395 160.852 354.326C161.007 355.257 161.007 356.343 161.162 357.119C161.317 358.67 161.472 360.066 161.627 360.997V361.928Z" fill="#263238"/>
<path d="M103.992 489.919C103.82 490.113 103.664 490.32 103.527 490.54L102.132 492.246L97.0196 498.297C92.6815 503.416 86.9489 510.398 80.7516 518.465C74.5542 526.532 69.2865 533.979 65.5681 539.409C63.7089 542.046 62.1595 544.218 61.075 545.925L59.8355 547.632C59.6806 547.787 59.5256 548.097 59.3707 548.252L59.6806 547.632L60.7651 545.77C61.6947 544.218 63.244 541.891 65.1032 539.254C68.8217 533.669 74.0894 526.222 80.1319 518.155C86.1743 510.088 92.2167 503.106 96.5549 498.142C98.7239 495.659 100.583 493.643 101.823 492.246L103.372 490.695C103.564 490.425 103.771 490.166 103.992 489.919Z" fill="#263238"/>
<path d="M118.555 504.347C118.401 504.657 118.246 504.813 118.091 505.123L116.541 507.14C115.147 508.846 113.288 511.329 110.654 514.276C105.696 520.172 98.414 528.239 90.0476 536.461C81.6812 544.684 73.4697 551.975 67.4272 556.94L67.2723 557.095L67.1174 556.94L60.6102 550.734L58.9059 549.028L58.2862 548.407C58.5194 548.523 58.7293 548.681 58.9059 548.873L60.7651 550.424L67.4272 556.474H67.1174C73.0049 551.51 81.0614 544.218 89.4279 535.841C97.7943 527.463 105.076 519.706 110.189 513.811L116.231 506.829L117.781 504.968C117.999 504.715 118.262 504.505 118.555 504.347Z" fill="#263238"/>
<path d="M117.781 503.727C115.201 501.454 112.769 499.018 110.499 496.435C108.07 493.981 105.842 491.335 103.837 488.523C106.416 490.796 108.849 493.231 111.119 495.815C113.548 498.269 115.776 500.914 117.781 503.727Z" fill="#263238"/>
<g opacity="0.3">
<path d="M179.445 412.814C177.74 410.332 174.332 409.866 171.233 409.866C158.838 409.866 146.908 414.521 136.218 420.881C125.528 427.242 116.231 435.465 106.935 443.687C103.992 446.325 100.738 449.738 101.358 453.616C101.823 456.254 103.837 454.237 104.611 456.719C105.541 459.822 109.569 468.044 109.569 468.044C107.555 470.527 97.0197 480.3 94.2308 481.697C78.7374 489.454 63.7089 492.246 48.9901 485.42L47.1309 488.678C53.948 497.676 62.4693 497.986 73.6246 497.521C84.7798 497.056 95.4703 492.401 105.231 486.816C111.738 483.093 118.555 477.818 119.33 470.216C119.64 466.958 118.71 463.39 119.33 460.132C120.725 452.685 128.781 448.962 135.443 445.394C146.28 439.627 155.701 431.519 163.022 421.657C166.895 422.743 171.078 423.829 174.951 422.433C178.825 421.037 181.614 416.227 179.445 412.814Z" fill="black"/>
</g>
<path d="M176.346 351.534C176.218 351.08 176.166 350.608 176.191 350.137C176.036 349.206 176.036 347.965 175.881 346.259C175.571 343.001 174.951 338.191 174.177 332.296C173.118 325.393 171.67 318.556 169.839 311.817C168.909 307.939 167.515 304.06 166.12 300.027L163.641 293.976C162.867 291.959 161.937 289.943 161.007 287.771C157.428 279.98 153.286 272.462 148.613 265.275C146.444 262.017 144.275 258.914 142.105 256.122L139.007 252.088C137.922 250.847 136.993 249.606 136.063 248.52C134.204 246.193 132.345 244.176 130.795 242.314C129.246 240.453 127.852 239.056 126.767 237.815L124.288 235.023C123.941 234.695 123.629 234.331 123.358 233.937L124.288 234.868L126.922 237.66C128.161 238.901 129.556 240.298 131.105 242.159C132.654 244.021 134.514 245.883 136.373 248.21L139.317 251.778L142.415 255.812C144.584 258.604 146.753 261.707 148.923 264.965C153.595 272.151 157.738 279.67 161.317 287.46C162.247 289.632 163.176 291.649 163.951 293.666C164.726 295.683 165.5 297.855 166.275 299.872C167.67 303.905 169.064 307.939 169.994 311.817C171.825 318.608 173.273 325.497 174.332 332.451C175.063 337.127 175.529 341.84 175.726 346.569C175.844 347.858 175.895 349.153 175.881 350.448C176.346 350.603 176.346 351.068 176.346 351.534Z" fill="#263238"/>
<path d="M157.754 600.224V599.759C157.744 599.289 157.796 598.819 157.909 598.363C158.064 597.121 158.219 595.26 158.528 592.933C158.838 590.606 159.148 587.658 159.458 584.4C159.768 581.142 160.233 577.263 160.698 573.075C161.627 564.697 162.402 554.768 163.176 543.753C163.951 532.738 164.571 520.482 164.881 507.605C165.191 494.729 165.191 482.628 165.036 471.457C164.881 460.287 164.416 450.358 163.951 441.981C163.796 437.792 163.486 434.068 163.331 430.655C163.176 427.242 162.867 424.45 162.712 422.123C162.557 419.796 162.402 418.089 162.402 416.693C162.447 416.222 162.394 415.746 162.247 415.296V414.831C162.237 414.915 162.245 415.001 162.272 415.081C162.299 415.162 162.343 415.235 162.402 415.296C162.402 415.607 162.557 416.072 162.557 416.693C162.712 417.934 162.867 419.796 163.022 422.123C163.176 424.45 163.486 427.397 163.796 430.655C164.106 433.913 164.416 437.792 164.571 441.981C165.036 450.358 165.5 460.442 165.81 471.457C166.12 482.472 166.12 494.729 165.81 507.605C165.5 520.482 164.881 532.583 164.106 543.753C163.331 554.923 162.402 564.852 161.472 573.23C161.007 577.419 160.543 581.142 160.078 584.555C159.613 587.968 159.303 590.761 158.993 593.088C158.683 595.415 158.373 597.121 158.219 598.518L158.064 599.914C157.754 599.914 157.754 600.069 157.754 600.224Z" fill="#263238"/>
<path d="M227.784 221.836C227.784 221.836 242.813 220.129 259.081 242.159C275.349 264.189 294.251 334.158 295.18 360.221C296.11 386.285 303.082 427.553 284.49 439.654C265.898 451.755 253.813 450.979 244.052 444.618C234.291 438.257 228.559 417.468 228.559 417.468L227.784 221.836Z" stroke="#455A64" stroke-miterlimit="10"/>
<path d="M217.713 600.224C201.29 563.146 196.642 535.22 192.924 489.144C189.205 443.067 179.754 345.793 177.74 344.707C176.191 343.932 173.247 310.266 171.698 292.425C171.12 285.22 172.289 277.981 175.106 271.326C178.515 263.414 182.853 253.64 183.473 253.019C184.402 252.088 189.98 230.679 189.98 230.679L190.6 203.219L206.713 217.957L227.784 221.991L248.08 449.272C248.08 449.272 275.194 518.465 279.842 541.581C284.49 564.697 281.236 600.224 281.236 600.224" stroke="#455A64" stroke-miterlimit="10"/>
<g opacity="0.3">
<path d="M241.728 424.76C237.235 418.554 232.432 412.194 226.08 407.694C219.727 403.195 211.516 400.868 204.234 403.506C197.417 405.988 192.769 412.349 186.107 415.296L187.036 422.898C190.755 426.777 196.177 427.397 201.445 426.001C206.248 424.76 210.741 421.037 215.699 421.502C220.657 421.967 224.375 425.846 229.023 426.466C231.192 426.777 233.671 426.156 235.686 427.242C236.831 427.929 237.919 428.707 238.939 429.569C239.492 429.95 240.154 430.141 240.824 430.113C241.495 430.085 242.138 429.84 242.658 429.414C243.587 427.863 242.658 426.001 241.728 424.76Z" fill="black"/>
</g>
<path d="M206.868 217.802C207.04 217.996 207.195 218.203 207.333 218.423C207.643 218.888 208.107 219.509 208.572 220.284C210.165 222.624 211.614 225.059 212.91 227.576C217.517 236.396 220.557 245.95 221.896 255.812L222.051 256.587L221.432 256.277C211.419 251.315 199.89 250.371 189.205 253.64L189.515 253.174C190.91 257.363 192.304 261.397 193.544 265.275L193.698 265.586L193.389 265.741C188.753 267.6 184.653 270.586 181.459 274.429C178.972 277.397 176.984 280.751 175.571 284.358C174.605 286.731 174.029 289.246 173.867 291.804C173.712 293.511 173.712 294.442 173.557 294.442V291.649C173.759 289.112 174.28 286.61 175.106 284.202C176.393 280.442 178.392 276.965 180.994 273.963C184.275 270.07 188.411 266.991 193.079 264.965L192.924 265.43C191.684 261.552 190.29 257.673 188.896 253.485L188.741 253.174L189.05 253.019C193.066 251.784 197.244 251.156 201.445 251.158C208.556 251.032 215.585 252.685 221.896 255.967L221.277 256.277C220.022 246.486 217.087 236.986 212.6 228.197C210.896 224.939 209.502 222.456 208.417 220.75L207.178 218.888C207.192 218.502 207.084 218.122 206.868 217.802Z" fill="#263238"/>
<path d="M198.192 325.625C197.63 323.976 196.484 322.591 194.97 321.733C193.456 320.875 191.681 320.604 189.98 320.971L188.121 321.746C187.311 322.189 186.599 322.789 186.026 323.513C185.452 324.237 185.031 325.068 184.785 325.958C184.539 326.848 184.475 327.779 184.595 328.694C184.716 329.61 185.019 330.492 185.487 331.288C185.929 332.088 186.525 332.792 187.242 333.359C187.958 333.926 188.781 334.344 189.66 334.59C190.54 334.835 191.46 334.903 192.366 334.789C193.272 334.675 194.146 334.381 194.938 333.925C196.303 333.099 197.361 331.848 197.948 330.363C198.536 328.878 198.621 327.241 198.192 325.703V325.625Z" fill="#EBEBEB"/>
<path d="M198.192 325.625C198.299 325.756 198.354 325.922 198.346 326.091C198.501 326.556 198.501 326.866 198.656 327.332C198.8 328.932 198.36 330.531 197.417 331.831C196.789 332.794 195.938 333.592 194.938 334.158C193.81 334.8 192.51 335.071 191.22 334.934C189.79 334.775 188.413 334.298 187.191 333.537C185.932 332.616 185.008 331.309 184.557 329.814C184.104 328.214 184.193 326.51 184.81 324.966C185.426 323.422 186.536 322.127 187.966 321.281L189.825 320.505C191.284 320.196 192.803 320.359 194.163 320.971C195.22 321.37 196.136 322.071 196.797 322.988C197.216 323.573 197.579 324.196 197.882 324.849C197.968 325.114 198.072 325.373 198.192 325.625C197.674 324.813 197.105 324.036 196.487 323.298C195.777 322.505 194.867 321.915 193.853 321.591C192.569 321.098 191.169 320.991 189.825 321.281L187.966 322.057C186.762 322.87 185.845 324.042 185.345 325.407C184.844 326.771 184.785 328.259 185.177 329.659C185.602 330.909 186.389 332.004 187.437 332.806C188.485 333.607 189.748 334.077 191.065 334.158C192.143 334.244 193.226 334.046 194.204 333.583C195.183 333.121 196.023 332.409 196.642 331.52C197.559 330.318 198.049 328.844 198.037 327.332C198.224 326.783 198.277 326.198 198.192 325.625Z" fill="#263238"/>
<path d="M209.037 438.568C208.476 436.919 207.329 435.534 205.816 434.676C204.302 433.818 202.526 433.546 200.825 433.913L198.966 434.689C198.17 435.135 197.47 435.734 196.906 436.451C196.342 437.169 195.926 437.992 195.681 438.872C195.436 439.751 195.367 440.671 195.479 441.577C195.591 442.484 195.881 443.359 196.332 444.153C196.777 444.95 197.375 445.651 198.092 446.216C198.809 446.78 199.631 447.197 200.509 447.442C201.388 447.688 202.306 447.756 203.211 447.644C204.117 447.532 204.991 447.242 205.783 446.79C207.16 445.975 208.227 444.725 208.816 443.237C209.405 441.748 209.483 440.105 209.037 438.568Z" fill="#EBEBEB"/>
<path d="M209.037 438.567C209.144 438.698 209.2 438.864 209.192 439.033C209.319 439.434 209.372 439.854 209.347 440.274C209.491 441.875 209.051 443.473 208.107 444.773C207.479 445.736 206.629 446.535 205.628 447.1C204.501 447.742 203.2 448.013 201.91 447.876C200.48 447.717 199.104 447.24 197.882 446.48C196.623 445.558 195.698 444.251 195.248 442.756C194.795 441.157 194.883 439.452 195.5 437.908C196.117 436.365 197.227 435.069 198.656 434.224L200.516 433.448C201.974 433.139 203.493 433.302 204.854 433.913C205.91 434.312 206.827 435.013 207.488 435.93C207.906 436.516 208.269 437.139 208.572 437.792C208.692 438.07 208.848 438.331 209.037 438.567C208.52 437.756 207.951 436.978 207.333 436.24C206.622 435.447 205.713 434.858 204.699 434.534C203.415 434.041 202.015 433.933 200.67 434.224L199.121 434.999C197.859 435.8 196.89 436.988 196.359 438.387C195.828 439.785 195.765 441.318 196.177 442.756C196.575 444.037 197.35 445.166 198.401 445.997C199.452 446.828 200.729 447.321 202.065 447.411C203.144 447.497 204.226 447.299 205.205 446.836C206.183 446.373 207.024 445.662 207.642 444.773C208.559 443.571 209.05 442.097 209.037 440.584C209.037 439.188 208.882 438.567 209.037 438.567Z" fill="#263238"/>
<path d="M216.164 514.897C215.603 513.248 214.456 511.863 212.943 511.005C211.429 510.147 209.653 509.876 207.952 510.243L206.093 511.018C205.294 511.461 204.591 512.058 204.025 512.776C203.458 513.493 203.04 514.316 202.795 515.197C202.55 516.078 202.482 516.999 202.597 517.907C202.711 518.814 203.004 519.689 203.459 520.482C203.901 521.282 204.498 521.986 205.214 522.553C205.931 523.12 206.753 523.539 207.633 523.784C208.512 524.03 209.432 524.097 210.338 523.983C211.244 523.869 212.119 523.575 212.91 523.119C214.301 522.319 215.38 521.07 215.97 519.577C216.561 518.084 216.629 516.434 216.164 514.897Z" fill="#EBEBEB"/>
<path d="M216.164 514.897C216.271 515.027 216.327 515.193 216.319 515.362C216.474 515.828 216.474 516.138 216.629 516.603C216.773 518.204 216.332 519.802 215.389 521.103C214.761 522.066 213.911 522.864 212.91 523.43C211.782 524.072 210.482 524.343 209.192 524.205C207.762 524.047 206.385 523.57 205.164 522.809C203.905 521.888 202.98 520.58 202.53 519.086C202.077 517.486 202.165 515.781 202.782 514.238C203.399 512.694 204.508 511.398 205.938 510.553L207.797 509.777C209.256 509.468 210.775 509.631 212.136 510.243C213.192 510.641 214.108 511.343 214.769 512.259C215.188 512.845 215.551 513.468 215.854 514.121C215.941 514.386 216.044 514.645 216.164 514.897C215.647 514.085 215.078 513.308 214.46 512.57C213.749 511.776 212.84 511.187 211.826 510.863C210.542 510.37 209.142 510.262 207.797 510.553L205.938 511.329C204.681 512.095 203.711 513.256 203.179 514.63C202.647 516.004 202.582 517.516 202.994 518.931C203.439 520.183 204.227 521.283 205.269 522.107C206.31 522.93 207.563 523.442 208.882 523.585C209.961 523.671 211.043 523.473 212.022 523.01C213 522.548 213.841 521.836 214.46 520.947C215.376 519.745 215.867 518.271 215.854 516.759C216.126 516.178 216.233 515.534 216.164 514.897Z" fill="#263238"/>
<path d="M260.165 340.596C260.036 339.775 259.985 338.944 260.01 338.114C259.855 336.562 259.7 334.235 259.391 331.288C258.468 323.876 256.913 316.558 254.742 309.413C252.622 302.269 250.034 295.272 246.996 288.469C245.756 285.831 244.827 283.815 244.052 282.263C243.611 281.547 243.296 280.76 243.122 279.936C243.626 280.605 244.042 281.334 244.362 282.108C245.137 283.504 246.221 285.521 247.461 288.159C250.666 294.928 253.36 301.929 255.517 309.103C257.734 316.272 259.188 323.657 259.855 331.132C260.084 333.4 260.188 335.679 260.165 337.959V340.596Z" fill="#263238"/>
<g opacity="0.3">
<path d="M172.472 301.268C175.106 286.84 190.91 275.204 205.628 275.204C205.164 272.412 204.699 269.464 204.079 266.672L218.643 272.567C220.967 265.43 217.093 257.208 210.741 253.174C204.389 249.141 196.332 251.468 189.05 253.174C190.29 258.139 191.839 260.311 193.079 265.12C180.064 268.223 171.388 288.236 172.472 301.268Z" fill="black"/>
</g>
<path d="M273.644 519.396L273.18 518.465C272.796 517.614 272.485 516.731 272.25 515.828L268.687 506.209L257.376 474.095C252.883 461.528 248.855 450.203 245.756 442.136C244.207 438.102 242.967 434.844 242.193 432.517L241.263 429.88C241.108 429.569 241.108 429.259 240.953 428.949L241.418 429.88C241.728 430.5 242.038 431.431 242.503 432.517C243.432 434.844 244.827 437.947 246.376 442.136C249.475 450.203 253.813 461.528 258.151 474.095C262.489 486.661 266.517 497.986 269.306 506.209C270.701 510.243 271.785 513.656 272.56 515.983C272.795 516.886 273.106 517.769 273.489 518.62C273.479 518.887 273.532 519.153 273.644 519.396Z" fill="#263238"/>
<path d="M253.193 600.224C253.038 599.914 252.728 599.449 252.573 599.138C252.264 598.363 251.644 597.277 251.024 595.88C249.63 593.088 247.77 588.899 245.446 583.934C240.798 573.695 234.911 559.422 229.333 543.443C223.756 527.463 219.418 512.415 216.784 501.555C215.389 496.125 214.305 491.781 213.685 488.678C213.375 487.282 213.065 486.041 212.91 485.11C212.783 484.709 212.73 484.288 212.755 483.869C212.949 484.254 213.055 484.678 213.065 485.11C213.22 486.041 213.685 487.127 213.995 488.523C214.77 491.626 215.854 495.97 217.403 501.244C220.347 512.104 224.53 526.843 230.263 542.977C235.995 559.112 241.728 573.385 246.221 583.624C248.39 588.744 250.249 592.933 251.489 595.725C252.109 597.121 252.573 598.207 252.883 598.983C252.931 599.409 253.035 599.826 253.193 600.224Z" fill="#263238"/>
<path d="M28.5389 246.813C28.5389 246.813 6.38325 263.879 2.0451 301.268C-2.29305 338.657 5.91845 386.906 5.91845 386.906L8.70734 419.951C8.70734 419.951 5.29872 437.792 12.1158 450.669C18.9329 463.545 12.1158 471.923 32.2572 478.128C52.3986 484.334 51.779 492.091 75.7937 488.213C99.8085 484.334 109.879 468.044 109.879 468.044L83.5404 408.625C83.5404 408.625 82.4559 401.644 69.5964 407.539L62.7792 321.436C62.7792 321.436 40.004 250.614 28.5389 246.813Z" stroke="#455A64" stroke-miterlimit="10"/>
<path d="M62.7793 321.436C62.799 321.956 62.8508 322.474 62.9343 322.988C63.0892 324.074 63.0891 325.47 63.2441 327.487C63.5539 331.365 64.0188 337.261 64.6385 344.707C65.878 359.601 67.5823 381.165 69.5964 407.695L69.1316 407.384C71.4978 406.285 73.9982 405.503 76.5684 405.057C77.9801 404.904 79.4081 405.063 80.7516 405.523C81.4452 405.782 82.0707 406.197 82.5807 406.734C83.0908 407.272 83.4719 407.918 83.6954 408.625L110.034 467.889L110.189 468.044L110.034 468.199C102.442 479.059 89.5829 486.196 75.6388 488.523C72.1024 489.115 68.5315 489.478 64.9484 489.609C61.3215 489.726 57.7024 489.2 54.2579 488.057C50.8494 486.661 47.5958 485.11 44.3422 483.403C41.1128 481.717 37.7432 480.316 34.2715 479.214C31.3277 478.284 28.5389 477.353 25.5951 476.112C22.8129 474.839 20.3709 472.925 18.4682 470.527C16.8916 467.911 15.8391 465.013 15.3695 461.994C14.8732 459.114 14.0411 456.302 12.8905 453.616C11.5961 450.997 10.458 448.303 9.48205 445.549C8.67661 442.757 8.10646 439.903 7.77772 437.016C7.15985 431.333 7.3162 425.592 8.24251 419.951V420.106C7.3129 408.729 6.38332 397.714 5.45371 387.061C2.20066 367.315 0.491222 347.344 0.340912 327.332C0.208855 318.936 0.622869 310.541 1.58036 302.199C2.35398 295.067 3.91279 288.043 6.22838 281.255C8.08364 275.734 10.5249 270.429 13.5103 265.43C15.6679 261.697 18.1569 258.167 20.9471 254.881C22.6514 252.864 24.5106 250.847 26.3698 248.985C26.9895 248.365 27.6093 247.899 27.9191 247.589C28.0957 247.398 28.3058 247.24 28.5389 247.124L28.0741 247.589C27.5862 248.085 27.0688 248.552 26.5248 248.985C24.6656 250.847 22.8064 252.864 21.1021 254.881C18.4465 258.288 16.0141 261.864 13.8202 265.586C10.9135 270.604 8.52541 275.906 6.69317 281.41C4.37757 288.198 2.81876 295.222 2.04515 302.354C1.16865 310.702 0.754876 319.093 0.805694 327.487C1.08513 347.448 2.84594 367.361 6.07349 387.061C7.00309 397.61 7.93268 408.625 8.86228 420.106V420.261C7.93397 425.798 7.77756 431.436 8.3975 437.016C8.66643 439.861 9.23772 442.67 10.1017 445.394C11.011 448.173 12.1512 450.872 13.5103 453.461C14.5702 456.232 15.3993 459.086 15.9892 461.994C16.4043 464.906 17.4058 467.703 18.933 470.216C20.7614 472.524 23.0934 474.381 25.7501 475.646C28.5295 476.842 31.3745 477.877 34.2715 478.749C37.7826 479.942 41.2004 481.394 44.4971 483.093C47.7507 484.799 51.0044 486.351 54.4129 487.747C61.23 490.074 68.5118 489.299 75.3289 488.213C82.0973 487.138 88.61 484.824 94.5407 481.386C97.4457 479.741 100.149 477.763 102.597 475.491C105.083 473.363 107.272 470.911 109.105 468.199V468.51L82.9207 409.091C82.7606 408.461 82.452 407.878 82.0207 407.392C81.5893 406.906 81.0479 406.531 80.4418 406.298C79.2076 405.83 77.8781 405.67 76.5684 405.833C74.0597 406.248 71.6131 406.977 69.2865 408.005L68.8217 408.16V407.695C66.8076 381.165 65.2582 359.756 64.0187 344.707C63.5539 337.261 63.0891 331.52 62.7793 327.487C62.6243 325.47 62.4694 324.074 62.4694 322.988C62.4311 322.452 62.5382 321.916 62.7793 321.436Z" fill="#263238"/>
<path d="M30.8629 439.654C30.8899 438.921 30.9938 438.193 31.1727 437.482C31.6288 435.62 32.251 433.802 33.0319 432.052C35.564 426.084 39.5611 420.854 44.6519 416.848C49.599 412.692 55.4278 409.72 61.6947 408.16C63.5678 407.674 65.4923 407.413 67.4272 407.384C68.1537 407.359 68.8809 407.411 69.5963 407.539C66.9814 407.713 64.3882 408.129 61.8496 408.781C55.7656 410.532 50.1174 413.545 45.2717 417.624C40.2852 421.543 36.302 426.595 33.6516 432.362C32.5288 434.714 31.5962 437.152 30.8629 439.654Z" fill="#263238"/>
<path d="M80.1318 480.766C79.822 480.611 79.5121 480.611 79.3572 480.455C78.5825 479.99 77.8078 479.68 77.0331 479.214C74.3642 477.448 71.919 475.365 69.7512 473.009C66.5774 469.47 63.9174 465.5 61.8496 461.218C59.3301 455.972 57.257 450.523 55.6523 444.928C53.7931 439.033 52.2437 433.293 52.5536 427.863C52.6725 425.263 53.3601 422.721 54.5677 420.416C55.6517 418.477 57.0677 416.744 58.751 415.296C61.1454 413.161 63.6818 411.192 66.3427 409.401C67.2723 408.78 68.047 408.315 68.5118 408.005C68.9766 407.694 68.9766 407.694 69.2864 407.539C69.0601 407.783 68.7991 407.992 68.5118 408.16L66.3427 409.711C63.6931 411.508 61.2048 413.533 58.9059 415.762C57.35 417.289 55.9962 419.009 54.8776 420.881C53.7917 423.058 53.1591 425.434 53.0184 427.863C52.7085 433.138 54.2579 438.878 56.1171 444.618C57.738 450.136 59.7575 455.528 62.1595 460.753C64.2116 464.972 66.7603 468.93 69.7512 472.543C71.8478 474.901 74.1845 477.033 76.7233 478.904C79.2022 480.223 80.2868 480.611 80.1318 480.766Z" fill="#263238"/>
<path d="M25.1303 271.791C25.7361 272.265 26.3057 272.784 26.8345 273.343C27.9191 274.274 29.4685 275.67 31.3277 277.376C35.201 280.789 40.7787 284.978 46.6662 290.253C51.7163 294.721 55.8249 300.154 58.751 306.233C59.5101 308.098 60.1315 310.016 60.6102 311.973C60.7652 312.438 60.7651 313.059 60.92 313.679V314.3C60.2757 311.64 59.3943 309.044 58.2862 306.543C55.2089 300.649 51.118 295.345 46.2013 290.874C40.4687 285.599 34.8911 281.255 31.0178 277.842C29.4939 276.474 28.0457 275.024 26.6796 273.498C26.0078 273.093 25.4691 272.499 25.1303 271.791Z" fill="#263238"/>
<g opacity="0.3">
<path d="M72.6951 475.646C67.0517 470.44 62.7465 463.947 60.1454 456.719C57.34 449.87 55.0611 442.816 53.3283 435.62L53.0184 435.775C51.0043 445.239 55.1875 454.237 58.2862 463.39C59.3853 467.17 61.1139 470.736 63.399 473.94C65.878 476.887 70.0612 478.904 73.7796 477.818C73.8143 477.391 73.7315 476.963 73.5403 476.58C73.3491 476.198 73.0568 475.874 72.6951 475.646Z" fill="black"/>
</g>
<path d="M83.2305 408.858L154.5 368.056L159.613 414.598L104.766 456.642C104.766 456.642 100.893 447.643 95.0055 435.542C92.6815 427.475 86.1743 417.624 83.2305 408.858Z" stroke="#455A64" stroke-miterlimit="10"/>
<path d="M203.614 368.289L236.15 342.07C237.293 341.155 238.716 340.662 240.179 340.674L285.729 340.829C286.167 340.817 286.603 340.891 287.012 341.049C287.421 341.206 287.795 341.443 288.112 341.746C288.429 342.049 288.683 342.412 288.859 342.814C289.035 343.215 289.13 343.648 289.138 344.087C289.278 344.978 289.212 345.889 288.943 346.751C288.674 347.612 288.211 348.399 287.588 349.051L218.488 406.143L163.176 401.954L203.614 368.289Z" fill="#E0E0E0"/>
<path d="M154.5 367.979C154.5 367.979 172.008 352.62 176.346 351.534C180.684 350.448 200.361 348.896 200.361 348.896L217.713 356.964L208.107 364.721C200.825 363.79 198.656 361.152 198.656 361.152L187.191 362.859L154.5 367.979Z" stroke="#455A64" stroke-miterlimit="10"/>
<path d="M174.951 360.221L205.318 367.978L248.08 370.461C248.08 370.461 249.01 378.993 240.488 380.7C235.376 381.631 226.544 383.027 226.544 383.027C226.544 383.027 224.995 390.939 218.643 393.266C218.643 393.266 216.164 399.007 212.91 401.334C212.549 401.632 212.125 401.844 211.671 401.954C207.642 403.506 200.516 415.141 195.248 417.158C189.98 419.175 159.768 414.521 159.768 414.521L154.655 367.978L174.951 360.221Z" stroke="#455A64" stroke-miterlimit="10"/>
<path d="M185.642 383.648C185.642 383.493 187.966 383.958 191.839 384.423C196.828 384.995 201.847 385.254 206.868 385.199C211.847 385.094 216.814 384.679 221.742 383.958C223.783 383.503 225.854 383.192 227.939 383.027C227.451 383.3 226.931 383.509 226.39 383.648C225.305 383.958 223.911 384.268 221.896 384.734C216.935 385.642 211.91 386.16 206.868 386.285C201.84 386.444 196.809 386.132 191.839 385.354C189.98 385.044 188.431 384.734 187.346 384.579C186.87 384.124 186.282 383.803 185.642 383.648Z" fill="#455A64"/>
<path d="M192.304 395.283C192.459 396.26 192.459 397.254 192.304 398.231C192.164 399.337 191.676 400.369 190.91 401.179C189.916 402.156 188.584 402.712 187.191 402.73C185.864 402.711 184.551 402.448 183.318 401.954C182.233 401.489 181.304 401.023 180.374 400.558C179.471 400.2 178.591 399.785 177.74 399.317C178.756 399.298 179.762 399.51 180.684 399.937C182.693 401.022 184.913 401.657 187.191 401.799C188.389 401.789 189.544 401.348 190.445 400.558C191.059 399.767 191.531 398.874 191.839 397.921C191.843 397.021 192 396.129 192.304 395.283Z" fill="#455A64"/>
<path d="M214.305 396.447C213.335 396.969 212.289 397.335 211.206 397.533C208.604 398.199 205.965 398.717 203.304 399.084C200.688 399.496 198.049 399.755 195.403 399.86C194.319 400.04 193.21 399.987 192.149 399.705C192.149 399.394 197.107 399.239 203.304 398.153C209.502 397.067 214.15 396.059 214.305 396.447Z" fill="#455A64"/>
<path d="M192.924 410.409C191.717 411.763 190.07 412.642 188.276 412.892C186.556 413.458 184.692 413.403 183.008 412.737C183.008 412.581 185.332 412.737 188.121 412.116C189.751 411.632 191.354 411.063 192.924 410.409Z" fill="#455A64"/>
<path d="M203.459 408.936C202.519 409.523 201.461 409.894 200.361 410.022C199.31 410.356 198.201 410.461 197.107 410.332C198.047 409.745 199.105 409.374 200.206 409.246C201.256 408.912 202.365 408.806 203.459 408.936Z" fill="#455A64"/>
<path d="M205.164 367.979C205.009 368.289 198.656 366.737 191.065 364.565C187.191 363.479 183.783 362.238 181.149 361.463C179.754 361.027 178.404 360.455 177.121 359.756C178.533 360.045 179.929 360.408 181.304 360.842L191.22 363.79L201.135 366.737C202.525 366.979 203.878 367.396 205.164 367.979Z" fill="#784D48"/>
<path d="M249.32 374.96C249.32 374.96 245.911 374.029 249.01 368.599C252.109 363.169 262.489 368.599 262.489 368.599L275.659 375.115C275.659 375.115 279.067 381.476 275.659 383.493L273.335 386.906C273.335 386.906 278.602 391.405 277.053 396.059C276.514 397.343 275.61 398.44 274.453 399.212C273.295 399.985 271.937 400.399 270.546 400.403C270.546 400.403 271.785 409.246 269.306 412.814C268.145 414.767 266.335 416.25 264.193 417.003C263.423 419.393 262.114 421.573 260.367 423.375C258.621 425.177 256.485 426.554 254.123 427.397C245.911 430.19 241.418 430.811 238.784 427.397C237.049 424.958 235.544 422.361 234.291 419.64C234.291 419.64 215.389 411.573 214.615 406.764C213.84 401.954 214.615 401.489 214.615 401.489C214.615 401.489 212.755 397.61 214.46 394.508C216.164 391.405 223.446 393.422 223.446 393.422L246.996 396.99C246.996 396.99 227.784 389.853 225.305 387.216C222.826 384.579 224.995 380.855 232.432 381.165C239.869 381.476 262.644 383.803 262.644 383.803C261.955 382.699 260.995 381.791 259.855 381.165C258.306 380.7 253.503 378.373 253.503 378.373L249.32 374.96Z" stroke="#455A64" stroke-miterlimit="10"/>
<path d="M257.686 409.556C257.686 409.711 248.08 408.16 236.305 405.988C224.53 403.816 215.079 401.799 215.079 401.644C215.079 401.489 224.685 403.04 236.46 405.212C248.235 407.384 257.841 409.401 257.686 409.556Z" fill="#455A64"/>
<path d="M247.77 423.209C245.403 423.098 243.059 422.68 240.798 421.968C239.174 421.586 237.571 421.12 235.995 420.571C235.504 420.43 235.035 420.221 234.601 419.951C234.521 419.944 234.446 419.909 234.39 419.852C234.333 419.795 234.298 419.72 234.291 419.641C234.136 419.485 234.291 419.485 234.291 419.485C234.291 419.485 237.235 420.261 240.953 421.192C243.289 421.627 245.573 422.303 247.77 423.209Z" fill="#455A64"/>
<path d="M265.743 398.696C265.743 398.851 261.095 398.386 255.517 397.921C249.94 397.455 245.292 397.3 245.292 396.99C248.747 396.653 252.229 396.705 255.672 397.145C259.075 397.293 262.452 397.813 265.743 398.696Z" fill="#455A64"/>
<path d="M270.391 386.285C270.236 386.44 268.377 385.354 265.743 384.734C263.109 384.113 260.94 383.958 260.94 383.803C262.617 383.31 264.408 383.365 266.053 383.958C267.719 384.224 269.247 385.044 270.391 386.285Z" fill="#455A64"/>
<path d="M287.124 344.707H286.194L283.715 344.552C281.546 344.397 278.602 344.242 274.729 344.242C267.137 344.087 256.757 343.932 245.292 344.707C242.503 344.862 239.559 344.862 237.39 346.259C236.291 347 235.254 347.83 234.291 348.741L231.347 351.223L221.122 359.756L214.15 365.496L212.291 367.048C211.826 367.358 211.671 367.513 211.516 367.513C211.671 367.358 211.826 367.048 212.136 366.892L213.995 365.186L220.812 359.291L230.883 350.603L233.826 348.12C234.813 347.172 235.905 346.339 237.08 345.638C238.302 344.877 239.678 344.4 241.108 344.242C242.547 344.056 243.996 343.952 245.446 343.932C255.3 343.337 265.179 343.285 275.039 343.776C278.757 343.932 281.856 344.242 284.025 344.397L286.504 344.707C286.659 344.552 286.814 344.707 287.124 344.707Z" fill="#263238"/>
<path d="M259.236 351.068C258.954 350.745 258.582 350.513 258.168 350.403C257.754 350.292 257.317 350.308 256.912 350.448H257.066L256.757 350.603H256.602C255.95 350.813 255.364 351.187 254.897 351.689C254.655 352.036 254.538 352.456 254.566 352.88C254.594 353.303 254.766 353.704 255.052 354.016C255.39 354.326 255.834 354.493 256.292 354.481C256.773 354.554 257.265 354.507 257.725 354.345C258.184 354.182 258.596 353.91 258.926 353.55C259.7 353.085 259.7 351.999 259.236 351.068Z" fill="white"/>
</g>
<defs>
<clipPath id="clip0_24_384">
<rect width="298" height="601" fill="white"/>
</clipPath>
</defs>
</svg>
