<svg width="36" height="36" viewBox="0 0 36 36" fill="none" xmlns="http://www.w3.org/2000/svg">
<rect x="35.65" y="35.65" width="35.3" height="35.3" rx="8.65" transform="rotate(-180 35.65 35.65)" stroke="black" stroke-width="0.7"/>
<path d="M14.6464 17.6464C14.4512 17.8417 14.4512 18.1583 14.6464 18.3536L17.8284 21.5355C18.0237 21.7308 18.3403 21.7308 18.5355 21.5355C18.7308 21.3403 18.7308 21.0237 18.5355 20.8284L15.7071 18L18.5355 15.1716C18.7308 14.9763 18.7308 14.6597 18.5355 14.4645C18.3403 14.2692 18.0237 14.2692 17.8284 14.4645L14.6464 17.6464ZM16 17.5L15 17.5L15 18.5L16 18.5L16 17.5Z" fill="black"/>
</svg>
