<svg width="30" height="30" viewBox="0 0 30 30" fill="none" xmlns="http://www.w3.org/2000/svg">
<path d="M10.5542 12.2122C10.2718 12.1839 10.0035 12.0725 9.78181 11.8916C9.56012 11.7106 9.39451 11.4678 9.3051 11.1927C9.21568 10.9175 9.20627 10.6217 9.27802 10.3412C9.34976 10.0607 9.49958 9.80745 9.70931 9.61217C9.91905 9.41689 10.1797 9.28795 10.4597 9.24099C10.7397 9.19403 11.027 9.23103 11.2868 9.34755C11.5466 9.46407 11.7678 9.65511 11.9235 9.89748C12.0792 10.1399 12.1629 10.4231 12.1642 10.7131C12.1655 10.9246 12.1229 11.134 12.0393 11.3275C11.9558 11.521 11.8331 11.6942 11.6793 11.8358C11.5255 11.9774 11.3442 12.0842 11.1472 12.149C10.9502 12.2139 10.742 12.2354 10.5363 12.2122H10.5542Z" fill="black"/>
<path d="M11.9674 13.4004H9.14087V22.0841H11.9674V13.4004Z" fill="black"/>
<path d="M22.1644 22.0842H19.3379V17.4407C19.3379 16.2707 18.9264 15.4662 17.9067 15.4662C17.5873 15.4674 17.2763 15.5702 17.0166 15.7601C16.757 15.9501 16.5616 16.218 16.4577 16.5266C16.3718 16.7535 16.3352 16.9968 16.3503 17.2396V22.0842H13.5238C13.5238 22.0842 13.5238 14.2048 13.5238 13.4004H16.3503V14.6253C16.6098 14.1726 16.9851 13.8007 17.4358 13.5495C17.8865 13.2983 18.3956 13.1772 18.9086 13.1994C20.6975 13.1994 22.1644 14.4425 22.1644 17.0933V22.0842Z" fill="black"/>
<path d="M15.3306 0.457031C12.5213 0.457031 9.775 1.30836 7.43912 2.90335C5.10324 4.49833 3.28265 6.76534 2.20756 9.41771C1.13247 12.0701 0.851214 14.9887 1.39929 17.8044C1.94736 20.6201 3.30018 23.2065 5.28668 25.2366C7.27318 27.2666 9.80412 28.6491 12.5595 29.2092C15.3148 29.7693 18.1708 29.4818 20.7663 28.3832C23.3618 27.2845 25.5803 25.424 27.141 23.037C28.7018 20.6499 29.5348 17.8435 29.5348 14.9726C29.5301 11.1243 28.0321 7.43501 25.3693 4.71387C22.7065 1.99273 19.0964 0.461869 15.3306 0.457031V0.457031Z" stroke="black" stroke-width="1.5" stroke-miterlimit="10"/>
</svg>
