<svg width="52" height="50" viewBox="0 0 52 50" fill="none" xmlns="http://www.w3.org/2000/svg">
<path d="M0 9.63884C0.286244 9.26814 0.676821 9.1849 1.13695 9.1888C3.2771 9.20181 5.40788 9.1888 7.54401 9.2031C7.75738 9.21659 7.97139 9.18907 8.17381 9.12212C8.37624 9.05516 8.56311 8.95009 8.72377 8.81289C9.23607 8.37324 9.78582 7.97652 10.3289 7.56549C10.8131 7.19738 11.2652 7.20388 11.5581 7.57329C11.8511 7.9427 11.7481 8.33292 11.2786 8.69842C10.5763 9.24603 9.88747 9.81314 9.15447 10.3204C8.86185 10.5223 8.51625 10.6391 8.15796 10.6573C6.15158 10.6885 4.15456 10.6729 2.15219 10.6729H1.53555V22.3131C1.7295 22.3131 1.92078 22.3131 2.11339 22.3131C3.7185 22.3326 5.32361 22.3131 6.91535 22.3834C8.60472 22.4549 10.1844 22.9635 11.6879 23.7036C12.3567 24.0314 13.0255 24.354 13.7678 24.7091C13.9678 22.3081 14.6428 19.9673 15.7555 17.8152C15.2044 17.9661 14.7242 18.1391 14.228 18.221C13.4575 18.3511 12.679 18.4409 11.9005 18.4968C11.2639 18.541 10.9228 18.2653 10.9134 17.7944C10.904 17.3235 11.2371 17.0556 11.8684 17.0439C13.6621 17.0088 15.3368 16.6003 16.7828 15.5194C18.5002 14.233 19.4579 12.4835 19.9288 10.4661C20.1588 9.48926 20.429 9.32017 21.3827 9.65575C22.9798 10.219 24.5715 10.7965 26.174 11.3467C27.6881 11.867 29.2344 11.3363 30.0155 10.0226L27.0875 8.54364C25.4824 7.73068 23.8653 6.91383 22.2495 6.10738C19.3549 4.66357 16.5727 4.83527 13.9083 6.66669C13.42 7.00228 13.0027 6.98407 12.7192 6.61726C12.4356 6.25046 12.5439 5.82252 13.0134 5.49473C15.8384 3.52283 18.8734 3.17033 22.109 4.41123C22.2308 4.45805 22.3511 4.51269 22.5866 4.61154C22.3525 4.00541 22.1398 3.49031 21.9552 2.96482C21.4871 1.63418 22.2736 0.29703 23.6713 0.0368853C23.8691 0.0069464 24.0693 -0.00480668 24.2692 0.0017711C27.7069 0.0017711 31.144 0.0017711 34.5807 0.0017711C36.4708 0.0017711 37.4953 1.45078 36.8319 3.17944C36.4306 4.22002 36.02 5.2606 35.6013 6.34021C36.4493 6.66148 37.0646 7.17267 37.2853 8.03115C37.502 8.86491 37.2773 9.60113 36.6834 10.2697C37.0847 10.6027 37.486 10.9201 37.8605 11.2504C41.3797 14.328 43.8315 18.0285 44.8039 22.5798C45.1464 24.1823 45.2387 25.7926 44.8882 27.4094C44.4428 29.4632 43.3272 31.1034 41.5175 32.222C40.5437 32.8243 39.4482 33.2483 38.3862 33.7062C37.8779 33.9273 37.4833 33.74 37.3161 33.316C37.1489 32.8919 37.3602 32.5446 37.8766 32.3417C38.4624 32.1115 39.0643 31.9099 39.6288 31.6354C42.4123 30.2788 43.7004 28.0558 43.5894 25.0498C43.5038 22.7241 42.8283 20.5506 41.7609 18.4851C40.26 15.5901 38.0676 13.087 35.3672 11.1854C35.1524 11.0422 34.8999 10.9619 34.6396 10.9539C33.6391 10.9292 32.6332 10.9279 31.6367 10.9539C31.4025 10.969 31.1832 11.071 31.0241 11.2387C29.7159 12.7996 27.7416 13.394 25.7673 12.7567C24.8832 12.4705 24.0164 12.1297 23.1296 11.8462C23.028 11.817 22.9212 11.8092 22.8162 11.8233C22.7113 11.8374 22.6106 11.8732 22.521 11.9281C18.7089 15.0798 16.1006 18.9286 15.3769 23.8285C15.0693 25.9096 15.2592 27.9179 16.661 29.6492C17.7645 31.0137 19.28 31.7837 20.9413 32.3118C23.7342 33.2015 26.6261 33.4213 29.5367 33.3745C31.2836 33.3472 33.0278 33.1599 34.772 33.0246C35.3753 32.9778 35.7699 33.1807 35.8341 33.6463C35.8929 34.0795 35.5853 34.4034 35.0007 34.4762C30.3192 35.0615 25.6523 35.0875 21.0497 33.8831C19.4932 33.4984 18.0379 32.7985 16.7787 31.8292C15.191 30.5818 14.2494 28.9676 13.9043 27.0165C13.8601 26.7564 13.7999 26.3844 13.626 26.3011C12.0035 25.5207 10.4626 24.5257 8.66625 24.1471C7.65751 23.9393 6.63226 23.8162 5.60183 23.779C4.06895 23.7192 2.52537 23.7504 0.996507 23.7712C0.545739 23.7777 0.222045 23.6412 0.00535559 23.2652L0 9.63884ZM29.4872 1.45988H24.4351C23.4052 1.45988 23.1283 1.84099 23.4854 2.76061C23.7797 3.51763 24.074 4.27465 24.3682 5.03168C24.6357 5.70155 25.4945 6.29078 26.2409 6.29208C28.6927 6.29208 31.1445 6.29208 33.5976 6.29988C33.92 6.29988 34.0577 6.19322 34.1661 5.90186C34.5674 4.82096 35.0034 3.75176 35.4194 2.67606C35.727 1.88262 35.4194 1.45988 34.5406 1.45858C32.857 1.45771 31.1726 1.45815 29.4872 1.45988ZM28.9602 7.7645C29.0335 7.83116 29.1103 7.89411 29.1902 7.95311C29.9513 8.42397 30.9171 8.59046 31.4481 9.40472C31.4842 9.46065 31.63 9.46455 31.7236 9.46585C32.8071 9.46585 33.8905 9.47756 34.9726 9.46585C35.0899 9.47166 35.2071 9.45344 35.3167 9.4124C35.4263 9.37136 35.5258 9.3084 35.6087 9.2276C35.6917 9.14679 35.7563 9.04995 35.7983 8.94333C35.8404 8.83672 35.8589 8.7227 35.8528 8.60867C35.8575 8.49835 35.8386 8.38828 35.7975 8.28539C35.7563 8.18249 35.6936 8.08901 35.6135 8.01081C35.5333 7.93261 35.4374 7.8714 35.3317 7.83102C35.226 7.79065 35.1129 7.77198 34.9994 7.7762C33.0211 7.75539 31.0401 7.7645 28.9602 7.7645Z" fill="#BDBDBD"/>
<path d="M30.3365 49.851C29.2665 49.6897 28.1696 49.6325 27.1384 49.3476C25.2363 48.8195 23.3704 48.1692 21.4977 47.5461C21.4003 47.5176 21.3103 47.4692 21.2336 47.4042C21.157 47.3391 21.0955 47.259 21.0532 47.169C21.0109 47.079 20.9888 46.9813 20.9885 46.8824C20.9881 46.7834 21.0094 46.6856 21.051 46.5953C21.2061 46.2051 21.6195 46.0555 22.097 46.2207C23.4158 46.6772 24.712 47.1975 26.0496 47.5929C29.3066 48.5555 32.6038 48.5789 35.9477 47.9702C39.1901 47.3783 42.4444 46.845 45.6948 46.2896C45.8929 46.2644 46.0929 46.2549 46.2927 46.261C47.4256 46.261 48.5585 46.261 49.7263 46.261V39.9629C48.8488 39.9629 47.966 39.92 47.0899 39.9759C46.2753 40.0279 45.6185 39.7938 44.9644 39.3333C44.1164 38.7389 43.2363 38.1484 42.2893 37.7425C40.0702 36.7969 37.7669 36.7787 35.6093 37.8505C33.8705 38.7142 32.1089 39.0979 30.1827 38.9444C29.4499 38.9021 28.7152 38.9021 27.9824 38.9444C26.5498 38.9951 25.3741 40.2152 25.4476 41.6057C25.6336 41.6135 25.8249 41.6291 26.0175 41.6291C28.5535 41.6291 31.0896 41.6291 33.6257 41.6291C33.7929 41.6291 33.9601 41.6291 34.1259 41.6408C34.5566 41.6799 34.7947 41.9309 34.8268 42.3354C34.8603 42.7113 34.5486 43.0261 34.1206 43.0781C33.9872 43.0895 33.8532 43.0929 33.7193 43.0885C31.0655 43.0885 28.4104 43.1523 25.7606 43.0573C24.6999 43.0196 23.6432 42.6671 22.5999 42.407C19.5716 41.6343 16.5487 40.837 13.527 40.0409C12.8743 39.8692 12.2951 39.9421 11.8457 40.4624C11.4551 40.9137 11.3494 41.4652 11.6718 41.9543C11.9099 42.2976 12.2461 42.5658 12.6389 42.7256C14.6667 43.5061 16.7159 44.2397 18.757 44.9889C18.8814 45.0344 19.0085 45.0747 19.1302 45.1281C19.5903 45.3271 19.7763 45.703 19.6171 46.1075C19.4659 46.4977 19.0513 46.6551 18.5724 46.4808C16.3427 45.6679 14.1076 44.8666 11.8912 44.0186C11.1774 43.7605 10.5958 43.2411 10.2708 42.5714C9.94581 41.9017 9.90328 41.1349 10.1523 40.4351C10.6619 38.9717 12.2042 38.1965 13.816 38.614C16.937 39.4214 20.0581 40.2343 23.1791 41.0529C23.4011 41.1101 23.6259 41.1609 23.88 41.2207C24.0432 40.197 24.4404 39.3229 25.1975 38.6296C25.9813 37.9116 26.9043 37.4993 27.9877 37.4863C29.3053 37.4681 30.6241 37.4603 31.9416 37.4863C32.4881 37.4864 33.0283 37.3738 33.5267 37.1559C34.7372 36.6681 35.9477 36.1153 37.2158 35.837C39.6756 35.2933 42.015 35.7824 44.1806 37.0376C44.388 37.1427 44.5835 37.2687 44.7638 37.4135C45.7911 38.3461 46.9936 38.6674 48.3753 38.5139C49.0013 38.4436 49.642 38.4957 50.276 38.5035C50.9916 38.5126 51.2524 38.7636 51.2538 39.4387C51.2538 41.9049 51.2538 44.3715 51.2538 46.8385C51.2538 47.4694 50.9863 47.7204 50.3456 47.7308C50.0954 47.7308 49.844 47.7438 49.5952 47.7308C46.9588 47.5721 44.3786 47.9663 41.8037 48.4423C39.2623 48.9106 36.7128 49.2956 34.1661 49.7131C33.7902 49.7743 33.4103 49.8133 33.0318 49.8627L30.3365 49.851Z" fill="#BDBDBD"/>
<path d="M33.0252 23.4307C32.987 23.7464 32.883 24.0512 32.7195 24.3268C32.5561 24.6024 32.3366 24.843 32.0744 25.034C31.5124 25.417 30.8367 25.612 30.1499 25.5895C30.0225 25.5895 29.8983 25.5895 29.7791 25.5737L31.385 18.8836H31.3981C31.7834 19.0347 32.1213 19.2808 32.3783 19.5974C32.6529 19.9494 32.8224 20.3676 32.8684 20.8066H34.0855C34.0294 20.2006 33.8201 19.6174 33.4761 19.1083C33.1387 18.6229 32.6718 18.2351 32.1251 17.9862C31.9696 17.9142 31.8091 17.8528 31.6448 17.8026L32.0744 16.0142L30.8491 15.7388L30.4048 17.5937C30.2986 17.5937 30.1891 17.5858 30.078 17.5858C29.3866 17.5683 28.6999 17.7013 28.0686 17.9751C27.539 18.2116 27.0724 18.5625 26.7045 19.0007C26.3577 19.4219 26.0956 19.9024 25.9317 20.4172C25.7676 20.9211 25.6833 21.4462 25.6818 21.9746V22.2342C25.6864 22.7406 25.7684 23.2436 25.9252 23.7267C26.0902 24.2425 26.3504 24.7251 26.693 25.1511C27.0614 25.6084 27.5346 25.9763 28.0751 26.2258C28.1487 26.2606 28.2254 26.2938 28.3038 26.3255L27.8497 28.2089L29.075 28.4859L29.5259 26.6072C29.7332 26.6278 29.9415 26.6379 30.1499 26.6373C30.8804 26.6579 31.6053 26.5086 32.2639 26.202C32.8158 25.935 33.2857 25.5322 33.6264 25.034C33.9554 24.5475 34.166 23.9949 34.2423 23.4181L33.0252 23.4307ZM27.7092 24.5497C27.434 24.222 27.2271 23.8458 27.0998 23.4418C26.9641 23.0137 26.8964 22.5681 26.8989 22.1202C26.8946 21.6609 26.9624 21.2035 27.0998 20.7639C27.2247 20.3611 27.4276 19.9851 27.6977 19.656C27.9627 19.3357 28.3026 19.0812 28.6894 18.9137C29.1269 18.7285 29.6007 18.6378 30.078 18.6478H30.1483L28.562 25.235C28.2344 25.0624 27.9448 24.8296 27.7092 24.5497Z" fill="#BDBDBD"/>
</svg>
