<svg width="143" height="45" viewBox="0 0 143 45" fill="none" xmlns="http://www.w3.org/2000/svg">
<path d="M22.5 45C45 45 45 34.9264 45 22.5C45 10.0736 43.4288 0 22.5 0C0 0 0 10.0736 0 22.5C0 34.9264 0 45 22.5 45Z" fill="black"/>
<path d="M36.3686 17.0728L37.8808 16.5636L37.8002 15.4038L36.2328 15.1092C36.1689 14.7926 36.0849 14.4779 35.9785 14.1653L37.2057 13.1141L36.6947 12.0703L35.1147 12.3978C34.9146 12.0948 34.6965 11.8102 34.461 11.5445L35.1707 10.1124L34.2951 9.34971L32.9781 10.2529C32.7071 10.0725 32.4251 9.91055 32.1344 9.76651L32.2531 8.17023L31.155 7.79371L30.275 9.12861C29.9257 9.05681 29.5701 9.00996 29.2124 8.98851L28.7033 7.47235L27.5461 7.55291L27.2523 9.12467C26.9367 9.18816 26.6228 9.27309 26.3115 9.37948L25.2629 8.14965L24.2213 8.66102L24.5484 10.2459C24.2463 10.4456 23.9617 10.6653 23.6968 10.9009L22.2687 10.189L21.5073 11.0668L22.4092 12.3864C22.2293 12.6592 22.0673 12.9411 21.9232 13.2331L20.3309 13.1136L19.9557 14.2134L21.2875 15.0969C21.2166 15.4472 21.1689 15.8036 21.147 16.1621L19.6348 16.6722L19.7153 17.8324L21.2831 18.1266C21.3466 18.4432 21.4307 18.7584 21.5371 19.071L20.3103 20.1218L20.8204 21.1659L22.4009 20.8376C22.6001 21.1406 22.819 21.4251 23.055 21.6913L22.3453 23.123L23.22 23.8861L24.537 22.9829C24.8089 23.1633 25.0908 23.3253 25.3811 23.4697L25.2625 25.0656L26.3592 25.4417L27.241 24.1063C27.5903 24.1786 27.9454 24.2254 28.3035 24.2473L28.8123 25.7635L29.9694 25.6825L30.2632 24.1107C30.5793 24.0463 30.8937 23.9618 31.2045 23.8559L32.2531 25.0853L33.2946 24.573L32.9672 22.989C33.2693 22.7889 33.5538 22.5696 33.8183 22.3336L35.2469 23.0451L36.0074 22.1677L35.1063 20.8472C35.2858 20.5753 35.4487 20.2929 35.5914 20.0009L37.1838 20.1209L37.5599 19.0211L36.2276 18.1376C36.2994 17.7869 36.3458 17.4314 36.3681 17.0715M28.7576 19.4125C27.2173 19.4125 25.9682 18.1608 25.9682 16.6166C25.9682 15.0724 27.2173 13.8207 28.7576 13.8207C30.2978 13.8207 31.5464 15.0724 31.5464 16.6166C31.5464 18.1608 30.2974 19.4125 28.7576 19.4125Z" fill="#0B0C0C"/>
<path d="M23.4985 29.2043L25.0217 28.7284L24.9665 27.5668L23.4057 27.2376C23.3488 26.9197 23.2717 26.6028 23.1723 26.2884L24.4223 25.2644L23.9346 24.2097L22.3475 24.5026C22.154 24.1952 21.9421 23.9063 21.7126 23.6352L22.4534 22.2189L21.5949 21.437L20.2582 22.3109C19.9911 22.1243 19.7127 21.9562 19.4255 21.806L19.5796 20.2128L18.4903 19.8122L17.581 21.1274C17.2329 21.0482 16.8787 20.9935 16.5214 20.9637L16.046 19.4366L14.8875 19.4917L14.5591 21.0569C14.2422 21.1134 13.9265 21.1918 13.6126 21.2907L12.5916 20.0381L11.5391 20.5263L11.8311 22.1182C11.5246 22.3113 11.2357 22.5245 10.9651 22.7544L9.55315 22.0114L8.77253 22.8721L9.64509 24.2114C9.45902 24.4802 9.2909 24.7587 9.14073 25.0472L7.55145 24.8927L7.15216 25.9837L8.4643 26.8961C8.38593 27.245 8.33033 27.6001 8.30056 27.9583L6.77783 28.435L6.833 29.5966L8.39381 29.9254C8.45029 30.2432 8.52779 30.5602 8.62717 30.875L7.3772 31.8986L7.86406 32.9537L9.45158 32.66C9.64422 32.9673 9.85656 33.2567 10.0864 33.5277L9.34563 34.9436L10.2033 35.726L11.5395 34.8521C11.807 35.0386 12.0859 35.2067 12.3727 35.3574L12.219 36.9501L13.307 37.3503L14.2177 36.0347C14.5653 36.1143 14.9195 36.1691 15.2767 36.1988L15.7518 37.7255L16.9102 37.6703L17.2386 36.1056C17.556 36.0482 17.8721 35.9707 18.1856 35.8718L19.207 37.1239L20.26 36.6349L19.9675 35.0439C20.274 34.8504 20.5629 34.6376 20.8331 34.4073L22.2459 35.1503L23.0257 34.29L22.154 32.9502C22.3396 32.6823 22.5086 32.4034 22.6574 32.1149L24.2467 32.2699L24.6469 31.1788L23.3343 30.2664C23.4136 29.9175 23.4683 29.5628 23.4981 29.2038L23.4985 29.2043ZM20.105 28.3291H18.5175C18.4662 27.7932 18.2534 27.3037 17.9286 26.9101L19.052 25.7867C19.6597 26.4714 20.0476 27.3558 20.105 28.3286V28.3291ZM18.6943 25.4294L17.5709 26.5529C17.1773 26.228 16.6878 26.0157 16.1519 25.964V24.3765C17.1252 24.4343 18.0091 24.8217 18.6939 25.4294H18.6943ZM15.6467 24.3765V25.964C15.1108 26.0152 14.6213 26.228 14.2277 26.5529L13.1043 25.4294C13.789 24.8217 14.6734 24.4338 15.6462 24.3765H15.6467ZM12.747 25.7871L13.8705 26.9106C13.5456 27.3042 13.3328 27.7936 13.2816 28.3295H11.6941C11.7519 27.3563 12.1393 26.4723 12.747 25.7876V25.7871ZM11.6941 28.8348H13.2816C13.3328 29.3706 13.5456 29.8601 13.8705 30.2537L12.747 31.3772C12.1393 30.6924 11.7514 29.808 11.6941 28.8352V28.8348ZM15.6467 32.7874C14.6734 32.7296 13.7895 32.3421 13.1047 31.7344L14.2282 30.611C14.6218 30.9358 15.1112 31.1486 15.6471 31.1998V32.7874H15.6467ZM13.775 28.5817C13.775 27.4101 14.7281 26.457 15.8997 26.457C17.0713 26.457 18.0245 27.4101 18.0245 28.5817C18.0245 29.7533 17.0713 30.7064 15.8997 30.7064C14.7281 30.7064 13.775 29.7533 13.775 28.5817ZM16.1524 32.7874V31.1998C16.6883 31.1486 17.1777 30.9358 17.5713 30.611L18.6948 31.7344C18.01 32.3421 17.1256 32.73 16.1528 32.7874H16.1524ZM19.052 31.3767L17.9286 30.2533C18.2534 29.8597 18.4662 29.3702 18.5175 28.8343H20.105C20.0472 29.8076 19.6597 30.6915 19.052 31.3763V31.3767Z" fill="#0B0C0C"/>
<path d="M32.8814 30.9034L33.5981 30.6797L33.5723 30.1333L32.838 29.9783C32.8113 29.8286 32.775 29.6797 32.7281 29.5318L33.3161 29.0502L33.0867 28.5537L32.3398 28.6916C32.2487 28.5471 32.1489 28.4109 32.0412 28.2835L32.3897 27.6172L31.9856 27.2494L31.3569 27.6605C31.2312 27.573 31.1003 27.4937 30.965 27.4228L31.0373 26.6732L30.5246 26.4845L30.0969 27.1036C29.9331 27.0664 29.7663 27.0406 29.5982 27.0266L29.3745 26.3081L28.8294 26.3339L28.6748 27.0703C28.5255 27.0971 28.3771 27.1338 28.2296 27.1802L27.7493 26.5909L27.2541 26.8208L27.3916 27.5699C27.2475 27.6605 27.1114 27.7612 26.984 27.8694L26.3194 27.52L25.952 27.925L26.3627 28.555C26.2752 28.6815 26.1959 28.8124 26.1254 28.9481L25.3776 28.8755L25.1898 29.389L25.8071 29.8185C25.7704 29.9827 25.7441 30.1499 25.7301 30.3181L25.0134 30.5422L25.0392 31.0886L25.7734 31.2432C25.8001 31.3929 25.8365 31.5418 25.8833 31.6902L25.2953 32.1718L25.5243 32.6683L26.2712 32.5299C26.3618 32.6744 26.4617 32.8106 26.5698 32.9384L26.2213 33.6048L26.625 33.973L27.2537 33.5619C27.3798 33.6494 27.5107 33.7287 27.646 33.7996L27.5737 34.5491L28.0855 34.7374L28.5142 34.1183C28.6779 34.156 28.8443 34.1818 29.0124 34.1958L29.2361 34.9143L29.7812 34.8884L29.9357 34.152C30.085 34.1249 30.2339 34.0885 30.3814 34.0421L30.8622 34.6314L31.3573 34.4011L31.2199 33.6525C31.3643 33.5614 31.5001 33.4612 31.627 33.353L32.2916 33.7024L32.6585 33.2974L32.2483 32.667C32.3354 32.5409 32.4151 32.4095 32.4852 32.2738L33.2329 32.3465L33.4212 31.8329L32.8039 31.4034C32.8411 31.2392 32.8669 31.0724 32.8809 30.9034H32.8814Z" fill="#0B0C0C"/>
<path d="M28.6091 21.1997C28.0155 18.191 26.2883 16.1087 23.4613 14.938C22.7376 14.6386 21.9753 14.4796 21.1938 14.4183C21.1522 14.4153 21.112 14.4008 21.0708 14.3916H20.334L20.08 13.5768L18.9172 13.6324L18.7149 14.5961C18.2272 14.7055 17.76 14.854 17.3139 15.0413L16.6125 14.181L15.5561 14.6709L15.7811 15.8968C15.4164 16.1582 15.0701 16.4533 14.743 16.7825L13.5627 16.1617L12.779 17.026L13.5728 18.2435C13.3775 18.5522 13.2054 18.8709 13.0557 19.1997L11.5535 19.0535L11.1525 20.1489L12.4699 21.0648C12.3911 21.4151 12.335 21.7715 12.3057 22.1309L10.7769 22.6094L10.832 23.7753L12.399 24.1055C12.4554 24.4246 12.5334 24.7429 12.6332 25.0586L11.3784 26.0861L11.867 27.1457L13.4607 26.851C13.6542 27.1597 13.8674 27.4499 14.0981 27.7223L13.3543 29.1434L14.2155 29.9284L15.5079 29.083C15.782 29.2918 16.0736 29.4871 16.3827 29.6701L16.2391 31.1574L17.331 31.5593L18.1015 30.4464C18.1015 30.4464 18.0998 30.4459 18.0989 30.4455C18.6619 30.6197 19.2447 30.7283 19.8423 30.7769C19.8729 30.7795 19.9023 30.7905 19.9325 30.7992C19.7582 30.7861 19.5853 30.7677 19.4141 30.7436L19.7854 31.9363L20.5476 31.8999V30.8224C20.545 30.8224 20.5428 30.8224 20.5402 30.8224C20.358 30.8224 20.1772 30.8159 19.9982 30.8041H21.1023C21.3917 30.7625 21.682 30.7283 21.9701 30.6784C25.287 30.1018 27.9331 27.5007 28.5759 24.1816C28.6337 23.8839 28.6612 23.5805 28.7037 23.2802C28.709 23.2447 28.7221 23.2101 28.7317 23.1751V22.053C28.6914 21.7684 28.6643 21.4812 28.6087 21.1997H28.6091ZM26.0737 17.2751C25.547 17.5807 25.0011 17.8083 24.456 17.9839C24.1876 17.4791 23.9416 16.9778 23.6596 16.4971C23.3755 16.012 23.0068 15.589 22.59 15.2051C23.9359 15.572 25.0869 16.262 26.0733 17.2751H26.0737ZM24.7143 22.3301H20.7937V19.089C21.9123 19.0679 23.0143 18.9191 24.1119 18.6227C24.5007 19.8289 24.6951 21.0587 24.7143 22.3301ZM20.7932 14.9021C21.0082 14.9634 21.2162 15.0063 21.4119 15.0821C21.953 15.2909 22.3816 15.6569 22.7542 16.0921C23.27 16.6941 23.636 17.3841 23.9341 18.1376C22.9026 18.4143 21.8633 18.5579 20.7937 18.5728V14.9021H20.7932ZM20.7897 22.8656H24.7069C24.6937 24.1234 24.4932 25.3392 24.1154 26.5441C23.0235 26.2538 21.9193 26.094 20.7897 26.0796V22.866V22.8656ZM18.9623 15.4638C19.3738 15.1482 19.8795 14.9455 20.2573 14.9341V18.5561C19.7355 18.6314 17.6773 18.3499 17.1199 18.1231C17.5433 17.0947 18.0674 16.1503 18.9623 15.4638ZM16.6226 18.0229C16.0692 17.7843 15.5294 17.5513 14.9528 17.3027C15.9641 16.2628 17.1138 15.5733 18.461 15.2025C17.6099 15.9726 17.0578 16.9367 16.6221 18.0229H16.6226ZM14.5951 27.474C13.5552 26.2928 12.8832 24.5297 12.8438 22.8673H15.8288C15.8472 24.1619 16.0517 25.4307 16.4418 26.6527C15.8166 26.9307 15.2093 27.2008 14.5951 27.474ZM15.7925 22.3323H12.8381C12.9169 20.5758 13.508 19.0299 14.6025 17.6958C15.226 17.9721 15.8323 18.2405 16.419 18.5001C16.2815 19.1209 16.113 19.7501 16.0083 20.3897C15.9037 21.0298 15.8625 21.6808 15.7925 22.3323ZM14.9506 27.8685C15.5048 27.6264 16.0473 27.3895 16.6103 27.1439C17.0503 28.2441 17.6007 29.2161 18.4763 29.9845C17.6663 29.9455 15.6428 28.738 14.9506 27.8685ZM20.2604 30.2651C19.957 30.2472 19.6842 30.1473 19.422 30.0164C18.9005 29.7555 18.4938 29.3597 18.1352 28.9079C17.7539 28.4272 17.2526 27.5086 17.1195 27.0296C18.1466 26.7547 19.1882 26.6054 20.2604 26.5958V30.2655V30.2651ZM20.2604 26.0787C19.1339 26.0971 18.0337 26.253 16.9378 26.5463C16.556 25.3449 16.3586 24.1252 16.3437 22.8608H20.2604V26.0787ZM20.2622 22.3301H16.3441C16.3551 21.0618 16.5538 19.8363 16.9369 18.6231C18.0293 18.9138 19.1335 19.0714 20.2622 19.0876V22.3301ZM20.7875 30.2599V26.5962C21.8576 26.6041 22.9 26.7551 23.9578 27.0345C23.8111 27.3479 23.6837 27.6518 23.5305 27.9425C23.1461 28.6723 22.6706 29.3299 21.9819 29.808C21.5922 30.0786 21.1282 30.2537 20.7875 30.2599ZM22.5585 30.0024C23.4433 29.2135 24.0051 28.2468 24.4424 27.1443C25.0024 27.3878 25.5427 27.6224 26.0869 27.8584C25.6937 28.5585 23.6552 29.794 22.5585 30.0024ZM26.4686 27.4788C25.8465 27.2017 25.2401 26.9316 24.6114 26.6518C24.9941 25.4421 25.2047 24.1707 25.2217 22.8603H28.2125C28.1372 24.6081 27.5505 26.1488 26.4686 27.4788ZM25.2585 22.3323C25.1893 21.683 25.1478 21.0329 25.0436 20.3928C24.9402 19.7579 24.7734 19.1332 24.6338 18.5005C25.2082 18.2466 25.8137 17.9787 26.4498 17.6971C27.5431 19.029 28.1341 20.5753 28.2138 22.3323H25.259H25.2585Z" fill="white"/>
<path d="M33.4746 14.2217C32.493 13.2975 31.2956 12.6001 29.8805 12.1276C28.4655 11.6561 26.871 11.4201 25.0978 11.4201H19.4382V33.6065H25.0978C26.871 33.6065 28.4655 33.3517 29.8805 32.8425C31.2956 32.3333 32.493 31.5974 33.4746 30.635C34.4553 29.6727 35.2096 28.5037 35.7385 27.1259C36.2665 25.749 36.531 24.1926 36.531 22.4566C36.531 20.7207 36.2665 19.0517 35.7385 17.6739C35.2096 16.297 34.4553 15.1464 33.4746 14.2213V14.2217Z" fill="#EAEAEA"/>
<path d="M29.6104 28.8518C29.4768 28.977 29.342 28.9661 29.1765 28.896C28.7921 28.7332 28.3959 28.597 28.0075 28.4433C27.9095 28.4044 27.8289 28.4074 27.7361 28.4565C27.423 28.6219 27.0964 28.7594 26.7571 28.8606C26.6577 28.8903 26.61 28.9503 26.5724 29.0366C26.4196 29.3833 26.2488 29.7235 26.1144 30.0773C26.0247 30.3137 25.9104 30.4805 25.6359 30.4765C25.417 30.519 25.1928 30.5269 24.9721 30.5348C24.4765 30.5527 23.9801 30.5361 23.4836 30.5431C23.3483 30.5453 23.2918 30.5221 23.2936 30.3671C23.2971 30.0208 23.3146 29.6745 23.2682 29.3277C23.2441 29.1465 23.2577 28.9586 23.2918 28.7717C23.3308 28.5567 23.2778 28.3361 23.2778 28.1171C23.2782 23.7613 23.2782 19.4055 23.2778 15.0496C23.2778 14.8697 23.3001 14.6911 23.3063 14.5111C23.424 14.4634 23.5466 14.4927 23.6666 14.491C24.0641 14.4866 24.4621 14.4879 24.8601 14.4905C24.9218 14.4905 24.9888 14.4678 25.0453 14.5142C25.2939 14.54 25.5426 14.5702 25.7917 14.589C25.9165 14.5982 25.9804 14.6525 26.0303 14.769C26.2077 15.1832 26.4003 15.5908 26.5816 16.0032C26.6236 16.0991 26.6801 16.1538 26.7834 16.1853C27.11 16.2851 27.4265 16.4147 27.7269 16.5776C27.828 16.6323 27.913 16.6301 28.0167 16.5894C28.4362 16.4248 28.86 16.2711 29.2794 16.1056C29.381 16.0654 29.4523 16.0711 29.5416 16.1398C30.1274 16.5907 30.6436 17.1091 31.0955 17.694C31.1703 17.7908 31.1699 17.8692 31.1283 17.9747C30.9676 18.3819 30.8187 18.7938 30.6563 19.2006C30.6099 19.317 30.6038 19.4133 30.6668 19.5272C30.8271 19.8148 30.947 20.1213 31.0438 20.4356C31.0784 20.5482 31.1357 20.6178 31.2487 20.6664C31.6629 20.8437 32.0709 21.0368 32.4842 21.2167C32.5853 21.2609 32.6261 21.3196 32.6405 21.4299C32.7351 22.1563 32.7373 22.8817 32.6462 23.6085C32.6313 23.7263 32.5858 23.788 32.4776 23.8349C32.0696 24.0113 31.6681 24.2022 31.2596 24.3769C31.1405 24.4277 31.0797 24.5008 31.0429 24.6212C30.9444 24.9421 30.817 25.2521 30.6568 25.5472C30.6047 25.643 30.6077 25.7218 30.6458 25.819C30.8104 26.2385 30.9641 26.6627 31.1314 27.0813C31.1756 27.1916 31.1607 27.2682 31.0911 27.3615C30.6983 27.8869 30.2242 28.3304 29.7229 28.748C29.6839 28.7804 29.6476 28.8168 29.6099 28.8509L29.6104 28.8518Z" fill="#1D1D1B"/>
<path d="M57.746 29.084V25.871H60.602C61.316 25.871 61.96 25.766 62.534 25.556C63.108 25.332 63.598 25.024 64.004 24.632C64.41 24.226 64.718 23.743 64.928 23.183C65.138 22.609 65.243 21.979 65.243 21.293C65.243 20.579 65.138 19.942 64.928 19.382C64.718 18.822 64.41 18.346 64.004 17.954C63.598 17.562 63.108 17.268 62.534 17.072C61.96 16.862 61.316 16.757 60.602 16.757H57.746V13.544H60.413C61.799 13.544 63.01 13.747 64.046 14.153C65.082 14.559 65.95 15.112 66.65 15.812C67.35 16.512 67.868 17.317 68.204 18.227C68.554 19.123 68.729 20.068 68.729 21.062V21.524C68.729 22.448 68.554 23.365 68.204 24.275C67.868 25.171 67.35 25.983 66.65 26.711C65.95 27.425 65.082 27.999 64.046 28.433C63.01 28.867 61.799 29.084 60.413 29.084H57.746ZM54.722 29.084V13.544H58.166V29.084H54.722ZM70.8133 33.557V30.701H73.2073C73.5713 30.701 73.8793 30.652 74.1313 30.554C74.3833 30.47 74.5863 30.323 74.7403 30.113C74.8943 29.903 75.0203 29.616 75.1183 29.252L77.9533 17.492H81.1453L77.9323 29.924C77.7083 30.82 77.3933 31.534 76.9873 32.066C76.5953 32.598 76.0633 32.976 75.3913 33.2C74.7333 33.438 73.8933 33.557 72.8713 33.557H70.8133ZM74.4253 28.748V26.123H76.8613V28.748H74.4253ZM73.0393 28.748L69.5113 17.492H72.8923L76.2313 28.748H73.0393ZM82.9158 29V17.492H85.5828V22.427H85.3938C85.3938 21.251 85.5408 20.271 85.8348 19.487C86.1428 18.703 86.6048 18.115 87.2208 17.723C87.8368 17.331 88.5858 17.135 89.4678 17.135H89.6148C90.9588 17.135 91.9808 17.576 92.6808 18.458C93.3948 19.326 93.7518 20.649 93.7518 22.427V29H90.3918V22.238C90.3918 21.622 90.2098 21.118 89.8458 20.726C89.4818 20.334 88.9918 20.138 88.3758 20.138C87.7458 20.138 87.2348 20.341 86.8428 20.747C86.4648 21.139 86.2758 21.657 86.2758 22.301V29H82.9158ZM103.566 29V25.598H102.999V21.902C102.999 21.314 102.859 20.873 102.579 20.579C102.299 20.285 101.851 20.138 101.235 20.138C100.927 20.138 100.521 20.145 100.017 20.159C99.513 20.173 98.995 20.194 98.463 20.222C97.931 20.25 97.448 20.278 97.014 20.306V17.471C97.336 17.443 97.714 17.415 98.148 17.387C98.582 17.359 99.03 17.338 99.492 17.324C99.954 17.31 100.388 17.303 100.794 17.303C101.97 17.303 102.957 17.471 103.755 17.807C104.567 18.143 105.183 18.654 105.603 19.34C106.023 20.012 106.233 20.88 106.233 21.944V29H103.566ZM99.891 29.294C99.065 29.294 98.337 29.147 97.707 28.853C97.091 28.559 96.608 28.139 96.258 27.593C95.908 27.033 95.733 26.368 95.733 25.598C95.733 24.758 95.95 24.072 96.384 23.54C96.818 22.994 97.427 22.595 98.211 22.343C98.995 22.077 99.898 21.944 100.92 21.944H103.377V23.813H100.899C100.311 23.813 99.856 23.96 99.534 24.254C99.226 24.534 99.072 24.919 99.072 25.409C99.072 25.871 99.226 26.249 99.534 26.543C99.856 26.823 100.311 26.963 100.899 26.963C101.277 26.963 101.613 26.9 101.907 26.774C102.215 26.634 102.467 26.403 102.663 26.081C102.859 25.759 102.971 25.311 102.999 24.737L103.797 25.577C103.727 26.375 103.531 27.047 103.209 27.593C102.901 28.139 102.467 28.559 101.907 28.853C101.361 29.147 100.689 29.294 99.891 29.294ZM109.084 29V17.492H111.751V22.448H111.562C111.562 21.272 111.709 20.292 112.003 19.508C112.297 18.724 112.738 18.136 113.326 17.744C113.914 17.338 114.635 17.135 115.489 17.135H115.636C116.504 17.135 117.225 17.338 117.799 17.744C118.387 18.136 118.828 18.724 119.122 19.508C119.43 20.292 119.584 21.272 119.584 22.448H118.765C118.765 21.272 118.912 20.292 119.206 19.508C119.514 18.724 119.962 18.136 120.55 17.744C121.138 17.338 121.859 17.135 122.713 17.135H122.86C123.728 17.135 124.456 17.338 125.044 17.744C125.646 18.136 126.101 18.724 126.409 19.508C126.717 20.292 126.871 21.272 126.871 22.448V29H123.511V22.259C123.511 21.629 123.343 21.118 123.007 20.726C122.685 20.334 122.223 20.138 121.621 20.138C121.019 20.138 120.543 20.341 120.193 20.747C119.843 21.139 119.668 21.664 119.668 22.322V29H116.287V22.259C116.287 21.629 116.119 21.118 115.783 20.726C115.461 20.334 115.006 20.138 114.418 20.138C113.802 20.138 113.319 20.341 112.969 20.747C112.619 21.139 112.444 21.664 112.444 22.322V29H109.084ZM135.342 29.399C134.334 29.399 133.438 29.245 132.654 28.937C131.87 28.615 131.205 28.181 130.659 27.635C130.127 27.089 129.721 26.466 129.441 25.766C129.161 25.052 129.021 24.303 129.021 23.519V23.036C129.021 22.238 129.161 21.482 129.441 20.768C129.735 20.04 130.155 19.403 130.701 18.857C131.261 18.311 131.933 17.884 132.717 17.576C133.501 17.254 134.376 17.093 135.342 17.093C136.336 17.093 137.218 17.254 137.988 17.576C138.772 17.884 139.437 18.311 139.983 18.857C140.529 19.403 140.949 20.04 141.243 20.768C141.537 21.482 141.684 22.238 141.684 23.036V23.519C141.684 24.303 141.544 25.052 141.264 25.766C140.984 26.466 140.571 27.089 140.025 27.635C139.493 28.181 138.835 28.615 138.051 28.937C137.267 29.245 136.364 29.399 135.342 29.399ZM135.342 26.564C136 26.564 136.546 26.424 136.98 26.144C137.414 25.864 137.743 25.472 137.967 24.968C138.205 24.464 138.324 23.904 138.324 23.288C138.324 22.63 138.205 22.056 137.967 21.566C137.729 21.062 137.386 20.663 136.938 20.369C136.504 20.075 135.972 19.928 135.342 19.928C134.726 19.928 134.194 20.075 133.746 20.369C133.298 20.663 132.955 21.062 132.717 21.566C132.493 22.056 132.381 22.63 132.381 23.288C132.381 23.904 132.493 24.464 132.717 24.968C132.941 25.472 133.277 25.864 133.725 26.144C134.173 26.424 134.712 26.564 135.342 26.564Z" fill="black"/>
</svg>
