<svg width="324" height="332" viewBox="0 0 324 332" fill="none" xmlns="http://www.w3.org/2000/svg">
<g clip-path="url(#clip0_404_2264)">
<path d="M2.67583 138.866C2.67583 138.866 -3.48604 198.087 40.435 247.196C84.3559 296.305 152.285 312.746 207.081 327.522C261.876 342.297 308.629 319.593 321.503 273.704C334.376 227.816 294.001 205.526 278.451 147.253C262.902 88.9795 267.346 71.7389 223.359 29.0184C179.371 -13.7022 100.716 -8.59435 53.1452 40.026C5.57466 88.6464 2.67583 138.866 2.67583 138.866Z" fill="#E5E5E5"/>
<path opacity="0.7" d="M2.67583 138.866C2.67583 138.866 -3.48604 198.087 40.435 247.196C84.3559 296.305 152.285 312.746 207.081 327.522C261.876 342.297 308.629 319.593 321.503 273.704C334.376 227.816 294.001 205.526 278.451 147.253C262.902 88.9795 267.346 71.7389 223.359 29.0184C179.371 -13.7022 100.716 -8.59435 53.1452 40.026C5.57466 88.6464 2.67583 138.866 2.67583 138.866Z" fill="#E5E5E5"/>
<path d="M70.4713 34.8811L163.977 187.02L277.596 79.8224" stroke="#263238" stroke-linecap="round" stroke-linejoin="round"/>
<path d="M21.3101 193.941L163.977 187.02L60.1469 143.167" stroke="#263238" stroke-linecap="round" stroke-linejoin="round"/>
<path d="M186.878 16.863L165.65 190.602L295.859 216.334" stroke="#263238" stroke-linecap="round" stroke-linejoin="round"/>
<path d="M62.3174 295.298L163.977 187.02L269.435 266.605" stroke="#263238" stroke-linecap="round" stroke-linejoin="round"/>
<path d="M18.1363 174.702C8.11672 174.702 0 182.785 0 192.764C0 202.743 8.11672 210.826 18.1363 210.826C28.1558 210.826 36.2725 202.743 36.2725 192.764C36.2577 182.793 28.1484 174.716 18.1363 174.702Z" fill="#263238"/>
<path fill-rule="evenodd" clip-rule="evenodd" d="M29.241 192.298C28.8322 186.59 23.8596 182.289 18.1288 182.689C13.0298 183.052 8.94917 187.042 8.49576 192.113V192.564C8.49576 194.43 9.00863 196.265 9.98234 197.864L8.10925 203.365L13.8623 201.544C18.9093 204.29 25.2272 202.439 27.9848 197.413C28.8024 195.925 29.241 194.259 29.2558 192.564C29.2558 192.475 29.2558 192.387 29.241 192.298ZM18.8349 201.181C17.1254 201.181 15.4604 200.685 14.0333 199.752L10.681 200.818L11.7737 197.613C10.6885 196.147 10.1087 194.378 10.1087 192.557C10.1087 192.275 10.1236 192.002 10.1533 191.72C10.5695 186.931 14.7989 183.385 19.6005 183.799C23.8967 184.17 27.2787 187.597 27.5686 191.876V192.549C27.5463 197.324 23.6589 201.181 18.8647 201.188H18.8349V201.181Z" fill="white"/>
<path fill-rule="evenodd" clip-rule="evenodd" d="M23.6292 194.63C23.369 194.504 22.1426 193.889 21.8824 193.815C21.6223 193.741 21.4811 193.689 21.3101 193.941C21.1392 194.193 20.6486 194.755 20.5074 194.926C20.3661 195.096 20.21 195.111 19.9499 194.985C19.1992 194.689 18.5079 194.267 17.9058 193.734C17.3484 193.23 16.8727 192.646 16.4936 192.002C16.3449 191.75 16.4936 191.609 16.6051 191.483C16.7166 191.358 16.8578 191.195 16.9842 191.047L17.0808 190.928C17.1403 190.832 17.1923 190.728 17.2369 190.625C17.3112 190.491 17.3112 190.321 17.2369 190.188C17.17 190.062 16.6645 188.818 16.449 188.315C16.2334 187.812 16.0253 187.901 15.8767 187.901H15.3861C15.1259 187.901 14.8807 188.019 14.7097 188.211C14.1299 188.752 13.8029 189.522 13.8177 190.314C13.8177 190.603 13.8698 190.891 13.9515 191.173C14.1522 191.802 14.457 192.387 14.8584 192.912C14.9847 193.075 16.6199 195.703 19.2066 196.71C21.7932 197.716 21.7932 197.383 22.2615 197.339C22.9825 197.206 23.6069 196.769 23.9785 196.14C24.142 195.762 24.1941 195.348 24.1272 194.948C24.0454 194.837 23.8522 194.755 23.6292 194.63Z" fill="white"/>
<path d="M66.2197 13.9465C56.2002 14.1464 48.247 22.4003 48.4477 32.3791C48.6484 42.0691 56.4901 49.8862 66.2197 50.0787C76.2393 50.2786 84.527 42.3578 84.7277 32.3791C84.9283 22.4003 76.9751 14.1464 66.9556 13.9465C66.7103 13.9465 66.465 13.9465 66.2197 13.9465Z" fill="#263238"/>
<path d="M77.7258 26.22C77.4582 25.1763 76.648 24.362 75.6074 24.0881C73.7269 23.5847 66.2122 23.5847 66.2122 23.5847C66.2122 23.5847 58.6976 23.5847 56.8245 24.0881C55.7839 24.3694 54.9737 25.1837 54.6987 26.22C54.0371 30.0546 54.0371 33.978 54.6987 37.8125C54.9737 38.8489 55.7839 39.6632 56.8245 39.9445C58.6976 40.4479 66.2122 40.4479 66.2122 40.4479C66.2122 40.4479 73.7269 40.4479 75.6074 39.9445C76.648 39.6632 77.4508 38.8489 77.7258 37.8125C78.4022 33.978 78.4022 30.0546 77.7258 26.22Z" fill="white"/>
<path d="M63.7594 35.5769V28.4556L70.0402 32.0162L63.7594 35.5769Z" fill="#263238"/>
<path d="M63.6405 272.564C50.5066 272.564 39.8552 283.172 39.8552 296.253C39.8552 309.333 50.5066 319.941 63.6405 319.941C76.7744 319.941 87.4258 309.333 87.4258 296.253C87.4258 283.172 76.7744 272.564 63.6405 272.564Z" fill="#263238"/>
<path d="M59.6341 311.443H65.7886V296.097H70.0773L70.5382 290.96H65.7886V287.999C65.7886 286.785 66.0264 286.311 67.2082 286.311H70.5382V280.974H66.2791C61.7005 280.974 59.6341 282.987 59.6341 286.829V290.923H56.4305V296.105H59.6341V311.443Z" fill="white"/>
<path d="M270.074 248.957C260.055 248.957 251.931 257.041 251.923 267.02C251.916 276.998 260.04 285.089 270.059 285.097C280.079 285.097 288.203 277.013 288.211 267.034V267.02C288.196 257.048 280.086 248.972 270.074 248.957Z" fill="#263238"/>
<path d="M270.074 258.396C272.899 258.396 273.233 258.396 274.348 258.455C275.017 258.462 275.679 258.588 276.31 258.818C276.764 258.988 277.18 259.255 277.522 259.602C277.871 259.943 278.146 260.357 278.31 260.816C278.548 261.438 278.667 262.105 278.674 262.771C278.726 263.881 278.741 264.251 278.741 267.02C278.741 269.788 278.741 270.166 278.674 271.276C278.674 271.943 278.548 272.609 278.31 273.231C278.146 273.69 277.879 274.104 277.522 274.437C277.18 274.785 276.771 275.059 276.31 275.229C275.679 275.459 275.017 275.585 274.348 275.592C273.233 275.644 272.899 275.651 270.074 275.651C267.25 275.651 266.915 275.651 265.8 275.592C265.131 275.585 264.47 275.459 263.838 275.229C263.377 275.059 262.968 274.785 262.627 274.437C262.27 274.104 262.002 273.69 261.839 273.231C261.601 272.609 261.482 271.943 261.474 271.276C261.422 270.166 261.408 269.833 261.408 267.02C261.408 264.207 261.408 263.881 261.474 262.771C261.474 262.105 261.601 261.438 261.839 260.816C262.002 260.357 262.277 259.943 262.627 259.602C262.968 259.255 263.385 258.988 263.838 258.818C264.47 258.588 265.131 258.462 265.8 258.455C266.915 258.403 267.25 258.396 270.074 258.396ZM270.074 256.501C267.205 256.501 266.841 256.501 265.719 256.56C264.856 256.575 264.002 256.73 263.191 257.019C261.772 257.567 260.649 258.684 260.099 260.098C259.795 260.913 259.631 261.779 259.609 262.652C259.557 263.778 259.542 264.133 259.542 266.99C259.542 269.848 259.542 270.21 259.609 271.336C259.631 272.209 259.795 273.075 260.099 273.889C260.642 275.318 261.764 276.451 263.191 277.006C264.009 277.309 264.879 277.48 265.756 277.495C266.878 277.546 267.242 277.554 270.111 277.554C272.981 277.554 273.345 277.554 274.467 277.495C275.344 277.48 276.214 277.309 277.031 277.006C278.451 276.458 279.574 275.34 280.124 273.927C280.428 273.112 280.592 272.246 280.614 271.373C280.666 270.247 280.681 269.892 280.681 267.027C280.681 264.162 280.681 263.815 280.614 262.689C280.592 261.816 280.428 260.95 280.124 260.135C279.574 258.722 278.451 257.604 277.031 257.056C276.214 256.752 275.344 256.582 274.467 256.567C273.345 256.516 272.981 256.508 270.111 256.508" fill="white"/>
<path d="M270.074 261.616C267.071 261.616 264.641 264.029 264.633 267.02C264.626 270.011 267.057 272.431 270.059 272.439C273.062 272.446 275.493 270.025 275.5 267.035V267.02C275.5 264.037 273.07 261.616 270.074 261.616ZM270.074 270.499C268.127 270.499 266.551 268.93 266.551 266.99C266.551 265.051 268.127 263.481 270.074 263.481C272.022 263.481 273.598 265.051 273.598 266.99C273.598 268.93 272.022 270.499 270.074 270.499Z" fill="white"/>
<path d="M276.987 261.401C276.987 262.097 276.422 262.667 275.723 262.675C275.025 262.675 274.452 262.112 274.445 261.416C274.445 260.72 275.01 260.15 275.708 260.143C276.407 260.143 276.972 260.705 276.979 261.401" fill="white"/>
<path d="M276.704 104.999C261.519 104.999 249.203 92.7325 249.203 77.6089C249.203 62.4854 261.519 50.2192 276.704 50.2192C291.89 50.2192 304.206 62.4854 304.206 77.6089C304.206 92.7325 291.89 104.999 276.704 104.999Z" fill="#263238" stroke="#263238" stroke-linecap="round" stroke-linejoin="round"/>
<path d="M262.062 86.7956C264.812 88.55 268.008 89.4828 271.271 89.4828C282.42 89.4828 288.731 80.0962 288.367 71.6795C289.534 70.8282 290.537 69.7844 291.34 68.5852C290.247 69.0663 289.08 69.3847 287.891 69.5253C289.147 68.7776 290.084 67.6006 290.53 66.2163C289.355 66.9196 288.062 67.423 286.717 67.6969C284.442 65.2836 280.636 65.1652 278.213 67.423C276.645 68.8887 275.983 71.065 276.474 73.1526C271.643 72.9157 267.138 70.6431 264.091 66.9048C262.493 69.6363 263.31 73.1378 265.949 74.8922C264.998 74.8626 264.061 74.6109 263.229 74.1519C263.206 77.0168 265.228 79.504 268.045 80.074C267.161 80.3109 266.239 80.3479 265.34 80.1703C266.12 82.6131 268.38 84.2861 270.951 84.3305C268.432 86.2848 265.235 87.1731 262.062 86.7956Z" fill="white"/>
<path d="M61.1281 128.013C53.2195 128.013 46.8049 134.402 46.8049 142.278C46.8049 150.155 53.2195 156.543 61.1281 156.543C69.0367 156.543 75.4513 150.155 75.4513 142.278C75.4439 134.402 69.0367 128.021 61.1281 128.013Z" fill="#808080"/>
<path d="M56.9509 138.54H53.7993V148.674H56.9509V138.54Z" fill="white"/>
<path d="M55.3602 137.215C56.4008 137.222 57.2481 136.393 57.2556 135.357C57.263 134.32 56.4305 133.476 55.3899 133.469C54.3493 133.462 53.5019 134.291 53.4945 135.327C53.4945 135.327 53.4945 135.335 53.4945 135.342C53.4945 136.371 54.327 137.207 55.3602 137.215Z" fill="white"/>
<path d="M61.9904 143.359C61.9904 141.93 62.6445 141.086 63.9081 141.086C65.1717 141.086 65.6176 141.901 65.6176 143.359V148.674H68.7543V142.278C68.7543 139.569 67.2083 138.251 65.0379 138.251C63.7891 138.236 62.6296 138.873 61.9755 139.932V138.577H58.9503V148.711H61.9755L61.9904 143.359Z" fill="white"/>
<path d="M295.108 229.141C286.895 229.141 280.243 222.515 280.243 214.335C280.243 206.155 286.895 199.53 295.108 199.53C303.322 199.53 309.974 206.155 309.974 214.335C309.974 222.515 303.322 229.141 295.108 229.141Z" fill="#808080"/>
<path d="M292.923 219.947C293.354 219.865 293.756 219.688 294.105 219.428C294.402 219.206 294.655 218.925 294.848 218.607C295.16 218.111 295.324 217.541 295.317 216.956C295.331 216.416 295.19 215.89 294.908 215.431C294.618 215.002 294.194 214.676 293.704 214.513C294.008 214.372 294.276 214.173 294.499 213.928C294.833 213.492 295.012 212.951 294.982 212.396C294.997 211.833 294.826 211.278 294.499 210.812C293.83 210.027 292.826 209.62 291.801 209.709H286.761V220.072H291.437C291.935 220.08 292.433 220.043 292.923 219.947ZM288.835 211.508H291.102C291.518 211.493 291.935 211.552 292.336 211.67C292.715 211.833 292.938 212.218 292.893 212.625C292.931 212.988 292.767 213.336 292.47 213.543C292.135 213.728 291.756 213.81 291.37 213.795H288.835V211.508ZM288.835 218.288V215.52H291.399C291.756 215.505 292.105 215.564 292.44 215.69C292.879 215.883 293.146 216.334 293.109 216.808C293.168 217.341 292.893 217.852 292.418 218.103C292.083 218.244 291.726 218.303 291.362 218.288H288.835Z" fill="white"/>
<path d="M297.033 219.406C297.799 220.028 298.758 220.361 299.746 220.346C300.832 220.413 301.894 220.006 302.653 219.228C303.047 218.858 303.307 218.377 303.396 217.844H301.337C301.24 218.044 301.099 218.222 300.928 218.37C300.609 218.614 300.207 218.74 299.806 218.725C299.412 218.732 299.025 218.636 298.691 218.436C298.156 218.074 297.851 217.459 297.888 216.815H303.5C303.522 216.304 303.5 215.794 303.441 215.29C303.359 214.72 303.143 214.18 302.824 213.699C302.497 213.203 302.036 212.81 301.493 212.566C300.921 212.322 300.304 212.196 299.679 212.203C298.654 212.166 297.65 212.551 296.922 213.269C296.186 214.106 295.822 215.194 295.896 216.304C295.762 217.459 296.186 218.607 297.033 219.406ZM298.475 214.298C298.795 213.995 299.234 213.832 299.679 213.862C300.118 213.847 300.542 213.995 300.876 214.276C301.211 214.587 301.404 215.031 301.411 215.49H297.94C297.985 215.046 298.171 214.631 298.475 214.298Z" fill="white"/>
<path d="M301.813 210.301H297.279V211.352H301.813V210.301Z" fill="white"/>
<path d="M186.878 31.6905C178.665 31.6905 172.012 25.0652 172.012 16.8853C172.012 8.70542 178.665 2.08008 186.878 2.08008C195.091 2.08008 201.744 8.70542 201.744 16.8853C201.744 25.0652 195.091 31.6905 186.878 31.6905Z" fill="#808080"/>
<path fill-rule="evenodd" clip-rule="evenodd" d="M195.507 21.2159C195.337 21.1196 195.143 21.053 194.95 21.016C194.036 20.7051 193.233 20.1203 192.653 19.3504C192.311 18.9359 192.036 18.4695 191.836 17.9661C191.746 17.7811 191.746 17.5664 191.836 17.3813C192.044 17.1444 192.319 16.9668 192.624 16.8853C193.01 16.7743 193.374 16.5892 193.686 16.3375C193.753 16.2857 193.805 16.2117 193.843 16.1377C193.843 16.1155 193.843 16.0933 193.843 16.071C193.88 15.9822 193.88 15.8786 193.843 15.7897C193.761 15.6343 193.627 15.5084 193.471 15.4344C193.278 15.316 193.04 15.3012 192.832 15.3752C192.646 15.4492 192.46 15.501 192.267 15.5381C192.051 15.5899 191.836 15.5899 191.62 15.5381V15.3974V14.1908C191.657 13.5468 191.642 12.9027 191.575 12.2661C191.345 11.1705 190.691 10.2156 189.762 9.58635C189.1 9.13479 188.335 8.8609 187.532 8.80168H186.737C184.774 8.72025 182.976 9.86765 182.232 11.6739C181.98 12.429 181.898 13.2284 181.994 14.0131C182.039 14.5239 182.054 15.0421 182.032 15.5529C181.786 15.5973 181.534 15.5973 181.288 15.5529C181.11 15.5529 180.917 15.4492 180.701 15.39C180.5 15.353 180.292 15.4048 180.129 15.5233C179.95 15.6121 179.832 15.7897 179.817 15.9896V16.034C179.839 16.1599 179.906 16.2709 180.01 16.3449L180.211 16.493C180.59 16.7077 180.991 16.8853 181.407 17.0112C181.653 17.0926 181.846 17.2777 181.942 17.5146C181.972 17.8329 181.898 18.1586 181.727 18.4325C181.311 19.2468 180.694 19.9426 179.943 20.4682C179.534 20.7421 179.081 20.9494 178.605 21.0752C178.419 21.1048 178.248 21.2011 178.129 21.3491V21.4009C178.092 21.5268 178.115 21.6674 178.204 21.7711C178.256 21.8377 178.33 21.8895 178.404 21.9265C178.791 22.1264 179.207 22.267 179.631 22.3559C179.884 22.3929 180.136 22.4595 180.374 22.5483L180.456 22.7556C180.53 22.9777 180.56 23.2294 180.642 23.4959C180.671 23.5699 180.731 23.6291 180.813 23.6439C180.902 23.6809 181.013 23.6809 181.103 23.6439C181.734 23.4885 182.396 23.4663 183.043 23.5773C183.704 23.8216 184.328 24.1621 184.901 24.5767C185.339 24.8802 185.852 25.0652 186.387 25.1096C186.796 25.1393 187.212 25.1393 187.621 25.1096C187.963 25.0726 188.298 24.9616 188.595 24.7839C189.256 24.4064 189.836 23.9622 190.483 23.6735C190.728 23.6143 190.973 23.5921 191.226 23.5921C191.761 23.5699 192.296 23.5921 192.824 23.6661C192.839 23.6661 192.861 23.6661 192.876 23.6661C192.951 23.6587 193.017 23.6217 193.062 23.5699C193.084 23.5403 193.107 23.4959 193.114 23.4589C193.114 23.3774 193.114 23.3996 193.114 23.4589C193.114 23.4441 193.114 23.4292 193.114 23.4144C193.174 23.148 193.278 22.8963 193.426 22.6742C193.515 22.5928 193.634 22.5557 193.753 22.5705C194.184 22.5039 194.608 22.3855 195.017 22.2152C195.218 22.1486 195.396 22.0302 195.53 21.8673C195.649 21.7044 195.612 21.475 195.441 21.3639C195.441 21.3639 195.426 21.3565 195.426 21.3491L195.507 21.2159Z" fill="white"/>
<path d="M221.352 42.7798H102.388C96.4276 42.7798 91.5956 47.5921 91.5956 53.5284V305.188C91.5956 311.124 96.4276 315.936 102.388 315.936H221.352C227.312 315.936 232.144 311.124 232.144 305.188V53.5284C232.144 47.5921 227.312 42.7798 221.352 42.7798Z" fill="#262626"/>
<mask id="mask0_404_2264" style="mask-type:luminance" maskUnits="userSpaceOnUse" x="91" y="42" width="142" height="274">
<path d="M221.352 42.7798H102.388C96.4276 42.7798 91.5956 47.5921 91.5956 53.5284V305.188C91.5956 311.124 96.4276 315.936 102.388 315.936H221.352C227.312 315.936 232.144 311.124 232.144 305.188V53.5284C232.144 47.5921 227.312 42.7798 221.352 42.7798Z" fill="white"/>
</mask>
<g mask="url(#mask0_404_2264)">
<path opacity="0.2" d="M103.704 42.7798C97.0142 42.7798 91.5956 48.1763 91.5956 54.8387V303.87C91.5956 307.446 93.1788 310.836 95.9364 313.123L177.936 42.7798H103.704Z" fill="white"/>
<path d="M166.638 308.03C166.638 305.402 164.497 303.271 161.859 303.271C159.22 303.271 157.079 305.402 157.079 308.03C157.079 310.658 159.22 312.79 161.859 312.79C164.497 312.79 166.631 310.666 166.631 308.038L166.638 308.03Z" stroke="white" stroke-linecap="round" stroke-linejoin="round"/>
</g>
<path d="M221.352 42.7798H102.388C96.4276 42.7798 91.5956 47.5921 91.5956 53.5284V305.188C91.5956 311.124 96.4276 315.936 102.388 315.936H221.352C227.312 315.936 232.144 311.124 232.144 305.188V53.5284C232.144 47.5921 227.312 42.7798 221.352 42.7798Z" stroke="#263238" stroke-linecap="round" stroke-linejoin="round"/>
<path d="M225.886 61.3308H97.8392V299.725H225.886V61.3308Z" fill="#CCCCCC" stroke="#263238" stroke-linecap="round" stroke-linejoin="round"/>
<path d="M159.852 251.474C192.278 251.474 218.564 225.295 218.564 193.001C218.564 160.707 192.278 134.528 159.852 134.528C127.426 134.528 101.139 160.707 101.139 193.001C101.139 225.295 127.426 251.474 159.852 251.474Z" fill="#474747"/>
<path d="M221.976 89.9419H102.269V117.087H221.976V89.9419Z" fill="white"/>
<path d="M221.976 268.175H102.269V295.32H221.976V268.175Z" fill="white"/>
<path d="M221.976 258.736H102.269V259.913H221.976V258.736Z" fill="white"/>
<path d="M221.976 264.044H102.269V265.221H221.976V264.044Z" fill="white"/>
<path d="M221.53 63.8032H210.916V69.5995H221.53V63.8032Z" stroke="#263238" stroke-width="0.82" stroke-linecap="round" stroke-linejoin="round"/>
<path d="M219.196 63.8032H210.916V69.5995H219.196V63.8032Z" fill="#263238" stroke="#263238" stroke-width="0.73" stroke-linecap="round" stroke-linejoin="round"/>
<path d="M223.002 65.4243H221.508V67.9782H223.002V65.4243Z" fill="#263238" stroke="#263238" stroke-width="0.73" stroke-linecap="round" stroke-linejoin="round"/>
<path d="M102.671 65.6021H100.723V68.9258H102.671V65.6021Z" fill="#263238" stroke="#263238" stroke-width="0.88" stroke-linecap="round" stroke-linejoin="round"/>
<path d="M105.733 64.4324H103.786V68.9258H105.733V64.4324Z" fill="#263238" stroke="#263238" stroke-width="0.88" stroke-linecap="round" stroke-linejoin="round"/>
<path d="M108.788 63.0557H106.84V68.9259H108.788V63.0557Z" fill="#263238" stroke="#263238" stroke-width="0.88" stroke-linecap="round" stroke-linejoin="round"/>
<path d="M222.86 72.8196H99.9055V82.0284H222.86V72.8196Z" fill="#263238"/>
<mask id="mask1_404_2264" style="mask-type:luminance" maskUnits="userSpaceOnUse" x="103" y="92" width="200" height="158">
<path d="M302.341 92.8806H152.672V137.096C121.669 141.057 99.7569 169.298 103.733 200.174C107.71 231.05 136.067 252.873 167.069 248.913C182.299 246.966 196.087 238.942 205.259 226.676H302.341V92.8806Z" fill="white"/>
</mask>
<g mask="url(#mask1_404_2264)">
<path d="M98.1812 248.136C98.1812 248.136 113.85 193.801 116.808 182.186C119.766 170.571 124.241 163.013 133.473 161.17C142.704 159.327 159.748 157.617 159.748 157.617C159.748 157.617 174.562 156.136 185.295 156.876C196.028 157.617 205.847 163.331 211.027 167.24C216.208 171.149 231.208 184.569 231.208 184.569L229.357 153.597L242.87 154.7C242.87 154.7 252.681 197.842 253.975 205.778C255.268 213.714 255.275 217.215 253.975 218.133C252.674 219.051 254.904 219.613 243.056 215.734C231.208 211.856 217.323 206.518 209.734 204.305C202.145 202.091 201.216 201.721 201.216 201.721C201.216 201.721 182.634 229.57 176.725 237.868C172.666 243.761 169.061 249.949 165.932 256.375" fill="white"/>
<mask id="mask2_404_2264" style="mask-type:luminance" maskUnits="userSpaceOnUse" x="98" y="153" width="157" height="104">
<path d="M98.1812 248.136C98.1812 248.136 113.85 193.801 116.808 182.186C119.766 170.571 124.241 163.013 133.473 161.17C142.704 159.327 159.748 157.617 159.748 157.617C159.748 157.617 174.562 156.136 185.295 156.876C196.028 157.617 205.847 163.331 211.027 167.24C216.208 171.149 231.208 184.569 231.208 184.569L229.357 153.597L242.87 154.7C242.87 154.7 252.681 197.842 253.975 205.778C255.268 213.714 255.275 217.215 253.975 218.133C252.674 219.051 254.904 219.613 243.056 215.734C231.208 211.856 217.323 206.518 209.734 204.305C202.145 202.091 201.216 201.721 201.216 201.721C201.216 201.721 182.634 229.57 176.725 237.868C172.666 243.761 169.061 249.949 165.932 256.375" fill="white"/>
</mask>
<g mask="url(#mask2_404_2264)">
<path opacity="0.2" d="M253.952 218.074C255.253 217.156 255.253 213.632 253.952 205.719C253.209 200.988 249.381 183.733 246.438 170.571C247.605 186.117 248.058 201.307 245.694 204.142C240.491 210.271 232.888 202.217 232.888 202.217L231.438 190.269C231.438 190.269 205.527 171.237 195.805 168.01C186.083 164.782 175.736 164.138 165.679 167.366C155.623 170.593 147.216 173.821 141.062 179.95C134.907 186.08 113.56 235.114 113.56 235.114L111.144 249.675L165.91 256.279C169.039 249.853 172.644 243.665 176.702 237.772C182.649 229.474 201.194 201.625 201.194 201.625C201.194 201.625 202.123 201.995 209.712 204.209C217.301 206.422 231.185 211.767 243.033 215.638C254.882 219.51 252.659 218.999 253.952 218.074Z" fill="black"/>
</g>
<path d="M98.1812 248.136C98.1812 248.136 113.85 193.801 116.808 182.186C119.766 170.571 124.241 163.013 133.473 161.17C142.704 159.327 159.748 157.617 159.748 157.617C159.748 157.617 174.562 156.136 185.295 156.876C196.028 157.617 205.847 163.331 211.027 167.24C216.208 171.149 231.208 184.569 231.208 184.569L229.357 153.597L242.87 154.7C242.87 154.7 252.681 197.842 253.975 205.778C255.268 213.714 255.275 217.215 253.975 218.133C252.674 219.051 254.904 219.613 243.056 215.734C231.208 211.856 217.323 206.518 209.734 204.305C202.145 202.091 201.216 201.721 201.216 201.721C201.216 201.721 182.634 229.57 176.725 237.868C172.666 243.761 169.061 249.949 165.932 256.375" stroke="#263238" stroke-linecap="round" stroke-linejoin="round"/>
<path d="M206.479 193.112L201.194 201.669L216.833 193.112" stroke="#263238" stroke-linecap="round" stroke-linejoin="round"/>
<path d="M231.185 184.518C231.185 184.518 231.929 199.819 232.85 202.217C233.772 204.616 237.853 205.719 237.853 205.719" fill="white"/>
<path d="M231.185 184.518C231.185 184.518 231.929 199.819 232.85 202.217C233.772 204.616 237.853 205.719 237.853 205.719" stroke="#263238" stroke-linecap="round" stroke-linejoin="round"/>
<path d="M149.609 184.051C149.609 184.051 147.588 188.826 148.598 188.826C149.609 188.826 156.173 186.316 159.205 186.316C162.238 186.316 165.516 191.595 165.516 191.595C165.516 191.595 174.353 185.058 177.133 185.813C178.494 186.265 179.742 187.005 180.798 187.975C181.311 188.419 182.091 188.367 182.537 187.856C182.723 187.642 182.827 187.375 182.842 187.094C182.894 185.739 182.938 183.888 182.938 181.534C182.938 176.005 178.144 160.918 169.307 160.163C160.469 159.408 158.953 165.693 155.184 173.236C151.416 180.779 149.609 184.051 149.609 184.051Z" fill="#263238"/>
<path d="M168.615 151.517C168.615 151.517 160.097 152.642 156.21 156.343C152.322 160.045 153.616 165.93 151.579 171.274C149.542 176.619 146.027 187.501 147.863 187.316C149.699 187.131 156.195 181.971 158.046 183.259C159.896 184.547 164.155 189.922 164.899 190.262C165.642 190.603 175.082 183.814 176.375 183.074C177.668 182.334 183.964 190.477 184.15 188.256C184.336 186.035 184.707 172.955 183.407 165.027C182.106 157.098 172.874 151.702 168.615 151.517Z" fill="white" stroke="#263238" stroke-linecap="round" stroke-linejoin="round"/>
<path d="M171.574 141.19C171.574 141.19 168.43 150.777 165.821 154.123C163.212 157.469 162.104 157.994 161.197 165.737C160.29 173.48 164.341 190.995 165.657 190.625C166.973 190.255 179.728 169.979 183.987 166.655C188.246 163.331 192.69 159.837 192.69 159.837C192.69 159.837 182.322 156.699 178.806 152.279C176.152 148.748 173.729 145.047 171.574 141.19Z" fill="white"/>
<mask id="mask3_404_2264" style="mask-type:luminance" maskUnits="userSpaceOnUse" x="161" y="141" width="32" height="50">
<path d="M171.574 141.19C171.574 141.19 168.43 150.777 165.821 154.123C163.212 157.469 162.104 157.994 161.197 165.737C160.29 173.48 164.341 190.995 165.657 190.625C166.973 190.255 179.728 169.979 183.987 166.655C188.246 163.331 192.69 159.837 192.69 159.837C192.69 159.837 182.322 156.699 178.806 152.279C176.152 148.748 173.729 145.047 171.574 141.19Z" fill="white"/>
</mask>
<g mask="url(#mask3_404_2264)">
<path opacity="0.2" d="M185.823 165.226C189.427 162.406 192.683 159.845 192.683 159.845C192.683 159.845 182.314 156.706 178.798 152.287C176.145 148.763 173.729 145.062 171.574 141.22C170.496 144.462 169.24 147.645 167.805 150.754C169.374 155.129 173.744 162.265 185.823 165.226Z" fill="black"/>
<path d="M178.798 152.257C176.145 148.733 173.729 145.032 171.574 141.19C171.574 141.19 170.518 144.41 169.128 147.764C170.28 151.087 172.592 156.032 176.732 158.949C180.077 161.17 183.793 162.798 187.703 163.746L192.683 159.837C192.683 159.837 182.314 156.676 178.798 152.257Z" fill="#263238"/>
</g>
<path d="M171.574 141.19C171.574 141.19 168.43 150.777 165.821 154.123C163.212 157.469 162.104 157.994 161.197 165.737C160.29 173.48 164.341 190.995 165.657 190.625C166.973 190.255 179.728 169.979 183.987 166.655C188.246 163.331 192.69 159.837 192.69 159.837C192.69 159.837 182.322 156.699 178.806 152.279C176.152 148.748 173.729 145.047 171.574 141.19Z" stroke="#263238" stroke-linecap="round" stroke-linejoin="round"/>
<path d="M211.005 116.673C211.005 116.673 210.455 129.028 210.819 133.077C211.184 137.126 212.67 144.181 209.333 150.777C205.995 157.372 203.223 161.658 200.079 162.761C196.935 163.864 186.752 161.658 178.605 155.574C170.459 149.489 168.98 136.956 167.679 132.899C166.378 128.843 167.865 115.015 176.197 110.588C182.946 107.131 190.773 106.405 198.042 108.559C202.494 110.033 211.005 116.673 211.005 116.673Z" fill="white"/>
<mask id="mask4_404_2264" style="mask-type:luminance" maskUnits="userSpaceOnUse" x="167" y="107" width="45" height="57">
<path d="M211.005 116.673C211.005 116.673 210.455 129.028 210.819 133.077C211.184 137.126 212.67 144.181 209.333 150.777C205.995 157.372 203.223 161.658 200.079 162.761C196.935 163.864 186.752 161.658 178.605 155.574C170.459 149.489 168.98 136.956 167.679 132.899C166.378 128.843 167.865 115.015 176.197 110.588C182.946 107.131 190.773 106.405 198.042 108.559C202.494 110.033 211.005 116.673 211.005 116.673Z" fill="white"/>
</mask>
<g mask="url(#mask4_404_2264)">
<path opacity="0.2" d="M176.227 110.588C175.037 111.232 173.96 112.053 173.038 113.038L177.327 116.073C177.327 116.073 182.834 110.588 195.166 118.331C201.528 122.328 207.014 122.972 210.842 122.654C210.931 119.367 211.05 116.673 211.05 116.673C211.05 116.673 202.539 110.01 198.094 108.53C190.81 106.376 182.976 107.116 176.227 110.588Z" fill="black"/>
</g>
<path d="M211.005 116.673C211.005 116.673 210.455 129.028 210.819 133.077C211.184 137.126 212.67 144.181 209.333 150.777C205.995 157.372 203.223 161.658 200.079 162.761C196.935 163.864 186.752 161.658 178.605 155.574C170.459 149.489 168.98 136.956 167.679 132.899C166.378 128.843 167.865 115.015 176.197 110.588C182.946 107.131 190.773 106.405 198.042 108.559C202.494 110.033 211.005 116.673 211.005 116.673Z" stroke="#263238" stroke-linecap="round" stroke-linejoin="round"/>
<path d="M193.523 133.336C193.523 134.646 193.01 135.712 192.378 135.712C191.747 135.712 191.234 134.646 191.234 133.336C191.234 132.026 191.747 130.952 192.378 130.952C193.01 130.952 193.523 132.018 193.523 133.336Z" fill="#263238"/>
<path d="M207.043 134.572C207.043 135.89 206.53 136.956 205.899 136.956C205.267 136.956 204.754 135.89 204.754 134.572C204.754 133.255 205.267 132.196 205.899 132.196C206.53 132.196 207.043 133.262 207.043 134.572Z" fill="#263238"/>
<path d="M203.416 131.056C203.416 131.056 199.9 134.557 200.822 136.03C201.744 137.504 203.899 138.333 203.23 140.472C202.561 142.611 197.678 143.433 196.013 140.472" stroke="#263238" stroke-linecap="round" stroke-linejoin="round"/>
<path d="M185.458 142.486C188.253 145.861 192.371 147.875 196.756 148.015C196.756 148.015 189.16 152.99 185.83 152.457C182.5 151.924 185.458 142.486 185.458 142.486Z" fill="#263238" stroke="#263238" stroke-linecap="round" stroke-linejoin="round"/>
<path d="M187.235 126.303C187.235 126.303 190.461 121.862 196.898 124.623" stroke="#263238" stroke-linecap="round" stroke-linejoin="round"/>
<path d="M204.709 126.444C204.709 126.444 208.783 125.511 210.262 129.405" stroke="#263238" stroke-linecap="round" stroke-linejoin="round"/>
<path d="M168.987 137.874C168.987 137.874 170.652 130.686 174.725 128.102C178.798 125.519 182.686 126.074 180.278 122.573C177.869 119.071 176.561 115.562 181.764 113.904C186.967 112.246 197.128 115.015 203.052 117.228C208.976 119.441 220.452 120.189 223.418 111.876C225.247 106.753 219.895 102.674 215.985 100.579C211.652 98.2698 206.791 97.1224 201.9 97.9811C198.927 98.4919 196.095 99.6541 193.122 99.9502C188.09 100.461 183.652 98.1365 178.635 99.3432C174.42 100.343 170.652 102.682 167.894 106.006C163.249 111.691 161.948 122.017 168.987 137.874Z" fill="#263238"/>
<mask id="mask5_404_2264" style="mask-type:luminance" maskUnits="userSpaceOnUse" x="164" y="97" width="60" height="41">
<path d="M168.987 137.874C168.987 137.874 170.652 130.686 174.725 128.102C178.798 125.519 182.686 126.074 180.278 122.573C177.869 119.071 176.561 115.562 181.764 113.904C186.967 112.246 197.128 115.015 203.052 117.228C208.976 119.441 220.452 120.189 223.418 111.876C225.247 106.753 219.895 102.674 215.985 100.579C211.652 98.2698 206.791 97.1224 201.9 97.9811C198.927 98.4919 196.095 99.6541 193.122 99.9502C188.09 100.461 183.652 98.1365 178.635 99.3432C174.42 100.343 170.652 102.682 167.894 106.006C163.249 111.691 161.948 122.017 168.987 137.874Z" fill="white"/>
</mask>
<g mask="url(#mask5_404_2264)">
<path d="M211.852 97.6331C211.852 97.6331 221.471 102.815 214.736 111.424C208.002 120.033 201.662 114.111 185.689 111.047C169.715 107.982 160.298 115.836 160.298 115.836" stroke="#808080" stroke-linecap="round" stroke-linejoin="round"/>
<path d="M161.643 125.252C161.643 125.252 164.72 119.33 174.725 117.591C184.73 115.851 185.31 117.398 185.31 117.398" stroke="#808080" stroke-linecap="round" stroke-linejoin="round"/>
</g>
<path d="M168.987 137.874C168.987 137.874 170.652 130.686 174.725 128.102C178.798 125.519 182.686 126.074 180.278 122.573C177.869 119.071 176.561 115.562 181.764 113.904C186.967 112.246 197.128 115.015 203.052 117.228C208.976 119.441 220.452 120.189 223.418 111.876C225.247 106.753 219.895 102.674 215.985 100.579C211.652 98.2698 206.791 97.1224 201.9 97.9811C198.927 98.4919 196.095 99.6541 193.122 99.9502C188.089 100.461 183.652 98.1365 178.635 99.3432C174.42 100.343 170.652 102.682 167.894 106.006C163.249 111.691 161.948 122.017 168.987 137.874Z" stroke="#263238" stroke-linecap="round" stroke-linejoin="round"/>
<path d="M173.172 135.253C173.172 135.253 168.37 124.305 164.141 130.005C159.911 135.705 167.575 142.915 173.328 141.516" fill="white"/>
<path d="M173.172 135.253C173.172 135.253 168.37 124.305 164.141 130.005C159.911 135.705 167.575 142.915 173.328 141.516" stroke="#263238" stroke-linecap="round" stroke-linejoin="round"/>
<path d="M225.447 134.002C225.447 134.002 222.303 133.632 221.731 136.223C221.159 138.814 220.616 142.885 221.731 142.885C222.846 142.885 224.875 142.338 225.618 140.665C226.362 138.992 227.105 133.839 227.105 133.839L225.447 134.002Z" fill="white" stroke="#263238" stroke-linecap="round" stroke-linejoin="round"/>
<path d="M230.442 133.077C230.442 133.077 225.982 132.337 225.447 134.002C224.912 135.668 224.154 141.405 224.704 141.56C225.254 141.716 228.591 140.272 228.591 140.272L230.442 133.077Z" fill="white" stroke="#263238" stroke-linecap="round" stroke-linejoin="round"/>
<path d="M236.366 133.447C236.366 133.447 231.163 130.131 229.892 131.789C228.621 133.447 228.591 140.272 228.591 140.272C229.528 140.479 230.502 140.198 231.185 139.532C232.114 138.429 233.222 136.956 233.222 136.956C233.222 136.956 236.938 137.874 237.481 137.696C238.024 137.518 239.332 137.696 238.968 135.853C238.603 134.01 236.366 133.447 236.366 133.447Z" fill="white" stroke="#263238" stroke-linecap="round" stroke-linejoin="round"/>
<path d="M243.405 136.771C241.071 135.164 239.161 133.01 237.853 130.501C236.002 126.629 235.073 126.799 234.136 128.472C233.2 130.145 234.315 131.789 235.058 133.262C235.801 134.735 238.945 138.244 238.945 138.244L243.405 136.771Z" fill="white" stroke="#263238" stroke-linecap="round" stroke-linejoin="round"/>
<path d="M210.106 162.562C210.106 162.562 207.422 185.384 207.839 186.62C208.255 187.856 212.789 189.292 213.822 188.471C214.855 187.649 214.238 186.006 213.822 184.977C213.406 183.948 217.33 164.827 217.33 164.827L210.106 162.562Z" fill="#515151" stroke="#263238" stroke-linecap="round" stroke-linejoin="round"/>
<path d="M142.504 170.467L156.091 212.729C156.091 212.729 187.309 194.622 194.623 185.176C201.937 175.731 206.159 165.078 208.746 164.079C211.332 163.08 220.46 165.559 221.798 167.04C223.136 168.521 222.823 170.142 221.203 171.667C219.583 173.192 218.661 173.406 218.661 173.406C218.661 173.406 218.579 176.73 217.851 177.307C217.122 177.885 217.293 177.137 217.108 177.877C216.981 178.67 216.691 179.425 216.253 180.098C215.718 180.839 215.509 181.223 214.997 181.423C213.934 181.875 212.826 182.215 211.689 182.445C209.689 182.956 207.66 183.326 205.609 183.555C204.323 183.777 195.946 200.263 188.082 210.086C180.218 219.91 155.377 242.436 151.475 242.554C147.573 242.673 124.65 204.964 119.737 195.703" fill="white"/>
<mask id="mask6_404_2264" style="mask-type:luminance" maskUnits="userSpaceOnUse" x="119" y="163" width="104" height="80">
<path d="M142.504 170.467L156.091 212.729C156.091 212.729 187.309 194.622 194.623 185.176C201.937 175.731 206.159 165.078 208.746 164.079C211.332 163.08 220.46 165.559 221.798 167.04C223.136 168.521 222.823 170.142 221.203 171.667C219.583 173.192 218.661 173.406 218.661 173.406C218.661 173.406 218.579 176.73 217.851 177.307C217.122 177.885 217.293 177.137 217.108 177.877C216.981 178.67 216.691 179.425 216.253 180.098C215.718 180.839 215.509 181.223 214.997 181.423C213.934 181.875 212.826 182.215 211.689 182.445C209.689 182.956 207.66 183.326 205.609 183.555C204.323 183.777 195.946 200.263 188.082 210.086C180.218 219.91 155.377 242.436 151.475 242.554C147.573 242.673 124.65 204.964 119.737 195.703" fill="white"/>
</mask>
<g mask="url(#mask6_404_2264)">
<path opacity="0.2" d="M216.253 180.084C216.691 179.41 216.981 178.655 217.108 177.863C217.271 177.122 217.108 177.863 217.851 177.293C218.594 176.723 218.661 173.392 218.661 173.392C218.661 173.392 219.583 173.177 221.203 171.652C222.823 170.127 223.143 168.461 221.798 167.025C220.452 165.589 211.31 163.102 208.746 164.064C208.077 164.323 207.259 165.249 206.367 166.64C207.727 168.861 209.34 170.216 207.854 174.095C205.624 180.017 200.421 187.42 195.961 193.712C191.501 200.004 154.337 234.796 149.877 234.056C146.235 233.449 135.658 220.731 131.897 216.119C139.954 228.993 149.171 242.591 151.512 242.525C155.4 242.406 180.27 219.887 188.119 210.057C195.968 200.226 204.323 183.733 205.609 183.541C207.66 183.311 209.69 182.941 211.689 182.43C212.826 182.201 213.934 181.86 214.997 181.409C215.547 181.209 215.718 180.839 216.253 180.084Z" fill="black"/>
</g>
<path d="M142.504 170.467L156.091 212.729C156.091 212.729 187.309 194.622 194.623 185.176C201.937 175.731 206.159 165.078 208.746 164.079C211.332 163.08 220.46 165.559 221.798 167.04C223.136 168.521 222.823 170.142 221.203 171.667C219.583 173.192 218.661 173.406 218.661 173.406C218.661 173.406 218.579 176.73 217.851 177.307C217.122 177.885 217.293 177.137 217.108 177.877C216.981 178.67 216.691 179.425 216.253 180.098C215.718 180.839 215.509 181.223 214.997 181.423C213.934 181.875 212.826 182.215 211.689 182.445C209.689 182.956 207.66 183.326 205.609 183.555C204.323 183.777 195.946 200.263 188.082 210.086C180.218 219.91 155.377 242.436 151.475 242.554C147.573 242.673 124.65 204.964 119.737 195.703" stroke="#263238" stroke-linecap="round" stroke-linejoin="round"/>
<path d="M156.091 212.729C156.091 212.729 152.53 212.877 149.513 222.352" stroke="#263238" stroke-linecap="round" stroke-linejoin="round"/>
<path d="M211.689 182.43C212.826 182.201 213.934 181.86 214.997 181.409C215.547 181.209 215.74 180.839 216.253 180.084C216.691 179.41 216.981 178.655 217.108 177.863C217.271 177.122 217.754 176.871 218.475 176.293C219.196 175.716 218.639 173.392 218.639 173.392C218.639 173.392 219.56 173.177 221.181 171.652C222.801 170.127 223.121 168.461 221.775 167.025C220.43 165.589 211.288 163.102 208.723 164.064C206.159 165.027 202.279 174.85 195.552 183.977L201.811 189.085C203.773 185.828 205.17 183.622 205.631 183.541C207.675 183.311 209.697 182.941 211.689 182.43Z" fill="white"/>
<mask id="mask7_404_2264" style="mask-type:luminance" maskUnits="userSpaceOnUse" x="195" y="163" width="28" height="27">
<path d="M211.689 182.43C212.826 182.201 213.934 181.86 214.997 181.409C215.547 181.209 215.74 180.839 216.253 180.084C216.691 179.41 216.981 178.655 217.108 177.863C217.271 177.122 217.754 176.871 218.475 176.293C219.196 175.716 218.639 173.392 218.639 173.392C218.639 173.392 219.56 173.177 221.181 171.652C222.801 170.127 223.121 168.461 221.775 167.025C220.43 165.589 211.288 163.102 208.723 164.064C206.159 165.027 202.279 174.85 195.552 183.977L201.811 189.085C203.773 185.828 205.17 183.622 205.631 183.541C207.675 183.311 209.697 182.941 211.689 182.43Z" fill="white"/>
</mask>
<g mask="url(#mask7_404_2264)">
<path opacity="0.2" d="M216.253 180.084C216.691 179.41 216.981 178.655 217.108 177.863C217.271 177.122 217.108 177.863 217.851 177.293C218.594 176.723 218.661 173.392 218.661 173.392C218.661 173.392 219.583 173.177 221.203 171.652C222.823 170.127 223.143 168.461 221.798 167.025C220.452 165.589 211.31 163.102 208.746 164.064C208.077 164.323 207.259 165.249 206.367 166.64C207.727 168.861 209.34 170.216 207.854 174.095C205.624 180.017 200.421 187.42 195.961 193.712C191.501 200.004 154.337 234.796 149.877 234.056C146.235 233.449 135.658 220.731 131.897 216.119C139.954 228.993 149.171 242.591 151.512 242.525C155.4 242.406 180.27 219.887 188.119 210.057C195.968 200.226 204.323 183.733 205.609 183.541C207.66 183.311 209.69 182.941 211.689 182.43C212.826 182.201 213.934 181.86 214.997 181.409C215.547 181.209 215.718 180.839 216.253 180.084Z" fill="black"/>
</g>
<path d="M211.689 182.43C212.826 182.201 213.934 181.86 214.997 181.409C215.547 181.209 215.74 180.839 216.253 180.084C216.691 179.41 216.981 178.655 217.108 177.863C217.271 177.122 217.754 176.871 218.475 176.293C219.196 175.716 218.639 173.392 218.639 173.392C218.639 173.392 219.56 173.177 221.181 171.652C222.801 170.127 223.121 168.461 221.775 167.025C220.43 165.589 211.288 163.102 208.723 164.064C206.159 165.027 202.279 174.85 195.552 183.977L201.811 189.085C203.773 185.828 205.17 183.622 205.631 183.541C207.675 183.311 209.697 182.941 211.689 182.43Z" stroke="#263238" stroke-linecap="round" stroke-linejoin="round"/>
<path d="M203.602 147.645C201.558 147.645 199.885 150.606 199.885 154.189C199.885 157.772 201.543 160.733 203.602 160.733L248.943 174.376V133.447L203.602 147.645Z" fill="#898989" stroke="#263238" stroke-linecap="round" stroke-linejoin="round"/>
<path d="M229.112 142.197L211.421 147.268" stroke="#263238" stroke-linecap="round" stroke-linejoin="round"/>
<path d="M235.028 140.502L231.327 141.568" stroke="#263238" stroke-linecap="round" stroke-linejoin="round"/>
<path d="M209.407 145.824L203.602 147.645C201.558 147.645 199.885 150.606 199.885 154.189C199.885 157.772 201.543 160.733 203.602 160.733L208.842 162.31C206.345 157.047 206.553 150.902 209.407 145.824Z" fill="#263238" stroke="#263238" stroke-linecap="round" stroke-linejoin="round"/>
<path d="M252.845 181.675C261.433 181.675 268.395 169.369 268.395 154.189C268.395 139.009 261.433 126.703 252.845 126.703C244.257 126.703 237.295 139.009 237.295 154.189C237.295 169.369 244.257 181.675 252.845 181.675Z" fill="#D6D6D6" stroke="#263238" stroke-linecap="round" stroke-linejoin="round"/>
<path d="M252.845 148.089L238.031 144.144L236.738 154.656L238.403 165.345L252.845 160.289L253.402 148.385" fill="#D6D6D6"/>
<path d="M252.845 148.089L238.031 144.144L236.738 154.656L238.403 165.345L252.845 160.289L253.402 148.385" stroke="#263238" stroke-linecap="round" stroke-linejoin="round"/>
<path d="M252.845 124.231C243.487 124.231 235.898 137.644 235.898 154.189C235.898 170.734 243.487 184.147 252.845 184.147C262.203 184.147 269.792 170.734 269.792 154.189C269.792 137.644 262.203 124.231 252.845 124.231ZM253.261 179.898C245.464 179.898 239.139 168.387 239.139 154.189C239.139 139.991 245.464 128.487 253.261 128.487C261.058 128.487 267.384 139.991 267.384 154.189C267.384 168.387 261.066 179.898 253.261 179.898Z" fill="#263238" stroke="#263238" stroke-linecap="round" stroke-linejoin="round"/>
<path d="M252.845 160.289C254.75 160.289 256.294 157.558 256.294 154.189C256.294 150.82 254.75 148.089 252.845 148.089C250.94 148.089 249.396 150.82 249.396 154.189C249.396 157.558 250.94 160.289 252.845 160.289Z" fill="#C1C1C1" stroke="#263238" stroke-linecap="round" stroke-linejoin="round"/>
<path d="M296.55 123.113L299.992 122.047" stroke="#263238" stroke-linecap="round" stroke-linejoin="round"/>
<path d="M271.91 130.708L292.306 124.416" stroke="#263238" stroke-linecap="round" stroke-linejoin="round"/>
<path d="M274.586 152.679L293.302 153.345" stroke="#263238" stroke-linecap="round" stroke-linejoin="round"/>
<path d="M290.091 180.061L293.971 181.305" stroke="#263238" stroke-linecap="round" stroke-linejoin="round"/>
<path d="M273.248 174.65L287.014 179.077" stroke="#263238" stroke-linecap="round" stroke-linejoin="round"/>
<path d="M273.917 140.694L283.944 139.362" stroke="#263238" stroke-linecap="round" stroke-linejoin="round"/>
<path d="M269.234 181.971L276.593 187.967" stroke="#263238" stroke-linecap="round" stroke-linejoin="round"/>
</g>
</g>
<defs>
<clipPath id="clip0_404_2264">
<rect width="324" height="332" fill="white"/>
</clipPath>
</defs>
</svg>
