<svg width="38" height="47" viewBox="0 0 38 47" fill="none" xmlns="http://www.w3.org/2000/svg">
<g clip-path="url(#clip0_21_348)">
<path d="M4.15696 47C3.52285 46.7548 2.83739 46.5954 2.26538 46.2411C0.890877 45.3902 0.146903 44.0931 0.0262908 42.4404C0.0119606 42.2418 0.00360107 42.0432 0.00360107 41.8445C0.00360107 29.6234 0.00360107 17.404 0.00360107 5.18614C0.00360107 3.2392 0.736829 1.72136 2.3633 0.692722C3.05109 0.253338 3.84486 0.0201943 4.65493 0.0196305C10.2568 0.0196305 15.8599 -0.00366412 21.4618 0.0196305C22.6619 0.0305835 23.8116 0.516753 24.6711 1.37676C25.5305 2.23677 26.0334 3.40421 26.0749 4.63564C26.137 6.43791 26.0964 8.24509 26.1024 10.0498V10.6481C26.4857 10.6481 26.8189 10.6481 27.1604 10.6481C27.5915 10.6481 27.8256 10.8578 27.8662 11.2979C27.9223 11.8925 27.9928 12.4847 28.0322 13.0793C28.0489 13.3319 28.1433 13.4337 28.3761 13.5244C29.0425 13.7819 29.7005 14.0687 30.3429 14.3826C30.5734 14.4966 30.7012 14.4746 30.8863 14.3103C31.2995 13.9425 31.7306 13.5832 32.1593 13.2265C32.588 12.8697 32.8376 12.8832 33.2102 13.2657C33.9577 14.0332 34.7009 14.8056 35.4397 15.5829C35.8159 15.9801 35.8254 16.2327 35.4887 16.6643C35.1519 17.0958 34.7972 17.5458 34.4318 17.97C34.2718 18.1563 34.2527 18.2912 34.3614 18.5291C34.6647 19.1899 34.9393 19.8654 35.1877 20.5508C35.2761 20.796 35.3931 20.8879 35.6284 20.9051C36.1777 20.948 36.727 20.9934 37.274 21.0584C37.8209 21.1233 37.9905 21.3109 37.9976 21.8957C38.0048 22.9665 38.0048 24.0368 37.9976 25.1067C37.9976 25.7063 37.8269 25.8914 37.2357 25.9576C36.7175 26.0152 36.198 26.0618 35.6833 26.101C35.4337 26.1194 35.3071 26.2236 35.214 26.4823C34.9752 27.153 34.6945 27.8114 34.4008 28.4612C34.2993 28.6867 34.2885 28.8351 34.4557 29.0288C34.8223 29.4506 35.1722 29.887 35.5161 30.3309C35.8601 30.7747 35.8445 31.0407 35.4827 31.4159C34.7288 32.1997 33.9725 32.9787 33.2137 33.7527C32.8555 34.1205 32.5892 34.1279 32.1963 33.8042C31.7545 33.4364 31.3114 33.0784 30.8899 32.691C30.6988 32.5156 30.5639 32.534 30.3441 32.6407C29.7161 32.9536 29.0728 33.2331 28.4167 33.4781C28.1337 33.5798 28.0585 33.7147 28.0394 33.993C28.0047 34.557 27.9402 35.1197 27.8781 35.6825C27.8244 36.1729 27.631 36.3519 27.1557 36.3605C26.8297 36.3666 26.5036 36.3605 26.1132 36.3605V36.9281C26.1132 38.7182 26.1466 40.5082 26.0905 42.297C26.0152 44.6546 24.4186 46.4912 22.1664 46.9203C22.0973 46.941 22.0301 46.9681 21.9658 47.0012L4.15696 47ZM24.8378 36.3593C24.4795 36.3593 24.1881 36.3593 23.8908 36.3593C23.3677 36.3519 23.1659 36.1582 23.1158 35.6236C23.0608 35.045 22.9963 34.4675 22.9534 33.8888C22.9378 33.651 22.8423 33.5627 22.6309 33.4793C21.9526 33.2096 21.2934 32.892 20.6163 32.6211C20.5417 32.5955 20.4625 32.5866 20.3843 32.5951C20.306 32.6035 20.2304 32.6291 20.1626 32.6701C19.6992 33.0281 19.2657 33.4278 18.8131 33.8005C18.4202 34.123 18.1563 34.1083 17.7945 33.7417C17.0318 32.9685 16.2731 32.192 15.5184 31.4122C15.1601 31.0346 15.1422 30.7771 15.4599 30.3701C15.8181 29.9152 16.1668 29.4604 16.5442 29.0288C16.7162 28.8326 16.6982 28.6904 16.5967 28.4661C16.3042 27.8175 16.0295 27.1567 15.7859 26.4872C15.6951 26.2359 15.5805 26.1194 15.3237 26.0998C14.7887 26.063 14.2545 26.0148 13.7211 25.9551C13.1348 25.8889 12.9688 25.7001 12.9652 25.0969C12.9597 24.0417 12.9597 22.9865 12.9652 21.9313C12.9652 21.2962 13.1264 21.116 13.7426 21.0486C14.276 20.9905 14.8102 20.9419 15.3452 20.9027C15.5841 20.8867 15.6939 20.7801 15.7811 20.5434C16.0331 19.8593 16.3125 19.185 16.6111 18.5217C16.7066 18.3108 16.715 18.1784 16.5609 17.9994C16.2027 17.5752 15.8528 17.1338 15.5053 16.6937C15.1291 16.218 15.1386 15.9838 15.5614 15.5473C16.2851 14.7978 17.0119 14.0516 17.742 13.3086C18.1719 12.8709 18.419 12.8636 18.8955 13.2669C19.372 13.6703 19.8795 14.1031 20.3047 14.4648C21.1286 14.1264 21.8917 13.8284 22.6393 13.4937C22.7143 13.4521 22.7798 13.3944 22.8313 13.3247C22.8828 13.2549 22.9191 13.1746 22.9378 13.0891C23.0226 12.5166 23.0572 11.9354 23.117 11.3568C23.1659 10.8529 23.3713 10.6542 23.8645 10.6469C24.1846 10.6469 24.5046 10.6469 24.833 10.6469V7.65782C24.4067 7.65782 24.0078 7.6664 23.6113 7.65782C23.437 7.65782 23.1982 7.65782 23.1062 7.55361C22.943 7.37491 22.8454 7.14341 22.8304 6.8989C22.8387 6.57033 23.1062 6.40849 23.4274 6.40849C23.8968 6.39991 24.3673 6.40849 24.8378 6.40849C24.8378 5.74398 24.876 5.16161 24.8306 4.58538C24.7631 3.69079 24.3686 2.85548 23.7264 2.24699C23.0841 1.6385 22.2414 1.30183 21.3675 1.30451C15.8257 1.29634 10.2831 1.29838 4.73972 1.31064C4.3383 1.30999 3.94012 1.38436 3.56465 1.5301C1.53454 2.35032 1.0091 4.12439 1.31123 6.40482H17.6918C18.4537 6.40482 18.7271 6.56788 18.7343 7.02519C18.7415 7.4825 18.4549 7.66886 17.6703 7.66886C12.3809 7.66886 7.09146 7.66559 1.80204 7.65905C1.36974 7.65905 1.22286 7.74241 1.22405 8.22915C1.23997 18.0023 1.24436 27.7754 1.23719 37.5485C1.23719 37.7116 1.25032 37.8759 1.25749 38.0512H24.8342L24.8378 36.3593ZM1.27182 39.3692C1.27182 40.4358 1.20853 41.462 1.28495 42.4772C1.35581 43.3646 1.75118 44.1916 2.39161 44.7921C3.03204 45.3925 3.87008 45.7218 4.73733 45.7139C10.2815 45.7237 15.8253 45.7237 21.3687 45.7139C22.2435 45.7196 23.0876 45.3833 23.7297 44.7733C24.3718 44.1633 24.7637 43.3252 24.8258 42.4294C24.8903 41.4706 24.8509 40.5033 24.8545 39.5396C24.8438 39.4802 24.8245 39.4227 24.7972 39.3692H1.27182ZM16.7723 30.7428L18.431 32.474C18.8621 32.1062 19.3302 31.7298 19.7756 31.3264C20.1196 31.0138 20.4217 31.0493 20.8265 31.2492C21.6923 31.6783 22.5855 32.0522 23.4872 32.3979C23.8657 32.5438 24.101 32.7204 24.1332 33.1544C24.1798 33.7895 24.2526 34.4221 24.3207 35.0511H26.6756C26.7401 34.4111 26.8201 33.8054 26.8559 33.1961C26.8822 32.7412 27.1091 32.55 27.5103 32.3979C28.4108 32.0559 29.3016 31.6795 30.1698 31.2504C30.5746 31.0493 30.8767 31.0162 31.2207 31.3264C31.6756 31.7359 32.1509 32.1221 32.5498 32.4593L34.2216 30.7354C33.8861 30.3198 33.5278 29.849 33.1469 29.4052C32.8316 29.0374 32.8412 28.726 33.0525 28.2895C33.4644 27.4298 33.8315 26.5483 34.1524 25.6486C34.3697 25.0479 34.4521 24.9326 35.0898 24.8799C35.6355 24.8345 36.1813 24.7708 36.7437 24.7132V22.2893C36.1622 22.2329 35.589 22.1593 35.0122 22.125C34.5345 22.0968 34.2861 21.8798 34.1213 21.4004C33.8069 20.483 33.4405 19.5852 33.0239 18.7117C32.8161 18.2753 32.8065 17.9577 33.1218 17.5948C33.5135 17.1436 33.8753 16.663 34.2455 16.2008L32.5737 14.5285C32.1306 14.9049 31.6553 15.296 31.1944 15.7043C30.8779 15.9838 30.5901 15.9593 30.2164 15.7803C29.3183 15.3512 28.4 14.9613 27.4697 14.5984C27.0864 14.4476 26.8822 14.2428 26.8559 13.8125C26.8177 13.1921 26.7365 12.5742 26.6732 11.9526H24.3171C24.2514 12.6036 24.1774 13.2228 24.1332 13.8456C24.1022 14.2796 23.8693 14.4586 23.4895 14.6057C22.5891 14.9515 21.6923 15.3193 20.8301 15.7533C20.4026 15.9679 20.0945 15.9728 19.7434 15.6528C19.3015 15.2482 18.8346 14.8743 18.468 14.5628L16.7759 16.2707C17.115 16.6912 17.4733 17.1596 17.859 17.6046C18.1754 17.9724 18.1456 18.2949 17.939 18.7252C17.5338 19.5708 17.175 20.4389 16.8642 21.3256C16.6433 21.9509 16.5693 22.0613 15.9005 22.1262C15.3428 22.1753 14.7864 22.2403 14.206 22.3003C14.206 23.0458 14.1917 23.7336 14.2203 24.4189C14.2409 24.4933 14.2791 24.5613 14.3317 24.6168C14.3842 24.6722 14.4494 24.7133 14.5212 24.7365C15.0072 24.8114 15.4967 24.8601 15.9877 24.8824C16.4773 24.9069 16.6982 25.1558 16.8571 25.6315C17.1602 26.5214 17.5135 27.3926 17.9151 28.2405C18.1862 28.8204 18.2196 28.9516 17.804 29.4665C17.441 29.9091 17.084 30.3554 16.7723 30.7428Z" fill="black"/>
<path d="M20.762 6.4023C20.9698 6.4023 21.18 6.38513 21.3865 6.4023C21.4621 6.40411 21.5365 6.4216 21.6053 6.45373C21.6741 6.48585 21.7359 6.53194 21.7869 6.58922C21.8378 6.64649 21.877 6.71377 21.902 6.787C21.927 6.86022 21.9373 6.93789 21.9323 7.01531C21.9323 7.35738 21.7448 7.60871 21.3937 7.62833C20.9626 7.65408 20.5304 7.65408 20.0992 7.62833C19.7481 7.60871 19.5559 7.36105 19.5535 7.01531C19.5481 6.93842 19.558 6.8612 19.5824 6.78831C19.6068 6.71541 19.6453 6.64832 19.6956 6.59107C19.7459 6.53383 19.807 6.4876 19.8751 6.45516C19.9432 6.42273 20.017 6.40474 20.0921 6.4023C20.3152 6.39064 20.5388 6.39064 20.762 6.4023Z" fill="black"/>
<path d="M18.0847 23.5154C18.0826 22.5152 18.2725 21.5243 18.6435 20.5995C19.0146 19.6746 19.5594 18.8339 20.2469 18.1253C20.9345 17.4167 21.7513 16.854 22.6507 16.4696C23.55 16.0851 24.5144 15.8863 25.4886 15.8845C27.4553 15.8842 29.342 16.6839 30.7357 18.1085C32.1294 19.5332 32.9165 21.4668 32.9247 23.4859C32.9229 25.5059 32.1416 27.4428 30.752 28.8727C29.3623 30.3026 27.4775 31.1091 25.5101 31.1155C24.5361 31.1184 23.5711 30.924 22.6704 30.5434C21.7697 30.1628 20.951 29.6034 20.2612 28.8974C19.5715 28.1914 19.0241 27.3526 18.6507 26.429C18.2772 25.5055 18.0848 24.5153 18.0847 23.5154ZM19.3266 23.5006C19.325 24.3321 19.4832 25.1558 19.7919 25.9245C20.1006 26.6933 20.554 27.392 21.1259 27.9807C21.6979 28.5694 22.3773 29.0365 23.1253 29.3554C23.8732 29.6744 24.6751 29.8388 25.485 29.8392C27.121 29.8425 28.6915 29.1802 29.8529 27.9973C31.0143 26.8143 31.6718 25.2072 31.6816 23.5276C31.6838 22.6919 31.5252 21.8641 31.2149 21.0915C30.9045 20.3189 30.4486 19.6169 29.8733 19.0258C29.2979 18.4346 28.6145 17.966 27.8623 17.6468C27.11 17.3276 26.3037 17.1641 25.4898 17.1657C24.6799 17.1661 23.878 17.3302 23.13 17.6487C22.3819 17.9673 21.7023 18.4341 21.1299 19.0223C20.5576 19.6106 20.1038 20.3089 19.7943 21.0773C19.4849 21.8457 19.326 22.6692 19.3266 23.5006Z" fill="black"/>
<path d="M24.864 24.5378C25.7947 23.5071 26.725 22.4764 27.6548 21.4458C27.7659 21.3232 27.8937 21.1466 28.0274 21.1393C28.2663 21.1245 28.5863 21.1392 28.7368 21.2876C28.8669 21.4163 28.8407 21.7474 28.8239 21.984C28.8156 22.0943 28.6735 22.2022 28.5791 22.2978C27.4837 23.3988 26.3878 24.4982 25.2916 25.5959C24.8019 26.0863 24.5464 26.0789 24.0508 25.5848C23.5063 25.0413 22.9641 24.4965 22.4243 23.9505C21.9897 23.5116 21.9323 23.1659 22.238 22.8557C22.5258 22.5651 22.8829 22.6105 23.277 23.031C23.72 23.5043 24.1368 24.0033 24.5655 24.4912L24.864 24.5378Z" fill="black"/>
</g>
<defs>
<clipPath id="clip0_21_348">
<rect width="38" height="47" fill="white"/>
</clipPath>
</defs>
</svg>
