<svg width="336" height="313" viewBox="0 0 336 313" fill="none" xmlns="http://www.w3.org/2000/svg">
<g clip-path="url(#clip0_407_3242)">
<path d="M312.001 61.2095C310.821 59.2557 309.598 57.3375 308.326 55.4622C291.304 30.5192 262.972 13.4412 235.441 5.71161C223.38 2.31742 210.991 0.541889 198.63 0.0926582C117.538 -2.84517 87.7479 63.8407 61.618 81.0398C35.4881 98.2318 -4.60403 127.603 0.428932 189.305C4.24655 236.217 30.9984 281.069 79.8625 301.477C85.2457 303.73 90.9006 305.691 96.8201 307.317C107.837 310.34 119.769 312.237 132.637 312.807C169.584 314.447 199.581 305.57 228.921 283.201C235.741 278.003 242.526 272.134 251.376 271.492C257.81 271.029 263.909 273.332 257.181 279.536C249.274 286.823 258.397 301.163 278.464 291.202C311.972 274.566 325.763 238.677 332.254 202.182C340.225 157.388 336.365 101.676 312.001 61.2237V61.2095Z" fill="#E2E2E2"/>
<path opacity="0.7" d="M312.001 61.2095C310.821 59.2557 309.598 57.3375 308.326 55.4622C291.304 30.5192 262.972 13.4412 235.441 5.71161C223.38 2.31742 210.991 0.541889 198.63 0.0926582C117.538 -2.84517 87.7479 63.8407 61.618 81.0398C35.4881 98.2318 -4.60403 127.603 0.428932 189.305C4.24655 236.217 30.9984 281.069 79.8625 301.477C85.2457 303.73 90.9006 305.691 96.8201 307.317C107.837 310.34 119.769 312.237 132.637 312.807C169.584 314.447 199.581 305.57 228.921 283.201C235.741 278.003 242.526 272.134 251.376 271.492C257.81 271.029 263.909 273.332 257.181 279.536C249.274 286.823 258.397 301.163 278.464 291.202C311.972 274.566 325.763 238.677 332.254 202.182C340.225 157.388 336.365 101.676 312.001 61.2237V61.2095Z" fill="#E2E2E2"/>
<g opacity="0.3">
<path d="M74.2218 7.16626H11.5601V97.1765H74.2218V7.16626Z" stroke="black" stroke-linecap="round" stroke-linejoin="round"/>
<path d="M53.4252 37.0508H32.3711V67.2919H53.4252V37.0508Z" stroke="black" stroke-linecap="round" stroke-linejoin="round"/>
</g>
<g opacity="0.3">
<path d="M290.375 13.042H252.649V55.4765H290.375V13.042Z" stroke="black" stroke-linecap="round" stroke-linejoin="round"/>
<path d="M277.849 27.1321H265.174V41.3934H277.849V27.1321Z" stroke="black" stroke-linecap="round" stroke-linejoin="round"/>
</g>
<g opacity="0.3">
<path d="M21.3972 253.573H238.172V113.271H306.474V300.343" stroke="black" stroke-linecap="round" stroke-linejoin="round"/>
<path d="M302.728 116.073H241.775V159.57H302.728V116.073Z" stroke="black" stroke-linecap="round" stroke-linejoin="round"/>
<path d="M302.728 163.313H241.775V206.81H302.728V163.313Z" stroke="black" stroke-linecap="round" stroke-linejoin="round"/>
<path d="M302.728 210.547H241.775V254.044H302.728V210.547Z" stroke="black" stroke-linecap="round" stroke-linejoin="round"/>
<path d="M280.823 120.03H270.729V159.527H280.823V120.03Z" stroke="black" stroke-linecap="round" stroke-linejoin="round"/>
<path d="M280.823 214.69H270.729V254.186H280.823V214.69Z" stroke="black" stroke-linecap="round" stroke-linejoin="round"/>
<path d="M290.782 214.69H280.688V254.186H290.782V214.69Z" stroke="black" stroke-linecap="round" stroke-linejoin="round"/>
<path d="M300.741 214.69H290.646V254.186H300.741V214.69Z" stroke="black" stroke-linecap="round" stroke-linejoin="round"/>
<path d="M260.536 118.402L250.187 156.659L259.967 159.291L270.316 121.034L260.536 118.402Z" stroke="black" stroke-linecap="round" stroke-linejoin="round"/>
<path d="M251.969 212.836L242.189 215.468L252.538 253.725L262.319 251.093L251.969 212.836Z" stroke="black" stroke-linecap="round" stroke-linejoin="round"/>
<path d="M291.318 120.03H281.224V159.527H291.318V120.03Z" stroke="black" stroke-linecap="round" stroke-linejoin="round"/>
<path d="M301.813 120.03H291.719V159.527H301.813V120.03Z" stroke="black" stroke-linecap="round" stroke-linejoin="round"/>
<path d="M301.627 200.642C301.627 204.022 298.875 206.775 295.486 206.775H254.164C253.571 206.775 253.092 206.29 253.092 205.705C253.092 205.12 253.571 204.635 254.164 204.635H295.486C297.688 204.635 299.482 202.846 299.482 200.642C299.482 198.439 297.688 196.656 295.486 196.656H254.164C253.571 196.656 253.092 196.179 253.092 195.587C253.092 194.995 253.571 194.517 254.164 194.517H295.486C298.875 194.517 301.627 197.262 301.627 200.642Z" stroke="black" stroke-linecap="round" stroke-linejoin="round"/>
<path d="M284.112 198.753V202.482C284.112 203.316 283.79 204.072 283.268 204.635H255.287C255.809 204.072 256.13 203.316 256.13 202.482V198.753C256.13 197.947 255.83 197.212 255.33 196.656H283.311C283.812 197.212 284.112 197.947 284.112 198.753Z" stroke="black" stroke-linecap="round" stroke-linejoin="round"/>
<path d="M299.482 200.642C299.482 202.846 297.688 204.635 295.486 204.635H283.268C283.79 204.072 284.112 203.316 284.112 202.482V198.753C284.112 197.947 283.812 197.212 283.311 196.656H295.486C297.688 196.656 299.482 198.446 299.482 200.642Z" stroke="black" stroke-linecap="round" stroke-linejoin="round"/>
<path d="M282.997 194.646C282.997 194.646 282.089 194.824 282.182 195.644C282.275 196.457 283.318 196.663 283.318 196.663" stroke="black" stroke-linecap="round" stroke-linejoin="round"/>
<path d="M282.932 204.614C282.932 204.614 282.096 204.807 282.175 205.684C282.253 206.561 283.225 206.775 283.225 206.775" stroke="black" stroke-linecap="round" stroke-linejoin="round"/>
<path d="M301.627 188.356C301.627 191.736 298.875 194.489 295.486 194.489H254.164C253.571 194.489 253.092 194.004 253.092 193.419C253.092 192.834 253.571 192.349 254.164 192.349H295.486C297.688 192.349 299.482 190.56 299.482 188.356C299.482 186.153 297.688 184.37 295.486 184.37H254.164C253.571 184.37 253.092 183.892 253.092 183.301C253.092 182.709 253.571 182.231 254.164 182.231H295.486C298.875 182.231 301.627 184.976 301.627 188.356Z" stroke="black" stroke-linecap="round" stroke-linejoin="round"/>
<path d="M284.112 186.467V190.196C284.112 191.03 283.79 191.786 283.268 192.349H255.287C255.809 191.786 256.13 191.03 256.13 190.196V186.467C256.13 185.661 255.83 184.926 255.33 184.37H283.311C283.812 184.926 284.112 185.661 284.112 186.467Z" stroke="black" stroke-linecap="round" stroke-linejoin="round"/>
<path d="M299.482 188.356C299.482 190.56 297.688 192.349 295.486 192.349H283.268C283.79 191.786 284.112 191.03 284.112 190.196V186.467C284.112 185.661 283.812 184.926 283.311 184.37H295.486C297.688 184.37 299.482 186.16 299.482 188.356Z" stroke="black" stroke-linecap="round" stroke-linejoin="round"/>
<path d="M282.997 182.352C282.997 182.352 282.089 182.531 282.182 183.351C282.275 184.163 283.318 184.37 283.318 184.37" stroke="black" stroke-linecap="round" stroke-linejoin="round"/>
<path d="M282.932 192.328C282.932 192.328 282.096 192.52 282.175 193.397C282.26 194.275 283.225 194.488 283.225 194.488" stroke="black" stroke-linecap="round" stroke-linejoin="round"/>
<path d="M266.132 93.6184H247.451L249.317 113.221H264.266L266.132 93.6184Z" stroke="black" stroke-linecap="round" stroke-linejoin="round"/>
<path d="M250.425 93.49H264.988L268.219 88.2703L263.808 92.0211L267.569 81.2609L262.822 86.1525L264.459 79.136L261.678 83.7067L262.171 75.8773L258.74 86.9654L257.589 73.4315L255.959 82.0738L254.322 67.3989L253.342 80.4409L250.89 71.3065L253.342 90.8802L246.965 77.0182L250.232 90.8802L244.349 85.9885L250.425 93.49Z" stroke="black" stroke-linecap="round" stroke-linejoin="round"/>
<path d="M302.549 260.839H242.218V293.619H302.549V260.839Z" stroke="black" stroke-linecap="round" stroke-linejoin="round"/>
<path d="M237.772 260.839H107.358V293.619H237.772V260.839Z" stroke="black" stroke-linecap="round" stroke-linejoin="round"/>
<path d="M102.925 260.839H24.6215V293.619H102.925V260.839Z" stroke="black" stroke-linecap="round" stroke-linejoin="round"/>
<path d="M277.313 276.092H267.648V278.687H277.313V276.092Z" stroke="black" stroke-linecap="round" stroke-linejoin="round"/>
</g>
<g opacity="0.3">
<path d="M215.981 146.007H29.8331V245.623H215.981V146.007Z" stroke="black" stroke-linecap="round" stroke-linejoin="round"/>
<path d="M212.614 148.802H33.2003V242.82H212.614V148.802Z" stroke="black" stroke-linecap="round" stroke-linejoin="round"/>
<path d="M35.631 245.694L33.7794 253.502H37.2825L39.7489 245.694H35.631Z" stroke="black" stroke-linecap="round" stroke-linejoin="round"/>
<path d="M210.948 245.694L212.793 253.502H209.29L206.823 245.694H210.948Z" stroke="black" stroke-linecap="round" stroke-linejoin="round"/>
</g>
<path d="M248.266 249.551L233.532 253.994L241.525 276.391L256.259 271.949C257.946 271.35 257.524 265.852 255.315 259.663C253.106 253.48 249.954 248.953 248.266 249.551Z" fill="#B2B2B2" stroke="#263238" stroke-linecap="round" stroke-linejoin="round"/>
<path d="M240.588 264.112C242.797 270.295 243.219 275.799 241.532 276.398C239.845 276.997 236.685 272.469 234.483 266.287C232.274 260.105 231.852 254.6 233.539 254.001C235.226 253.402 238.386 257.93 240.588 264.112Z" fill="#263238" stroke="#263238" stroke-linecap="round" stroke-linejoin="round"/>
<path d="M188.221 185.811L190.609 198.895C190.609 198.895 198.959 211.388 203.334 221.499C207.71 231.611 219.241 244.703 221.429 246.485C223.616 248.268 229.979 252.04 231.566 254.614C233.153 257.188 236.535 265.324 236.535 265.324L220.235 271.671C220.235 271.671 217.054 268.298 215.466 263.542C213.879 258.786 212.886 255.014 212.886 255.014C212.886 255.014 197.179 243.312 192.01 239.547C186.841 235.782 185.254 233.8 185.254 233.8C185.254 233.8 179.492 207.031 178.498 200.286C177.505 193.54 183.667 186.602 188.243 185.811H188.221Z" fill="white" stroke="#263238" stroke-linecap="round" stroke-linejoin="round"/>
<path d="M235.798 261.303C235.798 261.303 239.266 268.94 238.98 269.945C238.694 270.95 236.092 271.671 234.933 271.385C233.775 271.1 231.902 263.171 231.902 262.743C231.902 262.315 234.211 260.005 235.806 261.303H235.798Z" fill="white" stroke="#263238" stroke-linecap="round" stroke-linejoin="round"/>
<path d="M231.03 263.028C231.03 263.028 234.497 270.665 234.204 271.671C233.918 272.676 231.316 273.396 230.158 273.111C229 272.826 227.127 264.896 227.127 264.469C227.127 264.041 229.436 261.73 231.03 263.028Z" fill="white" stroke="#263238" stroke-linecap="round" stroke-linejoin="round"/>
<path d="M226.548 264.725C226.548 264.725 229.707 271.692 229.443 272.605C229.178 273.525 226.812 274.181 225.754 273.917C224.703 273.653 222.987 266.43 222.987 266.03C222.987 265.631 225.096 263.534 226.54 264.718H226.548V264.725Z" fill="white" stroke="#263238" stroke-linecap="round" stroke-linejoin="round"/>
<path d="M222.751 266.28C222.751 266.28 225.618 272.598 225.382 273.439C225.146 274.273 222.994 274.872 222.036 274.63C221.078 274.387 219.527 267.834 219.527 267.478C219.527 267.121 221.443 265.21 222.758 266.287L222.751 266.28Z" fill="white" stroke="#263238" stroke-linecap="round" stroke-linejoin="round"/>
<path d="M221.357 250.207C221.357 250.207 222.944 249.487 225.111 249.63C227.277 249.772 233.346 251.505 234.211 252.653C235.076 253.808 237.243 261.73 236.378 262.308C235.513 262.886 226.555 266.201 225.254 266.629C223.952 267.064 223.666 264.469 224.389 263.314C225.111 262.158 226.991 261.153 226.991 261.153C226.991 261.153 223.237 260.868 221.793 258.557" fill="white"/>
<path d="M221.357 250.207C221.357 250.207 222.944 249.487 225.111 249.63C227.277 249.772 233.346 251.505 234.211 252.653C235.076 253.808 237.243 261.73 236.378 262.308C235.513 262.886 226.555 266.201 225.254 266.629C223.952 267.064 223.666 264.469 224.389 263.314C225.111 262.158 226.991 261.153 226.991 261.153C226.991 261.153 223.237 260.868 221.793 258.557" stroke="#263238" stroke-linecap="round" stroke-linejoin="round"/>
<path d="M232.91 259.142C230.458 258.707 226.991 261.16 226.991 261.16C226.991 261.16 229.157 257.267 230.744 256.696" stroke="#263238" stroke-linecap="round" stroke-linejoin="round"/>
<path d="M213.658 259.32L198.923 263.763L206.916 286.16L221.65 281.718C223.337 281.119 222.916 275.621 220.707 269.432C218.498 263.242 215.345 258.721 213.658 259.32Z" fill="#A8A8A8" stroke="#263238" stroke-linecap="round" stroke-linejoin="round"/>
<path d="M205.972 273.881C208.181 280.063 208.603 285.568 206.916 286.167C205.229 286.766 202.069 282.238 199.867 276.056C197.665 269.874 197.236 264.369 198.923 263.77C200.611 263.171 203.77 267.699 205.972 273.881Z" fill="#263238" stroke="#263238" stroke-linecap="round" stroke-linejoin="round"/>
<path d="M208.153 305.228L194.384 265.125C194.384 265.125 192.797 251.641 191.996 241.729C191.202 231.818 185.833 220.708 185.833 220.708C185.833 220.708 176.69 229.436 159.196 232.802C141.702 236.174 119.24 225.065 114.664 222.491L110.089 219.917C110.089 219.917 93.5887 247.277 93.7889 268.498C93.9891 289.711 100.152 305.377 100.152 305.377" fill="#263238"/>
<path d="M208.153 305.228L194.384 265.125C194.384 265.125 192.797 251.641 191.996 241.729C191.202 231.818 185.833 220.708 185.833 220.708C185.833 220.708 176.69 229.436 159.196 232.802C141.702 236.174 119.24 225.065 114.664 222.491L110.089 219.917C110.089 219.917 93.5887 247.277 93.7889 268.498C93.9891 289.711 100.152 305.377 100.152 305.377" stroke="#263238" stroke-linecap="round" stroke-linejoin="round"/>
<path d="M154.227 282.966L157.802 305.377" stroke="#8C8C8C" stroke-linecap="round" stroke-linejoin="round"/>
<path d="M156.215 292.884L168.54 281.775" stroke="#8C8C8C" stroke-linecap="round" stroke-linejoin="round"/>
<path d="M183.088 201.541C183.088 201.541 187.027 211.588 187.027 216.936C187.027 222.284 184.64 226.256 176.69 231.012C168.74 235.768 152.433 237.75 138.321 235.575C124.208 233.393 110.89 224.473 110.089 219.909C109.288 215.346 115.751 203.167 115.751 203.167C115.751 203.167 160.661 206.76 183.088 201.541Z" fill="white" stroke="#263238" stroke-linecap="round" stroke-linejoin="round"/>
<path d="M166.209 117.185C166.209 117.185 178.37 116.458 183.996 127.325C189.623 138.192 187.628 167.513 187.628 167.513C187.628 167.513 168.568 132.395 167.303 126.961C166.031 121.528 166.216 117.185 166.216 117.185H166.209Z" fill="white" stroke="#263238" stroke-linecap="round" stroke-linejoin="round"/>
<path d="M135.718 88.0349C135.718 88.0349 133.724 109.755 131.543 113.563C129.363 117.363 111.576 123.161 101.231 132.93C90.8864 142.706 98.3286 170.037 101.052 179.635C103.776 189.233 115.751 203.166 115.751 203.166C115.751 203.166 124.823 208.415 149.144 207.694C173.466 206.967 182.902 202.81 183.081 201.541C183.26 200.271 182.902 197.198 182.902 197.198C182.902 197.198 189.801 190.859 191.431 182.174C193.061 173.482 189.008 160.682 183.267 153.031C179.392 147.868 172.379 132.395 169.834 127.503C167.296 122.619 166.202 117.185 166.202 117.185C166.202 117.185 160.211 116.643 159.303 114.468C158.395 112.293 159.668 106.325 159.668 106.325C159.668 106.325 154.771 108.5 135.711 88.042H135.718V88.0349Z" fill="white" stroke="#263238" stroke-linecap="round" stroke-linejoin="round"/>
<path d="M144.64 103.002C144.64 103.002 145.884 106.938 150.038 110.668C154.192 114.397 159.31 114.468 159.31 114.468L159.675 106.325L144.64 103.002Z" fill="#263238" stroke="#263238" stroke-linecap="round" stroke-linejoin="round"/>
<path d="M169.841 127.503C167.303 122.619 166.209 117.185 166.209 117.185C166.209 117.185 163.95 116.978 161.998 116.315C162.392 118.454 163.771 124.359 168.39 135.104C174.381 149.045 177.204 151.163 177.591 157.217C178.284 168.005 168.79 172.968 155.721 170.073C142.653 167.178 137.534 156.824 135.354 150.307C133.173 143.79 131.357 139.811 128.276 131.846C126.403 127.004 124.001 122.12 122.979 119.175C120.691 120.365 118.117 121.685 115.479 123.139C117.445 125.435 123.672 133.5 128.641 148.688C134.632 166.971 117.753 189.24 111.218 192.314C110.182 192.799 109.302 193.269 108.523 193.711C112.198 199.031 115.758 203.174 115.758 203.174C115.758 203.174 124.83 208.422 149.151 207.702C173.473 206.974 182.909 202.817 183.088 201.548C183.267 200.279 182.909 197.205 182.909 197.205C182.909 197.205 189.808 190.866 191.438 182.181C193.068 173.489 188.715 159.555 183.274 153.038C179.135 148.089 172.386 132.402 169.841 127.51V127.503Z" fill="#7A7A7A" stroke="#263238" stroke-linecap="round" stroke-linejoin="round"/>
<path d="M158.96 117.399L159.632 122.319C159.632 122.319 163.221 122.769 167.031 120.979" stroke="#263238" stroke-linecap="round" stroke-linejoin="round"/>
<path d="M130.485 128.359C130.485 128.359 142.589 125.678 144.383 125.45C146.177 125.221 148.644 125.671 148.644 125.671" stroke="#263238" stroke-linecap="round" stroke-linejoin="round"/>
<path d="M145.491 200.072C151.375 200.364 164.894 200.4 178.82 196" stroke="#263238" stroke-linecap="round" stroke-linejoin="round"/>
<path d="M142.417 199.844C142.417 199.844 143.01 199.908 144.097 199.986" stroke="#263238" stroke-linecap="round" stroke-linejoin="round"/>
<path d="M166.881 201.384C164.894 201.683 162.792 201.919 160.619 202.047" stroke="#263238" stroke-linecap="round" stroke-linejoin="round"/>
<path d="M182.909 197.198C182.909 197.198 177.204 199.551 169.09 201.02" stroke="#263238" stroke-linecap="round" stroke-linejoin="round"/>
<path d="M162.406 35.9598C162.406 35.9598 161.019 28.9076 153.534 23.5097C146.049 18.1189 132.322 20.743 129.963 22.2619C127.604 23.7807 126.081 25.9983 126.081 25.9983L133.988 26.69C133.988 26.69 122.757 29.1786 119.704 34.5765C116.652 39.9673 117.488 43.4256 117.488 43.4256L121.234 41.2151C121.234 41.2151 116.244 47.8538 118.046 55.5977C119.847 63.3415 133.023 71.6416 140.229 68.5968C147.443 65.552 150.352 47.8538 153.541 45.0871C156.729 42.3204 161.72 42.0423 162.277 40.8016C162.835 39.5537 162.413 35.9598 162.413 35.9598H162.406Z" fill="#263238" stroke="#263238" stroke-linecap="round" stroke-linejoin="round"/>
<path d="M176.84 69.6165C176.84 69.6165 173.566 79.4354 176.139 91.258C178.713 103.088 173.937 107.979 171.5 109.127C169.062 110.275 168.361 109.598 168.361 109.598C168.361 109.598 172.965 107.965 174.052 103.908C175.138 99.8504 174.767 93.6254 174.767 93.6254C174.767 93.6254 171.743 102.368 170.055 105.983C168.368 109.598 166.073 109.434 166.073 109.434C166.073 109.434 175.217 98.7024 173.001 88.3986C170.785 78.0948 176.84 69.6165 176.84 69.6165Z" fill="#263238" stroke="#263238" stroke-linecap="round" stroke-linejoin="round"/>
<path d="M133.295 63.477C133.295 63.477 135.561 43.0049 149.795 37.7568C163.657 32.637 177.805 37.4787 183.489 47.5757C189.172 57.6727 185.154 69.153 183.624 74.5438C182.094 79.9346 178.913 83.2575 178.913 85.3325C178.913 87.4075 178.777 91.9711 176.969 94.8733C175.167 97.7755 164.908 106.211 161.855 107.872C158.803 109.534 154.227 110.775 150.21 108.151C146.192 105.526 134.961 95.565 133.988 89.0689C133.016 82.5658 132.88 73.4385 132.88 73.4385L133.295 63.4842V63.477Z" fill="white" stroke="#263238" stroke-linecap="round" stroke-linejoin="round"/>
<path d="M183.481 47.5757C177.798 37.4787 163.657 32.637 149.788 37.7568C135.554 43.0121 133.288 63.477 133.288 63.477L133.145 66.8284L135.225 67.349C135.225 67.349 138.971 66.1011 139.8 63.7551C140.63 61.4091 142.717 58.9277 145.205 57.5301C148.672 55.5905 150.574 53.1376 151.167 49.5081C152.14 43.5611 158.653 42.3133 166.281 45.5007C173.909 48.6809 173.902 49.2371 179.728 49.2371C183.117 49.2371 185.769 53.4656 186.413 60.1185C186.498 56.0469 185.791 51.6972 183.474 47.5757H183.481Z" fill="#263238" stroke="#263238" stroke-linecap="round" stroke-linejoin="round"/>
<path d="M162.963 71.0855C162.963 71.0855 159.639 66.3864 151.868 67.349" stroke="#263238" stroke-width="2" stroke-linecap="round" stroke-linejoin="round"/>
<path d="M151.868 74.4011C151.868 74.4011 153.813 77.7169 159.632 77.1678" stroke="#263238" stroke-linecap="round" stroke-linejoin="round"/>
<path d="M170.177 74.5438C170.177 74.5438 175.725 73.1604 178.22 78.2802" stroke="#263238" stroke-width="2" stroke-linecap="round" stroke-linejoin="round"/>
<path d="M168.926 80.0771C168.926 80.0771 170.313 83.2574 176.139 83.2574" stroke="#263238" stroke-linecap="round" stroke-linejoin="round"/>
<path d="M169.062 74.2656C169.062 74.2656 165.737 75.7845 165.594 77.3104C165.459 78.8292 165.873 86.4376 165.459 87.5429C165.044 88.6481 161.577 89.6179 159.36 86.5731" stroke="#263238" stroke-linecap="round" stroke-linejoin="round"/>
<path d="M151.868 87.4075C151.868 87.4075 154.778 93.4899 162.127 94.0461" stroke="#263238" stroke-linecap="round" stroke-linejoin="round"/>
<path d="M152.011 76.0627C152.011 76.0627 154.785 77.5816 157.695 77.8597" stroke="#263238" stroke-linecap="round" stroke-linejoin="round"/>
<path d="M169.205 81.4604C169.205 81.4604 171.421 83.671 174.338 83.671" stroke="#263238" stroke-linecap="round" stroke-linejoin="round"/>
<path d="M136.848 69.5024C136.848 69.5024 134.825 59.2342 130.964 61.4376C127.104 63.641 128.026 72.4402 130.042 75.7345C132.065 79.036 134.818 77.7525 134.818 77.7525" fill="white"/>
<path d="M136.848 69.5024C136.848 69.5024 134.825 59.2342 130.964 61.4376C127.104 63.641 128.026 72.4402 130.042 75.7345C132.065 79.036 134.818 77.7525 134.818 77.7525" stroke="#263238" stroke-linecap="round" stroke-linejoin="round"/>
<path d="M137.72 65.2239C137.72 65.2239 136.991 75.542 130.099 85.4964C123.2 95.4508 125.745 101.79 127.561 103.779C129.377 105.769 130.285 105.405 130.285 105.405C130.285 105.405 126.653 102.146 127.197 97.9821C127.74 93.8178 130.464 88.206 130.464 88.206C130.464 88.206 129.92 97.4402 130.099 101.419C130.278 105.405 132.458 106.125 132.458 106.125C132.458 106.125 128.105 92.7269 134.088 84.0417C140.079 75.3495 137.72 65.2168 137.72 65.2168V65.2239Z" fill="#263238" stroke="#263238" stroke-linecap="round" stroke-linejoin="round"/>
<path d="M166.588 151.733L151.339 149.637L149.23 173.318L164.479 175.414C166.266 175.571 168.182 170.401 168.761 163.862C169.348 157.324 168.368 151.89 166.588 151.733Z" fill="#9B9B9B" stroke="#263238" stroke-linecap="round" stroke-linejoin="round"/>
<path d="M153.512 161.766C152.926 168.305 151.01 173.482 149.23 173.317C147.45 173.153 146.471 167.727 147.057 161.188C147.643 154.649 149.559 149.473 151.339 149.637C153.126 149.793 154.099 155.227 153.512 161.766Z" fill="#263238" stroke="#263238" stroke-linecap="round" stroke-linejoin="round"/>
<path d="M108.709 128.066C108.709 128.066 94.9971 133.243 90.0142 145.465C85.0313 157.687 86.8972 176.127 93.3385 193.112C99.7799 210.097 107.465 226.676 113.899 228.33C120.341 229.985 127.611 210.304 130.928 203.887C134.246 197.469 142.767 180.683 143.182 178.616C143.597 176.548 149.623 169.916 151.697 167.841C153.77 165.766 153.355 162.044 153.148 160.796C152.94 159.555 150.653 150.849 150.031 150.022C149.409 149.195 148.372 149.608 147.536 149.195C146.706 148.781 139.021 146.706 139.021 146.706C139.021 146.706 135.49 144.845 133.831 145.672C132.172 146.499 131.751 147.747 131.751 147.747C131.751 147.747 132.165 153.131 130.714 157.067C129.263 161.003 125.938 165.766 126.56 166.593C127.182 167.42 131.129 173.018 131.129 173.018C131.129 173.018 127.182 180.89 122.199 186.901L118.668 173.439" fill="white"/>
<path d="M108.709 128.066C108.709 128.066 94.9971 133.243 90.0142 145.465C85.0313 157.687 86.8972 176.127 93.3385 193.112C99.7799 210.097 107.465 226.676 113.899 228.33C120.341 229.985 127.611 210.304 130.928 203.887C134.246 197.469 142.767 180.683 143.182 178.616C143.597 176.548 149.623 169.916 151.697 167.841C153.77 165.766 153.355 162.044 153.148 160.796C152.94 159.555 150.653 150.849 150.031 150.022C149.409 149.195 148.372 149.608 147.536 149.195C146.706 148.781 139.021 146.706 139.021 146.706C139.021 146.706 135.49 144.845 133.831 145.672C132.172 146.499 131.751 147.747 131.751 147.747C131.751 147.747 132.165 153.131 130.714 157.067C129.263 161.003 125.938 165.766 126.56 166.593C127.182 167.42 131.129 173.018 131.129 173.018C131.129 173.018 127.182 180.89 122.199 186.901L118.668 173.439" stroke="#263238" stroke-linecap="round" stroke-linejoin="round"/>
<path d="M143.189 178.616C143.246 178.323 143.425 177.938 143.682 177.489L143.575 177.111C136.04 176.933 131.143 173.018 131.143 173.018C131.143 173.018 127.197 180.89 122.214 186.901L119.39 191.273C124.037 197.861 129.877 199.508 132.987 199.908C136.891 192.257 142.846 180.341 143.196 178.623H143.189V178.616Z" fill="#A1A1A1" stroke="#263238" stroke-linecap="round" stroke-linejoin="round"/>
<path d="M119.39 191.272C119.39 191.272 104.141 202.289 103.44 208.579" stroke="#263238" stroke-linecap="round" stroke-linejoin="round"/>
<path d="M147.55 149.202C147.55 149.202 149.63 157.281 149.63 161.01" stroke="#263238" stroke-linecap="round" stroke-linejoin="round"/>
<path d="M143.811 148.581C143.811 148.581 144.848 155.833 145.262 159.149" stroke="#263238" stroke-linecap="round" stroke-linejoin="round"/>
<path d="M139.036 146.713C139.036 146.713 140.279 155.619 140.279 157.901" stroke="#263238" stroke-linecap="round" stroke-linejoin="round"/>
<path d="M140.001 160.425C140.001 160.425 139.243 161.06 138.607 161.816" stroke="#263238" stroke-linecap="round" stroke-linejoin="round"/>
<path d="M144.683 161.566C144.683 161.566 143.925 162.201 143.289 162.957" stroke="#263238" stroke-linecap="round" stroke-linejoin="round"/>
<path d="M149.366 162.7C149.366 162.7 148.608 163.335 147.972 164.09" stroke="#263238" stroke-linecap="round" stroke-linejoin="round"/>
<path d="M130.349 145.872L115.1 143.775L112.991 167.456L128.24 169.553C130.028 169.71 131.944 164.54 132.523 158.001C133.109 151.462 132.13 146.029 130.349 145.872Z" fill="#A0A0A0" stroke="#263238" stroke-linecap="round" stroke-linejoin="round"/>
<path d="M117.274 155.897C116.687 162.436 114.772 167.613 112.991 167.449C111.211 167.285 110.232 161.859 110.818 155.32C111.404 148.781 113.32 143.604 115.1 143.768C116.881 143.925 117.86 149.359 117.274 155.897Z" fill="#263238" stroke="#263238" stroke-linecap="round" stroke-linejoin="round"/>
<path d="M325.112 305.377H21.1398" stroke="#263238" stroke-linecap="round" stroke-linejoin="round"/>
<path d="M10.552 305.377H16.6001" stroke="#263238" stroke-linecap="round" stroke-linejoin="round"/>
</g>
<defs>
<clipPath id="clip0_407_3242">
<rect width="336" height="313" fill="white"/>
</clipPath>
</defs>
</svg>
