<svg width="303" height="348" viewBox="0 0 303 348" fill="none" xmlns="http://www.w3.org/2000/svg">
<g clip-path="url(#clip0_95_385)">
<path d="M231.21 114.84L227.21 136.58L194.59 156.4L199.1 164.68C199.1 164.68 236.81 153.18 237.73 150.49C238.65 147.8 247.34 119.31 247.34 119.31L231.21 114.84Z" fill="#263238"/>
<path d="M245.5 78.0798L243.32 104.44L242.17 118.27C235.88 121.33 229.73 116.73 229.35 116.43C231.06 111.41 233.05 83.0798 245.5 78.0798Z" fill="#999999" stroke="#263238" stroke-linecap="round" stroke-linejoin="round"/>
<path d="M243.28 104.44L242.13 118.27C235.84 121.33 229.69 116.73 229.31 116.43C229.58 116.55 232.89 117.95 235.04 116.43C234.29 115.62 233.62 114.73 233.04 113.79C232.91 113.27 235.04 113.13 235.04 113.13C235.04 113.13 233.64 101.92 237.37 97.1299C238.83 95.3099 241.11 99.1099 243.28 104.44Z" fill="#263238"/>
<path d="M268.09 322.19L269.09 325.13C267.57 327.63 265.88 330.02 264.01 332.27C264.01 332.27 263.01 331.95 261.37 333.4C260.36 334.41 259.74 335.74 259.61 337.16C259.61 337.16 251.97 346.32 242.28 346.45C232.59 346.58 235.51 341.7 235.51 341.7L268.09 322.19Z" fill="#263238" stroke="#263238" stroke-linecap="round" stroke-linejoin="round"/>
<path d="M258.98 298.88C258.98 298.88 245.98 294.09 243.44 303.67C243.44 303.67 245.76 314.22 244.37 319.99C242.98 325.76 235.98 336.78 235.55 338.87C234.7 342.97 235.34 343.25 235.34 343.25C235.34 343.25 240.43 346.19 247.27 343.04C254.11 339.89 265.95 326.33 267.8 323.54C269.65 320.75 262 309.75 262 309.75L258.98 298.88Z" fill="white"/>
<mask id="mask0_95_385" style="mask-type:luminance" maskUnits="userSpaceOnUse" x="235" y="297" width="34" height="48">
<path d="M258.98 298.88C258.98 298.88 245.98 294.09 243.44 303.67C243.44 303.67 245.76 314.22 244.37 319.99C242.98 325.76 235.98 336.78 235.55 338.87C234.7 342.97 235.34 343.25 235.34 343.25C235.34 343.25 240.43 346.19 247.27 343.04C254.11 339.89 265.95 326.33 267.8 323.54C269.65 320.75 262 309.75 262 309.75L258.98 298.88Z" fill="white"/>
</mask>
<g mask="url(#mask0_95_385)">
<path opacity="0.4" d="M258.98 298.88C258.98 298.88 245.98 294.09 243.44 303.67C243.44 303.67 245.76 314.22 244.37 319.99C242.98 325.76 235.98 336.78 235.55 338.87C234.7 342.97 235.34 343.25 235.34 343.25C235.34 343.25 240.43 346.19 247.27 343.04C254.11 339.89 265.95 326.33 267.8 323.54C269.65 320.75 262 309.75 262 309.75L258.98 298.88Z" fill="#263238"/>
</g>
<path d="M258.98 298.88C258.98 298.88 245.98 294.09 243.44 303.67C243.44 303.67 245.76 314.22 244.37 319.99C242.98 325.76 235.98 336.78 235.55 338.87C234.7 342.97 235.34 343.25 235.34 343.25C235.34 343.25 240.43 346.19 247.27 343.04C254.11 339.89 265.95 326.33 267.8 323.54C269.65 320.75 262 309.75 262 309.75L258.98 298.88Z" stroke="#263238" stroke-linecap="round" stroke-linejoin="round"/>
<path d="M252.33 312.43C253.46 318.88 252.31 325.53 249.08 331.23" stroke="#263238" stroke-linecap="round" stroke-linejoin="round"/>
<path d="M249.08 333.75C248.1 336.22 246.06 338.11 243.52 338.89C240.9 339.59 238.14 339.59 235.52 338.89L238.64 332.57C241.95 333.89 245.56 334.3 249.08 333.75Z" fill="#263238" stroke="#263238" stroke-linecap="round" stroke-linejoin="round"/>
<path d="M250.92 329.92C250.92 329.92 244.12 330.33 240.57 328.92" stroke="#263238" stroke-linecap="round" stroke-linejoin="round"/>
<path d="M252.18 326.17C252.18 326.17 245.82 327.17 242.27 325.17" stroke="#263238" stroke-linecap="round" stroke-linejoin="round"/>
<path d="M253.26 322C253.26 322 247.69 322.81 244.05 321.09" stroke="#263238" stroke-linecap="round" stroke-linejoin="round"/>
<path d="M253.88 317.28C253.88 317.28 247.68 319.22 244.75 317.28" stroke="#263238" stroke-linecap="round" stroke-linejoin="round"/>
<path d="M254.81 305.62L255.89 312.43C255.89 312.43 247.69 317.83 242.27 311.08V303.97C242.27 303.97 244.31 308.75 254.81 305.62Z" fill="#263238" stroke="#263238" stroke-linecap="round" stroke-linejoin="round"/>
<path d="M247.69 152.75C239.38 179.08 213.59 221.31 216.2 232.12C217.63 238.02 226.14 271.45 232.8 286.12C235.33 291.73 240.8 295.48 240.8 295.48L244.75 303.95C254.38 308.14 257.83 299.62 257.83 299.62L255.89 290.02C261.05 280.64 258.89 280.64 252.18 232.02C251.39 226.29 264.68 208.58 264.68 208.58L271.5 253.14L272.61 289.64L276.15 300.92C276.15 300.92 277.03 311.51 276.95 312.15H292.78L294.5 300.51C294.5 300.51 301.85 293.58 301.85 285.58C301.85 277.58 300.27 236.83 301.85 224.96C303.43 213.09 298.15 157.75 298.15 157.75L247.69 152.75Z" fill="#263238"/>
<path d="M140.08 129.29L162.08 131.27C163.12 131.36 163.88 132.28 163.79 133.32L162.38 149.02L136.62 146.7L138.03 131C138.12 129.96 139.04 129.2 140.08 129.29Z" fill="#263238"/>
<mask id="mask1_95_385" style="mask-type:luminance" maskUnits="userSpaceOnUse" x="136" y="129" width="28" height="21">
<path d="M140.08 129.29L162.08 131.27C163.12 131.36 163.88 132.28 163.79 133.32L162.38 149.02L136.62 146.7L138.03 131C138.12 129.96 139.04 129.2 140.08 129.29Z" fill="white"/>
</mask>
<g mask="url(#mask1_95_385)">
<path opacity="0.3" d="M140.08 129.29L162.08 131.27C163.12 131.36 163.88 132.28 163.79 133.32L162.38 149.02L136.62 146.7L138.03 131C138.12 129.96 139.04 129.2 140.08 129.29Z" fill="black"/>
<path opacity="0.3" d="M156.116 130.454L155.033 143.067L161.34 143.609L162.423 130.996L156.116 130.454Z" fill="black"/>
</g>
<path d="M140.08 129.29L162.08 131.27C163.12 131.36 163.88 132.28 163.79 133.32L162.38 149.02L136.62 146.7L138.03 131C138.12 129.96 139.04 129.2 140.08 129.29Z" stroke="#263238" stroke-linecap="round" stroke-linejoin="round"/>
<path d="M178.05 130.68L199.97 132.56C201 132.65 201.77 133.56 201.68 134.59L200.34 150.23L174.67 148.03L176.01 132.39C176.1 131.36 177.01 130.59 178.04 130.68H178.05Z" fill="#263238"/>
<mask id="mask2_95_385" style="mask-type:luminance" maskUnits="userSpaceOnUse" x="174" y="130" width="28" height="21">
<path d="M178.05 130.68L199.97 132.56C201 132.65 201.77 133.56 201.68 134.59L200.34 150.23L174.67 148.03L176.01 132.39C176.1 131.36 177.01 130.59 178.04 130.68H178.05Z" fill="white"/>
</mask>
<g mask="url(#mask2_95_385)">
<path opacity="0.3" d="M178.05 130.68L199.97 132.56C201 132.65 201.77 133.56 201.68 134.59L200.34 150.23L174.67 148.03L176.01 132.39C176.1 131.36 177.01 130.59 178.04 130.68H178.05Z" fill="black"/>
<path opacity="0.3" d="M196.039 133.898L194.956 146.511L198.762 146.838L199.845 134.225L196.039 133.898Z" fill="black"/>
</g>
<path d="M178.05 130.68L199.97 132.56C201 132.65 201.77 133.56 201.68 134.59L200.34 150.23L174.67 148.03L176.01 132.39C176.1 131.36 177.01 130.59 178.04 130.68H178.05Z" stroke="#263238" stroke-linecap="round" stroke-linejoin="round"/>
<path d="M170.09 129.99L192.01 131.87C193.04 131.96 193.81 132.87 193.72 133.9L192.38 149.54L166.71 147.34L168.05 131.7C168.14 130.67 169.05 129.9 170.08 129.99H170.09Z" fill="#263238" stroke="#263238" stroke-linecap="round" stroke-linejoin="round"/>
<path d="M207.94 133.25L229.86 135.13C230.89 135.22 231.66 136.13 231.57 137.16L230.23 152.79L204.56 150.59L205.9 134.95C205.99 133.92 206.9 133.16 207.93 133.25H207.94Z" fill="#263238" stroke="#263238" stroke-linecap="round" stroke-linejoin="round"/>
<path opacity="0.3" d="M186.005 133.022L184.922 145.636L191.228 146.178L192.312 133.564L186.005 133.022Z" fill="black"/>
<path opacity="0.3" d="M223.447 136.235L222.364 148.849L228.67 149.391L229.754 136.777L223.447 136.235Z" fill="black"/>
<path d="M241.69 150.14L235.5 222.07L119.61 212.07L125.8 140.15C126.01 137.65 128.21 135.8 130.71 136.01C130.71 136.01 130.71 136.01 130.72 136.01L237.54 145.19C240.04 145.39 241.9 147.59 241.69 150.08C241.69 150.1 241.69 150.12 241.69 150.14Z" fill="#263238"/>
<mask id="mask3_95_385" style="mask-type:luminance" maskUnits="userSpaceOnUse" x="119" y="135" width="123" height="88">
<path d="M241.69 150.14L235.5 222.07L119.61 212.07L125.8 140.15C126.01 137.65 128.21 135.8 130.71 136.01C130.71 136.01 130.71 136.01 130.72 136.01L237.54 145.19C240.04 145.39 241.9 147.59 241.69 150.08C241.69 150.1 241.69 150.12 241.69 150.14Z" fill="white"/>
</mask>
<g mask="url(#mask3_95_385)">
<path opacity="0.3" d="M241.69 150.14L235.5 222.07L119.61 212.07L125.8 140.15C126.01 137.65 128.21 135.8 130.71 136.01C130.71 136.01 130.71 136.01 130.72 136.01L237.54 145.19C240.04 145.39 241.9 147.59 241.69 150.08C241.69 150.1 241.69 150.12 241.69 150.14Z" fill="black"/>
</g>
<path d="M241.69 150.14L235.5 222.07L119.61 212.07L125.8 140.15C126.01 137.65 128.21 135.8 130.71 136.01C130.71 136.01 130.71 136.01 130.72 136.01L237.54 145.19C240.04 145.39 241.9 147.59 241.69 150.08C241.69 150.1 241.69 150.12 241.69 150.14Z" stroke="#263238" stroke-linecap="round" stroke-linejoin="round"/>
<path d="M241.69 150.14L235.5 222.07L149.5 214.67L155.7 142.75C155.91 140.25 158.11 138.4 160.61 138.61C160.61 138.61 160.61 138.61 160.62 138.61L237.55 145.22C240.05 145.43 241.9 147.63 241.69 150.13C241.69 150.13 241.69 150.13 241.69 150.14Z" fill="#263238" stroke="#263238" stroke-linecap="round" stroke-linejoin="round"/>
<path opacity="0.3" d="M235.65 152.2L162.14 145.88C161.12 145.79 160.36 144.9 160.43 143.88C160.52 142.86 161.41 142.1 162.43 142.17L235.94 148.49C236.96 148.58 237.72 149.47 237.65 150.49C237.56 151.51 236.67 152.27 235.65 152.2Z" fill="black"/>
<path d="M293.3 312.56C293.3 312.56 287.76 308.61 276.3 309.4C276.3 309.4 275.46 323.15 273.9 327.15C272.34 331.15 264.12 338.08 262.59 339.27C261.06 340.46 261.06 344.61 261.06 344.61H295.88C295.43 338.66 294.51 332.75 293.11 326.95L293.3 312.56Z" fill="white"/>
<mask id="mask4_95_385" style="mask-type:luminance" maskUnits="userSpaceOnUse" x="261" y="309" width="35" height="36">
<path d="M293.3 312.56C293.3 312.56 287.76 308.61 276.3 309.4C276.3 309.4 275.46 323.15 273.9 327.15C272.34 331.15 264.12 338.08 262.59 339.27C261.06 340.46 261.06 344.61 261.06 344.61H295.88C295.43 338.66 294.51 332.75 293.11 326.95L293.3 312.56Z" fill="white"/>
</mask>
<g mask="url(#mask4_95_385)">
<path opacity="0.4" d="M293.3 312.56C293.3 312.56 287.76 308.61 276.3 309.4C276.3 309.4 275.46 323.15 273.9 327.15C272.34 331.15 264.12 338.08 262.59 339.27C261.06 340.46 261.06 344.61 261.06 344.61H295.88C295.43 338.66 294.51 332.75 293.11 326.95L293.3 312.56Z" fill="#263238"/>
</g>
<path d="M293.3 312.56C293.3 312.56 287.76 308.61 276.3 309.4C276.3 309.4 275.46 323.15 273.9 327.15C272.34 331.15 264.12 338.08 262.59 339.27C261.06 340.46 261.06 344.61 261.06 344.61H295.88C295.43 338.66 294.51 332.75 293.11 326.95L293.3 312.56Z" stroke="#263238" stroke-linecap="round" stroke-linejoin="round"/>
<path d="M286.11 314.34C286.11 314.34 285.29 327 283.32 330.34C282.27 332.18 280.97 333.86 279.46 335.34" stroke="#263238" stroke-linecap="round" stroke-linejoin="round"/>
<path d="M278.5 337.09C278.5 337.09 276.75 339.27 274.81 339.56C272.87 339.85 262.62 339.27 262.62 339.27L266.8 335.65C266.8 335.65 275.3 334.22 278.5 337.09Z" fill="#263238" stroke="#263238" stroke-linecap="round" stroke-linejoin="round"/>
<path d="M282.12 334.12C282.12 334.12 274.7 329.86 269.41 333.12" stroke="#263238" stroke-linecap="round" stroke-linejoin="round"/>
<path d="M283.91 331.23C283.91 331.23 278.73 327.18 272.62 329.4" stroke="#263238" stroke-linecap="round" stroke-linejoin="round"/>
<path d="M286.11 326.82C286.11 326.82 280.53 322.48 274.65 325.24" stroke="#263238" stroke-linecap="round" stroke-linejoin="round"/>
<path d="M286.87 321.31C286.87 321.31 280.1 317.67 275.18 320.43" stroke="#263238" stroke-linecap="round" stroke-linejoin="round"/>
<path d="M295.87 344.61V347.18H291.87C291.87 347.18 288.44 345.18 285.18 347.18H266.4C264.42 347.18 262.46 346.73 260.66 345.89L261.05 344.61H295.87Z" fill="#263238" stroke="#263238" stroke-linecap="round" stroke-linejoin="round"/>
<path d="M290.88 311.75L289.99 317.36C289.99 317.36 279.54 313.97 273.77 316.17V309.27C273.77 309.27 284.5 305.51 290.88 311.75Z" fill="#263238" stroke="#263238" stroke-linecap="round" stroke-linejoin="round"/>
<path d="M302.18 171.98C302.18 171.98 279.97 176.33 258.18 169.27C253.22 167.69 248.47 165.5 244.05 162.75C244.05 162.75 244.11 161.35 244.15 159.06C244.33 150.12 244.28 127.63 239.57 122.06C236.57 118.55 234.22 96.8499 240.01 85.8799L257.72 71.6399C282.24 76.4299 287.42 82.9199 291.47 96.9199C292.22 99.4799 292.92 102.29 293.7 105.39C294.55 108.77 295.35 112.9 296.11 117.39C299.79 139.75 302.18 171.98 302.18 171.98Z" fill="#999999"/>
<mask id="mask5_95_385" style="mask-type:luminance" maskUnits="userSpaceOnUse" x="236" y="71" width="67" height="103">
<path d="M302.18 171.98C302.18 171.98 279.97 176.33 258.18 169.27C253.22 167.69 248.47 165.5 244.05 162.75C244.05 162.75 244.11 161.35 244.15 159.06C244.33 150.12 244.28 127.63 239.57 122.06C236.57 118.55 234.22 96.8499 240.01 85.8799L257.72 71.6399C282.24 76.4299 287.42 82.9199 291.47 96.9199C292.22 99.4799 292.92 102.29 293.7 105.39C294.55 108.77 295.35 112.9 296.11 117.39C299.79 139.75 302.18 171.98 302.18 171.98Z" fill="white"/>
</mask>
<g mask="url(#mask5_95_385)">
<path opacity="0.2" d="M296.11 117.39L286.11 162.06C286.11 162.06 271.66 166.06 258.19 169.27C253.23 167.69 248.48 165.5 244.05 162.75C244.05 162.75 244.11 161.35 244.15 159.06C256.25 152.87 273.91 143.77 273.77 143.34C273.54 142.67 273.77 119.34 273.77 119.34C273.77 119.34 289.77 115.63 291.47 96.8899C292.22 99.4499 292.92 102.26 293.7 105.36C294.55 108.75 295.35 112.85 296.11 117.39Z" fill="black"/>
</g>
<path d="M302.18 171.98C302.18 171.98 279.97 176.33 258.18 169.27C253.22 167.69 248.47 165.5 244.05 162.75C244.05 162.75 244.11 161.35 244.15 159.06C244.33 150.12 244.28 127.63 239.57 122.06C236.57 118.55 234.22 96.8499 240.01 85.8799L257.72 71.6399C282.24 76.4299 287.42 82.9199 291.47 96.9199C292.22 99.4799 292.92 102.29 293.7 105.39C294.55 108.77 295.35 112.9 296.11 117.39C299.79 139.75 302.18 171.98 302.18 171.98Z" stroke="#263238" stroke-linecap="round" stroke-linejoin="round"/>
<path d="M258.5 52.95C258.5 52.95 250.68 64.15 261.08 72.8899C261.08 72.8899 248.46 87.0499 244.31 85.0999C242.56 84.2799 244.31 79.1699 244.31 79.1699L236.99 65.6299L258.5 52.95Z" fill="white" stroke="#263238" stroke-linecap="round" stroke-linejoin="round"/>
<path d="M255.95 58.75C258.39 48.08 257.22 32.19 242.27 33.6C231.79 34.6 224.32 40.4 227.27 54.46C228.5 60.39 229.51 68.79 234.95 76.37C236.46 78.47 252.26 71.04 251.3 65.03" fill="white"/>
<path d="M255.95 58.75C258.39 48.08 257.22 32.19 242.27 33.6C231.79 34.6 224.32 40.4 227.27 54.46C228.5 60.39 229.51 68.79 234.95 76.37C236.46 78.47 252.26 71.04 251.3 65.03" stroke="#263238" stroke-linecap="round" stroke-linejoin="round"/>
<path d="M234.56 52.0801C236.7 51.2501 239.1 51.4901 241.04 52.7101" stroke="#263238" stroke-linecap="round" stroke-linejoin="round"/>
<path d="M227.04 53.3899C227.44 52.5399 228.4 52.1199 229.29 52.3899" stroke="#263238" stroke-linecap="round" stroke-linejoin="round"/>
<path d="M230.78 55.6099C230.78 55.6099 227.7 61.2199 227.69 62.0199C227.68 62.8199 231.48 63.0899 231.48 63.0899" fill="white"/>
<path d="M230.78 55.6099C230.78 55.6099 227.7 61.2199 227.69 62.0199C227.68 62.8199 231.48 63.0899 231.48 63.0899" stroke="#263238" stroke-linecap="round" stroke-linejoin="round"/>
<path d="M237.4 56.7498C237.4 57.3598 237.13 57.8598 236.75 57.8798C236.37 57.8998 236.05 57.3998 236.03 56.7898C236.01 56.1798 236.3 55.6798 236.68 55.6698C237.06 55.6598 237.38 56.1598 237.4 56.7498Z" fill="#263238"/>
<path d="M233.05 67.17C233.05 67.17 238.96 66.06 240.05 63.98" stroke="#263238" stroke-linecap="round" stroke-linejoin="round"/>
<path d="M227 44.7499L231.6 43.4099C231.6 43.4099 238.05 40.4099 239.42 40.8299C240.79 41.2499 243.57 45.5199 243.48 47.9599C243.48 47.9599 247.82 51.7799 248.37 57.3199L249.69 56.7199C249.69 56.7199 249.62 51.7199 252.46 51.8499C255.3 51.9799 256.58 55.3799 256.39 56.4499C256.2 57.5199 253.09 61.9599 253.09 61.9599C253.09 61.9599 260.21 60.8999 260.44 46.9599C260.67 33.0199 245.39 30.7499 237.96 31.3199C234.2 31.6799 230.42 31.8199 226.64 31.7399L227.06 35.7399L224.06 36.5299L226.32 39.2999L223.84 40.4299L227 44.7499Z" fill="#263238"/>
<path d="M252.76 196.75C252.76 196.75 270.86 201.54 275.76 215.02" stroke="white" stroke-linecap="round" stroke-linejoin="round"/>
<path d="M261.05 204C261.05 204 251.27 220.29 236.3 228.75" stroke="white" stroke-linecap="round" stroke-linejoin="round"/>
<path d="M247.3 295.61C247.3 295.61 252.86 294.36 254.38 292.2" stroke="white" stroke-linecap="round" stroke-linejoin="round"/>
<path d="M278.26 297.68C278.26 297.68 283.7 294.86 289.12 297.68" stroke="white" stroke-linecap="round" stroke-linejoin="round"/>
<path d="M295.87 221.84C295.87 221.84 286.74 245.49 282.12 247.68" stroke="white" stroke-linecap="round" stroke-linejoin="round"/>
<path d="M255.89 184.8C256.14 187.37 266.89 199.28 275.76 204" stroke="white" stroke-linecap="round" stroke-linejoin="round"/>
<path d="M265.06 174.75C266.35 177.94 266.62 181.45 265.83 184.8C264.97 187.69 264.97 190.77 265.83 193.66" stroke="white" stroke-linecap="round" stroke-linejoin="round"/>
<path d="M245.5 125.57C245.5 125.57 262.33 147.35 280.42 154.5" stroke="#263238" stroke-linecap="round" stroke-linejoin="round"/>
<path d="M262.92 90.3599C262.92 90.3599 262.86 105.17 273.54 111.85" stroke="#263238" stroke-linecap="round" stroke-linejoin="round"/>
<path d="M268.93 111.97C266.67 114.19 269.13 142.05 269.13 142.05C269.13 142.05 256 147.19 251.89 150.5C247.78 153.81 228.31 161.41 228.31 161.41C228.31 161.41 225.31 171.63 229.05 171.98C232.79 172.33 271.52 159.13 280.38 154.5C280.38 154.5 286.15 120.5 286.11 111.85" fill="white"/>
<path d="M268.93 111.97C266.67 114.19 269.13 142.05 269.13 142.05C269.13 142.05 256 147.19 251.89 150.5C247.78 153.81 228.31 161.41 228.31 161.41C228.31 161.41 225.31 171.63 229.05 171.98C232.79 172.33 271.52 159.13 280.38 154.5C280.38 154.5 286.15 120.5 286.11 111.85" stroke="#263238" stroke-linecap="round" stroke-linejoin="round"/>
<path d="M229.85 160.8C228.05 160.46 224.85 159.28 223.17 159.67C221.49 160.06 218.42 161.91 215.26 162.67C212.1 163.43 213.41 164.67 215.26 165.04C216.61 165.27 218 165.27 219.35 165.04L216.78 167.55C215.31 168.35 213.79 169.05 212.23 169.66C211.3 169.66 208.01 170.55 208.23 171.95C208.45 173.35 210.34 173.19 212.45 173.27C212.45 173.27 209.09 173.94 209.45 175.85C209.67 177.16 213.45 175.98 215.38 175.98C215.38 175.98 213.8 177.7 214.98 178.23C216.16 178.76 218.78 177.44 218.78 177.44C218.78 177.44 218.68 178.86 219.86 179C221.04 179.14 224.01 178 226.03 176.78C228.02 175.5 229.92 174.09 231.73 172.56C232.49 171.86 233.37 171.29 234.32 170.88" fill="white"/>
<path d="M229.85 160.8C228.05 160.46 224.85 159.28 223.17 159.67C221.49 160.06 218.42 161.91 215.26 162.67C212.1 163.43 213.41 164.67 215.26 165.04C216.61 165.27 218 165.27 219.35 165.04L216.78 167.55C215.31 168.35 213.79 169.05 212.23 169.66C211.3 169.66 208.01 170.55 208.23 171.95C208.45 173.35 210.34 173.19 212.45 173.27C212.45 173.27 209.09 173.94 209.45 175.85C209.67 177.16 213.45 175.98 215.38 175.98C215.38 175.98 213.8 177.7 214.98 178.23C216.16 178.76 218.78 177.44 218.78 177.44C218.78 177.44 218.68 178.86 219.86 179C221.04 179.14 224.01 178 226.03 176.78C228.02 175.5 229.92 174.09 231.73 172.56C232.49 171.86 233.37 171.29 234.32 170.88" stroke="#263238" stroke-linecap="round" stroke-linejoin="round"/>
<path d="M212.5 173.31C213.43 173.26 214.35 173.15 215.27 172.99C216.06 172.79 216.85 172.53 216.85 172.53" stroke="#263238" stroke-linecap="round" stroke-linejoin="round"/>
<path d="M215.39 176.02C216.6 175.85 217.76 175.45 218.82 174.84" stroke="#263238" stroke-linecap="round" stroke-linejoin="round"/>
<path d="M218.79 177.48C219.68 177.37 220.54 177.05 221.29 176.55" stroke="#263238" stroke-linecap="round" stroke-linejoin="round"/>
<path d="M217.1 168.31C217.1 168.31 216.38 169.96 217.1 170.88C217.82 171.8 218.69 171.88 218.82 172.88C218.95 173.88 220.67 173.88 221.29 174.53C221.91 175.18 222.38 176.43 224.36 176.53" stroke="#263238" stroke-linecap="round" stroke-linejoin="round"/>
<path d="M268.09 83.0798C261.28 98.4898 268.09 119.87 268.09 119.87C268.09 119.87 284.57 125.47 286.09 123.06C287.61 120.65 290.39 108.83 290.86 103.37" fill="#999999"/>
<path d="M268.09 83.0798C261.28 98.4898 268.09 119.87 268.09 119.87C268.09 119.87 284.57 125.47 286.09 123.06C287.61 120.65 290.39 108.83 290.86 103.37" stroke="#263238" stroke-linecap="round" stroke-linejoin="round"/>
<path d="M286.11 105.08C286.11 105.08 279.11 114.71 273.54 114.84" stroke="#263238" stroke-linecap="round" stroke-linejoin="round"/>
<path d="M35.91 347.18C35.91 347.18 34.2 340.65 36.2 338.23C39.78 333.89 35.76 330.23 39.36 328.74L40.87 330.49C41.16 328.72 40.32 323.31 47 322.61C55.08 321.76 55.23 327.61 55.67 329.61L55.53 326.9C58.98 326.9 57.19 330.34 62.41 335.96C65.18 339.03 66.55 343.1 66.19 347.22L35.91 347.18Z" fill="#263238"/>
<path d="M97.5 347.18C94.25 345.73 97.23 333.47 97.23 333.47C97.23 333.47 92.86 330.54 97.23 327.47C100.67 330.39 105.45 331.16 109.64 329.47C109.64 329.47 110.49 321.27 115.64 322.32C115.64 322.32 116.96 327.52 119.97 330.49C128.12 338.49 138.65 339.49 140.41 343.33C140.94 344.49 140.3 347.14 140.3 347.14L97.5 347.18Z" fill="#263238"/>
<path d="M83.61 151.66L87.61 160.14C87.61 160.14 104.15 194.32 114.28 233.46C114.52 234.39 119.76 252.93 115.56 299.1L117.96 307.2L115.34 320.58C115.34 320.58 119.28 326.27 119.14 328.13C119.14 328.13 109.42 329.94 106.14 331.68C103.62 333.04 96.05 340.51 96.05 340.51C93.9 340.07 93.71 331.39 93.71 331.39C93.71 331.39 89.22 254.32 87.93 251C86.64 247.68 78.76 233.36 66.46 200.59C66.46 200.59 66.18 246.36 62.9 257.94C59.97 268.24 63.44 297.07 63.44 297.07L61.44 329.16C61.44 329.16 68.36 336.35 62.75 338.28C62.75 338.28 59 331.07 48.32 329.43C42.89 328.59 36.13 338.23 36.13 338.23C33.75 337.47 37.13 325.36 37.13 325.36C29.56 268.24 35.13 278.58 33.63 250.66C32.63 232.74 27.58 156.08 33.54 149.85L83.61 151.66Z" fill="#BFBFBF"/>
<mask id="mask6_95_385" style="mask-type:luminance" maskUnits="userSpaceOnUse" x="30" y="149" width="90" height="192">
<path d="M83.61 151.66L87.61 160.14C87.61 160.14 104.15 194.32 114.28 233.46C114.52 234.39 119.76 252.93 115.56 299.1L117.96 307.2L115.34 320.58C115.34 320.58 119.28 326.27 119.14 328.13C119.14 328.13 109.42 329.94 106.14 331.68C103.62 333.04 96.05 340.51 96.05 340.51C93.9 340.07 93.71 331.39 93.71 331.39C93.71 331.39 89.22 254.32 87.93 251C86.64 247.68 78.76 233.36 66.46 200.59C66.46 200.59 66.18 246.36 62.9 257.94C59.97 268.24 63.44 297.07 63.44 297.07L61.44 329.16C61.44 329.16 68.36 336.35 62.75 338.28C62.75 338.28 59 331.07 48.32 329.43C42.89 328.59 36.13 338.23 36.13 338.23C33.75 337.47 37.13 325.36 37.13 325.36C29.56 268.24 35.13 278.58 33.63 250.66C32.63 232.74 27.58 156.08 33.54 149.85L83.61 151.66Z" fill="white"/>
</mask>
<g mask="url(#mask6_95_385)">
<path opacity="0.2" d="M30.76 178.06C57.5 180.16 80.65 171.41 90.7 166.84C88.79 162.56 87.62 160.14 87.62 160.14L83.62 151.67L33.62 149.85C31.5 152.1 30.75 163.53 30.76 178.06Z" fill="black"/>
<path opacity="0.2" d="M66.73 201.18C78.9 233.53 86.73 247.69 87.99 250.99C88.72 252.91 90.51 279.08 91.91 301.04C93.51 281.04 95.16 259.97 95.3 255.84C95.6 247.6 89.65 236.31 88.76 233.39C87.87 230.47 89.88 227.31 89.88 227.31L79.18 213.81C79.54 209.23 73.87 189.24 73.87 189.24C70.5 192.43 67.5 199.22 66.73 201.18Z" fill="black"/>
</g>
<path d="M83.61 151.66L87.61 160.14C87.61 160.14 104.15 194.32 114.28 233.46C114.52 234.39 119.76 252.93 115.56 299.1L117.96 307.2L115.34 320.58C115.34 320.58 119.28 326.27 119.14 328.13C119.14 328.13 109.42 329.94 106.14 331.68C103.62 333.04 96.05 340.51 96.05 340.51C93.9 340.07 93.71 331.39 93.71 331.39C93.71 331.39 89.22 254.32 87.93 251C86.64 247.68 78.76 233.36 66.46 200.59C66.46 200.59 66.18 246.36 62.9 257.94C59.97 268.24 63.44 297.07 63.44 297.07L61.44 329.16C61.44 329.16 68.36 336.35 62.75 338.28C62.75 338.28 59 331.07 48.32 329.43C42.89 328.59 36.13 338.23 36.13 338.23C33.75 337.47 37.13 325.36 37.13 325.36C29.56 268.24 35.13 278.58 33.63 250.66C32.63 232.74 27.58 156.08 33.54 149.85L83.61 151.66Z" stroke="#263238" stroke-linecap="round" stroke-linejoin="round"/>
<path d="M66.5 200.59C66.5 200.59 72.61 188.8 77.82 185.51" stroke="#263238" stroke-linecap="round" stroke-linejoin="round"/>
<path d="M80.12 181.69C80.12 181.69 61.56 187.34 55.12 188.43" stroke="#263238" stroke-linecap="round" stroke-linejoin="round"/>
<path d="M70.62 162.75C71.42 178.2 76.87 180.83 71.62 184.2C71.62 184.2 71.77 191.43 69.15 196.01" stroke="#263238" stroke-linecap="round" stroke-linejoin="round"/>
<path d="M38.1 156.84C38.1 156.84 40.29 180.59 32.98 185.06" stroke="#263238" stroke-linecap="round" stroke-linejoin="round"/>
<path d="M32.98 164.5C32.98 164.5 32.43 180.31 32.98 193.05C32.98 193.05 34.81 246.9 36.64 253.66C38.47 260.42 33.82 270.66 34.22 299.88" stroke="#263238" stroke-linecap="round" stroke-linejoin="round"/>
<path d="M50.5 322.75C48.77 322.37 46.96 322.61 45.39 323.43" stroke="#263238" stroke-linecap="round" stroke-linejoin="round"/>
<path d="M61.5 329.16C59.21 326.93 56.55 325.11 53.64 323.77" stroke="#263238" stroke-linecap="round" stroke-linejoin="round"/>
<path d="M58.5 204.32C54.4 208.92 47.9 217.59 41.24 218.32" stroke="#263238" stroke-linecap="round" stroke-linejoin="round"/>
<path d="M64.77 196.84C63.51 198.43 62.21 199.99 60.89 201.54" stroke="#263238" stroke-linecap="round" stroke-linejoin="round"/>
<path d="M58.93 250.66C58.93 250.66 49.61 263.35 44.5 264.08" stroke="#263238" stroke-linecap="round" stroke-linejoin="round"/>
<path d="M69.89 198.3C69.89 198.3 86.49 244.53 92.26 249.09C92.26 249.09 92.91 283.09 93.1 294.96C93.29 306.83 96.02 322.61 96.02 322.61" stroke="#263238" stroke-linecap="round" stroke-linejoin="round"/>
<path d="M113.74 322.27C113.74 322.27 107.35 324.48 104.24 325.89C102.33 326.82 100.83 328.43 100.04 330.4" stroke="#263238" stroke-linecap="round" stroke-linejoin="round"/>
<path d="M97.57 232.42C88.66 226.83 76.91 219.84 72.17 209.99" stroke="#263238" stroke-linecap="round" stroke-linejoin="round"/>
<path d="M105.34 237.03C103.65 236.1 101.99 235.13 100.34 234.13" stroke="#263238" stroke-linecap="round" stroke-linejoin="round"/>
<path d="M77.26 169C72.47 168.93 67.26 168.3 63.13 165.59" stroke="#263238" stroke-linecap="round" stroke-linejoin="round"/>
<path d="M84.87 168.55C83.5 168.74 82.12 168.86 80.74 168.93" stroke="#263238" stroke-linecap="round" stroke-linejoin="round"/>
<path d="M93.76 62.3899C90.1 56.8499 71.45 55.4399 59.48 55.4399C47.51 55.4399 32.98 53.4399 26.42 66.9399C21.42 77.2499 32.94 131.77 32.94 131.77L30.12 155.31C51.8 162.11 88.94 160.61 88.94 160.61L83.94 139.33C83.94 139.33 97.42 67.9199 93.76 62.3899Z" fill="#263238"/>
<path d="M52.37 41.75C52.37 41.75 53.98 54.58 49.1 57.35C49.1 57.35 51.54 66.76 60.1 67.35C68.66 67.94 72.44 58.75 72.44 58.75L52.37 41.75Z" fill="white" stroke="#263238" stroke-linecap="round" stroke-linejoin="round"/>
<path d="M97.73 8.80999L119.64 6.78999C120.67 6.68999 121.59 7.45999 121.68 8.48999L123.12 24.12L97.51 26.48L96.07 10.85C95.98 9.82999 96.71 8.91999 97.73 8.80999Z" fill="#263238"/>
<mask id="mask7_95_385" style="mask-type:luminance" maskUnits="userSpaceOnUse" x="96" y="6" width="28" height="21">
<path d="M97.73 8.80999L119.64 6.78999C120.67 6.68999 121.59 7.45999 121.68 8.48999L123.12 24.12L97.51 26.48L96.07 10.85C95.98 9.82999 96.71 8.91999 97.73 8.80999Z" fill="white"/>
</mask>
<g mask="url(#mask7_95_385)">
<path opacity="0.3" d="M97.73 8.80999L119.64 6.78999C120.67 6.68999 121.59 7.45999 121.68 8.48999L123.12 24.12L97.51 26.48L96.07 10.85C95.98 9.82999 96.71 8.91999 97.73 8.80999Z" fill="black"/>
<path opacity="0.3" d="M120.272 8.36171L113.969 8.94312L115.131 21.5496L121.435 20.9682L120.272 8.36171Z" fill="black"/>
</g>
<path d="M97.73 8.80999L119.64 6.78999C120.67 6.68999 121.59 7.45999 121.68 8.48999L123.12 24.12L97.51 26.48L96.07 10.85C95.98 9.82999 96.71 8.91999 97.73 8.80999Z" stroke="#263238" stroke-linecap="round" stroke-linejoin="round"/>
<path d="M135.61 5.28997L157.52 3.26997C158.55 3.16997 159.47 3.93997 159.56 4.96997L161 20.6L135.35 22.97L133.91 7.33997C133.81 6.30997 134.58 5.38997 135.61 5.29997V5.28997Z" fill="#263238"/>
<mask id="mask8_95_385" style="mask-type:luminance" maskUnits="userSpaceOnUse" x="133" y="3" width="28" height="20">
<path d="M135.61 5.28997L157.52 3.26997C158.55 3.16997 159.47 3.93997 159.56 4.96997L161 20.6L135.35 22.97L133.91 7.33997C133.81 6.30997 134.58 5.38997 135.61 5.29997V5.28997Z" fill="white"/>
</mask>
<g mask="url(#mask8_95_385)">
<path opacity="0.3" d="M135.61 5.28997L157.52 3.26997C158.55 3.16997 159.47 3.93997 159.56 4.96997L161 20.6L135.35 22.97L133.91 7.33997C133.81 6.30997 134.58 5.38997 135.61 5.29997V5.28997Z" fill="black"/>
<path opacity="0.3" d="M157.697 4.91964L153.893 5.27051L155.056 17.877L158.859 17.5261L157.697 4.91964Z" fill="black"/>
</g>
<path d="M135.61 5.28997L157.52 3.26997C158.55 3.16997 159.47 3.93997 159.56 4.96997L161 20.6L135.35 22.97L133.91 7.33997C133.81 6.30997 134.58 5.38997 135.61 5.29997V5.28997Z" stroke="#263238" stroke-linecap="round" stroke-linejoin="round"/>
<path d="M127.65 6.01995L149.56 3.99995C150.59 3.89995 151.51 4.66995 151.6 5.69995L153.04 21.33L127.35 23.7L125.91 8.06995C125.81 7.03995 126.58 6.11995 127.61 6.01995C127.62 6.01995 127.64 6.01995 127.65 6.01995Z" fill="#263238" stroke="#263238" stroke-linecap="round" stroke-linejoin="round"/>
<path d="M165.49 2.52996L187.4 0.509961C188.43 0.409961 189.35 1.17996 189.44 2.20996L190.88 17.84L165.23 20.21L163.79 4.57996C163.69 3.54996 164.46 2.62996 165.49 2.53996V2.52996Z" fill="#263238" stroke="#263238" stroke-linecap="round" stroke-linejoin="round"/>
<path opacity="0.3" d="M150.153 5.61879L143.85 6.2002L145.012 18.8067L151.316 18.2253L150.153 5.61879Z" fill="black"/>
<path opacity="0.3" d="M187.587 2.15566L181.284 2.73706L182.446 15.3435L188.75 14.7621L187.587 2.15566Z" fill="black"/>
<path d="M201.71 13.1699L208.35 85.0499L92.5 95.7499L85.9 23.8499C85.67 21.3499 87.51 19.1299 90.01 18.8999L196.77 9.04993C199.27 8.81993 201.48 10.6599 201.71 13.1499C201.71 13.1499 201.71 13.1599 201.71 13.1699Z" fill="#263238"/>
<mask id="mask9_95_385" style="mask-type:luminance" maskUnits="userSpaceOnUse" x="85" y="9" width="124" height="87">
<path d="M201.71 13.1699L208.35 85.0499L92.5 95.7499L85.9 23.8499C85.67 21.3499 87.51 19.1299 90.01 18.8999L196.77 9.04993C199.27 8.81993 201.48 10.6599 201.71 13.1499C201.71 13.1499 201.71 13.1599 201.71 13.1699Z" fill="white"/>
</mask>
<g mask="url(#mask9_95_385)">
<path opacity="0.3" d="M201.71 13.1699L208.35 85.0499L92.5 95.7499L85.9 23.8499C85.67 21.3499 87.51 19.1299 90.01 18.8999L196.77 9.04993C199.27 8.81993 201.48 10.6599 201.71 13.1499C201.71 13.1499 201.71 13.1599 201.71 13.1699Z" fill="black"/>
</g>
<path d="M201.71 13.1699L208.35 85.0499L92.5 95.7499L85.9 23.8499C85.67 21.3499 87.51 19.1299 90.01 18.8999L196.77 9.04993C199.27 8.81993 201.48 10.6599 201.71 13.1499C201.71 13.1499 201.71 13.1599 201.71 13.1699Z" stroke="#263238" stroke-linecap="round" stroke-linejoin="round"/>
<path d="M201.71 13.17L208.35 85.05L122.35 92.98L115.72 21.1C115.49 18.6 117.33 16.38 119.83 16.15L196.72 9.04999C199.21 8.78999 201.45 10.6 201.7 13.1C201.7 13.12 201.7 13.15 201.7 13.17H201.71Z" fill="#263238" stroke="#263238" stroke-linecap="round" stroke-linejoin="round"/>
<path opacity="0.3" d="M196.14 16.2599L122.67 23.0399C121.65 23.1099 120.77 22.3599 120.67 21.3399C120.59 20.3199 121.35 19.4399 122.36 19.3399L195.83 12.5599C196.85 12.4899 197.73 13.2399 197.83 14.2599C197.89 15.2699 197.15 16.1499 196.14 16.2599Z" fill="black"/>
<path d="M67.04 16.3098C67.04 16.3098 50.09 12.9099 48.19 23.8198C46.29 34.7299 52.5 39.3698 52.5 39.3698L67.04 16.3098Z" fill="#263238"/>
<path d="M52.5 45.36C50.56 39.94 50.26 34.06 51.63 28.47C53.29 21.47 61.63 11.84 74.28 20.59C80.79 25.1 81.19 34.89 79.16 43.85C78.68 45.99 79.04 48.08 78.33 50.05C75.83 56.95 71.26 62.26 68.76 62.38C64.59 62.59 56.25 57.54 56.59 53.14" fill="white"/>
<path d="M52.5 45.36C50.56 39.94 50.26 34.06 51.63 28.47C53.29 21.47 61.63 11.84 74.28 20.59C80.79 25.1 81.19 34.89 79.16 43.85C78.68 45.99 79.04 48.08 78.33 50.05C75.83 56.95 71.26 62.26 68.76 62.38C64.59 62.59 56.25 57.54 56.59 53.14" stroke="#263238" stroke-linecap="round" stroke-linejoin="round"/>
<path d="M69.39 42.19C69.39 42.19 66.02 39.75 62.78 41.75" stroke="#263238" stroke-linecap="round" stroke-linejoin="round"/>
<path d="M75.75 41.7501C75.75 41.7501 78.3 39.4101 79.96 39.7501" stroke="#263238" stroke-linecap="round" stroke-linejoin="round"/>
<path d="M64.63 45.9301C64.63 46.5501 64.94 47.0601 65.33 47.0601C65.72 47.0601 66.04 46.5501 66.04 45.9301C66.04 45.3101 65.72 44.8101 65.33 44.8101C64.94 44.8101 64.63 45.3101 64.63 45.9301Z" fill="#263238"/>
<path d="M75.75 46.4299C76.1421 46.4299 76.46 45.9285 76.46 45.3099C76.46 44.6914 76.1421 44.1899 75.75 44.1899C75.3579 44.1899 75.04 44.6914 75.04 45.3099C75.04 45.9285 75.3579 46.4299 75.75 46.4299Z" fill="#263238"/>
<path d="M74.32 44.1099C73.08 45.7299 74.82 51.8999 74.32 52.3399C73.82 52.7799 70.64 51.5299 70.64 51.5299C70.64 51.5299 69.9 50.5899 71.45 50.0899" stroke="#263238" stroke-linecap="round" stroke-linejoin="round"/>
<path d="M71.5 55.4399C71.5 55.4399 67.23 55.4399 66.09 53.8799" stroke="#263238" stroke-linecap="round" stroke-linejoin="round"/>
<path d="M61.28 32.33L60.95 37.49C60.95 37.49 57.29 39.38 56.37 41.3C55.82 42.56 55.62 43.94 55.79 45.3C55.79 45.3 53.57 41.42 52.37 41.74C51.94 41.85 51.94 43.48 51.94 43.48C51.94 43.48 46.94 32.32 51.46 26.42C55.98 20.52 61.28 32.33 61.28 32.33Z" fill="#757575" stroke="#263238" stroke-linecap="round" stroke-linejoin="round"/>
<path d="M54.23 44.19C54.23 44.19 53.23 40.44 49.86 39.45C46.49 38.46 48.8 47.45 51.67 48.62C54.54 49.79 55.26 50.62 55.43 49.55" fill="white"/>
<path d="M54.23 44.19C54.23 44.19 53.23 40.44 49.86 39.45C46.49 38.46 48.8 47.45 51.67 48.62C54.54 49.79 55.26 50.62 55.43 49.55" stroke="#263238" stroke-linecap="round" stroke-linejoin="round"/>
<path d="M49.64 31.6799C49.36 31.2999 48.12 21.6799 54.47 17.3599C60.82 13.0399 71.55 13.4999 78.38 19.4799C85.21 25.4599 83.27 35.8298 78.38 39.3699V35.0399C78.38 35.0399 76.13 39.3799 69.38 39.7399L71.44 36.5599C71.44 36.5599 68.12 38.5599 62.27 38.3899C62.27 38.3899 65.02 36.1999 64.62 34.2499C64.62 34.2499 55.34 39.4799 49.64 31.6799Z" fill="#263238"/>
<path d="M50.83 66.36C46.15 66.92 39.49 73.03 43.83 83.88C46.6 90.76 69.36 86.67 69.36 86.67C77.8 83.19 90.13 70.67 99.18 64.86C99.18 64.86 97.27 52.86 95.07 54.56C84.84 62.39 76.43 62.93 62.16 69.79C62.19 69.75 53.77 66.01 50.83 66.36Z" fill="white" stroke="#263238" stroke-linecap="round" stroke-linejoin="round"/>
<path d="M61.28 79.6799C61.14 84.1599 62.98 84.9499 66.08 86.0099L61.28 79.6799Z" fill="white"/>
<path d="M61.28 79.6799C61.14 84.1599 62.98 84.9499 66.08 86.0099" stroke="#263238" stroke-linecap="round" stroke-linejoin="round"/>
<path d="M94.39 55.44C94.6 54.79 98.39 48.13 99.46 46.44C100.53 44.75 105.31 43.22 107.16 42.2C109.01 41.18 109.16 39.63 110.16 40.74C111.16 41.85 110.16 44.38 104.62 47.07C106.59 47.18 108.56 47.18 110.53 47.07C112.01 46.85 113.33 45.51 113.99 46.44C114.65 47.37 114.78 49.04 111.48 50.06C109.91 50.63 108.27 50.97 106.6 51.06C108.21 51.4 109.8 51.87 111.35 52.44C111.88 52.83 112.67 53.74 113.46 53.88C114.25 54.02 115.11 54.88 113.66 55.88C112.62 56.46 111.35 56.48 110.29 55.94C110.29 55.94 114.12 57.79 112.93 58.94C111.74 60.09 107.93 59.86 107.93 59.86C107.93 59.86 102.28 66.75 97.5 65.31" fill="white"/>
<path d="M94.39 55.44C94.6 54.79 98.39 48.13 99.46 46.44C100.53 44.75 105.31 43.22 107.16 42.2C109.01 41.18 109.16 39.63 110.16 40.74C111.16 41.85 110.16 44.38 104.62 47.07C106.59 47.18 108.56 47.18 110.53 47.07C112.01 46.85 113.33 45.51 113.99 46.44C114.65 47.37 114.78 49.04 111.48 50.06C109.91 50.63 108.27 50.97 106.6 51.06C108.21 51.4 109.8 51.87 111.35 52.44C111.88 52.83 112.67 53.74 113.46 53.88C114.25 54.02 115.11 54.88 113.66 55.88C112.62 56.46 111.35 56.48 110.29 55.94C110.29 55.94 114.12 57.79 112.93 58.94C111.74 60.09 107.93 59.86 107.93 59.86C107.93 59.86 102.28 66.75 97.5 65.31" stroke="#263238" stroke-linecap="round" stroke-linejoin="round"/>
<path d="M101.16 46.4299C101.82 46.5799 102.34 47.0899 102.5 47.7499C102.83 48.9299 103.8 48.9999 104.39 50.3199C104.98 51.6399 104.81 53.6799 105.39 54.3799C105.97 55.0799 105.39 58.0299 105.39 58.0299" stroke="#263238" stroke-linecap="round" stroke-linejoin="round"/>
<path d="M51.81 65.51C49.36 62.39 43.86 63.8 43.86 63.8" stroke="white" stroke-linecap="round" stroke-linejoin="round"/>
<path d="M40.86 58.05C40.86 58.05 46.52 58.88 48.19 63.59" stroke="white" stroke-linecap="round" stroke-linejoin="round"/>
<path d="M50.83 87.87C50.83 87.87 45.31 92.14 36.91 86.01" stroke="white" stroke-linecap="round" stroke-linejoin="round"/>
<path d="M43.86 89.1599C43.86 89.1599 41.06 93.0299 34.24 92.9799" stroke="white" stroke-linecap="round" stroke-linejoin="round"/>
<path d="M78.94 137.85C78.94 137.85 64.5 149.36 49.83 147.85" stroke="white" stroke-linecap="round" stroke-linejoin="round"/>
<path d="M39.91 112.56C39.91 112.56 62.32 129 78.91 130.05" stroke="white" stroke-linecap="round" stroke-linejoin="round"/>
<path d="M40.5 234.26C44.36 232.12 48.89 231.56 53.15 232.68C60.46 234.52 79.45 261.68 82.09 264.33C84.73 266.98 89.67 268.33 94.22 273.12C101.42 280.63 111.89 287.27 112.95 287.27C114.01 287.27 114.86 286.61 116.18 286.35C117.5 286.09 127.72 285.16 127.72 285.16C127.72 285.16 131.15 285.92 127.72 287.39C124.29 288.86 124.55 290.17 124.55 290.17C124.55 290.17 123.86 291.28 125.24 292.34C126.62 293.4 127.43 292.82 129.4 295.61C131.37 298.4 126.62 296.82 126.62 296.82C126.62 296.82 127.67 299.82 125.56 299.52C123.45 299.22 125.3 302.45 121.87 302.01C118.44 301.57 111.1 296.94 109.26 292.09C109.26 292.09 79.32 277.78 74.84 274.09C70.36 270.4 51.5 250.61 50.21 250.35" fill="#263238"/>
<path d="M118.83 261.06H140.83C141.87 261.06 142.71 261.9 142.71 262.94V278.64H116.95V262.94C116.95 261.9 117.79 261.06 118.83 261.06Z" fill="#263238"/>
<mask id="mask10_95_385" style="mask-type:luminance" maskUnits="userSpaceOnUse" x="116" y="261" width="27" height="18">
<path d="M118.83 261.06H140.83C141.87 261.06 142.71 261.9 142.71 262.94V278.64H116.95V262.94C116.95 261.9 117.79 261.06 118.83 261.06Z" fill="white"/>
</mask>
<g mask="url(#mask10_95_385)">
<path opacity="0.3" d="M118.83 261.06H140.83C141.87 261.06 142.71 261.9 142.71 262.94V278.64H116.95V262.94C116.95 261.9 117.79 261.06 118.83 261.06Z" fill="black"/>
<path opacity="0.3" d="M141.28 262.72H134.95V275.38H141.28V262.72Z" fill="black"/>
</g>
<path d="M118.83 261.06H140.83C141.87 261.06 142.71 261.9 142.71 262.94V278.64H116.95V262.94C116.95 261.9 117.79 261.06 118.83 261.06Z" stroke="#263238" stroke-linecap="round" stroke-linejoin="round"/>
<path d="M156.83 261.06H178.83C179.87 261.06 180.71 261.9 180.71 262.94V278.64H154.95V262.94C154.95 261.9 155.79 261.06 156.83 261.06Z" fill="#263238"/>
<mask id="mask11_95_385" style="mask-type:luminance" maskUnits="userSpaceOnUse" x="154" y="261" width="27" height="18">
<path d="M156.83 261.06H178.83C179.87 261.06 180.71 261.9 180.71 262.94V278.64H154.95V262.94C154.95 261.9 155.79 261.06 156.83 261.06Z" fill="white"/>
</mask>
<g mask="url(#mask11_95_385)">
<path opacity="0.3" d="M156.83 261.06H178.83C179.87 261.06 180.71 261.9 180.71 262.94V278.64H154.95V262.94C154.95 261.9 155.79 261.06 156.83 261.06Z" fill="black"/>
<path opacity="0.3" d="M178.86 262.72H175.04V275.38H178.86V262.72Z" fill="black"/>
</g>
<path d="M156.83 261.06H178.83C179.87 261.06 180.71 261.9 180.71 262.94V278.64H154.95V262.94C154.95 261.9 155.79 261.06 156.83 261.06Z" stroke="#263238" stroke-linecap="round" stroke-linejoin="round"/>
<path d="M148.83 261.06H170.83C171.87 261.06 172.71 261.9 172.71 262.94V278.64H146.95V262.94C146.95 261.9 147.79 261.06 148.83 261.06Z" fill="#263238" stroke="#263238" stroke-linecap="round" stroke-linejoin="round"/>
<path d="M186.83 261.06H208.83C209.87 261.06 210.71 261.9 210.71 262.94V278.64H184.95V262.94C184.95 261.9 185.79 261.06 186.83 261.06Z" fill="#263238" stroke="#263238" stroke-linecap="round" stroke-linejoin="round"/>
<path opacity="0.3" d="M171.28 262.72H164.95V275.38H171.28V262.72Z" fill="black"/>
<path opacity="0.3" d="M208.86 262.72H202.53V275.38H208.86V262.72Z" fill="black"/>
<path d="M221.92 274.98V347.17H105.61V274.98C105.61 272.47 107.65 270.43 110.16 270.43H217.37C219.88 270.43 221.92 272.47 221.92 274.98Z" fill="#263238"/>
<mask id="mask12_95_385" style="mask-type:luminance" maskUnits="userSpaceOnUse" x="105" y="270" width="117" height="78">
<path d="M221.92 274.98V347.17H105.61V274.98C105.61 272.47 107.65 270.43 110.16 270.43H217.37C219.88 270.43 221.92 272.47 221.92 274.98Z" fill="white"/>
</mask>
<g mask="url(#mask12_95_385)">
<path opacity="0.3" d="M221.92 274.98V347.17H105.61V274.98C105.61 272.47 107.65 270.43 110.16 270.43H217.37C219.88 270.43 221.92 272.47 221.92 274.98Z" fill="black"/>
</g>
<path d="M221.92 274.98V347.17H105.61V274.98C105.61 272.47 107.65 270.43 110.16 270.43H217.37C219.88 270.43 221.92 272.47 221.92 274.98Z" stroke="#263238" stroke-linecap="round" stroke-linejoin="round"/>
<path d="M221.92 274.98V347.17H135.61V274.98C135.61 272.47 137.65 270.43 140.16 270.43H217.37C219.88 270.43 221.92 272.47 221.92 274.98Z" fill="#263238" stroke="#263238" stroke-linecap="round" stroke-linejoin="round"/>
<path opacity="0.3" d="M216.08 277.55H142.3C141.26 277.55 140.42 276.71 140.42 275.67C140.4 274.63 141.22 273.77 142.26 273.75C142.27 273.75 142.29 273.75 142.3 273.75H216.08C217.12 273.75 217.96 274.59 217.96 275.63C217.98 276.67 217.16 277.53 216.12 277.55C216.11 277.55 216.09 277.55 216.08 277.55Z" fill="black"/>
<path d="M79.5 347.17C73.5 347.17 65.07 343.31 55.36 339.23C45.29 334.99 33.82 330.51 22.18 329.84C17.84 329.59 20.47 347.17 20.47 347.17H10.97C10.97 347.17 1.59 334.65 0.5 323.44C0.5 323.44 8.16 318.71 10 318.44C10.63 318.37 11.27 318.34 11.91 318.35C13.97 318.35 16.72 318.44 16.72 318.44C16.28 318.18 9.27 313.96 5.4 309.67C2.21 306.13 0.75 300.54 0.64 297.2C0.76 294.99 1.01 292.79 1.37 290.6L51.29 291.43C51.29 291.43 51.83 291.81 52.79 292.52C58.58 296.74 79.74 312.46 90.32 324.31C93.74 328.14 96.05 331.56 96.39 334.06C97.98 345.59 88.55 347.17 79.5 347.17Z" fill="#757575" stroke="#263238" stroke-linecap="round" stroke-linejoin="round"/>
<path d="M90.33 324.29L66.05 329.84C61.89 332.22 58.25 335.41 55.34 339.23C45.27 334.99 33.8 330.51 22.16 329.84C17.82 329.59 20.45 347.17 20.45 347.17H10.95C10.95 347.17 1.59 334.65 0.5 323.44C0.5 323.44 9.34 336.04 11.5 342.44C11.5 342.44 14.93 330.6 20.5 325.85C17.98 323.02 15.13 320.51 11.99 318.38C14.05 318.38 16.8 318.47 16.8 318.47C16.36 318.21 9.35 313.99 5.48 309.7C2.29 306.16 1 300.56 0.72 297.23C0.58 295.59 0.78 290.63 0.78 290.63C0.78 290.63 38.01 295.94 52.87 292.55C58.59 296.75 79.75 312.44 90.33 324.29Z" fill="#263238"/>
<path d="M51.3 323.44C51.3 323.44 71.08 333.35 76.36 337.23C81.64 341.11 83.21 340.06 83.21 340.06" stroke="#263238" stroke-linecap="round" stroke-linejoin="round"/>
<path d="M5.40997 322.39C5.40997 322.39 10.16 329.64 10.41 331.81" stroke="#263238" stroke-linecap="round" stroke-linejoin="round"/>
<path d="M84.97 183.23C84.97 183.23 95.5 178.65 94.5 198.13C93.5 217.61 97.07 218.61 97.07 218.61C97.07 218.61 70.57 229.49 63.84 220.19C57.11 210.89 63.5 185.44 84.97 183.23Z" fill="#263238"/>
<path d="M83.5 218.61C83.5 218.61 72.6 223.75 71.61 228.5C70.62 233.25 56.97 226.1 56.97 226.1L66.86 211.88L83.5 218.61Z" fill="white" stroke="#263238" stroke-linecap="round" stroke-linejoin="round"/>
<path d="M12.03 270.75C-12.97 302.59 7.32003 317.95 35.66 315.41L29.98 324.41L44.24 326.88C44.24 326.88 55.17 319.74 70.07 312.11C95.43 299.11 105.68 299.89 103.07 286.88C100.46 273.87 69.38 265.43 38.22 279.14C38.19 279.13 21.27 259.03 12.03 270.75Z" fill="#757575" stroke="#263238" stroke-linecap="round" stroke-linejoin="round"/>
<path d="M20.75 340.06C20.75 340.06 27.26 322.06 29.98 321.06C32.7 320.06 42.98 323.96 44.24 326.86C44.24 326.86 47.71 321.54 49.13 323.8C50.55 326.06 48.5 329.8 49.13 332.66C49.76 335.52 56.79 339.52 59.6 340.05C62.41 340.58 64.01 342.16 64.01 343.74V347.17H20.75C19.78 344.9 19.78 342.33 20.75 340.06Z" fill="white" stroke="#263238" stroke-linecap="round" stroke-linejoin="round"/>
<path d="M49.13 329.84C49.13 329.84 43.4 332.67 41.31 331.84C39.22 331.01 42.38 336.59 43.17 337.12C43.96 337.65 49.17 335.27 49.17 335.27" stroke="#263238" stroke-linecap="round" stroke-linejoin="round"/>
<path d="M26.16 326.87C26.16 326.87 33.94 327.02 36.31 329.87" stroke="#263238" stroke-linecap="round" stroke-linejoin="round"/>
<path d="M20.75 340.06C20.75 340.06 33.15 342.96 34.2 342.96C35.91 342.62 37.58 342.14 39.2 341.51C39.2 341.51 42.6 343.22 44.86 344.28C47.12 345.34 61.86 344.28 61.86 344.28" stroke="#263238" stroke-linecap="round" stroke-linejoin="round"/>
<path d="M35.66 315.43C47.5 314.15 70.5 299.56 78.5 294.49C86.5 289.42 88.5 290.75 88.5 290.75" stroke="#263238" stroke-linecap="round" stroke-linejoin="round"/>
<path d="M0.710022 290.58L2.60002 276.23L7.16002 272.79C14.55 254.86 48.03 221.37 57.16 221.48C70.87 221.64 73.29 236.03 74.98 251.78C76.67 267.53 55.31 265.16 55.31 265.16V269.11L43.16 275.4L50.52 275.17C50.52 275.17 29.35 295.75 0.710022 290.58Z" fill="#263238" stroke="#263238" stroke-linecap="round" stroke-linejoin="round"/>
<path d="M60.05 193.75C62.92 184.75 76.05 182.35 80.77 183.82C84.64 185.33 87.82 188.23 89.68 191.95C90.88 194.54 88.37 199.12 90.16 201.79C92.72 205.62 92.5 213.7 91.58 218.79C91.08 221.49 79.85 223.09 70.67 216.79C60.81 209.97 57.27 202.41 60.05 193.75Z" fill="white" stroke="#263238" stroke-linecap="round" stroke-linejoin="round"/>
<path d="M73.32 181.13C73.32 181.13 84.88 179.25 84.96 182.22C85.47 201.95 73.64 206.09 73.64 206.09C73.64 206.09 68.81 202.24 67.73 204.88C66.65 207.52 69.43 214.82 72.85 214.97C71.24 217.47 71.19 220.66 72.71 223.21C72.71 223.21 53.13 226.48 51.51 217.41C52.27 214.26 52.81 211.06 53.13 207.83C54.4 195.12 51.43 186.57 73.32 181.13Z" fill="#263238"/>
<path d="M88.76 201.24C91.17 203.41 92.9 203.41 92.87 204.19C92.78 206.62 89.87 207.83 89.87 207.83" fill="white"/>
<path d="M88.76 201.24C91.17 203.41 92.9 203.41 92.87 204.19C92.78 206.62 89.87 207.83 89.87 207.83" stroke="#263238" stroke-linecap="round" stroke-linejoin="round"/>
<path d="M89.81 211.88C88.11 212.46 86.27 212.5 84.54 212.01" stroke="#263238" stroke-linecap="round" stroke-linejoin="round"/>
<path d="M83.4 189.13C83.4 189.13 91.09 186.9 89.68 199.38C89.68 199.38 92.88 195.03 92.87 190.14C92.87 181.67 81.54 183.37 81.54 183.37L83.02 189.37" fill="#263238"/>
<path d="M90.39 195.24C89.8 194.85 89.08 194.72 88.39 194.87" stroke="#263238" stroke-linecap="round" stroke-linejoin="round"/>
<path d="M85.21 195.1C85.21 195.1 81.08 195.34 79.29 198.1" stroke="#263238" stroke-linecap="round" stroke-linejoin="round"/>
<path d="M84.22 201.67C84.28 202.33 84 202.9 83.59 202.94C83.18 202.98 82.8 202.47 82.73 201.81C82.66 201.15 82.95 200.58 83.36 200.54C83.77 200.5 84.16 201.01 84.22 201.67Z" fill="#263238"/>
<path d="M36.31 318.43C36.31 318.43 45.51 319.43 47.51 323.43" stroke="#263238" stroke-linecap="round" stroke-linejoin="round"/>
<path d="M59.6 228.23C63.46 226.09 67.99 225.53 72.25 226.65C79.57 228.5 98.55 255.65 101.19 258.3C103.83 260.95 108.77 262.3 113.32 267.09C120.52 274.6 130.99 281.24 132.05 281.24C133.11 281.24 133.96 280.58 135.28 280.32C136.6 280.06 146.82 279.13 146.82 279.13C146.82 279.13 150.25 279.9 146.82 281.36C143.39 282.82 143.65 284.15 143.65 284.15C143.65 284.15 142.97 285.25 144.34 286.31C145.71 287.37 146.53 286.79 148.5 289.58C150.47 292.37 145.72 290.79 145.72 290.79C145.72 290.79 146.77 293.79 144.66 293.49C142.55 293.19 144.4 296.42 140.97 295.98C137.54 295.54 130.2 290.91 128.36 286.06C128.36 286.06 98.42 271.75 93.94 268.06C89.46 264.37 70.62 244.58 69.29 244.32" fill="white"/>
<path d="M59.6 228.23C63.46 226.09 67.99 225.53 72.25 226.65C79.57 228.5 98.55 255.65 101.19 258.3C103.83 260.95 108.77 262.3 113.32 267.09C120.52 274.6 130.99 281.24 132.05 281.24C133.11 281.24 133.96 280.58 135.28 280.32C136.6 280.06 146.82 279.13 146.82 279.13C146.82 279.13 150.25 279.9 146.82 281.36C143.39 282.82 143.65 284.15 143.65 284.15C143.65 284.15 142.97 285.25 144.34 286.31C145.71 287.37 146.53 286.79 148.5 289.58C150.47 292.37 145.72 290.79 145.72 290.79C145.72 290.79 146.77 293.79 144.66 293.49C142.55 293.19 144.4 296.42 140.97 295.98C137.54 295.54 130.2 290.91 128.36 286.06C128.36 286.06 98.42 271.75 93.94 268.06C89.46 264.37 70.62 244.58 69.29 244.32" stroke="#263238" stroke-linecap="round" stroke-linejoin="round"/>
<path d="M55.3 225.33C55.3 225.33 70.06 221.38 75.21 224.28C80.36 227.18 90.12 240.63 90.12 240.63C90.12 240.63 78.22 251.28 74.54 250.31C70.86 249.34 59.6 247.75 59.6 247.75" fill="#263238"/>
<path d="M55.3 225.33C55.3 225.33 70.06 221.38 75.21 224.28C80.36 227.18 90.12 240.63 90.12 240.63C90.12 240.63 78.22 251.28 74.54 250.31C70.86 249.34 59.6 247.75 59.6 247.75" stroke="#263238" stroke-linecap="round" stroke-linejoin="round"/>
<path d="M68.1 249.05C68.1 249.05 62.75 251.99 60.78 251.99" stroke="#263238" stroke-linecap="round" stroke-linejoin="round"/>
<path d="M59.6 234.3C60.05 235.09 59.9 243.74 69.29 246.43" stroke="#263238" stroke-linecap="round" stroke-linejoin="round"/>
<path d="M9.40997 273.07C9.40997 273.07 29.41 276.5 36.31 270.43" stroke="#263238" stroke-linecap="round" stroke-linejoin="round"/>
<path d="M43.15 275.4C43.15 275.4 38.15 274.52 36.31 277.09C34.47 279.66 24.45 282.09 24.45 282.09" stroke="#263238" stroke-linecap="round" stroke-linejoin="round"/>
<path d="M2.95003 294.49C2.95003 294.49 0.0600252 306.95 12.39 312.49" stroke="#263238" stroke-linecap="round" stroke-linejoin="round"/>
<path d="M9.40997 295.35C9.40997 295.35 9.47997 301.49 11.41 304.85L17.54 306.85L24.4 303.03C24.4 303.03 22.94 295.18 22.81 293.59" stroke="#263238" stroke-linecap="round" stroke-linejoin="round"/>
</g>
<defs>
<clipPath id="clip0_95_385">
<rect width="302.68" height="347.68" fill="white"/>
</clipPath>
</defs>
</svg>
