<svg width="307" height="313" viewBox="0 0 307 313" fill="none" xmlns="http://www.w3.org/2000/svg">
<g clip-path="url(#clip0_406_2601)">
<path d="M95.7852 4.75345C96.8091 4.13896 97.9177 3.66573 99.0687 3.34083L99.7395 0.098883L105.219 0L106.01 3.22076C107.168 3.51035 108.291 3.94826 109.336 4.52743L112.104 2.71222L116.051 6.52628L114.335 9.35151C114.949 10.3757 115.422 11.4775 115.747 12.6288L118.988 13.2998L119.087 18.7807L115.867 19.5647C115.585 20.7301 115.14 21.8461 114.561 22.8914L116.376 25.6672L112.563 29.6084L109.738 27.8921C108.714 28.5066 107.613 28.9798 106.462 29.3047L105.756 32.5466L100.276 32.6455L99.4853 29.4248C98.3272 29.1352 97.2116 28.6973 96.1665 28.1181L93.3914 29.9333L89.4301 26.1263L91.146 23.3011C90.5317 22.2769 90.0586 21.168 89.7338 20.0167L86.4927 19.3104L86.3938 13.8295L89.6137 13.0384C89.9032 11.8801 90.341 10.7571 90.92 9.71172L89.1053 6.93594L92.9607 3.03712L95.7852 4.75345ZM98.7085 12.0567C96.449 14.3945 96.5125 18.1168 98.8498 20.377C101.187 22.6371 104.908 22.5736 107.168 20.2357C109.427 17.8978 109.364 14.1756 107.027 11.9154C104.696 9.64816 100.968 9.70466 98.7015 12.0355C98.7015 12.0355 98.6874 12.0496 98.6803 12.0567H98.7085Z" fill="#E0E0E0"/>
<path d="M97.0562 186.656C97.6493 186.303 98.2848 186.027 98.9486 185.836L99.337 183.965L102.5 183.908L102.952 185.766C103.623 185.928 104.273 186.183 104.873 186.514L106.469 185.469L108.742 187.666L107.789 189.283C108.142 189.876 108.418 190.512 108.608 191.176L110.48 191.565L110.536 194.729L108.679 195.181C108.517 195.852 108.262 196.502 107.93 197.102L108.976 198.698L106.779 200.973L105.148 199.984C104.555 200.337 103.92 200.619 103.256 200.81L102.846 202.703L99.683 202.76L99.231 200.902C98.5602 200.74 97.9106 200.485 97.3104 200.153L95.7146 201.199L93.4409 199.002L94.4294 197.37C94.0764 196.777 93.7939 196.141 93.6033 195.478L91.7391 195.089L91.6826 191.925L93.5397 191.473C93.7021 190.802 93.9563 190.152 94.2882 189.552L93.2431 187.955L95.4392 185.681L97.0703 186.67L97.0562 186.656ZM98.7438 190.894C97.4375 192.243 97.4728 194.39 98.8215 195.696C100.17 197.003 102.317 196.968 103.623 195.619C104.929 194.27 104.894 192.123 103.545 190.816C103.545 190.816 103.545 190.816 103.538 190.809C102.197 189.502 100.057 189.523 98.7438 190.865V190.894Z" fill="#E0E0E0"/>
<path d="M28.1955 22.1921C28.598 21.9449 29.0358 21.7612 29.4877 21.627L29.756 20.3486H31.9097L32.2345 21.5776C32.6935 21.6906 33.1313 21.8672 33.5479 22.0932L34.6353 21.3869L36.1888 22.8843L35.4827 24.0002C35.7298 24.4028 35.9134 24.8407 36.0476 25.2928L37.3256 25.5612V27.6801L36.0546 27.9909C35.9417 28.45 35.7722 28.8879 35.5462 29.3046L36.2523 30.3923L34.7554 31.9462L33.6397 31.2399C33.2372 31.4871 32.7994 31.6707 32.3475 31.8049L32.0792 33.0834H29.9608L29.6501 31.812C29.1911 31.699 28.7533 31.5295 28.3367 31.3035L27.2493 32.0098L25.6958 30.5053L26.402 29.3964C26.1548 28.9938 25.9712 28.5559 25.8371 28.1039L24.559 27.8355L24.5237 25.7166L25.7876 25.4058C25.9006 24.9467 26.0771 24.5088 26.3031 24.0921L25.597 23.0043L27.094 21.4505L28.2096 22.1568L28.1955 22.1921ZM29.3465 25.0668C28.4568 25.985 28.485 27.4541 29.403 28.344C30.3209 29.234 31.7897 29.2057 32.6794 28.2875C33.5691 27.3693 33.5408 25.9002 32.6229 25.0103C31.7049 24.1203 30.2362 24.1486 29.3465 25.0668Z" fill="#E0E0E0"/>
<path d="M133.605 17.6505C134.403 17.1702 135.257 16.7959 136.154 16.5416L136.677 14.0201L140.913 13.9424L141.528 16.4498C142.432 16.6687 143.307 17.0148 144.119 17.4669L146.238 16.0542L149.366 19.0631L148.038 21.2385C148.518 22.0367 148.893 22.8984 149.147 23.7954L151.675 24.318L151.745 28.5559L149.246 29.1704C149.02 30.0815 148.674 30.9573 148.215 31.7766L149.627 33.9379L146.668 37.0033L144.465 35.6684C143.667 36.1487 142.813 36.523 141.916 36.7773L141.387 39.2988L137.15 39.3765L136.536 36.8691C135.618 36.6502 134.742 36.3111 133.916 35.8591L131.797 37.2717L128.726 34.3123L130.06 32.1086C129.58 31.3105 129.206 30.4488 128.952 29.5518L126.431 29.0291L126.353 24.7913L128.86 24.1768C129.079 23.2727 129.425 22.4039 129.877 21.5917L128.465 19.4304L131.423 16.365L133.605 17.6505ZM135.879 23.301C134.128 25.1232 134.177 28.0191 135.999 29.7707C137.821 31.5224 140.716 31.4729 142.467 29.6507C144.218 27.8284 144.169 24.9325 142.347 23.1809C140.518 21.4434 137.623 21.5211 135.886 23.3504C135.886 23.3504 135.886 23.3504 135.879 23.3575V23.301Z" fill="#EBEBEB"/>
<path d="M246.337 122.961C247.361 122.346 248.455 121.873 249.606 121.548L250.313 118.306L255.785 118.208L256.576 121.428C257.741 121.711 258.857 122.149 259.902 122.735L262.663 120.92L266.603 124.727L264.894 127.552C265.508 128.576 265.981 129.678 266.306 130.829L269.547 131.536L269.646 137.009L266.426 137.8C266.144 138.959 265.706 140.075 265.12 141.12L266.935 143.889L263.136 147.788L260.311 146.071C259.287 146.686 258.186 147.159 257.035 147.484L256.329 150.726L250.856 150.818L250.065 147.611C248.907 147.322 247.792 146.884 246.747 146.304L243.979 148.12L240.039 144.313L241.754 141.487C241.14 140.463 240.667 139.368 240.342 138.217L237.101 137.511L237.009 132.072L240.222 131.281C240.512 130.123 240.949 129 241.528 127.955L239.714 125.193L243.52 121.252L246.344 122.968H246.337V122.961ZM249.253 130.25C247.001 132.588 247.071 136.31 249.409 138.556C251.746 140.802 255.467 140.739 257.713 138.401C259.965 136.063 259.895 132.348 257.564 130.095C255.234 127.842 251.52 127.898 249.268 130.229C249.268 130.229 249.26 130.236 249.253 130.243V130.25Z" fill="#E0E0E0"/>
<path d="M285.025 16.3934C285.04 8.20028 278.416 1.54686 270.225 1.53274C262.034 1.51861 255.383 8.14377 255.368 16.3369C255.368 18.9926 256.067 21.5989 257.416 23.8874L257.459 23.9439C258.023 24.9044 258.737 25.5896 259.457 26.5925L268.079 38.0064C268.982 39.1789 270.663 39.3908 271.835 38.4867C272.019 38.3455 272.181 38.183 272.315 38.0064L280.789 26.7832C281.558 25.8791 282.279 24.9398 282.942 23.958L282.978 23.9156C284.319 21.6342 285.033 19.0421 285.025 16.3934ZM270.197 22.8491C266.596 22.8491 263.672 19.9179 263.679 16.3157C263.679 12.7136 266.61 9.78947 270.211 9.79653C273.812 9.79653 276.729 12.7206 276.729 16.3228C276.729 19.925 273.805 22.8491 270.204 22.8491C270.204 22.8491 270.204 22.8491 270.197 22.8491Z" fill="#E0E0E0"/>
<path d="M23.9516 229.861C27.0233 227.728 28.5273 223.963 27.7718 220.297C26.8044 215.219 22.1228 211.822 17.3988 212.733C12.6749 213.644 9.56091 218.489 10.5283 223.575C11.1709 227.297 13.9953 230.256 17.6813 231.083C4.81578 235.659 8.22634 249.955 8.22634 249.955L39.5993 243.994C39.5993 243.994 37.4809 229.289 23.9516 229.861Z" fill="#EBEBEB"/>
<path d="M61.9621 290.801L55.5364 289.204C55.5364 289.204 54.2018 294.629 48.5387 293.336C46.2932 292.87 44.5915 291.027 44.302 288.752C44.0337 286.867 44.6762 284.967 46.0461 283.639C47.5855 282.099 50.3958 281.047 54.5196 282.89L58.1137 268.319L51.7233 266.744L49.605 275.283C49.605 275.283 40.0794 275.389 37.6503 285.263C35.3201 294.714 43.2499 298.994 46.8793 299.884C49.6614 300.569 59.2717 302.229 61.9621 290.801Z" fill="#EBEBEB"/>
<path d="M53.8767 257.675L52.3853 263.73L58.8644 265.327L60.3558 259.271L53.8767 257.675Z" fill="#EBEBEB"/>
<path d="M307 312.816C307 312.915 238.266 313 153.504 313C68.7408 313 0 312.887 0 312.816C0 312.746 68.7126 312.633 153.504 312.633C238.294 312.633 307 312.711 307 312.816Z" fill="black"/>
<path d="M17.4059 135.039H32.1567L30.8574 141.657H4.28613L5.33825 136.395L21.3319 123.858C25.2862 120.694 26.4936 118.843 26.4936 116.534C26.4936 114.224 24.7354 112.67 21.3319 112.67C18.4227 112.712 15.69 114.062 13.8752 116.336L8.40988 112.373C11.2344 108.51 16.4808 105.953 22.5323 105.953C29.9536 105.953 34.8117 109.916 34.8117 115.382C34.8117 119.542 32.9123 123.053 26.7408 127.82L17.4059 135.039Z" fill="#263238"/>
<path d="M67.3002 134.29H61.5383L60.0837 141.657H52.161L53.6651 134.29H34.7622L35.8143 128.823L56.4754 106.553H65.3443L46.0954 127.665H55.3174L56.6237 121.096H64.1933L62.887 127.665H68.656L67.3002 134.29Z" fill="#263238"/>
<path d="M90.461 99.4338H97.7834L72.0171 146.672H64.7158L90.461 99.4338Z" fill="#263238"/>
<path d="M123.903 106.553L122.851 111.823L104.103 141.657H95.079L113.071 113.172H101.695L100.537 118.893H93.3208L95.7852 106.553H123.903Z" fill="#263238"/>
<path d="M1.00269 169.351L3.0575 165.452C4.88635 166.625 7.01177 167.253 9.18662 167.268C11.192 167.268 12.35 166.639 12.35 165.636C12.35 163.157 3.39643 164.527 3.39643 158.735C3.39643 154.759 6.79287 152.153 12.2441 152.153C14.5531 152.075 16.848 152.619 18.8746 153.735L16.9822 157.605C15.464 156.673 13.7129 156.179 11.9264 156.193C9.76564 156.193 8.6076 156.984 8.6076 157.987C8.6076 160.515 17.5612 159.067 17.5612 164.753C17.5612 168.701 14.0871 171.308 8.69234 171.308C5.52892 171.322 2.66207 170.481 1.00269 169.351Z" fill="#263238"/>
<path d="M26.8467 156.553L26.2465 159.661H34.4304L33.6466 163.552H25.4556L24.7919 166.929H34.4587L33.6113 170.954H18.8181L22.5323 152.555H36.9584L36.1393 156.588L26.8467 156.553Z" fill="#263238"/>
<path d="M50.4029 165.424L53.538 170.954H48.0868L45.3471 166.06H42.7203L41.7458 170.954H36.5347L40.2136 152.555H48.0868C52.7966 152.555 55.5081 154.745 55.5081 158.432C55.5858 161.652 53.4886 164.52 50.4029 165.424ZM47.3524 156.631H44.6127L43.5323 162.027H46.6393C48.9341 162.027 50.2758 160.925 50.2758 158.898C50.2475 157.344 49.1389 156.631 47.3524 156.631Z" fill="#263238"/>
<path d="M78.3512 152.555L66.8344 170.954H61.7009L57.4783 152.555H62.8236L65.4574 164.562L72.9847 152.555H78.3512Z" fill="#263238"/>
<path d="M79.4527 152.555H84.671L80.9568 170.954H75.7456L79.4527 152.555Z" fill="#263238"/>
<path d="M85.4829 163.213C85.4829 156.814 90.1927 152.153 97.035 152.153C100.431 152.153 103.199 153.396 104.513 155.628L100.728 158.629C99.8666 157.231 98.3131 156.419 96.6749 156.511C93.0949 156.511 90.7223 159.272 90.7223 162.903C90.7223 165.382 92.41 167.042 95.2274 167.042C96.9715 167.049 98.6238 166.272 99.7254 164.923L102.804 167.946C100.728 170.453 98.0165 171.371 94.726 171.371C89.0912 171.322 85.4829 168.03 85.4829 163.213Z" fill="#263238"/>
<path d="M112.118 156.553L111.511 159.661H119.694L118.932 163.552H110.72L110.063 166.929H119.723L118.882 170.954H104.117L107.789 152.555H122.215L121.403 156.588L112.118 156.553Z" fill="#263238"/>
<path d="M21.0423 96.1639H10.7542C10.7542 81.8399 16.5514 67.2053 26.656 55.975C37.2902 44.1726 51.0948 37.6746 65.4926 37.6746C94.9167 37.6746 115.472 59.1604 115.472 89.9413H105.205C105.205 64.8462 89.2536 47.9866 65.5138 47.9866C42.2401 47.9655 21.0423 70.9346 21.0423 96.1639Z" fill="#B7B7B7"/>
<path d="M26.6842 93.3031C28.3294 93.3031 29.664 93.4656 29.6569 93.6139C29.6499 93.7622 28.3224 93.8753 26.6842 93.8753C25.046 93.8753 23.7043 93.7411 23.7043 93.5645C23.7043 93.3879 25.046 93.2749 26.6842 93.3031Z" fill="#263238"/>
<path d="M33.7879 70.7438C35.2001 71.6479 36.1534 72.5731 35.998 72.8203C35.8427 73.0675 34.5858 72.5661 33.1735 71.7114C31.7613 70.8568 30.8222 69.9174 30.9704 69.6349C31.1187 69.3524 32.4109 69.8468 33.7879 70.7438Z" fill="#263238"/>
<path d="M51.5819 55.198C52.2528 56.7024 52.5846 58.0232 52.2881 58.1362C51.9915 58.2492 51.2359 57.1545 50.5157 55.6783C49.7955 54.2021 49.4636 52.853 49.8096 52.74C50.1556 52.627 50.9182 53.6724 51.5819 55.198Z" fill="#263238"/>
<path d="M75.0252 53.3474C74.6156 54.9437 74.0578 56.1726 73.7824 56.1161C73.507 56.0596 73.5635 54.7035 73.9166 53.0861C74.2696 51.4686 74.8204 50.2609 75.1593 50.3244C75.4983 50.388 75.4347 51.7582 75.0252 53.3474Z" fill="#263238"/>
<path d="M94.1752 66.8096C92.8053 67.7137 91.5696 68.2646 91.4072 68.0386C91.2448 67.8126 92.198 66.8379 93.5255 65.8702C94.8531 64.9026 96.0958 64.3587 96.2935 64.6412C96.4913 64.9238 95.5451 65.8985 94.1752 66.8096Z" fill="#263238"/>
<path d="M100.481 88.9876C98.8426 88.9876 97.5081 88.8605 97.5081 88.7192C97.5081 88.578 98.8356 88.4367 100.481 88.4155C102.126 88.3943 103.454 88.5144 103.461 88.6839C103.468 88.8534 102.14 88.9876 100.481 88.9876Z" fill="#263238"/>
<path d="M62.7034 92.053C62.1879 92.053 61.6936 91.8835 61.2911 91.5656L43.9982 78.1458C43.0026 77.3689 42.8261 75.9209 43.6028 74.925C44.3795 73.9291 45.8271 73.7526 46.8227 74.5295L62.5975 86.7627L84.3813 66.7531C85.3063 65.8914 86.7538 65.9479 87.6153 66.8731C88.4768 67.7984 88.4203 69.2463 87.4953 70.108L64.2851 91.4385C63.8543 91.834 63.2894 92.06 62.7034 92.053Z" fill="#AFAFAF"/>
<path d="M74.4321 22.5454H54.6042C54.2961 22.5454 54.0464 22.7952 54.0464 23.1034V30.2865C54.0464 30.5947 54.2961 30.8445 54.6042 30.8445H74.4321C74.7402 30.8445 74.9899 30.5947 74.9899 30.2865V23.1034C74.9899 22.7952 74.7402 22.5454 74.4321 22.5454Z" fill="#C4C4C4"/>
<path d="M69.9271 26.6985H59.1023V36.5162H69.9271V26.6985Z" fill="#C4C4C4"/>
<path d="M19.8394 47.9442L11.708 58.0169C11.392 58.4085 11.453 58.9821 11.8444 59.2982L17.4042 63.7887C17.7956 64.1049 18.3691 64.0438 18.6851 63.6523L26.8165 53.5795C27.1325 53.188 27.0714 52.6143 26.68 52.2982L21.1203 47.8077C20.7289 47.4916 20.1554 47.5527 19.8394 47.9442Z" fill="#C4C4C4"/>
<path d="M74.432 30.8445C74.432 30.9645 69.9905 31.0564 64.5463 31.0564C59.1021 31.0564 54.6606 30.9645 54.6606 30.8445C54.6606 30.7244 59.0951 30.6326 64.5463 30.6326C69.9976 30.6326 74.432 30.7315 74.432 30.8445Z" fill="#263238"/>
<path d="M19.6513 61.922C19.5383 62.0491 18.0414 60.9049 16.1913 59.5135C14.3413 58.1221 12.8372 56.992 12.929 56.8507C13.0208 56.7095 14.6802 57.6277 16.5514 59.0332C18.4227 60.4388 19.7572 61.8019 19.6513 61.922Z" fill="#263238"/>
<path d="M21.3742 59.3864C21.2612 59.5135 19.7642 58.3693 17.9142 56.9779C16.0641 55.5864 14.553 54.4563 14.6448 54.3151C14.7366 54.1738 16.4031 55.092 18.2743 56.5046C20.1455 57.9172 21.4801 59.2663 21.3742 59.3864Z" fill="#263238"/>
<path d="M23.4855 57.2604C23.3795 57.3875 21.8826 56.2433 20.0325 54.8519C18.1825 53.4605 16.6996 52.3304 16.7632 52.1891C16.8268 52.0478 18.5214 52.966 20.3856 54.3787C22.2498 55.7913 23.5984 57.1403 23.4855 57.2604Z" fill="#263238"/>
<path d="M25.5333 54.7247C25.4274 54.8519 23.9233 53.7077 22.0733 52.3162C20.2233 50.9248 18.7192 49.7947 18.8181 49.6535C18.9169 49.5122 20.5763 50.4304 22.4405 51.843C24.3046 53.2556 25.6392 54.6047 25.5333 54.7247Z" fill="#263238"/>
<path d="M104.25 41.532L98.986 46.3656C98.6154 46.7058 98.5907 47.2822 98.9309 47.6529L107.684 57.1905C108.024 57.5612 108.6 57.5859 108.971 57.2456L114.235 52.412C114.605 52.0717 114.63 51.4953 114.29 51.1246L105.537 41.587C105.197 41.2163 104.621 41.1917 104.25 41.532Z" fill="#C4C4C4"/>
<path d="M100.495 48.8837C100.389 48.7566 101.738 47.4711 103.39 45.8183C105.043 44.1656 106.377 42.873 106.504 42.9931C106.631 43.1132 105.48 44.6176 103.807 46.2562C102.133 47.8949 100.594 49.0038 100.495 48.8837Z" fill="#263238"/>
<path d="M102.748 50.9601C102.635 50.833 103.99 49.5475 105.636 47.8947C107.281 46.242 108.63 44.9494 108.757 45.0695C108.884 45.1896 107.726 46.694 106.059 48.3326C104.393 49.9713 102.846 51.0802 102.748 50.9601Z" fill="#263238"/>
<path d="M104.534 53.3686C104.421 53.2414 105.777 51.9559 107.422 50.3032C109.067 48.6504 110.416 47.3579 110.543 47.478C110.67 47.598 109.512 49.0954 107.839 50.734C106.165 52.3727 104.633 53.4886 104.534 53.3686Z" fill="#263238"/>
<path d="M106.737 55.7914C106.624 55.6643 107.98 54.3788 109.625 52.726C111.27 51.0733 112.619 49.7807 112.746 49.9008C112.873 50.0209 111.715 51.5253 110.042 53.1639C108.368 54.8026 106.836 55.8903 106.737 55.7914Z" fill="#263238"/>
<path d="M56.8286 30.8375C56.6661 30.8375 56.532 29.0011 56.532 26.7479C56.532 24.4948 56.6661 22.6514 56.8286 22.6514C56.991 22.6514 57.1322 24.4878 57.1322 26.7479C57.1322 29.0081 56.998 30.8375 56.8286 30.8375Z" fill="#263238"/>
<path d="M60.7121 30.8375C60.5497 30.8375 60.4155 29.0011 60.4155 26.7479C60.4155 24.4948 60.5497 22.6514 60.7121 22.6514C60.8745 22.6514 61.0087 24.4878 61.0087 26.7479C61.0087 29.0081 60.8745 30.8375 60.7121 30.8375Z" fill="#263238"/>
<path d="M64.5888 30.8375C64.4264 30.8375 64.2922 29.0011 64.2922 26.7479C64.2922 24.4948 64.4264 22.6514 64.5888 22.6514C64.7512 22.6514 64.8854 24.4878 64.8854 26.7479C64.8854 29.0081 64.7583 30.8375 64.5888 30.8375Z" fill="#263238"/>
<path d="M68.4724 30.8375C68.3029 30.8375 68.1758 29.0011 68.1758 26.7479C68.1758 24.4948 68.3029 22.6514 68.4724 22.6514C68.6418 22.6514 68.7689 24.4878 68.7689 26.7479C68.7689 29.0081 68.6348 30.8375 68.4724 30.8375Z" fill="#263238"/>
<path d="M72.3491 30.8375C72.1867 30.8375 72.0525 29.0011 72.0525 26.7479C72.0525 24.4948 72.1867 22.6514 72.3491 22.6514C72.5115 22.6514 72.6456 24.4878 72.6456 26.7479C72.6456 29.0081 72.4832 30.8375 72.3491 30.8375Z" fill="#263238"/>
<path d="M66.8999 92.6463C68.924 90.6217 68.924 87.3392 66.8999 85.3146C64.8759 83.29 61.5942 83.29 59.5702 85.3146C57.5461 87.3392 57.5461 90.6217 59.5702 92.6463C61.5942 94.6709 64.8759 94.6709 66.8999 92.6463Z" fill="#919191"/>
<path d="M68.416 88.9877C68.3666 88.9877 68.3736 88.5286 68.1547 87.7446C67.844 86.6499 67.1732 85.6893 66.2553 85.0183C64.0663 83.3938 60.9664 83.8458 59.3424 86.0424C57.7183 88.239 58.1702 91.3327 60.3662 92.9572C62.1174 94.2568 64.5112 94.2568 66.2623 92.9572C67.1803 92.2791 67.8441 91.3256 68.1618 90.2308C68.3807 89.4468 68.3736 88.9877 68.4231 88.9877C68.4725 88.9877 68.4231 89.1007 68.4231 89.3197C68.4372 89.6446 68.4019 89.9695 68.3242 90.2803C68.07 91.4598 67.4133 92.5122 66.4601 93.2538C65.0125 94.391 63.0919 94.7018 61.3619 94.0873C58.5444 93.0914 57.0757 89.9977 58.0713 87.1796C58.6151 85.6398 59.8225 84.432 61.3619 83.8882C63.0919 83.2737 65.0125 83.5845 66.4601 84.7146C67.4133 85.4633 68.07 86.5157 68.3242 87.6952C68.4019 88.006 68.4372 88.3309 68.4231 88.6558C68.4584 88.8606 68.4443 88.9877 68.4231 88.9877H68.416Z" fill="#263238"/>
<path d="M245.673 106.744L254.528 105.332C267.365 115.693 286.169 113.68 296.528 100.839C306.887 87.9988 304.874 69.1899 292.037 58.8283C279.2 48.4668 260.396 50.4798 250.037 63.3205C242.227 73.0039 241.232 86.5156 247.545 97.2373L245.673 106.744Z" fill="white"/>
<path d="M245.673 106.744C245.673 106.744 245.673 106.546 245.772 106.144L246.111 104.336C246.415 102.711 246.867 100.331 247.453 97.2232C247.453 97.1879 247.495 97.1597 247.531 97.1667C247.531 97.1667 247.538 97.1667 247.545 97.1667C247.559 97.1597 247.573 97.1597 247.587 97.1667L247.46 97.2656C244.932 92.9995 243.506 88.1754 243.301 83.2172C243.237 81.6774 243.301 80.1306 243.477 78.5979C243.689 76.9593 244.021 75.3348 244.48 73.7456C247.891 61.9573 258.151 53.4393 270.367 52.2597C279.864 51.3627 289.227 55.0567 295.554 62.1975L296.754 63.6101C297.128 64.1045 297.46 64.6201 297.828 65.1145C298.527 66.1175 299.162 67.1699 299.727 68.2505C300.038 68.7732 300.235 69.3524 300.497 69.8962C300.758 70.4401 301.026 70.9839 301.203 71.5631C301.619 72.6861 301.965 73.8304 302.241 74.9958C303.328 79.5232 303.364 84.2413 302.347 88.7829C299.558 100.875 289.601 110 277.315 111.724C275.662 111.95 274.003 112.042 272.337 112.013C270.79 111.943 269.251 111.773 267.726 111.519C262.868 110.615 258.313 108.503 254.479 105.388H254.542L247.919 106.384L246.231 106.631L245.673 106.709L246.26 106.603L247.961 106.32L254.514 105.233H254.578C258.405 108.298 262.938 110.368 267.768 111.243C269.279 111.498 270.811 111.653 272.344 111.717C273.996 111.745 275.648 111.639 277.286 111.413C289.425 109.654 299.24 100.621 302.001 88.6699C302.996 84.1777 302.954 79.5161 301.881 75.0452C301.605 73.8939 301.259 72.7638 300.857 71.6549C300.68 71.0828 300.384 70.5602 300.151 70.0092C299.918 69.4583 299.692 68.9003 299.388 68.3847C298.83 67.3111 298.202 66.2799 297.51 65.2911C297.157 64.7967 296.804 64.2881 296.451 63.8008L295.264 62.3882C289.015 55.3322 279.772 51.6806 270.388 52.5493C262.105 53.3686 254.542 57.6206 249.536 64.267C247.375 67.1416 245.765 70.3906 244.777 73.8515C244.318 75.4266 243.986 77.0299 243.767 78.6544C243.583 80.173 243.513 81.7057 243.569 83.2384C243.739 88.1613 245.13 92.9571 247.601 97.2162C247.629 97.2444 247.629 97.2939 247.601 97.3221C247.573 97.3433 247.531 97.3433 247.502 97.3221L247.629 97.2797C247.008 100.352 246.528 102.711 246.217 104.343C246.055 105.141 245.928 105.755 245.843 106.165C245.758 106.575 245.673 106.744 245.673 106.744Z" fill="#263238"/>
<path d="M282.314 82.97C282.314 81.296 283.663 79.9399 285.336 79.9329C287.01 79.9329 288.365 81.2819 288.372 82.9559C288.372 84.6298 287.024 85.9859 285.35 85.993C285.35 85.993 285.343 85.993 285.336 85.993C283.67 85.993 282.321 84.6369 282.314 82.97Z" fill="#263238"/>
<path d="M270.197 82.97C270.197 81.2961 271.546 79.94 273.219 79.9329C274.893 79.9258 276.248 81.2819 276.256 82.9559C276.263 84.6298 274.907 85.9859 273.233 85.993C271.56 85.993 270.211 84.644 270.204 82.97H270.197Z" fill="#263238"/>
<path d="M258.115 84.4815C257.282 83.0335 257.776 81.1759 259.224 80.3425C260.671 79.5091 262.529 80.0035 263.362 81.4514C264.195 82.8993 263.701 84.7569 262.253 85.5904C260.806 86.4238 258.956 85.9294 258.115 84.4815Z" fill="#263238"/>
<path d="M46.5615 191.402C44.7044 190.519 41.5763 188.676 39.6415 187.955C37.728 187.136 35.5955 186.995 33.5901 187.546C32.4532 187.927 31.3164 188.838 31.3093 190.039L38.9001 195.64L46.5615 193.62V191.402Z" fill="#6D6D6D"/>
<path d="M38.2576 191.324C38.2576 191.324 24.6225 188.365 22.3487 187.199C20.075 186.034 8.22633 180.101 6.24213 180.101C4.25794 180.101 2.56325 180.638 2.20312 182.616L4.79459 184.628L5.12646 185.66L9.5609 187.969L10.3447 189.424L21.6426 195.456C21.6426 195.456 33.4913 201.474 35.4685 201.813C37.4456 202.152 47.3172 202.978 51.5398 206.573L68.4867 199.609C68.4867 199.609 63.5932 192.659 59.8226 190.943C56.4614 189.417 50.8195 189.417 46.8723 191.035L38.2576 191.324Z" fill="#AFAFAF"/>
<path d="M49.5979 202.703C49.5979 202.703 71.1699 249.757 74.644 259.207C74.644 259.207 98.758 255.238 99.5842 241.854L68.5149 199.475L49.5979 202.703Z" fill="#AFAFAF"/>
<path d="M29.5652 192.391H29.3322C29.1133 192.37 28.8944 192.32 28.6825 192.257C27.9058 192.024 27.1573 191.72 26.4371 191.353C25.5191 190.908 24.4529 190.321 23.2807 189.665C22.6946 189.34 22.0803 188.994 21.4377 188.662C20.7952 188.33 20.0961 188.04 19.3829 187.729C18.0625 187.129 16.6997 186.635 15.3016 186.246C14.0235 185.928 12.7948 185.688 11.8698 185.999C11.1425 186.288 10.5705 186.868 10.2881 187.595C10.1822 187.871 10.0621 188.139 9.92798 188.4C9.92798 188.4 9.92798 188.316 9.96328 188.174C10.0127 187.955 10.0763 187.743 10.1539 187.539C10.281 187.207 10.4505 186.896 10.6553 186.613C10.9307 186.225 11.312 185.921 11.7568 185.752C12.3076 185.568 12.8866 185.512 13.4586 185.582C14.1012 185.646 14.7367 185.759 15.358 185.914C16.7844 186.288 18.1755 186.783 19.5242 187.383C20.2303 187.694 20.9364 187.984 21.5931 188.33C22.2498 188.676 22.857 189.036 23.4431 189.368C24.6082 190.039 25.6533 190.646 26.5501 191.113C27.2421 191.494 27.9623 191.826 28.7037 192.108C29.2545 192.313 29.5652 192.356 29.5652 192.391Z" fill="#6D6D6D"/>
<path d="M16.5587 185.624C15.8949 185.49 15.2523 185.264 14.6451 184.961C13.1905 184.275 11.6935 183.675 10.1612 183.174C9.32093 182.933 8.4524 182.863 7.58388 182.955C6.88482 182.976 6.22812 183.28 5.76209 183.802C5.4867 184.184 5.30311 184.629 5.23249 185.095C5.23249 185.278 5.19013 185.455 5.12658 185.624C5.09127 185.448 5.09127 185.257 5.12658 185.081C5.15482 184.579 5.31723 184.092 5.59262 183.668C5.81151 183.371 6.0869 183.131 6.41172 182.962C6.7789 182.785 7.17433 182.672 7.58388 182.63C8.49477 182.517 9.41979 182.587 10.3024 182.835C11.8559 183.329 13.3599 183.972 14.7934 184.742C15.4006 185.003 15.9867 185.3 16.5587 185.624Z" fill="#6D6D6D"/>
<path d="M50.5935 189.989C50.5935 189.989 50.4029 190.102 50.0427 190.23C49.5273 190.413 48.9977 190.576 48.4681 190.71C46.7169 191.169 44.9163 191.43 43.1086 191.508C41.301 191.586 39.4862 191.48 37.6998 191.183C36.9936 191.063 36.4711 190.943 36.0969 190.837C35.8991 190.809 35.7014 190.745 35.5249 190.646C35.5249 190.59 36.3722 190.752 37.7421 190.922C39.5145 191.141 41.308 191.211 43.0945 191.141C44.881 191.049 46.6604 190.809 48.4116 190.434C49.7179 190.18 50.5441 189.94 50.5935 189.989Z" fill="#333333"/>
<path d="M251.443 162.055L220.063 155.557L212.295 149.73L170.846 157.725C170.182 158.94 163.467 168.32 163.467 168.32L147.141 173.864C140.2 175.687 134.008 179.642 129.432 185.165C125.082 190.54 121.509 196.509 118.84 202.894C111.496 220.135 100.898 240.053 100.898 240.053L94.253 229.345L66.2483 242.539C66.2483 242.539 82.6515 275.615 88.0815 280.34C94.1189 285.588 108.001 286.196 117.597 276.406C123.38 270.501 140.094 247.165 143.576 241.324L148.744 265.748L153.497 293.626L145.814 312.816H257.946L253.307 294.678C253.307 294.678 257.875 247.405 259.139 238.605C262.112 217.846 251.443 162.055 251.443 162.055Z" fill="#494949"/>
<path d="M251.442 162.055C251.442 162.055 273.897 168.355 278.84 190.682C281.834 204.207 292.002 242.765 295.582 274.506C297.7 293.379 297.644 310.817 297.7 312.816H263.242L248.639 168.355L251.442 162.055Z" fill="#494949"/>
<path d="M193.851 181.224C193.851 181.224 193.851 181.309 193.759 181.457L193.442 182.107C193.159 182.679 192.736 183.52 192.277 184.586C191.281 186.705 190.109 189.848 188.216 193.358L188.125 193.535L187.969 193.401C185.639 191.416 183.111 189.029 180.498 186.451C175.873 181.86 171.82 177.587 168.826 174.557L165.26 170.976L164.279 170.008C164.159 169.902 164.053 169.782 163.954 169.655C164.088 169.74 164.215 169.845 164.328 169.959L165.345 170.877C166.221 171.682 167.464 172.876 168.996 174.373C172.039 177.361 176.128 181.605 180.739 186.189C183.351 188.767 185.865 191.134 188.167 193.154L187.913 193.196C189.819 189.735 191.034 186.606 192.079 184.501C192.594 183.435 193.025 182.616 193.336 182.058C193.477 181.81 193.597 181.598 193.696 181.436C193.738 181.358 193.795 181.288 193.851 181.224Z" fill="black"/>
<path d="M220.5 156.355C220.5 156.525 220.479 156.687 220.437 156.85C220.366 157.203 220.281 157.669 220.175 158.262C219.921 159.477 219.469 161.229 218.89 163.362C217.669 167.6 215.692 173.455 213.241 179.776C211.949 183.124 210.678 186.289 209.492 189.093L209.4 189.312L209.224 189.156C206.025 186.331 203.158 184.106 201.216 182.453C200.242 181.627 199.479 180.963 198.964 180.497L198.392 179.96C198.257 179.833 198.194 179.769 198.201 179.762C198.286 179.805 198.356 179.854 198.427 179.918L199.034 180.419L201.343 182.298C203.327 183.908 206.215 186.091 209.449 188.902L209.181 188.965C210.346 186.14 211.61 182.99 212.895 179.649C215.317 173.292 217.33 167.536 218.608 163.291C219.243 161.172 219.709 159.435 220.02 158.227C220.154 157.655 220.267 157.196 220.352 156.814C220.387 156.659 220.437 156.504 220.5 156.355Z" fill="black"/>
<path d="M147.862 262.619C147.833 262.57 147.812 262.52 147.798 262.464L147.65 261.983C147.523 261.51 147.346 260.889 147.12 260.119C146.88 259.313 146.647 258.318 146.365 257.159C146.082 256.001 145.779 254.673 145.475 253.204C143.914 245.54 142.813 237.792 142.184 229.995C141.387 220.862 141.21 212.563 141.252 206.566C141.252 203.565 141.33 201.135 141.415 199.461C141.457 198.642 141.485 197.999 141.507 197.526C141.507 197.328 141.507 197.158 141.542 197.024C141.535 196.968 141.535 196.911 141.542 196.855C141.542 196.911 141.542 196.975 141.542 197.031V199.461C141.542 201.142 141.485 203.565 141.5 206.566C141.5 212.556 141.74 220.848 142.538 229.959C143.173 237.743 144.232 245.484 145.715 253.154C146.005 254.624 146.273 255.98 146.548 257.11C146.824 258.24 147.028 259.278 147.254 260.083L147.72 261.962L147.826 262.449C147.862 262.562 147.869 262.619 147.862 262.619Z" fill="black"/>
<path d="M253.307 186.818C253.349 186.882 253.384 186.945 253.405 187.016C253.469 187.164 253.554 187.355 253.653 187.595C253.879 188.132 254.182 188.888 254.578 189.841C254.775 190.336 255.008 190.872 255.234 191.473L255.905 193.45C256.145 194.157 256.399 194.927 256.675 195.732C256.95 196.537 257.134 197.42 257.381 198.331C259.499 205.599 260.559 216.116 259.951 227.621C259.344 239.127 257.988 249.517 257.127 256.976C256.696 260.705 256.343 263.735 256.096 265.854C255.976 266.878 255.877 267.69 255.806 268.262L255.722 268.891C255.722 268.962 255.7 269.032 255.679 269.103C255.672 269.032 255.672 268.962 255.679 268.891L255.729 268.255C255.785 267.676 255.863 266.843 255.955 265.84C256.152 263.721 256.463 260.698 256.865 256.947C257.635 249.446 258.934 239.092 259.556 227.607C260.177 216.123 259.132 205.662 257.106 198.394L256.399 195.795L255.693 193.521C255.467 192.815 255.256 192.144 255.058 191.536C254.86 190.929 254.62 190.385 254.429 189.891C254.062 188.923 253.78 188.167 253.568 187.623C253.483 187.376 253.413 187.185 253.356 187.03C253.328 186.959 253.314 186.889 253.307 186.818Z" fill="black"/>
<path d="M101.081 264.102C100.982 264.102 100.862 258.72 100.82 252.095C100.778 245.47 100.82 240.088 100.926 240.088C101.032 240.088 101.145 245.47 101.187 252.095C101.229 258.72 101.187 264.102 101.081 264.102Z" fill="black"/>
<path d="M202.974 296.698V296.402C202.974 296.19 203.031 295.907 203.073 295.54C203.172 294.763 203.306 293.654 203.483 292.228C203.575 291.521 203.674 290.709 203.787 289.84C203.9 288.971 203.984 288.011 204.09 287.015C204.295 284.967 204.577 282.643 204.796 280.058C204.902 278.772 205.008 277.416 205.128 276.011C205.248 274.605 205.305 273.136 205.396 271.618C205.608 268.58 205.7 265.324 205.82 261.906C205.975 255.062 205.954 247.532 205.601 239.643C205.248 231.754 204.528 224.253 203.73 217.451C203.285 214.053 202.897 210.826 202.395 207.824C202.162 206.319 201.958 204.864 201.689 203.473C201.421 202.082 201.202 200.747 200.983 199.468C200.552 196.918 200.058 194.63 199.656 192.61C199.451 191.6 199.267 190.661 199.091 189.785C198.914 188.909 198.724 188.139 198.561 187.433L197.855 184.177C197.785 183.816 197.721 183.534 197.679 183.329C197.636 183.124 197.629 183.032 197.629 183.032C197.664 183.124 197.693 183.216 197.714 183.315L197.933 184.155L198.717 187.404L199.274 189.749C199.458 190.611 199.656 191.543 199.875 192.575C200.291 194.588 200.807 196.876 201.252 199.426C201.485 200.704 201.725 202.039 201.958 203.431C202.212 204.843 202.417 206.256 202.664 207.781C203.172 210.79 203.575 214.018 204.034 217.415C204.846 224.224 205.538 231.732 205.933 239.629C206.329 247.525 206.3 255.069 206.124 261.92C205.99 265.345 205.891 268.602 205.665 271.639C205.566 273.157 205.495 274.626 205.375 276.039C205.255 277.452 205.128 278.801 205.015 280.093C204.817 282.678 204.514 285.037 204.309 287.043C204.189 288.067 204.076 289.021 203.977 289.868C203.878 290.716 203.744 291.535 203.638 292.256C203.433 293.668 203.271 294.784 203.165 295.554L203.031 296.416C203.017 296.515 203.003 296.607 202.974 296.698Z" fill="black"/>
<path d="M217.902 220.46H218.043L218.488 220.41L220.218 220.212L226.834 219.506L250.383 217.062H250.56V217.239C250.736 224.365 250.948 232.431 251.167 240.985V241.063L251.118 241.112L248.293 244.17L237.998 255.175L237.906 255.273L237.786 255.21L220.437 246.593L220.359 246.558V246.494C219.604 238.619 218.947 232.107 218.544 227.537C218.333 225.291 218.17 223.525 218.057 222.303C218.008 221.717 217.965 221.265 217.937 220.933C217.909 220.601 217.937 220.481 217.937 220.481C217.937 220.481 217.937 220.65 218.001 220.961C218.064 221.272 218.093 221.759 218.163 222.374C218.29 223.61 218.481 225.383 218.728 227.643C219.201 232.177 219.872 238.654 220.691 246.487L220.606 246.367L237.977 254.934L237.772 254.97L248.046 243.923L250.871 240.872L250.821 240.999C250.616 232.446 250.419 224.387 250.249 217.253L250.433 217.408L226.954 219.654L220.296 220.276L218.523 220.431L218.064 220.474L217.902 220.46Z" fill="black"/>
<path d="M250.602 225.432C250.2 225.545 249.79 225.623 249.381 225.665C248.59 225.792 247.446 225.955 246.027 226.138C243.202 226.499 239.255 226.915 234.912 227.332L223.784 228.42L220.416 228.773C220.006 228.836 219.597 228.872 219.18 228.865C219.582 228.752 219.992 228.674 220.402 228.632C221.192 228.504 222.336 228.342 223.756 228.158C226.58 227.798 230.527 227.381 234.877 226.965L245.998 225.877L249.367 225.524C249.776 225.46 250.186 225.425 250.602 225.432Z" fill="black"/>
<g opacity="0.3">
<path d="M257.423 253.211L258.61 267.641C261.229 255.281 265.346 241.995 264.703 229.38C264.061 216.766 262.875 204.695 255.771 193.274C258.857 201.87 260.276 210.981 259.944 220.114C259.295 234.875 257.423 253.211 257.423 253.211Z" fill="black"/>
</g>
<path d="M96.4066 226.35C96.0253 225.481 95.3474 224.775 94.5001 224.351C93.5115 224.012 92.4382 224.493 91.499 224.959L65.881 237.715C64.1934 238.555 62.3504 239.551 61.729 241.317C60.917 243.577 62.4351 245.964 63.8474 247.907C66.2058 251.149 69.0303 254.68 73.0269 255.139L95.065 240.024C97.7553 239.629 99.4288 236.627 99.3017 233.908C99.1746 231.188 97.7765 228.709 96.4066 226.35Z" fill="#606060"/>
<path d="M99.1886 235.589C99.1251 235.681 99.0474 235.765 98.9627 235.836L98.2566 236.493C97.6493 237.058 96.7525 237.856 95.6298 238.817C93.3773 240.745 90.1786 243.309 86.4502 245.922C82.7219 248.535 79.3114 250.69 76.7199 252.145C75.4348 252.886 74.3826 253.465 73.6483 253.847L72.8009 254.278C72.6032 254.376 72.4973 254.419 72.4902 254.405C72.575 254.327 72.6668 254.263 72.7656 254.214L73.5777 253.72L76.5857 251.919C79.1207 250.393 82.5736 248.203 86.2596 245.597C89.9455 242.991 93.1654 240.469 95.4391 238.598L98.1436 236.359L98.8497 235.758C99.0898 235.645 99.1816 235.575 99.1886 235.589Z" fill="black"/>
<g opacity="0.3">
<path d="M220.168 157.973C217.153 167.988 212.931 179.317 209.365 189.05C206.328 186.472 202.078 183.061 199.034 180.476C201.654 185.674 204.796 190.59 208.419 195.146C208.842 195.675 209.407 196.254 210.064 196.127C210.72 196 211.017 195.322 211.243 194.715L216.8 180.002C219.399 173.123 221.905 165.099 220.168 157.973Z" fill="black"/>
</g>
<path d="M172.505 49.0107C181.685 46.3691 190.271 49.0107 198.738 53.4039C207.204 57.7971 214.032 65.0509 218.452 73.4913C223.113 82.3837 225.175 92.7452 223.487 102.641C221.799 112.536 216.207 121.859 207.832 127.361C196.386 134.905 180.611 134.509 168.826 127.524C157.041 120.538 149.281 107.662 147.226 94.1084C145.814 84.771 146.958 74.9251 151.315 66.5624C155.671 58.1997 163.375 51.4192 172.498 49.0036" fill="#263238"/>
<path d="M202.643 77.7503C200.87 74.3389 200.948 70.2917 199.98 66.5624C197.862 58.3622 190.377 52.4363 182.243 50.0701C174.68 47.8594 165.931 49.5192 157.529 53.3192C151.781 55.9254 146.548 59.9231 143.117 65.2204C138.562 72.4248 137.771 81.3878 140.998 89.2773L182.935 78.2447C187.299 81.07 191.768 83.987 196.817 85.3078C198.286 85.7598 199.846 85.8305 201.35 85.5126C202.876 85.1524 204.048 83.9376 204.351 82.3978C204.528 80.7168 203.412 79.2406 202.643 77.7503Z" fill="#263238"/>
<path d="M212.648 152.132L201.823 75.9775C201.343 72.3753 199.705 68.7025 196.083 68.872L157.952 65.1992C146.005 65.7501 140.398 81.4443 141.457 93.3314C142.636 106.568 144.592 122.679 147.636 132.228C153.758 151.418 169.215 151.616 169.215 151.616C169.215 151.616 170.154 155.43 171.333 162.564L196.047 179.007L212.648 152.132Z" fill="#AFAFAF"/>
<path d="M150.672 107.818C150.87 109.188 152.12 110.148 153.496 109.986C154.838 109.894 155.848 108.729 155.756 107.387C155.756 107.366 155.756 107.344 155.756 107.316C155.558 105.946 154.308 104.985 152.932 105.141C151.583 105.247 150.573 106.419 150.672 107.768C150.672 107.782 150.672 107.796 150.672 107.818Z" fill="#263238"/>
<path d="M146.223 101.143C146.584 101.426 148.278 99.7306 150.997 99.3139C153.715 98.8972 155.904 99.9637 156.151 99.5823C156.272 99.4128 155.862 98.876 154.902 98.3674C153.602 97.7388 152.141 97.5199 150.714 97.7459C149.302 97.9578 147.996 98.6146 146.979 99.6176C146.238 100.38 146.047 100.995 146.223 101.143Z" fill="#263238"/>
<path d="M175.761 103.735C175.951 105.105 177.208 106.073 178.585 105.911C179.927 105.819 180.936 104.653 180.845 103.311C180.845 103.29 180.845 103.269 180.845 103.241C180.654 101.871 179.397 100.903 178.02 101.065C176.671 101.164 175.662 102.337 175.761 103.679C175.761 103.7 175.761 103.714 175.761 103.735Z" fill="#263238"/>
<path d="M172.046 97.548C172.406 97.8305 174.108 96.1354 176.82 95.7187C179.531 95.3019 181.727 96.3685 181.974 95.987C182.094 95.8175 181.685 95.2807 180.725 94.7722C179.425 94.1436 177.957 93.9246 176.53 94.1507C175.097 94.3625 173.776 95.0265 172.752 96.0506C172.046 96.7569 171.856 97.4632 172.046 97.548Z" fill="#263238"/>
<path d="M166.2 119.21C166.2 119.055 164.456 119.02 161.673 119.09C160.967 119.09 160.261 119.09 160.099 118.631C159.936 118.172 160.035 117.367 160.247 116.512C160.642 114.74 161.059 112.875 161.497 110.926C163.192 102.972 164.321 96.4815 163.989 96.4179C163.658 96.3544 162.034 102.775 160.332 110.685C159.929 112.642 159.541 114.514 159.181 116.3C159.04 117.127 158.722 118.087 159.237 119.069C159.513 119.535 159.993 119.846 160.529 119.91C160.925 119.966 161.334 119.966 161.73 119.91C164.505 119.613 166.214 119.359 166.2 119.21Z" fill="#263238"/>
<path d="M169.222 151.616C178.507 150.338 187.256 146.509 194.487 140.548C194.487 140.548 188.322 155.981 170.479 157.535L169.222 151.616Z" fill="#6D6D6D"/>
<path d="M168.346 125.581C169.193 124.098 170.747 123.159 172.449 123.095C173.677 123.024 174.885 123.462 175.789 124.303C176.671 125.115 176.954 126.401 176.495 127.509C175.923 128.647 174.426 129.12 173.077 128.922C171.728 128.668 170.436 128.138 169.292 127.382C168.953 127.206 168.643 126.966 168.396 126.676C168.141 126.401 168.085 126.005 168.24 125.666" fill="#6D6D6D"/>
<path d="M174.475 119.867C174.024 119.91 174.475 122.862 172.265 125.334C170.055 127.806 166.885 127.969 166.92 128.378C166.92 128.576 167.711 128.845 169.038 128.682C170.768 128.442 172.357 127.601 173.529 126.302C174.652 125.059 175.245 123.427 175.189 121.753C175.111 120.503 174.673 119.825 174.475 119.867Z" fill="#263238"/>
<path d="M171.27 89.4396C171.651 90.1459 174.306 89.376 177.547 89.2701C180.788 89.1641 183.5 89.6444 183.817 88.9169C183.959 88.5708 183.408 87.9493 182.257 87.3913C179.178 86.0493 175.655 86.1906 172.696 87.7868C171.601 88.4366 171.1 89.1076 171.27 89.4396Z" fill="#263238"/>
<path d="M145.214 89.1571C145.786 89.7009 147.558 88.7756 149.804 88.4013C152.049 88.027 154.04 88.1823 154.351 87.469C154.499 87.1229 154.104 86.5578 153.186 86.0987C150.679 85.0181 147.777 85.5549 145.821 87.4549C145.108 88.2106 144.945 88.8887 145.214 89.1571Z" fill="#263238"/>
<path d="M208.814 71.231C203.673 60.3256 185.074 46.7857 173.268 49.2083L155.763 63.1649C157.903 69.6135 163.403 74.374 170.097 75.5677C173.593 76.1469 177.688 75.8855 180.075 78.513C182.462 81.1405 181.89 85.6608 184.199 88.4507C187.397 92.3213 194.572 91.163 197.156 95.4714C198.293 97.3502 198.159 99.794 199.317 101.659C200.87 104.138 207.995 106.603 210.615 105.346C213.234 104.088 212.641 99.3985 213.213 96.8063C214.195 92.3919 213.263 90.2942 212.443 88.0058C210.53 82.5813 211.271 76.4294 208.814 71.231Z" fill="#263238"/>
<path d="M202.798 108.764C202.579 107.295 203.744 103.587 205.156 103.114C208.927 101.927 215.939 101.171 217.499 110.975C219.618 124.395 205.749 123.752 205.658 123.371C205.566 122.989 203.56 113.807 202.798 108.764Z" fill="#FFBF9D"/>
<path d="M208.941 117.649C208.998 117.593 209.202 117.777 209.647 117.89C210.24 118.045 210.869 117.953 211.398 117.649C212.726 116.908 213.559 114.471 213.241 112.041C213.093 110.89 212.684 109.781 212.055 108.806C211.667 107.994 210.904 107.429 210.015 107.295C209.435 107.238 208.899 107.599 208.743 108.157C208.623 108.559 208.743 108.814 208.68 108.863C208.616 108.912 208.362 108.686 208.376 108.114C208.397 107.775 208.539 107.45 208.772 107.196C209.097 106.857 209.541 106.659 210.007 106.645C211.052 106.553 212.126 107.351 212.775 108.333C213.531 109.407 214.018 110.643 214.188 111.942C214.534 114.655 213.552 117.402 211.702 118.299C211.01 118.631 210.205 118.631 209.513 118.299C209.019 117.946 208.899 117.678 208.941 117.649Z" fill="#FF9A6C"/>
<path d="M159.209 58.6516C158.595 64.3021 151.06 72.248 147.911 76.9308C141.86 85.8656 140.786 88.7262 142.919 106.921C138.908 101.009 135.688 95.1324 135.151 88.0057C134.615 80.8791 136.408 73.4841 140.758 67.8195C145.108 62.1549 152.105 58.4256 159.244 58.6375" fill="#263238"/>
<path d="M191.203 39.4896C194.028 36.3747 198.109 34.3476 202.346 33.2882C208.383 31.7767 215.014 32.1863 220.507 34.8138C226.001 37.4413 230.252 42.3713 231.361 48.0218C232.469 53.9335 230.224 59.9795 225.514 63.73C228.656 66.7742 232.483 69.0203 236.678 70.2704C235.534 71.9868 233.422 72.9897 231.29 73.3499C229.143 73.6183 226.976 73.6042 224.836 73.3076C226.298 75.49 228.48 77.0863 231.007 77.8138C227.533 78.619 223.911 78.4989 220.493 77.4677C217.153 76.4577 213.955 75.0168 210.982 73.1945C200.651 67.198 194.953 61.9431 187.976 52.7116C187.066 48.7281 188.358 42.6114 191.203 39.4896Z" fill="#263238"/>
<path d="M213.474 67.7984C205.891 56.7164 196.238 50.7905 187.503 48.947L213.474 67.7984Z" fill="#263238"/>
<path d="M187.503 48.947C187.906 49.1095 188.315 49.2295 188.739 49.3214C189.537 49.5474 190.688 49.8935 192.072 50.4232C195.673 51.8217 199.062 53.7287 202.134 56.0737C205.206 58.4186 208.009 61.0955 210.48 64.062C211.412 65.2133 212.168 66.1809 212.655 66.8166C212.895 67.1768 213.171 67.5158 213.474 67.8266C213.27 67.4381 213.036 67.0709 212.768 66.7248C212.316 66.0185 211.596 65.0649 210.685 63.8995C208.27 60.8412 205.495 58.0937 202.409 55.7205C199.302 53.3473 195.85 51.4685 192.171 50.1407C191.062 49.7451 189.932 49.4202 188.781 49.1589C188.365 49.053 187.934 48.9823 187.503 48.947Z" fill="#455A64"/>
<path d="M222.513 77.2416L222.343 77.2981L221.849 77.4959C221.425 77.6795 220.79 77.9197 219.957 78.2022C217.598 78.9933 215.162 79.4877 212.683 79.6854C209.012 79.9609 205.326 79.7208 201.717 78.9791C197.304 78.0539 192.983 76.7048 188.824 74.9602C184.375 73.145 180.181 71.2804 176.445 69.4511C173.127 67.8477 169.935 65.9972 166.892 63.9136C164.844 62.501 162.916 60.933 161.115 59.2237C160.466 58.6234 160 58.1219 159.703 57.8111L159.329 57.4368C159.244 57.3591 159.202 57.3167 159.195 57.3238C159.188 57.3308 159.195 57.3732 159.301 57.465L159.647 57.8676C159.95 58.2208 160.402 58.7364 161.059 59.3579C162.831 61.1237 164.745 62.727 166.786 64.1679C169.815 66.3009 173.014 68.1868 176.339 69.8183C180.082 71.6759 184.269 73.5547 188.725 75.377C192.912 77.1286 197.255 78.4706 201.703 79.3817C205.347 80.1092 209.068 80.3141 212.768 79.9892C215.24 79.7631 217.676 79.2263 220.013 78.3929C220.839 78.0751 221.468 77.8137 221.884 77.6018L222.357 77.3688C222.463 77.2769 222.52 77.2487 222.513 77.2416Z" fill="#455A64"/>
<path d="M182.504 143.755L181.226 141.254C181.318 141.205 190.187 136.656 193.597 133.789C201.633 127.036 209.019 116.251 209.096 116.131L211.427 117.72C211.116 118.179 203.751 128.936 195.412 135.943C191.74 139.008 182.878 143.564 182.504 143.755Z" fill="#455A64"/>
<path d="M189.106 135.95C189.106 135.95 176.989 141.36 176.989 142.561C176.989 143.762 178.91 146.163 180.35 146.043C181.791 145.923 185.957 143.578 186.705 142.617C187.454 141.657 188.781 139.185 190.236 137.984L189.106 135.95Z" fill="#263238"/>
<path d="M211.328 99.5823L208.503 99.4481C208.602 91.3043 207.204 83.203 204.365 75.5678C198.236 59.7748 186.451 51.2991 169.349 50.3668C167.795 50.2961 166.235 50.4021 164.703 50.6846L165.938 49.5121C166.539 48.9471 167.231 48.4951 167.993 48.1772C169.031 47.7393 170.168 47.5698 171.291 47.6687C192.884 49.5404 202.642 63.271 207.028 74.6284C210.014 82.6026 211.476 91.0713 211.328 99.5823Z" fill="#455A64"/>
<path d="M209.916 125.271C214.857 125.271 218.862 119.509 218.862 112.402C218.862 105.294 214.857 99.5327 209.916 99.5327C204.975 99.5327 200.969 105.294 200.969 112.402C200.969 119.509 204.975 125.271 209.916 125.271Z" fill="#455A64"/>
<path d="M218.862 112.402C218.855 112.345 218.855 112.282 218.862 112.225C218.862 112.084 218.862 111.914 218.82 111.702C218.791 111.039 218.721 110.368 218.615 109.711C218.248 107.274 217.302 104.971 215.854 102.98C215.367 102.337 214.802 101.758 214.173 101.249C213.488 100.712 212.719 100.289 211.893 100.013C211.01 99.7235 210.071 99.6387 209.153 99.7517C208.178 99.9001 207.246 100.246 206.413 100.776C204.648 102.005 203.292 103.721 202.501 105.72C200.722 110.014 200.722 114.846 202.501 119.14C203.292 121.139 204.648 122.855 206.413 124.084C207.246 124.614 208.178 124.96 209.153 125.108C210.071 125.221 211.01 125.129 211.893 124.847C212.719 124.571 213.488 124.148 214.173 123.611C214.802 123.102 215.367 122.523 215.854 121.88C217.302 119.889 218.248 117.586 218.615 115.149C218.721 114.492 218.784 113.821 218.82 113.157C218.82 112.946 218.82 112.776 218.862 112.635C218.855 112.578 218.855 112.515 218.862 112.458C218.876 112.515 218.876 112.578 218.862 112.635V113.157C218.855 113.828 218.806 114.499 218.721 115.17C218.403 117.65 217.478 120.009 216.023 122.036C215.529 122.7 214.957 123.3 214.315 123.83C213.609 124.402 212.811 124.84 211.949 125.136C211.024 125.44 210.043 125.539 209.075 125.426C208.051 125.278 207.077 124.917 206.201 124.367C204.372 123.123 202.96 121.365 202.141 119.309C200.305 114.923 200.305 109.993 202.141 105.607C202.96 103.552 204.372 101.793 206.201 100.55C207.077 99.9989 208.051 99.6387 209.075 99.4904C210.043 99.3774 211.024 99.4763 211.949 99.78C212.811 100.077 213.609 100.515 214.315 101.087C214.957 101.609 215.529 102.217 216.023 102.881C217.478 104.908 218.41 107.267 218.721 109.746C218.806 110.41 218.855 111.081 218.862 111.752V112.282C218.862 112.324 218.862 112.359 218.862 112.402Z" fill="#263238"/>
<path d="M211.292 119.874C214.44 119.874 216.991 116.206 216.991 111.681C216.991 107.156 214.44 103.488 211.292 103.488C208.145 103.488 205.594 107.156 205.594 111.681C205.594 116.206 208.145 119.874 211.292 119.874Z" fill="#455A64"/>
<path d="M216.991 111.681C216.948 111.681 216.991 111.06 216.786 109.965C216.553 108.432 215.946 106.977 215.021 105.727C214.392 104.872 213.524 104.223 212.521 103.869C211.963 103.693 211.377 103.636 210.798 103.707C210.184 103.799 209.605 104.018 209.082 104.35C207.974 105.12 207.119 106.2 206.618 107.458C206.06 108.799 205.771 110.24 205.778 111.695C205.778 113.15 206.053 114.591 206.618 115.933C207.119 117.19 207.974 118.271 209.082 119.041C209.605 119.373 210.184 119.592 210.798 119.684C211.377 119.754 211.963 119.698 212.521 119.521C213.524 119.168 214.392 118.518 215.021 117.664C215.946 116.413 216.553 114.958 216.786 113.426C216.963 112.331 216.948 111.709 216.991 111.717C216.998 111.865 216.998 112.013 216.991 112.162C216.991 112.592 216.963 113.023 216.906 113.447C216.715 115.029 216.136 116.541 215.204 117.84C214.555 118.758 213.644 119.451 212.592 119.832C211.999 120.037 211.363 120.1 210.742 120.03C210.078 119.924 209.449 119.684 208.885 119.323C207.712 118.525 206.801 117.395 206.272 116.082C205.093 113.27 205.093 110.113 206.272 107.302C206.801 105.988 207.712 104.858 208.885 104.06C209.442 103.7 210.078 103.46 210.735 103.354C211.363 103.283 211.991 103.354 212.592 103.552C213.644 103.933 214.555 104.625 215.204 105.543C216.136 106.843 216.715 108.355 216.906 109.937C216.963 110.36 216.991 110.791 216.991 111.222C216.998 111.378 216.998 111.526 216.991 111.681Z" fill="#263238"/>
<path d="M211.688 117.572C213.95 117.572 215.783 114.934 215.783 111.681C215.783 108.428 213.95 105.791 211.688 105.791C209.426 105.791 207.592 108.428 207.592 111.681C207.592 114.934 209.426 117.572 211.688 117.572Z" fill="#455A64"/>
<path d="M215.783 111.681C215.783 111.681 215.748 111.236 215.621 110.452C215.437 109.35 215 108.305 214.336 107.408C213.891 106.801 213.27 106.341 212.556 106.087C211.737 105.826 210.833 105.953 210.12 106.433C208.588 107.443 207.776 109.562 207.769 111.674C207.762 113.786 208.588 115.912 210.12 116.922C210.833 117.402 211.737 117.529 212.556 117.268C213.27 117.014 213.891 116.555 214.336 115.947C215 115.05 215.437 114.005 215.621 112.903C215.748 112.119 215.748 111.674 215.783 111.681C215.797 111.787 215.797 111.893 215.783 111.999C215.783 112.31 215.769 112.621 215.734 112.924C215.607 114.076 215.19 115.17 214.519 116.11C214.039 116.76 213.382 117.254 212.62 117.522C212.189 117.671 211.723 117.72 211.271 117.671C210.791 117.607 210.325 117.438 209.915 117.176C209.061 116.597 208.397 115.778 208.016 114.817C207.155 112.783 207.155 110.495 208.016 108.46C208.397 107.5 209.061 106.681 209.915 106.101C210.325 105.84 210.791 105.67 211.271 105.607C211.723 105.557 212.189 105.607 212.62 105.755C213.382 106.024 214.039 106.518 214.519 107.168C215.19 108.107 215.607 109.202 215.734 110.353C215.769 110.657 215.79 110.968 215.783 111.279C215.812 111.413 215.812 111.547 215.783 111.681Z" fill="#263238"/>
</g>
<defs>
<clipPath id="clip0_406_2601">
<rect width="307" height="313" fill="white"/>
</clipPath>
</defs>
</svg>
