<svg width="456" height="267" viewBox="0 0 456 267" fill="none" xmlns="http://www.w3.org/2000/svg">
<g clip-path="url(#clip0_408_3370)">
<path d="M362.898 45.2112L363.557 47.5356L361.462 62.3382L357.554 63.4247L359.623 49.2806L354.457 50.7029L355.162 53.2314L351.986 54.127L350.464 48.6682L362.898 45.2112Z" fill="#E0E0E0"/>
<path d="M378.818 52.2502C379.583 55.0026 378.232 57.9592 373.797 59.1906C371.715 59.8161 369.488 59.8161 367.406 59.1906L368.065 56.043C369.606 56.6027 371.293 56.6686 372.875 56.2142C374.667 55.7138 375.57 54.6536 375.221 53.3894C374.871 52.1251 373.857 51.5917 371.036 52.3753L367.083 53.4816L365.448 44.5197L374.924 41.8857L375.708 44.7765L369.224 46.5741L369.804 49.5965L371.069 49.2409C375.662 47.9437 378.054 49.5043 378.818 52.2502Z" fill="#E0E0E0"/>
<path d="M378.528 45.2837C377.83 42.7551 378.779 40.6743 380.868 40.0949C382.957 39.5154 384.821 40.7533 385.546 43.3346C386.271 45.9158 385.276 47.9439 383.207 48.5234C381.138 49.1028 379.234 47.8122 378.528 45.2837ZM384.459 43.6441C383.899 41.6291 382.614 40.6941 381.164 41.0957C379.715 41.4974 379.102 42.979 379.662 44.9808C380.222 46.9825 381.487 47.9373 382.957 47.5291C384.426 47.1208 384.993 45.6656 384.433 43.6441H384.459ZM390.33 37.5926L391.648 37.2305L385.362 55.7008L384.044 56.063L390.33 37.5926ZM390.113 49.9589C389.414 47.4303 390.383 45.3495 392.445 44.77C394.508 44.1906 396.399 45.4812 397.13 48.0098C397.862 50.5383 396.88 52.6191 394.791 53.1986C392.702 53.778 390.791 52.4874 390.086 49.9589H390.113ZM396.043 48.3192C395.49 46.3438 394.218 45.3627 392.748 45.7709C391.279 46.1792 390.679 47.6344 391.246 49.6494C391.813 51.6643 393.091 52.5994 394.541 52.1977C395.99 51.796 396.544 50.3144 395.99 48.3192H396.043Z" fill="#E0E0E0"/>
<path d="M397.208 202.835L396.748 261.358L443.142 261.723L443.602 203.199L397.208 202.835Z" fill="#EBEBEB"/>
<path d="M425.445 204.938L424.621 261.601L417.294 261.548L418.862 204.886L425.445 204.938Z" fill="#FAFAFA"/>
<path d="M370.562 204.51L397.176 204.721L443.572 205.083L397.13 211.187L396.735 261.383L370.127 261.179L370.562 204.51Z" fill="#E0E0E0"/>
<path d="M385.052 204.622L383.991 261.284L376.097 261.225L377.388 204.563L385.052 204.622Z" fill="#FAFAFA"/>
<path d="M406.118 187.377C406.118 187.495 405.334 187.64 403.904 187.778C401.881 187.976 399.852 188.068 397.822 188.048C394.758 188.061 391.701 187.66 388.742 186.856C388.281 186.712 387.839 186.507 387.424 186.264C386.937 185.981 386.521 185.592 386.212 185.118C385.895 184.611 385.724 184.025 385.724 183.426C385.724 182.899 385.79 182.379 385.922 181.872C386.337 179.969 386.91 178.105 387.642 176.301C388.044 175.359 388.551 174.464 389.144 173.628C389.737 172.772 390.488 172.034 391.351 171.448C391.813 171.139 392.333 170.915 392.88 170.79C393.434 170.671 394.014 170.671 394.567 170.79C395.516 171.06 396.392 171.54 397.13 172.186C399.529 174.128 401.572 176.466 403.166 179.106C404.24 180.864 405.064 182.761 405.611 184.749C405.973 186.158 406.013 186.962 405.914 186.988C405.624 187.074 404.972 183.906 402.145 179.745C400.484 177.341 398.461 175.215 396.142 173.443C395.562 172.963 394.89 172.6 394.165 172.396C393.486 172.265 392.781 172.416 392.221 172.818C391.543 173.298 390.963 173.898 390.495 174.582C389.974 175.32 389.533 176.11 389.177 176.94C388.492 178.652 387.938 180.41 387.523 182.208C387.279 182.846 387.299 183.557 387.569 184.183C387.991 184.73 388.571 185.118 389.236 185.302C389.987 185.546 390.752 185.75 391.523 185.908C392.281 186.079 393.032 186.211 393.763 186.323C395.219 186.554 396.59 186.685 397.855 186.771C400.379 186.942 402.468 186.975 403.871 187.047C405.275 187.12 406.112 187.258 406.118 187.377Z" fill="#E0E0E0"/>
<path d="M405.156 187.805C405.156 187.686 406 187.436 407.561 187.08C409.123 186.725 411.403 186.257 414.151 185.592C417.386 184.848 420.549 183.847 423.626 182.603C424.47 182.287 425.267 181.859 426.005 181.338C426.321 181.115 426.578 180.831 426.769 180.496C426.921 180.199 426.967 179.863 426.901 179.534C426.802 179.1 426.651 178.678 426.447 178.283C426.229 177.816 426.005 177.341 425.788 176.867C425.346 175.926 424.839 175.017 424.272 174.141C423.712 173.292 423.053 172.521 422.295 171.843C421.61 171.191 420.813 170.678 419.936 170.322C419.159 170.019 418.296 169.98 417.492 170.217C416.681 170.5 415.93 170.954 415.297 171.534C412.826 173.7 410.685 176.215 408.952 179.007C407.785 180.897 406.837 182.919 406.132 185.026C405.637 186.534 405.44 187.396 405.308 187.377C405.176 187.357 405.183 186.461 405.486 184.861C405.96 182.596 406.777 180.417 407.897 178.395C409.565 175.386 411.713 172.666 414.256 170.348C415.04 169.591 415.969 169.012 416.991 168.643C418.137 168.281 419.376 168.307 420.503 168.729C421.057 168.926 421.584 169.189 422.071 169.512C422.552 169.828 423.007 170.177 423.435 170.559C424.292 171.336 425.043 172.218 425.669 173.193C426.275 174.135 426.822 175.109 427.297 176.123L427.956 177.578C428.219 178.112 428.41 178.678 428.522 179.264C428.647 179.956 428.535 180.66 428.199 181.279C427.89 181.819 427.468 182.287 426.961 182.642C426.104 183.235 425.175 183.716 424.193 184.065C421.01 185.276 417.722 186.185 414.368 186.777C411.528 187.304 409.215 187.574 407.621 187.739C406.026 187.903 405.176 187.917 405.156 187.805Z" fill="#FAFAFA"/>
<path d="M362.273 185.051L362.121 204.423L430.319 204.958L430.472 185.587L362.273 185.051Z" fill="#E0E0E0"/>
<path d="M387.352 185.244L387.2 204.615L448.842 205.099L448.994 185.727L387.352 185.244Z" fill="#EBEBEB"/>
<path d="M430.071 185.605L429.642 205.063L422.453 204.912L422.954 185.546L430.071 185.605Z" fill="#FAFAFA"/>
<path d="M378.996 185.303L378.298 204.589L370.397 204.524L370.819 185.145L378.996 185.303Z" fill="#FAFAFA"/>
<path d="M432.348 235.315L432.138 262.049L453.329 262.215L453.539 235.482L432.348 235.315Z" fill="#EBEBEB"/>
<path d="M445.24 236.289L444.864 262.167L441.51 262.147L442.228 236.262L445.24 236.289Z" fill="#FAFAFA"/>
<path d="M420.167 236.091L432.324 236.183L453.516 236.354L432.305 239.14L432.12 262.068L419.969 261.976L420.167 236.091Z" fill="#E0E0E0"/>
<path d="M426.783 236.144L426.302 262.029L422.691 261.996L423.284 236.117L426.783 236.144Z" fill="#FAFAFA"/>
<path d="M436.41 228.268C436.41 228.486 434.993 228.815 432.608 228.927C431.165 228.979 429.728 228.821 428.331 228.459C427.764 228.314 427.27 227.972 426.934 227.498C426.743 227.195 426.638 226.846 426.638 226.49C426.638 226.214 426.671 225.937 426.73 225.667C426.921 224.765 427.191 223.889 427.534 223.033C427.732 222.566 427.975 222.125 428.272 221.716C428.575 221.269 428.964 220.887 429.412 220.59C429.946 220.241 430.598 220.123 431.224 220.268C431.712 220.413 432.16 220.663 432.542 221.005C433.662 221.927 434.598 223.04 435.316 224.298C436.509 226.477 436.495 228.051 436.291 228.077C436.087 228.104 435.632 226.76 434.314 224.956C433.543 223.922 432.621 223.007 431.586 222.243C431.375 222.065 431.125 221.927 430.855 221.855C430.664 221.828 430.466 221.881 430.315 222C430.058 222.19 429.834 222.428 429.656 222.691C429.438 223 429.254 223.336 429.109 223.685C428.806 224.442 428.555 225.219 428.371 226.01C428.272 226.378 428.292 226.543 428.325 226.583C428.456 226.747 428.641 226.866 428.845 226.918C429.491 227.129 430.15 227.294 430.822 227.412C431.481 227.531 432.087 227.61 432.654 227.669C434.934 227.906 436.403 228.011 436.41 228.268Z" fill="#E0E0E0"/>
<path d="M435.968 228.492C435.929 228.242 437.517 227.834 440.014 227.175C441.457 226.793 442.874 226.313 444.251 225.733C444.6 225.595 444.93 225.417 445.233 225.2C445.319 225.134 445.398 225.048 445.45 224.956V224.805C445.325 224.429 445.16 224.061 444.976 223.712C444.778 223.303 444.561 222.902 444.317 222.52C444.086 222.171 443.816 221.848 443.506 221.558C443.236 221.302 442.927 221.097 442.584 220.953C442.32 220.841 442.03 220.821 441.754 220.9C441.437 221.005 441.147 221.176 440.904 221.4C439.79 222.349 438.815 223.448 438.004 224.66C436.614 226.754 436.324 228.36 436.028 228.321C435.922 228.321 435.85 227.88 435.935 227.123C436.087 226.049 436.423 225.009 436.93 224.054C437.668 222.619 438.65 221.315 439.836 220.215C440.232 219.827 440.713 219.524 441.233 219.339C441.846 219.135 442.518 219.148 443.124 219.372C443.414 219.471 443.691 219.603 443.941 219.774C444.172 219.932 444.396 220.103 444.6 220.288C445.022 220.676 445.391 221.117 445.701 221.605C445.991 222.052 446.248 222.513 446.472 222.994C446.577 223.224 446.676 223.448 446.781 223.652C446.92 223.936 447.012 224.232 447.071 224.541C447.137 224.956 447.071 225.378 446.874 225.746C446.696 226.049 446.459 226.306 446.175 226.51C445.753 226.793 445.292 227.017 444.805 227.169C443.322 227.715 441.787 228.104 440.225 228.334C437.649 228.696 436.008 228.677 435.968 228.492Z" fill="#FAFAFA"/>
<path d="M416.392 227.187L416.322 236.037L447.469 236.282L447.539 227.432L416.392 227.187Z" fill="#E0E0E0"/>
<path d="M427.843 227.286L427.774 236.135L455.929 236.356L455.999 227.507L427.843 227.286Z" fill="#EBEBEB"/>
<path d="M447.348 227.458L447.15 236.341L443.869 236.275L444.1 227.432L447.348 227.458Z" fill="#FAFAFA"/>
<path d="M424.015 227.313L423.699 236.124L420.088 236.097L420.286 227.241L424.015 227.313Z" fill="#FAFAFA"/>
<path d="M29.3026 214.017L28.9258 261.959L66.9323 262.258L67.3091 214.315L29.3026 214.017Z" fill="#EBEBEB"/>
<path d="M52.4253 215.718L51.7532 262.14L45.7437 262.094L47.0352 215.678L52.4253 215.718Z" fill="#FAFAFA"/>
<path d="M7.46594 215.369L29.2703 215.54L67.278 215.836L29.2307 220.841L28.9079 261.963L7.11011 261.791L7.46594 215.369Z" fill="#E0E0E0"/>
<path d="M19.3333 215.461L18.4701 261.877L11.9993 261.831L13.0536 215.415L19.3333 215.461Z" fill="#FAFAFA"/>
<path d="M36.591 201.336C36.591 201.574 35.9321 201.817 34.7921 202.054C31.9718 202.588 29.0922 202.739 26.2259 202.515C25.5669 202.456 24.908 202.383 24.249 202.265C23.5176 202.153 22.7862 201.995 22.0745 201.791C21.6265 201.653 21.1981 201.468 20.7896 201.231C20.2624 200.928 19.8078 200.507 19.4717 200C19.1159 199.433 18.9182 198.782 18.9116 198.11C18.9116 197.603 18.9709 197.089 19.0895 196.595C19.4322 194.976 19.9132 193.389 20.5326 191.854C20.8884 191.018 21.3299 190.228 21.8505 189.484C22.1272 189.109 22.4304 188.753 22.7532 188.417C23.1091 188.042 23.511 187.719 23.9459 187.449C24.4335 187.133 24.9673 186.909 25.534 186.791C26.127 186.672 26.7464 186.685 27.3329 186.83C28.2422 187.094 29.0857 187.555 29.7907 188.187C31.8071 189.859 33.494 191.887 34.7723 194.172C35.6289 195.693 36.2286 197.34 36.5449 199.058C36.736 200.27 36.6371 200.968 36.4197 201.034C35.9123 201.159 35.1018 198.67 32.7296 195.502C31.3392 193.672 29.6919 192.059 27.8403 190.695C27.4778 190.393 27.0495 190.162 26.5949 190.037C26.2918 189.997 25.9886 190.083 25.7514 190.274C25.5472 190.419 25.3626 190.577 25.1913 190.761C25.0068 190.965 24.8025 191.222 24.618 191.472C24.2424 192.019 23.9196 192.605 23.656 193.217C23.1157 194.567 22.6808 195.95 22.3381 197.359C22.2656 197.583 22.2261 197.82 22.2129 198.057V198.255C22.4304 198.518 22.7335 198.709 23.0629 198.795C23.6362 198.999 24.2161 199.17 24.8091 199.308C25.4088 199.46 26.0018 199.578 26.5751 199.69C27.7282 199.901 28.8287 200.052 29.8698 200.171C31.8993 200.401 33.5862 200.54 34.7526 200.718C35.9189 200.895 36.5844 201.099 36.591 201.336Z" fill="#E0E0E0"/>
<path d="M35.8068 201.679C35.7211 201.192 38.5677 200.401 43.0551 199.17C45.6316 198.466 48.1553 197.59 50.6132 196.536C51.2194 196.299 51.7993 195.983 52.3264 195.595C52.4714 195.496 52.59 195.364 52.6756 195.213V195.048C52.6032 194.785 52.4977 194.528 52.3725 194.284L51.8256 193.145C51.4764 192.414 51.081 191.71 50.6461 191.031C50.2442 190.412 49.7631 189.839 49.2228 189.339C48.9658 189.102 48.6956 188.878 48.4057 188.681C48.1619 188.509 47.9049 188.371 47.6282 188.266C47.1933 188.081 46.7056 188.042 46.251 188.167C45.7041 188.351 45.2033 188.648 44.7815 189.036C42.7915 190.715 41.0453 192.658 39.5825 194.811C37.0719 198.525 36.5052 201.396 35.9847 201.317C35.7606 201.317 35.6025 200.52 35.7475 199.15C35.9979 197.214 36.5909 195.331 37.4871 193.599C38.8049 190.998 40.5643 188.654 42.6927 186.659C43.4241 185.948 44.2939 185.395 45.256 185.046C46.4025 184.67 47.6347 184.69 48.7681 185.105C49.2953 185.289 49.7961 185.54 50.2639 185.843C50.6988 186.126 51.114 186.442 51.5027 186.784C52.2605 187.476 52.926 188.259 53.4795 189.122C54.0001 189.932 54.468 190.775 54.8765 191.644L55.43 192.855C55.6804 193.376 55.8583 193.929 55.9638 194.495C56.0955 195.272 55.9638 196.075 55.5816 196.767C55.2521 197.333 54.804 197.827 54.2637 198.196C53.4927 198.729 52.6493 199.15 51.7597 199.453C49.091 200.428 46.33 201.113 43.5164 201.508C41.6582 201.791 39.7802 201.955 37.8956 201.988C36.5975 202.028 35.8397 201.916 35.8068 201.679Z" fill="#FAFAFA"/>
<path d="M0.683073 199.45L0.55835 215.319L56.4216 215.757L56.5463 199.888L0.683073 199.45Z" fill="#E0E0E0"/>
<path d="M21.2175 199.604L21.0928 215.473L71.5924 215.869L71.7171 200.001L21.2175 199.604Z" fill="#EBEBEB"/>
<path d="M56.2143 199.881L55.8651 215.823L49.9741 215.698L50.3827 199.835L56.2143 199.881Z" fill="#FAFAFA"/>
<path d="M14.3715 199.631L13.8048 215.434L7.32739 215.382L7.67663 199.506L14.3715 199.631Z" fill="#FAFAFA"/>
<path d="M72.4638 17.5683L73.1228 20.0771L63.0739 22.6583L62.56 20.6829L66.4477 14.5261C67.3373 13.1038 67.3702 12.3663 67.2055 11.721C66.9353 10.674 66.0589 10.2526 64.6554 10.6147C63.5616 10.8452 62.6588 11.609 62.2437 12.6494L59.6079 11.7802C60.2669 10.0155 61.8615 8.57343 64.2205 7.95446C67.1857 7.19721 69.5513 8.21127 70.151 10.5884C70.487 11.9053 70.4277 13.1499 69.0044 15.3558L66.6915 19.0235L72.4638 17.5683Z" fill="#E0E0E0"/>
<path d="M72.635 13.1169C71.5082 8.72487 73.294 5.61685 76.5887 4.78058C79.8834 3.94431 82.9277 5.80122 84.0544 10.1867C85.1812 14.5722 83.3955 17.6802 80.1008 18.523C76.8061 19.3659 73.7618 17.5024 72.635 13.1169ZM80.9377 10.9835C80.1601 7.96103 78.7763 6.98648 77.2344 7.38157C75.6925 7.77666 74.9742 9.29775 75.7518 12.3136C76.5293 15.3294 77.9131 16.3105 79.4353 15.922C80.9574 15.5335 81.7152 13.9993 80.9377 10.9835Z" fill="#E0E0E0"/>
<path d="M84.7926 6.65722C84.2325 4.49083 85.0825 2.70635 86.8683 2.27834C88.654 1.85033 90.2354 2.93682 90.8219 5.11638C91.4084 7.29595 90.5122 9.06725 88.7462 9.49527C86.9803 9.92328 85.3461 8.81703 84.7926 6.65722ZM89.8467 5.34026C89.3986 3.60846 88.3179 2.79195 87.0857 3.1146C85.8535 3.43726 85.3 4.68178 85.7678 6.407C86.2357 8.13221 87.2702 8.95531 88.5288 8.63266C89.7874 8.31 90.2882 7.08523 89.8467 5.36002V5.34026ZM94.9469 0.283146L96.0671 0L90.387 15.6389L89.2668 15.9286L94.9469 0.283146ZM94.5515 10.8188C93.998 8.65241 94.8612 6.86793 96.6272 6.43992C98.3931 6.01191 100.001 7.0984 100.581 9.27797C101.161 11.4575 100.291 13.2288 98.5052 13.6503C96.7194 14.0717 95.1116 12.9918 94.5515 10.832V10.8188ZM99.6056 9.50185C99.1641 7.7898 98.1032 6.95354 96.8446 7.27619C95.586 7.59885 95.0589 8.82362 95.5267 10.5686C95.9946 12.3136 97.0555 13.1103 98.2877 12.7942C99.5199 12.4782 100.047 11.2402 99.6122 9.53477V9.50185H99.6056Z" fill="#E0E0E0"/>
<path d="M197.287 59.2039C197.34 61.9234 195.31 64.4717 190.697 64.5244C188.523 64.6034 186.375 64.0371 184.523 62.9046L185.92 60.027C187.278 60.9489 188.892 61.4296 190.533 61.3966C192.398 61.3637 193.537 60.5867 193.518 59.2698C193.518 58.0516 192.582 57.2943 190.467 57.347H188.76L188.721 54.8843L191.969 51.0783L185.103 51.1968L185.057 48.2007L196.338 48.0098L196.384 50.4264L192.832 54.6538C195.745 55.0687 197.247 56.8334 197.287 59.2039Z" fill="#E0E0E0"/>
<path d="M198.961 56.0497C198.868 50.7028 201.748 47.6672 205.702 47.5948C209.655 47.5224 212.66 50.4921 212.752 55.806C212.845 61.12 209.972 64.1951 205.992 64.2609C202.012 64.3267 199.053 61.3636 198.961 56.0497ZM209.029 55.8719C208.963 52.2173 207.645 50.716 205.781 50.7489C203.916 50.7818 202.677 52.3227 202.743 56.0167C202.809 59.7108 204.12 61.1726 205.959 61.1397C207.797 61.1068 209.089 59.533 209.029 55.8719Z" fill="#E0E0E0"/>
<path d="M214.604 51.9803C214.558 49.3464 216.001 47.5817 218.169 47.5422C220.337 47.5027 221.839 49.2081 221.885 51.8552C221.931 54.5023 220.462 56.2539 218.32 56.2868C216.179 56.3197 214.65 54.6011 214.604 51.9803ZM220.732 51.875C220.692 49.781 219.684 48.5826 218.188 48.5826C216.693 48.5826 215.717 49.8995 215.757 51.9672C215.797 54.0348 216.778 55.2595 218.301 55.2595C219.823 55.2595 220.765 53.9953 220.732 51.875ZM227.934 47.4895H229.292L218.564 63.7869H217.207L227.934 47.4895ZM224.64 59.4014C224.6 56.7675 226.063 55.0027 228.204 54.9698C230.346 54.9369 231.875 56.6555 231.921 59.2763C231.967 61.897 230.524 63.6749 228.356 63.7144C226.188 63.7539 224.659 62.0287 224.613 59.4014H224.64ZM230.768 59.296C230.735 57.2284 229.746 56.0036 228.224 56.0036C226.702 56.0036 225.76 57.2877 225.793 59.3816C225.826 61.4756 226.84 62.674 228.336 62.674C229.832 62.674 230.781 61.3702 230.741 59.296H230.768Z" fill="#E0E0E0"/>
<path d="M275.272 9.43605C274.956 11.4905 273.17 13.0511 269.849 12.5441C268.281 12.3334 266.805 11.6683 265.606 10.6279L266.983 8.73148C267.84 9.56775 268.94 10.1077 270.126 10.2789C271.477 10.483 272.393 10.0484 272.538 9.10023C272.683 8.15202 272.169 7.50012 270.06 7.17747L267.088 6.72312L268.683 0.276611L275.773 1.35652L275.444 3.51633L270.594 2.77883L270.073 4.95181L271.022 5.09668C274.462 5.62346 275.589 7.37501 275.272 9.43605Z" fill="#F5F5F5"/>
<path d="M276.696 7.4473C277.282 3.60837 279.74 1.75804 282.626 2.17947C285.512 2.60089 287.278 5.1097 286.692 8.94863C286.105 12.7876 283.661 14.6313 280.761 14.2165C277.862 13.8016 276.116 11.2796 276.696 7.4473ZM283.944 8.55354C284.346 5.91963 283.582 4.6751 282.237 4.47097C280.893 4.26684 279.813 5.22164 279.411 7.86214C279.009 10.5026 279.766 11.734 281.097 11.9381C282.429 12.1423 283.555 11.194 283.957 8.56013H283.944V8.55354Z" fill="#F5F5F5"/>
<path d="M288.445 6.43329C288.735 4.54345 289.993 3.44379 291.555 3.68085C293.117 3.9179 293.986 5.32704 293.696 7.23663C293.406 9.14622 292.135 10.2261 290.586 9.98907C289.038 9.75202 288.155 8.32971 288.445 6.43329ZM298.612 4.83977L299.594 4.99122L289.848 15.3952L288.866 15.2437L298.612 4.83977ZM292.899 7.11152C293.13 5.59702 292.55 4.59613 291.469 4.43151C290.389 4.26689 289.538 5.08999 289.308 6.56498C289.077 8.03998 289.637 9.07379 290.738 9.24499C291.838 9.4162 292.636 8.61944 292.866 7.11152H292.899ZM294.764 12.9983C295.054 11.1085 296.326 10.0088 297.874 10.2459C299.423 10.4829 300.306 11.9118 300.016 13.8017C299.726 15.6915 298.467 16.7912 296.905 16.5541C295.344 16.3171 294.441 14.8947 294.731 12.9983H294.764ZM299.185 13.6568C299.409 12.1621 298.856 11.1414 297.755 10.9768C296.655 10.8122 295.825 11.5958 295.594 13.1037C295.364 14.6116 295.943 15.6257 297.024 15.7903C298.105 15.9549 298.922 15.145 299.152 13.6766L299.185 13.6568Z" fill="#F5F5F5"/>
<path d="M10.8132 65.3146L8.40146 75.6066L6.04245 75.0667L8.01927 66.6842L5.95679 66.2035L6.40487 64.2874L10.8132 65.3146Z" fill="#F5F5F5"/>
<path d="M11.4063 70.8852C12.1971 67.4875 14.5363 65.9993 17.0666 66.5919C19.597 67.1846 21.0203 69.5551 20.2295 72.9463C19.4388 76.3374 17.1193 77.8322 14.5692 77.2395C12.0191 76.6469 10.609 74.283 11.4063 70.8852ZM17.8376 72.3865C18.3845 70.0489 17.7849 68.8834 16.5922 68.6069C15.3995 68.3303 14.365 69.1073 13.818 71.4449C13.2711 73.7825 13.8642 74.948 15.0437 75.2246C16.2232 75.5012 17.2841 74.7241 17.8376 72.3865Z" fill="#F5F5F5"/>
<path d="M31.2075 70.0884L32.0773 70.2925L22.6281 78.9384L21.7649 78.7342L31.2075 70.0884ZM21.9823 70.8062C22.3777 69.127 23.5836 68.2315 24.9673 68.5542C26.3511 68.8768 27.0298 70.2004 26.6345 71.8926C26.2391 73.5849 25.0266 74.4607 23.6561 74.1446C22.2855 73.8286 21.6133 72.4787 22.0021 70.8062H21.9823ZM25.8964 71.7214C26.2127 70.4045 25.7647 69.4431 24.8092 69.2192C23.8537 68.9953 23.0301 69.6538 22.7204 70.9774C22.4107 72.3009 22.839 73.2557 23.8142 73.4796C24.7894 73.7035 25.6065 73.0911 25.9162 71.7214H25.8964ZM27.1616 77.1341C27.5504 75.455 28.7694 74.5661 30.14 74.8821C31.5106 75.1982 32.2025 76.5481 31.8137 78.2206C31.425 79.8932 30.2125 80.7953 28.8287 80.4726C27.445 80.15 26.786 78.8067 27.1814 77.1341H27.1616ZM31.0823 78.0494C31.392 76.7325 30.9637 75.7711 29.9951 75.5472C29.0264 75.3233 28.2159 75.9686 27.9062 77.3053C27.5965 78.6421 28.038 79.5837 28.9935 79.8076C29.9489 80.0314 30.7858 79.373 31.0823 78.0494Z" fill="#F5F5F5"/>
<path d="M73.1884 171.777C61.7162 160.05 43.7469 155.118 27.8928 159.359C41.4143 168.564 57.3672 173.542 73.7221 173.667" fill="#B5B5B5"/>
<path d="M57.822 117.413C59.7131 104.073 54.5273 89.0988 44.5311 79.373C44.2017 92.5953 49.8027 107.47 57.822 117.413Z" fill="#B5B5B5"/>
<path d="M65.8148 142.607C58.5862 128.904 47.0877 117.934 33.0588 111.349C37.2299 126.705 50.3758 139.268 65.9136 142.752" fill="#B5B5B5"/>
<path d="M67.4687 147.499C59.4099 147.723 51.2456 147.44 43.4504 145.379C35.6551 143.318 28.1893 139.354 23.0232 133.184C38.7982 133.237 54.2043 137.938 67.3238 146.689" fill="#B5B5B5"/>
<path d="M63.3701 131.459C67.4621 116.129 74.2163 105.528 86.2683 96.9412C88.1726 112.508 78.4599 127.152 63.3701 131.459Z" fill="#B5B5B5"/>
<path d="M93.8068 157.89C93.8661 148.75 88.4298 140.467 80.0151 136.878C80.6741 144.78 86.9077 153.946 93.8068 157.89Z" fill="#B5B5B5"/>
<path d="M97.635 144.964C98.5509 132.163 107.651 120.317 119.795 116.129C117.034 128.937 109.628 139.598 97.635 144.964Z" fill="#B5B5B5"/>
<path d="M91.8562 167.912C94.6962 163.849 99.3352 161.327 104.139 160.063C108.943 158.799 113.957 158.7 118.919 158.595C112.073 166.016 102.327 170.079 92.2318 169.703" fill="#B5B5B5"/>
<path d="M86.0906 200.566C104.844 194.785 124.909 204.286 132.315 222.447C115.525 219.273 98.9531 211.813 86.0906 200.566Z" fill="#B5B5B5"/>
<path d="M67.6664 189.214C70.4537 197.451 69.92 207.414 63.7128 214.513C61.2154 205.913 62.6584 196.642 67.6664 189.214Z" fill="#B5B5B5"/>
<path d="M56.7808 184.637C55.8583 195.437 49.3678 204.971 39.6484 209.791C39.2003 210.081 38.6468 210.167 38.1328 210.035C37.3751 209.732 37.3092 208.718 37.4014 207.888C38.6139 197.353 46.4421 187.127 56.7808 184.637Z" fill="#B5B5B5"/>
<path d="M49.6577 183.564C40.1096 193.869 24.0117 194.488 13.7059 184.947C13.2907 184.565 12.8888 184.163 12.5 183.755C24.3082 182.438 37.9417 181.602 49.6577 183.564Z" fill="#B5B5B5"/>
<path d="M47.8916 89.2041C47.918 89.3226 47.9509 89.4412 47.997 89.5531C48.0893 89.7967 48.2079 90.126 48.3594 90.5474C48.6955 91.4429 49.1699 92.727 49.7828 94.3732C50.3956 96.0194 51.1534 98.0606 52.0034 100.431L53.3674 104.217C53.8352 105.534 54.3295 106.996 54.8434 108.491C56.9389 114.47 59.2583 121.661 61.7689 129.628C64.2794 137.596 66.823 146.465 69.3665 155.783C71.91 165.1 74.1043 174.049 75.9954 182.208C77.8866 190.366 79.4219 197.748 80.5619 203.977C80.8584 205.531 81.1351 207.013 81.3987 208.415C81.6425 209.818 81.8666 211.148 82.0577 212.366C82.486 214.842 82.8484 216.975 83.0988 218.733C83.3492 220.492 83.5732 221.822 83.7182 222.763C83.7907 223.205 83.85 223.554 83.8895 223.81C83.9027 223.929 83.9291 224.047 83.962 224.166C83.9752 224.047 83.9752 223.922 83.962 223.804C83.9291 223.547 83.8895 223.198 83.8302 222.75C83.705 221.802 83.5271 220.446 83.2965 218.707C83.0658 216.969 82.7364 214.809 82.3344 212.326C82.1301 211.082 81.9193 209.752 81.6755 208.343C81.4317 206.934 81.1549 205.459 80.8716 203.898C79.7646 197.656 78.2358 190.274 76.3974 182.096C74.5589 173.917 72.3053 164.975 69.808 155.645C67.3106 146.314 64.6616 137.484 62.1708 129.483C59.68 121.483 57.2881 114.338 55.1531 108.366C54.626 106.871 54.1252 105.455 53.6442 104.105L52.2472 100.326C51.3708 97.9619 50.613 95.9338 49.9541 94.2876C49.2951 92.6414 48.8009 91.3837 48.4517 90.4947L48.0497 89.5136C48.0036 89.4082 47.9509 89.3029 47.8916 89.2041Z" fill="#263238"/>
<path d="M112.791 122.971C112.718 123.024 112.646 123.089 112.586 123.162L112.02 123.755C111.526 124.281 110.814 125.071 109.924 126.099C107.387 129.022 105.068 132.117 102.966 135.37C99.8426 140.19 97.3979 145.425 95.7176 150.917C93.7408 157.1 92.5547 164.139 91.3554 171.488C88.9503 186.205 86.0048 199.387 83.8698 208.922C82.7958 213.67 81.893 217.515 81.3132 220.215C81.0232 221.532 80.7926 222.553 80.6542 223.284C80.5817 223.619 80.529 223.883 80.4829 224.087C80.4631 224.179 80.4499 224.271 80.4434 224.364C80.4829 224.278 80.5093 224.186 80.529 224.094C80.5817 223.896 80.6542 223.633 80.7399 223.303C80.9244 222.579 81.1748 221.558 81.5043 220.255C82.1632 217.568 83.0659 213.729 84.1993 208.995C86.4134 199.48 89.4115 186.297 91.8167 171.56C93.0225 164.211 94.2152 157.199 96.1327 151.035C97.7999 145.57 100.205 140.361 103.276 135.541C105.345 132.288 107.618 129.174 110.096 126.217C110.965 125.164 111.657 124.36 112.132 123.814C112.349 123.557 112.527 123.353 112.659 123.188C112.712 123.122 112.751 123.05 112.791 122.971Z" fill="#263238"/>
<path d="M46.1323 183.057C46.2707 183.103 46.4091 183.129 46.554 183.136L47.7797 183.268L48.6627 183.36L49.7038 183.511C50.455 183.623 51.3116 183.735 52.2407 183.939L53.7101 184.236L55.2784 184.631C56.3723 184.874 57.499 185.289 58.7049 185.638C61.2814 186.534 63.7853 187.633 66.1839 188.931C68.5692 190.261 70.8162 191.821 72.8919 193.593C73.7946 194.37 74.6513 195.193 75.4618 196.062C76.1866 196.806 76.8653 197.59 77.4979 198.413C78.0382 199.078 78.539 199.769 79.0069 200.487C79.3825 201.02 79.7317 201.58 80.0414 202.153L80.6674 203.213C80.7333 203.345 80.8124 203.463 80.9112 203.569C80.8783 203.43 80.819 203.292 80.7465 203.167L80.193 202.067C79.9096 201.481 79.5867 200.915 79.2177 200.375C78.7696 199.638 78.282 198.926 77.7549 198.242C77.1289 197.399 76.4568 196.595 75.7385 195.832C74.928 194.943 74.0648 194.1 73.1621 193.31C71.0798 191.505 68.8131 189.918 66.4013 188.575C63.9764 187.265 61.4461 186.165 58.8367 185.283C57.6177 184.927 56.4777 184.539 55.3707 184.308L53.7826 183.933L52.3 183.669C51.3577 183.478 50.4945 183.393 49.7367 183.301L48.6824 183.182L47.7929 183.136L46.5606 183.057C46.4157 183.037 46.2773 183.037 46.1323 183.057Z" fill="#263238"/>
<path d="M42.7651 123.248C43.0155 123.55 43.2989 123.827 43.602 124.071L46.0335 126.178C48.1026 127.943 50.9755 130.353 54.1648 133C57.3541 135.647 60.2666 138.024 62.3818 139.723L64.9055 141.698C65.2021 141.948 65.5249 142.172 65.8676 142.357C65.6106 142.054 65.3273 141.777 65.0176 141.534L62.5861 139.426C60.517 137.662 57.644 135.252 54.4547 132.605C51.2655 129.957 48.3595 127.587 46.2443 125.888L43.7206 123.913C43.4241 123.662 43.1012 123.439 42.7651 123.248Z" fill="#263238"/>
<path d="M39.8591 138.867C39.8591 138.985 46.0268 140.921 53.6969 143.193C61.3669 145.465 67.6467 147.203 67.6796 147.084C67.7125 146.966 61.5119 145.023 53.8418 142.758C46.1718 140.493 39.8987 138.748 39.8591 138.867Z" fill="#263238"/>
<path d="M62.7639 132.651C63.0143 132.374 63.2318 132.078 63.4229 131.762L65.057 129.273C66.4408 127.172 68.411 124.314 70.7437 121.265C73.0763 118.217 75.3167 115.57 76.9707 113.68C77.7482 112.784 78.4072 112.034 78.9475 111.441C79.1913 111.178 79.4153 110.888 79.6064 110.585C79.3033 110.796 79.0266 111.039 78.7893 111.316C78.2886 111.81 77.5769 112.541 76.7137 113.463C75.0004 115.306 72.7073 117.94 70.3681 120.996C68.0289 124.051 66.0982 126.955 64.7737 129.095C64.1147 130.168 63.5942 131.07 63.2581 131.669C63.0538 131.979 62.8891 132.308 62.7639 132.651Z" fill="#263238"/>
<path d="M84.2981 141.316C84.733 142.146 85.2206 142.943 85.7544 143.706C86.6835 145.162 87.942 147.183 89.2401 149.468C90.5383 151.753 91.6387 153.873 92.4228 155.394C92.805 156.244 93.2465 157.074 93.7407 157.864C93.4837 156.955 93.1411 156.073 92.7128 155.23C92.0077 153.649 90.9468 151.503 89.6421 149.198C88.3374 146.893 87.0063 144.898 86.0311 143.483C85.5237 142.706 84.9439 141.981 84.2981 141.316Z" fill="#263238"/>
<path d="M91.7046 168.327C91.7375 168.386 92.917 167.807 94.8543 166.938C96.7916 166.068 99.4669 164.962 102.551 163.856C105.635 162.75 108.435 161.992 110.491 161.472C112.547 160.952 113.832 160.656 113.786 160.59C113.476 160.583 113.166 160.616 112.863 160.689C112.27 160.774 111.427 160.932 110.386 161.156C107.671 161.749 104.989 162.513 102.366 163.435C99.7437 164.35 97.1738 165.423 94.683 166.648C93.7275 167.122 92.9698 167.524 92.4492 167.827C92.179 167.965 91.9352 168.13 91.7046 168.327Z" fill="#263238"/>
<path d="M85.8665 200.619C85.9851 200.678 86.1169 200.717 86.2486 200.744L87.3688 201.027L91.4938 201.982C96.0405 202.936 100.534 204.122 104.963 205.537C109.371 207.019 113.588 209.008 117.535 211.464C119.038 212.419 120.21 213.261 121.001 213.874C121.397 214.203 121.812 214.513 122.247 214.796C122.247 214.796 122.161 214.684 121.97 214.499C121.779 214.315 121.495 214.052 121.107 213.736C120.026 212.82 118.886 211.971 117.706 211.194C113.786 208.646 109.549 206.611 105.114 205.136C100.673 203.707 96.1459 202.561 91.5597 201.699L87.4018 200.836C86.8944 200.724 86.3804 200.652 85.8665 200.619Z" fill="#263238"/>
<path d="M64.8925 208.573C65.0111 208.573 65.7491 204.247 66.5398 198.867C67.3305 193.487 67.8577 189.108 67.7391 189.089C67.6205 189.069 66.8825 193.421 66.0917 198.801C65.301 204.181 64.7673 208.56 64.8925 208.573Z" fill="#263238"/>
<path d="M43.0486 200.652C43.7602 199.914 44.4192 199.137 45.0254 198.314C46.2049 196.846 47.8391 194.824 49.6907 192.625C51.5423 190.426 53.249 188.463 54.4944 187.048C55.206 186.317 55.865 185.533 56.4712 184.71C56.2274 184.855 56.0099 185.039 55.8123 185.243C55.4301 185.612 54.8963 186.152 54.2374 186.837C52.9195 188.2 51.1799 190.129 49.3217 192.335C47.4635 194.541 45.8689 196.595 44.7487 198.117C44.1886 198.88 43.7471 199.506 43.4308 199.941C43.2726 200.158 43.1408 200.395 43.0486 200.652Z" fill="#263238"/>
<path d="M100.851 220.893V231.679H98.1492L88.5616 261.936H67.2844L57.9933 231.976L54.3955 231.679V220.893H100.851Z" fill="#455A64"/>
<path d="M56.1943 231.976C56.1943 232.101 65.5842 232.206 77.1684 232.206C88.7526 232.206 98.1491 232.101 98.1491 231.976C98.1491 231.85 88.7592 231.752 77.1684 231.752C65.5777 231.752 56.1943 231.85 56.1943 231.976Z" fill="#263238"/>
<path d="M40.8938 162.605C41.3353 162.763 41.7965 162.888 42.2578 162.973L45.9874 163.876C49.1371 164.653 53.4598 165.851 58.1449 167.405C62.8299 168.959 66.9944 170.651 70.0058 171.935L73.5245 173.47C73.9463 173.68 74.3877 173.858 74.8424 174.003C74.4536 173.74 74.0385 173.503 73.6102 173.312C72.8063 172.89 71.6334 172.317 70.1442 171.639C62.4346 168.123 54.3757 165.416 46.106 163.56C44.5246 163.211 43.233 162.954 42.3369 162.802C41.8624 162.697 41.3814 162.631 40.8938 162.605Z" fill="#263238"/>
<path d="M63.2583 248.78C63.2583 248.905 69.8477 249.004 77.9724 249.004C86.0972 249.004 92.6932 248.905 92.6932 248.78C92.6932 248.655 86.1038 248.556 77.9724 248.556C69.8411 248.556 63.2583 248.655 63.2583 248.78Z" fill="#FAFAFA"/>
<path d="M62.428 246.271C62.428 246.396 69.4128 246.495 78.0251 246.495C86.6375 246.495 93.6288 246.396 93.6288 246.271C93.6288 246.146 86.644 246.047 78.0251 246.047C69.4062 246.047 62.428 246.152 62.428 246.271Z" fill="#FAFAFA"/>
<path d="M400.847 178.955L356.915 129.635C353.416 125.71 348.415 123.445 343.157 123.405L198.526 122.358C188.253 122.279 179.871 130.537 179.792 140.802C179.792 140.862 179.792 140.928 179.792 140.987L180.036 243.328C180.056 253.593 188.398 261.89 198.671 261.87C198.684 261.87 198.697 261.87 198.71 261.87L342.84 261.265C348.224 261.251 353.344 258.907 356.862 254.831L401.058 203.47C407.153 196.404 407.061 185.915 400.847 178.955ZM376.4 196.734C373.211 204.576 364.262 208.349 356.414 205.162C348.566 201.975 344.791 193.033 347.98 185.191C351.169 177.348 360.118 173.575 367.966 176.762C375.8 179.949 379.57 188.871 376.4 196.707V196.734Z" fill="#D8D8D8"/>
<path d="M408.458 178.955L364.506 129.635C361.007 125.71 356.006 123.445 350.748 123.405L206.117 122.358C195.85 122.279 187.462 130.53 187.383 140.789C187.383 140.855 187.383 140.921 187.383 140.987L187.62 243.328C187.647 253.593 195.995 261.897 206.268 261.87C206.301 261.87 206.328 261.87 206.361 261.87L350.484 261.265C355.868 261.251 360.988 258.901 364.506 254.831L408.695 203.47C414.783 196.398 414.685 185.908 408.458 178.955ZM384.018 196.734C380.828 204.576 371.88 208.349 364.032 205.162C356.184 201.975 352.408 193.033 355.597 185.191C358.787 177.348 367.735 173.575 375.583 176.762C383.418 179.949 387.187 188.871 384.018 196.707V196.734Z" fill="#B7B7B7"/>
<path d="M235.512 175.524C235.624 163.118 243.274 155.302 254.002 155.408C264.729 155.513 272.129 163.355 272.017 175.86C271.905 188.364 264.347 196.082 253.626 195.983C242.905 195.884 235.393 187.93 235.512 175.524ZM261.494 175.768C261.566 167.866 258.555 164.067 253.923 164.027C249.402 163.981 246.206 167.84 246.134 175.623C246.062 183.406 249.185 187.317 253.705 187.364C258.338 187.403 261.421 183.65 261.494 175.768ZM297.861 156.672L310.381 156.79L259.412 229.882L246.892 229.763L297.861 156.672ZM285.262 210.713C285.38 198.307 293.024 190.491 303.653 190.59C314.38 190.695 321.879 198.65 321.767 211.049C321.655 223.448 314.005 231.238 303.271 231.126C292.682 231.04 285.15 223.086 285.262 210.713ZM311.138 210.95C311.211 203.174 308.2 199.256 303.567 199.216C299.047 199.17 295.858 202.923 295.785 210.812C295.713 218.701 298.829 222.507 303.35 222.553C307.982 222.566 311.066 218.701 311.132 210.917V210.95H311.138Z" fill="white"/>
<path d="M403.647 209.396C404.174 209.673 404.655 210.022 405.09 210.43C405.993 211.148 407.311 212.228 408.978 213.657C410.645 215.086 412.675 216.85 414.955 218.977C417.234 221.104 419.791 223.587 422.434 226.53C425.339 229.717 427.969 233.148 430.295 236.782L431.23 238.277L432.113 239.838C432.733 240.905 433.286 242.004 433.787 243.13C434.894 245.52 435.533 248.102 435.672 250.729C435.711 252.132 435.507 253.534 435.065 254.871C434.604 256.254 433.86 257.518 432.891 258.604C430.894 260.804 428.259 262.312 425.353 262.911C422.407 263.49 419.369 263.418 416.45 262.7C413.518 261.996 410.685 260.949 407.996 259.586C402.711 256.892 397.921 253.33 393.822 249.05C391.865 247.042 390.04 244.921 388.347 242.689C386.693 240.523 385.124 238.369 383.629 236.229C377.698 227.669 373.085 219.438 370.186 212.076C369.461 210.239 368.835 208.474 368.295 206.776C368.031 205.926 367.781 205.096 367.577 204.273C367.353 203.477 367.188 202.667 367.096 201.844C366.865 200.283 367.254 198.703 368.183 197.425C368.98 196.405 370.068 195.647 371.306 195.252C371.814 195.081 372.341 194.962 372.875 194.89C373.342 194.837 373.817 194.831 374.285 194.857C375.023 194.89 375.748 195.048 376.433 195.325C376.848 195.496 377.237 195.739 377.579 196.029C377.803 196.233 377.902 196.345 377.883 196.372C377.863 196.398 377.724 196.325 377.474 196.174C377.112 195.95 376.723 195.779 376.314 195.654C375.655 195.456 374.963 195.358 374.272 195.364C373.83 195.364 373.389 195.404 372.954 195.469C372.466 195.562 371.985 195.7 371.524 195.878C370.45 196.273 369.514 196.977 368.835 197.906C368.084 199.025 367.801 200.395 368.045 201.725C368.157 202.502 368.328 203.266 368.559 204.01C368.776 204.8 369.046 205.603 369.323 206.433C369.896 208.093 370.555 209.824 371.3 211.622C374.285 218.799 378.95 226.905 384.907 235.327C386.403 237.434 387.978 239.555 389.631 241.695C391.299 243.868 393.097 245.935 395.015 247.884C398.995 252.02 403.634 255.463 408.747 258.078C411.324 259.381 414.045 260.382 416.852 261.067C419.528 261.739 422.315 261.818 425.023 261.298C427.586 260.777 429.919 259.46 431.692 257.544C433.339 255.687 434.202 253.271 434.117 250.788C433.991 248.345 433.398 245.955 432.377 243.736C431.909 242.649 431.382 241.583 430.802 240.549L429.978 239.028L429.082 237.54C426.842 233.938 424.312 230.527 421.511 227.34C418.967 224.39 416.496 221.861 414.263 219.675C412.029 217.489 410.098 215.658 408.497 214.164L404.86 210.713C404.405 210.325 403.996 209.884 403.647 209.396Z" fill="#263238"/>
<path d="M335.005 107.194C334.913 107.194 333.068 94.3206 330.88 78.4117C328.693 62.5029 326.999 49.5967 327.098 49.5835C327.197 49.5703 329.035 62.4568 331.223 78.3656C333.411 94.2745 335.104 107.181 335.005 107.194Z" fill="#263238"/>
<path d="M389.335 36.7168C389.322 36.7826 389.302 36.8485 389.276 36.9143L389.065 37.4872L388.228 39.68L385.092 47.7266C382.456 54.5221 378.845 63.9251 375.01 74.3752C371.175 84.8253 367.847 94.3271 365.475 101.221C364.295 104.652 363.34 107.437 362.674 109.393C362.345 110.335 362.088 111.079 361.903 111.612C361.818 111.849 361.745 112.034 361.693 112.185C361.673 112.251 361.646 112.317 361.614 112.376C361.614 112.304 361.633 112.238 361.66 112.172L361.838 111.586C362.002 111.052 362.24 110.269 362.543 109.347C363.162 107.405 364.085 104.599 365.244 101.142C367.564 94.2283 370.858 84.6804 374.693 74.2567C378.529 63.833 382.159 54.4101 384.861 47.6344C386.179 44.2498 387.325 41.5105 388.109 39.6273L389.012 37.4609C389.111 37.2304 389.197 37.046 389.256 36.9012L389.335 36.7168Z" fill="#263238"/>
<path d="M428.265 87.3932C428.324 87.4656 418.895 94.8472 407.179 103.855C395.463 112.863 385.961 120.146 385.902 120.067C385.843 119.988 395.279 112.613 406.988 103.605C418.697 94.597 428.212 87.3142 428.265 87.3932Z" fill="#263238"/>
<path d="M312.134 109.597C312.054 109.656 308.411 104.988 303.989 99.2195C299.568 93.4513 296.036 88.6839 296.082 88.6378C296.128 88.5917 299.805 93.2471 304.226 99.0154C308.648 104.784 312.206 109.538 312.134 109.597Z" fill="#263238"/>
<path d="M423.811 145.893C423.811 145.985 418.006 144.378 410.902 142.31C403.799 140.243 398.066 138.491 398.092 138.399C398.119 138.307 403.898 139.914 411.001 141.981C418.104 144.049 423.844 145.8 423.811 145.893Z" fill="#263238"/>
<path d="M340.778 145.682L345.061 143.219L347.334 138.834L349.805 143.114L354.194 145.392L349.911 147.855L347.631 152.24L345.166 147.96L340.778 145.682Z" fill="white"/>
<path d="M317.623 138.886L319.125 138.024L319.922 136.49L320.785 137.984L322.321 138.781L320.818 139.644L320.021 141.178L319.158 139.683L317.623 138.886Z" fill="white"/>
<path d="M332.409 169.13L335.309 167.464L336.85 164.495L338.518 167.392L341.489 168.933L338.59 170.599L337.048 173.568L335.381 170.671L332.409 169.13Z" fill="white"/>
<path d="M453.997 261.936C453.997 262.029 352.355 262.108 227.005 262.108C101.655 262.108 0 262.029 0 261.936C0 261.844 101.615 261.765 227.005 261.765C352.395 261.765 453.997 261.838 453.997 261.936Z" fill="#263238"/>
<path d="M132.368 250.262C132.368 250.262 104.884 257.874 103.744 258.262C102.09 258.842 102.366 264.913 104.949 264.847C106.168 264.801 126.082 265.585 128.599 265.426C131.116 265.268 137.89 262.602 137.89 262.602L132.368 250.262Z" fill="#4D4F4F"/>
<path d="M120.902 260.758C120.764 260.758 120.579 259.322 119.69 257.808C118.8 256.293 117.66 255.384 117.746 255.279C117.832 255.174 119.163 255.938 120.092 257.577C121.021 259.217 121.021 260.758 120.902 260.758Z" fill="#263238"/>
<path d="M123.775 259.441C123.637 259.441 123.36 258.163 122.629 256.728C121.897 255.292 121.028 254.285 121.126 254.192C121.225 254.1 122.28 255.002 123.037 256.524C123.795 258.045 123.894 259.441 123.775 259.441Z" fill="#263238"/>
<path d="M126.464 258.736C126.326 258.736 126.431 257.354 125.805 255.826C125.179 254.298 124.204 253.357 124.303 253.258C124.401 253.159 125.621 254.002 126.233 255.661C126.846 257.321 126.576 258.782 126.464 258.736Z" fill="#263238"/>
<path d="M125.97 255.18C125.726 254.529 125.627 253.831 125.673 253.139C125.686 252.375 125.785 251.618 125.97 250.881C126.075 250.446 126.207 250.018 126.378 249.603C126.464 249.346 126.615 249.122 126.82 248.945C127.103 248.727 127.498 248.747 127.762 248.991C127.973 249.195 128.105 249.471 128.131 249.768C128.144 250.011 128.144 250.248 128.131 250.492C128.124 250.933 128.065 251.381 127.96 251.809C127.775 252.547 127.492 253.251 127.116 253.91C126.813 254.535 126.391 255.095 125.877 255.562C125.818 255.523 126.279 254.904 126.826 253.758C127.149 253.106 127.386 252.421 127.545 251.717C127.637 251.302 127.683 250.881 127.683 250.459C127.683 250.038 127.683 249.511 127.426 249.307C127.334 249.201 127.176 249.188 127.063 249.274C126.925 249.406 126.82 249.57 126.76 249.755C126.596 250.15 126.457 250.551 126.345 250.966C126.154 251.671 126.029 252.388 125.983 253.113C125.924 254.39 126.049 255.174 125.97 255.18Z" fill="#263238"/>
<path d="M126.009 254.904C126.569 254.667 127.182 254.568 127.788 254.614C128.454 254.614 129.119 254.693 129.765 254.858C130.161 254.937 130.536 255.082 130.892 255.273C131.353 255.503 131.61 256.017 131.511 256.524C131.38 257.004 131.004 257.38 130.516 257.505C130.114 257.61 129.686 257.61 129.284 257.505C128.059 257.143 126.978 256.392 126.22 255.365C126.728 255.661 127.222 255.99 127.683 256.359C128.197 256.708 128.764 256.952 129.37 257.09C129.706 257.169 130.055 257.169 130.391 257.09C130.714 257.004 130.965 256.754 131.05 256.431C131.103 256.115 130.938 255.799 130.642 255.668C130.325 255.496 129.989 255.365 129.64 255.279C129.034 255.108 128.414 254.996 127.788 254.956C126.695 254.864 126.022 254.976 126.009 254.904Z" fill="#263238"/>
<path d="M116.679 261.047C116.54 261.047 116.679 259.856 116.132 258.572C115.585 257.287 114.702 256.524 114.814 256.418C114.926 256.313 116.007 256.958 116.586 258.394C117.166 259.829 116.791 261.1 116.679 261.047Z" fill="#263238"/>
<path d="M135.854 262.318C135.511 262.516 135.155 262.687 134.786 262.819C133.785 263.201 132.763 263.517 131.722 263.767C128.276 264.524 124.744 264.86 121.219 264.761C117.094 264.715 113.377 264.531 110.676 264.419L107.486 264.254C107.098 264.254 106.702 264.208 106.32 264.129C106.715 264.057 107.117 264.03 107.519 264.05H110.715L121.258 264.254C124.757 264.347 128.25 264.057 131.689 263.405C134.312 262.911 135.854 262.233 135.854 262.318Z" fill="#263238"/>
<path d="M136.691 262.944C135.986 262.667 135.3 262.358 134.628 262.009C133.007 261.245 131.202 260.942 129.423 261.146C127.347 261.462 125.877 262.858 124.922 263.819C124.434 264.399 123.901 264.939 123.334 265.439C123.703 264.768 124.158 264.155 124.685 263.602C125.225 262.963 125.838 262.391 126.51 261.897C127.347 261.271 128.322 260.863 129.35 260.692C131.222 260.468 133.113 260.823 134.767 261.719C135.465 262.022 136.117 262.437 136.691 262.944Z" fill="#263238"/>
<path d="M109.088 264.136C109.2 263.78 109.338 263.431 109.49 263.095C110.076 261.41 109.733 259.54 108.58 258.17C108.145 257.643 107.796 257.393 107.829 257.34C107.862 257.288 108.264 257.485 108.771 257.999C110.135 259.368 110.518 261.436 109.733 263.201C109.437 263.846 109.121 264.162 109.088 264.136Z" fill="#263238"/>
<path d="M161.078 251.078C161.078 251.078 189.307 255.365 190.447 255.622C192.167 256.004 192.608 262.062 190.038 262.272C188.819 262.371 169.137 265.519 166.62 265.663C164.103 265.808 156.208 263.741 156.208 263.741L161.078 251.078Z" fill="#4D4F4F"/>
<path d="M173.71 260.132C173.848 260.132 173.862 258.67 174.56 257.057C175.258 255.444 176.293 254.423 176.194 254.311C176.095 254.199 174.876 255.147 174.138 256.879C173.4 258.611 173.598 260.158 173.71 260.132Z" fill="#263238"/>
<path d="M170.705 259.184C170.844 259.184 170.962 257.867 171.522 256.352C172.082 254.838 172.84 253.719 172.708 253.659C172.577 253.6 171.661 254.594 171.087 256.194C170.514 257.794 170.587 259.19 170.705 259.184Z" fill="#263238"/>
<path d="M167.951 258.782C168.083 258.782 167.819 257.406 168.241 255.819C168.663 254.232 169.559 253.185 169.427 253.086C169.295 252.988 168.234 253.982 167.799 255.72C167.364 257.459 167.845 258.841 167.951 258.782Z" fill="#263238"/>
<path d="M168.01 255.2C168.181 254.529 168.195 253.824 168.063 253.139C167.971 252.389 167.786 251.651 167.516 250.946C167.358 250.525 167.173 250.117 166.956 249.722C166.844 249.478 166.666 249.261 166.442 249.109C166.132 248.925 165.737 248.997 165.506 249.267C165.322 249.498 165.223 249.788 165.236 250.084C165.236 250.327 165.256 250.571 165.289 250.808C165.348 251.256 165.46 251.697 165.618 252.125C165.888 252.83 166.257 253.495 166.705 254.101C167.081 254.687 167.569 255.194 168.129 255.602C168.188 255.549 167.654 254.943 166.976 253.923C166.574 253.304 166.251 252.645 166.014 251.947C165.875 251.546 165.783 251.137 165.737 250.716C165.697 250.295 165.631 249.774 165.849 249.544C165.928 249.432 166.086 249.399 166.205 249.471C166.363 249.583 166.488 249.735 166.567 249.913C166.778 250.281 166.962 250.67 167.121 251.065C167.397 251.737 167.602 252.441 167.74 253.152C167.964 254.417 167.938 255.2 168.01 255.2Z" fill="#263238"/>
<path d="M167.944 254.93C167.364 254.759 166.758 254.726 166.165 254.831C165.513 254.91 164.867 255.068 164.254 255.299C163.872 255.43 163.516 255.615 163.187 255.845C162.752 256.128 162.561 256.668 162.719 257.162C162.903 257.63 163.332 257.959 163.826 258.025C164.241 258.078 164.663 258.025 165.051 257.873C166.224 257.366 167.2 256.491 167.839 255.384C167.371 255.74 166.929 256.128 166.521 256.543C166.053 256.952 165.519 257.268 164.933 257.472C164.61 257.584 164.261 257.623 163.918 257.577C163.589 257.531 163.305 257.314 163.173 257.011C163.081 256.701 163.213 256.365 163.49 256.194C163.78 255.99 164.096 255.819 164.432 255.694C165.012 255.45 165.618 255.266 166.238 255.154C167.259 254.976 167.944 255.002 167.944 254.93Z" fill="#263238"/>
<path d="M177.94 259.921C178.079 259.888 177.802 258.743 178.184 257.393C178.566 256.043 179.37 255.194 179.271 255.101C179.172 255.009 178.145 255.76 177.743 257.274C177.341 258.789 177.841 259.987 177.94 259.921Z" fill="#263238"/>
<path d="M159.029 263.464C159.391 263.622 159.767 263.747 160.149 263.833C161.184 264.096 162.238 264.294 163.299 264.412C166.811 264.754 170.349 264.669 173.842 264.155C177.934 263.615 181.598 262.99 184.26 262.562L187.409 262.015C187.798 261.969 188.18 261.883 188.549 261.752C188.161 261.739 187.765 261.765 187.383 261.837L184.214 262.239L173.782 263.694C170.323 264.195 166.817 264.333 163.325 264.089C160.656 263.866 159.049 263.391 159.029 263.464Z" fill="#263238"/>
<path d="M158.297 264.182C158.343 264.241 159.035 263.714 160.235 263.01C161.75 262.055 163.51 261.541 165.302 261.535C167.397 261.601 169.018 262.812 170.086 263.655C170.639 264.169 171.232 264.643 171.852 265.077C171.41 264.452 170.89 263.892 170.297 263.411C169.684 262.838 169.005 262.345 168.28 261.93C167.371 261.416 166.356 261.12 165.315 261.074C163.431 261.074 161.585 261.647 160.044 262.733C159.391 263.122 158.798 263.609 158.297 264.182Z" fill="#263238"/>
<path d="M248.869 135.179C248.697 134.824 248.407 134.534 248.045 134.369L248.704 133.052C248.658 132.578 248.526 132.117 248.315 131.696C247.986 131.129 246.833 131.176 246.833 131.176L247.011 130.8C247.254 130.26 247.202 129.628 246.866 129.141C246.813 129.068 246.76 128.996 246.694 128.917C246.292 128.528 245.785 128.272 245.238 128.18C245.238 128.18 245.897 126.915 245.6 126.382C244.968 125.486 243.867 125.052 242.793 125.276C241.034 125.967 239.327 126.777 237.687 127.712C237.1 128.028 236.369 127.811 236.052 127.231C236.019 127.172 235.993 127.119 235.973 127.053C235.387 125.374 234.543 123.787 233.476 122.365C232.237 120.877 231.077 120.995 230.399 121.259C230.109 121.371 229.97 121.693 230.082 121.983C230.096 122.01 230.109 122.042 230.122 122.069C230.787 123.129 231.387 124.229 231.914 125.361C232.237 126.224 232.573 132.716 232.573 132.716L230.794 136.101L212.851 164.422C212.851 164.422 185.736 146.163 185.834 145.708L184.556 166.648L204.983 180.212C211.606 184.605 220.534 182.807 224.936 176.189C225.397 175.498 225.799 174.76 226.129 173.996L239.881 144.167L241.548 141.731L248.025 137.583C248.025 137.583 249.099 135.726 248.869 135.179Z" fill="#A8A8A8"/>
<path d="M245.897 128.186C245.897 128.186 245.857 128.232 245.772 128.305L245.383 128.621C245.021 128.897 244.526 129.279 243.933 129.747L241.765 131.393C241.357 131.696 240.948 132.051 240.447 132.341C239.947 132.69 239.308 132.776 238.728 132.572C238.438 132.44 238.2 132.203 238.069 131.913C237.95 131.643 237.897 131.347 237.917 131.05C237.97 130.497 238.2 129.977 238.576 129.575C238.912 129.22 239.268 128.891 239.657 128.588L240.632 127.778L242.055 126.612L242.444 126.303C242.536 126.237 242.582 126.197 242.589 126.204L242.464 126.329L242.095 126.665L240.711 127.863L239.749 128.687C239.373 128.989 239.018 129.319 238.695 129.674C238.326 130.05 238.088 130.537 238.036 131.057C237.963 131.61 238.24 132.15 238.728 132.42C238.985 132.525 239.268 132.552 239.538 132.499C239.808 132.446 240.065 132.348 240.303 132.203C240.764 131.92 241.185 131.544 241.62 131.274L243.801 129.648L245.284 128.568L245.693 128.278L245.897 128.186Z" fill="#545454"/>
<path d="M247.333 131.235C247.241 131.327 247.142 131.413 247.03 131.485C246.832 131.637 246.536 131.854 246.167 132.111C245.435 132.618 244.401 133.302 243.221 133.994C242.925 134.165 242.642 134.343 242.338 134.481C242.042 134.619 241.719 134.679 241.396 134.659C240.836 134.593 240.362 134.211 240.177 133.678C240.065 133.322 240.091 132.94 240.256 132.611C240.302 132.525 240.355 132.44 240.421 132.367C240.467 132.315 240.493 132.295 240.5 132.295C240.507 132.295 240.414 132.414 240.316 132.637C240.197 132.96 240.197 133.316 240.316 133.638C240.487 134.119 240.922 134.461 241.436 134.508C241.732 134.521 242.029 134.461 242.299 134.33C242.595 134.185 242.885 134.027 243.162 133.856C244.342 133.164 245.383 132.499 246.134 132.012L247.017 131.432C247.116 131.36 247.221 131.294 247.333 131.235Z" fill="#545454"/>
<path d="M248.17 134.211C248.071 134.284 247.972 134.343 247.86 134.389L246.984 134.83C246.239 135.199 245.205 135.693 244.065 136.233C243.788 136.371 243.498 136.496 243.208 136.601C242.925 136.707 242.615 136.733 242.319 136.674C242.042 136.621 241.798 136.45 241.66 136.2C241.548 135.982 241.515 135.739 241.554 135.502C241.627 135.166 241.811 134.87 242.075 134.652C242.253 134.501 242.371 134.442 242.378 134.455C242.385 134.468 242.279 134.54 242.114 134.698C241.884 134.922 241.732 135.205 241.673 135.522C241.64 135.732 241.673 135.95 241.778 136.134C241.904 136.345 242.114 136.49 242.352 136.529C242.622 136.575 242.899 136.549 243.156 136.45C243.439 136.345 243.722 136.22 243.992 136.081C245.139 135.548 246.174 135.067 246.931 134.725L247.834 134.336C247.94 134.277 248.052 134.238 248.17 134.211Z" fill="#545454"/>
<path d="M248.638 136.964C248.302 137.082 247.959 137.168 247.61 137.234C246.951 137.378 246.081 137.569 245.1 137.767L244.381 137.912C244.157 137.964 243.92 137.991 243.689 137.991C243.465 137.991 243.248 137.912 243.077 137.773C242.925 137.648 242.833 137.451 242.839 137.253C242.859 136.977 243.004 136.72 243.235 136.562C243.307 136.496 243.4 136.457 243.498 136.443C243.498 136.443 243.406 136.496 243.274 136.615C243.083 136.779 242.965 137.016 242.958 137.273C242.958 137.438 243.037 137.589 243.162 137.688C243.314 137.8 243.498 137.866 243.689 137.859C243.914 137.859 244.131 137.826 244.348 137.773L245.067 137.622C246.048 137.424 246.938 137.253 247.584 137.135C247.933 137.056 248.282 136.996 248.638 136.964Z" fill="#545454"/>
<path d="M241.607 135.647C241.001 135.528 240.381 135.462 239.762 135.462C239.149 135.521 238.543 135.64 237.95 135.824C238.49 135.482 239.116 135.298 239.755 135.298C240.395 135.238 241.034 135.363 241.607 135.647Z" fill="#545454"/>
<path d="M144.789 129.444C144.789 129.444 135.669 121.759 137.778 116.465C139.886 111.171 145.744 108.563 148.624 98.9168C150.924 91.2257 164.623 76.3836 180.859 87.5777C180.859 87.5777 186.355 86.7151 189.478 89.2174C192.602 91.7196 193.36 96.7108 194.684 102.473C196.727 111.355 197.847 118.184 193.893 122.53C189.94 126.876 188.49 128.041 188.701 132.98C188.978 139.426 191.824 138.564 189.36 143.265L175.746 138.827L175.601 135.08L174.224 138.603L166.317 135.759L144.789 129.444Z" fill="#263238"/>
<path d="M190.131 97.0334C189.248 99.0616 189.972 101.406 190.79 103.46C191.607 105.515 192.602 107.681 192.18 109.854C191.429 113.706 186.638 115.853 186.111 119.731C185.828 121.812 186.869 123.932 186.467 126C186.065 128.068 184.404 129.503 182.632 130.504C180.859 131.505 178.902 132.176 177.235 133.349C177.235 133.349 173.571 136.351 167.259 131.406" fill="#263238"/>
<path d="M164.267 91.9961C162.567 91.601 160.854 92.5756 160.314 94.2284L147.234 137.622C145.54 142.699 151.932 148.118 157.381 149.883C162.89 151.667 164.004 149.053 165.75 144.273C168.676 136.292 169.704 133.276 169.704 133.322C169.704 133.368 177.005 134.573 181.565 126.079C183.831 121.845 186.177 114.424 187.871 108.3C189.412 102.782 188.134 94.9066 182.553 93.6094L164.267 91.9961Z" fill="#A8A8A8"/>
<path d="M183.258 112.83C183.047 113.462 182.368 113.805 181.736 113.607C181.11 113.443 180.734 112.804 180.899 112.178C180.899 112.172 180.899 112.165 180.905 112.152C181.116 111.527 181.795 111.178 182.428 111.375C183.054 111.54 183.429 112.178 183.264 112.804C183.264 112.811 183.264 112.817 183.258 112.83Z" fill="#263238"/>
<path d="M185.063 111.283C184.872 111.382 184.22 110.433 182.975 110.005C181.729 109.577 180.602 109.88 180.523 109.683C180.477 109.591 180.721 109.367 181.182 109.215C181.848 109.031 182.56 109.057 183.212 109.288C183.858 109.512 184.418 109.94 184.813 110.499C185.123 110.894 185.162 111.217 185.063 111.283Z" fill="#263238"/>
<path d="M170.923 108.893C170.712 109.518 170.04 109.867 169.407 109.676C168.781 109.512 168.406 108.873 168.57 108.247C168.57 108.241 168.57 108.234 168.577 108.221C168.788 107.596 169.46 107.247 170.092 107.437C170.718 107.602 171.094 108.241 170.929 108.866C170.929 108.873 170.929 108.88 170.923 108.893Z" fill="#263238"/>
<path d="M172.662 107.536C172.465 107.642 171.812 106.687 170.567 106.259C169.321 105.831 168.195 106.134 168.116 105.936C168.07 105.844 168.313 105.627 168.808 105.475C169.473 105.284 170.185 105.311 170.837 105.548C171.483 105.765 172.05 106.193 172.438 106.753C172.715 107.174 172.755 107.497 172.662 107.536Z" fill="#263238"/>
<path d="M173.967 118.322C174.692 118.342 175.416 118.454 176.115 118.658C176.444 118.737 176.774 118.776 176.892 118.579C177.031 118.263 177.07 117.907 177.005 117.565C177.005 116.696 176.945 115.78 176.912 114.826C176.8 110.927 176.84 107.773 176.998 107.767C177.156 107.76 177.374 110.921 177.479 114.812C177.479 115.767 177.512 116.682 177.532 117.558C177.604 118.013 177.505 118.48 177.261 118.875C177.097 119.066 176.853 119.171 176.603 119.158C176.411 119.145 176.22 119.112 176.042 119.046C175.324 118.895 174.626 118.651 173.967 118.322Z" fill="#263238"/>
<path d="M169.71 133.322C165.447 131.913 161.658 129.352 158.765 125.914C158.765 125.914 159.655 133.158 168.966 135.456L169.71 133.322Z" fill="#545454"/>
<path d="M172.399 121.16C172.129 120.383 171.476 119.81 170.679 119.632C170.106 119.488 169.506 119.586 169.005 119.896C168.511 120.199 168.267 120.778 168.392 121.344C168.643 121.944 169.229 122.326 169.875 122.319C170.534 122.319 171.186 122.181 171.792 121.924C171.97 121.871 172.135 121.792 172.28 121.68C172.418 121.568 172.484 121.391 172.438 121.219" fill="#545454"/>
<path d="M173.585 103.98C173.394 104.31 172.135 103.895 170.58 103.789C169.025 103.684 167.727 103.862 167.582 103.513C167.523 103.342 167.799 103.052 168.359 102.808C169.097 102.505 169.895 102.387 170.685 102.459C171.483 102.512 172.247 102.756 172.932 103.164C173.446 103.493 173.677 103.822 173.585 103.98Z" fill="#263238"/>
<path d="M186.856 107.134C186.513 107.345 185.538 106.753 184.293 106.384C183.047 106.015 181.914 105.923 181.749 105.554C181.683 105.376 181.934 105.133 182.474 104.994C183.976 104.698 185.518 105.179 186.592 106.265C186.955 106.674 187.014 107.023 186.856 107.134Z" fill="#263238"/>
<path d="M149.033 120.502C151.484 112.297 153.935 104.086 156.393 95.8745C156.894 94.1888 157.474 92.3911 158.877 91.331C160.281 90.2708 161.981 90.2116 163.641 90.1787C170.817 90.0272 177.987 90.7384 184.991 92.2858C185.321 93.9517 183.877 95.5387 182.256 96.0852C180.635 96.6317 178.883 96.4342 177.183 96.454C175.483 96.4737 173.618 96.7766 172.465 98.0343C171.311 99.292 171.114 101.432 169.954 102.828C167.977 105.225 163.78 104.718 161.796 107.128C160.301 108.952 160.703 111.619 160.208 113.923C159.835 115.679 158.956 117.835 157.573 120.39C156.314 122.747 159.477 127.251 156.327 133.092L150.212 131.353L152.894 122.332L149.257 130.794L149.033 120.502Z" fill="#263238"/>
<path d="M170.277 118.171C170.402 118.243 170.336 118.572 170.33 119.046C170.251 120.245 170.844 121.384 171.878 121.996C172.267 122.26 172.577 122.392 172.537 122.536C172.498 122.681 172.162 122.806 171.575 122.668C170.033 122.26 169.111 120.673 169.519 119.132C169.539 119.046 169.565 118.967 169.598 118.888C169.842 118.322 170.165 118.098 170.277 118.171Z" fill="#282828"/>
<path d="M168.458 98.3767C168.353 98.4557 168.241 98.5216 168.116 98.5677C167.786 98.7323 167.457 98.9101 167.147 99.1076C164.248 100.905 162.277 103.875 161.75 107.24C161.592 108.412 161.592 109.604 161.75 110.776C161.948 112.06 162.02 113.351 161.981 114.648C161.941 115.326 161.796 115.991 161.566 116.623C161.322 117.216 161.025 117.795 160.689 118.342C160.011 119.31 159.543 120.403 159.306 121.562C159.18 122.622 159.207 123.695 159.391 124.749C159.53 125.756 159.707 126.724 159.773 127.56C159.958 128.943 159.747 130.346 159.174 131.617C158.996 131.953 158.772 132.255 158.515 132.532C158.324 132.71 158.218 132.795 158.212 132.782C158.541 132.413 158.824 131.999 159.049 131.557C159.556 130.306 159.721 128.943 159.53 127.607C159.444 126.751 159.253 125.822 159.101 124.815C158.897 123.728 158.864 122.622 158.989 121.522C159.246 119.099 161.585 117.321 161.625 114.661C161.665 113.383 161.592 112.113 161.408 110.848C161.243 109.65 161.243 108.425 161.408 107.227C161.73 105.192 162.594 103.276 163.905 101.682C164.781 100.616 165.842 99.72 167.048 99.0484C167.371 98.864 167.707 98.6994 168.056 98.5677C168.181 98.4821 168.313 98.4162 168.458 98.3767Z" fill="#263238"/>
<path d="M197.992 135.403L197.88 135.495C197.801 135.548 197.689 135.64 197.531 135.732C197.063 136.009 196.562 136.213 196.035 136.338C195.198 136.549 194.322 136.575 193.472 136.43C192.332 136.252 191.271 135.726 190.441 134.922C189.439 133.941 188.8 132.651 188.628 131.255C188.516 130.484 188.569 129.694 188.78 128.943C189.011 128.153 189.373 127.409 189.861 126.744C190.961 125.401 192.18 124.156 193.505 123.03C194.164 122.418 194.77 121.74 195.297 121.009C195.817 120.245 196.233 119.409 196.529 118.533C197.069 116.775 197.3 114.937 197.221 113.1C197.155 111.382 196.977 109.67 196.687 107.971C196.219 105.093 195.481 102.268 194.5 99.5225C193.834 97.6656 193.063 95.8547 192.193 94.09C191.884 93.4645 191.633 92.9838 191.462 92.6611C191.363 92.5097 191.277 92.3516 191.205 92.187C191.317 92.3385 191.422 92.4965 191.508 92.6611C191.699 92.9706 191.969 93.4447 192.299 94.0637C193.221 95.8086 194.032 97.6129 194.717 99.4698C195.745 102.216 196.509 105.06 196.997 107.951C197.3 109.663 197.485 111.388 197.557 113.127C197.643 115.003 197.406 116.88 196.852 118.671C196.555 119.58 196.127 120.442 195.58 121.233C195.033 121.983 194.414 122.675 193.735 123.307C192.424 124.42 191.211 125.638 190.118 126.961C189.65 127.593 189.294 128.305 189.07 129.055C188.866 129.773 188.813 130.517 188.905 131.255C189.063 132.591 189.663 133.829 190.612 134.784C191.403 135.561 192.411 136.081 193.505 136.279C194.328 136.437 195.178 136.424 196.002 136.239C196.707 136.061 197.373 135.785 197.992 135.403Z" fill="#263238"/>
<path d="M141.936 126.474C142.707 126.276 143.425 125.914 144.051 125.42C145.685 123.972 146.693 121.944 146.858 119.764C147.003 118.269 147.043 116.768 146.977 115.267C146.884 113.522 147.016 111.777 147.379 110.065C147.603 109.136 147.959 108.254 148.44 107.431C148.954 106.562 149.665 105.831 150.522 105.297C152.308 104.204 154.475 104.257 156.452 103.579C157.414 103.243 158.284 102.677 158.976 101.926C159.642 101.182 160.241 100.378 160.755 99.5224C161.809 97.8631 162.824 96.1181 164.432 95.0843C165.203 94.5904 166.073 94.2744 166.982 94.1558C167.826 94.0439 168.669 94.011 169.519 94.0505C171.015 94.169 172.524 94.1558 174.02 94.011C176.181 93.7146 178.23 92.8981 180.003 91.6273C180.477 91.2783 180.938 90.9029 181.373 90.5079L181.709 90.1918L181.835 90.0864C181.327 90.712 180.734 91.2651 180.082 91.7326C178.316 93.0628 176.24 93.9254 174.053 94.2546C172.544 94.4126 171.028 94.439 169.512 94.3336C167.918 94.3336 166.106 94.3336 164.603 95.3543C163.101 96.3749 162.093 98.0277 161.038 99.7002C160.511 100.576 159.905 101.399 159.22 102.163C158.495 102.947 157.592 103.546 156.584 103.901C154.555 104.599 152.393 104.56 150.726 105.587C149.158 106.647 148.077 108.287 147.715 110.144C147.346 111.823 147.207 113.541 147.286 115.26C147.346 116.775 147.286 118.289 147.128 119.797C146.937 122.023 145.87 124.084 144.163 125.526C143.689 125.901 143.155 126.178 142.575 126.349C142.423 126.395 142.272 126.428 142.12 126.454C142.061 126.474 141.995 126.481 141.936 126.474Z" fill="#455A64"/>
<path d="M148.538 99.1998C148.967 99.3513 149.408 99.4698 149.856 99.5488C151.075 99.7003 152.307 99.4961 153.414 98.9628C155.029 98.1133 156.472 96.9808 157.671 95.6111C158.396 94.8736 159.154 94.0834 160.01 93.3394C160.887 92.5492 161.895 91.9039 162.982 91.4429C164.089 91.0084 165.269 90.7911 166.455 90.7845C167.542 90.7845 168.636 90.8437 169.717 90.9623C170.745 91.061 171.694 91.1664 172.629 91.173C173.473 91.1861 174.323 91.1203 175.153 90.9688C176.359 90.7779 177.499 90.2774 178.448 89.507C178.777 89.2041 179.087 88.8749 179.377 88.5391C179.331 88.6444 179.271 88.7498 179.199 88.842C179.12 88.9605 179.034 89.079 178.942 89.1844C178.817 89.3358 178.678 89.4741 178.533 89.6058C177.584 90.4355 176.425 90.9886 175.179 91.2059C174.336 91.3771 173.473 91.4561 172.609 91.4561C171.68 91.4561 170.699 91.3639 169.664 91.2783C168.596 91.1664 167.516 91.1137 166.442 91.1203C165.295 91.1203 164.155 91.331 163.088 91.7393C160.907 92.6414 159.338 94.3732 157.876 95.8152C156.643 97.1981 155.154 98.3372 153.494 99.1603C152.347 99.6937 151.062 99.8649 149.817 99.6608C149.481 99.5949 149.151 99.4961 148.841 99.3513C148.736 99.3118 148.637 99.2591 148.538 99.1998Z" fill="#455A64"/>
<path d="M196.213 117.664C196.377 117.262 196.483 116.841 196.536 116.406C196.595 115.227 196.265 114.055 195.6 113.081C194.836 111.764 193.419 110.657 191.982 109.255C191.211 108.524 190.559 107.668 190.065 106.726C189.584 105.692 189.307 104.573 189.248 103.434C189.096 101.096 189.498 98.9101 189.445 96.9281C189.525 95.1766 189.011 93.4448 187.996 92.0159C187.284 91.0677 186.256 90.4158 185.103 90.1655C184.668 90.0997 184.227 90.0931 183.785 90.1326C183.891 90.0865 184.003 90.0536 184.121 90.0404C184.444 89.9943 184.78 89.9943 185.103 90.0404C186.315 90.2446 187.409 90.8965 188.167 91.871C189.188 93.0497 189.716 94.9198 189.742 96.9281C189.768 98.9365 189.419 101.136 189.571 103.414C189.623 104.514 189.887 105.6 190.348 106.601C190.823 107.516 191.442 108.346 192.187 109.057C193.584 110.453 195.027 111.625 195.784 113.008C196.457 114.035 196.766 115.26 196.648 116.478C196.608 116.808 196.509 117.124 196.371 117.42C196.331 117.506 196.272 117.591 196.213 117.664Z" fill="#455A64"/>
<path d="M137.897 121.608C137.752 121.542 137.613 121.463 137.475 121.377C137.093 121.121 136.75 120.811 136.453 120.456C135.353 119.112 134.892 117.361 135.188 115.649C135.294 115.089 135.485 114.542 135.748 114.035C136.065 113.502 136.453 113.021 136.908 112.6C137.949 111.744 139.102 111.033 140.335 110.493C141.672 109.92 142.911 109.13 143.998 108.162C145.046 107.009 145.764 105.594 146.074 104.066C146.469 102.505 146.733 100.925 147.253 99.4566C147.741 98.0541 148.387 96.7108 149.171 95.4465C150.489 93.3065 152.189 91.4232 154.179 89.8824C155.517 88.842 156.979 87.9859 158.541 87.3275C158.963 87.1431 159.391 86.9851 159.826 86.8468C159.971 86.7875 160.129 86.7414 160.287 86.7151C160.287 86.7546 159.668 86.9521 158.594 87.4526C157.072 88.1506 155.635 89.0329 154.33 90.0865C152.387 91.6273 150.733 93.504 149.441 95.6243C148.677 96.8688 148.051 98.1924 147.576 99.5752C147.076 101.011 146.812 102.571 146.403 104.185C146.081 105.771 145.329 107.24 144.236 108.432C143.122 109.426 141.857 110.229 140.48 110.809C139.267 111.336 138.127 112.02 137.099 112.844C136.664 113.239 136.289 113.7 135.979 114.2C135.722 114.681 135.531 115.194 135.425 115.728C135.261 116.656 135.313 117.611 135.577 118.513C135.781 119.198 136.111 119.843 136.552 120.403C136.948 120.857 137.396 121.265 137.897 121.608Z" fill="#263238"/>
<path d="M198.071 118.276C198.071 118.276 198.348 117.96 198.769 117.334C199.349 116.452 199.751 115.458 199.942 114.417C200.219 112.876 200.16 111.29 199.778 109.768C199.264 107.912 198.473 106.147 197.419 104.534C196.331 102.789 195.158 101.208 194.17 99.7135C193.274 98.3965 192.496 97.0071 191.844 95.5519C191.409 94.5707 191.086 93.5369 190.889 92.4768C190.836 92.187 190.803 91.8973 190.783 91.6076C190.77 91.5088 190.77 91.4035 190.783 91.3047C190.783 91.3047 190.862 91.7195 191.027 92.4504C191.264 93.4908 191.613 94.5115 192.061 95.4794C192.74 96.9018 193.537 98.2648 194.434 99.562C195.429 101.044 196.615 102.617 197.728 104.382C198.796 106.028 199.6 107.826 200.107 109.722C200.483 111.29 200.516 112.916 200.199 114.496C199.975 115.563 199.527 116.564 198.881 117.44C198.71 117.677 198.512 117.894 198.302 118.098C198.236 118.171 198.157 118.23 198.071 118.276Z" fill="#263238"/>
<path d="M129.627 210.055L124.217 219.464C124.217 219.464 97.3255 209.633 81.5835 212.498C75.5937 213.584 69.1888 227.155 77.9132 235.874C86.6375 244.592 101.635 256.398 130.187 260.29C130.899 260.382 142.595 262.891 141.87 262.805C141.145 262.72 158.264 265.439 158.264 265.439L162.284 250.255L194.17 255.253C212.963 253.975 222.162 233.892 210.841 227.425C200.298 221.4 180.438 220.913 180.438 220.913L173.242 209.64L129.627 210.055Z" fill="#2B2B2B"/>
<path d="M158.917 266.026C158.996 265.512 159.226 264.129 159.688 261.291C159.945 259.777 160.254 257.933 160.656 255.813C160.861 254.746 161.085 253.62 161.355 252.428C161.493 251.829 161.638 251.223 161.816 250.597C161.902 250.288 161.994 249.978 162.106 249.662C162.205 249.32 162.369 249.004 162.594 248.727L162.64 248.958C155.853 246.548 147.365 243.367 138.325 239.555C132.763 237.191 127.518 234.807 122.899 232.311C120.698 231.166 118.583 229.855 116.573 228.394C114.702 227.011 113.028 225.628 111.46 224.443C108.363 221.993 105.529 220.413 103.44 219.741C102.979 219.577 102.511 219.438 102.037 219.326C101.694 219.228 101.345 219.155 100.989 219.102L100.33 218.984L100.106 218.931C100.185 218.925 100.258 218.925 100.337 218.931L100.996 219.017C101.358 219.056 101.714 219.122 102.063 219.208C102.544 219.307 103.019 219.438 103.487 219.596C104.772 220.011 106.01 220.564 107.177 221.236C108.725 222.131 110.208 223.132 111.611 224.232C113.193 225.424 114.866 226.793 116.744 228.183C118.748 229.625 120.856 230.922 123.051 232.055C127.663 234.517 132.902 236.895 138.457 239.252C147.491 243.058 155.965 246.265 162.732 248.708L162.923 248.78L162.778 248.938C162.594 249.188 162.455 249.471 162.363 249.768C162.251 250.071 162.159 250.38 162.066 250.683C161.888 251.295 161.737 251.908 161.599 252.494C161.322 253.679 161.085 254.805 160.874 255.865C160.452 257.986 160.122 259.816 159.846 261.331C159.569 262.845 159.345 263.997 159.187 264.821C159.108 265.222 159.048 265.532 158.996 265.736C158.976 265.835 158.95 265.933 158.917 266.026Z" fill="#7A7A7A"/>
<path d="M204.66 229.269H204.482L203.988 229.19C203.553 229.131 202.921 228.973 202.084 228.887C199.738 228.578 197.372 228.492 195.013 228.637C191.514 228.861 188.042 229.434 184.655 230.349C182.744 230.856 180.754 231.462 178.724 232.167C176.695 232.871 174.613 233.681 172.484 234.53C170.409 235.354 168.287 236.058 166.126 236.631C164.037 237.204 162.001 237.652 160.05 238.027C156.149 238.791 152.597 239.258 149.619 239.621C146.641 239.983 144.222 240.226 142.555 240.398L140.631 240.588L140.13 240.628C140.071 240.635 140.018 240.635 139.959 240.628H140.124L140.625 240.556L142.535 240.299L149.586 239.416C152.565 239.021 156.103 238.527 159.984 237.75C161.928 237.369 163.938 236.914 166.033 236.335C168.181 235.755 170.29 235.064 172.359 234.247C174.481 233.398 176.57 232.581 178.619 231.883C180.668 231.185 182.658 230.566 184.582 230.073C187.989 229.17 191.488 228.617 195.007 228.433C197.379 228.308 199.758 228.433 202.11 228.789C202.947 228.894 203.573 229.078 204.008 229.157L204.502 229.269C204.555 229.263 204.608 229.263 204.66 229.269Z" fill="#7A7A7A"/>
<path d="M155.53 223.804C155.53 224.028 154.106 224.39 151.715 224.614C145.468 225.127 139.181 224.456 133.185 222.638C130.899 221.914 129.561 221.249 129.627 221.032C129.778 220.558 135.426 222.059 142.542 222.796C149.659 223.534 155.484 223.303 155.53 223.804Z" fill="#444444"/>
<path d="M180.741 221.137C180.398 221.255 180.042 221.354 179.687 221.42C179.271 221.506 178.856 221.611 178.454 221.736C177.98 221.874 177.433 222.019 176.847 222.23C175.463 222.691 174.099 223.231 172.774 223.843C171.285 224.554 169.677 225.397 168.036 226.372C165.256 228.064 162.594 229.941 160.057 231.982C159.081 232.759 158.297 233.404 157.764 233.852C157.493 234.096 157.204 234.32 156.9 234.511C157.138 234.234 157.395 233.977 157.671 233.74C158.185 233.26 158.943 232.588 159.905 231.765C162.409 229.658 165.071 227.742 167.865 226.043C169.414 225.121 171.008 224.278 172.642 223.527C173.987 222.921 175.364 222.401 176.774 221.967C177.367 221.769 177.921 221.637 178.408 221.519C178.817 221.407 179.238 221.321 179.66 221.256C180.016 221.183 180.378 221.144 180.741 221.137Z" fill="#7A7A7A"/>
<path d="M150.845 234.524C150.192 234.425 149.56 234.247 148.954 233.984C147.478 233.418 146.034 232.772 144.638 232.041L140.466 229.849C139.873 229.572 139.3 229.263 138.747 228.914C139.379 229.091 139.992 229.328 140.578 229.631C141.679 230.132 143.168 230.896 144.809 231.732C146.45 232.568 147.945 233.292 149.059 233.76C150.173 234.227 150.858 234.471 150.845 234.524Z" fill="#7A7A7A"/>
<path d="M153.751 211.188C153.803 211.188 153.711 212.175 153.612 213.762C153.513 215.349 153.421 217.542 153.467 219.965C153.513 222.388 153.691 224.574 153.849 226.168C153.975 227.017 154.054 227.873 154.093 228.736C154.008 228.525 153.948 228.301 153.922 228.077C153.83 227.643 153.724 227.004 153.612 226.214C153.329 224.153 153.164 222.072 153.125 219.991C153.085 217.911 153.164 215.83 153.368 213.762C153.454 212.965 153.533 212.327 153.606 211.885C153.625 211.648 153.672 211.411 153.751 211.188Z" fill="#7A7A7A"/>
<path d="M156.749 212.162C156.749 212.162 156.63 212.267 156.466 212.465C156.235 212.741 156.09 213.077 156.044 213.433C155.971 213.953 156.123 214.473 156.459 214.875C157.164 215.5 158.238 215.434 158.858 214.736C159.082 214.486 159.227 214.17 159.273 213.841C159.259 213.314 159.022 212.814 158.614 212.478C158.35 212.234 158.021 212.076 157.665 212.017C157.408 211.977 157.263 212.017 157.256 211.971C157.25 211.925 157.395 211.885 157.678 211.885C158.08 211.898 158.462 212.043 158.772 212.294C159.259 212.662 159.549 213.235 159.556 213.848C159.47 214.934 158.515 215.744 157.428 215.658C156.966 215.619 156.525 215.421 156.195 215.092C155.807 214.618 155.655 213.999 155.78 213.4C155.853 213.005 156.05 212.642 156.347 212.373C156.584 212.195 156.742 212.155 156.749 212.168V212.162Z" fill="#455A64"/>
<path d="M164.933 201.317C164.788 201.554 164.617 201.778 164.419 201.975C163.925 202.561 163.398 203.121 162.837 203.648C162.007 204.431 161.131 205.162 160.202 205.827C159.062 206.637 157.856 207.362 156.61 207.994C155.359 208.613 154.054 209.133 152.723 209.554C151.629 209.897 150.515 210.16 149.389 210.345C148.631 210.476 147.866 210.562 147.102 210.601C146.819 210.628 146.542 210.628 146.259 210.601C146.259 210.536 147.451 210.47 149.349 210.101C150.463 209.877 151.563 209.594 152.644 209.245C156.354 208.033 159.767 206.071 162.673 203.47C164.109 202.193 164.88 201.277 164.933 201.317Z" fill="#263238"/>
<path d="M176.959 208.626C176.959 208.725 175.773 208.725 174.376 209.08C172.979 209.436 171.924 209.963 171.872 209.877C173.334 208.804 175.166 208.349 176.959 208.626Z" fill="#263238"/>
<g opacity="0.3">
<path d="M149.303 210.272C155.029 209.225 160.221 206.229 163.991 201.791C164.689 203.918 164.129 206.255 162.548 207.836C164.221 208.626 166.185 208.099 168.017 207.836C169.849 207.572 172.089 207.836 172.965 209.462C164.768 210.22 156.531 210.457 148.308 210.167" fill="black"/>
</g>
<path d="M132.941 197.366C132.118 196.582 131.156 195.963 130.101 195.529C128.955 195.081 127.729 194.877 126.497 194.916C124.994 194.969 123.518 195.364 122.194 196.075C119.321 197.563 117.581 200.105 116.316 201.732C115.829 202.416 115.387 203.134 114.998 203.878C114.873 204.161 114.715 204.425 114.544 204.682C114.629 204.385 114.741 204.096 114.88 203.819C115.216 203.042 115.624 202.298 116.092 201.593C116.705 200.711 117.496 199.723 118.405 198.643C119.426 197.471 120.645 196.497 122.016 195.766C123.393 195.035 124.922 194.633 126.477 194.6C127.749 194.574 129.007 194.818 130.18 195.305C130.971 195.628 131.689 196.088 132.315 196.668C132.487 196.819 132.645 196.991 132.79 197.168C132.902 197.293 132.954 197.359 132.941 197.366Z" fill="#263238"/>
<path d="M150.192 134.205L140.994 136.16L145.593 153.366L161.882 156.863L173.058 148.941L174.593 139.453L165.012 135.831L150.192 134.205Z" fill="#A8A8A8"/>
<path d="M143.715 135.456C143.715 135.456 149.942 153.524 161.447 151.852C172.952 150.179 171.99 138.472 171.99 138.472C171.99 138.472 183.996 142.133 187.706 146.024C191.416 149.916 189.228 158.377 189.228 158.377L186.118 173.667L179.344 202.956C179.344 202.956 181.934 210.95 175.311 212.926L173.222 209.633L133.508 210.753C133.508 210.753 125.014 220.538 122.365 217.166C119.716 213.795 117.173 207.21 117.173 207.21L135.419 137.622L143.715 135.456Z" fill="#686868"/>
<path d="M184.569 143.713C184.892 143.898 212.765 164.126 212.765 164.126C212.765 164.126 210.578 180.772 223.967 178.125C223.967 178.125 218.564 192.045 211.25 189.122C209.167 188.292 183.475 172.047 183.475 172.047L178.026 160.452L184.569 143.713Z" fill="#686868"/>
<path d="M143.715 136.345C143.715 136.345 143.056 136.345 142.021 136.463C136.565 136.99 116.428 141.158 114.563 155.362C113.588 162.789 113.311 184.512 112.257 193.619C112.257 193.619 113.937 206.275 114.563 208.619C115.677 212.794 135.854 206.104 135.854 206.104L135.893 165.937L143.102 136.364" fill="#686868"/>
<path d="M130.971 172.838C130.991 172.943 130.991 173.055 130.971 173.16C130.971 173.47 130.998 173.786 131.037 174.095C131.182 175.221 131.465 176.328 131.887 177.388C132.401 178.744 133.205 180.285 133.969 182.05C134.391 182.978 134.74 183.933 135.024 184.908C135.307 185.961 135.491 187.041 135.571 188.128C135.689 190.221 135.63 192.322 135.406 194.409C135.241 196.332 135.083 198.064 134.846 199.506C134.668 200.645 134.398 201.771 134.048 202.871C133.917 203.259 133.805 203.529 133.719 203.753C133.686 203.859 133.633 203.957 133.574 204.05C133.574 204.05 133.699 203.615 133.923 202.831C134.22 201.725 134.437 200.599 134.582 199.467C134.793 198.031 134.925 196.306 135.076 194.39C135.281 192.315 135.32 190.235 135.208 188.154C135.129 187.087 134.951 186.027 134.681 184.993C134.404 184.032 134.068 183.09 133.66 182.175C132.895 180.417 132.131 178.85 131.637 177.473C131.228 176.387 130.971 175.248 130.885 174.089C130.859 173.773 130.859 173.463 130.885 173.147C130.905 173.042 130.932 172.936 130.971 172.838Z" fill="#263238"/>
<path d="M131.9 167.767C131.959 167.767 132.005 168.788 132.236 170.401C132.533 172.522 133.027 174.616 133.706 176.65C133.91 177.249 134.121 177.822 134.364 178.375C134.411 178.501 134.47 178.626 134.529 178.751L134.766 179.113C134.918 179.357 135.063 179.6 135.188 179.857C135.663 180.733 135.913 181.707 135.933 182.702C135.933 183.38 135.801 184.052 135.544 184.677C135.452 184.914 135.333 185.131 135.182 185.336C135.518 184.519 135.689 183.65 135.689 182.767C135.643 181.819 135.373 180.891 134.911 180.061C134.786 179.824 134.641 179.587 134.49 179.35L134.252 178.988C134.173 178.85 134.108 178.711 134.055 178.56C133.824 178.007 133.613 177.421 133.396 176.821C132.704 174.767 132.243 172.64 132.012 170.487C131.92 169.664 131.893 168.986 131.887 168.511C131.861 168.261 131.867 168.011 131.9 167.767Z" fill="#263238"/>
<path d="M132.704 161.736C132.651 161.736 132.348 160.913 131.755 159.615C130.978 157.923 130.049 156.303 128.968 154.782C127.881 153.268 126.655 151.859 125.311 150.574C124.276 149.587 123.578 149.027 123.617 148.981C123.808 149.073 123.986 149.185 124.144 149.323C124.599 149.659 125.041 150.015 125.462 150.397C128.296 152.905 130.516 156.02 131.966 159.517C132.236 160.175 132.434 160.735 132.546 161.123C132.625 161.321 132.678 161.525 132.704 161.736Z" fill="#263238"/>
<path d="M189.814 149.936C189.828 150.469 189.781 151.003 189.683 151.529C189.564 152.51 189.393 153.86 189.241 155.355C189.09 156.85 188.964 158.206 188.879 159.194C188.866 159.727 188.8 160.261 188.681 160.781C188.609 160.254 188.589 159.714 188.635 159.181C188.635 158.187 188.74 156.823 188.899 155.322C189.057 153.821 189.261 152.464 189.439 151.496C189.505 150.963 189.63 150.443 189.814 149.936Z" fill="#263238"/>
<path d="M195.547 166.846C195.547 166.905 194.677 166.99 193.327 167.372C191.567 167.86 189.966 168.795 188.681 170.092C187.996 170.823 187.403 171.633 186.909 172.502C186.52 173.226 186.184 173.97 185.894 174.741L185.571 175.636C185.492 175.88 185.426 176.11 185.36 176.295C185.314 176.499 185.241 176.69 185.143 176.874C185.143 176.663 185.169 176.459 185.235 176.262L185.386 175.557L185.663 174.635C185.927 173.839 186.25 173.068 186.632 172.324C187.133 171.442 187.739 170.619 188.437 169.888C189.755 168.544 191.429 167.609 193.261 167.175C193.57 167.089 193.887 167.023 194.21 166.984C194.447 166.938 194.684 166.905 194.928 166.892C195.132 166.846 195.336 166.826 195.547 166.846Z" fill="#263238"/>
<path d="M214.004 185.171C213.833 184.94 213.681 184.697 213.563 184.433C213.424 184.196 213.266 183.893 213.101 183.531C212.937 183.169 212.739 182.774 212.568 182.306C212.133 181.226 211.777 180.114 211.507 178.981C211.177 177.592 210.953 176.176 210.848 174.747C210.756 173.325 210.782 171.896 210.92 170.474C211.039 169.315 211.243 168.169 211.527 167.036C211.632 166.549 211.784 166.121 211.896 165.719C211.988 165.397 212.093 165.074 212.225 164.765C212.311 164.488 212.429 164.225 212.568 163.974C212.634 163.974 212.192 165.14 211.764 167.063C211.52 168.189 211.342 169.328 211.237 170.474C211.118 171.883 211.098 173.292 211.184 174.701C211.289 176.11 211.5 177.506 211.803 178.882C212.06 180.002 212.383 181.101 212.779 182.175C213.477 184.065 214.064 185.144 214.004 185.171Z" fill="#263238"/>
<path d="M206.762 180.226C206.644 180.002 206.551 179.765 206.499 179.521C206.314 178.876 206.176 178.211 206.09 177.546C205.807 175.3 206.018 173.015 206.71 170.856C207.382 168.689 208.535 166.701 210.077 165.035C210.538 164.501 211.184 164.152 211.889 164.06C212.08 164.06 212.271 164.093 212.449 164.172C212.561 164.231 212.62 164.271 212.614 164.284C212.383 164.212 212.139 164.179 211.895 164.192C211.25 164.337 210.67 164.686 210.255 165.199C208.798 166.872 207.698 168.834 207.039 170.954C206.367 173.081 206.123 175.32 206.327 177.539C206.499 179.185 206.822 180.206 206.762 180.226Z" fill="#263238"/>
<path d="M161.447 176.947C161.427 177.217 161.368 177.48 161.282 177.73C161.21 178.033 161.124 178.336 161.019 178.626C160.893 179.021 160.742 179.409 160.577 179.785C160.162 180.779 159.661 181.734 159.075 182.642C157.638 184.875 155.76 186.797 153.559 188.279C152.663 188.885 151.721 189.412 150.733 189.853C150.357 190.031 149.975 190.182 149.579 190.314C149.29 190.432 148.993 190.531 148.69 190.603C148.44 190.689 148.176 190.755 147.912 190.788C147.912 190.722 148.993 190.426 150.627 189.635C151.583 189.168 152.505 188.628 153.382 188.022C154.442 187.265 155.437 186.429 156.36 185.507C157.263 184.565 158.08 183.551 158.805 182.471C159.391 181.582 159.912 180.654 160.353 179.686C161.111 178.033 161.381 176.927 161.447 176.947Z" fill="#263238"/>
<g opacity="0.3">
<path d="M138.628 183.466L134.832 169.637C134.648 168.979 134.338 168.169 133.646 168.044C132.974 168.018 132.388 168.512 132.296 169.177C132.203 169.848 132.203 170.526 132.296 171.198C132.592 174.207 132.829 176.249 134.233 178.58C136.967 183.123 135.168 185.329 135.168 185.329C135.386 190.86 134.918 198.406 133.192 204.089L134.819 210.944C136.361 205.847 139.886 201.6 140.48 196.306C140.934 191.967 139.807 187.667 138.628 183.466Z" fill="black"/>
</g>
<g opacity="0.3">
<path d="M186.131 173.76C190.645 176.104 194.658 179.343 199.053 181.852C197.333 178.264 194.44 174.714 190.961 172.811C190.052 172.225 188.984 171.942 187.903 172.001C186.836 172.153 186.072 172.752 186.236 173.812" fill="black"/>
</g>
<g opacity="0.3">
<path d="M211.994 163.836C210.453 163.797 209.293 165.199 208.535 166.542C206.407 170.362 205.53 174.76 206.044 179.106C206.137 179.883 206.426 180.818 207.197 180.97C207.784 181.036 208.337 180.706 208.561 180.16C208.772 179.633 208.858 179.06 208.818 178.494C208.818 175.86 208.634 173.193 209.016 170.592C209.398 167.991 210.38 165.357 212.311 163.573" fill="black"/>
</g>
<path d="M142.298 168.781H142.456L142.911 168.748L144.697 168.656L151.444 168.347L175.344 167.333H175.502V167.484C175.7 175.518 175.931 184.763 176.161 194.548V195.7H176.049C166.205 195.812 156.373 196.549 146.621 197.899H146.496L146.463 197.774C144.572 190.854 143.392 183.755 142.951 176.598C142.793 174.003 142.766 171.988 142.766 170.579V168.452C142.766 168.498 142.766 168.544 142.766 168.59V170.579C142.766 171.968 142.852 174.003 143.03 176.584C143.537 183.729 144.75 190.801 146.654 197.702L146.489 197.59C156.281 196.2 166.159 195.443 176.049 195.331L175.878 195.509V194.528C175.647 184.743 175.436 175.498 175.219 167.464L175.377 167.616L151.471 168.505L144.717 168.729L142.931 168.781H142.298Z" fill="white"/>
<path d="M151.009 188.74C150.917 188.74 150.094 184.308 149.171 178.803C148.248 173.299 147.576 168.827 147.669 168.808C147.761 168.788 148.585 173.239 149.507 178.751C150.43 184.262 151.075 188.727 151.009 188.74Z" fill="white"/>
<path d="M151.972 197.234C151.616 196.062 151.372 194.864 151.24 193.646C150.996 192.447 150.864 191.222 150.845 189.998C151.201 191.17 151.444 192.375 151.576 193.593C151.827 194.791 151.958 196.009 151.972 197.234Z" fill="white"/>
<path d="M157.651 184.335C157.559 184.144 157.493 183.933 157.467 183.722C157.368 183.327 157.243 182.741 157.105 182.023C156.828 180.581 156.518 178.58 156.294 176.354C156.07 174.128 155.984 172.1 155.965 170.638V168.9C155.965 168.676 155.978 168.459 156.024 168.241C156.129 169.025 156.182 169.815 156.189 170.605C156.268 172.067 156.393 174.082 156.617 176.301C156.841 178.52 157.111 180.515 157.322 181.964C157.48 182.748 157.592 183.538 157.651 184.335Z" fill="white"/>
<path d="M156.9 196.352C156.538 194.818 156.294 193.264 156.156 191.696C155.899 190.142 155.767 188.575 155.747 187.001C156.11 188.536 156.354 190.09 156.492 191.657C156.749 193.211 156.881 194.778 156.9 196.352Z" fill="white"/>
<path d="M164.346 195.819C164.28 195.463 164.234 195.094 164.214 194.732L163.957 191.769C163.74 189.273 163.417 185.843 162.982 182.017C162.547 178.191 162.073 174.774 161.717 172.291C161.546 171.093 161.401 170.098 161.295 169.348C161.229 168.992 161.19 168.623 161.177 168.261C161.289 168.61 161.374 168.966 161.427 169.328C161.566 169.986 161.743 171.014 161.954 172.252C162.376 174.734 162.883 178.178 163.325 181.977C163.766 185.777 164.043 189.221 164.201 191.756C164.274 193.007 164.326 194.021 164.346 194.725C164.379 195.088 164.379 195.456 164.346 195.819Z" fill="white"/>
<path d="M170.685 196.174C170.639 195.805 170.619 195.436 170.633 195.068V192.052C170.633 189.51 170.54 185.994 170.362 182.122C170.185 178.25 169.908 174.74 169.704 172.205C169.598 170.987 169.512 169.973 169.447 169.209C169.4 168.841 169.381 168.472 169.387 168.103C169.486 168.459 169.545 168.821 169.578 169.19C169.684 169.894 169.809 170.921 169.947 172.186C170.224 174.714 170.527 178.224 170.718 182.102C170.909 185.981 170.929 189.504 170.89 192.052C170.89 193.323 170.843 194.357 170.811 195.068C170.797 195.436 170.751 195.812 170.685 196.174Z" fill="white"/>
<g opacity="0.3">
<path d="M148.433 190.834C149.468 191.492 150.687 191.789 151.906 191.677C153.118 191.565 154.304 191.255 155.411 190.761C156.927 190.202 158.284 189.3 159.398 188.127C160.478 186.784 161.164 185.171 161.375 183.465C161.592 181.76 161.651 180.041 161.546 178.323C161.546 178.25 161.533 178.171 161.493 178.112C161.394 178.013 161.23 178.007 161.131 178.112C161.032 178.211 160.959 178.336 160.927 178.474C158.877 184.295 154.146 188.766 148.216 190.485" fill="black"/>
</g>
<path d="M144.354 245.988L140.328 238.442L131.274 196.095C131.274 196.095 122.945 191.314 116.119 201.791C115.848 202.212 125.502 232.542 128.197 240.977L128.573 249.05C128.573 249.05 128.098 258.604 128.573 259.441C128.994 260.027 129.574 260.481 130.246 260.758C130.246 260.758 129.89 263.148 132.638 263.392C132.638 263.392 132.875 266.026 134.905 265.663C136.019 265.525 137.027 264.919 137.659 263.991C137.659 263.991 137.659 267.329 139.452 266.974C141.244 266.618 141.534 265.183 141.863 264.709C142.193 264.234 142.575 259.329 142.575 259.329L142.542 251.243L147.207 255.022C148.525 255.681 150.535 256.524 151.655 255.516L144.354 245.988Z" fill="#A8A8A8"/>
<path d="M142.549 250.828C142.858 252.257 142.944 253.732 142.812 255.187C142.76 256.306 142.713 257.327 142.667 258.262C142.68 258.69 142.641 259.118 142.549 259.533C142.364 258.084 142.338 256.622 142.47 255.174C142.588 252.777 142.443 250.841 142.549 250.828Z" fill="#545454"/>
<path d="M137.409 256.464C137.672 259.125 137.705 261.798 137.514 264.465C137.251 261.805 137.218 259.131 137.409 256.464Z" fill="#545454"/>
<path d="M133.099 257.933C133.403 259.79 133.218 261.699 132.566 263.464C132.473 263.464 132.711 262.219 132.849 260.698C132.882 259.77 132.968 258.848 133.099 257.933Z" fill="#545454"/>
<path d="M130.325 256.998C130.437 258.209 130.312 259.434 129.97 260.599C129.851 260 129.851 259.381 129.97 258.782C129.976 258.17 130.101 257.564 130.325 256.998Z" fill="#545454"/>
<path d="M139.372 92.0093L133.31 81.3287C141.599 67.876 137.409 50.2551 123.946 41.9715C110.484 33.6878 92.8511 37.8757 84.5616 51.3284C76.2721 64.7812 80.463 82.4021 93.9251 90.6857C104.073 96.9281 117.028 96.2433 126.45 88.9539L139.372 92.0093Z" fill="white"/>
<path d="M139.372 92.0093L126.424 89.0461C126.378 89.0461 126.352 89 126.358 88.9605C126.358 88.9605 126.358 88.9539 126.358 88.9474V88.9144L126.477 89.033C124.665 90.4421 122.695 91.6339 120.599 92.5756C118.115 93.6884 115.486 94.4457 112.791 94.821C111.295 95.0317 109.779 95.1041 108.27 95.0449C107.486 95.0054 106.696 94.9856 105.898 94.9198L103.48 94.551C96.2843 93.1419 89.8991 89.0461 85.616 83.0935C83.2372 79.8011 81.5899 76.0412 80.786 72.0574C79.9623 67.8497 80.0743 63.5103 81.122 59.3487C82.2027 55.0028 84.3047 50.9729 87.2502 47.6015L88.4165 46.2845C88.8053 45.8499 89.26 45.4943 89.6751 45.0992C90.0902 44.7042 90.5054 44.3025 90.993 43.9732L92.3636 42.946C92.8182 42.597 93.2927 42.2875 93.7869 42.0044L95.2366 41.1286L96.7521 40.3911C97.2463 40.1409 97.7603 39.917 98.2875 39.7326C102.353 38.1194 106.735 37.4477 111.097 37.7572C115.229 38.0338 119.242 39.219 122.859 41.2274C129.35 44.8556 134.2 50.8412 136.401 57.9462C137.29 60.962 137.705 64.0964 137.646 67.2373C137.567 69.9634 137.099 72.6632 136.249 75.2576C135.537 77.4108 134.569 79.4784 133.376 81.4078V81.3222L139.366 92.0422L133.218 81.3683C133.218 81.3683 133.205 81.3156 133.218 81.2892C134.391 79.3665 135.333 77.3054 136.032 75.1654C136.862 72.5907 137.323 69.9041 137.389 67.1978C137.442 64.0766 137.013 60.9686 136.13 57.9791C133.923 50.9663 129.106 45.0597 122.675 41.4842C119.097 39.5088 115.123 38.3367 111.045 38.0667C106.728 37.7704 102.399 38.442 98.3797 40.0421C97.8591 40.2331 97.3583 40.4504 96.8641 40.7006L95.3683 41.4249L93.9319 42.2941C93.4442 42.5707 92.9764 42.8802 92.5283 43.2226L91.1709 44.2366C90.7096 44.5659 90.3209 44.9873 89.8925 45.3561C89.4642 45.7248 89.0293 46.0936 88.6537 46.5216L87.5006 47.7924C84.5881 51.1243 82.5058 55.1081 81.4383 59.4014C80.4038 63.5103 80.2852 67.797 81.0957 71.9586C81.8864 75.8963 83.514 79.6167 85.8598 82.8762C90.0902 88.7696 96.4029 92.839 103.519 94.2547L105.911 94.6234C106.702 94.6893 107.486 94.709 108.257 94.7551C109.76 94.821 111.262 94.7486 112.751 94.5444C115.433 94.1888 118.056 93.4513 120.533 92.3583C122.616 91.4298 124.579 90.2643 126.391 88.8749C126.424 88.842 126.477 88.8354 126.51 88.8749C126.53 88.9078 126.53 88.9474 126.51 88.9803L126.464 88.842L139.366 92.0093H139.372Z" fill="#263238"/>
<path d="M100.567 60.9358C100.119 60.725 99.6383 60.5999 99.1441 60.567C97.6747 60.33 96.1854 60.8831 95.2234 62.0157C98.3138 63.8067 102.524 66.1838 105.536 67.9025L109.338 65.7295C106.597 64.2216 103.157 62.3251 100.567 60.9358Z" fill="#9B9B9B"/>
<path d="M112.211 71.9059L112.072 71.7874C111.124 71.2409 110.096 70.2005 109.16 70.2202C108.797 70.2202 108.402 70.5429 107.46 71.0697C105.892 71.9586 103.249 73.506 101.668 74.3621C100.35 75.1061 98.6762 75.679 97.1408 75.1786C96.3567 74.8888 95.6384 74.4542 95.019 73.8945L112.204 63.9383C112.119 63.6815 112.026 63.4379 111.941 63.1877C111.058 60.6196 112.428 57.8211 114.998 56.9387C117.568 56.0563 120.368 57.426 121.251 59.9941C122.134 62.5621 120.764 65.3607 118.194 66.243C117.509 66.4801 116.777 66.5591 116.059 66.4801C115.664 66.4537 115.268 66.5327 114.912 66.7105C114.254 67.0266 113.647 67.4283 112.863 67.876C114.181 68.4687 115.084 69.4169 116.632 69.272C118.767 69.0745 120.658 70.6219 121.311 72.6829C121.943 74.7045 121.205 76.8972 119.479 78.1286C117.271 79.7155 114.194 79.2085 112.613 77.0026C111.69 75.7185 111.44 74.0723 111.941 72.571C112.02 72.38 112.132 72.1562 112.211 71.9059ZM116.599 64.0042C117.897 64.0174 118.965 62.977 118.978 61.6798C118.978 61.6534 118.978 61.6337 118.978 61.6073C118.958 60.3167 117.911 59.2763 116.619 59.2631C115.295 59.2763 114.227 60.3496 114.221 61.6732C114.26 62.9572 115.314 63.9844 116.599 63.991V64.0042ZM116.599 76.568C117.891 76.5811 118.958 75.5605 119.004 74.2699C119.057 72.9793 118.056 71.8862 116.757 71.8269C116.731 71.8269 116.698 71.8269 116.672 71.8269C115.38 71.8137 114.306 72.8212 114.247 74.1118C114.234 75.4222 115.262 76.5021 116.573 76.5548L116.599 76.568Z" fill="#1E1E1E"/>
<path d="M110.208 67.8234C110.148 67.8234 110.175 67.3822 109.687 67.0333C109.417 66.8423 109.068 66.8028 108.758 66.9213C108.257 67.1189 108.013 67.6852 108.211 68.1856C108.31 68.4358 108.508 68.6334 108.758 68.7321C109.068 68.8507 109.417 68.8111 109.687 68.6202C110.175 68.2712 110.148 67.8103 110.208 67.8234C110.267 67.8366 110.26 67.9288 110.208 68.1132C110.168 68.3897 110.03 68.6334 109.812 68.8111C109.483 69.0877 109.035 69.1667 108.626 69.0284C107.961 68.798 107.612 68.0736 107.836 67.4152C107.961 67.0464 108.257 66.7567 108.626 66.625C109.035 66.4867 109.483 66.5657 109.812 66.8423C110.03 67.0135 110.168 67.2637 110.208 67.5337C110.26 67.7181 110.228 67.8234 110.208 67.8234Z" fill="#263238"/>
<path d="M114.412 66.9871C114.3 67.0727 114.181 67.1451 114.062 67.2175L113.081 67.8102L109.832 69.7197L106.537 71.5898L105.536 72.1429C105.417 72.2154 105.292 72.2812 105.16 72.3339C105.272 72.2483 105.384 72.1693 105.509 72.0969L106.491 71.5042L109.74 69.6012L113.034 67.7311L114.036 67.1714C114.155 67.099 114.28 67.0397 114.412 66.9871Z" fill="#263238"/>
<path d="M111.552 64.3533C111.499 64.3928 111.446 64.4323 111.394 64.4652L110.919 64.7615L109.166 65.848C107.69 66.7435 105.641 67.9683 103.341 69.2655L97.4703 72.5974L95.6582 73.5588L95.1706 73.8222L94.9993 73.9078C94.9993 73.9078 95.052 73.8683 95.1574 73.8024L95.6319 73.5127L97.3978 72.4789L103.256 69.1141C105.549 67.7971 107.605 66.6053 109.101 65.7361L110.873 64.7154L111.361 64.4389L111.552 64.3533Z" fill="#263238"/>
<path d="M220.409 100.207L221.661 102.492L223.948 103.743L221.661 104.994L220.409 107.279L219.157 104.994L216.871 103.743L219.157 102.492L220.409 100.207Z" fill="#727272"/>
<path d="M228.764 68.9163L230.063 68.8307L231.11 68.0537L231.196 69.3575L231.973 70.4045L230.669 70.4901L229.621 71.2605L229.535 69.9633L228.764 68.9163Z" fill="#727272"/>
<path d="M439.533 172.824L440.831 172.739L441.879 171.962L441.965 173.265L442.742 174.312L441.438 174.398L440.39 175.168L440.304 173.871L439.533 172.824Z" fill="#727272"/>
<path d="M291.067 107.813L292.365 107.727L293.42 106.957L293.505 108.254L294.276 109.301L292.978 109.386L291.924 110.157L291.845 108.86L291.067 107.813Z" fill="#727272"/>
<path d="M298.988 52.1712L300.286 52.0856L301.334 51.3152L301.419 52.6124L302.19 53.6594L300.892 53.745L299.844 54.522L299.759 53.2182L298.988 52.1712Z" fill="#727272"/>
<path d="M259.089 86.702L261.066 85.5628L262.113 83.5413L263.253 85.5167L265.283 86.5703L263.306 87.7028L262.252 89.731L261.112 87.7555L259.089 86.702Z" fill="#727272"/>
<path d="M425.175 198.979L427.152 197.84L428.199 195.818L429.339 197.794L431.362 198.841L429.385 199.98L428.338 202.001L427.198 200.026L425.175 198.979Z" fill="#727272"/>
<path d="M415.245 162.861L417.221 161.722L418.276 159.701L419.416 161.676L421.439 162.723L419.462 163.862L418.408 165.89L417.274 163.908L415.245 162.861Z" fill="#727272"/>
</g>
<defs>
<clipPath id="clip0_408_3370">
<rect width="456" height="267" fill="white"/>
</clipPath>
</defs>
</svg>
