<svg width="315" height="200" viewBox="0 0 315 200" fill="none" xmlns="http://www.w3.org/2000/svg">
<g clip-path="url(#clip0_143_2672)">
<path d="M63.7207 45.4649C63.7207 45.4649 66.1987 50.6208 69.0888 52.2709C71.9788 53.9209 88.701 55.7767 88.701 55.7767L91.799 40.5189C91.799 40.5189 86.431 41.7554 84.1589 41.9632C81.8869 42.1689 79.4088 42.1689 79.4088 42.1689L63.7207 45.469V45.4629V45.4649Z" fill="#A1A1A1" stroke="#263238" stroke-miterlimit="10"/>
<path d="M67.6428 36.1818C67.6428 36.1818 65.5788 37.0069 64.3388 38.2434C63.1008 39.4799 63.1008 45.0493 63.7188 45.4629C64.3367 45.8764 70.7389 48.9687 71.7729 48.9687C72.807 48.9687 78.175 46.9072 79.0011 45.6686C79.8271 44.4321 81.0651 40.9242 79.8271 38.8627C78.5891 36.8011 69.0889 34.5318 67.6428 36.1818Z" fill="white" stroke="#263238" stroke-miterlimit="10"/>
<path d="M69.2948 31.0259C69.2948 31.0259 64.9587 40.5127 66.6107 43.1956C68.2628 45.8764 71.5668 46.29 74.0449 44.8457C76.5229 43.4013 77.5549 40.7205 77.9689 39.8955C78.3809 39.0705 82.9539 19.0415 82.9539 19.0415C82.9539 19.0415 84.8119 18.0107 85.8439 17.3914C86.8759 16.7721 87.9141 15.4327 87.9141 15.4327C87.9141 15.4327 90.8 14.1962 93.484 12.8548C94.9239 12.1326 92.761 11.108 92.141 11.108C91.5209 11.108 89.3539 12.0298 89.3539 12.0298V9.76042C89.3539 9.76042 84.1919 9.76042 82.1258 9.96616C80.0618 10.1719 78.2017 9.76042 76.7577 11.2027C75.3117 12.647 74.6937 19.0394 74.6937 19.0394L69.2968 31.0301V31.0239L69.2948 31.0259Z" fill="white" stroke="#263238" stroke-miterlimit="10"/>
<path d="M92.1371 11.0998C91.5171 11.0998 89.3501 12.0215 89.3501 12.0215V9.7522C89.3501 9.7522 84.188 9.7522 82.122 9.95794C80.0579 10.1637 78.1979 9.7522 76.7539 11.1945C75.3078 12.6388 74.6899 19.0312 74.6899 19.0312L74.6157 19.3007C76.2327 20.1093 79.0259 21.2141 82.5957 21.5412C82.8141 20.0002 82.9459 19.0312 82.9459 19.0312C82.9459 19.0312 84.8039 18.0004 85.8359 17.3811C86.8679 16.7618 87.9061 15.4225 87.9061 15.4225C87.9061 15.4225 90.7961 14.1859 93.476 12.8445C94.9159 12.1223 92.753 11.0978 92.133 11.0978H92.1392L92.1371 11.0998Z" fill="#595959" stroke="#263238" stroke-linecap="round" stroke-linejoin="round"/>
<path d="M76.7578 11.2027C76.7578 11.2027 78.8342 8.11448 79.5572 7.49519C80.2802 6.87591 83.4751 7.59806 83.4751 7.59806C83.4751 7.59806 86.0561 10.7891 85.3331 11.3055C84.6101 11.822 82.4431 10.5834 82.4431 10.5834L79.9651 11.0998" fill="#595959"/>
<path d="M76.7578 11.2027C76.7578 11.2027 78.8342 8.11448 79.5572 7.49519C80.2802 6.87591 83.4751 7.59806 83.4751 7.59806C83.4751 7.59806 86.0561 10.7891 85.3331 11.3055C84.6101 11.822 82.4431 10.5834 82.4431 10.5834L79.9651 11.0998" stroke="#263238" stroke-linecap="round" stroke-linejoin="round"/>
<path d="M83.4751 7.60012C83.4751 7.60012 84.9211 7.08371 85.4361 7.29151C85.9511 7.49931 87.8112 10.2768 87.9142 10.999C88.0172 11.7211 86.6762 11.6183 86.6762 11.6183L85.3331 11.3097L83.4751 7.60218V7.60012Z" fill="#595959" stroke="#263238" stroke-linecap="round" stroke-linejoin="round"/>
<path d="M85.4322 7.28946C85.4322 7.28946 86.8783 7.18659 87.4962 7.59807C88.1163 8.00956 88.8331 8.61856 89.3481 9.75837C89.8651 10.8982 87.9082 11.0011 87.9082 11.0011C87.9082 11.0011 87.1852 9.45387 86.8762 8.93951C86.5672 8.4231 85.4302 7.28946 85.4302 7.28946H85.4322Z" fill="#595959" stroke="#263238" stroke-linecap="round" stroke-linejoin="round"/>
<path d="M87.4961 7.60012C87.4961 7.60012 89.2511 7.18864 89.8711 7.80586C90.4912 8.42515 91.4202 10.0752 90.9031 10.4867C90.3861 10.8982 89.3541 9.75836 89.3541 9.75836C89.3541 9.75836 88.0172 7.49519 87.5023 7.59806H87.4961V7.60012Z" fill="#595959" stroke="#263238" stroke-linecap="round" stroke-linejoin="round"/>
<path d="M19.19 10.6595L19.7009 4.82671L2.17122 3.29599L1.66036 9.13496L7.37861 9.63285L6.33631 21.5556L0.62218 21.0577L0.111328 26.8905L17.6348 28.4192L18.1456 22.5823L12.4274 22.0823L13.4718 10.1596L19.19 10.6595Z" fill="black" stroke="#263238" stroke-miterlimit="10"/>
<path d="M19.7008 4.82671L163.236 17.2926L162.474 23.1028L19.1899 10.6595L19.7008 4.82671Z" fill="white" stroke="#263238" stroke-miterlimit="10"/>
<path d="M13.4719 10.1273L12.4297 22.05L155.714 34.5456L156.756 22.6229L13.4719 10.1273Z" fill="white" stroke="#263238" stroke-miterlimit="10"/>
<path d="M18.1437 22.5521L17.6338 28.3853L160.918 40.8809L161.428 35.0477L18.1437 22.5521Z" fill="white" stroke="#263238" stroke-miterlimit="10"/>
<path d="M20.5041 16.1652C20.4526 16.733 19.9541 17.1568 19.3855 17.1054C18.817 17.054 18.3927 16.5561 18.4442 15.9882C18.4957 15.4204 18.9942 14.9966 19.5627 15.048C20.1312 15.0994 20.5556 15.5973 20.5041 16.1652Z" stroke="#263238" stroke-miterlimit="10"/>
<path d="M30.548 17.0416C30.4965 17.6095 29.998 18.0333 29.4295 17.9819C28.861 17.9304 28.4366 17.4325 28.4881 16.8647C28.5396 16.2968 29.0381 15.873 29.6066 15.9245C30.1752 15.9759 30.5995 16.4738 30.548 17.0416Z" stroke="#263238" stroke-miterlimit="10"/>
<path d="M40.5983 17.9181C40.5468 18.4859 40.0483 18.9098 39.4798 18.8583C38.9113 18.8069 38.4869 18.309 38.5384 17.7412C38.5899 17.1733 39.0884 16.7495 39.6569 16.8009C40.2255 16.8524 40.6498 17.3503 40.5983 17.9181Z" stroke="#263238" stroke-miterlimit="10"/>
<path d="M130.747 25.7836C130.696 26.3515 130.197 26.7753 129.629 26.7239C129.06 26.6724 128.636 26.1745 128.687 25.6067C128.739 25.0388 129.237 24.615 129.806 24.6664C130.374 24.7179 130.799 25.2158 130.747 25.7836Z" stroke="#263238" stroke-miterlimit="10"/>
<path d="M140.798 26.6601C140.746 27.2279 140.248 27.6518 139.679 27.6003C139.11 27.5489 138.686 27.051 138.738 26.4831C138.789 25.9153 139.288 25.4915 139.856 25.5429C140.425 25.5943 140.849 26.0922 140.798 26.6601Z" stroke="#263238" stroke-miterlimit="10"/>
<path d="M150.841 27.5365C150.79 28.1044 150.291 28.5282 149.723 28.4768C149.154 28.4253 148.73 27.9274 148.782 27.3596C148.833 26.7918 149.332 26.3679 149.9 26.4194C150.469 26.4708 150.893 26.9687 150.841 27.5365Z" stroke="#263238" stroke-miterlimit="10"/>
<path d="M83.4461 98.7008C83.4461 98.7008 76.3456 112.463 75.3013 120.804C74.2569 129.146 72.7944 137.905 73.6328 139.779C74.4711 141.658 75.5134 144.993 76.1397 145.41C76.7659 145.828 86.5792 164.386 87.4114 165.221C88.2497 166.059 89.9182 168.556 89.9182 168.556C89.9182 168.556 89.292 170.643 89.7122 171.478C90.1304 172.315 91.801 174.605 91.801 174.605L94.726 177.733C94.726 177.733 99.1095 178.358 100.784 176.484C102.453 174.605 103.291 171.476 103.291 170.645C103.291 169.813 104.129 168.978 102.453 166.892C100.784 164.806 99.1136 163.557 99.1136 163.557C99.1136 163.557 93.8938 148.54 93.0554 145.412C92.2171 142.285 89.5042 135.821 89.5042 135.821L98.2752 115.384L104.957 103.291L83.4523 98.7008L83.4461 98.6946V98.7008Z" fill="black" stroke="#263238" stroke-miterlimit="10"/>
<path d="M91.799 174.603L93.692 179.232C93.692 179.232 95.0351 179.232 91.6795 181.804C88.324 184.376 86.0869 185.717 85.8624 186.61C85.6379 187.503 85.9778 189.406 86.3094 189.853C86.641 190.299 86.7564 191.532 91.455 191.307C96.1536 191.083 98.8376 188.627 100.634 187.063C102.424 185.499 103.989 183.487 103.989 183.487L104.327 184.604C104.327 184.604 105.337 183.487 106.117 182.479C106.904 181.471 107.798 179.683 107.798 179.012C107.798 178.342 105.114 175.214 104.443 173.535C103.771 171.857 103.289 170.643 103.289 170.643C103.289 170.643 101.756 174.091 100.531 174.877C99.3052 175.663 98.1785 176.218 98.1785 176.218C98.1785 176.218 97.1691 174.43 94.4851 174.208C91.8011 173.984 91.8072 174.609 91.8072 174.609L91.8011 174.603H91.799Z" fill="white" stroke="#263238" stroke-miterlimit="10"/>
<path d="M107.028 177.599C105.755 178.757 103.759 181.059 102.76 182.806C101.417 185.156 97.8385 188.729 93.1337 189.733C90.0933 190.386 87.4319 189.447 85.9282 188.703C86.025 189.219 86.1692 189.659 86.3072 189.849C86.6451 190.295 86.7542 191.528 91.4528 191.303C96.1514 191.079 98.8355 188.622 100.632 187.059C102.422 185.495 103.987 183.483 103.987 183.483L104.325 184.6C104.325 184.6 105.334 183.483 106.115 182.475C106.902 181.467 107.796 179.679 107.796 179.008C107.796 178.78 107.475 178.251 107.034 177.599H107.028Z" fill="white" stroke="#263238" stroke-miterlimit="10"/>
<path d="M97.4371 104.12L103.075 162.302L103.281 170.645C103.281 170.645 102.031 173.772 102.655 175.441C103.279 177.109 104.95 180.236 104.95 180.236C104.95 180.236 108.919 184.407 110.795 183.364C112.676 182.321 115.391 179.193 115.391 179.193C115.391 179.193 118.104 175.646 118.104 173.562C118.104 171.478 117.06 168.972 117.06 166.682V153.126C117.06 151.04 117.478 130.185 117.478 130.185L120.403 100.783C120.403 100.783 114.765 99.1163 112.05 99.3221C109.337 99.5278 97.4351 104.118 97.4351 104.118V104.124L97.4371 104.12Z" fill="black" stroke="#263238" stroke-miterlimit="10"/>
<path d="M102.657 175.438L103.207 179.679C103.207 179.679 101.75 183.701 100.854 185.156C99.9584 186.61 97.608 187.727 96.265 188.507C94.9219 189.293 94.6995 190.857 95.2556 192.196C95.818 193.538 96.3742 194.206 98.502 194.768C100.63 195.33 107.232 194.992 109.469 193.651C111.706 192.309 113.611 190.97 113.611 190.97V191.978C113.611 191.978 114.398 191.532 115.739 190.637C117.082 189.744 117.42 188.958 117.42 188.958C117.42 188.958 117.305 183.703 116.973 182.586C116.635 181.469 116.526 181.022 116.302 180.576C116.077 180.129 116.864 175.992 116.864 175.992C116.864 175.992 115.074 178.226 114.064 178.897C113.055 179.568 112.052 179.683 111.603 179.683C111.154 179.683 111.265 176.887 110.709 176.216C110.147 175.545 108.134 174.762 106.566 174.653C105.001 174.537 102.661 175.438 102.661 175.438H102.655H102.657Z" fill="white" stroke="#263238" stroke-miterlimit="10"/>
<path d="M114.841 187.73C113.832 188.847 110.252 191.867 103.988 192.984C100.012 193.694 96.9428 192.83 95.229 192.102C95.2414 192.137 95.2517 192.169 95.264 192.204C95.8264 193.546 96.3825 194.215 98.5104 194.776C100.638 195.338 107.24 195 109.477 193.659C111.714 192.318 113.62 190.978 113.62 190.978V191.986C113.62 191.986 114.407 191.54 115.748 190.645C117.091 189.752 117.428 188.966 117.428 188.966C117.428 188.966 117.377 186.668 117.251 184.783C116.541 185.701 115.484 187.04 114.86 187.734L114.843 187.727L114.841 187.73Z" fill="white" stroke="#263238" stroke-miterlimit="10"/>
<path d="M83.2401 91.6088L81.1514 100.369L86.9973 106.626L90.1284 102.036L92.4231 107.044C92.4231 107.044 104.113 107.461 109.127 105.583C114.14 103.704 117.686 101.83 117.686 101.83L122.069 104.957L121.231 95.3657L83.2339 91.6129L83.2401 91.6068V91.6088Z" fill="white" stroke="#263238" stroke-miterlimit="10"/>
<path d="M104.9 34.4248C104.9 34.4248 91.0242 38.4574 90.089 39.9078C89.16 41.3583 86.7726 47.2528 86.7726 53.5609C86.7726 59.8689 84.3914 77.1492 84.2884 78.7993C84.1854 80.4555 81.7012 95.1455 81.7012 95.1455C81.7012 95.1455 86.5707 96.2853 87.8108 96.9046C89.0508 97.5239 89.881 97.6268 89.881 97.6268L91.3332 95.2484L91.9532 97.9354C91.9532 97.9354 98.893 99.2809 108.628 98.6575C118.363 98.0321 121.471 96.8984 121.471 96.8984L127.167 58.9369C127.167 58.9369 130.378 50.8698 128.411 44.5556C126.444 38.2475 121.574 36.1798 118.987 35.5543C116.4 34.935 114.015 34.3116 114.015 34.3116L104.9 34.4145V34.4269V34.4248Z" fill="#5B5B5B" stroke="#263238" stroke-linecap="round" stroke-linejoin="round"/>
<path d="M101.377 35.7642L97.3398 39.1795L97.6488 44.4568L99.307 41.3501L102.003 45.074L101.377 35.7642Z" fill="white" stroke="#263238" stroke-linecap="round" stroke-linejoin="round"/>
<path d="M100.03 31.8345L101.894 43.6256L113.286 32.6595L112.247 28.8327C112.247 28.8327 107.693 32.3509 105.829 33.176C103.965 34.001 100.03 31.8304 100.03 31.8304V31.8366V31.8345Z" fill="white" stroke="#263238" stroke-linecap="round" stroke-linejoin="round"/>
<path d="M94.6498 14.1489C94.6498 14.1489 95.894 8.563 98.0692 5.97888C100.242 3.39476 106.77 2.25494 110.499 3.6005C114.227 4.94605 117.02 8.77492 117.543 11.9763C118.06 15.1838 118.163 16.2166 118.472 16.9429C118.781 17.665 119.195 18.2884 119.195 18.2884L94.3408 15.0809L94.6498 14.153V14.1468V14.1489Z" fill="white" stroke="#263238" stroke-miterlimit="10"/>
<path d="M96.1987 14.1489C96.1987 14.1489 89.2589 13.7374 90.812 14.7682C92.3673 15.8051 92.6763 16.3215 98.8889 17.3523C105.101 18.3831 112.455 20.1422 112.455 20.1422C112.455 20.1422 115.461 22.6234 118.357 21.7984C121.253 20.9734 121.776 20.0393 120.118 18.4859C118.46 16.9326 96.1925 14.1427 96.1925 14.1427L96.1987 14.1489Z" fill="#C4C4C4" stroke="#263238" stroke-miterlimit="10"/>
<path d="M105.417 5.55916C105.417 5.55916 106.243 4.00581 107.695 3.49145C109.147 2.9771 110.488 3.59432 110.488 3.59432C110.488 3.59432 104.792 -0.232484 100.753 4.52222" fill="white"/>
<path d="M105.417 5.55916C105.417 5.55916 106.243 4.00581 107.695 3.49145C109.147 2.9771 110.488 3.59432 110.488 3.59432C110.488 3.59432 104.792 -0.232484 100.753 4.52222" stroke="#263238" stroke-miterlimit="10"/>
<path d="M96.5755 16.445C96.5755 16.445 96.3057 26.1437 96.9257 28.2134C97.5457 30.2832 100.86 34.1079 101.898 34.4186C102.936 34.7272 104.801 35.2436 105.833 34.935C106.871 34.6264 110.805 31.8304 111.734 31.0054C112.663 30.1803 113.598 27.6929 113.598 27.0757C113.598 26.4585 114.01 25.2137 114.01 25.2137C114.01 25.2137 115.358 25.008 115.875 24.2858C116.392 23.5637 116.392 22.321 115.978 21.8046C115.566 21.2882 115.049 20.9795 115.049 20.9795L115.152 19.1176L96.5714 16.4532V16.447L96.5755 16.445Z" fill="white" stroke="#263238" stroke-linecap="round" stroke-linejoin="round"/>
<path d="M100.345 21.389C100.345 21.389 100.345 23.5596 100.242 24.076C100.139 24.5924 99.3132 25.4215 99.7252 25.9379C100.137 26.4544 101.28 27.0778 102.731 26.4544" stroke="#263238" stroke-linecap="round" stroke-linejoin="round"/>
<path d="M100.242 28.4192C100.242 28.4192 101.28 29.0385 103.035 28.6249C104.797 28.2134 105.829 27.3822 105.829 27.3822" stroke="#263238" stroke-linecap="round" stroke-linejoin="round"/>
<path d="M93.8172 17.1445C93.8172 17.1445 93.6113 19.7286 94.4373 21.0742C95.2633 22.4197 96.5075 22.7304 97.9597 22.5247C99.4119 22.3189 100.444 20.6627 101.688 21.1791C102.932 21.6955 102.617 23.4546 106.345 23.4546C110.074 23.4546 110.488 19.2143 110.488 19.2143L93.8131 17.1466H93.8193L93.8172 17.1445Z" stroke="#263238" stroke-linecap="round" stroke-linejoin="round"/>
<path d="M109.769 18.3872C109.769 18.3872 110.698 22.5247 111.942 22.7304C113.187 22.9362 115.051 20.9713 115.051 20.9713L115.154 19.1093L109.767 18.3872H109.769Z" fill="#020202" stroke="#263238" stroke-linecap="round" stroke-linejoin="round"/>
<path d="M104.807 20.1977C104.807 20.7697 104.492 21.2347 104.101 21.2347C103.709 21.2347 103.394 20.7697 103.394 20.1977C103.394 19.6258 103.709 19.1608 104.101 19.1608C104.492 19.1608 104.807 19.6258 104.807 20.1977Z" fill="#263238"/>
<path d="M99.4966 19.5394C99.4966 20.1113 99.1814 20.5763 98.79 20.5763C98.3987 20.5763 98.0835 20.1113 98.0835 19.5394C98.0835 18.9674 98.3987 18.5024 98.79 18.5024C99.1814 18.5024 99.4966 18.9674 99.4966 19.5394Z" fill="#263238"/>
<path d="M101.274 39.6939L102.004 45.074L115.362 34.5277L113.809 31.2152L101.274 39.6939Z" fill="white" stroke="#263238" stroke-linecap="round" stroke-linejoin="round"/>
<path d="M86.1033 63.0703C85.9076 64.9672 85.6913 66.9156 85.4771 68.7714C90.8122 69.2076 100.551 70.1643 108.721 71.8596C115.747 73.3204 121.214 75.6802 124.415 77.3015L125.309 71.3535C121.696 69.6643 116.425 67.6131 109.891 66.2552C101.419 64.4899 91.599 63.5168 86.1033 63.0703Z" fill="white" stroke="#263238" stroke-miterlimit="10"/>
<path d="M122.584 89.4773L123.445 83.7309C112.019 84.1609 90.944 82.1735 83.928 81.4678C83.687 83.0438 83.3595 85.0991 83.0278 87.1401C89.1663 87.7697 107.384 89.5185 119.887 89.5185C120.823 89.5185 121.717 89.5061 122.584 89.4835V89.4773Z" fill="white" stroke="#263238" stroke-miterlimit="10"/>
<path d="M124.075 56.0853C124.075 56.0853 127.769 53.2831 128.154 50.1044C128.539 46.9236 127.9 42.0887 123.95 39.6712C120.003 37.2538 115.036 40.9427 114.266 42.2142C113.504 43.4857 109.808 48.0634 109.808 48.0634L108.15 49.7197L106.752 49.9727L101.532 48.0655L94.9072 56.2067C94.9072 56.2067 105.479 68.29 109.3 68.4216C113.121 68.5471 119.488 61.3009 120.256 60.4059C121.018 59.5171 124.077 56.0812 124.077 56.0812V56.0874L124.075 56.0853Z" fill="#A1A1A1" stroke="#263238" stroke-miterlimit="10"/>
<path d="M106.751 49.9789C106.751 49.9789 111.467 52.0137 113.504 53.1597C115.541 54.3057 117.582 56.5976 117.582 56.5976" stroke="#263238" stroke-miterlimit="10"/>
<path d="M113.761 51.5035C113.761 51.5035 118.476 52.0137 119.749 54.174" stroke="#263238" stroke-miterlimit="10"/>
<path d="M110.83 50.7402C110.83 50.7402 112.614 49.9789 115.545 50.1044" stroke="#263238" stroke-miterlimit="10"/>
<path d="M98.4751 45.7797L83.957 30.2585L82.0475 25.296C82.0475 25.296 79.8846 22.6255 78.6054 21.4795C77.3262 20.3335 76.3107 19.4447 76.0594 20.3335L75.806 21.2223C75.806 21.2223 73.8965 20.0763 73.1323 20.0763C72.3681 20.0763 71.7336 20.3294 72.4958 21.0968C73.258 21.8642 74.154 23.3888 74.154 23.3888L74.7905 24.4093C74.7905 24.4093 72.6276 22.753 70.8438 22.3745C69.0599 21.9897 68.2978 22.7592 69.0599 23.5205C69.8221 24.2817 71.4803 25.4277 71.4803 25.4277L73.5175 27.8452C73.5175 27.8452 70.4606 26.8247 69.4389 26.5737C68.4172 26.3206 68.1659 27.7197 69.1856 28.3554C70.2073 28.9911 74.0263 30.5157 74.0263 30.5157C74.0263 30.5157 75.8102 33.822 77.594 34.7149C79.3779 35.6037 80.9043 36.8752 80.9043 36.8752L92.8763 54.5567L98.4813 45.7797H98.4751Z" fill="white" stroke="#263238" stroke-miterlimit="10"/>
<path d="M83.957 30.2585L82.0475 25.296C82.0475 25.296 79.8846 22.6255 78.6054 21.4795C77.3262 20.3335 76.3107 19.4447 76.0594 20.3335L75.806 21.2223C75.806 21.2223 73.8965 20.0763 73.1323 20.0763C72.3681 20.0763 71.7336 20.3294 72.4958 21.0968C73.258 21.8642 74.154 23.3888 74.154 23.3888L74.7905 24.4093C74.7905 24.4093 72.6276 22.753 70.8438 22.3745C69.0599 21.9897 68.2978 22.7592 69.0599 23.5205C69.8221 24.2817 71.4803 25.4277 71.4803 25.4277L73.5175 27.8452C73.5175 27.8452 70.4606 26.8247 69.4389 26.5737C68.4172 26.3206 68.1659 27.7197 69.1856 28.3554C70.2073 28.9911 74.0263 30.5157 74.0263 30.5157C74.0263 30.5157 75.8102 33.822 77.594 34.7149C79.3779 35.6037 80.9043 36.8752 80.9043 36.8752L81.3348 37.5109L86.4351 32.9044L83.9632 30.2626L83.957 30.2565V30.2585Z" fill="#666666" stroke="#263238" stroke-miterlimit="10"/>
<path d="M75.8062 21.2244C75.8062 21.2244 77.8434 23.2592 78.3522 23.6419C78.861 24.0245 79.1143 24.6623 79.1143 24.6623" stroke="#263238" stroke-miterlimit="10"/>
<path d="M74.7842 24.4093L76.4424 26.3165" stroke="#263238" stroke-miterlimit="10"/>
<path d="M98.9861 43.998L90.5776 53.4107L94.9075 58.7559L103.058 47.0512L98.9861 43.998Z" fill="white" stroke="#263238" stroke-miterlimit="10"/>
<path d="M229.89 34.7849L219.382 39.1816C219.382 39.1816 216.006 46.1603 224.732 45.6645C233.455 45.1687 229.89 34.7849 229.89 34.7849Z" fill="#263238"/>
<path d="M246.426 19.7615C247.881 18.4181 248.74 16.552 248.81 14.5748C248.919 10.1945 244.991 6.54672 240.034 6.42534C239.192 6.4027 238.352 6.48912 237.53 6.6784C237.721 5.02629 237.243 3.36595 236.203 2.06771C233.896 -0.670714 229.533 -0.53081 226.429 2.37839C224.122 4.53868 223.164 7.62893 223.77 10.1925C219.99 13.5358 217.042 19.1711 217.042 19.1711L230.827 36.7476C230.827 36.7476 234.681 35.2848 238.963 30.5404C239.27 30.7153 239.59 30.8716 239.915 31.0074C243.781 32.5752 247.924 31.0774 249.176 27.66C250.192 24.8886 248.987 21.7017 246.43 19.7595L246.426 19.7615Z" stroke="#050505" stroke-miterlimit="10"/>
<path d="M178.741 179.241L188.006 182.179L183.87 192.904L176.121 190.462L178.741 179.241Z" fill="#F1F2F2" stroke="#263238" stroke-miterlimit="10"/>
<path d="M178.741 179.247L188.012 182.185L185.693 188.19L177.274 185.528L178.741 179.247Z" fill="#F1F2F2" stroke="#263238" stroke-miterlimit="10"/>
<path d="M200.198 147.624C205.276 133.471 214.047 116.843 209.089 102.328L182.063 99.8097C182.063 99.8097 180.217 128.624 180.016 142.254C179.797 156.407 176.86 182.792 176.86 182.792L187.493 186.077C187.493 186.077 200.614 163.59 200.198 147.626V147.624Z" fill="#565656"/>
<path d="M188.23 186.715L176.05 182.987L177.049 177.356L190.816 182.284L188.23 186.715Z" fill="#263238"/>
<path opacity="0.2" d="M201.883 143.153C204.654 135.973 207.896 128.307 209.517 120.707C207.185 118.246 200.515 127.791 201.883 143.153Z" fill="black"/>
<path d="M185.267 191.493C185.33 191.283 185.211 191.061 185.001 190.997C184.962 190.984 184.921 190.978 184.879 190.98C182.144 191.153 178.03 189.112 176.496 188.295C176.141 188.108 175.727 188.067 175.342 188.18C173.006 188.843 168.483 188.301 168.483 188.301C168.483 188.301 167.185 189.633 167.018 190.906L184.241 196.179C184.459 194.593 184.803 193.025 185.269 191.495L185.267 191.493Z" fill="#263238"/>
<path d="M221.611 181.598L231.35 181.689L232.51 193.157L224.373 193.089L221.611 181.598Z" fill="#F1F2F2" stroke="#263238" stroke-miterlimit="10"/>
<path d="M233.046 191.371C233.023 191.13 232.809 190.954 232.568 190.976C232.533 190.98 232.5 190.986 232.467 190.997C229.991 191.96 225.399 191.221 223.657 190.888C223.257 190.797 222.837 190.879 222.503 191.118C220.581 192.437 216.919 193.245 216.919 193.245C216.919 193.245 216.227 194.9 216.55 196.167H233.859C233.466 194.591 233.194 192.988 233.046 191.373V191.371Z" fill="#263238"/>
<path opacity="0.2" d="M221.611 181.603L231.356 181.695L232.001 188.116L223.156 188.04L221.611 181.603Z" fill="black"/>
<path d="M232.866 145.013C234.02 130.426 235.752 111.374 230.979 104.194L199.165 101.347C199.165 101.347 208.166 130.858 210.97 144.69C213.856 159.041 221.932 185.555 221.932 185.555L232.456 185.584C232.456 185.584 236.397 162.088 232.866 145.011V145.013Z" fill="#565656"/>
<path d="M233.612 185.96H220.952L219.504 180.699L233.456 180.924L233.612 185.96Z" fill="#263238"/>
<path d="M207.134 57.1387C205.772 57.3692 204.543 57.5543 203.245 57.7148C201.947 57.8753 200.689 58.0152 199.401 58.1469C196.834 58.3835 194.249 58.5728 191.635 58.6489C190.327 58.6921 189.011 58.7127 187.682 58.7127C186.354 58.7127 185.011 58.6551 183.643 58.581C182.275 58.5069 180.885 58.3958 179.453 58.1942C177.919 57.9987 176.4 57.6984 174.907 57.2951L174.376 57.1449C173.617 56.9289 172.923 56.5339 172.351 55.9928C170.868 54.569 169.487 53.0445 168.219 51.4294C166.978 49.9192 165.883 48.3638 164.791 46.8187L163.227 44.4609C162.721 43.6647 162.228 42.8582 161.744 42.0578C160.78 40.4325 159.864 38.8194 159.021 37.0789C158.174 35.3424 158.895 33.2479 160.634 32.4023C161.853 31.8078 163.306 31.9723 164.362 32.82L164.426 32.8653C165.839 34.0174 167.219 35.2107 168.587 36.3917L172.627 39.9593L174.612 41.6875L176.586 43.4157C177.877 44.5164 179.206 45.5884 180.359 46.4072L177.803 45.1275C178.742 45.2612 179.688 45.3374 180.636 45.3518C181.68 45.3518 182.782 45.3929 183.9 45.3518C185.019 45.3106 186.179 45.2653 187.363 45.1913C188.548 45.1172 189.67 45.0411 190.871 44.9444C193.226 44.7304 195.609 44.5123 197.992 44.2408L205.088 43.4342H205.21C209.004 42.9652 212.463 45.6583 212.932 49.4481C213.39 53.1453 210.833 56.5421 207.148 57.1264L207.132 57.1387H207.134Z" fill="#F1F2F2"/>
<path d="M165.197 34.647L162.352 37.5973C158.463 39.4408 156.957 34.0359 156.957 34.0359L155.186 31.7316C154.593 30.849 154.726 29.668 155.503 28.9418L157.47 26.8679C158.259 25.9276 159.652 25.7857 160.616 26.5449L162.474 28.2731C163.011 28.7792 163.417 29.4088 163.656 30.1063L165.197 34.647Z" fill="#F1F2F2"/>
<path d="M208.31 42.8479C201.762 42.1442 182.599 44.2654 182.599 44.2654C179.136 48.1375 178.059 55.2603 180.712 59.0007C180.712 59.0007 196.048 61.6219 202.102 59.7496C209.412 57.4844 221.564 44.2654 208.31 42.8458V42.8479Z" fill="#7C7C7C"/>
<path d="M184.377 44.1276C184.482 43.8272 184.323 43.498 184.022 43.3931C183.987 43.3808 183.952 43.3725 183.915 43.3664C181.666 42.9117 180.539 43.0619 179.767 43.9136C178.994 44.7675 175.429 54.7892 178.008 58.8217C178.036 58.867 178.071 58.9102 178.111 58.9493C178.902 59.7105 180.869 59.8936 181.833 60.3545C182.113 60.5067 182.463 60.4059 182.616 60.1261C182.665 60.0356 182.69 59.9327 182.686 59.8299C182.634 57.0914 182.644 49.0243 184.377 44.1255V44.1276Z" fill="#3A3A3A"/>
<path d="M208.31 42.8479C217.275 44.0474 226.077 46.2385 234.558 49.3782C239.446 51.2566 242.284 55.2212 239.266 65.4158C233.151 86.099 236.063 98.0341 232.638 105.496C232.638 105.496 187.281 111.214 180.518 101.11C180.092 75.0548 193.91 53.9868 200.073 46.2241C202.04 43.7388 205.165 42.459 208.313 42.8479H208.31Z" fill="#7C7C7C"/>
<path opacity="0.2" d="M216.746 78.2273C224.334 76.3119 230.986 71.7444 235.493 65.352L214.935 67.467L216.748 78.2273H216.746Z" fill="black"/>
<path d="M231.245 48.1787C228.038 49.3308 217.248 81.0275 222.314 94.8081C227.379 108.587 233.744 102.098 233.744 102.098C233.744 102.098 233.462 106.264 232.456 107.354C229.768 107.165 223.554 137.01 223.755 160.063C217.454 162.257 210.618 162.388 204.236 160.444L203.913 162.559C203.913 162.559 197.313 165.567 183.942 160.543C183.878 159.775 183.942 158.3 183.942 158.3C183.942 158.3 183.654 159.868 172.438 154.617C172.565 148.791 173.908 110.944 179.616 102.75C178.527 98.9744 176.992 89.6913 180.065 81.2991C183.141 72.9089 196.221 45.7303 211.032 43.2285C211.584 43.1071 212.162 43.2018 212.646 43.4939C203.451 46.469 196.244 53.672 193.271 62.8584C202.504 67.9464 219.691 67.5658 219.691 67.5658C219.691 67.5658 223.926 53.8098 229.875 47.7302C230.38 47.5985 230.916 47.7754 231.243 48.1787H231.245Z" fill="#0A0A0A"/>
<path d="M213.596 107.093C199.834 107.093 186.916 104.978 180.442 103.4C180.283 103.363 180.183 103.204 180.22 103.046C180.257 102.888 180.415 102.787 180.574 102.824C189.903 105.099 212.642 108.488 231.927 105.009C232.083 104.984 232.232 105.089 232.261 105.245C232.289 105.402 232.186 105.55 232.03 105.579C225.941 106.624 219.774 107.13 213.596 107.095V107.093Z" fill="white"/>
<path d="M179.357 131.039C179.272 131.048 179.188 131.048 179.103 131.039C178.434 130.908 177.902 130.268 177.523 129.132C175.752 123.818 177.523 108.829 182.428 103.441C182.506 103.353 182.63 103.322 182.739 103.361C182.848 103.402 182.922 103.503 182.929 103.62C182.97 104.564 183.909 126.828 181.377 129.79C180.656 130.615 179.975 131.041 179.359 131.041L179.357 131.039ZM182.387 104.35C178.059 109.957 176.438 124.007 178.071 128.906C178.286 129.539 178.648 130.323 179.225 130.432C179.674 130.519 180.275 130.157 180.955 129.373C182.791 127.223 182.704 112.494 182.387 104.35Z" fill="white"/>
<path d="M182.076 127.466C181.641 127.461 181.227 127.284 180.922 126.976C177.933 124.122 179 107.381 182.428 103.435C182.527 103.322 182.698 103.311 182.811 103.41C182.852 103.447 182.883 103.497 182.896 103.55C183.081 104.35 187.464 123.207 183.975 126.499C183.489 127.052 182.809 127.398 182.076 127.468V127.466ZM182.508 104.235C179.554 108.679 178.613 124.019 181.303 126.589C181.528 126.797 182.197 127.443 183.61 126.106C186.548 123.328 183.219 107.445 182.508 104.235Z" fill="white"/>
<path d="M210.924 45.0884C212.193 44.3786 213.077 45.2263 213.959 43.889C214.488 42.7903 214.618 41.5414 214.327 40.3564L227.945 37.1632C226.526 41.4674 225.418 44.8683 226.884 47.1212C226.567 50.5262 219.961 53.8469 211.946 51.2936C206.24 49.4728 209.108 46.1007 210.924 45.0864V45.0884Z" fill="#F1F2F2" stroke="#263238" stroke-miterlimit="10"/>
<path opacity="0.2" d="M214.403 40.7719L224.421 40.9674C221.04 44.0515 216.222 44.9321 214.167 43.4116C214.469 42.566 214.55 41.6587 214.403 40.7719Z" fill="black"/>
<path d="M216.7 18.6547C212.805 19.6278 210.238 23.8414 212.304 27.6909C214.37 31.5403 218.253 30.4231 221.364 28.0242L222.569 21.9733C222.569 21.9733 220.589 17.6794 216.7 18.6547Z" fill="#263238"/>
<path d="M212.667 26.1396C211.011 27.2917 210.585 29.7874 212.276 31.2234C213.967 32.6575 215.588 31.4086 216.614 29.6968L216.037 26.6189C216.037 26.6189 214.33 24.9524 212.667 26.1416V26.1396Z" fill="#263238"/>
<path d="M231.062 30.5836C229.024 36.6283 227.519 40.6979 223.244 42.3335C214.758 45.5945 211.398 41.1011 211.577 34.5482C211.744 28.6537 215.04 19.7492 221.72 18.988C226.55 18.4283 230.921 21.8848 231.482 26.7095C231.634 28.0159 231.49 29.3388 231.062 30.5836Z" fill="#F1F2F2" stroke="#263238" stroke-miterlimit="10"/>
<path d="M230.588 34.0071C227.269 32.6472 227.172 27.8472 228.083 25.9729C224.385 25.5408 221.304 23.8579 221.16 22.1811C217.507 23.6213 213.468 23.6213 212.558 19.3459C211.645 15.0706 213.272 11.2767 217.248 11.8549C221.224 12.4309 224.004 16.6795 224.004 16.6795C224.004 16.6795 227.65 12.8815 231.504 16.3915C233.354 18.0436 234.248 20.5146 233.882 22.967C233.882 22.967 237.54 23.6233 237.869 28.0098C238.199 32.3962 234.65 33.2706 234.65 33.2706C234.65 33.2706 236.883 39.0334 231.504 41.5517C225.539 44.358 227.051 37.2805 227.051 37.2805L230.588 34.0071Z" fill="#263238"/>
<path d="M227.352 29.8985C225.69 31.0794 225.263 33.5401 226.955 34.9762C228.646 36.4123 230.273 35.1655 231.293 33.4557L230.716 30.3778C230.716 30.3778 229.008 28.7113 227.352 29.9005V29.8985Z" fill="#263238"/>
<path d="M235.492 36.8361C233.525 36.8361 232.763 35.3259 232.712 34.0113C232.677 33.0998 232.988 32.1102 233.647 32.0814C235.004 32.0876 236.263 32.7933 236.976 33.9495C237.439 34.538 237.554 35.328 237.276 36.0234C237.087 36.3752 236.648 36.8073 235.608 36.8361H235.492ZM233.676 32.6513C233.544 32.6513 233.26 33.1698 233.288 33.9886C233.334 35.0955 233.935 36.26 235.499 36.26H235.591C236.036 36.295 236.471 36.1037 236.745 35.7539C236.914 35.2416 236.807 34.6779 236.463 34.2623C235.861 33.2829 234.802 32.678 233.653 32.6554H233.676V32.6513Z" fill="#263238"/>
<path d="M216.117 24.3311C215.689 24.3311 215.263 24.2755 214.849 24.1644C213.489 23.7427 212.397 22.7242 211.882 21.3972C210.729 18.8563 210.607 16.3421 211.594 14.6777C212.348 13.4741 213.664 12.7375 215.085 12.719C215.244 12.7087 215.382 12.826 215.397 12.9844C215.403 13.1428 215.283 13.2766 215.125 13.2889C213.885 13.3115 212.741 13.9637 212.09 15.0171C211.203 16.5149 211.318 18.8316 212.408 21.2059C212.855 22.3745 213.81 23.2756 215.003 23.6542C216.612 24.1027 218.742 23.5102 220.997 21.9836C221.131 21.8972 221.31 21.9321 221.401 22.0638C221.488 22.1955 221.453 22.3745 221.321 22.4609C219.463 23.6645 217.662 24.329 216.115 24.329L216.117 24.3311Z" fill="#263238"/>
<path opacity="0.2" d="M223.069 29.7359C223.796 29.5014 224.587 29.5672 225.267 29.9149C224.53 29.9972 223.784 29.9355 223.069 29.7359Z" fill="black"/>
<path opacity="0.2" d="M223.063 30.2606C223.758 30.1927 224.446 30.4293 224.95 30.9128C224.281 30.8367 223.638 30.6145 223.063 30.2606Z" fill="black"/>
<path d="M231.776 37.6714C230.697 38.8544 229.189 39.556 227.587 39.626C225.457 39.7 225.562 38.0068 226.559 36.26C227.453 34.6861 228.952 32.4168 230.893 33.1718C232.831 33.9269 233.084 36.2086 231.776 37.6735V37.6714Z" fill="#F1F2F2" stroke="#263238" stroke-miterlimit="10"/>
<path d="M220.288 29.2689C220.15 29.7709 219.776 30.1042 219.452 30.0116C219.129 29.919 218.968 29.4356 219.1 28.9397C219.232 28.4439 219.607 28.1106 219.936 28.197C220.266 28.2834 220.42 28.7669 220.288 29.2689Z" fill="#263238"/>
<path d="M214.82 27.7608C214.688 28.2628 214.313 28.5899 213.983 28.5035C213.654 28.4171 213.499 27.9275 213.637 27.4316C213.775 26.9358 214.144 26.5963 214.474 26.6889C214.803 26.7815 214.941 27.2588 214.82 27.7608Z" fill="#263238"/>
<path d="M217.409 28.3184L216.435 32.6801C215.43 33.0402 214.307 32.7912 213.549 32.0403C214.715 29.7236 217.409 28.3184 217.409 28.3184Z" fill="#263238"/>
<path d="M222.723 28.197C222.773 28.2114 222.824 28.2114 222.874 28.197C223.03 28.1414 223.11 27.9707 223.057 27.8143C223.057 27.8122 223.055 27.8081 223.053 27.8061C222.725 26.8761 221.969 26.1601 221.022 25.8803C220.871 25.8021 220.688 25.8618 220.61 26.0099C220.531 26.1581 220.591 26.3432 220.739 26.4214C220.787 26.4461 220.84 26.4585 220.894 26.4564C221.638 26.6889 222.227 27.2609 222.48 27.9954C222.519 28.1023 222.612 28.1785 222.723 28.197Z" fill="#263238"/>
<path d="M213.087 25.4729C213.178 25.5182 213.285 25.5182 213.375 25.4729C214.028 25.0553 214.842 24.9771 215.563 25.2652C215.713 25.3392 215.899 25.2775 215.973 25.1273C216.043 24.9751 215.979 24.794 215.829 24.7179C214.926 24.3331 213.892 24.4175 213.064 24.9421C212.92 25.0285 212.873 25.2158 212.959 25.3618C212.99 25.4092 213.035 25.4462 213.087 25.4709V25.4729Z" fill="#263238"/>
<path d="M229.06 66.7531C228.672 66.8848 228.425 66.9712 228.114 67.0699L227.243 67.3518C226.666 67.5308 226.089 67.6913 225.513 67.8538C224.359 68.183 223.205 68.4299 222.05 68.7179C220.896 69.006 219.708 69.2014 218.525 69.4092C217.343 69.617 216.148 69.8001 214.937 69.9339C213.726 70.0655 212.508 70.1869 211.268 70.263C210.028 70.3392 208.776 70.3556 207.501 70.333C204.829 70.3186 202.166 70.012 199.562 69.4174L199.037 69.2961C198.757 69.2261 198.483 69.1273 198.223 69.0018C196.921 68.364 195.729 67.5246 194.686 66.5185C193.792 65.6503 193.001 64.6833 192.326 63.6361C191.189 61.8544 190.297 59.9265 189.673 57.9082C189.384 56.968 189.141 56.036 188.933 55.1122C188.725 54.1905 188.593 53.2626 188.465 52.3449C188.338 51.4294 188.27 50.5118 188.218 49.5962C188.218 49.1354 188.183 48.6807 188.177 48.2198C188.171 47.759 188.177 47.3207 188.177 46.7734C188.231 44.8642 189.823 43.3602 191.734 43.4137C192.956 43.4487 194.068 44.1214 194.662 45.1872L194.956 45.7118C195.107 45.9834 195.273 46.3805 195.44 46.72L195.943 47.7754C196.266 48.4791 196.618 49.1703 196.971 49.8493C197.628 51.1619 198.359 52.4355 199.162 53.6638C199.55 54.2398 199.925 54.8159 200.316 55.2891C200.676 55.7356 201.062 56.1594 201.47 56.5627C201.91 57.0647 202.504 57.4062 203.161 57.5358L201.828 57.1264C203.591 57.2725 205.363 57.2725 207.124 57.1264C208.065 57.0564 209.027 56.9412 210.01 56.8096C210.99 56.6779 211.961 56.5339 212.941 56.361C214.902 55.9989 216.9 55.5936 218.884 55.1101C219.877 54.8797 220.87 54.6143 221.856 54.3674L224.689 53.6061L224.932 53.5424C228.625 52.5527 232.421 54.7418 233.412 58.4308C234.347 61.9161 232.444 65.533 229.039 66.7387L229.062 66.751L229.06 66.7531Z" fill="#F1F2F2"/>
<path d="M237.149 66.6996C229.245 75.9498 207.896 72.3061 207.896 72.3061C204.081 69.9729 203.857 60.9923 205.375 56.3713C205.375 56.3713 222.909 49.5139 230.335 49.0819C237.206 48.6786 241.685 61.3976 237.149 66.6996Z" fill="#7C7C7C"/>
<path d="M194.855 47.4339L190.972 48.7527C186.673 48.6025 187.823 43.1112 187.823 43.1112L187.303 40.2288C187.184 39.1733 187.845 38.1858 188.867 37.8957L191.574 36.9554C192.704 36.4822 194.006 36.9925 194.511 38.1076L195.366 40.4983C195.615 41.1937 195.687 41.9406 195.574 42.671L194.859 47.4318L194.855 47.4339Z" fill="#F1F2F2"/>
<path d="M215.87 33.7479C215.022 33.5689 215.04 34.9474 215.685 35.2683C216.181 35.5214 219.799 36.4205 221.916 38.3689C220.894 36.6695 217.982 34.1841 215.868 33.7479H215.87Z" fill="#263238"/>
<path d="M214.686 33.8055C214.618 34.0339 214.572 34.2664 214.548 34.503C214.496 34.7396 214.261 34.8877 214.025 34.8363C214.018 34.8363 214.012 34.8342 214.004 34.8322C212.44 34.5565 210.83 34.7272 209.359 35.328C210.727 34.2293 212.381 33.5442 214.125 33.3508C214.472 33.3159 214.766 33.5298 214.686 33.8055Z" fill="#263238"/>
<path d="M214.161 37.0336C213.324 37.225 212.447 37.1427 211.662 36.797C210.243 38.1158 212.626 40.0992 211.691 41.9838C214.577 42.3747 216.105 42.243 217.432 41.3665C218.348 40.7329 218.818 39.6301 218.637 38.5314C217.444 38.4059 216.299 37.9965 215.296 37.3381C214.98 37.0748 214.564 36.9637 214.159 37.0336H214.161Z" fill="#263238"/>
<path d="M214.035 35.9082C213.771 35.8321 213.513 35.7313 213.266 35.6078C213.196 35.577 213.163 35.4967 213.192 35.4268C213.192 35.4247 213.194 35.4206 213.196 35.4185C213.231 35.3465 213.318 35.3177 213.39 35.3527C213.39 35.3527 213.39 35.3527 213.392 35.3527C214.486 35.9185 215.785 35.9308 216.888 35.3815C216.955 35.3404 217.046 35.363 217.087 35.4309C217.129 35.4988 217.106 35.5893 217.038 35.6305C216.109 36.1078 215.032 36.2065 214.033 35.9061L214.035 35.9082Z" fill="#263238"/>
<path d="M137.912 5.12916C137.912 3.00796 138.235 1.67063 139.065 0.853836L139.475 1.26326C138.771 1.97719 138.466 3.17049 138.495 5.11887L137.912 5.13122V5.12916Z" fill="#414042"/>
<path d="M147.605 18.8727C143.232 15.945 140.186 12.6079 138.789 9.22549L139.327 9.0074C140.676 12.2808 143.648 15.5315 147.925 18.3954L147.607 18.8727H147.605Z" fill="#414042"/>
<path d="M139.932 5.10036C139.772 -5.80398 150.699 15.2887 164.812 22.0041C176.271 27.4625 189.928 19.6998 200.983 18.9777C214.871 18.0909 194.954 28.6599 174.32 26.0079C154.986 23.5307 140.064 13.9514 139.932 5.10036Z" fill="#414042"/>
<path d="M207.394 55.9804C207.419 55.6636 207.182 55.3858 206.865 55.3611C206.823 55.357 206.782 55.3591 206.743 55.3653C204.436 55.5093 203.408 55.9413 202.883 57.0071C202.306 58.1592 201.781 68.2283 205.318 71.5531L205.449 71.6518C206.619 72.2011 207.862 72.59 209.137 72.804C209.444 72.8863 209.761 72.7031 209.843 72.3945C209.874 72.2814 209.868 72.1641 209.829 72.053C209.085 69.3393 207 61.3277 207.394 55.9804Z" fill="#3A3A3A"/>
<path d="M259.47 102.68C259.47 102.118 259.47 88.4671 260.735 81.5727C261.999 74.6762 265.524 53.709 266.935 50.6105C268.346 47.5121 268.723 46.9895 269.359 46.362C269.998 45.7344 274.379 58.0666 273.978 58.4925C273.576 58.9184 270.222 80.3773 270.222 80.3773L265.382 102.68H259.468H259.47Z" fill="#C6C6C6"/>
<path d="M251.988 113.903C251.667 114.329 249.533 140.672 249.533 140.672L261.346 151.013L269.073 151.124L270.886 122.433L259.338 113.572L251.988 113.903Z" fill="#565656"/>
<path d="M258.314 116.265C258.314 116.265 258.279 112.504 260.362 111.586L260.959 112.66C260.959 112.66 260.141 113.889 260.211 116.267C260.211 116.267 259.031 116.905 258.314 116.267V116.265Z" fill="#2B2B2B"/>
<path d="M259.599 102.157C259.599 102.394 259.152 105.531 259.027 107.042C258.901 108.552 258.087 111.465 258.38 112.278C258.67 113.09 261 115.823 261.698 116C262.137 116.102 262.594 116.102 263.033 116L263.902 115.825L263.095 114.607L262.592 113.327L263.21 110.63C263.21 110.63 262.965 113.714 263.902 114.352C264.84 114.989 265.237 114.712 265.097 113.93C264.957 113.148 265.293 110.34 265.128 108.829C264.963 107.319 264.199 105.982 264.436 104.698C264.673 103.414 264.782 102.141 264.782 102.141L259.601 102.161L259.599 102.157Z" fill="#E8E8E8" stroke="#263238" stroke-miterlimit="10"/>
<path d="M262.988 111.586C262.988 111.586 265.74 113.973 264.926 119.791C264.926 119.791 263.316 120.514 262.988 119.791C262.988 119.791 263.76 114.998 262.446 113.574L262.988 111.588V111.586Z" fill="#2B2B2B"/>
<path d="M270.885 122.433C270.721 122.472 270.552 122.493 270.383 122.499L268.912 122.594L263.785 122.849H263.74L263.705 122.818L260.693 120.551C258.279 118.74 256.104 117.09 254.538 115.886L252.69 114.452C252.458 114.284 252.237 114.096 252.033 113.895C252.287 114.043 252.526 114.21 252.752 114.397L254.649 115.765C256.246 116.929 258.439 118.559 260.85 120.369L263.861 122.647L263.785 122.622L268.912 122.462L270.389 122.437C270.554 122.421 270.721 122.419 270.885 122.433Z" fill="black"/>
<path d="M263.46 122.795C263.53 122.795 263.138 129.144 262.58 136.967C262.022 144.789 261.515 151.128 261.441 151.124C261.367 151.12 261.762 144.775 262.321 136.946C262.879 129.118 263.386 122.789 263.46 122.793V122.795Z" fill="black"/>
<path d="M262.456 133.074C262.277 133.01 262.108 132.924 261.954 132.813C261.622 132.632 261.155 132.356 260.588 131.996C259.111 131.056 257.688 130.033 256.326 128.937C254.963 127.84 253.663 126.669 252.431 125.427C251.959 124.925 251.588 124.548 251.341 124.268C251.201 124.133 251.078 123.978 250.975 123.812C251.137 123.923 251.286 124.052 251.417 124.198L252.563 125.297C253.531 126.215 254.903 127.459 256.495 128.737C258.087 130.017 259.587 131.095 260.693 131.846L262.009 132.733C262.172 132.831 262.323 132.944 262.461 133.074H262.456Z" fill="black"/>
<path d="M267.979 95.2916C267.913 95.2669 282.952 106.323 282.952 106.323L303.127 92.5717L301.048 88.5597C301.048 88.5597 288.812 92.9729 283.475 91.8639C278.138 90.755 270.832 88.5597 270.832 88.5597L267.981 95.2895L267.979 95.2916Z" fill="#455A64"/>
<path d="M287.979 186.293V186.896C287.979 186.896 277.817 191.083 277.727 193.019L297.981 192.719L297.604 185.993C294.591 187.485 291.079 187.594 287.979 186.293Z" fill="#0C0C0C"/>
<path d="M297.986 192.719L297.895 191.104L278.524 191.982C278.524 191.982 277.63 192.383 277.741 193.021L297.986 192.721V192.719Z" fill="#5B5B5B"/>
<path d="M287.912 186.95C287.912 187.051 288.415 187.086 288.916 187.396C289.416 187.707 289.674 188.118 289.764 188.077C289.855 188.036 289.698 187.47 289.097 187.104C288.495 186.738 287.888 186.853 287.912 186.948V186.95Z" fill="white"/>
<path d="M285.799 187.859C285.799 187.96 286.211 188.12 286.553 188.532C286.895 188.943 287 189.384 287.095 189.38C287.189 189.375 287.251 188.814 286.814 188.312C286.378 187.81 285.801 187.771 285.801 187.861L285.799 187.859Z" fill="white"/>
<path d="M284.629 190.417C284.72 190.417 284.849 189.915 284.588 189.415C284.326 188.913 283.861 188.672 283.819 188.752C283.778 188.832 284.071 189.122 284.277 189.565C284.483 190.007 284.549 190.412 284.629 190.417Z" fill="white"/>
<path d="M268.049 95.0426C268.049 95.0426 264.465 107.62 270.55 123.668C276.635 139.715 280.089 152.558 280.301 156.018C280.511 159.479 281.304 161.594 284.499 172.544C286.843 180.537 288.36 186.394 288.36 186.394C290.489 187.538 293.009 187.709 295.272 186.861C295.272 186.861 295.332 168.12 291.808 155.267C288.283 142.415 285.873 122.355 287.078 115.103C288.283 107.85 285.673 103.723 285.673 103.723L268.049 95.0426Z" fill="#E8E8E8" stroke="#263238" stroke-miterlimit="10"/>
<path d="M305.838 110.442C308.182 99.1493 301.87 90.3373 301.87 90.3373L283.103 105.614C283.103 105.614 279.131 151.319 281.475 157.267C283.819 163.215 295.272 187.668 295.272 187.668L301.99 185.351C301.99 185.351 300.383 167.559 297.631 160.818C296.1 157.072 293.112 155.222 294.502 150.527C295.892 145.834 303.922 119.684 305.833 110.442H305.838Z" fill="#E8E8E8" stroke="#263238" stroke-miterlimit="10"/>
<path d="M302.177 183.757C302.177 183.757 297.157 188.836 294.405 186.038L293.903 187.567L292.014 198.319C291.878 199.025 292.298 199.718 292.988 199.924C293.511 200.07 294.074 199.909 294.438 199.508C296.342 197.377 303.306 189.478 303.139 188.54L302.863 185.968C302.803 185.438 302.286 184.168 302.286 184.053L302.175 183.757H302.177Z" fill="#0C0C0C"/>
<path d="M293.246 199.969L303.057 187.643L303.112 188.205C303.183 188.674 303.034 189.147 302.711 189.493C301.942 190.737 299.749 193.554 294.482 199.523C294.17 199.87 293.709 200.045 293.246 199.99V199.969Z" fill="#5B5B5B"/>
<path d="M295.831 193.877C295.464 193.488 295.027 193.176 294.541 192.955C294.022 192.807 293.482 192.756 292.945 192.805C292.945 192.774 293.095 192.655 293.412 192.585C293.826 192.499 294.257 192.532 294.652 192.68C295.05 192.822 295.4 193.077 295.656 193.412C295.827 193.684 295.866 193.879 295.831 193.879V193.877Z" fill="white"/>
<path d="M295.021 195.758C294.611 195.577 294.191 195.422 293.76 195.297C293.313 195.254 292.864 195.239 292.415 195.251C292.37 195.186 293.002 194.846 293.82 195.011C294.638 195.175 295.091 195.712 295.021 195.758Z" fill="white"/>
<path d="M297.431 191.449C296.822 191.122 296.189 190.842 295.538 190.612C294.434 190.291 293.485 190.427 293.47 190.336C294.166 190.085 294.929 190.085 295.625 190.336C296.809 190.657 297.493 191.404 297.431 191.449Z" fill="white"/>
<path d="M281.133 148.029C281.148 148.169 281.148 148.311 281.133 148.451C281.133 148.752 281.133 149.153 281.109 149.655C281.069 151.126 281.115 152.597 281.244 154.064C281.434 156.237 282.019 158.356 282.971 160.318C283.498 161.438 284.106 162.58 284.697 163.793C285.29 165.007 285.863 166.301 286.419 167.589C287.554 170.202 288.718 172.655 289.758 174.901C290.798 177.148 291.721 179.169 292.448 180.895C293.175 182.621 293.723 184.028 294.075 185.018C294.257 185.52 294.376 185.896 294.463 186.156C294.514 186.287 294.553 186.423 294.578 186.561C294.51 186.437 294.452 186.308 294.407 186.174L293.97 185.055C293.589 184.082 293.017 182.683 292.263 180.973C291.509 179.263 290.576 177.247 289.517 175.011C288.458 172.774 287.288 170.322 286.153 167.698C285.591 166.384 285.033 165.121 284.441 163.913C283.85 162.705 283.251 161.555 282.73 160.432C281.774 158.44 281.197 156.286 281.032 154.082C280.921 152.607 280.907 151.126 280.987 149.649C281.022 149.147 281.047 148.745 281.067 148.445C281.078 148.305 281.098 148.165 281.133 148.029Z" fill="#2B2B2B"/>
<path d="M270.993 81.8834C270.993 81.8834 262.803 100.188 265.47 112.339C268.136 124.491 277.521 150.198 277.521 150.198L295.948 151.126C295.948 151.126 304.027 124.762 305.683 117.108C307.877 107.002 308.425 97.7255 301.953 84.5662L300.552 80.5543L270.993 81.8834Z" fill="black"/>
<path d="M280.532 150.06C280.526 150.013 280.526 149.966 280.532 149.92V149.519C280.532 149.138 280.563 148.616 280.587 147.96C280.647 146.581 280.738 144.635 280.849 142.238C281.094 137.384 281.436 130.704 281.813 123.361C282.174 116.841 282.511 110.823 282.763 106.27V106.34L278.857 100.503L277.802 98.8941L277.531 98.4724C277.498 98.425 277.471 98.3757 277.45 98.3222C277.45 98.3222 277.491 98.3613 277.561 98.4518L277.858 98.8571L278.962 100.427L282.954 106.208L282.979 106.239V106.278C282.742 110.856 282.437 116.839 282.099 123.373C281.687 130.731 281.317 137.415 281.045 142.244C280.894 144.641 280.773 146.587 280.688 147.962C280.643 148.618 280.608 149.134 280.577 149.517C280.577 149.682 280.577 149.813 280.542 149.922C280.546 149.968 280.542 150.013 280.532 150.058V150.06Z" fill="#999999"/>
<path d="M304.874 44.1399C306.116 45.1254 307.063 46.434 307.609 47.9215C309.502 52.6515 314.137 68.6582 314.242 69.7219C314.392 71.2856 315.426 75.0836 314.8 77.104C314.172 79.1244 308.388 80.725 308.388 80.725L305.586 73.6187L306.589 72.4953L300.906 58.0831V50.2957L304.874 44.142V44.1399Z" fill="#C6C6C6"/>
<path d="M312.802 71.2959C312.802 71.337 312.415 71.195 311.799 71.0963C310.983 70.9687 310.153 70.9975 309.35 71.1806C308.548 71.3679 307.792 71.7094 307.121 72.1826C306.618 72.5488 306.332 72.8451 306.297 72.8142C306.474 72.5077 306.715 72.2423 307.005 72.0365C308.359 70.942 310.139 70.5264 311.836 70.9091C312.184 70.9667 312.514 71.0984 312.804 71.2959H312.802Z" fill="#263238"/>
<path d="M278.981 40.9201C278.558 41.025 269.089 44.6563 268.562 47.0676C268.034 49.4789 272.02 57.7292 272.02 57.7292C272.02 57.7292 269.771 62.8501 272.02 66.4753C272.02 66.4753 269.509 80.7024 269.132 84.5292C269.077 84.9036 269.077 85.2843 269.132 85.6567C270.135 86.529 302.818 86.4632 303.135 85.8377C303.452 85.2123 300.469 65.8272 300.89 64.1484C301.312 62.4675 300.89 58.0707 300.89 58.0707C300.89 58.0707 305.298 44.4444 304.875 44.1296C304.453 43.8128 292.73 39.9428 292.73 39.9428L290.883 39.5869L281.488 40.4201L278.977 40.9221L278.981 40.9201Z" fill="#333333"/>
<path d="M269.485 81.7969C269.485 81.7969 301.152 81.692 301.267 81.9327C301.382 82.1735 302.004 85.3522 302.004 85.3522L269.108 84.4387L269.485 81.7949V81.7969Z" fill="white"/>
<path d="M270.288 76.5773C270.288 76.5773 300.791 76.6678 300.916 76.9085C301.042 77.1492 301.384 79.4556 301.384 79.4556L269.792 79.6716L270.288 76.5773Z" fill="white"/>
<path d="M277.438 41.5229L278.981 40.9304L280.728 38.9141L291.699 37.8319L293.103 39.6774L295.765 40.809L285.778 55.5483L277.438 41.5229Z" fill="#E0E0E0"/>
<path d="M287.871 49.2958L313.725 88.0865C313.725 88.0865 313.921 94.5262 307.57 93.1004L279.282 54.8365L287.874 49.2958H287.871Z" fill="white"/>
<path d="M287.871 49.2958L287.721 49.4008L287.288 49.6867L285.612 50.7895L279.321 54.8858V54.7809C285.422 63.0106 295.604 76.7563 307.137 92.3124L307.64 93.0037L307.564 92.9585C307.961 93.014 308.353 93.0942 308.744 93.1333H309.653L309.939 93.0942C310.709 93.0243 311.439 92.7095 312.017 92.1972C312.576 91.6767 312.99 91.0224 313.222 90.2962C313.463 89.5802 313.589 88.8292 313.593 88.0741V88.14L295.242 60.4779L289.828 52.2894C289.196 51.3306 288.708 50.5838 288.372 50.0735L287.995 49.4975L287.869 49.2917C287.869 49.2917 287.915 49.3473 287.999 49.4728L288.38 50.0303L289.847 52.2009L295.31 60.3298L313.826 88.0124L313.851 88.0433V88.0844C313.851 88.8683 313.721 89.6481 313.47 90.3908C313.222 91.1582 312.782 91.8495 312.188 92.3968C311.574 92.9482 310.798 93.2876 309.974 93.3597L309.667 93.4049H308.744C308.342 93.3658 307.941 93.2856 307.535 93.2197H307.49L307.459 93.1745L306.956 92.4832L279.23 54.8714L279.181 54.8056L279.251 54.7645L285.622 50.7134L287.305 49.6497L287.737 49.3843L287.867 49.2999L287.871 49.2958Z" fill="#263238"/>
<path d="M270.395 76.1452C270.399 75.8963 270.424 75.6473 270.472 75.4025C270.552 74.9005 270.653 74.2092 270.778 73.3965C271.059 71.6312 271.452 69.2281 271.893 66.4856V66.5658C271.458 65.7264 271.157 64.8253 270.999 63.8933C270.694 61.7885 271.009 59.6385 271.907 57.7107V57.8115C271.149 56.1018 270.507 54.6678 270.045 53.6185C269.835 53.1165 269.668 52.7461 269.543 52.4396C269.475 52.3017 269.421 52.1577 269.382 52.0075C269.472 52.131 269.547 52.2668 269.602 52.4087L270.169 53.5629C270.671 54.606 271.324 56.0257 272.117 57.7148V57.7601L272.093 57.8156C271.242 59.7002 270.949 61.7885 271.244 63.8336C271.394 64.7368 271.683 65.6133 272.097 66.4321V66.4979C271.619 69.2364 271.199 71.6333 270.892 73.3944L270.515 75.4004C270.492 75.6514 270.451 75.9024 270.395 76.1473V76.1452Z" fill="#263238"/>
<path d="M300.379 59.585C300.408 59.192 300.484 58.8032 300.605 58.4267C300.787 57.7189 301.077 56.7519 301.464 55.7026C301.852 54.6554 302.258 53.7316 302.579 53.0753C302.727 52.707 302.923 52.3593 303.162 52.0425C303.057 52.4231 302.917 52.7955 302.746 53.1514C302.47 53.8242 302.093 54.7562 301.712 55.7952C301.331 56.8342 301.009 57.8012 300.789 58.4781C300.694 58.8608 300.558 59.2332 300.383 59.5871L300.379 59.585Z" fill="#263238"/>
<path d="M285.327 55.2906C287.699 53.7678 288.729 51.1488 287.63 49.4408C286.531 47.7329 283.717 47.5828 281.346 49.1056C278.975 50.6284 277.944 53.2475 279.043 54.9554C280.143 56.6634 282.956 56.8134 285.327 55.2906Z" fill="#E0E0E0"/>
<path d="M287.871 49.2958C287.638 49.0201 287.375 48.7753 287.082 48.5634C286.233 48.0634 285.23 47.8844 284.26 48.0614C282.818 48.2959 281.49 48.9852 280.47 50.0262C279.868 50.6332 279.415 51.3697 279.145 52.1783C278.558 53.6185 279.253 55.2582 280.694 55.8446C281.001 55.9681 281.327 56.038 281.656 56.0504C282.507 56.1388 283.366 56.0298 284.167 55.7335C285.539 55.2336 286.715 54.3098 287.527 53.0959C288.085 52.2853 288.335 51.3018 288.225 50.3225C288.151 49.9768 288.036 49.6394 287.883 49.3205C287.945 49.3925 287.999 49.4728 288.044 49.5571C288.174 49.7978 288.269 50.0571 288.324 50.3246C288.477 51.3347 288.248 52.3635 287.682 53.2132C286.866 54.4805 285.661 55.4516 284.248 55.9763C283.411 56.2911 282.515 56.4104 281.628 56.3219C279.934 56.2479 278.622 54.818 278.696 53.1268C278.711 52.7791 278.785 52.4375 278.917 52.1145C279.201 51.271 279.679 50.5035 280.313 49.8781C281.374 48.8062 282.761 48.1087 284.254 47.8968C285.261 47.7281 286.295 47.9441 287.15 48.5037C287.373 48.6642 287.568 48.8576 287.733 49.0757C287.787 49.1436 287.834 49.2177 287.873 49.2958H287.871Z" fill="#263238"/>
<path d="M311.953 92.4544C311.894 92.4935 305.928 84.1794 298.659 73.8985C291.39 63.6176 285.515 55.1924 285.554 55.1533C285.593 55.1142 291.579 63.4283 298.848 73.7092C306.118 83.9902 312.013 92.4091 311.953 92.4544Z" fill="#263238"/>
<path d="M283.811 86.4467C283.735 86.4467 283.836 80.9308 284.032 74.1042C284.227 67.2798 284.444 61.7679 284.534 61.7721C284.625 61.7762 284.509 67.288 284.314 74.1145C284.118 80.939 283.881 86.4467 283.811 86.4467Z" fill="#4C4C4C"/>
<path d="M285.579 44.179C285.432 44.537 285.239 44.8744 285.006 45.181C284.46 45.9855 283.836 46.7344 283.138 47.4133L283.033 47.5141L282.948 47.3927C282.641 46.9668 282.316 46.4998 281.984 46.0081C281.096 44.6996 280.338 43.5001 279.815 42.5886C279.51 42.1113 279.246 41.6073 279.032 41.0847C279.378 41.5229 279.693 41.9858 279.976 42.4693C280.538 43.3375 281.31 44.535 282.2 45.8394C282.532 46.3414 282.853 46.792 283.154 47.224H282.963C283.657 46.5615 284.299 45.8455 284.88 45.0822C285.09 44.7654 285.323 44.463 285.579 44.179Z" fill="#263238"/>
<path d="M293.194 40.3193C292.883 40.8234 292.537 41.3069 292.16 41.7636C291.493 42.636 290.557 43.8293 289.513 45.1337L287.921 47.115L287.83 47.2302L287.735 47.1191C287.068 46.3208 286.51 45.6439 286.124 45.1584C285.904 44.9156 285.71 44.6522 285.542 44.3704C285.795 44.5782 286.026 44.8127 286.23 45.0678C286.652 45.5246 287.233 46.1809 287.917 46.9627H287.735L289.311 44.9567C290.355 43.6482 291.319 42.4487 292.012 41.6319C292.37 41.1649 292.766 40.7246 293.192 40.3172L293.194 40.3193Z" fill="#263238"/>
<path d="M292.22 74.3758C291.82 74.0652 291.748 73.487 292.059 73.0879C292.22 72.8821 292.461 72.7546 292.722 72.7361C292.957 72.7278 293.192 72.7381 293.425 72.771C294.795 72.9418 297.919 73.773 298.888 73.6125C299.856 73.452 300.686 73.1414 301.158 72.3493C301.629 71.5572 299.747 68.7426 299.957 67.3744C300.167 66.0062 301.005 66.3725 301.232 66.6934C301.458 67.0144 302.698 69.2014 303.24 70.0079C303.782 70.8144 306.289 73.629 307.181 73.8944C308.075 74.1598 308.631 74.2956 308.631 74.2956C309.62 74.6371 310.373 75.4498 310.639 76.4621C311.02 78.1265 309.58 80.0029 308.295 79.972C307.01 79.9412 297.555 80.3938 297.044 80.0523C296.533 79.7107 295.468 79.0503 295.297 78.0463C295.297 78.0463 293.072 77.0793 293.027 76.351C293.027 76.351 293.077 75.0013 293.058 74.847C292.753 74.7379 292.471 74.5795 292.22 74.3758Z" fill="#F1F2F2" stroke="#263238" stroke-miterlimit="10"/>
<path d="M298.22 75.8592C297.297 75.8592 296.379 75.7317 295.489 75.4889C294.58 75.3325 293.697 75.0527 292.862 74.6556C293.769 74.7996 294.665 74.9951 295.548 75.2379C296.451 75.3942 297.343 75.602 298.22 75.8592Z" fill="#2D2D2D"/>
<path d="M299.611 77.9105C299.289 77.9804 298.958 77.9989 298.632 77.9599C297.048 77.894 295.487 77.5422 294.028 76.9209C293.715 76.8139 293.421 76.6575 293.159 76.4538C293.194 76.3839 294.556 76.9949 296.338 77.392C298.119 77.7891 299.611 77.8282 299.611 77.9084V77.9105Z" fill="#2D2D2D"/>
<path d="M299.806 78.9783C299.013 79.0441 298.216 78.9824 297.441 78.7972C296.655 78.6944 295.888 78.468 295.171 78.1245C295.952 78.215 296.727 78.3528 297.491 78.5359C298.269 78.6367 299.044 78.7849 299.806 78.9762V78.9783Z" fill="#2D2D2D"/>
<path d="M300.494 27.6003C299.314 26.4317 297.361 25.8803 295.975 26.7671L291.291 31.4251C291.284 34.4104 293.701 36.8361 296.692 36.8443C299.68 36.8505 302.109 34.4371 302.117 31.4498C302.121 30.0034 301.545 28.6167 300.515 27.5983H300.494V27.6003Z" fill="black"/>
<path d="M298.883 19.2451C298.541 18.5909 297.979 18.0806 297.297 17.8008C290.483 15.1179 282.606 15.2928 275.487 17.1939C273.635 17.6959 271.652 18.418 270.768 19.9776V20.0825C270.387 21.0845 270.949 22.4197 271.812 23.1563C272.745 23.8599 273.825 24.3455 274.97 24.5759C280.392 25.9791 286.176 25.6581 291.756 24.8969C293.066 24.757 294.358 24.4833 295.612 24.0842C296.844 23.6974 297.946 22.9793 298.795 22.0082C299.425 21.2059 299.46 20.0866 298.885 19.2451H298.883Z" fill="#FF725E"/>
<path d="M298.883 19.2451C298.541 18.5909 297.979 18.0806 297.297 17.8008C290.483 15.1179 282.606 15.2928 275.487 17.1939C273.635 17.6959 271.652 18.418 270.768 19.9776V20.0825C270.387 21.0845 270.949 22.4197 271.812 23.1563C272.745 23.8599 273.825 24.3455 274.97 24.5759C280.392 25.9791 286.176 25.6581 291.756 24.8969C293.066 24.757 294.358 24.4833 295.612 24.0842C296.844 23.6974 297.946 22.9793 298.795 22.0082C299.425 21.2059 299.46 20.0866 298.885 19.2451H298.883Z" fill="#545454"/>
<path d="M295.093 14.6365C292.626 11.4722 288.852 9.59581 284.835 9.53614C282.505 9.49499 281.541 9.9826 279.865 10.4332C278.184 10.8344 276.701 11.8158 275.673 13.2004C274.482 14.8854 273.483 16.7762 273.263 18.8213C272.968 20.9199 272.865 23.0431 272.956 25.1602C273.052 27.2876 273.738 29.345 274.933 31.1082L280.316 32.0464C283.284 32.1472 286.296 32.2419 289.188 31.5444C292.08 30.8469 294.896 29.3121 296.449 26.7794C298.607 23.2797 297.703 17.8481 295.093 14.6324V14.6365Z" fill="black"/>
<path d="M290.302 14.6015L283.131 11.754L281.259 11.9701C277.042 11.9701 274.134 16.6281 274.109 20.0393C274.078 23.8311 274.19 28.4541 274.791 31.2481C276.006 36.8649 280.816 37.3319 280.816 37.3319C280.752 38.0129 280.726 38.698 280.736 39.3832L285.496 44.3971L291.703 38.2598L292.205 16.5149C292.158 15.4841 291.334 14.6571 290.302 14.6036V14.6015Z" fill="#F1F2F2" stroke="#263238" stroke-miterlimit="10"/>
<path d="M283.228 29.9334C283.119 29.2648 282.487 28.8101 281.815 28.9191C281.642 28.9479 281.475 29.0138 281.331 29.1105C280.859 29.4705 280.622 30.0589 280.709 30.6453C280.96 30.993 281.348 31.2173 281.774 31.2625C282.174 31.3119 282.575 31.1843 282.874 30.9169C283.138 30.6618 283.269 30.2997 283.23 29.9334H283.228Z" fill="#F1F2F2" stroke="#263238" stroke-miterlimit="10"/>
<path d="M276.735 24.4154C276.752 24.8105 277.083 25.1191 277.479 25.1067C277.862 25.117 278.181 24.8166 278.192 24.436C278.192 24.4298 278.192 24.4216 278.192 24.4154C278.177 24.0204 277.85 23.7097 277.454 23.718C277.067 23.7097 276.746 24.0163 276.737 24.4051C276.737 24.4093 276.737 24.4113 276.737 24.4154H276.735Z" fill="#263238"/>
<path d="M275.394 21.9342C275.489 22.0247 276.016 21.5885 276.799 21.5433C277.582 21.498 278.175 21.8642 278.256 21.7634C278.336 21.6626 278.196 21.5536 277.934 21.3828C277.584 21.1688 277.174 21.0659 276.764 21.0927C276.356 21.1133 275.967 21.2614 275.65 21.5186C275.419 21.7202 275.349 21.8951 275.394 21.9342Z" fill="#263238"/>
<path d="M280.427 28.0612C280.006 27.9562 279.574 27.9048 279.141 27.9048C278.942 27.9048 278.75 27.8637 278.709 27.7299C278.68 27.5262 278.715 27.3164 278.81 27.1333C278.97 26.6313 279.135 26.1313 279.312 25.5779C280.011 23.3723 280.507 21.5659 280.423 21.5309C280.338 21.4959 279.689 23.2715 278.987 25.4771C278.822 26.0243 278.661 26.5407 278.484 27.0366C278.375 27.2855 278.354 27.5653 278.425 27.8287C278.492 27.9665 278.62 28.0674 278.771 28.1003C278.882 28.127 278.997 28.1373 279.112 28.1311C279.551 28.1661 279.994 28.1414 280.429 28.0612H280.427Z" fill="#263238"/>
<path d="M280.793 37.3237C283.465 37.2229 286.056 36.3855 288.279 34.9021C288.279 34.9021 286.472 38.9141 280.748 38.7186L280.793 37.3237Z" fill="black"/>
<path d="M282.757 28.4788C282.631 28.4788 282.676 29.3265 281.978 29.9828C281.28 30.6391 280.375 30.5795 280.375 30.7009C280.375 30.8222 280.586 30.8572 280.969 30.8469C281.467 30.8243 281.941 30.6288 282.31 30.2955C282.664 29.9725 282.878 29.524 282.907 29.0467C282.922 28.6763 282.816 28.4706 282.757 28.4809V28.4788Z" fill="#263238"/>
<path d="M275.66 19.1958C275.8 19.3809 276.393 19.1958 277.096 19.241C277.798 19.2863 278.392 19.4118 278.538 19.241C278.598 19.1505 278.513 18.9694 278.262 18.7946C277.555 18.3502 276.659 18.3399 275.942 18.7637C275.687 18.9242 275.6 19.1052 275.662 19.1958H275.66Z" fill="#263238"/>
<path d="M285.482 24.0842C285.494 24.4792 285.187 24.8104 284.794 24.831C284.411 24.8681 284.069 24.5882 284.032 24.2035C284.032 24.1994 284.032 24.1932 284.032 24.1891C284.019 23.7941 284.326 23.4628 284.72 23.4423C285.101 23.4032 285.441 23.6789 285.48 24.0595C285.48 24.0677 285.48 24.0759 285.482 24.0842Z" fill="#263238"/>
<path d="M285.984 21.6317C285.9 21.7264 285.338 21.3252 284.553 21.3458C283.77 21.3663 283.202 21.7614 283.117 21.6667C283.033 21.5721 283.162 21.4507 283.408 21.2655C283.743 21.0248 284.145 20.8931 284.557 20.889C284.965 20.8808 285.366 21.0022 285.702 21.2347C285.943 21.4157 286.054 21.5865 285.984 21.6317Z" fill="#263238"/>
<path d="M285.517 19.1258C285.367 19.3068 284.753 19.1258 284.011 19.1258C283.27 19.1258 282.67 19.2719 282.505 19.0846C282.439 18.9941 282.536 18.8131 282.802 18.6444C283.181 18.4283 283.614 18.3275 284.048 18.3543C284.47 18.3481 284.887 18.4654 285.243 18.6896C285.494 18.8542 285.585 19.0414 285.519 19.1258H285.517Z" fill="#263238"/>
<path d="M291.227 26.0408C291.202 25.619 291.639 24.5965 292.051 24.5121C293.155 24.2755 295.17 24.257 295.345 27.0798C295.582 30.9416 291.649 30.384 291.639 30.275C291.629 30.1659 291.303 27.5016 291.227 26.0428V26.0408Z" fill="#F1F2F2" stroke="#263238" stroke-miterlimit="10"/>
<path d="M292.617 28.7936C292.617 28.7936 292.687 28.8389 292.803 28.8841C292.963 28.9479 293.143 28.9479 293.305 28.8841C293.707 28.7093 294.008 28.0427 293.983 27.3452C293.973 27.014 293.888 26.6868 293.738 26.3926C293.654 26.1457 293.452 25.9585 293.2 25.8906C293.038 25.8597 292.875 25.9482 292.813 26.1005C292.768 26.2116 292.813 26.2856 292.778 26.2959C292.743 26.3062 292.694 26.2362 292.712 26.0758C292.727 25.9791 292.774 25.8885 292.848 25.8248C292.949 25.7363 293.081 25.691 293.215 25.6993C293.542 25.7445 293.822 25.9544 293.958 26.2568C294.144 26.5819 294.245 26.9461 294.255 27.3205C294.28 28.0982 293.923 28.8245 293.375 29.0446C293.169 29.1187 292.941 29.0961 292.753 28.985C292.628 28.8841 292.582 28.8039 292.617 28.7936Z" fill="#2D2D2D"/>
<path d="M292.21 24.5204L291.206 25.5223C286.963 21.4713 278.653 11.3158 279.156 11.9228C281.09 11.2006 283.173 10.9743 285.216 11.2664C288.37 11.8034 294.35 13.3774 294.253 17.0931C294.156 20.8088 292.21 24.5204 292.21 24.5204Z" fill="black"/>
<path d="M297.441 23.6686C297.435 23.5925 297.417 23.5184 297.386 23.4484C297.318 23.2386 297.231 23.0328 297.13 22.8374C296.739 22.1255 296.199 21.5083 295.548 21.0227C294.586 20.3212 293.509 19.7945 292.366 19.4632C290.977 19.0764 289.61 18.6217 288.269 18.0991C286.942 17.5375 285.69 16.8215 284.534 15.9635C283.587 15.2599 282.703 14.474 281.898 13.6119C281.36 13.0276 280.857 12.4104 280.392 11.7664L280.011 11.2356C279.974 11.1697 279.926 11.108 279.871 11.0545C279.899 11.1245 279.937 11.1924 279.982 11.2561C280.058 11.3816 280.173 11.5771 280.328 11.8137C280.785 12.4783 281.29 13.1119 281.834 13.7086C282.631 14.5953 283.51 15.3998 284.464 16.1158C285.63 16.9881 286.895 17.7165 288.236 18.2864C289.581 18.811 290.953 19.2595 292.347 19.636C293.476 19.9549 294.543 20.4652 295.501 21.14C296.15 21.6009 296.696 22.1934 297.097 22.8806C297.343 23.3723 297.429 23.683 297.443 23.6727L297.441 23.6686Z" fill="#434444"/>
<path d="M296.343 24.2755C296.356 23.9875 296.306 23.6994 296.197 23.434C295.917 22.6995 295.421 22.0679 294.776 21.6194C293.82 20.9878 292.745 20.5578 291.618 20.3561C290.267 20.0825 288.953 19.6566 287.696 19.0867C286.435 18.5024 285.255 17.7597 284.182 16.8811C283.306 16.161 282.501 15.3566 281.782 14.4781C281.3 13.8794 280.855 13.2539 280.447 12.6017L280.126 12.0606C280.093 11.9968 280.052 11.9351 280.004 11.8795C280.025 11.9495 280.054 12.0174 280.089 12.0812C280.169 12.2273 280.264 12.4124 280.379 12.6429C280.765 13.3136 281.197 13.9555 281.675 14.5645C282.386 15.4656 283.189 16.2886 284.071 17.021C285.138 17.9181 286.32 18.6732 287.585 19.2636C288.85 19.8418 290.18 20.2677 291.546 20.5331C292.654 20.7265 293.713 21.1338 294.665 21.7325C295.297 22.1625 295.793 22.7654 296.096 23.467C296.203 23.7303 296.286 24.0019 296.341 24.2796L296.343 24.2755Z" fill="#434444"/>
<path d="M273.176 19.5825C275.345 18.4263 277.749 17.7761 280.205 17.6815C291.211 17.4264 297.547 20.6606 297.547 20.6606C297.44 19.7368 297.273 18.8192 297.044 17.9181C297.044 17.9181 281.48 15.9121 281.375 15.9121C281.27 15.9121 276.464 16.7742 276.355 16.8153C276.245 16.8565 273.393 17.3173 273.393 17.3173L273.176 19.5846V19.5825Z" fill="#383838"/>
<path d="M270.68 20.1627C270.68 20.1627 272.091 16.9881 284.567 17.0025C296.702 17.0025 299.283 20.4528 299.283 20.4528C299.211 19.0188 298.352 17.7432 297.048 17.1383C296.861 14.0131 295.582 11.0525 293.433 8.77284C292.158 7.46844 289.894 6.37595 289.416 6.03441L289.326 5.31226C289.326 5.31226 288.452 4.43374 284.38 4.4646C280.172 4.49958 279.36 5.74432 279.36 5.74432L279.284 6.41709C275.281 8.5383 272.731 12.6408 272.602 17.1651C272.602 17.1651 270.367 18.6197 270.678 20.1648L270.68 20.1627Z" fill="#7C7C7C"/>
<g opacity="0.3">
<path d="M279.854 8.57328C279.809 7.60423 279.64 6.64548 279.352 5.71964L279.275 6.39241C279.642 8.20912 279.854 10.0546 279.908 11.9084C279.928 10.7809 279.928 9.66166 279.852 8.57328H279.854Z" fill="black"/>
</g>
<g opacity="0.3">
<path d="M289.328 5.28345C288.675 6.04469 287.55 7.35939 287.375 8.44365C287.223 9.54231 287.165 10.6513 287.2 11.7582C287.793 8.10212 288.345 7.5713 289.425 6.03646L289.33 5.28345H289.328Z" fill="black"/>
</g>
<path d="M297.05 17.1383C296.964 17.1342 296.879 17.1157 296.799 17.0889L296.097 16.8935C295.796 16.803 295.423 16.698 294.986 16.5972C294.55 16.4964 294.057 16.3524 293.48 16.2516C290.603 15.6487 287.678 15.3031 284.738 15.2187C281.811 15.083 278.88 15.3134 276.013 15.9059C275.471 16.052 274.979 16.1816 274.552 16.3215C274.126 16.4614 273.774 16.6075 273.487 16.733L272.84 17.0643C272.764 17.1054 272.686 17.1383 272.604 17.1651C272.604 17.1651 272.674 17.1054 272.814 17.019L273.442 16.6425C273.722 16.4964 274.089 16.3627 274.507 16.1816C274.923 16.0006 275.426 15.8812 275.967 15.731C278.853 15.0747 281.817 14.8155 284.773 14.9595C287.729 15.0418 290.669 15.4142 293.55 16.0726C294.103 16.1878 294.595 16.3442 295.027 16.4594C295.402 16.554 295.771 16.6672 296.132 16.8009L296.82 17.0416C296.9 17.0684 296.976 17.1033 297.05 17.1424V17.1383Z" fill="#263238"/>
<path d="M289.328 5.31432C289.163 5.6147 288.961 5.89451 288.73 6.14757C288.191 6.74628 287.779 7.44786 287.515 8.20911C287.293 8.98887 287.188 9.79538 287.204 10.606C287.231 10.9393 287.231 11.2747 287.204 11.608C287.085 11.287 287.021 10.9475 287.019 10.606C286.951 9.77275 287.033 8.93332 287.264 8.12887C287.534 7.33265 287.987 6.61049 288.59 6.02207C288.803 5.75255 289.052 5.51594 289.328 5.31432Z" fill="#263238"/>
<path d="M279.98 11.6985C279.904 11.6985 279.889 10.3447 279.714 8.69055C279.539 7.03639 279.292 5.6826 279.362 5.6826C279.706 6.6393 279.912 7.64127 279.974 8.65558C280.122 9.66371 280.124 10.6904 279.978 11.7006L279.98 11.6985Z" fill="#263238"/>
<g opacity="0.3">
<path d="M279.1 7.75648C279.119 7.59189 279.08 7.4273 278.989 7.28945C278.868 7.17629 278.699 7.12897 278.538 7.16395C278.38 7.20715 278.231 7.28328 278.101 7.38409C275.213 9.37567 273.362 12.5482 273.051 16.0397C273.044 16.1549 273.133 16.2557 273.25 16.2619C273.294 16.2639 273.337 16.2536 273.372 16.231C274.698 15.4965 276.13 14.9678 277.615 14.6612C278.118 14.5563 278.81 14.5768 279.012 14.0954C279.113 13.8012 279.154 13.4926 279.133 13.1819L279.103 7.75648H279.1Z" fill="white"/>
</g>
</g>
<defs>
<clipPath id="clip0_143_2672">
<rect width="315" height="200" fill="white"/>
</clipPath>
</defs>
</svg>
