<svg width="49" height="48" viewBox="0 0 49 48" fill="none" xmlns="http://www.w3.org/2000/svg">
<path d="M21.3165 11.9747C21.6672 13.0465 21.7958 14.088 21.1093 15.065C20.7333 15.6185 20.1707 16.0273 19.5183 16.2211C17.9855 16.6872 16.733 16.0512 15.7378 14.2855C15.096 14.4725 14.553 14.8214 14.293 15.4219C13.9139 16.2935 13.6241 17.1994 13.2734 18.1514H15.0811C15.8759 18.1514 16.0289 18.2515 16.3065 18.9862C16.9578 20.6756 17.6172 22.3623 18.2482 24.0596C18.3674 24.3796 18.519 24.4731 18.8643 24.4704C20.6679 24.452 22.4728 24.4625 24.3089 24.4625V26.0294H18.538C18.3416 27.0552 18.1494 28.0506 17.9625 29.0487C17.6727 30.598 17.3857 32.1487 17.1013 33.7007C17.0616 33.9268 17.0421 34.1559 17.0431 34.3854C17.0431 37.2936 17.0431 40.2023 17.0431 43.1113C17.0431 43.825 16.9158 43.9949 16.2307 44.2227C15.9748 44.3083 15.7202 44.3938 15.4643 44.4755C14.7155 44.7112 14.5733 44.9219 14.6437 45.7488C16.0194 45.7488 17.4006 45.7685 18.7803 45.7382C19.238 45.7277 19.475 45.3577 19.4763 44.8165C19.4763 43.2549 19.4763 41.6932 19.4763 40.1329C19.4763 38.1776 19.4655 36.2209 19.4872 34.2656C19.4976 33.9257 19.5791 33.5915 19.7268 33.2833C20.1601 32.3747 20.6489 31.4925 21.0944 30.5906C21.3029 30.1705 21.6062 29.9664 22.091 29.9862C22.546 30.006 23.0036 29.9862 23.4586 29.9862C24.0259 30.002 24.3861 30.3022 24.3306 30.8486C24.0408 33.7455 25.0428 36.4224 25.7144 39.1572C26.0313 40.4502 26.3738 41.7367 26.7002 43.0271C26.8654 43.6854 26.7002 43.9712 26.0502 44.1924C25.7632 44.2916 25.4757 44.3864 25.1877 44.4768C24.4443 44.7112 24.2967 44.9337 24.3753 45.7514C25.6332 45.7514 26.8965 45.7711 28.1585 45.7409C28.6256 45.729 28.9167 45.2905 28.8599 44.8191C28.8423 44.6756 28.8125 44.5321 28.7786 44.3267L30.2979 44.0475C30.9153 45.675 29.8158 47.2946 28.0948 47.3249C26.6054 47.3525 25.1159 47.3367 23.6346 47.3249C23.0321 47.3249 22.7328 47.026 22.7179 46.4453C22.7071 46.0674 22.7098 45.6895 22.7179 45.3116C22.7199 44.8162 22.8815 44.3338 23.18 43.9323C23.4785 43.5308 23.8989 43.2303 24.382 43.0732L24.9832 42.8585C24.6867 41.6906 24.3983 40.5477 24.1045 39.4048C23.6834 37.7654 23.2325 36.1327 22.8466 34.4855C22.7206 33.9509 22.745 33.3807 22.7206 32.8251C22.7017 32.4169 22.7206 32.0061 22.7206 31.4214C22.5013 31.6176 22.351 31.6979 22.2846 31.8164C21.9082 32.5143 21.5413 33.2174 21.2014 33.9311C21.1251 34.1286 21.0919 34.3393 21.1039 34.55C21.0985 37.9357 21.0985 41.321 21.1039 44.7059C21.1039 46.3768 20.1209 47.3275 18.3958 47.3288C16.9425 47.3288 15.4896 47.3288 14.0371 47.3288C13.2734 47.3288 12.9972 47.0655 12.9959 46.3229C12.9959 45.8791 12.9525 45.4275 13.0243 44.9943C13.1949 43.9541 13.8367 43.272 14.8793 43.0047C15.3221 42.8915 15.4426 42.6926 15.4386 42.2555C15.4142 39.7537 15.3505 37.2519 15.4562 34.7633C15.5171 33.282 15.8407 31.8085 16.0885 30.3391C16.3525 28.7682 16.668 27.2053 16.9551 25.6384C16.9946 25.4978 16.9979 25.3499 16.9646 25.2078C16.4934 23.945 16.0059 22.6876 15.4751 21.3076C15.1637 22.2043 14.8902 22.9838 14.6221 23.766C13.9017 25.8727 12.5517 26.8208 10.281 26.8208H5.0652C5.91689 27.8294 5.65692 28.9433 5.68806 30.0468H4.03341V28.0717L1.65299 28.5036V47.2906H0.0159515V46.764C0.0159515 40.7505 -0.0151886 34.7356 0.0443895 28.7248C0.0552219 27.6042 -0.0246696 26.4863 0.00782757 25.3658C0.0525111 23.8871 1.04774 22.9483 2.55073 22.864C4.51951 22.7468 6.47747 22.523 8.44355 22.3373C8.4922 22.3241 8.5421 22.3157 8.59249 22.3123C9.74749 22.4334 10.1903 21.8146 10.5098 20.8165C11.0826 19.0336 11.8409 17.3074 12.4678 15.5404C12.9471 14.1894 13.8218 13.2611 15.1989 12.7621C15.4182 12.6831 15.6308 12.5817 15.8908 12.4724C15.7419 12.4065 15.6376 12.3578 15.532 12.3131C14.1197 11.7153 13.1638 10.6829 13.0622 9.19899C12.9403 7.43589 12.9078 5.64382 13.115 3.88862C13.3967 1.50534 15.7337 -0.168223 18.1846 0.0134853C20.7004 0.200461 22.6529 2.14527 22.7139 4.56147C22.7477 5.9572 22.7287 7.35557 22.7139 8.7513C22.6941 9.05785 22.6557 9.36299 22.5988 9.66511C23.3638 9.66511 24.137 9.58479 24.8817 9.69145C25.4666 9.77572 26.0218 10.0786 26.5824 10.305C28.2654 10.9845 29.9391 11.6823 31.6235 12.3565C33.5638 13.1334 34.7689 14.5028 35.2266 16.4963C35.5164 17.7577 35.8183 19.0165 36.127 20.3319L34.5455 20.6716C34.2449 19.3931 33.943 18.1699 33.6735 16.9361C33.3472 15.4376 32.4806 14.3948 31.0169 13.8194C30.2044 13.4994 29.392 13.161 28.539 12.8174C28.3074 13.3441 28.0799 13.8707 27.8322 14.4383C28.8761 14.8622 29.8714 15.2994 30.8923 15.6707C31.4759 15.8827 31.7738 16.2369 31.9322 16.815C32.3885 18.4793 32.8909 20.1305 33.3946 21.8514L31.8632 22.3031C31.7535 21.9594 31.6465 21.6447 31.5504 21.3129C31.1767 20.0528 30.8124 18.7887 30.4306 17.5299C30.3832 17.3719 30.2857 17.1586 30.1598 17.1033C28.4889 16.4054 26.8071 15.7326 25.0049 15.0031C25.8728 17.5931 26.7069 20.0765 27.5627 22.627L26.0299 23.1181C25.7862 22.3979 25.556 21.7171 25.3272 21.0351C24.6285 18.9625 23.9307 16.8891 23.2338 14.8148C22.9833 14.0656 23.139 13.8154 23.8661 13.4665C24.4362 13.1926 24.9494 13.19 25.491 13.4849C25.7667 13.6143 26.0492 13.7294 26.3373 13.8299C26.5688 13.2953 26.795 12.7765 27.0509 12.1866C26.1166 11.8311 25.2432 11.4374 24.3306 11.1807C23.9244 11.0687 23.4207 11.1728 22.9968 11.2926C22.4254 11.4638 21.8987 11.7416 21.3165 11.9747ZM16.8034 1.68968C16.8237 1.8806 16.8224 1.93065 16.8346 1.97673C17.364 4.00976 16.7059 5.5477 14.8482 6.66823C14.7814 6.7176 14.7259 6.78 14.6854 6.85143C14.6448 6.92285 14.62 7.00173 14.6126 7.083C14.5842 7.6097 14.595 8.13639 14.6031 8.66308C14.599 8.97637 14.659 9.28733 14.7798 9.57781C14.9006 9.86828 15.0796 10.1325 15.3065 10.3549C15.5334 10.5774 15.8035 10.7537 16.1012 10.8735C16.3989 10.9934 16.7182 11.0544 17.0404 11.0529C17.582 11.0635 18.1236 11.0635 18.6653 11.0529C20.0491 11.0279 21.0741 10.018 21.1025 8.66176C21.1107 8.18642 21.0863 7.70845 21.1107 7.23443C21.1256 6.92368 21.0389 6.74856 20.7329 6.58397C19.6388 5.99671 18.9293 5.08816 18.76 3.87677C18.6653 3.19602 18.7424 2.49289 18.7424 1.69363L16.8034 1.68968ZM14.2944 19.7289C13.8421 19.7289 13.482 19.7513 13.1353 19.7223C12.8131 19.6973 12.6668 19.8131 12.5531 20.1081C12.1794 21.0746 11.7596 22.0226 11.3764 22.9865C11.2072 23.4144 10.9309 23.6448 10.4475 23.6896C7.78277 23.9424 5.14915 24.5099 2.45865 24.4691C2.35587 24.4594 2.25213 24.4706 2.1541 24.5022C2.05606 24.5338 1.9659 24.5849 1.8894 24.6524C1.81289 24.7198 1.75174 24.8021 1.70986 24.8939C1.66798 24.9857 1.64631 25.085 1.64623 25.1854C1.60696 25.7187 1.63675 26.2572 1.63675 26.7865C2.75654 26.9064 3.0436 26.7734 3.23994 26.0716C3.43628 25.3697 3.59876 25.2512 4.3313 25.2512C6.40706 25.2512 8.48417 25.2512 10.5599 25.2512C11.6012 25.2512 12.442 24.8167 12.8266 23.8845C13.3736 22.5506 13.7934 21.1654 14.2944 19.7289ZM17.3383 13.6087C17.4358 14.2434 17.7607 14.5976 18.3389 14.7385C18.5944 14.7983 18.8624 14.7827 19.1087 14.6936C19.355 14.6044 19.5684 14.4458 19.7214 14.2381C20.106 13.7114 20.0288 13.1781 19.7647 12.608L17.3383 13.6087ZM14.6031 4.84325C15.2693 4.30339 15.5293 3.541 15.3045 2.81022C14.8294 3.38516 14.5807 4.106 14.6031 4.84325ZM21.0321 4.84325C21.1323 4.05321 20.7898 3.14993 20.2942 2.86815C20.2265 3.63581 20.435 4.28759 21.0389 4.84852L21.0321 4.84325Z" fill="#BDBDBD"/>
<path d="M25.9554 29.8363C25.9554 28.3734 25.9554 26.9105 25.9554 25.4477C25.9554 24.7037 26.3061 24.4061 27.0698 24.4851C30.8503 24.8749 34.0098 23.6955 36.5481 20.9471C37.0708 20.3835 37.5447 20.3927 38.0796 20.9668C40.6157 23.6885 43.7666 24.8696 47.5213 24.4865C48.3121 24.4061 48.6547 24.6984 48.656 25.4793C48.656 28.1746 48.6804 30.87 48.656 33.564C48.61 37.7117 46.8376 41.0101 43.3753 43.4236C41.615 44.6469 39.8263 45.8241 38.0484 47.0183C37.3971 47.4555 37.236 47.4542 36.5942 47.0183C34.8339 45.8333 33.0561 44.6614 31.3066 43.4539C27.7969 41.0311 26.015 37.7222 25.9608 33.5271C25.9432 32.3012 25.9554 31.0688 25.9554 29.8363ZM27.5803 26.1337V26.5287C27.5803 28.9436 27.541 31.3598 27.5911 33.7707C27.6615 37.1323 29.0806 39.8724 31.8564 41.8857C33.5476 43.1116 35.32 44.2321 37.0451 45.4132C37.2739 45.5699 37.4174 45.5265 37.6192 45.3882C39.2237 44.2966 40.8472 43.2301 42.4423 42.1267C45.4957 40.0199 47.019 37.1231 47.0461 33.4784C47.0596 31.211 47.0461 28.9436 47.0461 26.6762V26.135C43.2155 26.3009 39.9956 25.0816 37.3105 22.5048C34.6051 25.0961 31.3933 26.297 27.5776 26.1337H27.5803Z" fill="#BDBDBD"/>
<path d="M41.5365 30.2905L42.8107 31.2544C42.6116 31.5085 42.4302 31.7389 42.2474 31.9694C40.6009 34.0278 38.9543 36.0859 37.3078 38.1435C36.8 38.7782 36.4466 38.8203 35.7791 38.3331L32.7758 36.1381L33.7413 34.8754L36.3451 36.7715C38.0729 34.616 39.7857 32.4763 41.5365 30.2905Z" fill="#BDBDBD"/>
</svg>
