<svg width="43" height="43" viewBox="0 0 43 43" fill="none" xmlns="http://www.w3.org/2000/svg">
<g clip-path="url(#clip0_21_353)">
<path d="M0 2.52752C0.0549585 2.37159 0.11216 2.21678 0.164876 2.06085C0.367532 1.45865 0.755547 0.936051 1.27334 0.567899C1.79113 0.199746 2.41213 0.00493656 3.0474 0.0113708C5.60801 0.00239662 8.16863 0.0113708 10.7293 0.0113708C18.3823 0.0113708 26.0358 0.00875254 33.6896 0.00351758C33.9111 -0.00527827 34.1319 0.0344351 34.3365 0.119886C34.5411 0.205336 34.7245 0.334458 34.874 0.498219C36.1268 1.77817 37.3998 3.0368 38.6717 4.2988C38.7684 4.41198 38.8964 4.49395 39.0396 4.53437C39.4098 4.58934 39.8169 4.51643 40.1511 4.64655C40.4854 4.77668 40.7119 5.08068 40.9149 5.24671C41.3636 5.00104 41.7674 4.74079 42.2037 4.57364C42.336 4.52316 42.603 4.68582 42.7454 4.82043C43.1615 5.21193 43.0583 5.52379 42.2317 6.539C42.2407 6.5648 42.2407 6.60182 42.2597 6.61528C42.9237 7.09652 43.0112 7.7651 43.0045 8.538C42.9731 12.1344 42.9854 15.7308 42.9966 19.3273C43.0035 19.5285 42.967 19.7288 42.8896 19.9146C42.8122 20.1004 42.6957 20.2674 42.548 20.4042C39.9175 23.0119 37.2937 25.6302 34.6766 28.2589C34.5715 28.3711 34.4541 28.4712 34.3266 28.5573C34.1632 28.6542 33.9714 28.6923 33.7833 28.6652C33.5951 28.638 33.4219 28.5473 33.2925 28.4081C33.162 28.2692 33.0839 28.0893 33.0716 27.8991C33.0593 27.7089 33.1136 27.5204 33.2252 27.3659C33.3203 27.2459 33.4246 27.1333 33.537 27.0294C36.0397 24.5256 38.5401 22.0203 41.0383 19.5135C41.1942 19.3465 41.2849 19.1292 41.294 18.901C41.3097 15.4018 41.3097 11.903 41.294 8.40451C41.294 8.18015 41.1752 7.96365 41.0765 7.61926C40.3676 8.33384 39.7597 8.93063 39.1798 9.55209C39.1047 9.63286 39.135 9.85385 39.1731 9.99407C39.4557 11.0418 39.218 11.9505 38.4003 12.6549C37.5827 13.3594 36.6315 13.485 35.6625 13.0038C34.6934 12.5226 34.2279 11.7037 34.2627 10.6234C34.3199 9.0013 35.9451 7.86494 37.5098 8.36076C37.8025 8.45387 37.9584 8.39666 38.1536 8.19474C38.6852 7.6417 39.237 7.10886 39.8898 6.45935C39.5724 6.35839 39.3582 6.23499 39.1428 6.23499C35.6449 6.22303 32.147 6.22303 28.6491 6.23499C28.4225 6.24145 28.2055 6.3281 28.0367 6.47954C20.9437 13.5557 13.857 20.6382 6.77672 27.7271C6.01067 28.4933 6.01291 29.2045 6.78458 29.9763C10.3849 33.578 13.9864 37.1796 17.589 40.7813C18.3169 41.5093 19.0471 41.5116 19.7783 40.7813C22.4321 38.1316 25.0839 35.4801 27.7339 32.8267C28.2879 32.2726 28.7433 32.1963 29.1448 32.59C29.5464 32.9838 29.4611 33.4729 28.9284 34.0046C26.3958 36.5376 23.8542 39.0627 21.3362 41.6103C20.7037 42.2497 20.0408 42.7994 19.1424 42.9979H18.2193C17.527 42.8238 16.8944 42.4666 16.3877 41.9636C12.7889 38.347 9.18256 34.7371 5.56876 31.134C4.17797 29.7407 4.17461 27.9605 5.55978 26.5706C7.02011 25.1055 8.48268 23.642 9.94749 22.1799C10.0496 22.0779 10.1494 21.9735 10.3356 21.7817H9.76243C7.55399 21.7817 5.34556 21.7873 3.136 21.7817C1.56576 21.7817 0.469954 20.9157 0.0695422 19.3878C0.0507448 19.3358 0.0274752 19.2855 0 19.2375V2.52752ZM36.5351 4.54672C35.5627 3.57189 34.6766 2.67896 33.7793 1.80285C33.6885 1.71423 33.5011 1.69067 33.3587 1.69067C23.2867 1.68618 13.2143 1.68618 3.14161 1.69067C2.23536 1.69067 1.68353 2.25156 1.68353 3.1602C1.68353 8.32038 1.68353 13.4832 1.68353 18.6486C1.68353 19.5617 2.2275 20.1069 3.14946 20.1069C6.00282 20.1069 8.8573 20.1136 11.7107 20.099C11.9115 20.0896 12.1027 20.0102 12.2513 19.8747C13.2147 18.938 14.158 17.9834 15.1069 17.0321C15.1807 16.9492 15.25 16.8623 15.3144 16.7719C13.632 16.6597 12.6337 15.7623 12.5754 14.3589C12.5423 13.7376 12.7426 13.1264 13.1368 12.6451C13.5311 12.1638 14.0909 11.8473 14.7065 11.7575C15.3351 11.6563 15.9785 11.8031 16.501 12.167C17.2985 12.7155 17.6159 13.5131 17.6652 14.489C17.7882 14.3861 17.9009 14.2715 18.0017 14.1469C21.0458 11.0979 24.0902 8.04853 27.1349 4.99879C27.2769 4.84681 27.45 4.72733 27.6424 4.64852C27.8349 4.56972 28.0421 4.53346 28.2498 4.54223C30.493 4.55793 32.7261 4.54896 34.9648 4.54896L36.5351 4.54672ZM37.6096 10.7726C37.6081 10.5554 37.5247 10.3468 37.376 10.1885C37.2273 10.0302 37.0243 9.93389 36.8076 9.91891C36.6964 9.91562 36.5856 9.93434 36.4816 9.97397C36.3776 10.0136 36.2824 10.0734 36.2015 10.1499C36.1207 10.2264 36.0557 10.3181 36.0104 10.4197C35.965 10.5214 35.9402 10.631 35.9373 10.7423C35.9364 10.9598 36.0194 11.1693 36.1689 11.3272C36.3185 11.4852 36.5231 11.5794 36.7403 11.5904C36.9645 11.5961 37.1818 11.5128 37.3447 11.3587C37.5076 11.2046 37.6028 10.9923 37.6096 10.7681V10.7726ZM15.0833 15.0668C15.3025 15.0673 15.5129 14.981 15.6685 14.8267C15.8241 14.6723 15.9121 14.4625 15.9133 14.2434C15.9131 14.0241 15.827 13.8136 15.6736 13.657C15.5201 13.5004 15.3115 13.4101 15.0923 13.4054C14.9803 13.4028 14.869 13.423 14.7651 13.4648C14.6612 13.5066 14.5669 13.5691 14.488 13.6486C14.4091 13.7281 14.3472 13.8228 14.306 13.927C14.2649 14.0312 14.2455 14.1426 14.2488 14.2546C14.2495 14.3627 14.2718 14.4696 14.3143 14.5691C14.3569 14.6685 14.4188 14.7585 14.4965 14.8337C14.5742 14.9089 14.6661 14.9679 14.7669 15.0071C14.8676 15.0463 14.9752 15.0651 15.0833 15.0623V15.0668Z" fill="black"/>
<path d="M24.6439 26.8721C24.1683 27.3545 23.732 27.8279 23.2609 28.2631C23.0142 28.4875 22.9693 28.667 23.1398 28.9721C23.4449 29.515 23.2755 30.0311 22.7831 30.2386C22.3345 30.4282 21.9228 30.2532 21.6615 29.7349C20.8734 28.1951 20.0883 26.6534 19.3061 25.1098C19.0594 24.6252 18.807 24.1429 18.5659 23.6515C18.3517 23.2163 18.392 22.8483 18.6859 22.5757C19.0033 22.2796 19.3589 22.2773 19.729 22.4692C21.7669 23.509 23.8083 24.5433 25.844 25.5877C26.3633 25.8536 26.527 26.3213 26.2926 26.7689C26.0582 27.2165 25.6006 27.3298 25.0656 27.0684L24.6439 26.8721ZM21.3138 25.167L21.2432 25.2276L22.1326 26.9675L23.0803 26.0701L21.3138 25.167Z" fill="black"/>
<path d="M12.8311 29.7137C12.8311 28.7961 13.0555 28.224 13.5108 27.7483C13.8967 27.3434 14.2959 26.9474 14.6952 26.5581C15.0945 26.1689 15.5925 26.1689 15.929 26.5065C16.2655 26.8442 16.2655 27.3411 15.8774 27.7405C15.5286 28.1039 15.1618 28.4506 14.8119 28.8118C14.4339 29.201 14.407 29.7092 14.7334 30.0457C15.0598 30.3823 15.5331 30.3969 15.9671 30.0233C16.8252 29.2852 17.783 29.0922 18.8082 29.5858C19.7649 30.0469 20.2326 30.8602 20.2236 31.9225C20.2183 32.5465 19.9682 33.1435 19.5271 33.585C19.1491 33.9776 18.7622 34.3635 18.3707 34.7438C17.9793 35.124 17.4734 35.1487 17.137 34.8212C16.7747 34.4723 16.7926 33.972 17.1908 33.5603C17.4925 33.2484 17.8043 32.9455 18.1094 32.6382C18.6149 32.1289 18.6896 31.6779 18.3337 31.2853C17.9726 30.8848 17.5385 30.9218 16.9743 31.3795C16.1477 32.0526 15.2291 32.1917 14.2679 31.7363C13.3067 31.2808 12.8558 30.5023 12.8311 29.7137Z" fill="black"/>
<path d="M31.0089 17.2798L32.2808 18.5273C32.5702 18.2188 32.8764 17.8733 33.2028 17.5502C33.6167 17.1407 34.1102 17.1273 34.4624 17.4918C34.7899 17.8284 34.7674 18.3399 34.3895 18.7258C33.8814 19.2452 33.3688 19.7612 32.8473 20.2671C32.421 20.6799 31.9746 20.6867 31.5563 20.2671C29.998 18.7198 28.4461 17.1677 26.9005 15.6106C26.499 15.2068 26.5023 14.7592 26.9005 14.3509C27.415 13.8191 27.9384 13.2956 28.4708 12.7804C28.8566 12.4046 29.368 12.39 29.7045 12.7265C30.041 13.0631 30.041 13.5634 29.6563 13.9605C29.3254 14.297 28.9699 14.6156 28.6345 14.9331L29.8537 16.1816C30.1588 15.8608 30.4571 15.5355 30.7689 15.2236C31.2019 14.7906 31.701 14.7469 32.0621 15.0957C32.4401 15.4614 32.3986 15.9629 31.95 16.4172C31.6415 16.7201 31.3118 17.0016 31.0089 17.2798Z" fill="black"/>
<path d="M27.8606 22.9437C28.3653 22.4165 28.7433 22.0081 29.137 21.6144C29.5733 21.178 30.0657 21.1545 30.4257 21.5314C30.7622 21.8858 30.7285 22.3817 30.3225 22.7945C29.7535 23.3711 29.1804 23.9439 28.6031 24.5131C28.1455 24.9618 27.7058 24.9696 27.2572 24.5209C25.7221 22.9938 24.1892 21.4607 22.6586 19.9216C22.2481 19.5088 22.2302 19.0163 22.5891 18.663C22.948 18.3096 23.4258 18.3265 23.8486 18.7438C25.0966 19.9844 26.3405 21.23 27.5802 22.4804C27.6856 22.5926 27.7428 22.7451 27.8606 22.9437Z" fill="black"/>
<path d="M31.2198 31.3425C31.1112 31.3423 31.0036 31.3208 30.9033 31.279C30.803 31.2373 30.7119 31.1761 30.6352 31.0991C30.5586 31.0221 30.4978 30.9308 30.4565 30.8303C30.4151 30.7298 30.394 30.6221 30.3943 30.5135C30.3983 30.2943 30.4865 30.0851 30.6406 29.9292C30.7947 29.7734 31.003 29.6829 31.222 29.6766C31.3341 29.6774 31.445 29.7002 31.5482 29.7439C31.6514 29.7876 31.745 29.8512 31.8236 29.9312C31.9021 30.0111 31.9642 30.1058 32.0061 30.2098C32.048 30.3137 32.0689 30.425 32.0677 30.537C32.0651 30.6457 32.0411 30.7527 31.997 30.852C31.953 30.9514 31.8897 31.041 31.811 31.1158C31.7322 31.1907 31.6394 31.2492 31.538 31.2881C31.4365 31.327 31.3284 31.3455 31.2198 31.3425Z" fill="black"/>
<path d="M14.7973 6.27522C14.7546 6.41616 14.6998 6.55316 14.6336 6.68467C12.8734 9.81218 11.1102 12.9382 9.34407 16.0627C9.06143 16.563 8.57914 16.7223 8.15069 16.4811C7.72224 16.24 7.59774 15.7565 7.88487 15.2472C9.65177 12.1062 11.4217 8.96823 13.1945 5.83323C13.4424 5.39574 13.798 5.24093 14.204 5.36209C14.5797 5.47539 14.8052 5.78163 14.7973 6.27522Z" fill="black"/>
<path d="M10.5016 7.54845C10.5067 8.21386 10.248 8.85418 9.78219 9.32931C9.31639 9.80444 8.68137 10.0757 8.01609 10.0837C7.3435 10.0864 6.69735 9.82193 6.21955 9.34847C5.74175 8.87501 5.47137 8.23124 5.46781 7.55855C5.47397 6.89374 5.74098 6.25795 6.21134 5.78816C6.68169 5.31836 7.31773 5.05215 7.98245 5.04688C8.648 5.04509 9.28707 5.30751 9.75937 5.77651C10.2317 6.24552 10.4986 6.8828 10.5016 7.54845ZM8.81916 7.57762C8.82188 7.4663 8.80215 7.35559 8.76115 7.25207C8.72015 7.14855 8.65872 7.05435 8.58052 6.9751C8.50233 6.89584 8.40897 6.83315 8.30602 6.79078C8.20307 6.7484 8.09264 6.72719 7.98132 6.72843C7.76399 6.73371 7.55687 6.82174 7.40222 6.97454C7.24756 7.12735 7.15703 7.33341 7.1491 7.55069C7.15027 7.77556 7.23987 7.99094 7.39854 8.15027C7.55721 8.30959 7.7722 8.40007 7.99703 8.40213C8.21484 8.39979 8.42305 8.31213 8.57697 8.15798C8.73088 8.00382 8.81824 7.79546 8.82028 7.57762H8.81916Z" fill="black"/>
</g>
<defs>
<clipPath id="clip0_21_353">
<rect width="43" height="43" fill="white"/>
</clipPath>
</defs>
</svg>
