<svg width="44" height="43" viewBox="0 0 44 43" fill="none" xmlns="http://www.w3.org/2000/svg">
<path d="M23.3133 24.4504C23.8236 23.4209 24.334 22.3919 24.8443 21.3632C25.5711 19.8956 26.2978 18.4276 27.0245 16.9592C27.7125 15.5693 28.8535 15.1759 30.2731 15.8379L42.8422 21.7095C43.5859 22.0629 43.69 22.3361 43.3267 23.0699C40.3769 29.0377 37.4263 35.0024 34.4749 40.964C34.1224 41.6707 33.839 41.7755 33.1159 41.4351L23.1546 36.772C22.7913 37.9498 22.0645 38.8191 20.8533 39.2926C21.2384 40.3845 21.0398 41.3209 20.0417 41.9793C19.3017 42.4669 18.4913 42.474 17.7343 42.0087C16.8017 41.4375 16.5388 40.5812 16.7799 39.5352H10.7927C11.0349 40.6165 10.7479 41.4834 9.76555 42.0547C9.3976 42.2647 8.97276 42.3613 8.54716 42.3317C8.12156 42.302 7.71523 42.1475 7.38183 41.8886C6.60057 41.2997 6.37407 40.4598 6.70959 39.3114C6.58846 39.2502 6.46007 39.1936 6.33289 39.1218C5.07804 38.4481 4.36826 37.4151 4.36341 36.0217C4.34403 29.8921 4.34403 23.7625 4.36341 17.6329C4.36341 15.6541 5.96104 14.1323 7.99714 14.1111C8.93464 14.1005 9.87093 14.1111 10.8811 14.1111V13.5929C10.8811 10.0063 10.8702 6.41852 10.8811 2.83194C10.8762 2.34809 11.0002 1.87124 11.2409 1.44776C11.4816 1.02427 11.8309 0.668561 12.2548 0.415196C12.6788 0.161831 13.1629 0.0194361 13.6601 0.00185263C14.1574 -0.0157308 14.6509 0.0920958 15.0926 0.314851C16.1549 0.848422 16.6757 1.73653 16.6781 2.89437C16.6838 6.43658 16.6838 9.97919 16.6781 13.5222V14.1111C17.0996 14.1111 17.5018 14.1111 17.9027 14.1111C18.6561 14.1241 19.4228 14.0675 20.1629 14.1783C21.9664 14.4503 23.191 15.8791 23.2031 17.6518C23.2176 19.7542 23.2031 21.8567 23.2031 23.958V24.4292L23.3133 24.4504ZM10.886 15.5234H8.17398C6.69748 15.5234 5.80721 16.3926 5.806 17.832C5.806 20.2859 5.806 22.7397 5.806 25.1936C5.806 28.7641 5.806 32.3346 5.806 35.9051C5.806 37.1359 6.70596 38.0888 7.92568 38.0935C11.838 38.11 15.7507 38.11 19.6638 38.0935C20.582 38.0935 21.3838 37.4551 21.6684 36.6236C21.7896 36.2702 21.7314 36.0523 21.345 35.9168C21.051 35.8024 20.7639 35.6718 20.4851 35.5258C19.1224 34.8791 18.7178 33.7496 19.3731 32.4186C20.1168 30.9097 20.8642 29.4033 21.603 27.8933C21.6907 27.7411 21.7436 27.5724 21.7581 27.3986C21.7665 24.1229 21.775 20.8461 21.7581 17.5693C21.7495 17.0254 21.522 16.5065 21.1243 16.1239C20.7266 15.7414 20.1905 15.5258 19.6311 15.5234C18.7554 15.5057 17.8785 15.5234 17.0027 15.5234C16.8926 15.5304 16.783 15.5438 16.6745 15.5634V19.0204H15.221V15.5446H12.3298V19.0157H10.8896L10.886 15.5234ZM40.5784 25.3597L27.5199 19.2348C27.5012 19.2585 27.4846 19.2838 27.4703 19.3102C25.1931 23.9109 22.9172 28.5124 20.6425 33.1147C20.3712 33.6648 20.5141 33.9745 21.1343 34.2655L30.8 38.7885C31.6394 39.1807 32.48 39.5694 33.3436 39.9734L40.5784 25.3597ZM12.3346 14.0805H15.2331C15.2331 10.2737 15.2428 6.49862 15.2137 2.72358C15.2137 2.42322 15.0054 2.07221 14.7898 1.83546C14.3828 1.38906 13.8329 1.3019 13.2539 1.51273C12.675 1.72357 12.337 2.23594 12.3358 2.90025C12.3358 5.64859 12.3358 8.39693 12.3358 11.1453L12.3346 14.0805ZM41.8284 22.8261C41.6745 22.7495 41.557 22.6859 41.4371 22.6306L33.2007 18.7754C31.9507 18.1865 30.7031 17.5976 29.4458 17.0263C29.0207 16.832 28.6307 16.971 28.4502 17.3385C28.2697 17.7059 28.4151 18.0734 28.8269 18.2937C28.879 18.3208 28.9359 18.342 28.9904 18.3679L37.0609 22.1453L41.2021 24.0817C41.4202 23.6506 41.6212 23.2431 41.8284 22.8261ZM9.42883 40.229C9.42894 40.0458 9.35588 39.8697 9.22504 39.7378C9.0942 39.606 8.91582 39.5287 8.72752 39.5223C8.63005 39.5201 8.53311 39.5369 8.44249 39.5719C8.35187 39.6069 8.26941 39.6592 8.20002 39.7258C8.13063 39.7924 8.07572 39.8719 8.03858 39.9595C8.00144 40.0472 7.98281 40.1413 7.98381 40.2361C7.98793 40.4208 8.06631 40.5967 8.20216 40.7259C8.33801 40.8551 8.52051 40.9275 8.71056 40.9275C8.90079 40.9253 9.08256 40.8507 9.21686 40.7197C9.35115 40.5886 9.42726 40.4116 9.42883 40.2266V40.229ZM19.5863 40.229C19.5864 40.0454 19.513 39.8689 19.3816 39.737C19.2503 39.6051 19.0713 39.5281 18.8826 39.5223C18.6933 39.5184 18.5099 39.5865 18.3714 39.7121C18.233 39.8377 18.1504 40.0109 18.1413 40.1948C18.1377 40.2898 18.1539 40.3845 18.1888 40.4732C18.2237 40.562 18.2767 40.643 18.3445 40.7114C18.4123 40.7798 18.4937 40.8342 18.5836 40.8713C18.6736 40.9084 18.7703 40.9275 18.868 40.9275C19.0589 40.9253 19.2412 40.8502 19.3756 40.7184C19.51 40.5866 19.5857 40.4087 19.5863 40.2231V40.229Z" fill="#BDBDBD"/>
<path d="M35.1435 4.05775C36.2143 4.75269 37.2269 5.41818 38.2528 6.06012C38.3209 6.08914 38.3948 6.10274 38.4691 6.09989C38.5434 6.09703 38.616 6.07779 38.6816 6.04363C39.1588 5.76212 39.6142 5.44527 40.0817 5.14727C40.5662 4.83632 40.8412 4.85635 41.247 5.24151C41.6782 5.65258 42.1082 6.06601 42.5272 6.49004C42.9076 6.87638 42.9124 7.22973 42.5272 7.61018C41.6043 8.52067 40.6825 9.43233 39.7414 10.3193C38.9856 11.026 37.9875 11.1202 37.0706 10.5784C33.0864 8.22267 29.1063 5.85753 25.1302 3.48296C24.5778 3.15316 24.5245 2.69851 24.9642 2.24268C25.1084 2.09309 25.261 1.94939 25.4124 1.80569C26.6951 0.590135 28.3933 0.392259 29.9449 1.25799C30.3858 1.50534 30.8254 1.91641 31.2772 1.9329C31.729 1.94939 32.1687 1.5548 32.6096 1.34397C33.4332 0.945851 34.2629 0.555977 35.0781 0.14137C35.5057 -0.0741783 35.8412 -0.00939574 36.1791 0.310982C37.2378 1.31452 37.2438 1.32512 36.3632 2.47354C35.9684 2.98709 35.5711 3.5018 35.1435 4.05775ZM26.5921 2.70322L28.3678 3.76329C31.4702 5.60703 34.5718 7.45235 37.6726 9.29923C38.2189 9.62432 38.4441 9.59605 38.9056 9.15318C39.1636 8.90583 39.4168 8.65377 39.6748 8.40642C40.1314 7.9659 40.5893 7.52655 41.0411 7.09192C40.5626 6.54893 40.5626 6.54893 40.0381 6.8858C39.699 7.10488 39.3502 7.31219 39.0231 7.54658C38.644 7.81749 38.2964 7.82219 37.9027 7.56189C36.5534 6.6726 35.192 5.80216 33.839 4.91877C33.283 4.55599 33.2334 4.21205 33.6404 3.66788C34.1031 3.05893 34.5694 2.45351 35.0345 1.84574C34.9115 1.83955 34.7894 1.86864 34.6832 1.92937C33.6985 2.40051 32.7077 2.87165 31.7314 3.36635C31.3402 3.56423 31.0047 3.56423 30.6304 3.32984C30.1249 3.01574 29.6077 2.71382 29.0788 2.42406C28.6904 2.19845 28.2363 2.10355 27.7869 2.154C27.3374 2.20446 26.9175 2.39747 26.5921 2.70322Z" fill="#BDBDBD"/>
<path d="M41.0156 14.7616L39.963 12.301L41.1646 11.7121C42.1602 12.9194 43.5592 17.8629 43.4187 19.7121C43.0275 19.7345 42.6253 19.7781 42.2256 19.7663C42.1445 19.7663 42.0233 19.5566 42.0015 19.4306C41.8308 18.4777 41.6781 17.5213 41.5267 16.5649C41.4856 16.3093 41.3644 16.2115 41.0858 16.1915C37.1723 15.9135 33.8947 14.3387 31.1973 11.586C30.9259 11.3092 30.6486 11.0383 30.3627 10.7769C29.9739 10.4235 29.5996 10.407 29.1878 10.7203C27.9475 11.6626 26.9252 11.6084 25.7709 10.5413C24.3174 9.1997 22.2086 9.16672 20.7346 10.4859C20.0078 11.1349 19.1975 11.546 18.1631 11.5531V10.1632C18.8281 10.1337 19.3295 9.81925 19.8043 9.40347C21.7859 7.66848 24.6626 7.67909 26.6466 9.40936C26.7593 9.50712 26.8647 9.61313 26.9773 9.71089C27.3564 10.0372 27.7246 10.0489 28.1207 9.75094C29.4071 8.78509 30.456 8.8381 31.597 9.98062C33.0032 11.3941 34.4713 12.7097 36.3293 13.5519C37.8012 14.233 39.3901 14.6431 41.0156 14.7616Z" fill="#BDBDBD"/>
<path d="M9.8358 5.13326C2.01965 10.4183 -0.892178 21.1969 3.52886 29.9272L2.30429 30.5291C-2.14097 22.5197 -0.287768 10.4065 9.02548 4.04492L9.8358 5.13326Z" fill="#BDBDBD"/>
<path d="M28.111 40.0781L28.5119 41.2843C26.5768 41.9068 24.5596 42.2551 22.5223 42.3184V41.0322L28.111 40.0781Z" fill="#BDBDBD"/>
<path d="M18.0189 0.314978C19.9956 -0.0245007 22.0118 -0.0895402 24.0073 0.121807C23.9576 0.592951 23.9092 1.03111 23.8716 1.38801L18.2418 1.58118L18.0189 0.314978Z" fill="#BDBDBD"/>
<path d="M8.73718 20.4824H10.1362V36.6544H8.73718V20.4824Z" fill="#BDBDBD"/>
<path d="M13.0928 20.4795H14.487V36.6668H13.0928V20.4795Z" fill="#BDBDBD"/>
<path d="M18.8341 36.6671H17.4351V20.4951H18.8341V36.6671Z" fill="#BDBDBD"/>
<path d="M31.2093 23.0913C31.8757 23.0892 32.5359 23.2152 33.152 23.4621C33.7681 23.709 34.3279 24.072 34.7991 24.5302C35.2704 24.9883 35.6438 25.5326 35.8979 26.1316C36.152 26.7307 36.2817 27.3727 36.2796 28.0207C36.2809 28.6693 36.1507 29.3118 35.8966 29.9115C35.6424 30.5112 35.2693 31.0563 34.7984 31.5157C34.3276 31.9751 33.7683 32.3398 33.1524 32.5889C32.5366 32.8381 31.8763 32.9668 31.2093 32.9677C29.8627 32.9618 28.573 32.4385 27.6214 31.5118C26.6698 30.5851 26.1335 29.3302 26.1294 28.0207C26.1299 27.3726 26.2617 26.7309 26.5173 26.1324C26.7729 25.5339 27.1472 24.9902 27.619 24.5324C28.0908 24.0746 28.6507 23.7117 29.2667 23.4645C29.8828 23.2172 30.5429 23.0904 31.2093 23.0913ZM31.0761 31.5071C32.1202 31.6567 33.5991 30.9771 34.0328 30.1243L32.8748 29.5861L31.0761 31.5071ZM27.6943 27.162C27.4157 28.3882 27.6943 29.4212 28.4647 30.3199C28.6197 29.526 28.7784 28.7462 28.9177 27.9641C28.9222 27.913 28.9142 27.8615 28.8942 27.814C28.8742 27.7664 28.8428 27.7242 28.8026 27.6909C28.4501 27.5024 28.0819 27.3422 27.6943 27.162ZM34.6965 28.8652C35.0454 27.7545 34.6008 26.1561 33.9165 25.7804C33.7869 26.5931 33.6536 27.4294 33.5119 28.3104C33.8644 28.4801 34.2665 28.6638 34.6965 28.8652ZM28.3266 25.8888L29.5378 26.4565L31.3668 24.5095C30.1338 24.4753 29.149 24.9276 28.3266 25.8888ZM29.969 30.2904L30.1544 30.3776L31.5327 28.9641L30.2609 28.367C30.1592 29.036 30.0635 29.6579 29.969 30.2881V30.2904ZM30.8823 27.0902L32.1796 27.6791C32.2704 26.9724 32.3503 26.3552 32.4291 25.738L32.2559 25.6709L30.8823 27.0902Z" fill="#BDBDBD"/>
<path d="M31.3147 35.8921L30.6837 37.1606L24.1526 34.1076L24.7789 32.8379L31.3147 35.8921Z" fill="#BDBDBD"/>
</svg>
