<svg width="31" height="30" viewBox="0 0 31 30" fill="none" xmlns="http://www.w3.org/2000/svg">
<path d="M15.6578 0.457031C12.8442 0.457034 10.0938 1.30989 7.75457 2.9077C5.41536 4.50551 3.59248 6.77644 2.51656 9.43322C1.44065 12.09 1.16004 15.0132 1.71026 17.833C2.26048 20.6528 3.6168 23.2424 5.60759 25.2743C7.59838 27.3062 10.1342 28.6889 12.8942 29.2477C15.6542 29.8064 18.5143 29.5159 21.1128 28.4131C23.7112 27.3103 25.9312 25.4446 27.4918 23.0521C29.0524 20.6596 29.8835 17.8479 29.88 14.9726C29.8752 11.1211 28.3748 7.42907 25.7081 4.7074C23.0414 1.98573 19.4267 0.457028 15.6578 0.457031V0.457031Z" stroke="black" stroke-width="1.5" stroke-miterlimit="10"/>
<path d="M22.0623 12.2668C22.0712 12.4129 22.0712 12.5595 22.0623 12.7056C22.0694 13.9536 21.8342 15.1906 21.3701 16.3451C20.906 17.4995 20.2223 18.5484 19.3588 19.4309C18.4952 20.3134 17.4688 21.012 16.3391 21.4863C15.2095 21.9605 13.999 22.201 12.7777 22.1937C11.0069 22.1996 9.2726 21.6787 7.7865 20.6946C8.04258 20.7134 8.29965 20.7134 8.55573 20.6946C10.0275 20.6978 11.4577 20.1957 12.6166 19.2686C11.9349 19.2603 11.273 19.0335 10.7242 18.6202C10.1753 18.207 9.76726 17.628 9.55754 16.9651C9.75992 16.9828 9.9634 16.9828 10.1658 16.9651C10.4613 16.9657 10.7558 16.9289 11.0424 16.8555C10.302 16.7036 9.63565 16.2949 9.15638 15.6985C8.67712 15.1021 8.41439 14.3548 8.41264 13.583C8.87175 13.8293 9.37923 13.9668 9.89745 13.9852C9.45044 13.6844 9.08389 13.2745 8.83089 12.7925C8.57789 12.3105 8.44641 11.7717 8.4484 11.2248C8.44813 10.6358 8.59596 10.0566 8.87773 9.54284C9.69826 10.571 10.7211 11.4115 11.8798 12.0099C13.0386 12.6083 14.3075 12.9512 15.6042 13.0163C15.4495 12.3031 15.5275 11.5577 15.8262 10.894C16.125 10.2304 16.6282 9.68487 17.2588 9.34088C17.8895 8.99688 18.613 8.87331 19.3189 8.989C20.0247 9.10469 20.6741 9.45329 21.1678 9.98158C21.8988 9.83438 22.6004 9.56244 23.243 9.17719C22.9896 9.94414 22.4755 10.5928 21.7939 11.0053C22.4421 10.9238 23.0751 10.7452 23.6724 10.4752C23.2568 11.1752 22.7095 11.7841 22.0623 12.2668Z" fill="black"/>
</svg>
