<svg width="47" height="44" viewBox="0 0 47 44" fill="none" xmlns="http://www.w3.org/2000/svg">
<path d="M0.00188019 34.469C0.234796 34.1026 0.571959 33.9929 0.997406 34.0004C2.50009 34.0154 4.00277 34.006 5.50546 34.006H6.03328C6.04267 33.8102 6.05676 33.6509 6.0577 33.4916C6.11655 25.0582 6.17478 16.6249 6.23239 8.1915C6.23896 7.22073 6.44558 7.01645 7.43453 7.01645C13.3157 7.01645 19.1968 7.01926 25.0779 7.02488C25.4489 7.02488 25.6123 6.91525 25.7579 6.56855C27.4484 2.5224 31.516 -0.11162 35.8578 0.00363626C41.3304 0.148878 45.7877 4.43303 46.1888 9.93627C46.5795 15.2774 42.7204 20.1706 37.3981 21.0646C36.6326 21.1939 35.8493 21.2211 35.0041 21.3026V21.7777C35.0041 27.165 35.0041 32.5524 35.0041 37.9397C35.0041 40.8736 33.0515 43.249 30.1917 43.7916C29.5925 43.9059 28.9661 43.9031 28.3519 43.904C20.9061 43.9109 13.4606 43.9109 6.01544 43.904C3.02697 43.904 0.640521 41.9194 0.0845283 39.0005C0.0648055 38.9002 0.0281753 38.8037 0 38.7053L0.00188019 34.469ZM7.73601 8.53821C7.67872 17.0287 7.62143 25.494 7.56414 34.0023H23.4118C23.5621 34.0023 23.7124 34.0023 23.8626 34.0023C24.4675 34.0145 24.7079 34.2478 24.7135 34.8531C24.721 35.8277 24.7135 36.8031 24.7182 37.7786C24.711 38.092 24.7304 38.4055 24.7764 38.7156C25.1906 41.0132 27.1967 42.5575 29.5043 42.3804C31.7527 42.2033 33.4864 40.3189 33.492 37.9847C33.507 32.4637 33.492 26.9426 33.5023 21.4206C33.5023 21.1395 33.4488 21.0112 33.1379 20.9343C30.5082 20.2868 28.4035 18.8569 26.8661 16.6239C26.7158 16.4065 26.5552 16.3494 26.3101 16.3494C23.9622 16.3569 21.6189 16.3494 19.2729 16.3494C19.1527 16.3494 19.0324 16.3494 18.9122 16.3494C18.3647 16.3306 18.0397 16.0411 18.0472 15.5819C18.0538 15.1397 18.3713 14.8614 18.8925 14.8426C18.9977 14.8426 19.1029 14.8426 19.2081 14.8426H25.849C24.9643 12.7811 24.7642 10.6953 25.1427 8.53071L7.73601 8.53821ZM44.7067 10.5997C44.7055 9.40421 44.4682 8.22068 44.0082 7.11676C43.5483 6.01284 42.8749 5.01017 42.0264 4.16606C41.1779 3.32194 40.171 2.65293 39.0633 2.19725C37.9555 1.74158 36.7686 1.50818 35.5704 1.5104C34.3688 1.51273 33.1794 1.75149 32.0704 2.21301C30.9614 2.67454 29.9544 3.34976 29.1073 4.20004C28.2601 5.05031 27.5894 6.05893 27.1334 7.16816C26.6775 8.2774 26.4452 9.46546 26.4501 10.6644C26.4625 13.0778 27.4345 15.3877 29.1527 17.0867C30.8708 18.7857 33.1946 19.7348 35.6136 19.7255C36.8111 19.7222 37.9963 19.4836 39.1014 19.0233C40.2065 18.5629 41.2099 17.8899 42.0543 17.0427C42.8987 16.1954 43.5675 15.1905 44.0226 14.0853C44.4777 12.9802 44.7102 11.7964 44.7067 10.6016V10.5997ZM1.50456 35.5081C1.50456 36.2962 1.50456 37.0571 1.50456 37.8189C1.52053 40.5363 3.38292 42.3935 6.10653 42.3944C12.2851 42.3944 18.4642 42.3944 24.644 42.3944H25.0685C25.0779 42.3373 25.0873 42.3176 25.0817 42.311C25.0103 42.2342 24.9361 42.1602 24.8647 42.0834C23.9819 41.151 23.4043 40.0603 23.2813 38.7793C23.2024 37.9604 23.2268 37.133 23.208 36.3084C23.2014 36.0451 23.208 35.7808 23.208 35.5081H1.50456Z" fill="#BDBDBD"/>
<path d="M23.7697 29.428C22.1462 29.428 20.522 29.428 18.8972 29.428C18.5309 29.428 18.191 29.3109 18.1187 28.9539C18.0679 28.7018 18.1675 28.3767 18.3065 28.1462C18.3863 28.0112 18.6728 27.9391 18.87 27.9391C22.1483 27.9272 25.427 27.9272 28.706 27.9391C29.2094 27.9391 29.5344 28.2783 29.5156 28.7131C29.4977 29.1329 29.1775 29.4262 28.6919 29.428C27.0502 29.428 25.4085 29.428 23.7697 29.428Z" fill="#BDBDBD"/>
<path d="M23.7631 21.4014C25.3722 21.4014 26.9813 21.4014 28.5904 21.4014C29.1793 21.4014 29.5165 21.6825 29.509 22.151C29.5014 22.6026 29.1765 22.88 28.612 22.881C25.3781 22.8847 22.1449 22.8847 18.9122 22.881C18.3487 22.881 18.0378 22.5923 18.0444 22.1313C18.051 21.6703 18.3647 21.4126 18.9357 21.4051H23.7631V21.4014Z" fill="#BDBDBD"/>
<path d="M16.367 15.6367C16.3736 16.9092 15.317 17.953 14.0031 17.9699C12.6892 17.9868 11.5725 16.9129 11.5801 15.6404C11.5876 14.3679 12.6723 13.3334 13.9768 13.3315C15.2813 13.3297 16.3595 14.3642 16.367 15.6367ZM14.0003 16.4631C14.4906 16.4538 14.8925 16.0733 14.8794 15.6301C14.8662 15.1869 14.453 14.828 13.9609 14.8364C13.4687 14.8449 13.0771 15.2169 13.0884 15.6695C13.0996 16.1221 13.5035 16.4725 14.0003 16.4631Z" fill="#BDBDBD"/>
<path d="M16.3671 22.1489C16.3671 23.4214 15.2945 24.4587 13.9844 24.4615C12.6742 24.4643 11.5585 23.3839 11.5801 22.1189C11.6017 20.8539 12.6939 19.8194 13.9966 19.8307C15.3161 19.8391 16.3708 20.8726 16.3671 22.1489ZM13.9909 22.9519C14.4868 22.9473 14.8869 22.5771 14.8794 22.1311C14.8719 21.6851 14.454 21.3196 13.9693 21.3252C13.4847 21.3309 13.0828 21.7001 13.0884 22.1526C13.094 22.6052 13.4904 22.9557 13.9956 22.9519H13.9909Z" fill="#BDBDBD"/>
<path d="M16.367 28.6418C16.367 29.9152 15.2954 30.9497 13.9843 30.9507C12.6733 30.9516 11.5594 29.8768 11.5801 28.6081C11.6007 27.3393 12.6826 26.3198 13.9966 26.3292C15.3105 26.3385 16.3708 27.3599 16.367 28.6418ZM13.9674 29.443C14.4661 29.443 14.8719 29.0934 14.8803 28.6465C14.8888 28.1995 14.4746 27.8219 13.9928 27.8144C13.511 27.8069 13.0968 28.1723 13.0884 28.6212C13.0799 29.07 13.4687 29.4383 13.9674 29.443Z" fill="#BDBDBD"/>
<path d="M38.1569 11.7569C37.599 12.444 36.9062 12.7876 36.0785 12.7876C35.61 12.7933 35.148 12.678 34.7373 12.4531C34.3365 12.233 34.0065 11.9038 33.786 11.5039C33.5488 11.0704 33.4294 10.5826 33.4394 10.0889C33.4295 9.59522 33.549 9.1075 33.786 8.67399C34.0068 8.27423 34.3367 7.9451 34.7373 7.72477C35.148 7.4998 35.61 7.38456 36.0785 7.39025C36.4407 7.38532 36.7992 7.46274 37.127 7.61666C37.4547 7.77057 37.743 7.99693 37.97 8.27856L39.0144 7.26937C38.7201 6.94127 38.3728 6.66475 37.9869 6.45133L38.5119 4.79652L37.0534 4.33643L36.5237 6.00905C36.372 5.99389 36.2197 5.98639 36.0672 5.98656C35.335 5.9787 34.6139 6.16599 33.9785 6.5291C33.3577 6.88094 32.843 7.39256 32.488 8.01057C32.1238 8.64238 31.936 9.36009 31.9442 10.0889C31.936 10.8181 32.1237 11.5361 32.488 12.1682C32.8433 12.7857 33.358 13.297 33.9785 13.6487L34.0856 13.7078L33.616 15.1902L35.0736 15.6493L35.5432 14.1622C35.7165 14.1822 35.8909 14.1922 36.0653 14.1922C36.6734 14.1998 37.2758 14.0745 37.8301 13.8249C38.3654 13.5768 38.8374 13.211 39.2107 12.7548L38.1569 11.7569Z" fill="#BDBDBD"/>
</svg>
