<svg width="421" height="318" viewBox="0 0 421 318" fill="none" xmlns="http://www.w3.org/2000/svg">
<g clip-path="url(#clip0_98_2012)">
<path d="M180.546 3.27612C180.546 3.27612 161.117 -2.91219 146.258 12.3766C131.398 27.6653 139.23 58.1973 139.23 68.9207C139.23 79.644 125.57 147.791 125.57 147.791C125.57 147.791 118.952 172.56 137.136 188.258C155.319 203.956 188.924 202.591 203.268 172.378C217.611 142.164 202.402 99.0887 202.402 76.8229C202.402 54.5571 205.711 39.6779 200.748 23.5853C197.697 13.954 190.169 6.38544 180.546 3.27612Z" fill="#020202" stroke="#263238" stroke-linecap="round" stroke-linejoin="round"/>
<path d="M174.778 14.8489C174.778 14.8489 156.048 38.1157 143.404 44.6832" stroke="white" stroke-linecap="round" stroke-linejoin="round"/>
<path d="M158.583 12.8315C158.583 12.8315 148.975 36.0832 140.369 42.6658" stroke="white" stroke-linecap="round" stroke-linejoin="round"/>
<path d="M212.481 92.8094C216.108 95.3575 218.476 99.3314 218.977 103.73C220.085 111.465 211.828 129.348 210.174 138.19C208.61 148.929 207.609 159.728 207.153 170.573C207.153 173.333 216.564 214.225 218.218 224.174C219.873 234.124 217.383 257.543 216.002 259.257C214.621 260.971 210.75 252.901 210.477 247.654C210.204 242.406 199.974 202.06 196.103 189.911C192.233 177.762 193.326 161.73 193.326 161.73C193.326 161.73 198.593 124.979 198.593 110.889C198.593 96.7984 199.018 86.2571 199.018 86.2571L212.481 92.8094Z" fill="#D1D1D1" stroke="#263238" stroke-linecap="round" stroke-linejoin="round"/>
<path d="M215.972 259.196C217.353 257.543 219.842 234.048 218.188 224.114C216.533 214.179 207.153 173.273 207.153 170.573C207.609 159.758 208.625 148.959 210.189 138.251C210.796 135.415 211.57 132.624 212.526 129.879C209.278 131.441 205.711 132.26 202.099 132.245C200.171 132.245 198.289 134.019 196.483 137.038C194.965 149.869 193.311 161.73 193.311 161.73C193.311 161.73 192.218 177.747 196.088 189.911C199.959 202.076 210.189 242.406 210.462 247.654C210.735 252.902 214.591 260.849 215.972 259.196Z" fill="white" stroke="#263238" stroke-linecap="round" stroke-linejoin="round"/>
<path d="M160.465 317.211C161.072 310.416 162.347 296.584 163.167 291.245C164.275 284.07 166.475 269.419 166.475 269.419L172.076 317.211H210.447C211.828 306.791 215.304 278.853 215.972 259.196C216.807 234.609 198.274 183.768 197.758 179.901C197.242 176.033 198.304 164.733 198.304 161.396C198.304 158.06 207.958 136.886 208.777 126.102C209.597 115.318 212.101 112.011 212.101 112.011L213.483 93.8104C212.648 93.5374 200.247 83.7847 187.801 80.1597C180.227 78.0059 172.243 77.8239 164.578 79.6137C164.578 79.6137 146.607 87.6221 137.485 91.4898C128.363 95.3574 120.865 102.82 120.637 112.481C120.409 122.143 138.32 163.323 139.989 166.371C141.659 169.42 136.392 180.174 134.176 185.71C131.96 191.246 122.838 211.13 116.767 233.229C111.56 252.098 115.036 302.802 116.175 317.211H160.465Z" fill="#D1D1D1" stroke="#263238" stroke-linecap="round" stroke-linejoin="round"/>
<path d="M169.086 158.742C169.086 158.742 183.263 160.441 197.454 146.836" stroke="#263238" stroke-linecap="round" stroke-linejoin="round"/>
<path d="M178.922 119.125C183.065 118.018 188.332 100.924 188.879 92.051C189.182 87.0912 189.486 83.3904 189.349 80.6602C188.833 80.4934 188.302 80.3114 187.831 80.1597C180.257 78.0059 172.273 77.8239 164.608 79.6137L157.293 82.8595C156.685 86.7879 157.11 90.8072 158.522 94.5232C161.512 102.82 174.778 120.232 178.922 119.125Z" fill="white" stroke="#263238" stroke-linecap="round" stroke-linejoin="round"/>
<path d="M160.404 71.1352C160.404 71.1352 161.8 87.4098 162.635 91.3989C163.47 95.3879 171.864 111.116 176.614 110.252C181.365 109.387 184.386 88.8356 184.386 86.8335C184.386 84.8314 184.947 68.6326 184.947 68.6326C184.947 68.6326 174.945 76.8381 160.404 71.1352Z" fill="white" stroke="#263238" stroke-linecap="round" stroke-linejoin="round"/>
<path d="M133.022 94.2502C133.022 94.2502 121.699 94.8114 115.34 107.522C108.98 120.232 116.433 128.756 118.922 133.761C121.411 138.767 128.332 159.182 130.533 165.264C132.734 171.346 137.181 178.52 144.922 188.47C152.663 198.42 168.965 219.685 168.965 219.685L173.397 227.42C173.397 227.42 180.864 235.99 181.684 236.263C182.504 236.536 187.497 242.891 189.425 239.023C191.353 235.156 189.425 221.353 189.425 221.353C189.425 221.353 192.461 227.42 193.584 226.04C194.707 224.66 193.295 221.626 192.203 218.305C191.11 214.983 180.88 208.643 178.648 208.355C176.417 208.067 173.67 205.321 170.361 198.693C167.052 192.065 164.548 180.492 159.296 173.545C154.044 166.599 147.153 156.421 147.153 156.421C147.153 156.421 139.413 128.786 139.413 127.679C139.974 122.522 139.215 117.305 137.212 112.512" fill="#D1D1D1"/>
<path d="M133.022 94.2502C133.022 94.2502 121.699 94.8114 115.34 107.522C108.98 120.232 116.433 128.756 118.922 133.761C121.411 138.767 128.332 159.182 130.533 165.264C132.734 171.346 137.181 178.52 144.922 188.47C152.663 198.42 168.965 219.685 168.965 219.685L173.397 227.42C173.397 227.42 180.864 235.99 181.684 236.263C182.504 236.536 187.497 242.891 189.425 239.023C191.353 235.156 189.425 221.353 189.425 221.353C189.425 221.353 192.461 227.42 193.584 226.04C194.707 224.66 193.295 221.626 192.203 218.305C191.11 214.983 180.88 208.643 178.648 208.355C176.417 208.067 173.67 205.321 170.361 198.693C167.052 192.065 164.548 180.492 159.296 173.545C154.044 166.599 147.153 156.421 147.153 156.421C147.153 156.421 139.413 128.786 139.413 127.679C139.974 122.522 139.215 117.305 137.212 112.512" stroke="#263238" stroke-linecap="round" stroke-linejoin="round"/>
<path d="M178.648 208.355C176.432 208.082 173.67 205.321 170.361 198.693C167.052 192.065 164.548 180.492 159.296 173.545C154.044 166.599 147.153 156.421 147.153 156.421C147.153 156.421 141.917 137.705 140.065 130.47C129.896 129.044 123.187 131.092 118.922 133.701C121.411 138.676 128.332 159.121 130.533 165.203C132.734 171.286 137.181 178.46 144.922 188.41C152.663 198.359 168.965 219.624 168.965 219.624L173.397 227.359C173.397 227.359 180.864 235.929 181.684 236.202C182.504 236.475 187.497 242.83 189.425 238.963C191.353 235.095 189.425 221.292 189.425 221.292C189.425 221.292 192.461 227.359 193.584 225.979C194.707 224.599 193.295 221.566 192.203 218.244C191.11 214.922 180.88 208.643 178.648 208.355Z" fill="white" stroke="#263238" stroke-linecap="round" stroke-linejoin="round"/>
<path d="M160.465 317.211C161.072 310.416 162.347 296.584 163.167 291.245C164.275 284.07 166.475 269.419 166.475 269.419L172.076 317.211H210.447C211.828 306.791 215.304 278.853 215.972 259.196C216.321 248.958 213.3 234.155 209.627 220.094C177.191 227.193 140.414 222.051 121.32 218.35C119.711 223.097 118.133 228.088 116.767 233.229C111.56 252.098 115.036 302.802 116.175 317.211H160.465Z" fill="#263238" stroke="#263238" stroke-linecap="round" stroke-linejoin="round"/>
<path d="M150.796 46.8977C150.796 46.8977 148.322 45.7905 148.322 50.7502C148.322 55.71 153.832 59.0013 153.832 59.0013L150.796 46.8977Z" fill="white" stroke="#263238" stroke-linecap="round" stroke-linejoin="round"/>
<path d="M179.195 19.657C179.195 19.657 170.361 32.0943 162.605 37.0692C158.598 39.6931 154.454 42.0896 150.174 44.2434C150.174 44.2434 154.044 60.2753 155.699 65.4777C157.353 70.6802 162.317 79.8716 172.274 80.4176C182.23 80.9637 186.663 70.4527 188.605 65.4777C189.713 62.9144 190.305 60.1388 190.351 57.348C193.174 55.5583 195.086 52.6461 195.603 49.3396C196.149 44.0917 194.768 44.3647 194.768 44.3647C194.768 44.3647 193.25 46.0786 189.956 43.5002C187.285 41.5132 178.314 27.1194 179.195 19.657Z" fill="white" stroke="#263238" stroke-linecap="round" stroke-linejoin="round"/>
<path d="M158.112 51.0686C158.112 51.0686 162.013 48.2171 167.72 51.0686" stroke="#263238" stroke-linecap="round" stroke-linejoin="round"/>
<path d="M175.765 51.5844C175.765 51.5844 180.439 47.4285 185.372 50.8108" stroke="#263238" stroke-linecap="round" stroke-linejoin="round"/>
<path d="M157.338 44.835C157.338 44.835 159.417 40.9521 166.445 42.7722" stroke="#263238" stroke-linecap="round" stroke-linejoin="round"/>
<path d="M175.765 43.0298C179.058 40.6334 183.627 41.0732 186.389 44.0612" stroke="#263238" stroke-linecap="round" stroke-linejoin="round"/>
<path d="M174.99 60.1387C174.99 60.1387 170.832 62.9901 169.025 60.1387" stroke="#263238" stroke-linecap="round" stroke-linejoin="round"/>
<path d="M167.462 66.1148C167.462 66.1148 172.653 68.1775 175.248 65.8569" stroke="#263238" stroke-linecap="round" stroke-linejoin="round"/>
<path d="M79.7315 215.21C79.7315 215.21 91.8741 242.148 94.7732 247.578C97.6722 253.008 101.042 268.463 101.452 277.64C101.861 286.816 101.452 288.712 99.3722 288.499C97.2928 288.287 96.4428 276.805 96.4428 274.925V272.012C96.4428 272.012 95.3955 282.857 93.7259 284.95C92.0563 287.043 89.7492 289.334 89.5519 288.09C89.3545 286.846 89.9617 284.738 90.7965 281.613C91.2974 279.217 91.4491 276.745 91.2215 274.303C91.2215 274.303 89.9617 280.142 87.0474 282.235C84.1332 284.328 80.9761 285.163 82.0234 283.494C83.0707 281.826 85.7876 279.945 86.41 277.852C86.8349 275.941 87.0474 273.984 87.0474 272.012C87.0474 272.012 83.0707 278.474 81.4011 279.52C79.7315 280.567 79.7315 278.277 80.7788 277.23C81.8261 276.183 84.118 269.085 84.118 269.085C84.118 269.085 83.4806 268.66 80.5663 262.199C77.6521 255.738 76.0128 244.438 75.1325 240.055C74.2522 235.671 72.6281 229.832 72.6281 229.832L56.5391 202.895C56.5391 202.895 55.2793 196.418 61.3354 195.311C67.3916 194.204 79.7315 215.21 79.7315 215.21Z" fill="white"/>
<mask id="mask0_98_2012" style="mask-type:luminance" maskUnits="userSpaceOnUse" x="56" y="195" width="46" height="94">
<path d="M79.7315 215.21C79.7315 215.21 91.8741 242.148 94.7732 247.578C97.6722 253.008 101.042 268.463 101.452 277.64C101.861 286.816 101.452 288.712 99.3722 288.499C97.2928 288.287 96.4428 276.805 96.4428 274.925V272.012C96.4428 272.012 95.3955 282.857 93.7259 284.95C92.0563 287.043 89.7492 289.334 89.5519 288.09C89.3545 286.846 89.9617 284.738 90.7965 281.613C91.2974 279.217 91.4491 276.745 91.2215 274.303C91.2215 274.303 89.9617 280.142 87.0474 282.235C84.1332 284.328 80.9761 285.163 82.0234 283.494C83.0707 281.826 85.7876 279.945 86.41 277.852C86.8349 275.941 87.0474 273.984 87.0474 272.012C87.0474 272.012 83.0707 278.474 81.4011 279.52C79.7315 280.567 79.7315 278.277 80.7788 277.23C81.8261 276.183 84.118 269.085 84.118 269.085C84.118 269.085 83.4806 268.66 80.5663 262.199C77.6521 255.738 76.0128 244.438 75.1325 240.055C74.2522 235.671 72.6281 229.832 72.6281 229.832L56.5391 202.895C56.5391 202.895 55.2793 196.418 61.3354 195.311C67.3916 194.204 79.7315 215.21 79.7315 215.21Z" fill="white"/>
</mask>
<g mask="url(#mask0_98_2012)">
<path opacity="0.15" d="M79.7315 215.21C79.7315 215.21 91.8741 242.148 94.7732 247.578C97.6722 253.008 101.042 268.463 101.452 277.64C101.861 286.816 101.452 288.712 99.3722 288.499C97.2928 288.287 96.4428 276.805 96.4428 274.925V272.012C96.4428 272.012 95.3955 282.857 93.7259 284.95C92.0563 287.043 89.7492 289.334 89.5519 288.09C89.3545 286.846 89.9617 284.738 90.7965 281.613C91.2974 279.217 91.4491 276.745 91.2215 274.303C91.2215 274.303 89.9617 280.142 87.0474 282.235C84.1332 284.328 80.9761 285.163 82.0234 283.494C83.0707 281.826 85.7876 279.945 86.41 277.852C86.8349 275.941 87.0474 273.984 87.0474 272.012C87.0474 272.012 83.0707 278.474 81.4011 279.52C79.7315 280.567 79.7315 278.277 80.7788 277.23C81.8261 276.183 84.118 269.085 84.118 269.085C84.118 269.085 83.4806 268.66 80.5663 262.199C77.6521 255.738 76.0128 244.438 75.1325 240.055C74.2522 235.671 72.6281 229.832 72.6281 229.832L56.5391 202.895C56.5391 202.895 55.2793 196.418 61.3354 195.311C67.3916 194.204 79.7315 215.21 79.7315 215.21Z" fill="black"/>
</g>
<path d="M79.7315 215.21C79.7315 215.21 91.8741 242.148 94.7732 247.578C97.6722 253.008 101.042 268.463 101.452 277.64C101.861 286.816 101.452 288.712 99.3722 288.499C97.2928 288.287 96.4428 276.805 96.4428 274.925V272.012C96.4428 272.012 95.3955 282.857 93.7259 284.95C92.0563 287.043 89.7492 289.334 89.5519 288.09C89.3545 286.846 89.9617 284.738 90.7965 281.613C91.2974 279.217 91.4491 276.745 91.2215 274.303C91.2215 274.303 89.9617 280.142 87.0474 282.235C84.1332 284.328 80.9761 285.163 82.0234 283.494C83.0707 281.826 85.7876 279.945 86.41 277.852C86.8349 275.941 87.0474 273.984 87.0474 272.012C87.0474 272.012 83.0707 278.474 81.4011 279.52C79.7315 280.567 79.7315 278.277 80.7788 277.23C81.8261 276.183 84.118 269.085 84.118 269.085C84.118 269.085 83.4806 268.66 80.5663 262.199C77.6521 255.738 76.0128 244.438 75.1325 240.055C74.2522 235.671 72.6281 229.832 72.6281 229.832L56.5391 202.895C56.5391 202.895 55.2793 196.418 61.3354 195.311C67.3916 194.204 79.7315 215.21 79.7315 215.21Z" stroke="#263238" stroke-linecap="round" stroke-linejoin="round"/>
<path d="M94.8339 255.51C94.8339 255.51 96.9285 265.748 96.716 270.329C96.5035 274.909 97.5508 277.23 96.0785 277.23C94.6062 277.23 94.2116 276.184 92.7393 271.588C91.7679 268.175 91.1456 264.687 90.8572 261.153C90.8572 261.153 85.6359 261.153 83.7538 253.417" fill="white"/>
<mask id="mask1_98_2012" style="mask-type:luminance" maskUnits="userSpaceOnUse" x="83" y="253" width="14" height="25">
<path d="M94.8339 255.51C94.8339 255.51 96.9285 265.748 96.716 270.329C96.5035 274.909 97.5508 277.23 96.0785 277.23C94.6062 277.23 94.2116 276.184 92.7393 271.588C91.7679 268.175 91.1456 264.687 90.8572 261.153C90.8572 261.153 85.6359 261.153 83.7538 253.417" fill="white"/>
</mask>
<g mask="url(#mask1_98_2012)">
<path opacity="0.15" d="M94.8339 255.51C94.8339 255.51 96.9285 265.748 96.716 270.329C96.5035 274.909 97.5508 277.23 96.0785 277.23C94.6062 277.23 94.2116 276.184 92.7393 271.588C91.7679 268.175 91.1456 264.687 90.8572 261.153C90.8572 261.153 85.6359 261.153 83.7538 253.417" fill="black"/>
</g>
<path d="M94.8339 255.51C94.8339 255.51 96.9285 265.748 96.716 270.329C96.5035 274.909 97.5508 277.23 96.0785 277.23C94.6062 277.23 94.2116 276.184 92.7393 271.588C91.7679 268.175 91.1456 264.687 90.8572 261.153C90.8572 261.153 85.6359 261.153 83.7538 253.417" stroke="#263238" stroke-linecap="round" stroke-linejoin="round"/>
<path d="M1.56336 317.211H78.4869C78.8663 302.833 81.3859 208.916 82.1449 204.715C82.9797 200.164 87.1082 157.241 87.518 140.329C87.9278 123.417 80.4904 99.0433 80.4904 97.3901C80.4904 95.7368 79.261 85.423 67.6951 76.7472C56.1293 68.0715 47.0375 68.0866 44.5634 69.3152C44.5634 69.3152 35.4565 75.5187 21.0067 90.7922C6.55701 106.066 1.59372 118.442 1.59372 141.967C1.59372 156.209 2.85351 170.406 5.3124 184.436C5.3124 184.436 0.758911 257.907 0.758911 259.56C0.758911 261.213 1.42676 307.398 1.56336 317.211Z" fill="white" stroke="#263238" stroke-linecap="round" stroke-linejoin="round"/>
<path d="M36.4734 151.128C38.1127 151.128 39.7367 151.037 41.3608 150.855C59.0587 148.929 74.4495 130.849 84.6037 115.227C84.1332 112.967 83.6627 110.798 83.1922 108.811C73.6147 124.418 58.1328 144.454 40.8751 146.335C16.8479 148.944 5.96506 130.03 2.92941 123.918C2.50441 126.254 2.18567 128.711 1.97318 131.304C7.34629 139.434 18.1988 151.128 36.4734 151.128Z" fill="#263238"/>
<path d="M30.7057 114.635L35.1074 115.803C39.6457 99.3011 48.5553 84.3157 60.9104 72.4548C59.4382 71.6812 57.9203 71.0139 56.357 70.4375C44.0626 82.6624 35.2136 97.9057 30.7057 114.635Z" fill="#263238"/>
<path d="M35.0315 136.401C36.0636 135.87 57.5712 124.676 80.2779 95.4485C79.9288 93.6133 79.3672 91.8235 78.6083 90.1248C55.7498 120.46 33.2101 132.199 32.9672 132.32L35.0315 136.401Z" fill="#263238"/>
<path d="M12.5828 119.944L17.1363 119.261C17.1363 119.14 15.8158 108.386 26.4102 85.3015C24.7102 86.9851 22.9344 88.8052 21.0523 90.7921C19.838 92.0662 18.7148 93.3251 17.6372 94.584C11.4292 111.42 12.5221 119.489 12.5828 119.944Z" fill="#263238"/>
<path d="M50.1339 187.363C23.9665 190.76 10.6703 185.27 4.72044 181.053C5.06954 183.268 5.3124 184.496 5.3124 184.496C5.3124 184.496 5.3124 185.3 5.17579 186.756C11.0043 189.957 20.3541 192.99 34.6672 192.99C40.0403 192.96 45.3982 192.596 50.7258 191.883C62.7925 190.336 74.3888 186.241 84.7403 179.87C84.9225 177.959 85.0894 176.003 85.2564 174.016C74.753 181.159 62.7318 185.725 50.1339 187.363Z" fill="#263238"/>
<path d="M48.783 215.362C60.8042 212.298 72.2638 207.323 82.6913 200.589C82.8734 198.951 83.0859 196.949 83.3288 194.659C72.4915 202.136 60.4399 207.642 47.6902 210.933C30.0682 215.256 12.9623 210.433 3.93118 206.959C3.84011 208.476 3.73386 210.114 3.64279 211.752C13.0078 215.271 22.904 217.122 32.9065 217.228C38.2493 217.228 43.5769 216.606 48.783 215.362Z" fill="#263238"/>
<path d="M1.60889 245.09C1.50265 246.728 1.41158 248.275 1.33569 249.64C13.0685 252.462 25.0897 253.918 37.1564 253.993C52.0008 254.16 66.7237 251.491 80.5663 246.137C80.5663 244.468 80.6726 242.8 80.7181 241.177C50.2401 253.993 17.6372 248.988 1.60889 245.09Z" fill="#263238"/>
<path d="M52.107 230.075C35.7752 234.033 18.6693 233.502 2.61067 228.558C2.5196 230.15 2.41335 231.728 2.32228 233.29C11.1712 235.99 20.3844 237.34 29.6432 237.279C37.5662 237.279 45.459 236.369 53.1847 234.579C62.9595 232.319 72.4156 228.801 81.2949 224.114C81.2949 222.233 81.4315 220.443 81.4922 218.775C72.279 223.901 62.3827 227.709 52.107 230.075Z" fill="#263238"/>
<path d="M39.3573 166.023C20.688 166.963 8.62126 160.077 1.92764 154.404C2.03389 156.497 2.1705 158.53 2.32228 160.471C12.1578 167.342 23.921 170.922 35.9118 170.664C37.1109 170.664 38.3403 170.664 39.585 170.573C57.9051 169.648 74.1156 161.639 87.2144 147.442C87.3662 144.788 87.4724 142.361 87.518 140.344V140.041C76.8173 153.312 61.2899 164.9 39.3573 166.023Z" fill="#263238"/>
<path d="M70.3665 78.9616C69.5317 78.2184 68.6665 77.4449 67.6951 76.7472C56.1293 68.0866 47.0375 68.0866 44.5634 69.3152C39.7367 72.834 35.1833 76.7017 30.903 80.8727C30.0226 84.6494 30.9485 88.6081 33.3922 91.6113C41.2394 101.516 66.7844 139.495 73.4629 131.244C80.1413 122.993 78.411 100.287 70.9736 80.4632C70.7915 79.9475 70.5487 79.447 70.3665 78.9616Z" fill="#777777" stroke="#263238" stroke-linecap="round" stroke-linejoin="round"/>
<path d="M46.2634 122.568C46.2634 122.568 68.5755 170.042 73.1138 177.474C75.1173 181.008 77.47 184.33 80.1413 187.378C80.1413 187.378 99.8731 194.006 116.797 200.21C133.721 206.413 163.136 214.558 169.314 216.272C175.491 217.986 185.828 217.925 187.528 217.925C189.228 217.925 209.005 222.476 210.295 223.295C211.585 224.114 209.885 225.767 206.986 226.601C204.087 227.435 194.601 228.239 190.047 229.893C185.494 231.546 181.79 231.136 175.188 229.483C169.982 227.89 164.988 225.676 160.313 222.885C160.313 222.885 106.111 219.108 93.3161 217.592C80.5208 216.075 65.9952 214.285 60.273 207.687C48.783 194.734 38.1886 181.023 28.5504 166.644C20.7791 154.905 6.55702 138.418 11.9453 123.478" fill="white"/>
<path d="M46.2634 122.568C46.2634 122.568 68.5755 170.042 73.1138 177.474C75.1173 181.008 77.47 184.33 80.1413 187.378C80.1413 187.378 99.8731 194.006 116.797 200.21C133.721 206.413 163.136 214.558 169.314 216.272C175.491 217.986 185.828 217.925 187.528 217.925C189.228 217.925 209.005 222.476 210.295 223.295C211.585 224.114 209.885 225.767 206.986 226.601C204.087 227.435 194.601 228.239 190.047 229.893C185.494 231.546 181.79 231.136 175.188 229.483C169.982 227.89 164.988 225.676 160.313 222.885C160.313 222.885 106.111 219.108 93.3161 217.592C80.5208 216.075 65.9952 214.285 60.273 207.687C48.783 194.734 38.1886 181.023 28.5504 166.644C20.7791 154.905 6.55702 138.418 11.9453 123.478" stroke="#263238" stroke-linecap="round" stroke-linejoin="round"/>
<path d="M187.421 217.925C185.767 217.925 175.446 217.925 169.207 216.272C162.969 214.619 133.554 206.398 116.63 200.21C99.7061 194.021 79.9744 187.378 79.9744 187.378C77.303 184.329 74.9504 181.008 72.9468 177.474C71.0799 174.44 66.1925 164.536 61.0774 153.995C44.609 158.302 36.3216 166.129 32.2387 172.196C40.8599 184.527 50.1794 196.357 60.1515 207.627C65.9345 214.224 80.3842 215.878 93.1947 217.531C106.005 219.184 160.116 222.9 160.116 222.9C164.791 225.691 169.784 227.905 174.99 229.498C181.593 231.151 185.312 231.561 189.85 229.908C194.388 228.254 203.905 227.435 206.789 226.616C209.673 225.797 211.342 224.129 210.098 223.31C208.853 222.491 189.137 217.925 187.421 217.925Z" fill="white"/>
<mask id="mask2_98_2012" style="mask-type:luminance" maskUnits="userSpaceOnUse" x="32" y="153" width="179" height="78">
<path d="M187.421 217.925C185.767 217.925 175.446 217.925 169.207 216.272C162.969 214.619 133.554 206.398 116.63 200.21C99.7061 194.021 79.9744 187.378 79.9744 187.378C77.303 184.329 74.9504 181.008 72.9468 177.474C71.0799 174.44 66.1925 164.536 61.0774 153.995C44.609 158.302 36.3216 166.129 32.2387 172.196C40.8599 184.527 50.1794 196.357 60.1515 207.627C65.9345 214.224 80.3842 215.878 93.1947 217.531C106.005 219.184 160.116 222.9 160.116 222.9C164.791 225.691 169.784 227.905 174.99 229.498C181.593 231.151 185.312 231.561 189.85 229.908C194.388 228.254 203.905 227.435 206.789 226.616C209.673 225.797 211.342 224.129 210.098 223.31C208.853 222.491 189.137 217.925 187.421 217.925Z" fill="white"/>
</mask>
<g mask="url(#mask2_98_2012)">
<path opacity="0.15" d="M187.421 217.925C185.767 217.925 175.446 217.925 169.207 216.272C162.969 214.619 133.554 206.398 116.63 200.21C99.7061 194.021 79.9744 187.378 79.9744 187.378C77.303 184.329 74.9504 181.008 72.9468 177.474C71.0799 174.44 66.1925 164.536 61.0774 153.995C44.609 158.302 36.3216 166.129 32.2387 172.196C40.8599 184.527 50.1794 196.357 60.1515 207.627C65.9345 214.224 80.3842 215.878 93.1947 217.531C106.005 219.184 160.116 222.9 160.116 222.9C164.791 225.691 169.784 227.905 174.99 229.498C181.593 231.151 185.312 231.561 189.85 229.908C194.388 228.254 203.905 227.435 206.789 226.616C209.673 225.797 211.342 224.129 210.098 223.31C208.853 222.491 189.137 217.925 187.421 217.925Z" fill="black"/>
</g>
<path d="M187.421 217.925C185.767 217.925 175.446 217.925 169.207 216.272C162.969 214.619 133.554 206.398 116.63 200.21C99.7061 194.021 79.9744 187.378 79.9744 187.378C77.303 184.329 74.9504 181.008 72.9468 177.474C71.0799 174.44 66.1925 164.536 61.0774 153.995C44.609 158.302 36.3216 166.129 32.2387 172.196C40.8599 184.527 50.1794 196.357 60.1515 207.627C65.9345 214.224 80.3842 215.878 93.1947 217.531C106.005 219.184 160.116 222.9 160.116 222.9C164.791 225.691 169.784 227.905 174.99 229.498C181.593 231.151 185.312 231.561 189.85 229.908C194.388 228.254 203.905 227.435 206.789 226.616C209.673 225.797 211.342 224.129 210.098 223.31C208.853 222.491 189.137 217.925 187.421 217.925Z" stroke="#263238" stroke-linecap="round" stroke-linejoin="round"/>
<path d="M78.4869 317.211C78.669 310.052 79.3976 283.009 80.1717 257.209C69.2281 261.471 57.7534 264.231 46.0661 265.399C21.7808 268.236 7.78646 262.366 0.865163 257.816C0.865163 258.832 0.774094 259.469 0.774094 259.605C0.774094 261.122 1.42676 307.383 1.56336 317.242L78.4869 317.211Z" fill="#D1D1D1" stroke="#263238" stroke-linecap="round" stroke-linejoin="round"/>
<path d="M59.1346 313.768C55.3704 299.496 64.4773 281.295 51.3329 271.846" stroke="#263238" stroke-linecap="round" stroke-linejoin="round"/>
<path d="M59.1346 280.931L76.0432 264.702" stroke="#263238" stroke-linecap="round" stroke-linejoin="round"/>
<path d="M16.7416 281.037L16.3015 313.768" stroke="#263238" stroke-linecap="round" stroke-linejoin="round"/>
<path d="M16.8934 269.252L16.8175 275.228" stroke="#263238" stroke-linecap="round" stroke-linejoin="round"/>
<path d="M84.6645 2.76042C91.3884 4.535 97.3232 8.4937 101.543 14.0146C104.411 17.67 106.354 21.9775 107.204 26.5429C109.223 38.8285 102.302 42.6204 104.533 48.202C106.764 53.7836 108.995 56.6806 107.204 59.3652C105.413 62.0498 99.8427 62.4897 98.9472 62.7172C98.0517 62.9447 96.2607 73.1979 92.6938 77.6723C89.1269 82.1467 76.6048 77.0049 76.6048 77.0049C76.6048 77.0049 71.4745 85.711 69.9112 88.608C68.3478 91.505 71.429 108.917 69.2281 116.728C67.0273 124.54 61.8667 116.061 52.0311 103.791C42.1956 91.5201 37.7332 81.4641 38.1886 78.1121C38.6439 74.7601 46.4455 66.9489 47.7964 64.0519C49.1473 61.155 49.7999 59.8051 49.1321 57.1356C48.4643 54.4661 40.6474 43.4849 40.6474 29.4551C40.6474 15.4252 51.8035 2.00205 66.5568 0.879657C72.6584 0.485304 78.7753 1.12234 84.6645 2.76042Z" fill="white"/>
<mask id="mask3_98_2012" style="mask-type:luminance" maskUnits="userSpaceOnUse" x="38" y="0" width="70" height="120">
<path d="M84.6645 2.76042C91.3884 4.535 97.3232 8.4937 101.543 14.0146C104.411 17.67 106.354 21.9775 107.204 26.5429C109.223 38.8285 102.302 42.6204 104.533 48.202C106.764 53.7836 108.995 56.6806 107.204 59.3652C105.413 62.0498 99.8427 62.4897 98.9472 62.7172C98.0517 62.9447 96.2607 73.1979 92.6938 77.6723C89.1269 82.1467 76.6048 77.0049 76.6048 77.0049C76.6048 77.0049 71.4745 85.711 69.9112 88.608C68.3478 91.505 71.429 108.917 69.2281 116.728C67.0273 124.54 61.8667 116.061 52.0311 103.791C42.1956 91.5201 37.7332 81.4641 38.1886 78.1121C38.6439 74.7601 46.4455 66.9489 47.7964 64.0519C49.1473 61.155 49.7999 59.8051 49.1321 57.1356C48.4643 54.4661 40.6474 43.4849 40.6474 29.4551C40.6474 15.4252 51.8035 2.00205 66.5568 0.879657C72.6584 0.485304 78.7753 1.12234 84.6645 2.76042Z" fill="white"/>
</mask>
<g mask="url(#mask3_98_2012)">
<path opacity="0.15" d="M84.6645 2.76042C91.3884 4.535 97.3232 8.4937 101.543 14.0146C104.411 17.67 106.354 21.9775 107.204 26.5429C109.223 38.8285 102.302 42.6204 104.533 48.202C106.764 53.7836 108.995 56.6806 107.204 59.3652C105.413 62.0498 99.8427 62.4897 98.9472 62.7172C98.0517 62.9447 96.2607 73.1979 92.6938 77.6723C89.1269 82.1467 76.6048 77.0049 76.6048 77.0049C76.6048 77.0049 71.4745 85.711 69.9112 88.608C68.3478 91.505 71.429 108.917 69.2281 116.728C67.0273 124.54 61.8667 116.061 52.0311 103.791C42.1956 91.5201 37.7332 81.4641 38.1886 78.1121C38.6439 74.7601 46.4455 66.9489 47.7964 64.0519C49.1473 61.155 49.7999 59.8051 49.1321 57.1356C48.4643 54.4661 40.6474 43.4849 40.6474 29.4551C40.6474 15.4252 51.8035 2.00205 66.5568 0.879657C72.6584 0.485304 78.7753 1.12234 84.6645 2.76042Z" fill="black"/>
</g>
<path d="M84.6645 2.76042C91.3884 4.535 97.3232 8.4937 101.543 14.0146C104.411 17.67 106.354 21.9775 107.204 26.5429C109.223 38.8285 102.302 42.6204 104.533 48.202C106.764 53.7836 108.995 56.6806 107.204 59.3652C105.413 62.0498 99.8427 62.4897 98.9472 62.7172C98.0517 62.9447 96.2607 73.1979 92.6938 77.6723C89.1269 82.1467 76.6048 77.0049 76.6048 77.0049C76.6048 77.0049 71.4745 85.711 69.9112 88.608C68.3478 91.5049 71.429 108.917 69.2281 116.728C67.0273 124.54 61.8667 116.061 52.0312 103.791C42.1956 91.5201 37.7332 81.4641 38.1886 78.1121C38.6439 74.7601 46.4455 66.9489 47.7964 64.0519C49.1473 61.155 49.7999 59.8051 49.1321 57.1356C48.4643 54.4661 40.6474 43.4849 40.6474 29.4551C40.6474 15.4252 51.8035 2.00205 66.5568 0.879657C72.6584 0.485304 78.7753 1.12234 84.6645 2.76042Z" stroke="#263238" stroke-linecap="round" stroke-linejoin="round"/>
<path d="M87.3358 12.9377C92.7089 10.2986 96.5187 10.3745 99.0079 11.1177C95.0616 7.11346 90.0983 4.23166 84.6645 2.76042C78.7753 1.12234 72.6584 0.485304 66.5568 0.879657C51.8035 2.00205 40.6474 15.3949 40.6474 29.4551C40.6474 43.5153 48.4643 54.451 49.1321 57.1356C49.3749 58.0153 49.4357 58.9405 49.2991 59.8506C59.9239 61.9588 63.3997 56.6502 63.3997 56.6502C60.9104 56.9687 58.406 56.2407 56.4784 54.6481C53.3365 51.9635 53.3365 41.6952 57.1462 37.0084C60.956 32.3217 64.7354 38.7982 64.7354 42.59C64.7354 46.3819 66.5264 49.5064 68.3174 49.0665C70.1085 48.6267 69.6531 44.3798 70.321 41.6952C70.9888 39.0105 78.8056 35.0063 80.5967 32.7767C82.3877 30.5471 79.7012 28.5299 76.8021 25.193C73.903 21.8562 76.3771 18.2918 87.3358 12.9377Z" fill="#020202" stroke="#263238" stroke-linecap="round" stroke-linejoin="round"/>
<path d="M62.9595 57.3479C62.9595 57.3479 62.9595 63.612 66.7693 67.6162" stroke="#263238" stroke-linecap="round" stroke-linejoin="round"/>
<path d="M97.7481 46.0482C95.8509 45.2444 93.8018 44.941 91.7527 45.1534" stroke="#263238" stroke-linecap="round" stroke-linejoin="round"/>
<path d="M101.042 40.6639C101.042 40.6639 97.7481 34.9761 91.4491 39.4657" stroke="#263238" stroke-linecap="round" stroke-linejoin="round"/>
<path d="M93.3161 65.8114C90.4929 66.0541 87.8823 64.3099 87.0171 61.6252" stroke="#263238" stroke-linecap="round" stroke-linejoin="round"/>
<path d="M49.9821 130.576L47.1286 124.509C28.778 124.828 18.0318 131.668 11.9605 138.16C12.6132 140.314 13.4328 142.422 14.4194 144.454C19.2005 138.251 29.4459 130.136 49.9821 130.576Z" fill="#263238"/>
<path d="M56.3418 143.908L53.4883 137.932C36.4431 138.842 24.9835 145.122 17.9559 150.885C19.0184 152.645 20.1568 154.374 21.2951 156.057C27.7763 150.597 39.0537 144.227 56.3418 143.908Z" fill="#263238"/>
<path d="M253.917 184.436C255.83 190.154 257.105 210.493 257.105 221.308C257.105 230.317 251.337 295.84 249.425 317.211H335.668C336.7 296.356 339.781 233.684 339.781 225.752C339.781 216.211 336.594 177.125 340.737 163.459C344.881 149.793 349.632 113.892 342.255 102.789C334.878 91.6869 307.345 85.3166 299.012 82.45C290.679 79.5833 278.339 78.0059 272.298 80.9332C272.298 80.9332 255.769 90.155 245.585 99.6801C235.4 109.205 230.968 123.842 232.865 135.597C234.762 147.351 252.005 178.718 253.917 184.436Z" fill="white" stroke="#263238" stroke-linecap="round" stroke-linejoin="round"/>
<path d="M328.853 92.779C325.134 91.0651 321.324 89.5483 317.454 88.2288C303.414 124.009 281.329 156.103 252.901 181.994C253.371 183.04 253.72 183.89 253.917 184.466C254.874 188.182 255.496 191.989 255.769 195.811C288.251 167.994 313.34 132.609 328.853 92.779Z" fill="#263238"/>
<path d="M345.67 134.171C346.414 126.603 346.277 118.958 345.245 111.42C327.532 141.315 296.902 186.908 257.075 222.597C256.968 225.737 256.574 231.864 255.982 239.63C294.747 207.566 325.407 166.114 345.67 134.171Z" fill="#263238"/>
<path d="M335.668 317.211C336.396 302.362 338.172 266.34 339.128 243.937C297.16 251.961 267.654 244.332 255.936 240.221C254.145 263.837 250.791 301.877 249.425 317.211H335.668Z" fill="#263238" stroke="#263238" stroke-linecap="round" stroke-linejoin="round"/>
<path d="M283.166 118.761C294.684 118.761 304.021 109.736 304.021 98.6033C304.021 87.4706 294.684 78.4458 283.166 78.4458C271.648 78.4458 262.311 87.4706 262.311 98.6033C262.311 109.736 271.648 118.761 283.166 118.761Z" fill="#777777" stroke="#263238" stroke-linecap="round" stroke-linejoin="round"/>
<path d="M264.102 73.2131C264.102 73.2131 267.593 85.6049 267.593 92.9307C267.593 100.257 275.547 117.092 288.585 109.463C301.623 101.834 294.944 84.3611 292.713 78.9464C291.135 74.8057 289.86 70.5588 288.903 66.2361C288.903 66.2361 284.76 73.8198 276.761 74.1838C272.511 74.4417 268.261 74.108 264.102 73.2131Z" fill="white" stroke="#263238" stroke-linecap="round" stroke-linejoin="round"/>
<path d="M242.594 28.2266C242.594 28.2266 240.394 33.702 243.141 38.0854C245.888 42.4688 249.652 48.4751 249.652 48.4751L249.106 24.4044C249.106 24.4044 243.687 20.021 242.594 28.2266Z" fill="#020202" stroke="#263238" stroke-linecap="round" stroke-linejoin="round"/>
<path d="M249.652 42.9995C249.652 42.9995 245.266 44.6528 247.452 51.7511C249.637 58.8495 252.931 56.6805 252.931 56.6805L249.652 42.9995Z" fill="white" stroke="#263238" stroke-linecap="round" stroke-linejoin="round"/>
<path d="M245.645 30.6382C245.645 30.6382 249.47 50.3559 251.717 60.1843C253.963 70.0128 266.03 78.9313 272.389 80.8424C278.749 82.7534 287.021 75.7613 288.934 71.6357C290.846 67.5102 291.787 58.2884 291.787 58.2884C291.787 58.2884 298.784 55.4218 299.376 48.1111C299.968 40.8004 298.101 38.5859 294.292 37.6304L291.423 36.3563C291.423 36.3563 293.017 24.6016 288.888 17.2909C284.76 9.98019 270.128 19.5205 262.493 21.7349C254.859 23.9494 244.689 23.3275 245.645 30.6382Z" fill="white" stroke="#263238" stroke-linecap="round" stroke-linejoin="round"/>
<path d="M264.102 44.9412C264.102 44.9412 262.584 56.3774 264.724 57.3329C266.865 58.2885 271.084 56.0589 272.04 55.7404" stroke="#263238" stroke-linecap="round" stroke-linejoin="round"/>
<path d="M270.143 64.4008C270.143 64.4008 279.038 65.6749 282.544 55.4976" stroke="#263238" stroke-linecap="round" stroke-linejoin="round"/>
<path d="M253.28 42.3929C254.722 40.1633 257.317 38.9347 259.958 39.2229" stroke="#263238" stroke-linecap="round" stroke-linejoin="round"/>
<path d="M268.549 37.6305C268.549 37.6305 274.909 34.4453 278.719 37.949" stroke="#263238" stroke-linecap="round" stroke-linejoin="round"/>
<path d="M259.193 50.6366C260.06 50.4859 260.519 48.9589 260.217 47.2257C259.916 45.4926 258.969 44.2097 258.101 44.3603C257.234 44.511 256.776 46.038 257.077 47.7712C257.379 49.5043 258.326 50.7872 259.193 50.6366Z" fill="#263238"/>
<path d="M273.205 47.796C274.072 47.6454 274.531 46.1183 274.23 44.3852C273.928 42.652 272.981 41.3691 272.114 41.5198C271.246 41.6704 270.788 43.1975 271.089 44.9306C271.391 46.6637 272.338 47.9466 273.205 47.796Z" fill="#263238"/>
<path d="M281.906 22.0534C273.467 26.0121 264.618 29.0304 255.511 31.0325C241.517 33.884 235.157 30.714 235.779 23.7218C236.402 16.7296 254.54 1.47119 271.069 1.47119C287.598 1.47119 293.335 9.0549 294.292 17.0481C294.808 23.919 294.808 30.8353 294.292 37.7061L291.423 41.8317C291.423 41.8317 292.152 38.6162 287.598 36.0377C283.045 33.4593 279.675 28.727 281.906 22.0534Z" fill="#020202" stroke="#263238" stroke-linecap="round" stroke-linejoin="round"/>
<path d="M370.411 44.7743C373.522 47.1556 369.864 57.1054 380.125 65.0834C403.742 83.436 417.403 95.8581 419.922 123.129C422.685 152.857 406.702 164.415 411.665 174.319C416.629 184.223 423.231 195.781 412.758 204.654C402.285 213.527 385.225 221.171 370.912 200.255C356.599 179.34 348.873 133.109 342.817 107.734C336.761 82.3591 326.849 70.3162 328.488 59.3047C330.097 48.6875 338.764 41.1038 349.131 39.2685C356.69 37.9489 364.446 39.951 370.411 44.7743Z" fill="#020202" stroke="#263238" stroke-linecap="round" stroke-linejoin="round"/>
<path d="M341.967 150.446L297.828 182.707C297.828 182.707 227.143 207.945 222.984 209.234C218.825 210.524 199.002 214.027 194.844 216.257C190.685 218.487 182.701 233.199 181.411 236.718C180.728 237.977 181.183 239.554 182.443 240.237C183.217 240.661 184.158 240.661 184.932 240.237C185.888 239.266 195.162 230.317 198.046 229.999C200.93 229.68 203.48 229.362 203.48 229.362C203.48 229.362 196.119 235.762 195.8 237.673C195.481 239.584 197.09 238.947 199.002 237.992C200.915 237.036 208.276 234.473 211.145 229.362C214.014 224.25 216.579 221.368 221.375 219.457C226.172 217.546 288.767 203.987 299.968 202.075C311.17 200.164 351.468 175.972 353.396 175.654C355.324 175.335 348.053 150.446 341.967 150.446Z" fill="white" stroke="#263238" stroke-linecap="round" stroke-linejoin="round"/>
<path d="M333.345 191.701C333.74 192.884 332.556 209.523 331.752 238.447C331.145 260.637 325.878 300.072 323.449 317.211H407.825C408.432 299.829 409.191 260.076 404.304 243.589C397.959 222.203 390.826 217.804 388.458 208.34C386.09 198.875 382.508 146.532 376.558 126.724C370.608 106.915 352.774 95.0238 349.996 90.6707C347.218 86.3177 338.491 60.9578 338.491 60.9578L323.434 73.6377C323.434 73.6377 334.529 91.4594 336.123 97.0107C337.717 102.562 325.407 115.621 319.078 129.105C312.749 142.589 311.489 153.267 317.09 161.578C322.69 169.89 332.951 190.503 333.345 191.701Z" fill="#D1D1D1"/>
<mask id="mask4_98_2012" style="mask-type:luminance" maskUnits="userSpaceOnUse" x="313" y="60" width="96" height="258">
<path d="M333.345 191.701C333.74 192.884 332.556 209.523 331.752 238.447C331.145 260.637 325.878 300.072 323.449 317.211H407.825C408.432 299.829 409.191 260.076 404.304 243.589C397.959 222.203 390.826 217.804 388.458 208.34C386.09 198.875 382.508 146.532 376.558 126.724C370.608 106.915 352.774 95.0238 349.996 90.6707C347.218 86.3177 338.491 60.9578 338.491 60.9578L323.434 73.6377C323.434 73.6377 334.529 91.4594 336.123 97.0107C337.717 102.562 325.407 115.621 319.078 129.105C312.749 142.589 311.489 153.267 317.09 161.578C322.69 169.89 332.951 190.503 333.345 191.701Z" fill="white"/>
</mask>
<g mask="url(#mask4_98_2012)">
<path d="M346.247 273.104L360.074 276.138L373.902 273.104L387.729 276.138L401.557 273.104L407.962 274.5L407.825 271.375L401.557 269.995L387.729 273.029L373.902 269.995L360.074 273.029L346.247 269.995L332.435 273.029L329.111 272.301C329.004 273.317 328.898 274.318 328.777 275.334L332.435 276.138L346.247 273.104Z" fill="white"/>
<path d="M361.516 169.299L347.689 172.332L333.862 169.299L323.055 171.665L324.572 174.44L333.877 172.408L347.704 175.441L361.532 172.408L375.359 175.441L384.102 173.515C383.98 172.514 383.874 171.498 383.753 170.482L375.359 172.332L361.516 169.299Z" fill="white"/>
<path d="M346.247 296.204L360.074 299.238L373.902 296.204L387.729 299.238L401.557 296.204L408.25 297.721V294.688L401.541 293.171L387.714 296.204L373.887 293.171L360.059 296.204L346.232 293.171L332.42 296.204L326.439 294.885C326.318 295.916 326.181 296.917 326.06 297.918L332.42 299.314L346.247 296.204Z" fill="white"/>
<path d="M408.129 306.108L401.557 304.667L387.729 307.701L373.902 304.667L360.074 307.701L346.247 304.667L332.435 307.701L324.982 306.063C324.846 307.094 324.709 308.11 324.588 309.096L332.435 310.81L346.247 307.777L360.074 310.81L373.902 307.777L387.729 310.81L401.557 307.777L408.068 309.218C408.068 308.201 408.114 307.17 408.129 306.108Z" fill="white"/>
<path d="M315.025 139.677L320.034 140.769L333.861 137.735L347.689 140.769L361.516 137.735L375.344 140.769L379.487 139.859C379.305 138.842 379.123 137.841 378.941 136.825L375.344 137.614L361.516 134.58L347.689 137.614L333.861 134.58L320.034 137.614L315.936 136.719C315.602 137.735 315.298 138.721 315.025 139.677Z" fill="white"/>
<path d="M361.516 146.183L347.689 149.217L333.861 146.183L320.034 149.217L313.598 147.806C313.538 148.838 313.538 149.884 313.598 150.916L320.034 152.326L333.861 149.293L347.689 152.326L361.516 149.293L375.344 152.326L381.263 151.022C381.111 150.006 380.975 149.004 380.823 147.988L375.344 149.187L361.516 146.183Z" fill="white"/>
<path d="M361.516 157.741L347.689 160.774L333.861 157.741L320.034 160.774L316.088 159.91C316.391 160.471 316.725 161.032 317.089 161.578C317.454 162.124 317.894 162.807 318.319 163.505L320.034 163.884L333.861 160.85L347.689 163.884L361.516 160.85L375.344 163.884L382.751 162.261C382.629 161.245 382.493 160.244 382.371 159.227L375.344 160.744L361.516 157.741Z" fill="white"/>
<path d="M346.247 284.662L360.074 287.696L373.902 284.662L387.729 287.696L401.557 284.662L408.235 286.179V283.069L401.602 281.553L387.775 284.586L373.947 281.553L360.12 284.586L346.292 281.553L332.48 284.586L327.927 283.57L327.562 286.603L332.526 287.696L346.247 284.662Z" fill="white"/>
</g>
<path d="M333.345 191.701C333.74 192.884 332.556 209.523 331.752 238.447C331.145 260.637 325.878 300.072 323.449 317.211H407.825C408.432 299.829 409.191 260.076 404.304 243.589C397.959 222.203 390.826 217.804 388.458 208.34C386.09 198.875 382.508 146.532 376.558 126.724C370.608 106.915 352.774 95.0238 349.996 90.6707C347.218 86.3177 338.491 60.9578 338.491 60.9578L323.434 73.6377C323.434 73.6377 334.529 91.4594 336.123 97.0107C337.717 102.562 325.407 115.621 319.078 129.105C312.749 142.589 311.489 153.267 317.09 161.578C322.69 169.89 332.951 190.503 333.345 191.701Z" stroke="#263238" stroke-linecap="round" stroke-linejoin="round"/>
<path d="M323.419 166.114C323.419 166.114 328.519 176.321 345.549 172.347" stroke="#263238" stroke-linecap="round" stroke-linejoin="round"/>
<path d="M369.94 231.879C369.94 231.879 344.41 263.064 333.057 287.999" stroke="#263238" stroke-linecap="round" stroke-linejoin="round"/>
<path d="M342.71 257.406C342.71 257.406 331.919 277.245 329.05 289.713" stroke="#263238" stroke-linecap="round" stroke-linejoin="round"/>
<path d="M328.291 126.026C336.533 121.476 347.051 101.758 351.635 98.1179L354.762 95.6153C353.016 94.1289 351.423 92.4757 349.996 90.6707C347.218 86.3177 338.491 60.9578 338.491 60.9578L323.434 73.6377C323.434 73.6377 334.529 91.4594 336.123 97.0107C337.519 101.91 328.094 112.694 321.506 124.418C322.28 126.587 324.102 128.347 328.291 126.026Z" fill="white" stroke="#263238" stroke-linecap="round" stroke-linejoin="round"/>
<path d="M310.138 30.4562C308.377 34.6273 307.497 39.1017 307.558 43.6216C307.831 47.6258 308.696 50.7957 307.087 54.7544C306.146 57.0296 302.959 59.9265 303.399 62.5505C303.793 64.9166 309.743 65.7205 309.743 65.7205C309.743 65.7205 315.693 84.3309 318.85 84.7253C322.007 85.1196 329.156 83.2085 338.263 75.6248C347.37 68.0411 336.29 40.7398 328.352 33.6262C320.414 26.5127 314.099 25.6937 310.138 30.4562Z" fill="white" stroke="#263238" stroke-linecap="round" stroke-linejoin="round"/>
<path d="M312.84 55.2852C313.41 55.2852 313.872 53.9814 313.872 52.3731C313.872 50.7647 313.41 49.4609 312.84 49.4609C312.27 49.4609 311.807 50.7647 311.807 52.3731C311.807 53.9814 312.27 55.2852 312.84 55.2852Z" fill="#263238"/>
<path d="M310.092 45.6843C310.092 45.6843 311.124 41.5588 315.253 44.6529" stroke="#263238" stroke-linecap="round" stroke-linejoin="round"/>
<path d="M312.157 69.7095C312.157 69.7095 314.904 70.4072 318 66.676" stroke="#263238" stroke-linecap="round" stroke-linejoin="round"/>
<path d="M318.865 9.44935C318.865 9.44935 304.188 9.85887 301.805 19.3537C299.422 28.8485 310.138 37.1905 317.666 41.1492C325.195 45.1079 331.934 51.4479 331.934 58.1823C331.934 64.9166 332.344 72.8491 337.884 79.9778C343.424 87.1065 356.098 93.0521 366.039 92.6578C375.981 92.2634 365.25 68.9511 370.79 52.267C376.33 35.5828 369.272 18.9897 358.101 11.861C346.93 4.73229 318.865 9.44935 318.865 9.44935Z" fill="#020202" stroke="#263238" stroke-linecap="round" stroke-linejoin="round"/>
<path d="M408.478 153.297C408.341 155.375 408.023 157.438 407.507 159.455" stroke="white" stroke-linecap="round" stroke-linejoin="round"/>
<path d="M315.496 34.0659C318.228 38.6161 323.404 43.4697 333.133 46.1999C354.383 52.2668 362.473 66.9337 362.473 79.5682C362.473 92.2026 363.49 101.303 383.722 111.42C395.804 117.456 404.532 128.589 407.507 141.755" stroke="white" stroke-linecap="round" stroke-linejoin="round"/>
<path d="M312.384 23.9495C312.384 24.8292 312.475 25.7089 312.642 26.5734" stroke="white" stroke-linecap="round" stroke-linejoin="round"/>
<path d="M340.722 23.9495C340.722 23.9495 366.024 36.5991 365.508 53.7838C364.992 70.9684 366.525 87.1521 382.204 96.7531C397.883 106.354 414.079 112.436 419.649 131.638" stroke="white" stroke-linecap="round" stroke-linejoin="round"/>
<path d="M354.838 115.97C354.838 115.97 348.114 118.518 344.608 131.623C341.102 144.727 355.475 167.736 357.722 177.974C359.968 188.212 362.199 203.85 362.199 203.85C362.199 203.85 311.974 244.802 304.628 251.157C297.282 257.512 293.427 261.698 293.427 261.698C293.427 261.698 275.213 277.685 273.604 280.885C271.995 284.086 267.532 300.694 269.126 301.331C270.72 301.968 273.604 294.945 273.604 293.671C273.604 292.397 276.791 285.36 276.791 285.36C276.791 285.36 274.241 301.619 274.241 302.529C274.241 303.439 276.791 302.529 277.11 301.24C277.429 299.951 280.95 286.543 280.95 286.543C280.95 286.543 279.038 301.558 280.313 303.227C281.587 304.895 283.834 293.641 283.834 293.641L286.384 284.692C286.384 284.692 285.746 300.345 287.037 300.982C288.327 301.619 291.195 285.648 291.195 285.648C291.195 285.648 296.948 274.136 299.179 270.298C300.454 268.205 301.426 265.96 302.063 263.594C302.063 263.594 331.812 247.289 350.36 238.341C368.908 229.392 384.587 212.768 386.5 209.902C388.412 207.035 384.253 166.75 381.066 149.49C377.879 132.229 371.155 111.42 354.838 115.97Z" fill="white" stroke="#263238" stroke-linecap="round" stroke-linejoin="round"/>
<path d="M250.927 95.3728C250.927 95.3728 239.483 103.154 230.33 110.54C221.178 117.927 222.544 132.503 222.544 135.703C222.544 138.903 222.089 153.54 222.089 153.54L215.213 168.176C215.213 168.176 204.694 177.793 202.402 180.083C200.11 182.373 186.845 208.431 186.845 208.431L183.642 212.981L201.082 215.226C207.593 207.976 214.803 201.363 222.59 195.508C233.988 187.257 243.581 164.506 244.052 161.7C245.979 154.04 247.345 146.244 248.135 138.372" fill="white"/>
<path d="M250.927 95.3728C250.927 95.3728 239.483 103.154 230.33 110.54C221.178 117.927 222.544 132.503 222.544 135.703C222.544 138.903 222.089 153.54 222.089 153.54L215.213 168.176C215.213 168.176 204.694 177.793 202.402 180.083C200.11 182.373 186.845 208.431 186.845 208.431L183.642 212.981L201.082 215.226C207.593 207.976 214.803 201.363 222.59 195.508C233.988 187.257 243.581 164.506 244.052 161.7C245.979 154.04 247.345 146.244 248.135 138.372" stroke="#263238" stroke-linecap="round" stroke-linejoin="round"/>
<path d="M245.099 156.816C237.404 144.197 226.885 145.835 222.21 147.412C222.104 150.749 222.028 153.479 222.028 153.479L215.152 168.116C215.152 168.116 204.634 177.732 202.342 180.022C200.05 182.312 186.784 208.37 186.784 208.37L183.581 212.92L201.082 215.226C207.593 207.976 214.803 201.363 222.59 195.508C233.988 187.257 243.581 164.506 244.052 161.7C244.219 160.775 244.644 159.076 245.099 156.816Z" fill="white" stroke="#263238" stroke-linecap="round" stroke-linejoin="round"/>
<path d="M193.371 202.424C193.371 202.424 182.003 211.707 179.711 214.649C177.419 217.592 175.628 234.898 176.539 236.157C177.449 237.416 183.809 240.798 186.541 237.84C189.273 234.883 199.276 220.625 199.276 220.625C199.276 220.625 191.687 230.878 197.105 230.302C202.524 229.726 205.635 221.384 208.823 217.592C212.01 213.8 211.555 213.375 208.823 207.9L206.106 202.424" fill="white"/>
<path d="M193.371 202.424C193.371 202.424 182.003 211.707 179.711 214.649C177.419 217.592 175.628 234.898 176.539 236.157C177.449 237.416 183.809 240.798 186.541 237.84C189.273 234.883 199.276 220.625 199.276 220.625C199.276 220.625 191.687 230.878 197.105 230.302C202.524 229.726 205.635 221.384 208.823 217.592C212.01 213.8 211.555 213.375 208.823 207.9L206.106 202.424" stroke="#263238" stroke-linecap="round" stroke-linejoin="round"/>
<path d="M176.554 236.141C176.554 236.141 182.337 216.424 184.644 214.907" stroke="#263238" stroke-linecap="round" stroke-linejoin="round"/>
<path d="M179.271 237.582C179.271 237.582 185.979 219.048 189.44 215.21" stroke="#263238" stroke-linecap="round" stroke-linejoin="round"/>
<path d="M182.868 238.902C182.868 238.902 190.138 220.701 194.904 216.287" stroke="#263238" stroke-linecap="round" stroke-linejoin="round"/>
<path d="M199.276 220.625C199.276 220.625 203.146 217.197 203.738 215.135L199.276 220.625Z" fill="white"/>
<path d="M199.276 220.625C199.276 220.625 203.146 217.197 203.738 215.135" stroke="#263238" stroke-linecap="round" stroke-linejoin="round"/>
</g>
<defs>
<clipPath id="clip0_98_2012">
<rect width="421" height="318" fill="white"/>
</clipPath>
</defs>
</svg>
