<svg width="252" height="364" viewBox="0 0 252 364" fill="none" xmlns="http://www.w3.org/2000/svg">
<g clip-path="url(#clip0_96_1126)">
<path d="M191.555 68.2393C197.39 68.9044 209.667 91.7376 209.667 91.7376L212.953 91.9834C212.953 91.9834 219.44 107.673 215.415 111.679C213.779 113.298 210.101 113.544 205.845 107.196C199.533 97.8544 193.886 87.3994 193.886 87.3994L191.555 68.2393Z" fill="#263238"/>
<path d="M162.006 27.7642C162.006 27.7642 156.331 15.5017 148.079 25.7542C139.826 36.0067 153.016 54.2125 151.843 63.6118C150.67 73.0112 146.486 74.6452 146.486 74.6452C146.486 74.6452 156.012 75.99 160.283 69.3816C164.554 62.7731 162.006 27.7642 162.006 27.7642Z" fill="#050505"/>
<path d="M198.085 121.179L147.413 128.843L148.86 86.5172L193.264 85.4326C193.264 85.4326 198.707 103.306 198.085 121.179Z" fill="#263238"/>
<path opacity="0.2" d="M198.085 121.179L147.413 128.843L148.86 86.5172L193.264 85.4326C193.264 85.4326 198.707 103.306 198.085 121.179Z" fill="black"/>
<path d="M226.751 352.171L233.483 350.335C231.022 316.439 224.362 275.531 218.701 244.86C217.818 240.059 216.964 235.518 216.139 231.281C215.733 229.271 215.371 227.334 214.995 225.497C213.2 216.3 211.679 209.041 210.738 204.558C210.058 201.276 209.667 199.483 209.667 199.483L185.46 206.496L187.473 212.584L194.132 232.684L194.885 234.983L199.229 248.258L206.771 270.831C207.799 305.406 226.751 352.171 226.751 352.171Z" fill="#D8D8D8" stroke="#232323" stroke-width="0.25" stroke-miterlimit="10"/>
<path d="M168.072 350.581L175.022 349.901C178.656 313.142 178.8 267.375 178.294 235.576C178.221 230.645 178.12 226.032 178.033 221.868V221.246C177.845 212.975 177.628 206.395 177.468 202.216L177.266 197.169L152.219 199.96L153.783 210.372L156.099 225.613L156.548 228.621L158.112 239.032L162.296 266.97C157.359 301.213 168.072 350.581 168.072 350.581Z" fill="#D8D8D8" stroke="#232323" stroke-width="0.25" stroke-miterlimit="10"/>
<path opacity="0.2" d="M156.099 225.613L178.105 221.824V221.202C177.917 212.931 177.7 206.351 177.541 202.172L153.754 210.314L156.099 225.613Z" fill="black"/>
<path opacity="0.2" d="M213.171 216.286L190.006 220.205L187.473 212.555L210.738 204.53C211.346 207.422 212.172 211.384 213.171 216.286Z" fill="black"/>
<path d="M153.204 133.89C153.204 133.89 138.19 168.928 152.219 219.742L179.582 216.619V190.431L185.489 215.664L212.997 210.169C204.556 168.928 196.956 150.23 196.956 150.23L194.914 129.479L153.204 133.89Z" fill="#111111"/>
<path opacity="0.7" d="M153.204 133.89C153.204 133.89 138.19 168.928 152.219 219.742L179.582 216.619V190.431L185.489 215.664L212.997 210.169C204.556 168.928 196.956 150.23 196.956 150.23L194.914 129.479L153.204 133.89Z" fill="#303030"/>
<path d="M165.886 141.496L187.487 139.587V132.588L165.886 134.454V141.496Z" fill="#263238"/>
<path d="M163.99 134.613L153.16 135.553L152.19 142.711L163.99 141.655V134.613Z" fill="#263238"/>
<path d="M189.138 132.444V139.443L193.988 139.009V132.039L189.138 132.444Z" fill="#263238"/>
<path d="M181.783 133.254C181.262 132.776 180.552 132.53 179.843 132.603L174.747 133.037C173.429 133.138 172.43 134.237 172.43 135.553V138.806C172.43 139.515 172.734 140.195 173.255 140.672C173.719 141.106 174.327 141.337 174.964 141.337H175.195L180.292 140.889C181.595 140.787 182.608 139.688 182.594 138.373V135.119C182.594 134.41 182.304 133.731 181.783 133.254ZM180.176 139.573L175.08 140.035C174.399 140.093 173.791 139.587 173.733 138.893C173.733 138.864 173.733 138.835 173.733 138.806V135.553C173.733 134.916 174.225 134.396 174.862 134.338L179.959 133.89H180.074C180.378 133.89 180.668 134.005 180.9 134.208C181.146 134.454 181.291 134.772 181.291 135.119V135.611H181.088L179.64 135.726C179.162 135.813 178.858 136.261 178.945 136.738C179.018 137.143 179.365 137.433 179.77 137.447L181.218 137.346H181.291V138.416C181.276 139.023 180.784 139.529 180.176 139.573Z" fill="white"/>
<path d="M164.786 349.135C164.786 348.252 175.528 348.947 175.528 348.947C175.528 348.947 182.13 355.642 188.558 357.16C194.987 358.678 191.454 362.51 184.215 362.51H166.465C161.369 362.496 164.554 358.158 164.786 349.135Z" fill="#263238"/>
<path d="M181.16 351.665C179.611 351.477 178.105 351.014 176.716 350.306C176.716 350.306 176.643 350.306 176.629 350.234C176.629 350.234 176.6 350.089 176.629 350.017C176.629 349.915 177.57 347.414 179.032 346.806C179.495 346.59 180.017 346.59 180.48 346.806C180.958 347.038 181.204 347.342 181.175 347.703C181.146 348.065 180.378 348.831 179.51 349.294C180.321 349.164 181.146 349.25 181.913 349.554C182.203 349.713 182.405 349.973 182.492 350.291C182.652 350.696 182.55 351.145 182.232 351.434C181.913 351.636 181.537 351.723 181.16 351.665ZM177.7 350.132C179.278 350.798 181.247 351.39 181.754 350.971C181.754 350.971 181.928 350.827 181.826 350.407C181.783 350.248 181.667 350.118 181.522 350.031C180.263 349.727 178.945 349.756 177.7 350.132ZM179.626 347.24C179.481 347.24 179.336 347.269 179.191 347.327C178.337 347.877 177.7 348.686 177.338 349.641C178.931 349.033 180.465 348.195 180.494 347.717C180.494 347.573 180.263 347.428 180.118 347.356C179.973 347.269 179.799 347.211 179.626 347.182V347.24Z" fill="black"/>
<path d="M224.84 349.135C224.84 348.252 235.597 348.947 235.597 348.947C235.597 348.947 242.199 355.642 248.627 357.16C255.055 358.678 251.522 362.51 244.283 362.51H226.534C221.452 362.496 224.637 358.158 224.84 349.135Z" fill="#263238"/>
<path d="M241.243 351.665C239.694 351.477 238.188 351.014 236.798 350.306C236.755 350.306 236.726 350.263 236.697 350.234C236.697 350.234 236.668 350.089 236.697 350.017C236.697 349.915 237.624 347.414 239.086 346.806C239.549 346.59 240.07 346.59 240.534 346.806C241.026 347.038 241.257 347.342 241.243 347.703C241.229 348.065 240.432 348.831 239.564 349.294C240.374 349.164 241.2 349.25 241.967 349.554C242.256 349.699 242.474 349.973 242.546 350.291C242.705 350.696 242.604 351.145 242.285 351.434C241.981 351.636 241.605 351.723 241.243 351.665ZM237.768 350.132C239.361 350.798 241.315 351.39 241.822 350.971C241.822 350.971 242.01 350.827 241.895 350.407C241.851 350.248 241.735 350.103 241.59 350.031C240.331 349.727 239.013 349.756 237.768 350.132ZM239.694 347.24C239.549 347.24 239.404 347.269 239.26 347.327C238.42 347.877 237.768 348.686 237.421 349.641C239.013 349.033 240.548 348.195 240.577 347.717C240.577 347.573 240.331 347.428 240.186 347.356C240.041 347.269 239.868 347.197 239.694 347.182V347.24Z" fill="black"/>
<path opacity="0.2" d="M179.553 190.43C184.23 180.771 187.487 172.832 187.487 172.832C187.487 172.832 188.515 197.256 185.46 215.664L179.553 190.43Z" fill="black"/>
<path d="M153.204 133.89L194.002 130.289C194.002 130.289 197.969 86.9078 191.584 68.2393C191.584 68.2393 190.513 68.2393 188.689 68.3694C182 68.7309 165.003 69.989 150.308 74.1536C149.324 74.4139 148.383 74.7176 147.413 75.0068C151.973 94.2826 153.913 114.094 153.204 133.89Z" fill="#111111"/>
<path d="M174.182 80.2848C164.685 78.8387 161.919 74.703 161.919 74.703C168.101 69.1502 163.367 59.158 163.367 59.158L174.776 61.5729C174.472 63.1635 174.283 64.7686 174.211 66.3882C173.965 73.3293 177.107 73.4739 177.107 73.4739C178.989 77.277 174.182 80.2848 174.182 80.2848Z" fill="#D8D8D8"/>
<path d="M174.182 80.2847C169.708 79.5617 164.8 78.3037 161.775 74.6885C166.234 70.683 165.336 63.8576 163.063 58.9121L163.396 58.9844L174.79 61.4282C174.92 61.4716 174.949 61.3993 174.906 61.5873C174.385 64.7542 173.835 68.1524 174.935 71.2469C175.326 72.2447 176.079 73.2425 177.15 73.3871C178.525 76.0767 176.397 78.8676 174.168 80.2847H174.182ZM174.182 80.2847C176.498 78.7664 178.221 76.0189 177.107 73.5606C172.865 72.2447 174.153 64.9132 174.645 61.5439L174.761 61.703L163.353 59.317L163.541 59.0712C165.684 64.0456 166.422 70.7986 162.006 74.7753C164.786 77.6674 169.824 79.6629 174.196 80.2703L174.182 80.2847Z" fill="#232323"/>
<path opacity="0.2" d="M174.732 61.5729C174.428 63.1635 174.24 64.7686 174.168 66.3882C166.422 66.2002 163.324 59.158 163.324 59.158L174.732 61.5729Z" fill="black"/>
<path d="M161.413 26.6653C161.413 26.6653 155.622 26.8243 153.059 35.9779C150.496 45.1314 155.839 61.2548 163.801 60.0257C171.764 58.7965 161.413 26.6653 161.413 26.6653Z" fill="#050505"/>
<path d="M160.095 27.6919C160.095 27.6919 161.731 22.732 170.128 22.8621C190.108 23.1803 191.917 45.999 187.241 52.1013C182.565 58.2036 174.037 56.8588 174.037 56.8588L160.095 27.6919Z" fill="#050505"/>
<path d="M182.941 57.2057C182.825 57.5239 182.709 57.842 182.579 58.1457C181.102 62.1223 177.049 64.5372 172.85 63.9299C172.112 63.8865 171.388 63.7997 170.664 63.6551C170.215 63.5684 169.723 63.4671 169.216 63.337C152.378 59.0856 154.232 28.0244 170.809 28.5305C180.784 28.8487 183.839 34.3147 184.23 44.5817C184.563 48.8331 184.128 53.1134 182.941 57.2057Z" fill="#D8D8D8" stroke="#232323" stroke-width="0.25" stroke-miterlimit="10"/>
<path d="M177.816 43.8733C178.569 45.3916 179.495 46.8088 180.581 48.0958C179.959 48.92 178.931 49.3249 177.917 49.1369L177.816 43.8733Z" fill="#D8D8D8"/>
<path d="M171.75 42.8608C171.75 43.6851 171.286 44.3069 170.751 44.3069C170.215 44.3069 169.752 43.6417 169.766 42.8608C169.781 42.08 170.215 41.4148 170.765 41.4148C171.315 41.4148 171.75 42.0366 171.75 42.8608Z" fill="#263238"/>
<path d="M170.577 41.4148L172.372 40.7207C172.372 40.7207 171.431 42.2101 170.577 41.4148Z" fill="#263238"/>
<path d="M181.942 42.7742C181.942 43.5984 181.493 44.2202 180.943 44.2202C180.393 44.2202 179.959 43.555 179.959 42.7742C179.959 41.9933 180.422 41.3281 180.972 41.3281C181.522 41.3281 181.957 41.9499 181.942 42.7742Z" fill="#263238"/>
<path d="M180.711 41.3281L182.507 40.634C182.507 40.634 181.624 42.1235 180.711 41.3281Z" fill="#263238"/>
<path d="M167.493 37.872C167.363 37.872 167.247 37.8286 167.146 37.7418C166.943 37.5394 166.943 37.2068 167.146 37.0043C168.434 35.7463 170.23 35.1823 172.01 35.4571C172.3 35.5005 172.488 35.7752 172.445 36.0644C172.401 36.3536 172.126 36.5416 171.837 36.4982C170.432 36.2813 168.984 36.7151 167.942 37.684C167.841 37.8141 167.667 37.8864 167.493 37.872Z" fill="#263238"/>
<path d="M183.086 37.2502C182.97 37.2502 182.869 37.2213 182.782 37.149C181.812 36.3537 180.523 36.0355 179.293 36.2814C179.018 36.3681 178.714 36.2235 178.627 35.9488C178.54 35.674 178.685 35.3704 178.96 35.2836C180.509 34.9221 182.145 35.2981 183.39 36.2958C183.622 36.4694 183.679 36.8019 183.506 37.0333C183.404 37.1635 183.26 37.2502 183.086 37.2502Z" fill="#263238"/>
<path d="M159.4 45.0444C159.4 45.0444 164.323 36.9899 163.816 30.5839C163.816 30.5839 183.839 23.1367 184.186 43.2079C184.186 43.2079 186.676 25.4794 169.535 24.5394C152.393 23.5995 151.684 48.6596 160.298 56.3525C160.298 56.4827 156.345 50.0622 159.4 45.0444Z" fill="#050505"/>
<path d="M160.964 47.199C160.862 44.7986 158.836 42.9477 156.447 43.0489C156.418 43.0489 156.403 43.0489 156.374 43.0489C153.276 43.2947 151.597 49.585 159.27 51.3492C160.341 51.6095 160.993 50.5394 160.964 47.199Z" fill="#D8D8D8"/>
<path d="M177.092 52.781C174.862 52.9111 172.763 51.6675 171.822 49.6431C171.75 49.4551 171.851 49.2382 172.039 49.1803C172.228 49.1225 172.445 49.2092 172.503 49.3972C173.313 51.1614 175.138 52.2315 177.078 52.0724H177.251C177.454 52.0724 177.613 52.2315 177.613 52.4339C177.613 52.6364 177.454 52.7954 177.251 52.7954H177.092V52.781Z" fill="#263238"/>
<path d="M150.308 74.1825C150.699 74.5585 164.858 88.3249 176.802 84.8833C188.211 81.5863 188.674 69.7721 188.689 68.3694C181.928 68.7309 164.931 70.0468 150.308 74.1825Z" fill="#D8D8D8"/>
<path d="M144.068 133.89L145.516 135.133L146.211 135.741C158.416 111.331 152.219 73.2568 152.219 73.2568L147.413 75.0355C147.731 81.0077 147.746 87.1534 147.586 93.1111C147.166 106.762 145.994 120.369 144.068 133.89Z" fill="#263238"/>
<path d="M186.329 68.2393C186.329 68.2393 199.359 96.5674 196.217 125.893L198.693 123.912C198.693 123.912 198.403 80.9356 191.555 68.2393H186.329Z" fill="#263238"/>
<path d="M211.795 92.6483L206.931 85.4181C206.931 85.4181 205.888 82.0488 204.122 81.3257C202.356 80.6027 196.883 79.7785 195.435 80.2701C193.988 80.7618 193.278 85.4181 193.278 85.4181L204.079 88.8886L207.075 94.8174L211.795 92.6483Z" fill="#D8D8D8"/>
<path d="M211.795 92.6484L206.844 85.476C206.294 84.0155 205.613 82.3236 204.223 81.5138C201.979 80.6751 199.446 80.3859 197.042 80.2847C196.246 80.3136 195.349 80.2124 194.929 80.892C194.06 82.1935 193.741 83.8709 193.437 85.4471L193.322 85.2591C193.394 85.2735 204.093 88.7875 204.151 88.8019C204.18 88.8742 207.104 94.7307 207.133 94.7886L207.047 94.7596L211.795 92.6484ZM211.795 92.6484L207.104 94.8753C207.104 94.8753 207.047 94.9187 207.018 94.8464L203.977 88.9321C204.354 89.1634 193.148 85.5049 193.235 85.5772L193.09 85.5338C193.394 83.8709 193.684 82.1645 194.683 80.6896C195.189 79.9087 196.246 79.9665 197.071 79.9665C199.547 80.1111 202.008 80.4004 204.354 81.2969C205.816 82.1356 206.54 83.9721 207.032 85.3603L211.81 92.6484H211.795Z" fill="#232323"/>
<path d="M180.813 23.961C178.554 23.5128 176.223 23.6284 174.023 24.2936C172.72 23.9466 171.344 24.0189 170.099 24.5105C167.464 24.4093 164.829 24.7419 162.31 25.4938L157.822 38.7831L158.199 39.5061L163.266 26.9977C164.887 28.6752 168.203 31.3359 170.982 30.8876C174.674 30.3815 172.778 27.2436 171.706 25.7686C172.401 25.06 173.531 24.9733 174.327 25.5661C176.108 28.1546 178.989 29.7597 182.13 29.9043C186.285 29.7886 180.813 23.961 180.813 23.961Z" fill="#407BFF"/>
<path d="M180.813 23.961C178.554 23.5128 176.223 23.6284 174.023 24.2936C172.72 23.9466 171.344 24.0189 170.099 24.5105C167.464 24.4093 164.829 24.7419 162.31 25.4938L157.822 38.7831L158.199 39.5061L163.266 26.9977C164.887 28.6752 168.203 31.3359 170.982 30.8876C174.674 30.3815 172.778 27.2436 171.706 25.7686C172.401 25.06 173.531 24.9733 174.327 25.5661C176.108 28.1546 178.989 29.7597 182.13 29.9043C186.285 29.7886 180.813 23.961 180.813 23.961Z" fill="#444647"/>
<g opacity="0.3">
<path d="M179.524 24.3371L180.35 29.2103C180.35 29.2103 183.173 29.9044 183.042 28.4295C182.912 26.9545 180.74 24.3805 180.74 24.3805C180.335 24.3082 179.93 24.2938 179.524 24.3371Z" fill="white"/>
<path d="M178.931 24.2793L179.785 29.1959C179.785 29.1959 178.525 28.8922 178.337 28.5741L177.555 24.3805C177.555 24.3805 178.525 24.2938 178.931 24.2793Z" fill="white"/>
<path d="M168.941 25.2192L169.752 30.0924C169.752 30.0924 172.575 30.7865 172.459 29.3116C172.343 27.8366 170.143 25.2626 170.143 25.2626C169.752 25.1903 169.346 25.1758 168.941 25.2192Z" fill="white"/>
<path d="M168.333 25.2192L169.187 30.1358C169.187 30.1358 167.942 29.8466 167.739 29.514L166.972 25.3205C166.972 25.3205 167.942 25.2192 168.333 25.2192Z" fill="white"/>
</g>
<path d="M192.511 92.4027C192.352 92.4027 192.207 92.3593 192.077 92.2725C188.819 89.8865 186.734 85.0423 184.707 80.4438C182.521 75.4405 180.451 70.6974 177.353 69.9455C176.976 69.8587 176.73 69.4828 176.817 69.1068C176.817 69.1068 176.817 69.0923 176.817 69.0779C176.904 68.6874 177.295 68.4561 177.686 68.5428C181.493 69.4538 183.708 74.515 186.039 79.8654C187.979 84.3337 189.992 88.9466 192.931 91.1012C193.249 91.3326 193.322 91.7809 193.09 92.1135C192.945 92.287 192.743 92.4027 192.511 92.4027Z" fill="#263238"/>
<path d="M202.848 84.1167H186.256C185.025 84.1167 184.027 85.1137 184.027 86.3436V96.1768C184.027 97.4067 185.025 98.4037 186.256 98.4037H202.848C204.079 98.4037 205.078 97.4067 205.078 96.1768V86.3436C205.078 85.1137 204.079 84.1167 202.848 84.1167Z" fill="#263238"/>
<path opacity="0.7" d="M202.848 84.1167H186.256C185.025 84.1167 184.027 85.1137 184.027 86.3436V96.1768C184.027 97.4067 185.025 98.4037 186.256 98.4037H202.848C204.079 98.4037 205.078 97.4067 205.078 96.1768V86.3436C205.078 85.1137 204.079 84.1167 202.848 84.1167Z" fill="white"/>
<path d="M183.607 84.1167H186.039C184.953 84.1167 184.07 84.9988 184.07 86.0833V96.4371C184.07 97.5216 184.953 98.4037 186.039 98.4037H183.607C182.521 98.4037 181.638 97.5216 181.638 96.4371V86.0833C181.638 84.9988 182.521 84.1167 183.607 84.1167Z" fill="#263238"/>
<path opacity="0.3" d="M183.607 84.1167H186.039C184.953 84.1167 184.07 84.9988 184.07 86.0833V96.4371C184.07 97.5216 184.953 98.4037 186.039 98.4037H183.607C182.521 98.4037 181.638 97.5216 181.638 96.4371V86.0833C181.638 84.9988 182.521 84.1167 183.607 84.1167Z" fill="white"/>
<path d="M191.411 91.7376C191.411 94.4128 193.568 96.5819 196.246 96.5963C196.246 96.5963 196.261 96.5963 196.275 96.5963H199.171C201.849 96.7409 204.151 94.6875 204.296 92.0123C204.441 89.3371 202.385 87.0379 199.706 86.8933C199.533 86.8933 199.359 86.8933 199.171 86.8933H196.275C193.597 86.8933 191.425 89.0479 191.411 91.7231V91.7376Z" fill="#263238"/>
<path opacity="0.4" d="M191.411 91.7376C191.411 94.4128 193.568 96.5819 196.246 96.5963C196.246 96.5963 196.261 96.5963 196.275 96.5963H199.171C201.849 96.7409 204.151 94.6875 204.296 92.0123C204.441 89.3371 202.385 87.0379 199.706 86.8933C199.533 86.8933 199.359 86.8933 199.171 86.8933H196.275C193.597 86.8933 191.425 89.0479 191.411 91.7231V91.7376Z" fill="white"/>
<path d="M194.61 91.7376C194.61 94.138 196.55 96.0757 198.953 96.0757C201.357 96.0757 203.297 94.138 203.297 91.7376C203.297 89.3371 201.357 87.3994 198.953 87.3994C196.55 87.3994 194.61 89.3371 194.61 91.7376Z" fill="#263238"/>
<path opacity="0.2" d="M194.61 91.7376C194.61 94.138 196.55 96.0757 198.953 96.0757C201.357 96.0757 203.297 94.138 203.297 91.7376C203.297 89.3371 201.357 87.3994 198.953 87.3994C196.55 87.3994 194.61 89.3371 194.61 91.7376Z" fill="white"/>
<path d="M195.479 91.7375C195.479 93.6752 197.042 95.2514 198.982 95.2658C200.922 95.2658 202.501 93.7041 202.515 91.7664C202.515 89.8287 200.951 88.2525 199.011 88.238C199.011 88.238 198.997 88.238 198.982 88.238C197.042 88.238 195.479 89.7998 195.479 91.7375Z" fill="#263238"/>
<path d="M188.443 85.1436H186.358C185.926 85.1436 185.576 85.4932 185.576 85.9244V86.633C185.576 87.0642 185.926 87.4139 186.358 87.4139H188.443C188.874 87.4139 189.224 87.0642 189.224 86.633V85.9244C189.224 85.4932 188.874 85.1436 188.443 85.1436Z" fill="white"/>
<path d="M170.896 103.089L185.576 96.5384C185.576 96.5384 187.4 94.8321 191.859 95.1936C192.54 95.1936 194.755 98.2448 200.922 96.5384C200.922 96.5384 201.386 99.8499 199.634 101.629C197.882 103.407 186.329 102.221 186.329 102.221L174.747 108.844L170.896 103.089Z" fill="#D8D8D8"/>
<path d="M170.896 103.089L185.533 96.4372C187.154 95.1502 189.789 94.8899 191.859 95.0635C192.366 95.1791 192.612 95.4684 192.96 95.6564C195.291 97.2036 198.259 97.1313 200.865 96.3794L201.053 96.336V96.524C201.241 98.4328 201.067 100.891 199.286 102.062C195.247 103.378 190.223 102.626 186.372 102.337C186.329 102.352 174.732 108.917 174.703 108.946L174.674 108.888L170.881 103.089H170.896ZM170.896 103.089L174.805 108.801L174.718 108.786L186.271 102.106C190.513 102.25 195.044 103.075 199.156 101.744C200.734 100.645 200.908 98.346 200.763 96.5529L200.98 96.6975C200.199 96.9 199.417 97.059 198.62 97.1458C196.203 97.5218 193.828 96.6252 191.874 95.3238C189.76 95.1647 187.371 95.3238 185.634 96.6397L170.91 103.089H170.896Z" fill="#232323"/>
<path d="M142.215 76.9011C134.397 80.8777 145.994 113.052 153.797 116.205C161.601 119.357 181.638 105.215 181.638 105.215L176.73 99.604C176.73 99.604 158.387 107.34 156.287 106.111C154.188 104.882 147.413 75.0356 147.413 75.0356L142.215 76.9011Z" fill="#263238"/>
<path d="M171.286 95.5407C170.968 95.5551 170.664 95.5551 170.345 95.5407C165.061 94.8899 161.34 89.3516 159.617 84.3771C157.692 78.7954 158.025 73.633 160.443 71.2036C160.732 70.9289 161.181 70.9289 161.471 71.2036C161.76 71.4784 161.76 71.9411 161.471 72.2303C159.473 74.2259 159.27 78.9255 160.993 83.8999C162.441 88.2381 165.886 93.5307 170.519 94.1091C174.153 94.5429 177.946 91.8966 181.479 86.445C181.71 86.1269 182.159 86.0546 182.492 86.2859C182.796 86.5028 182.883 86.9077 182.695 87.2259C178.308 93.9211 174.211 95.5407 171.286 95.5407Z" fill="#263238"/>
<path d="M117.111 355.222C117.111 355.222 92.9473 220.986 92.6577 145.357L117.154 144.562C117.154 144.562 113.65 213.972 127.65 354.716L117.111 355.222Z" fill="#D8D8D8" stroke="#232323" stroke-width="0.25" stroke-miterlimit="10"/>
<path d="M56.8542 354.21C56.8542 354.21 50.2523 217.848 59.7497 142.812L84.1158 145.357C84.1158 145.357 71.6794 213.64 67.365 355.035L56.8542 354.21Z" fill="#D8D8D8" stroke="#232323" stroke-width="0.25" stroke-miterlimit="10"/>
<path d="M71.1727 362.12L69.6236 355.136L69.363 342.541H58.8956C58.7508 341.123 57.4767 340.097 56.0579 340.256C55.5512 340.314 55.0879 340.502 54.697 340.82L53.2492 352.388C50.5853 354.774 44.3164 357.29 35.9773 359.112C34.1241 359.517 34.7177 364 39.2492 364C43.7808 364 53.727 363.653 56.9845 363.653C62.3268 363.653 65.425 363.913 69.667 363.985C69.7828 363.985 69.8987 363.985 70.0145 363.985C70.8397 363.783 71.3609 362.959 71.1727 362.12Z" fill="#263238"/>
<path d="M132.023 362.12L130.474 355.136L128.128 342.541H117.588C117.444 341.123 116.17 340.097 114.751 340.256C114.244 340.314 113.781 340.502 113.39 340.82L114.012 352.388C111.349 354.774 105.08 357.29 96.7404 359.112C94.8873 359.517 95.4809 364 100.012 364C104.544 364 114.49 363.653 117.762 363.653C123.09 363.653 126.188 363.913 130.445 363.985C130.56 363.985 130.676 363.985 130.792 363.985C131.646 363.797 132.196 362.973 132.023 362.12Z" fill="#263238"/>
<path d="M131.284 135.321L56.3764 129.696C56.3764 129.696 73.0982 73.199 78.0931 65.9543C83.0879 58.7096 99.8097 51.9565 99.8097 51.9565L120.788 56.1501L131.284 135.321Z" fill="#407BFF"/>
<path d="M131.284 135.321L56.3764 129.696C56.3764 129.696 73.0982 73.199 78.0931 65.9543C83.0879 58.7096 99.8097 51.9565 99.8097 51.9565L120.788 56.1501L131.284 135.321Z" fill="#444647"/>
<path d="M80.2647 213.466C82.2482 200.625 84.6081 189.447 87.6484 181.19C88.0683 186.613 89.2844 198.311 90.9349 213.466H123.597C122.54 173.237 121.961 126.905 121.888 121.078H62.1386C59.5471 135.625 54.4798 170.403 50.9038 213.466H80.2647Z" fill="#161616"/>
<path opacity="0.2" d="M80.2213 212.251C82.2048 199.411 84.5646 188.233 87.605 179.976C88.0248 185.398 89.2409 197.097 90.8914 212.251H123.553C122.496 172.022 121.917 125.691 121.845 119.863H62.0951C59.5036 134.411 54.4364 169.188 50.8604 212.251H80.2213Z" fill="#191919"/>
<path opacity="0.2" d="M87.6484 181.19C84.6949 189.881 82.4654 198.803 80.9741 207.87C79.2947 184.27 85.9835 159.254 85.9835 159.254L87.6484 181.19Z" fill="black"/>
<path d="M89.0527 211.254L89.4436 215.1L124.61 213.408V209.648L89.0527 211.254Z" fill="#545454"/>
<path d="M50.0931 210.458L81.5677 211.658L80.6991 215.1L50.0931 213.466V210.458Z" fill="#545454"/>
<path d="M62.9783 72.158L48.0517 99.9944L17.4891 98.2158C18.3289 99.792 19.2699 101.296 20.2978 102.756C21.9773 105.128 29.2306 106.241 29.9255 105.648C30.8666 105.012 31.8221 104.419 32.8211 103.884C32.8211 103.884 54.8563 108.02 57.6505 107.745C60.4447 107.471 69.2327 77.8409 69.2327 77.8409L62.9783 72.158Z" fill="#E4897B"/>
<path d="M17.4891 98.2158C18.3289 99.7775 19.2699 101.296 20.2978 102.756C21.9773 105.128 29.2306 106.241 29.9255 105.649C30.8521 104.998 31.8221 104.405 32.8211 103.87C32.8211 103.87 54.8563 108.02 57.6505 107.731C58.7363 107.63 60.7198 103.103 62.7322 97.6085C65.9318 88.9322 69.2182 77.812 69.2182 77.812L62.9493 72.0278L57.1582 82.8298L48.0227 99.8643L17.4891 98.2158Z" fill="#D8D8D8"/>
<path d="M17.4891 98.2159L19.5739 101.556C20.1965 102.728 21.0651 103.711 22.3247 104.203C24.6267 105.128 27.4209 106.025 29.8821 105.591L32.7777 103.798C41.0155 105.114 49.2968 107.095 57.636 107.601C58.5915 107.138 59.0982 105.764 59.605 104.839C63.5284 96.1336 66.2068 86.8789 69.03 77.7687L69.0734 77.9423L62.819 72.1436L63.0652 72.1002C63.0362 72.1581 48.0951 99.9223 48.0662 99.9801C48.0228 99.9801 17.5326 98.2159 17.4747 98.2159H17.4891ZM17.4891 98.2159C17.4891 98.2159 48.3992 99.662 47.9214 99.8066L62.8046 71.9412L62.9059 71.7532L63.0652 71.8978L69.3485 77.6675L69.4354 77.7398C66.5977 86.9222 63.8614 96.177 59.88 104.94C59.2575 105.996 58.9245 107.283 57.6939 107.847C49.4126 107.297 40.8273 105.345 32.879 103.942L29.9835 105.706C27.4209 106.198 24.6846 105.229 22.3102 104.275C21.0507 103.754 20.1531 102.757 19.5595 101.571L17.5036 98.2159H17.4891Z" fill="#232323"/>
<path opacity="0.2" d="M57.1872 82.96C57.5346 88.5707 58.939 94.2103 62.5874 97.5217L62.7611 97.6663C65.9607 88.99 69.2472 77.8699 69.2472 77.8699L62.9783 72.0857L57.1872 82.96Z" fill="black"/>
<path d="M77.7167 50.9443C73.9814 51.7686 57.6649 73.951 57.6649 73.951L69.1024 83.842L77.7167 50.9443Z" fill="#407BFF"/>
<path d="M77.7167 50.9443C73.9814 51.7686 57.6649 73.951 57.6649 73.951L69.1024 83.842L77.7167 50.9443Z" fill="#263238"/>
<path d="M72.273 126.978L64.0207 126.877L64.7301 121.006H72.273V126.978Z" fill="black"/>
<path d="M102.126 121.006H119.832V127.556L102.126 127.339V121.006Z" fill="black"/>
<path d="M100.157 127.325L74.242 127.007V121.006H100.157V127.325Z" fill="black"/>
<path d="M89.8345 119.863H79.6422V127.195H89.8345V119.863Z" fill="white"/>
<path d="M119.832 121.006H64.6867C64.6867 121.006 63.9917 81.7308 77.7167 50.9443L135.628 59.7219C137.814 60.0545 139.305 62.0934 138.972 64.2625C138.914 64.6529 138.798 65.0144 138.639 65.3759C134.18 74.8476 124.436 97.0589 119.832 121.006Z" fill="#EFEFEF"/>
<path opacity="0.6" d="M119.615 121.006H64.4695C64.4695 121.006 63.7746 81.7308 77.4995 50.9443L135.411 59.7219C137.597 60.0545 139.088 62.0934 138.755 64.2625C138.697 64.6529 138.581 65.0144 138.422 65.3759C133.963 74.8476 124.219 97.0589 119.615 121.006Z" fill="#A8A8A8"/>
<path d="M101.866 59.8231C101.866 59.8231 113.448 61.9198 118.312 57.8275C116.083 55.1668 115.706 50.5973 116.184 45.8108C116.546 42.4271 117.183 39.0867 118.095 35.8186C118.37 34.763 118.674 33.7797 118.949 32.9265L104.168 42.8898L104.254 43.5839C104.254 44.2491 104.385 44.9432 104.399 45.6228C104.501 47.2713 104.283 48.9054 103.748 50.4671C103.212 51.8119 103.169 52.8386 102.532 53.5327C101.576 54.3425 100.36 54.7908 99.1003 54.7619C97.4788 56.9165 101.866 59.8231 101.866 59.8231Z" fill="#D8D8D8"/>
<path opacity="0.2" d="M102.532 53.4894C107.845 52.6073 112.666 49.8887 116.184 45.8108C116.546 42.4271 117.183 39.0867 118.095 35.8186L104.254 43.5405C104.254 44.2057 104.385 44.8998 104.399 45.5794C104.501 47.2279 104.283 48.862 103.748 50.4237C103.212 51.7685 103.169 52.8097 102.532 53.4894Z" fill="black"/>
<path d="M128.693 29.6729C125.117 29.2825 112.941 22.327 112.941 22.327L120.614 15.4583C120.614 15.4583 134.281 27.1857 134.571 28.8053C134.86 30.4249 128.693 29.6729 128.693 29.6729Z" fill="#407BFF"/>
<path d="M128.693 29.6729C125.117 29.2825 112.941 22.327 112.941 22.327L120.614 15.4583C120.614 15.4583 134.281 27.1857 134.571 28.8053C134.86 30.4249 128.693 29.6729 128.693 29.6729Z" fill="#444647"/>
<path d="M93.4974 9.0813C93.4974 9.0813 89.3133 22.6308 95.8718 29.0513C102.43 35.4717 106.296 9.68864 106.296 9.68864L93.4974 9.0813Z" fill="#020202"/>
<path d="M115.605 43.2515C111.725 47.4595 105.514 48.5729 100.418 45.97C97.1892 44.3794 94.6701 41.6319 93.3961 38.2626C93.2079 37.7999 93.0631 37.3227 92.9183 36.8165C90.5729 27.8076 91.6298 12.841 101.431 8.61854C108.424 5.58184 116.56 8.77761 119.601 15.7765C120.455 17.7431 120.846 19.8833 120.73 22.009C120.354 32.0735 120.6 38.0168 115.605 43.2515Z" fill="#D8D8D8" stroke="#232323" stroke-width="0.25" stroke-miterlimit="10"/>
<path d="M105.499 25.1467C105.572 25.9565 105.094 26.5928 104.558 26.5928C104.023 26.5928 103.574 25.9421 103.545 25.1467C103.516 24.3514 103.95 23.7007 104.486 23.7007C105.022 23.7007 105.471 24.3225 105.499 25.1467Z" fill="#263238"/>
<path d="M96.2192 25.3347C96.2916 26.1445 95.8139 26.7808 95.2782 26.7808C94.7425 26.7808 94.2937 26.1301 94.2647 25.3347C94.2358 24.5394 94.6846 23.8887 95.2203 23.8887C95.7559 23.8887 96.2048 24.5683 96.2192 25.3347Z" fill="#263238"/>
<path d="M99.1727 25.6819C98.2461 28.2125 96.9721 30.5985 95.394 32.782C96.5522 33.5629 98 33.8087 99.3609 33.4327L99.1727 25.6819Z" fill="#D8D8D8"/>
<path d="M92.7446 21.604C92.9038 21.6907 93.092 21.6907 93.2513 21.604C94.2068 20.852 95.4664 20.5773 96.6536 20.8954C96.8852 21.0256 97.1893 20.9533 97.3196 20.7074C97.4499 20.4616 97.3775 20.1724 97.1313 20.0422C97.0879 20.0133 97.03 19.9989 96.9721 19.9844C95.4664 19.5506 93.8594 19.8687 92.6288 20.8376C92.4116 20.9822 92.3682 21.2858 92.5129 21.5028C92.5129 21.5028 92.6577 21.5751 92.7301 21.604H92.7446Z" fill="#263238"/>
<path d="M107.237 21.4304C107.338 21.4304 107.425 21.387 107.512 21.3292C107.7 21.1412 107.7 20.8375 107.512 20.6495C106.339 19.6228 104.747 19.2324 103.241 19.5939C102.995 19.6662 102.85 19.941 102.922 20.1868C102.922 20.1868 102.922 20.1868 102.922 20.2013C102.995 20.4471 103.27 20.5917 103.516 20.5194C104.718 20.2591 105.963 20.5917 106.889 21.4015C106.991 21.4593 107.121 21.4593 107.237 21.4304Z" fill="#263238"/>
<path d="M113.071 9.61621L112.145 11.4961C115.446 12.6818 114.678 16.5139 113.969 18.2491C112.434 21.9366 114.389 27.7786 117.198 30.1646C117.198 30.1646 117.328 28.545 118.645 28.9644C119.963 29.3837 119.398 37.7998 116.618 41.7475C116.618 41.7475 120.745 38.2191 123.264 29.4416C125.58 21.3292 126.029 14.5183 124.436 11.3226L113.071 9.61621Z" fill="#020202"/>
<path d="M125.305 30.179C124.234 32.4782 122.294 34.2569 119.905 35.1389C116.749 36.2669 114.925 33.4904 115.562 30.3814C116.184 27.6195 118.558 23.6139 121.845 23.8453C124.234 24.0622 126 26.1734 125.783 28.5594C125.725 29.1234 125.566 29.6729 125.305 30.179Z" fill="#D8D8D8"/>
<path d="M92.4695 14.07C92.4695 14.07 100.823 11.713 126.594 19.7386C126.594 19.7386 130.517 10.426 120.802 3.70186C111.088 -3.02228 90.1386 -1.17134 92.4695 14.07Z" fill="#263238"/>
<path d="M96.2627 11.5251C99.4623 11.5396 102.647 12.0313 105.717 12.9712C105.717 12.9712 107.049 7.82326 106.296 7.46174C105.543 7.10023 97.6091 5.10468 97.3051 0.911133C95.7415 2.34272 95.3216 4.64194 96.2627 6.53627C94.3516 6.72426 92.5274 5.69756 91.7022 3.9623C91.7022 3.9623 89.6463 8.84995 96.2627 11.5251Z" fill="#020202"/>
<path d="M119.355 17.6274L126.97 18.5095C126.97 18.5095 134.658 26.593 135.324 28.6319C135.99 30.6708 128.693 29.6875 128.693 29.6875C128.693 29.6875 134.354 29.7743 134.035 28.6319C133.717 27.4895 119.355 17.6274 119.355 17.6274Z" fill="#407BFF"/>
<path d="M119.355 17.6274L126.97 18.5095C126.97 18.5095 134.658 26.593 135.324 28.6319C135.99 30.6708 128.693 29.6875 128.693 29.6875C128.693 29.6875 134.354 29.7743 134.035 28.6319C133.717 27.4895 119.355 17.6274 119.355 17.6274Z" fill="#263238"/>
<path d="M99.7084 37.5541H98.9411C98.7528 37.5541 98.5936 37.3805 98.6081 37.1925C98.6081 37.1925 98.6081 37.1925 98.6081 37.1781C98.6081 36.9901 98.7528 36.8455 98.9411 36.8455C98.9555 36.8455 98.97 36.8455 98.9845 36.8455C104.66 37.1492 105.905 33.6642 105.963 33.5196C106.021 33.3316 106.223 33.2304 106.412 33.2882C106.6 33.3605 106.701 33.563 106.643 33.7509C106.585 33.8811 105.311 37.5541 99.7084 37.5541Z" fill="#263238"/>
<path d="M112.145 56.1646C112.145 56.1646 113.028 121.569 128.447 146.369L145.255 138.011C139.754 125.185 136.381 111.548 135.28 97.6373C134.614 89.0188 135.439 80.3425 137.727 71.9988C138.422 69.5839 139.291 67.2124 140.319 64.9132C141.317 62.6718 138.987 60.228 136.54 59.852L112.145 56.1646Z" fill="#545454"/>
<path d="M125.421 53.4895L112.145 56.1502L115.446 67.2414L128.447 58.623L125.421 53.4895Z" fill="#407BFF"/>
<path d="M125.421 53.4895L112.145 56.1502L115.446 67.2414L128.447 58.623L125.421 53.4895Z" fill="#263238"/>
<path d="M96.2627 52.5495L91.0217 60.04C91.0217 60.04 76.0807 67.2703 59.0693 139.862L49.6877 132.01C49.6877 132.01 70.1882 56.4683 77.7167 50.9443L96.2627 52.5495Z" fill="#545454"/>
<path d="M99.7663 51.9566L91.0217 60.0545L94.1923 51.7253L97.363 49.8599L99.7663 51.9566Z" fill="#407BFF"/>
<path d="M99.7663 51.9566L91.0217 60.0545L94.1923 51.7253L97.363 49.8599L99.7663 51.9566Z" fill="#263238"/>
<path d="M104.587 30.0055C102.358 30.2947 100.316 28.7185 100.027 26.4916C99.7373 24.2647 101.315 22.2258 103.545 21.9366C105.775 21.6474 107.816 23.2235 108.105 25.4505C108.134 25.624 108.134 25.7975 108.134 25.971C108.265 28.0678 106.687 29.8609 104.587 30.0055ZM104.587 22.6596C102.763 22.3704 101.026 23.614 100.736 25.436C100.447 27.258 101.692 28.9933 103.516 29.2825C105.34 29.5717 107.078 28.3281 107.367 26.5061C107.396 26.3326 107.411 26.1446 107.411 25.971C107.541 24.2792 106.281 22.8042 104.587 22.6596Z" fill="#263238"/>
<path d="M94.8873 29.673C92.6577 29.9622 90.6163 28.386 90.3268 26.1591C90.0372 23.9322 91.6153 21.8933 93.8449 21.604C96.0745 21.3148 98.1158 22.891 98.4054 25.1179C98.4343 25.2915 98.4343 25.465 98.4343 25.6385C98.5646 27.7208 96.9721 29.5284 94.8873 29.673ZM94.8873 22.3271C93.0631 22.0379 91.3258 23.2815 91.0362 25.1035C90.7466 26.9255 91.9917 28.6608 93.8159 28.95C95.6401 29.2392 97.3775 27.9956 97.667 26.1736C97.696 26 97.7104 25.8121 97.7104 25.6385C97.7684 23.99 96.5233 22.5874 94.8873 22.4428V22.3271Z" fill="#263238"/>
<path d="M101.2 26.2602C101.2 26.2602 99.4623 25.0745 98.304 25.971L97.8697 25.3926C99.4623 24.1779 101.547 25.6095 101.634 25.6674L101.2 26.2602Z" fill="#263238"/>
<path d="M118.043 23.5033L107.728 25.5974L107.873 26.3059L118.187 24.2118L118.043 23.5033Z" fill="#263238"/>
<path opacity="0.2" d="M118.964 93.7764C118.964 93.7764 127.245 99.0545 135.28 97.6374C134.614 89.0189 135.44 80.3426 137.727 71.9989C137.003 70.7987 136.511 70.0901 136.511 70.0901L118.964 93.7764Z" fill="black"/>
<path d="M123.597 72.158C123.597 72.158 110.089 91.1012 108.844 92.4027C107.599 93.7041 75.6174 92.4027 75.6174 92.4027C75.6174 92.4027 71.1582 89.2503 70.5936 88.8743C65.8738 88.3826 61.1251 88.2525 56.3909 88.4983C55.5367 88.8743 56.8397 97.1746 57.7663 98.158C58.6929 99.1413 69.4209 100.457 70.5936 99.9944C71.6215 99.7052 72.7073 99.6185 73.7642 99.7342C73.7642 99.7342 108.757 102.858 112.145 101.571C115.533 100.284 129.272 85.9677 129.272 85.9677L123.597 72.158Z" fill="#D8D8D8"/>
<path d="M123.597 72.158C120.151 76.9734 113.231 86.7776 109.77 91.3905L109.206 92.1135C109.018 92.3738 108.757 92.6341 108.438 92.663C97.5367 93.6753 86.5336 92.7353 75.6029 92.5329H75.5595L75.5305 92.504L70.5067 88.9901C66.2647 88.5707 60.7487 88.3972 56.4488 88.643C55.9711 90.3493 56.5212 92.3594 56.7384 94.1091C57.0424 95.3961 57.1727 97.0301 57.9545 98.0713C58.273 98.2882 58.7797 98.4183 59.2285 98.5485C62.8769 99.3149 66.8149 100.052 70.5212 99.8354C71.8532 99.4305 73.2865 99.4884 74.6184 99.6475C83.8263 100.428 93.7291 101.253 102.937 101.643C105.63 101.744 108.352 101.86 111.03 101.657C112.391 101.643 113.462 100.66 114.519 99.8644C119.746 95.5985 124.465 90.7108 129.214 85.9244C129.315 86.2136 123.524 72.1002 123.582 72.158H123.597ZM123.597 72.158C123.597 72.158 129.33 85.9533 129.344 85.9823C125.595 89.8866 121.772 93.7476 117.762 97.3916C115.692 99.0256 113.81 101.469 111.073 101.874C100.418 102.265 89.3133 101.007 78.6432 100.298C76.3557 100.197 72.7942 99.4884 70.6515 100.139C68.6391 100.414 66.8004 100.052 64.8314 99.8788C62.4426 99.4884 59.938 99.4016 57.7373 98.346C56.4054 96.3071 56.3909 93.6753 56.0145 91.3037C56.0145 90.4361 55.6525 89.0045 56.3185 88.3393C61.0817 88.079 65.9318 88.1947 70.666 88.7442L75.6898 92.287C80.1344 92.4027 85.4623 92.6486 90.1965 92.7353C96.2482 92.7642 102.387 93.227 108.381 92.475C108.714 92.4461 108.858 92.2003 109.047 91.9834L109.611 91.2748C113.086 86.7197 120.151 76.8721 123.582 72.1436L123.597 72.158Z" fill="#232323"/>
<path d="M140.188 61.0668C150.221 67.7765 131.067 95.9022 131.067 95.9022L115.446 81.5574C115.446 81.5574 129.185 53.7209 140.188 61.0668Z" fill="#407BFF"/>
<path d="M140.188 61.0668C150.221 67.7765 131.067 95.9022 131.067 95.9022L115.446 81.5574C115.446 81.5574 129.185 53.7209 140.188 61.0668Z" fill="#263238"/>
<path d="M78.0786 100.154L77.9049 101.874C77.789 103.075 76.7322 103.971 75.5305 103.913L11.6691 97.6374C10.4385 97.4783 9.54085 96.4082 9.58428 95.1791L9.75801 93.4438L78.0786 100.154Z" fill="#263238"/>
<path opacity="0.2" d="M78.0786 100.154L77.9049 101.874C77.789 103.075 76.7322 103.971 75.5305 103.913L11.6691 97.6374C10.4385 97.4783 9.54085 96.4082 9.58428 95.1791L9.75801 93.4438L78.0786 100.154Z" fill="white"/>
<path opacity="0.2" d="M54.2337 97.8109L54.0745 99.5462C53.9442 100.746 52.9018 101.628 51.7001 101.571L11.6691 97.6374C10.4385 97.4783 9.54085 96.4082 9.58428 95.1791L9.75801 93.4438L54.2337 97.8109Z" fill="white"/>
<path d="M51.8449 99.9799L9.67115 95.8442C8.28128 95.6562 7.12306 94.644 6.77559 93.2847L0.0723886 62.0211C-0.202689 61.1245 0.289555 60.1846 1.1727 59.8954C1.41882 59.8231 1.66494 59.7941 1.92554 59.8375L44.1138 63.9732C45.5326 64.1901 46.6618 65.2313 47.0093 66.6195L53.7125 97.8398C53.9876 98.7218 53.5098 99.6473 52.6267 99.9221C52.3806 100.009 52.1055 100.023 51.8449 99.9799Z" fill="#263238"/>
<path opacity="0.2" d="M51.8449 99.9799L9.67115 95.8442C8.28128 95.6562 7.12306 94.644 6.77559 93.2847L0.0723886 62.0211C-0.202689 61.1245 0.289555 60.1846 1.1727 59.8954C1.41882 59.8231 1.66494 59.7941 1.92554 59.8375L44.1138 63.9732C45.5326 64.1901 46.6618 65.2313 47.0093 66.6195L53.7125 97.8398C53.9876 98.7218 53.5098 99.6473 52.6267 99.9221C52.3806 100.009 52.1055 100.023 51.8449 99.9799Z" fill="white"/>
<path opacity="0.2" d="M50.2089 99.8208L9.67115 95.8442C8.28128 95.6562 7.12306 94.644 6.77559 93.2847L0.0723886 62.0211C-0.202689 61.1245 0.289555 60.1846 1.1727 59.8954C1.41882 59.8231 1.66494 59.7941 1.92554 59.8375L42.4633 63.8142C43.8821 64.0311 45.0259 65.0722 45.3588 66.4604L52.1055 97.6373C52.424 98.4905 51.9897 99.4449 51.1355 99.7485C50.8459 99.8642 50.5274 99.8787 50.2089 99.8208Z" fill="white"/>
<path opacity="0.2" d="M29.303 81.3405C29.6215 83.4083 28.4633 84.9411 26.697 84.7676C24.6991 84.3483 23.1934 82.7287 22.9183 80.7042C22.5998 78.6364 23.7725 77.1035 25.5243 77.2771C27.5222 77.6964 29.0279 79.316 29.303 81.3405Z" fill="white"/>
</g>
<defs>
<clipPath id="clip0_96_1126">
<rect width="252" height="364" fill="white"/>
</clipPath>
</defs>
</svg>
